<?xml version="1.0" encoding="UTF-8" standalone="no"?>
<!DOCTYPE svg PUBLIC "-//W3C//DTD SVG 1.1//EN"
 "http://www.w3.org/Graphics/SVG/1.1/DTD/svg11.dtd">
<!-- Generated by graphviz version 6.0.1 (20220911.1526)
 -->
<!-- Title: common/common&#45;base.h Pages: 1 -->
<svg width="608pt" height="82pt"
 viewBox="0.00 0.00 608.00 82.00" xmlns="http://www.w3.org/2000/svg" xmlns:xlink="http://www.w3.org/1999/xlink">
<g id="graph0" class="graph" transform="scale(1 1) rotate(0) translate(4 78)">
<title>common/common&#45;base.h</title>
<!-- Node1 -->
<g id="Node000001" class="node">
<title>Node1</title>
<g id="a_Node000001"><a xlink:title=" ">
<polygon fill="#999999" stroke="#666666" points="354.5,-74 227.5,-74 227.5,-55 354.5,-55 354.5,-74"/>
<text text-anchor="middle" x="291" y="-62" font-family="Helvetica,sans-Serif" font-size="10.00">common/common&#45;base.h</text>
</a>
</g>
</g>
<!-- Node2 -->
<g id="Node000002" class="node">
<title>Node2</title>
<g id="a_Node000002"><a xlink:title=" ">
<polygon fill="#e0e0e0" stroke="#999999" points="48,-19 0,-19 0,0 48,0 48,-19"/>
<text text-anchor="middle" x="24" y="-7" font-family="Helvetica,sans-Serif" font-size="10.00">llama.h</text>
</a>
</g>
</g>
<!-- Node1&#45;&gt;Node2 -->
<g id="edge1_Node000001_Node000002" class="edge">
<title>Node1&#45;&gt;Node2</title>
<g id="a_edge1_Node000001_Node000002"><a xlink:title=" ">
<path fill="none" stroke="#63b8ff" d="M241.05,-54.96C195.77,-47 126.98,-34.38 58.25,-19.16"/>
<polygon fill="#63b8ff" stroke="#63b8ff" points="58.63,-15.66 48.11,-16.9 57.1,-22.49 58.63,-15.66"/>
</a>
</g>
</g>
<!-- Node3 -->
<g id="Node000003" class="node">
<title>Node3</title>
<g id="a_Node000003"><a xlink:title=" ">
<polygon fill="#e0e0e0" stroke="#999999" points="130,-19 66,-19 66,0 130,0 130,-19"/>
<text text-anchor="middle" x="98" y="-7" font-family="Helvetica,sans-Serif" font-size="10.00">sampling.h</text>
</a>
</g>
</g>
<!-- Node1&#45;&gt;Node3 -->
<g id="edge2_Node000001_Node000003" class="edge">
<title>Node1&#45;&gt;Node3</title>
<g id="a_edge2_Node000001_Node000003"><a xlink:title=" ">
<path fill="none" stroke="#63b8ff" d="M259.99,-54.98C227.17,-45.97 175.2,-31.7 139.01,-21.76"/>
<polygon fill="#63b8ff" stroke="#63b8ff" points="139.82,-18.36 129.25,-19.08 137.97,-25.11 139.82,-18.36"/>
</a>
</g>
</g>
<!-- Node4 -->
<g id="Node000004" class="node">
<title>Node4</title>
<g id="a_Node000004"><a xlink:title=" ">
<polygon fill="#e0e0e0" stroke="#999999" points="192,-19 148,-19 148,0 192,0 192,-19"/>
<text text-anchor="middle" x="170" y="-7" font-family="Helvetica,sans-Serif" font-size="10.00">cmath</text>
</a>
</g>
</g>
<!-- Node1&#45;&gt;Node4 -->
<g id="edge3_Node000001_Node000004" class="edge">
<title>Node1&#45;&gt;Node4</title>
<g id="a_edge3_Node000001_Node000004"><a xlink:title=" ">
<path fill="none" stroke="#63b8ff" d="M271.56,-54.98C252.01,-46.42 221.62,-33.11 199.18,-23.28"/>
<polygon fill="#63b8ff" stroke="#63b8ff" points="200.36,-19.98 189.79,-19.17 197.55,-26.39 200.36,-19.98"/>
</a>
</g>
</g>
<!-- Node5 -->
<g id="Node000005" class="node">
<title>Node5</title>
<g id="a_Node000005"><a xlink:title=" ">
<polygon fill="#e0e0e0" stroke="#999999" points="251.5,-19 210.5,-19 210.5,0 251.5,0 251.5,-19"/>
<text text-anchor="middle" x="231" y="-7" font-family="Helvetica,sans-Serif" font-size="10.00">string</text>
</a>
</g>
</g>
<!-- Node1&#45;&gt;Node5 -->
<g id="edge4_Node000001_Node000005" class="edge">
<title>Node1&#45;&gt;Node5</title>
<g id="a_edge4_Node000001_Node000005"><a xlink:title=" ">
<path fill="none" stroke="#63b8ff" d="M281.36,-54.98C272.49,-47.15 259.13,-35.34 248.39,-25.86"/>
<polygon fill="#63b8ff" stroke="#63b8ff" points="250.63,-23.17 240.82,-19.17 245.99,-28.41 250.63,-23.17"/>
</a>
</g>
</g>
<!-- Node6 -->
<g id="Node000006" class="node">
<title>Node6</title>
<g id="a_Node000006"><a xlink:title=" ">
<polygon fill="#e0e0e0" stroke="#999999" points="312,-19 270,-19 270,0 312,0 312,-19"/>
<text text-anchor="middle" x="291" y="-7" font-family="Helvetica,sans-Serif" font-size="10.00">vector</text>
</a>
</g>
</g>
<!-- Node1&#45;&gt;Node6 -->
<g id="edge5_Node000001_Node000006" class="edge">
<title>Node1&#45;&gt;Node6</title>
<g id="a_edge5_Node000001_Node000006"><a xlink:title=" ">
<path fill="none" stroke="#63b8ff" d="M291,-54.75C291,-47.8 291,-37.85 291,-29.13"/>
<polygon fill="#63b8ff" stroke="#63b8ff" points="294.5,-29.09 291,-19.09 287.5,-29.09 294.5,-29.09"/>
</a>
</g>
</g>
<!-- Node7 -->
<g id="Node000007" class="node">
<title>Node7</title>
<g id="a_Node000007"><a xlink:title=" ">
<polygon fill="#e0e0e0" stroke="#999999" points="379.5,-19 330.5,-19 330.5,0 379.5,0 379.5,-19"/>
<text text-anchor="middle" x="355" y="-7" font-family="Helvetica,sans-Serif" font-size="10.00">random</text>
</a>
</g>
</g>
<!-- Node1&#45;&gt;Node7 -->
<g id="edge6_Node000001_Node000007" class="edge">
<title>Node1&#45;&gt;Node7</title>
<g id="a_edge6_Node000001_Node000007"><a xlink:title=" ">
<path fill="none" stroke="#63b8ff" d="M301.28,-54.98C310.84,-47.07 325.28,-35.11 336.78,-25.58"/>
<polygon fill="#63b8ff" stroke="#63b8ff" points="339.06,-28.24 344.53,-19.17 334.6,-22.85 339.06,-28.24"/>
</a>
</g>
</g>
<!-- Node8 -->
<g id="Node000008" class="node">
<title>Node8</title>
<g id="a_Node000008"><a xlink:title=" ">
<polygon fill="#e0e0e0" stroke="#999999" points="442,-19 398,-19 398,0 442,0 442,-19"/>
<text text-anchor="middle" x="420" y="-7" font-family="Helvetica,sans-Serif" font-size="10.00">thread</text>
</a>
</g>
</g>
<!-- Node1&#45;&gt;Node8 -->
<g id="edge7_Node000001_Node000008" class="edge">
<title>Node1&#45;&gt;Node8</title>
<g id="a_edge7_Node000001_Node000008"><a xlink:title=" ">
<path fill="none" stroke="#63b8ff" d="M311.73,-54.98C332.76,-46.34 365.55,-32.87 389.54,-23.02"/>
<polygon fill="#63b8ff" stroke="#63b8ff" points="390.98,-26.21 398.9,-19.17 388.32,-19.73 390.98,-26.21"/>
</a>
</g>
</g>
<!-- Node9 -->
<g id="Node000009" class="node">
<title>Node9</title>
<g id="a_Node000009"><a xlink:title=" ">
<polygon fill="#e0e0e0" stroke="#999999" points="543.5,-19 460.5,-19 460.5,0 543.5,0 543.5,-19"/>
<text text-anchor="middle" x="502" y="-7" font-family="Helvetica,sans-Serif" font-size="10.00">unordered_map</text>
</a>
</g>
</g>
<!-- Node1&#45;&gt;Node9 -->
<g id="edge8_Node000001_Node000009" class="edge">
<title>Node1&#45;&gt;Node9</title>
<g id="a_edge8_Node000001_Node000009"><a xlink:title=" ">
<path fill="none" stroke="#63b8ff" d="M324.9,-54.98C361.02,-45.91 418.32,-31.52 457.92,-21.57"/>
<polygon fill="#63b8ff" stroke="#63b8ff" points="458.99,-24.91 467.83,-19.08 457.28,-18.12 458.99,-24.91"/>
</a>
</g>
</g>
<!-- Node10 -->
<g id="Node000010" class="node">
<title>Node10</title>
<g id="a_Node000010"><a xlink:title=" ">
<polygon fill="#e0e0e0" stroke="#999999" points="600,-19 562,-19 562,0 600,0 600,-19"/>
<text text-anchor="middle" x="581" y="-7" font-family="Helvetica,sans-Serif" font-size="10.00">tuple</text>
</a>
</g>
</g>
<!-- Node1&#45;&gt;Node10 -->
<g id="edge9_Node000001_Node000010" class="edge">
<title>Node1&#45;&gt;Node10</title>
<g id="a_edge9_Node000001_Node000010"><a xlink:title=" ">
<path fill="none" stroke="#63b8ff" d="M354.71,-54.98C405.76,-47.63 479.33,-35.86 552.02,-18.98"/>
<polygon fill="#63b8ff" stroke="#63b8ff" points="552.88,-22.38 561.81,-16.68 551.27,-15.56 552.88,-22.38"/>
</a>
</g>
</g>
</g>
</svg>
