<?xml version="1.0" encoding="UTF-8" standalone="no"?>
<!DOCTYPE svg PUBLIC "-//W3C//DTD SVG 1.1//EN"
 "http://www.w3.org/Graphics/SVG/1.1/DTD/svg11.dtd">
<!-- Generated by graphviz version 6.0.1 (20220911.1526)
 -->
<!-- Title: llama_sampling_params Pages: 1 -->
<!--zoomable 686 -->

<svg id="main" version="1.1" xmlns="http://www.w3.org/2000/svg" xmlns:xlink="http://www.w3.org/1999/xlink" xml:space="preserve" onload="init(evt)">
<style type="text/css"><![CDATA[
.node, .edge {opacity: 0.7;}
.node.selected, .edge.selected {opacity: 1;}
.edge:hover path { stroke: red; }
.edge:hover polygon { stroke: red; fill: red; }
]]></style>

<defs>
  <circle id="rim" cx="0" cy="0" r="7"/>
  <circle id="rim2" cx="0" cy="0" r="3.5"/>
  <g id="zoomPlus">
    <use xlink:href="#rim" fill="#404040"><set attributeName="fill" to="#808080" begin="zoomplus.mouseover" end="zoomplus.mouseout"/></use>
    <path d="M-4,0h8M0,-4v8" fill="none" stroke="white" stroke-width="1.5" pointer-events="none"/>
  </g>
  <g id="zoomMin">
    <use xlink:href="#rim" fill="#404040"><set attributeName="fill" to="#808080" begin="zoomminus.mouseover" end="zoomminus.mouseout"/></use>
    <path d="M-4,0h8" fill="none" stroke="white" stroke-width="1.5" pointer-events="none"/>
  </g>
  <g id="arrowUp" transform="translate(30 24)">
    <use xlink:href="#rim"/>
    <path pointer-events="none" fill="none" stroke="white" stroke-width="1.5" d="M0,-3.0v7 M-2.5,-0.5L0,-3.0L2.5,-0.5"/>
  </g>
  <g id="arrowRight" transform="rotate(90) translate(36 -43)">
    <use xlink:href="#rim"/>
    <path pointer-events="none" fill="none" stroke="white" stroke-width="1.5" d="M0,-3.0v7 M-2.5,-0.5L0,-3.0L2.5,-0.5"/>
  </g>
  <g id="arrowDown" transform="rotate(180) translate(-30 -48)">
    <use xlink:href="#rim"/>
    <path pointer-events="none" fill="none" stroke="white" stroke-width="1.5" d="M0,-3.0v7 M-2.5,-0.5L0,-3.0L2.5,-0.5"/>
  </g>
  <g id="arrowLeft" transform="rotate(270) translate(-36 17)">
    <use xlink:href="#rim"/>
    <path pointer-events="none" fill="none" stroke="white" stroke-width="1.5" d="M0,-3.0v7 M-2.5,-0.5L0,-3.0L2.5,-0.5"/>
  </g>
  <g id="resetDef">
    <use xlink:href="#rim2" fill="#404040"><set attributeName="fill" to="#808080" begin="reset.mouseover" end="reset.mouseout"/></use>
  </g>
</defs>
<script type="application/ecmascript">
var viewWidth = 629;
var viewHeight = 686;
var sectionId = 'dynsection-0';
</script>
<script type="application/ecmascript" xlink:href="svg.min.js"/>
<svg id="graph" class="graph">
<g id="viewport">
<title>llama_sampling_params</title>
<!-- Node1 -->
<g id="Node000001" class="node">
<title>Node1</title>
<g id="a_Node000001"><a xlink:title=" ">
<polygon fill="#999999" stroke="none" points="412,-364 249,-364 249,0 412,0 412,-364"/>
<text text-anchor="start" x="278" y="-352" font-family="Helvetica,sans-Serif" font-size="10.00">llama_sampling_params</text>
<text text-anchor="start" x="253.5" y="-337" font-family="Helvetica,sans-Serif" font-size="10.00">+</text>
<text text-anchor="start" x="264.5" y="-337" font-family="Helvetica,sans-Serif" font-size="10.00">float cfg_scale</text>
<text text-anchor="start" x="253.5" y="-322" font-family="Helvetica,sans-Serif" font-size="10.00">+</text>
<text text-anchor="start" x="264.5" y="-322" font-family="Helvetica,sans-Serif" font-size="10.00">float dynatemp_exponent</text>
<text text-anchor="start" x="253.5" y="-307" font-family="Helvetica,sans-Serif" font-size="10.00">+</text>
<text text-anchor="start" x="264.5" y="-307" font-family="Helvetica,sans-Serif" font-size="10.00">float dynatemp_range</text>
<text text-anchor="start" x="253.5" y="-292" font-family="Helvetica,sans-Serif" font-size="10.00">+</text>
<text text-anchor="start" x="264.5" y="-292" font-family="Helvetica,sans-Serif" font-size="10.00">int32_t min_keep</text>
<text text-anchor="start" x="253.5" y="-277" font-family="Helvetica,sans-Serif" font-size="10.00">+</text>
<text text-anchor="start" x="264.5" y="-277" font-family="Helvetica,sans-Serif" font-size="10.00">float min_p</text>
<text text-anchor="start" x="253.5" y="-262" font-family="Helvetica,sans-Serif" font-size="10.00">+</text>
<text text-anchor="start" x="264.5" y="-262" font-family="Helvetica,sans-Serif" font-size="10.00">int32_t mirostat</text>
<text text-anchor="start" x="253.5" y="-247" font-family="Helvetica,sans-Serif" font-size="10.00">+</text>
<text text-anchor="start" x="264.5" y="-247" font-family="Helvetica,sans-Serif" font-size="10.00">float mirostat_eta</text>
<text text-anchor="start" x="253.5" y="-232" font-family="Helvetica,sans-Serif" font-size="10.00">+</text>
<text text-anchor="start" x="264.5" y="-232" font-family="Helvetica,sans-Serif" font-size="10.00">float mirostat_tau</text>
<text text-anchor="start" x="253.5" y="-217" font-family="Helvetica,sans-Serif" font-size="10.00">+</text>
<text text-anchor="start" x="264.5" y="-217" font-family="Helvetica,sans-Serif" font-size="10.00">int32_t n_prev</text>
<text text-anchor="start" x="253.5" y="-202" font-family="Helvetica,sans-Serif" font-size="10.00">+</text>
<text text-anchor="start" x="264.5" y="-202" font-family="Helvetica,sans-Serif" font-size="10.00">int32_t n_probs</text>
<text text-anchor="start" x="253.5" y="-187" font-family="Helvetica,sans-Serif" font-size="10.00">+</text>
<text text-anchor="start" x="264.5" y="-187" font-family="Helvetica,sans-Serif" font-size="10.00">bool penalize_nl</text>
<text text-anchor="start" x="253.5" y="-172" font-family="Helvetica,sans-Serif" font-size="10.00">+</text>
<text text-anchor="start" x="264.5" y="-172" font-family="Helvetica,sans-Serif" font-size="10.00">float penalty_freq</text>
<text text-anchor="start" x="253.5" y="-157" font-family="Helvetica,sans-Serif" font-size="10.00">+</text>
<text text-anchor="start" x="264.5" y="-157" font-family="Helvetica,sans-Serif" font-size="10.00">int32_t penalty_last_n</text>
<text text-anchor="start" x="253.5" y="-142" font-family="Helvetica,sans-Serif" font-size="10.00">+</text>
<text text-anchor="start" x="264.5" y="-142" font-family="Helvetica,sans-Serif" font-size="10.00">float penalty_present</text>
<text text-anchor="start" x="253.5" y="-127" font-family="Helvetica,sans-Serif" font-size="10.00">+</text>
<text text-anchor="start" x="264.5" y="-127" font-family="Helvetica,sans-Serif" font-size="10.00">float penalty_repeat</text>
<text text-anchor="start" x="253.5" y="-112" font-family="Helvetica,sans-Serif" font-size="10.00">+</text>
<text text-anchor="start" x="264.5" y="-112" font-family="Helvetica,sans-Serif" font-size="10.00">uint32_t seed</text>
<text text-anchor="start" x="253.5" y="-97" font-family="Helvetica,sans-Serif" font-size="10.00">+</text>
<text text-anchor="start" x="264.5" y="-97" font-family="Helvetica,sans-Serif" font-size="10.00">float temp</text>
<text text-anchor="start" x="253.5" y="-82" font-family="Helvetica,sans-Serif" font-size="10.00">+</text>
<text text-anchor="start" x="264.5" y="-82" font-family="Helvetica,sans-Serif" font-size="10.00">float tfs_z</text>
<text text-anchor="start" x="253.5" y="-67" font-family="Helvetica,sans-Serif" font-size="10.00">+</text>
<text text-anchor="start" x="264.5" y="-67" font-family="Helvetica,sans-Serif" font-size="10.00">int32_t top_k</text>
<text text-anchor="start" x="253.5" y="-52" font-family="Helvetica,sans-Serif" font-size="10.00">+</text>
<text text-anchor="start" x="264.5" y="-52" font-family="Helvetica,sans-Serif" font-size="10.00">float top_p</text>
<text text-anchor="start" x="253.5" y="-37" font-family="Helvetica,sans-Serif" font-size="10.00">+</text>
<text text-anchor="start" x="264.5" y="-37" font-family="Helvetica,sans-Serif" font-size="10.00">float typical_p</text>
<text text-anchor="start" x="253.5" y="-22" font-family="Helvetica,sans-Serif" font-size="10.00">+</text>
<text text-anchor="start" x="264.5" y="-22" font-family="Helvetica,sans-Serif" font-size="10.00">bool use_penalty_prompt_tokens</text>
<text text-anchor="start" x="329" y="-7" font-family="Helvetica,sans-Serif" font-size="10.00"> </text>
<polygon fill="#666666" stroke="#666666" points="249.5,-347 249.5,-347 412.5,-347 412.5,-347 249.5,-347"/>
<polygon fill="#666666" stroke="#666666" points="249.5,-17 249.5,-17 262.5,-17 262.5,-17 249.5,-17"/>
<polygon fill="#666666" stroke="#666666" points="262.5,-17 262.5,-17 412.5,-17 412.5,-17 262.5,-17"/>
<polygon fill="none" stroke="#666666" points="249,0 249,-364 412,-364 412,0 249,0"/>
</a>
</g>
</g>
<!-- Node2 -->
<g id="Node000002" class="node">
<title>Node2</title>
<g id="a_Node000002"><a xlink:title=" ">
<polygon fill="white" stroke="none" points="161,-478.5 0,-478.5 0,-429.5 161,-429.5 161,-478.5"/>
<text text-anchor="start" x="5.5" y="-466" font-family="Helvetica,sans-Serif" font-size="10.00">std::vector&lt; llama_sampler_type &gt;</text>
<text text-anchor="start" x="7.5" y="-451" font-family="Helvetica,sans-Serif" font-size="10.00">+</text>
<text text-anchor="start" x="21.5" y="-451" font-family="Helvetica,sans-Serif" font-size="10.00">llama_sampler_type elements</text>
<text text-anchor="start" x="79" y="-436" font-family="Helvetica,sans-Serif" font-size="10.00"> </text>
<polygon fill="#666666" stroke="#666666" points="0.5,-461 0.5,-461 161.5,-461 161.5,-461 0.5,-461"/>
<polygon fill="#666666" stroke="#666666" points="0.5,-446 0.5,-446 19.5,-446 19.5,-446 0.5,-446"/>
<polygon fill="#666666" stroke="#666666" points="19.5,-446 19.5,-446 161.5,-446 161.5,-446 19.5,-446"/>
<polygon fill="none" stroke="#666666" points="0,-429.5 0,-478.5 161,-478.5 161,-429.5 0,-429.5"/>
</a>
</g>
</g>
<!-- Node2&#45;&gt;Node1 -->
<g id="edge1_Node000001_Node000002" class="edge">
<title>Node2&#45;&gt;Node1</title>
<g id="a_edge1_Node000001_Node000002"><a xlink:title=" ">
<path fill="none" stroke="#63b8ff" d="M102.69,-429.04C133.53,-395.72 191.18,-333.46 240.77,-279.91"/>
<polygon fill="none" stroke="#63b8ff" points="240.81,-279.86 241.95,-272.74 248.97,-271.06 247.82,-278.18 240.81,-279.86"/>
</a>
</g>
<text text-anchor="middle" x="190" y="-390.5" font-family="Helvetica,sans-Serif" font-size="10.00" fill="grey"> +samplers_sequence</text>
</g>
<!-- Node3 -->
<g id="Node000003" class="node">
<title>Node3</title>
<g id="a_Node000003"><a xlink:title=" ">
<polygon fill="white" stroke="none" points="282,-582 203,-582 203,-533 282,-533 282,-582"/>
<text text-anchor="start" x="208.5" y="-569.5" font-family="Helvetica,sans-Serif" font-size="10.00">std::vector&lt; T &gt;</text>
<text text-anchor="start" x="241" y="-554.5" font-family="Helvetica,sans-Serif" font-size="10.00"> </text>
<text text-anchor="start" x="241" y="-539.5" font-family="Helvetica,sans-Serif" font-size="10.00"> </text>
<polygon fill="#666666" stroke="#666666" points="203.5,-564.5 203.5,-564.5 282.5,-564.5 282.5,-564.5 203.5,-564.5"/>
<polygon fill="#666666" stroke="#666666" points="203.5,-549.5 203.5,-549.5 282.5,-549.5 282.5,-549.5 203.5,-549.5"/>
<polygon fill="none" stroke="#666666" points="203,-533 203,-582 282,-582 282,-533 203,-533"/>
</a>
</g>
</g>
<!-- Node3&#45;&gt;Node2 -->
<g id="edge2_Node000002_Node000003" class="edge">
<title>Node3&#45;&gt;Node2</title>
<g id="a_edge2_Node000002_Node000003"><a xlink:title=" ">
<path fill="none" stroke="orange" d="M193.2,-544.66C172.3,-538.11 148.46,-528.5 129.5,-515 115.92,-505.32 104,-490.94 95.31,-478.69"/>
<polygon fill="orange" stroke="orange" points="192.29,-548.04 202.87,-547.54 194.29,-541.33 192.29,-548.04"/>
</a>
</g>
<text text-anchor="middle" x="184" y="-507" font-family="Helvetica,sans-Serif" font-size="10.00" fill="grey"> &lt; llama_sampler_type &gt;</text>
</g>
<!-- Node10 -->
<g id="Node000010" class="node">
<title>Node10</title>
<g id="a_Node000010"><a xlink:title=" ">
<polygon fill="white" stroke="none" points="305.5,-478.5 179.5,-478.5 179.5,-429.5 305.5,-429.5 305.5,-478.5"/>
<text text-anchor="start" x="184.5" y="-466" font-family="Helvetica,sans-Serif" font-size="10.00">std::vector&lt; llama_token &gt;</text>
<text text-anchor="start" x="186" y="-451" font-family="Helvetica,sans-Serif" font-size="10.00">+</text>
<text text-anchor="start" x="199.5" y="-451" font-family="Helvetica,sans-Serif" font-size="10.00">llama_token elements</text>
<text text-anchor="start" x="240.5" y="-436" font-family="Helvetica,sans-Serif" font-size="10.00"> </text>
<polygon fill="#666666" stroke="#666666" points="179.5,-461 179.5,-461 305.5,-461 305.5,-461 179.5,-461"/>
<polygon fill="#666666" stroke="#666666" points="179.5,-446 179.5,-446 197.5,-446 197.5,-446 179.5,-446"/>
<polygon fill="#666666" stroke="#666666" points="197.5,-446 197.5,-446 305.5,-446 305.5,-446 197.5,-446"/>
<polygon fill="none" stroke="#666666" points="179.5,-429.5 179.5,-478.5 305.5,-478.5 305.5,-429.5 179.5,-429.5"/>
</a>
</g>
</g>
<!-- Node3&#45;&gt;Node10 -->
<g id="edge11_Node000010_Node000003" class="edge">
<title>Node3&#45;&gt;Node10</title>
<g id="a_edge11_Node000010_Node000003"><a xlink:title=" ">
<path fill="none" stroke="orange" d="M242.5,-522.89C242.5,-508.45 242.5,-491.9 242.5,-478.77"/>
<polygon fill="orange" stroke="orange" points="239,-522.96 242.5,-532.96 246,-522.96 239,-522.96"/>
</a>
</g>
<text text-anchor="middle" x="279.5" y="-507" font-family="Helvetica,sans-Serif" font-size="10.00" fill="grey"> &lt; llama_token &gt;</text>
</g>
<!-- Node4 -->
<g id="Node000004" class="node">
<title>Node4</title>
<g id="a_Node000004"><a xlink:title=" ">
<polygon fill="white" stroke="none" points="304.5,-678 288.5,-678 288.5,-629 304.5,-629 304.5,-678"/>
<text text-anchor="start" x="293.5" y="-665.5" font-family="Helvetica,sans-Serif" font-size="10.00">T</text>
<text text-anchor="start" x="294.5" y="-650.5" font-family="Helvetica,sans-Serif" font-size="10.00"> </text>
<text text-anchor="start" x="294.5" y="-635.5" font-family="Helvetica,sans-Serif" font-size="10.00"> </text>
<polygon fill="#666666" stroke="#666666" points="288.5,-660.5 288.5,-660.5 304.5,-660.5 304.5,-660.5 288.5,-660.5"/>
<polygon fill="#666666" stroke="#666666" points="288.5,-645.5 288.5,-645.5 304.5,-645.5 304.5,-645.5 288.5,-645.5"/>
<polygon fill="none" stroke="#666666" points="288.5,-629 288.5,-678 304.5,-678 304.5,-629 288.5,-629"/>
</a>
</g>
</g>
<!-- Node4&#45;&gt;Node3 -->
<g id="edge3_Node000003_Node000004" class="edge">
<title>Node4&#45;&gt;Node3</title>
<g id="a_edge3_Node000003_Node000004"><a xlink:title=" ">
<path fill="none" stroke="#63b8ff" d="M288.32,-644.58C280.54,-636.68 268.95,-623.89 261.5,-611 258.34,-605.53 255.55,-599.44 253.16,-593.4"/>
<polygon fill="none" stroke="#63b8ff" points="253.13,-593.31 247.33,-589.03 249.04,-582.03 254.85,-586.31 253.13,-593.31"/>
</a>
</g>
<text text-anchor="middle" x="286" y="-603" font-family="Helvetica,sans-Serif" font-size="10.00" fill="grey"> +elements</text>
</g>
<!-- Node8 -->
<g id="Node000008" class="node">
<title>Node8</title>
<g id="a_Node000008"><a xlink:title=" ">
<polygon fill="white" stroke="none" points="478,-582 345,-582 345,-533 478,-533 478,-582"/>
<text text-anchor="start" x="350.5" y="-569.5" font-family="Helvetica,sans-Serif" font-size="10.00">std::unordered_map&lt; K, T &gt;</text>
<text text-anchor="start" x="410" y="-554.5" font-family="Helvetica,sans-Serif" font-size="10.00"> </text>
<text text-anchor="start" x="410" y="-539.5" font-family="Helvetica,sans-Serif" font-size="10.00"> </text>
<polygon fill="#666666" stroke="#666666" points="345.5,-564.5 345.5,-564.5 478.5,-564.5 478.5,-564.5 345.5,-564.5"/>
<polygon fill="#666666" stroke="#666666" points="345.5,-549.5 345.5,-549.5 478.5,-549.5 478.5,-549.5 345.5,-549.5"/>
<polygon fill="none" stroke="#666666" points="345,-533 345,-582 478,-582 478,-533 345,-533"/>
</a>
</g>
</g>
<!-- Node4&#45;&gt;Node8 -->
<g id="edge9_Node000008_Node000004" class="edge">
<title>Node4&#45;&gt;Node8</title>
<g id="a_edge9_Node000008_Node000004"><a xlink:title=" ">
<path fill="none" stroke="#63b8ff" d="M304.84,-645.26C316.66,-635.04 339.03,-615.85 358.5,-600 362.69,-596.59 367.1,-593.05 371.51,-589.55"/>
<polygon fill="none" stroke="#63b8ff" points="371.65,-589.44 373.88,-582.58 381.07,-582 378.84,-588.86 371.65,-589.44"/>
</a>
</g>
<text text-anchor="middle" x="383" y="-603" font-family="Helvetica,sans-Serif" font-size="10.00" fill="grey"> +elements</text>
</g>
<!-- Node5 -->
<g id="Node000005" class="node">
<title>Node5</title>
<g id="a_Node000005"><a xlink:title=" ">
<polygon fill="white" stroke="none" points="587.5,-478.5 533.5,-478.5 533.5,-429.5 587.5,-429.5 587.5,-478.5"/>
<text text-anchor="start" x="538.5" y="-466" font-family="Helvetica,sans-Serif" font-size="10.00">std::string</text>
<text text-anchor="start" x="558.5" y="-451" font-family="Helvetica,sans-Serif" font-size="10.00"> </text>
<text text-anchor="start" x="558.5" y="-436" font-family="Helvetica,sans-Serif" font-size="10.00"> </text>
<polygon fill="#666666" stroke="#666666" points="533.5,-461 533.5,-461 587.5,-461 587.5,-461 533.5,-461"/>
<polygon fill="#666666" stroke="#666666" points="533.5,-446 533.5,-446 587.5,-446 587.5,-446 533.5,-446"/>
<polygon fill="none" stroke="#666666" points="533.5,-429.5 533.5,-478.5 587.5,-478.5 587.5,-429.5 533.5,-429.5"/>
</a>
</g>
</g>
<!-- Node5&#45;&gt;Node1 -->
<g id="edge4_Node000001_Node000005" class="edge">
<title>Node5&#45;&gt;Node1</title>
<g id="a_edge4_Node000001_Node000005"><a xlink:title=" ">
<path fill="none" stroke="#63b8ff" d="M540.09,-429.04C513.12,-397.38 463.9,-339.59 419.92,-287.97"/>
<polygon fill="none" stroke="#63b8ff" points="419.85,-287.89 412.91,-285.91 412.06,-278.75 419,-280.72 419.85,-287.89"/>
</a>
</g>
<text text-anchor="middle" x="566.5" y="-396" font-family="Helvetica,sans-Serif" font-size="10.00" fill="grey"> +cfg_negative_prompt</text>
<text text-anchor="middle" x="566.5" y="-385" font-family="Helvetica,sans-Serif" font-size="10.00" fill="grey">+grammar</text>
</g>
<!-- Node6 -->
<g id="Node000006" class="node">
<title>Node6</title>
<g id="a_Node000006"><a xlink:title=" ">
<polygon fill="white" stroke="none" points="621,-582 500,-582 500,-533 621,-533 621,-582"/>
<text text-anchor="start" x="505.5" y="-569.5" font-family="Helvetica,sans-Serif" font-size="10.00">std::basic_string&lt; Char &gt;</text>
<text text-anchor="start" x="559" y="-554.5" font-family="Helvetica,sans-Serif" font-size="10.00"> </text>
<text text-anchor="start" x="559" y="-539.5" font-family="Helvetica,sans-Serif" font-size="10.00"> </text>
<polygon fill="#666666" stroke="#666666" points="500.5,-564.5 500.5,-564.5 621.5,-564.5 621.5,-564.5 500.5,-564.5"/>
<polygon fill="#666666" stroke="#666666" points="500.5,-549.5 500.5,-549.5 621.5,-549.5 621.5,-549.5 500.5,-549.5"/>
<polygon fill="none" stroke="#666666" points="500,-533 500,-582 621,-582 621,-533 500,-533"/>
</a>
</g>
</g>
<!-- Node6&#45;&gt;Node5 -->
<g id="edge5_Node000005_Node000006" class="edge">
<title>Node6&#45;&gt;Node5</title>
<g id="a_edge5_Node000005_Node000006"><a xlink:title=" ">
<path fill="none" stroke="#63b8ff" d="M560.5,-522.89C560.5,-508.45 560.5,-491.9 560.5,-478.77"/>
<polygon fill="none" stroke="#63b8ff" points="557,-522.96 560.5,-532.96 564,-522.96 557,-522.96"/>
</a>
</g>
</g>
<!-- Node7 -->
<g id="Node000007" class="node">
<title>Node7</title>
<g id="a_Node000007"><a xlink:title=" ">
<polygon fill="white" stroke="none" points="515,-486 324,-486 324,-422 515,-422 515,-486"/>
<text text-anchor="start" x="329.5" y="-474" font-family="Helvetica,sans-Serif" font-size="10.00">std::unordered_map&lt; llama_token, float &gt;</text>
<text text-anchor="start" x="352" y="-459" font-family="Helvetica,sans-Serif" font-size="10.00">+</text>
<text text-anchor="start" x="386.5" y="-459" font-family="Helvetica,sans-Serif" font-size="10.00">float elements</text>
<text text-anchor="start" x="352" y="-444" font-family="Helvetica,sans-Serif" font-size="10.00">+</text>
<text text-anchor="start" x="386.5" y="-444" font-family="Helvetica,sans-Serif" font-size="10.00">llama_token keys</text>
<text text-anchor="start" x="418" y="-429" font-family="Helvetica,sans-Serif" font-size="10.00"> </text>
<polygon fill="#666666" stroke="#666666" points="324.5,-469 324.5,-469 515.5,-469 515.5,-469 324.5,-469"/>
<polygon fill="#666666" stroke="#666666" points="324.5,-439 324.5,-439 384.5,-439 384.5,-439 324.5,-439"/>
<polygon fill="#666666" stroke="#666666" points="384.5,-439 384.5,-439 515.5,-439 515.5,-439 384.5,-439"/>
<polygon fill="none" stroke="#666666" points="324,-422 324,-486 515,-486 515,-422 324,-422"/>
</a>
</g>
</g>
<!-- Node7&#45;&gt;Node1 -->
<g id="edge6_Node000001_Node000007" class="edge">
<title>Node7&#45;&gt;Node1</title>
<g id="a_edge6_Node000001_Node000007"><a xlink:title=" ">
<path fill="none" stroke="#63b8ff" d="M409.2,-421.76C405,-409.01 399.77,-393.15 394.02,-375.7"/>
<polygon fill="none" stroke="#63b8ff" points="393.93,-375.42 388.25,-370.97 390.17,-364.02 395.85,-368.47 393.93,-375.42"/>
</a>
</g>
<text text-anchor="middle" x="428" y="-390.5" font-family="Helvetica,sans-Serif" font-size="10.00" fill="grey"> +logit_bias</text>
</g>
<!-- Node8&#45;&gt;Node7 -->
<g id="edge7_Node000007_Node000008" class="edge">
<title>Node8&#45;&gt;Node7</title>
<g id="a_edge7_Node000007_Node000008"><a xlink:title=" ">
<path fill="none" stroke="orange" d="M414.14,-522.96C415.08,-511.08 416.13,-497.78 417.05,-486.11"/>
<polygon fill="orange" stroke="orange" points="410.65,-522.71 413.36,-532.96 417.63,-523.26 410.65,-522.71"/>
</a>
</g>
<text text-anchor="middle" x="464.5" y="-507" font-family="Helvetica,sans-Serif" font-size="10.00" fill="grey"> &lt; llama_token, float &gt;</text>
</g>
<!-- Node9 -->
<g id="Node000009" class="node">
<title>Node9</title>
<g id="a_Node000009"><a xlink:title=" ">
<polygon fill="white" stroke="none" points="420,-678 403,-678 403,-629 420,-629 420,-678"/>
<text text-anchor="start" x="408.5" y="-665.5" font-family="Helvetica,sans-Serif" font-size="10.00">K</text>
<text text-anchor="start" x="410" y="-650.5" font-family="Helvetica,sans-Serif" font-size="10.00"> </text>
<text text-anchor="start" x="410" y="-635.5" font-family="Helvetica,sans-Serif" font-size="10.00"> </text>
<polygon fill="#666666" stroke="#666666" points="403.5,-660.5 403.5,-660.5 420.5,-660.5 420.5,-660.5 403.5,-660.5"/>
<polygon fill="#666666" stroke="#666666" points="403.5,-645.5 403.5,-645.5 420.5,-645.5 420.5,-645.5 403.5,-645.5"/>
<polygon fill="none" stroke="#666666" points="403,-629 403,-678 420,-678 420,-629 403,-629"/>
</a>
</g>
</g>
<!-- Node9&#45;&gt;Node8 -->
<g id="edge8_Node000008_Node000009" class="edge">
<title>Node9&#45;&gt;Node8</title>
<g id="a_edge8_Node000008_Node000009"><a xlink:title=" ">
<path fill="none" stroke="#63b8ff" d="M411.5,-628.78C411.5,-618.32 411.5,-605.79 411.5,-594.23"/>
<polygon fill="none" stroke="#63b8ff" points="411.5,-594.21 407.5,-588.21 411.5,-582.21 415.5,-588.21 411.5,-594.21"/>
</a>
</g>
<text text-anchor="middle" x="427" y="-603" font-family="Helvetica,sans-Serif" font-size="10.00" fill="grey"> +keys</text>
</g>
<!-- Node10&#45;&gt;Node1 -->
<g id="edge10_Node000001_Node000010" class="edge">
<title>Node10&#45;&gt;Node1</title>
<g id="a_edge10_Node000001_Node000010"><a xlink:title=" ">
<path fill="none" stroke="#63b8ff" d="M250.31,-429.04C254.78,-415.31 260.86,-396.66 267.68,-375.74"/>
<polygon fill="none" stroke="#63b8ff" points="267.71,-375.66 265.76,-368.71 271.43,-364.25 273.37,-371.19 267.71,-375.66"/>
</a>
</g>
<text text-anchor="middle" x="320" y="-390.5" font-family="Helvetica,sans-Serif" font-size="10.00" fill="grey"> +penalty_prompt_tokens</text>
</g>
</g>
</svg>

<g id="navigator" transform="translate(0 0)" fill="#404254">
  <rect fill="#f2f5e9" fill-opacity="0.5" stroke="#606060" stroke-width=".5" x="0" y="0" width="60" height="60"/>
  <use id="zoomplus" xlink:href="#zoomPlus" x="17" y="9" onmousedown="handleZoom(evt,'in')"/>
  <use id="zoomminus" xlink:href="#zoomMin" x="42" y="9" onmousedown="handleZoom(evt,'out')"/>
  <use id="reset" xlink:href="#resetDef" x="30" y="36" onmousedown="handleReset()"/>
   <use id="arrowup" xlink:href="#arrowUp" x="0" y="0" onmousedown="handlePan(0,-1)"/>
  <use id="arrowright" xlink:href="#arrowRight" x="0" y="0" onmousedown="handlePan(1,0)"/>
  <use id="arrowdown" xlink:href="#arrowDown" x="0" y="0" onmousedown="handlePan(0,1)"/>
  <use id="arrowleft" xlink:href="#arrowLeft" x="0" y="0" onmousedown="handlePan(-1,0)"/>
</g>
<svg viewBox="0 0 15 15" width="100%" height="30px" preserveAspectRatio="xMaxYMin meet">
 <g id="arrow_out" transform="scale(0.3 0.3)">
  <a xlink:href="structllama__sampling__params__coll__graph_org.svg" target="_base">
   <rect id="button" ry="5" rx="5" y="6" x="6" height="38" width="38"
        fill="#f2f5e9" fill-opacity="0.5" stroke="#606060" stroke-width="1.0"/>
   <path id="arrow"
     d="M 11.500037,31.436501 C 11.940474,20.09759 22.043105,11.32322 32.158766,21.979434 L 37.068811,17.246167 C 37.068811,17.246167 37.088388,32 37.088388,32 L 22.160133,31.978069 C 22.160133,31.978069 26.997745,27.140456 26.997745,27.140456 C 18.528582,18.264221 13.291696,25.230495 11.500037,31.436501 z"
     style="fill:#404040;"/>
  </a>
 </g>
</svg>

<style type='text/css'>
<![CDATA[
[data-mouse-over-selected='false'] { opacity: 0.7; }
[data-mouse-over-selected='true']  { opacity: 1.0; }
]]>
</style>
<script type="application/ecmascript"><![CDATA[
document.addEventListener('DOMContentLoaded', (event) => {
  highlightEdges();
  highlightAdjacentNodes();
});
]]></script>
</svg>
