<?xml version="1.0" encoding="UTF-8" standalone="no"?>
<!DOCTYPE svg PUBLIC "-//W3C//DTD SVG 1.1//EN"
 "http://www.w3.org/Graphics/SVG/1.1/DTD/svg11.dtd">
<!-- Generated by graphviz version 6.0.1 (20220911.1526)
 -->
<!-- Title: LlamaLibrary.Int32s.Int32sEnumerator.MoveNext Pages: 1 -->
<svg width="648pt" height="27pt"
 viewBox="0.00 0.00 648.00 27.00" xmlns="http://www.w3.org/2000/svg" xmlns:xlink="http://www.w3.org/1999/xlink">
<g id="graph0" class="graph" transform="scale(1 1) rotate(0) translate(4 23)">
<title>LlamaLibrary.Int32s.Int32sEnumerator.MoveNext</title>
<!-- Node1 -->
<g id="Node000001" class="node">
<title>Node1</title>
<g id="a_Node000001"><a xlink:title=" ">
<polygon fill="#999999" stroke="#666666" points="227,-19 0,-19 0,0 227,0 227,-19"/>
<text text-anchor="middle" x="113.5" y="-7" font-family="Helvetica,sans-Serif" font-size="10.00">LlamaLibrary.Int32s.Int32sEnumerator.MoveNext</text>
</a>
</g>
</g>
<!-- Node2 -->
<g id="Node000002" class="node">
<title>Node2</title>
<g id="a_Node000002"><a xlink:href="class_llama_library_1_1_int32s.html#a13ebe7a9a53b72db509578ee4ead650f" target="_top" xlink:title=" ">
<polygon fill="white" stroke="#666666" points="385,-19 263,-19 263,0 385,0 385,-19"/>
<text text-anchor="middle" x="324" y="-7" font-family="Helvetica,sans-Serif" font-size="10.00">LlamaLibrary.Int32s.size</text>
</a>
</g>
</g>
<!-- Node1&#45;&gt;Node2 -->
<g id="edge1_Node000001_Node000002" class="edge">
<title>Node1&#45;&gt;Node2</title>
<g id="a_edge1_Node000001_Node000002"><a xlink:title=" ">
<path fill="none" stroke="#63b8ff" d="M227.29,-9.5C235.93,-9.5 244.49,-9.5 252.72,-9.5"/>
<polygon fill="#63b8ff" stroke="#63b8ff" points="252.97,-13 262.97,-9.5 252.97,-6 252.97,-13"/>
</a>
</g>
</g>
<!-- Node3 -->
<g id="Node000003" class="node">
<title>Node3</title>
<g id="a_Node000003"><a xlink:href="class_llama_library_1_1libllama__lib_p_i_n_v_o_k_e.html#a70b7c465ae15ba713b9276c7b404fa1e" target="_top" xlink:title=" ">
<polygon fill="white" stroke="#666666" points="640,-19 421,-19 421,0 640,0 640,-19"/>
<text text-anchor="middle" x="530.5" y="-7" font-family="Helvetica,sans-Serif" font-size="10.00">LlamaLibrary.libllama_libPINVOKE.Int32s_size</text>
</a>
</g>
</g>
<!-- Node2&#45;&gt;Node3 -->
<g id="edge2_Node000002_Node000003" class="edge">
<title>Node2&#45;&gt;Node3</title>
<g id="a_edge2_Node000002_Node000003"><a xlink:title=" ">
<path fill="none" stroke="#63b8ff" d="M385.25,-9.5C393.47,-9.5 402.12,-9.5 410.95,-9.5"/>
<polygon fill="#63b8ff" stroke="#63b8ff" points="410.96,-13 420.96,-9.5 410.96,-6 410.96,-13"/>
</a>
</g>
</g>
</g>
</svg>
