<?xml version="1.0" encoding="UTF-8" standalone="no"?>
<!DOCTYPE svg PUBLIC "-//W3C//DTD SVG 1.1//EN"
 "http://www.w3.org/Graphics/SVG/1.1/DTD/svg11.dtd">
<!-- Generated by graphviz version 6.0.1 (20220911.1526)
 -->
<!-- Title: LlamaLibrary.libllama_libPINVOKE.SWIGStringHelper Pages: 1 -->
<svg width="414pt" height="102pt"
 viewBox="0.00 0.00 414.00 102.00" xmlns="http://www.w3.org/2000/svg" xmlns:xlink="http://www.w3.org/1999/xlink">
<g id="graph0" class="graph" transform="scale(1 1) rotate(0) translate(4 98)">
<title>LlamaLibrary.libllama_libPINVOKE.SWIGStringHelper</title>
<!-- Node1 -->
<g id="Node000001" class="node">
<title>Node1</title>
<g id="a_Node000001"><a xlink:title=" ">
<polygon fill="#999999" stroke="none" points="406,-94 0,-94 0,0 406,0 406,-94"/>
<text text-anchor="start" x="86.5" y="-82" font-family="Helvetica,sans-Serif" font-size="10.00">LlamaLibrary.libllama_libPINVOKE.SWIGStringHelper</text>
<text text-anchor="start" x="5.5" y="-67" font-family="Helvetica,sans-Serif" font-size="10.00">&#45;</text>
<text text-anchor="start" x="15" y="-67" font-family="Helvetica,sans-Serif" font-size="10.00">static SWIGStringDelegate stringDelegate</text>
<text text-anchor="start" x="4" y="-52" font-family="Helvetica,sans-Serif" font-size="10.00">+</text>
<text text-anchor="start" x="15" y="-52" font-family="Helvetica,sans-Serif" font-size="10.00">static void SWIGRegisterStringCallback_libllama_lib(SWIGStringDelegate stringDelegate)</text>
<text text-anchor="start" x="4" y="-37" font-family="Helvetica,sans-Serif" font-size="10.00">+</text>
<text text-anchor="start" x="15" y="-37" font-family="Helvetica,sans-Serif" font-size="10.00">delegate string SWIGStringDelegate(string message)</text>
<text text-anchor="start" x="5.5" y="-22" font-family="Helvetica,sans-Serif" font-size="10.00">&#45;</text>
<text text-anchor="start" x="15" y="-22" font-family="Helvetica,sans-Serif" font-size="10.00">static string CreateString(string cString)</text>
<text text-anchor="start" x="5.5" y="-7" font-family="Helvetica,sans-Serif" font-size="10.00">&#45;</text>
<text text-anchor="start" x="15" y="-7" font-family="Helvetica,sans-Serif" font-size="10.00">static SWIGStringHelper()</text>
<polygon fill="#666666" stroke="#666666" points="0,-77 0,-77 406,-77 406,-77 0,-77"/>
<polygon fill="#666666" stroke="#666666" points="0,-62 0,-62 13,-62 13,-62 0,-62"/>
<polygon fill="#666666" stroke="#666666" points="13,-62 13,-62 406,-62 406,-62 13,-62"/>
<polygon fill="none" stroke="#666666" points="0,0 0,-94 406,-94 406,0 0,0"/>
</a>
</g>
</g>
</g>
</svg>
