<?xml version="1.0" encoding="UTF-8" standalone="no"?>
<!DOCTYPE svg PUBLIC "-//W3C//DTD SVG 1.1//EN"
 "http://www.w3.org/Graphics/SVG/1.1/DTD/svg11.dtd">
<!-- Generated by graphviz version 6.0.1 (20220911.1526)
 -->
<!-- Title: LlamaLibrary.libllama_libPINVOKE.Int32s_Add Pages: 1 -->
<svg width="551pt" height="64pt"
 viewBox="0.00 0.00 551.00 64.00" xmlns="http://www.w3.org/2000/svg" xmlns:xlink="http://www.w3.org/1999/xlink">
<g id="graph0" class="graph" transform="scale(1 1) rotate(0) translate(4 60)">
<title>LlamaLibrary.libllama_libPINVOKE.Int32s_Add</title>
<!-- Node1 -->
<g id="Node000001" class="node">
<title>Node1</title>
<g id="a_Node000001"><a xlink:title=" ">
<polygon fill="#999999" stroke="#666666" points="543,-37 325,-37 325,-18 543,-18 543,-37"/>
<text text-anchor="middle" x="434" y="-25" font-family="Helvetica,sans-Serif" font-size="10.00">LlamaLibrary.libllama_libPINVOKE.Int32s_Add</text>
</a>
</g>
</g>
<!-- Node2 -->
<g id="Node000002" class="node">
<title>Node2</title>
<g id="a_Node000002"><a xlink:href="class_llama_library_1_1_int32s.html#a6ae905bf2d1a968b874b19bad350ae8d" target="_top" xlink:title=" ">
<polygon fill="white" stroke="#666666" points="289,-37 167,-37 167,-18 289,-18 289,-37"/>
<text text-anchor="middle" x="228" y="-25" font-family="Helvetica,sans-Serif" font-size="10.00">LlamaLibrary.Int32s.Add</text>
</a>
</g>
</g>
<!-- Node1&#45;&gt;Node2 -->
<g id="edge1_Node000001_Node000002" class="edge">
<title>Node1&#45;&gt;Node2</title>
<g id="a_edge1_Node000001_Node000002"><a xlink:title=" ">
<path fill="none" stroke="#63b8ff" d="M314.47,-27.5C305.79,-27.5 297.27,-27.5 289.17,-27.5"/>
<polygon fill="#63b8ff" stroke="#63b8ff" points="314.73,-31 324.73,-27.5 314.73,-24 314.73,-31"/>
</a>
</g>
</g>
<!-- Node3 -->
<g id="Node000003" class="node">
<title>Node3</title>
<g id="a_Node000003"><a xlink:href="class_llama_library_1_1_int32s.html#a55cbc48f8ad254a1cb67b1b7d4c40030" target="_top" xlink:title=" ">
<polygon fill="white" stroke="#666666" points="131,-56 0,-56 0,-37 131,-37 131,-56"/>
<text text-anchor="middle" x="65.5" y="-44" font-family="Helvetica,sans-Serif" font-size="10.00">LlamaLibrary.Int32s.Int32s</text>
</a>
</g>
</g>
<!-- Node2&#45;&gt;Node3 -->
<g id="edge2_Node000002_Node000003" class="edge">
<title>Node2&#45;&gt;Node3</title>
<g id="a_edge2_Node000002_Node000003"><a xlink:title=" ">
<path fill="none" stroke="#63b8ff" d="M156.83,-35.81C148.27,-36.82 139.56,-37.85 131.09,-38.85"/>
<polygon fill="#63b8ff" stroke="#63b8ff" points="157.26,-39.28 166.78,-34.63 156.44,-32.33 157.26,-39.28"/>
</a>
</g>
</g>
<!-- Node4 -->
<g id="Node000004" class="node">
<title>Node4</title>
<g id="a_Node000004"><a xlink:href="class_llama_library_1_1_int32s.html#ab91ecc6d96bc4cb36b8b9e0f553a380a" target="_top" xlink:title=" ">
<polygon fill="white" stroke="#666666" points="131,-19 0,-19 0,0 131,0 131,-19"/>
<text text-anchor="middle" x="65.5" y="-7" font-family="Helvetica,sans-Serif" font-size="10.00">LlamaLibrary.Int32s.Int32s</text>
</a>
</g>
</g>
<!-- Node2&#45;&gt;Node4 -->
<g id="edge3_Node000002_Node000004" class="edge">
<title>Node2&#45;&gt;Node4</title>
<g id="a_edge3_Node000002_Node000004"><a xlink:title=" ">
<path fill="none" stroke="#63b8ff" d="M156.83,-19.63C148.27,-18.67 139.56,-17.69 131.09,-16.74"/>
<polygon fill="#63b8ff" stroke="#63b8ff" points="156.45,-23.11 166.78,-20.75 157.23,-16.15 156.45,-23.11"/>
</a>
</g>
</g>
</g>
</svg>
