<?xml version="1.0" encoding="UTF-8" standalone="no"?>
<!DOCTYPE svg PUBLIC "-//W3C//DTD SVG 1.1//EN"
 "http://www.w3.org/Graphics/SVG/1.1/DTD/svg11.dtd">
<!-- Generated by graphviz version 6.0.1 (20220911.1526)
 -->
<!-- Title: LlamaLibrary.StringsAndFloats.StringsAndFloatsEnumerator.MoveNext Pages: 1 -->
<svg width="843pt" height="27pt"
 viewBox="0.00 0.00 843.00 27.00" xmlns="http://www.w3.org/2000/svg" xmlns:xlink="http://www.w3.org/1999/xlink">
<g id="graph0" class="graph" transform="scale(1 1) rotate(0) translate(4 23)">
<title>LlamaLibrary.StringsAndFloats.StringsAndFloatsEnumerator.MoveNext</title>
<!-- Node1 -->
<g id="Node000001" class="node">
<title>Node1</title>
<g id="a_Node000001"><a xlink:title=" ">
<polygon fill="#999999" stroke="#666666" points="324,-19 0,-19 0,0 324,0 324,-19"/>
<text text-anchor="middle" x="162" y="-7" font-family="Helvetica,sans-Serif" font-size="10.00">LlamaLibrary.StringsAndFloats.StringsAndFloatsEnumerator.MoveNext</text>
</a>
</g>
</g>
<!-- Node2 -->
<g id="Node000002" class="node">
<title>Node2</title>
<g id="a_Node000002"><a xlink:href="$class_llama_library_1_1_strings_and_floats.html#a3e250079ef13a3d05b20a5f53e8e8df0" xlink:title=" ">
<polygon fill="white" stroke="#666666" points="531,-19 360,-19 360,0 531,0 531,-19"/>
<text text-anchor="middle" x="445.5" y="-7" font-family="Helvetica,sans-Serif" font-size="10.00">LlamaLibrary.StringsAndFloats.size</text>
</a>
</g>
</g>
<!-- Node1&#45;&gt;Node2 -->
<g id="edge1_Node000001_Node000002" class="edge">
<title>Node1&#45;&gt;Node2</title>
<g id="a_edge1_Node000001_Node000002"><a xlink:title=" ">
<path fill="none" stroke="#63b8ff" d="M324.3,-9.5C332.85,-9.5 341.3,-9.5 349.52,-9.5"/>
<polygon fill="#63b8ff" stroke="#63b8ff" points="349.79,-13 359.79,-9.5 349.79,-6 349.79,-13"/>
</a>
</g>
</g>
<!-- Node3 -->
<g id="Node000003" class="node">
<title>Node3</title>
<g id="a_Node000003"><a xlink:href="$class_llama_library_1_1libllama__lib_p_i_n_v_o_k_e.html#a95bc213f9b0bb62f0dc00070a1591ef0" xlink:title=" ">
<polygon fill="white" stroke="#666666" points="835,-19 567,-19 567,0 835,0 835,-19"/>
<text text-anchor="middle" x="701" y="-7" font-family="Helvetica,sans-Serif" font-size="10.00">LlamaLibrary.libllama_libPINVOKE.StringsAndFloats_size</text>
</a>
</g>
</g>
<!-- Node2&#45;&gt;Node3 -->
<g id="edge2_Node000002_Node000003" class="edge">
<title>Node2&#45;&gt;Node3</title>
<g id="a_edge2_Node000002_Node000003"><a xlink:title=" ">
<path fill="none" stroke="#63b8ff" d="M531.26,-9.5C539.54,-9.5 548.09,-9.5 556.74,-9.5"/>
<polygon fill="#63b8ff" stroke="#63b8ff" points="556.93,-13 566.93,-9.5 556.93,-6 556.93,-13"/>
</a>
</g>
</g>
</g>
</svg>
