<?xml version="1.0" encoding="UTF-8" standalone="no"?>
<!DOCTYPE svg PUBLIC "-//W3C//DTD SVG 1.1//EN"
 "http://www.w3.org/Graphics/SVG/1.1/DTD/svg11.dtd">
<!-- Generated by graphviz version 6.0.1 (20220911.1526)
 -->
<!-- Title: LlamaLibrary.StringsAndFloats.ToArray Pages: 1 -->
<svg width="417pt" height="45pt"
 viewBox="0.00 0.00 417.00 45.00" xmlns="http://www.w3.org/2000/svg" xmlns:xlink="http://www.w3.org/1999/xlink">
<g id="graph0" class="graph" transform="scale(1 1) rotate(0) translate(4 41)">
<title>LlamaLibrary.StringsAndFloats.ToArray</title>
<!-- Node1 -->
<g id="Node000001" class="node">
<title>Node1</title>
<g id="a_Node000001"><a xlink:title=" ">
<polygon fill="#999999" stroke="#666666" points="187,-19 0,-19 0,0 187,0 187,-19"/>
<text text-anchor="middle" x="93.5" y="-7" font-family="Helvetica,sans-Serif" font-size="10.00">LlamaLibrary.StringsAndFloats.ToArray</text>
</a>
</g>
</g>
<!-- Node2 -->
<g id="Node000002" class="node">
<title>Node2</title>
<g id="a_Node000002"><a xlink:href="$class_llama_library_1_1_strings_and_floats.html#a756082a6da3e648c6a51c77cfabd4578" xlink:title=" ">
<polygon fill="white" stroke="#666666" points="409,-19 223,-19 223,0 409,0 409,-19"/>
<text text-anchor="middle" x="316" y="-7" font-family="Helvetica,sans-Serif" font-size="10.00">LlamaLibrary.StringsAndFloats.CopyTo</text>
</a>
</g>
</g>
<!-- Node1&#45;&gt;Node2 -->
<g id="edge1_Node000001_Node000002" class="edge">
<title>Node1&#45;&gt;Node2</title>
<g id="a_edge1_Node000001_Node000002"><a xlink:title=" ">
<path fill="none" stroke="#63b8ff" d="M187.05,-9.5C195.43,-9.5 203.95,-9.5 212.41,-9.5"/>
<polygon fill="#63b8ff" stroke="#63b8ff" points="212.68,-13 222.68,-9.5 212.68,-6 212.68,-13"/>
</a>
</g>
</g>
<!-- Node2&#45;&gt;Node2 -->
<g id="edge2_Node000002_Node000002" class="edge">
<title>Node2&#45;&gt;Node2</title>
<g id="a_edge2_Node000002_Node000002"><a xlink:title=" ">
<path fill="none" stroke="#63b8ff" d="M281.71,-19.08C265.02,-27.73 276.45,-37 316,-37 345.04,-37 358.92,-32 357.64,-25.92"/>
<polygon fill="#63b8ff" stroke="#63b8ff" points="360,-23.34 350.29,-19.08 355.23,-28.46 360,-23.34"/>
</a>
</g>
</g>
</g>
</svg>
