<?xml version="1.0" encoding="UTF-8" standalone="no"?>
<!DOCTYPE svg PUBLIC "-//W3C//DTD SVG 1.1//EN"
 "http://www.w3.org/Graphics/SVG/1.1/DTD/svg11.dtd">
<!-- Generated by graphviz version 6.0.1 (20220911.1526)
 -->
<!-- Title: LlamaLibrary.libllama_libPINVOKE.AsyncLlamaInfrence_GetGenerationResults Pages: 1 -->
<svg width="1159pt" height="101pt"
 viewBox="0.00 0.00 1159.00 101.00" xmlns="http://www.w3.org/2000/svg" xmlns:xlink="http://www.w3.org/1999/xlink">
<g id="graph0" class="graph" transform="scale(1 1) rotate(0) translate(4 97)">
<title>LlamaLibrary.libllama_libPINVOKE.AsyncLlamaInfrence_GetGenerationResults</title>
<!-- Node1 -->
<g id="Node000001" class="node">
<title>Node1</title>
<g id="a_Node000001"><a xlink:title=" ">
<polygon fill="#999999" stroke="#666666" points="1151,-56 792,-56 792,-37 1151,-37 1151,-56"/>
<text text-anchor="middle" x="971.5" y="-44" font-family="Helvetica,sans-Serif" font-size="10.00">LlamaLibrary.libllama_libPINVOKE.AsyncLlamaInfrence_GetGenerationResults</text>
</a>
</g>
</g>
<!-- Node2 -->
<g id="Node000002" class="node">
<title>Node2</title>
<g id="a_Node000002"><a xlink:href="class_llama_library_1_1_async_llama_infrence.html#a74d73cee873a2080edfa0d915f367d30" target="_top" xlink:title=" ">
<polygon fill="white" stroke="#666666" points="756,-56 494,-56 494,-37 756,-37 756,-56"/>
<text text-anchor="middle" x="625" y="-44" font-family="Helvetica,sans-Serif" font-size="10.00">LlamaLibrary.AsyncLlamaInfrence.GetGenerationResults</text>
</a>
</g>
</g>
<!-- Node1&#45;&gt;Node2 -->
<g id="edge1_Node000001_Node000002" class="edge">
<title>Node1&#45;&gt;Node2</title>
<g id="a_edge1_Node000001_Node000002"><a xlink:title=" ">
<path fill="none" stroke="#63b8ff" d="M781.86,-46.5C773.28,-46.5 764.76,-46.5 756.38,-46.5"/>
<polygon fill="#63b8ff" stroke="#63b8ff" points="781.94,-50 791.94,-46.5 781.94,-43 781.94,-50"/>
</a>
</g>
</g>
<!-- Node3 -->
<g id="Node000003" class="node">
<title>Node3</title>
<g id="a_Node000003"><a xlink:href="class_minimal_example.html#a6fcfb230b695e8538e9269424221cd81" target="_top" xlink:title="Coroutine to handle the asynchronous generation of text from the language model. Coroutines allow the...">
<polygon fill="white" stroke="#666666" points="458,-93 309,-93 309,-74 458,-74 458,-93"/>
<text text-anchor="middle" x="383.5" y="-81" font-family="Helvetica,sans-Serif" font-size="10.00">MinimalExample.GenerateLine</text>
</a>
</g>
</g>
<!-- Node2&#45;&gt;Node3 -->
<g id="edge2_Node000002_Node000003" class="edge">
<title>Node2&#45;&gt;Node3</title>
<g id="a_edge2_Node000002_Node000003"><a xlink:title=" ">
<path fill="none" stroke="#63b8ff" d="M552.08,-57.61C518.41,-62.81 478.7,-68.95 446.38,-73.94"/>
<polygon fill="#63b8ff" stroke="#63b8ff" points="552.97,-61.01 562.32,-56.03 551.91,-54.1 552.97,-61.01"/>
</a>
</g>
</g>
<!-- Node5 -->
<g id="Node000005" class="node">
<title>Node5</title>
<g id="a_Node000005"><a xlink:href="class_dialog_manager.html#a58ce81209f0fe6b90708dc9503bc97cd" target="_top" xlink:title="Coroutine that displays the next line of dialog, handles looping, and manages the dialog&#39;s progressio...">
<polygon fill="white" stroke="#666666" points="456.5,-56 310.5,-56 310.5,-37 456.5,-37 456.5,-56"/>
<text text-anchor="middle" x="383.5" y="-44" font-family="Helvetica,sans-Serif" font-size="10.00">DialogManager.ShowNextLine</text>
</a>
</g>
</g>
<!-- Node2&#45;&gt;Node5 -->
<g id="edge4_Node000002_Node000005" class="edge">
<title>Node2&#45;&gt;Node5</title>
<g id="a_edge4_Node000002_Node000005"><a xlink:title=" ">
<path fill="none" stroke="#63b8ff" d="M483.64,-46.5C474.39,-46.5 465.3,-46.5 456.62,-46.5"/>
<polygon fill="#63b8ff" stroke="#63b8ff" points="483.74,-50 493.74,-46.5 483.74,-43 483.74,-50"/>
</a>
</g>
</g>
<!-- Node9 -->
<g id="Node000009" class="node">
<title>Node9</title>
<g id="a_Node000009"><a xlink:href="class_run_model_async.html#a416b9916ecea216a4a454df6993acb1f" target="_top" xlink:title="Method called every frame to update the state of the model and handle output.">
<polygon fill="white" stroke="#666666" points="444.5,-19 322.5,-19 322.5,0 444.5,0 444.5,-19"/>
<text text-anchor="middle" x="383.5" y="-7" font-family="Helvetica,sans-Serif" font-size="10.00">RunModelAsync.Update</text>
</a>
</g>
</g>
<!-- Node2&#45;&gt;Node9 -->
<g id="edge8_Node000002_Node000009" class="edge">
<title>Node2&#45;&gt;Node9</title>
<g id="a_edge8_Node000002_Node000009"><a xlink:title=" ">
<path fill="none" stroke="#63b8ff" d="M552.36,-35.43C518.05,-30.13 477.42,-23.85 444.73,-18.8"/>
<polygon fill="#63b8ff" stroke="#63b8ff" points="551.91,-38.9 562.32,-36.97 552.97,-31.99 551.91,-38.9"/>
</a>
</g>
</g>
<!-- Node4 -->
<g id="Node000004" class="node">
<title>Node4</title>
<g id="a_Node000004"><a xlink:href="class_minimal_example.html#a3a9cb32f2a8522aa2a5174d8d12732f3" target="_top" xlink:title="The Start method is called when the script instance is being loaded. It initializes the ModelControll...">
<polygon fill="white" stroke="#666666" points="263.5,-93 150.5,-93 150.5,-74 263.5,-74 263.5,-93"/>
<text text-anchor="middle" x="207" y="-81" font-family="Helvetica,sans-Serif" font-size="10.00">MinimalExample.Start</text>
</a>
</g>
</g>
<!-- Node3&#45;&gt;Node4 -->
<g id="edge3_Node000003_Node000004" class="edge">
<title>Node3&#45;&gt;Node4</title>
<g id="a_edge3_Node000003_Node000004"><a xlink:title=" ">
<path fill="none" stroke="#63b8ff" d="M298.44,-83.5C286.67,-83.5 274.82,-83.5 263.75,-83.5"/>
<polygon fill="#63b8ff" stroke="#63b8ff" points="298.75,-87 308.75,-83.5 298.75,-80 298.75,-87"/>
</a>
</g>
</g>
<!-- Node6 -->
<g id="Node000006" class="node">
<title>Node6</title>
<g id="a_Node000006"><a xlink:href="class_dialog_manager.html#ad32c4cce175c0c1b0f15049695fa7948" target="_top" xlink:title="Starts the dialog sequence, setting the initial index and activating the dialog.">
<polygon fill="white" stroke="#666666" points="273,-56 141,-56 141,-37 273,-37 273,-56"/>
<text text-anchor="middle" x="207" y="-44" font-family="Helvetica,sans-Serif" font-size="10.00">DialogManager.StartDialog</text>
</a>
</g>
</g>
<!-- Node5&#45;&gt;Node6 -->
<g id="edge5_Node000005_Node000006" class="edge">
<title>Node5&#45;&gt;Node6</title>
<g id="a_edge5_Node000005_Node000006"><a xlink:title=" ">
<path fill="none" stroke="#63b8ff" d="M300.12,-46.5C291.09,-46.5 281.98,-46.5 273.2,-46.5"/>
<polygon fill="#63b8ff" stroke="#63b8ff" points="300.26,-50 310.26,-46.5 300.26,-43 300.26,-50"/>
</a>
</g>
</g>
<!-- Node8 -->
<g id="Node000008" class="node">
<title>Node8</title>
<g id="a_Node000008"><a xlink:href="class_dialog_manager.html#a79957ecbbb9b70e0a2a4e66ef206a498" target="_top" xlink:title="Called every frame; updates dialog progression and rotates text objects to face the camera.">
<polygon fill="white" stroke="#666666" points="264.5,-19 149.5,-19 149.5,0 264.5,0 264.5,-19"/>
<text text-anchor="middle" x="207" y="-7" font-family="Helvetica,sans-Serif" font-size="10.00">DialogManager.Update</text>
</a>
</g>
</g>
<!-- Node5&#45;&gt;Node8 -->
<g id="edge7_Node000005_Node000008" class="edge">
<title>Node5&#45;&gt;Node8</title>
<g id="a_edge7_Node000005_Node000008"><a xlink:title=" ">
<path fill="none" stroke="#63b8ff" d="M327.55,-34.85C303.58,-29.77 275.82,-23.88 253.09,-19.06"/>
<polygon fill="#63b8ff" stroke="#63b8ff" points="327.05,-38.32 337.56,-36.97 328.51,-31.47 327.05,-38.32"/>
</a>
</g>
</g>
<!-- Node7 -->
<g id="Node000007" class="node">
<title>Node7</title>
<g id="a_Node000007"><a xlink:href="class_dialog_manager.html#a03c8a9834097fe6f3c636076a97563c8" target="_top" xlink:title="Called when the script starts; initializes the model controller, parses the dialog,...">
<polygon fill="white" stroke="#666666" points="105,-56 0,-56 0,-37 105,-37 105,-56"/>
<text text-anchor="middle" x="52.5" y="-44" font-family="Helvetica,sans-Serif" font-size="10.00">DialogManager.Start</text>
</a>
</g>
</g>
<!-- Node6&#45;&gt;Node7 -->
<g id="edge6_Node000006_Node000007" class="edge">
<title>Node6&#45;&gt;Node7</title>
<g id="a_edge6_Node000006_Node000007"><a xlink:title=" ">
<path fill="none" stroke="#63b8ff" d="M130.71,-46.5C122.02,-46.5 113.31,-46.5 105.03,-46.5"/>
<polygon fill="#63b8ff" stroke="#63b8ff" points="130.88,-50 140.88,-46.5 130.88,-43 130.88,-50"/>
</a>
</g>
</g>
</g>
</svg>
