<?xml version="1.0" encoding="UTF-8" standalone="no"?>
<!DOCTYPE svg PUBLIC "-//W3C//DTD SVG 1.1//EN"
 "http://www.w3.org/Graphics/SVG/1.1/DTD/svg11.dtd">
<!-- Generated by graphviz version 6.0.1 (20220911.1526)
 -->
<!-- Title: Assets.StyledLines.Runtime.UIHelpers.DisableWhileNotConfigured.OnStateChanged Pages: 1 -->
<svg width="783pt" height="64pt"
 viewBox="0.00 0.00 783.00 64.00" xmlns="http://www.w3.org/2000/svg" xmlns:xlink="http://www.w3.org/1999/xlink">
<g id="graph0" class="graph" transform="scale(1 1) rotate(0) translate(4 60)">
<title>Assets.StyledLines.Runtime.UIHelpers.DisableWhileNotConfigured.OnStateChanged</title>
<!-- Node1 -->
<g id="Node000001" class="node">
<title>Node1</title>
<g id="a_Node000001"><a xlink:title=" ">
<polygon fill="#999999" stroke="#666666" points="775,-37 392,-37 392,-18 775,-18 775,-37"/>
<text text-anchor="middle" x="583.5" y="-25" font-family="Helvetica,sans-Serif" font-size="10.00">Assets.StyledLines.Runtime.UIHelpers.DisableWhileNotConfigured.OnStateChanged</text>
</a>
</g>
</g>
<!-- Node2 -->
<g id="Node000002" class="node">
<title>Node2</title>
<g id="a_Node000002"><a xlink:href="$class_assets_1_1_styled_lines_1_1_runtime_1_1_u_i_helpers_1_1_disable_while_not_configured.html#a02be811620e478286be43d27d72ab022" xlink:title=" ">
<polygon fill="white" stroke="#666666" points="356,-56 0,-56 0,-37 356,-37 356,-56"/>
<text text-anchor="middle" x="178" y="-44" font-family="Helvetica,sans-Serif" font-size="10.00">Assets.StyledLines.Runtime.UIHelpers.DisableWhileNotConfigured.OnDestroy</text>
</a>
</g>
</g>
<!-- Node1&#45;&gt;Node2 -->
<g id="edge1_Node000001_Node000002" class="edge">
<title>Node1&#45;&gt;Node2</title>
<g id="a_edge1_Node000001_Node000002"><a xlink:title=" ">
<path fill="none" stroke="#63b8ff" d="M381.89,-36.95C373.3,-37.35 364.71,-37.76 356.17,-38.16"/>
<polygon fill="#63b8ff" stroke="#63b8ff" points="382.15,-40.44 391.98,-36.47 381.82,-33.45 382.15,-40.44"/>
</a>
</g>
</g>
<!-- Node3 -->
<g id="Node000003" class="node">
<title>Node3</title>
<g id="a_Node000003"><a xlink:href="$class_assets_1_1_styled_lines_1_1_runtime_1_1_u_i_helpers_1_1_disable_while_not_configured.html#a21f3bf95ec27ffd9fa1f0f5c103cfb8d" xlink:title=" ">
<polygon fill="white" stroke="#666666" points="343,-19 13,-19 13,0 343,0 343,-19"/>
<text text-anchor="middle" x="178" y="-7" font-family="Helvetica,sans-Serif" font-size="10.00">Assets.StyledLines.Runtime.UIHelpers.DisableWhileNotConfigured.Start</text>
</a>
</g>
</g>
<!-- Node1&#45;&gt;Node3 -->
<g id="edge2_Node000001_Node000003" class="edge">
<title>Node1&#45;&gt;Node3</title>
<g id="a_edge2_Node000001_Node000003"><a xlink:title=" ">
<path fill="none" stroke="#63b8ff" d="M381.64,-18.54C368.74,-17.96 355.83,-17.39 343.14,-16.82"/>
<polygon fill="#63b8ff" stroke="#63b8ff" points="381.83,-22.05 391.98,-19 382.14,-15.06 381.83,-22.05"/>
</a>
</g>
</g>
</g>
</svg>
