<?xml version="1.0" encoding="UTF-8" standalone="no"?>
<!DOCTYPE svg PUBLIC "-//W3C//DTD SVG 1.1//EN"
 "http://www.w3.org/Graphics/SVG/1.1/DTD/svg11.dtd">
<!-- Generated by graphviz version 6.0.1 (20220911.1526)
 -->
<!-- Title: Assets.StyledLines.Runtime.UIHelpers.PrintGeneratedText.OnStateChanged Pages: 1 -->
<svg width="716pt" height="64pt"
 viewBox="0.00 0.00 716.00 64.00" xmlns="http://www.w3.org/2000/svg" xmlns:xlink="http://www.w3.org/1999/xlink">
<g id="graph0" class="graph" transform="scale(1 1) rotate(0) translate(4 60)">
<title>Assets.StyledLines.Runtime.UIHelpers.PrintGeneratedText.OnStateChanged</title>
<!-- Node1 -->
<g id="Node000001" class="node">
<title>Node1</title>
<g id="a_Node000001"><a xlink:title=" ">
<polygon fill="#999999" stroke="#666666" points="708,-37 358,-37 358,-18 708,-18 708,-37"/>
<text text-anchor="middle" x="533" y="-25" font-family="Helvetica,sans-Serif" font-size="10.00">Assets.StyledLines.Runtime.UIHelpers.PrintGeneratedText.OnStateChanged</text>
</a>
</g>
</g>
<!-- Node2 -->
<g id="Node000002" class="node">
<title>Node2</title>
<g id="a_Node000002"><a xlink:href="$class_assets_1_1_styled_lines_1_1_runtime_1_1_u_i_helpers_1_1_print_generated_text.html#a7acdab2cfd76a87a4745d65341366a84" xlink:title=" ">
<polygon fill="white" stroke="#666666" points="322,-56 0,-56 0,-37 322,-37 322,-56"/>
<text text-anchor="middle" x="161" y="-44" font-family="Helvetica,sans-Serif" font-size="10.00">Assets.StyledLines.Runtime.UIHelpers.PrintGeneratedText.OnDestroy</text>
</a>
</g>
</g>
<!-- Node1&#45;&gt;Node2 -->
<g id="edge1_Node000001_Node000002" class="edge">
<title>Node1&#45;&gt;Node2</title>
<g id="a_edge1_Node000001_Node000002"><a xlink:title=" ">
<path fill="none" stroke="#63b8ff" d="M347.78,-36.96C339.21,-37.4 330.64,-37.84 322.15,-38.28"/>
<polygon fill="#63b8ff" stroke="#63b8ff" points="348.03,-40.45 357.83,-36.44 347.67,-33.46 348.03,-40.45"/>
</a>
</g>
</g>
<!-- Node3 -->
<g id="Node000003" class="node">
<title>Node3</title>
<g id="a_Node000003"><a xlink:href="$class_assets_1_1_styled_lines_1_1_runtime_1_1_u_i_helpers_1_1_print_generated_text.html#ad9e0a431c555737d8b8f68fb1c759527" xlink:title=" ">
<polygon fill="white" stroke="#666666" points="309,-19 13,-19 13,0 309,0 309,-19"/>
<text text-anchor="middle" x="161" y="-7" font-family="Helvetica,sans-Serif" font-size="10.00">Assets.StyledLines.Runtime.UIHelpers.PrintGeneratedText.Start</text>
</a>
</g>
</g>
<!-- Node1&#45;&gt;Node3 -->
<g id="edge2_Node000001_Node000003" class="edge">
<title>Node1&#45;&gt;Node3</title>
<g id="a_edge2_Node000001_Node000003"><a xlink:title=" ">
<path fill="none" stroke="#63b8ff" d="M347.5,-18.52C334.62,-17.9 321.73,-17.27 309.09,-16.66"/>
<polygon fill="#63b8ff" stroke="#63b8ff" points="347.68,-22.04 357.83,-19.03 348.02,-15.05 347.68,-22.04"/>
</a>
</g>
</g>
</g>
</svg>
