<?xml version="1.0" encoding="UTF-8" standalone="no"?>
<!DOCTYPE svg PUBLIC "-//W3C//DTD SVG 1.1//EN"
 "http://www.w3.org/Graphics/SVG/1.1/DTD/svg11.dtd">
<!-- Generated by graphviz version 6.0.1 (20220911.1526)
 -->
<!-- Title: Assets.StyledLines.Runtime.LlamaInfrenceUnity.ModelController.ModelController Pages: 1 -->
<svg width="1203pt" height="249pt"
 viewBox="0.00 0.00 1203.00 249.00" xmlns="http://www.w3.org/2000/svg" xmlns:xlink="http://www.w3.org/1999/xlink">
<g id="graph0" class="graph" transform="scale(1 1) rotate(0) translate(4 245)">
<title>Assets.StyledLines.Runtime.LlamaInfrenceUnity.ModelController.ModelController</title>
<!-- Node1 -->
<g id="Node000001" class="node">
<title>Node1</title>
<g id="a_Node000001"><a xlink:title="Constructor for initializing the ModelController with a binary asset. The constructor sets up the mod...">
<polygon fill="#999999" stroke="#666666" points="367,-185 0,-185 0,-166 367,-166 367,-185"/>
<text text-anchor="middle" x="183.5" y="-173" font-family="Helvetica,sans-Serif" font-size="10.00">Assets.StyledLines.Runtime.LlamaInfrenceUnity.ModelController.ModelController</text>
</a>
</g>
</g>
<!-- Node2 -->
<g id="Node000002" class="node">
<title>Node2</title>
<g id="a_Node000002"><a xlink:href="$class_assets_1_1_styled_lines_1_1_runtime_1_1_llama_infrence_unity_1_1_model_controller.html#a46681d90514c97a90a91a9d0777e4fe4" xlink:title="Static method to get the appropriate temporary file path based on the platform. This method returns a...">
<polygon fill="white" stroke="#666666" points="774,-241 415,-241 415,-222 774,-222 774,-241"/>
<text text-anchor="middle" x="594.5" y="-229" font-family="Helvetica,sans-Serif" font-size="10.00">Assets.StyledLines.Runtime.LlamaInfrenceUnity.ModelController.GetTempPath</text>
</a>
</g>
</g>
<!-- Node1&#45;&gt;Node2 -->
<g id="edge1_Node000001_Node000002" class="edge">
<title>Node1&#45;&gt;Node2</title>
<g id="a_edge1_Node000001_Node000002"><a xlink:title=" ">
<path fill="none" stroke="#63b8ff" d="M232.93,-185.04C277.1,-193.47 344.23,-205.63 403,-213.5 423.75,-216.28 445.83,-218.78 467.32,-220.98"/>
<polygon fill="#63b8ff" stroke="#63b8ff" points="467.18,-224.48 477.48,-221.99 467.88,-217.51 467.18,-224.48"/>
</a>
</g>
</g>
<!-- Node3 -->
<g id="Node000003" class="node">
<title>Node3</title>
<g id="a_Node000003"><a xlink:href="$class_assets_1_1_styled_lines_1_1_runtime_1_1_llama_infrence_1_1_callback_wrapper.html#ac94cfbc5b52ab58117b391e3ccb69bbe" xlink:title="Registers a token callback function for the Llama model.">
<polygon fill="white" stroke="#666666" points="786,-204 403,-204 403,-185 786,-185 786,-204"/>
<text text-anchor="middle" x="594.5" y="-192" font-family="Helvetica,sans-Serif" font-size="10.00">Assets.StyledLines.Runtime.LlamaInfrence.CallbackWrapper.RegisterTokenCallback</text>
</a>
</g>
</g>
<!-- Node1&#45;&gt;Node3 -->
<g id="edge2_Node000001_Node000003" class="edge">
<title>Node1&#45;&gt;Node3</title>
<g id="a_edge2_Node000001_Node000003"><a xlink:title=" ">
<path fill="none" stroke="#63b8ff" d="M367.17,-183.99C375.66,-184.38 384.2,-184.78 392.73,-185.17"/>
<polygon fill="#63b8ff" stroke="#63b8ff" points="392.59,-188.67 402.74,-185.64 392.92,-181.68 392.59,-188.67"/>
</a>
</g>
</g>
<!-- Node6 -->
<g id="Node000006" class="node">
<title>Node6</title>
<g id="a_Node000006"><a xlink:href="$class_llama_library_1_1_file_wrapper.html#adf3f8c97164d49fd35efa91f740005a4" xlink:title=" ">
<polygon fill="white" stroke="#666666" points="670.5,-167 518.5,-167 518.5,-148 670.5,-148 670.5,-167"/>
<text text-anchor="middle" x="594.5" y="-155" font-family="Helvetica,sans-Serif" font-size="10.00">LlamaLibrary.FileWrapper.Save</text>
</a>
</g>
</g>
<!-- Node1&#45;&gt;Node6 -->
<g id="edge5_Node000001_Node000006" class="edge">
<title>Node1&#45;&gt;Node6</title>
<g id="a_edge5_Node000001_Node000006"><a xlink:title=" ">
<path fill="none" stroke="#63b8ff" d="M367.17,-167.46C416.32,-165.3 467.18,-163.06 508.2,-161.25"/>
<polygon fill="#63b8ff" stroke="#63b8ff" points="508.58,-164.74 518.42,-160.8 508.27,-157.75 508.58,-164.74"/>
</a>
</g>
</g>
<!-- Node9 -->
<g id="Node000009" class="node">
<title>Node9</title>
<g id="a_Node000009"><a xlink:href="$class_llama_library_1_1_async_llama_infrence.html#a7cc223c9533da0f040cfd02d7f944cf6" xlink:title=" ">
<polygon fill="white" stroke="#666666" points="704,-93 485,-93 485,-74 704,-74 704,-93"/>
<text text-anchor="middle" x="594.5" y="-81" font-family="Helvetica,sans-Serif" font-size="10.00">LlamaLibrary.AsyncLlamaInfrence.SetupAsync</text>
</a>
</g>
</g>
<!-- Node1&#45;&gt;Node9 -->
<g id="edge8_Node000001_Node000009" class="edge">
<title>Node1&#45;&gt;Node9</title>
<g id="a_edge8_Node000001_Node000009"><a xlink:title=" ">
<path fill="none" stroke="#63b8ff" d="M227.11,-165.91C302.53,-148.95 459.27,-113.69 541.14,-95.28"/>
<polygon fill="#63b8ff" stroke="#63b8ff" points="542,-98.67 550.98,-93.06 540.46,-91.84 542,-98.67"/>
</a>
</g>
</g>
<!-- Node4 -->
<g id="Node000004" class="node">
<title>Node4</title>
<g id="a_Node000004"><a xlink:href="$class_assets_1_1_styled_lines_1_1_runtime_1_1_llama_infrence_1_1_callback_wrapper.html#aa8293a39e5b2094dab76d8c98bf06368" xlink:title="Sets the token callback function for the native library.">
<polygon fill="white" stroke="#666666" points="1189.5,-241 827.5,-241 827.5,-222 1189.5,-222 1189.5,-241"/>
<text text-anchor="middle" x="1008.5" y="-229" font-family="Helvetica,sans-Serif" font-size="10.00">Assets.StyledLines.Runtime.LlamaInfrence.CallbackWrapper.SetTokenCallback</text>
</a>
</g>
</g>
<!-- Node3&#45;&gt;Node4 -->
<g id="edge3_Node000003_Node000004" class="edge">
<title>Node3&#45;&gt;Node4</title>
<g id="a_edge3_Node000003_Node000004"><a xlink:title=" ">
<path fill="none" stroke="#63b8ff" d="M701.33,-204C759.48,-209.23 831.7,-215.71 891.4,-221.07"/>
<polygon fill="#63b8ff" stroke="#63b8ff" points="891.35,-224.58 901.63,-221.99 891.98,-217.61 891.35,-224.58"/>
</a>
</g>
</g>
<!-- Node5 -->
<g id="Node000005" class="node">
<title>Node5</title>
<g id="a_Node000005"><a xlink:href="$class_assets_1_1_styled_lines_1_1_runtime_1_1_llama_infrence_1_1_callback_wrapper.html#a2f26e3355627e83d630f031d1a80c864" xlink:title="Static method to handle the token callback from the native library.">
<polygon fill="white" stroke="#666666" points="1195,-204 822,-204 822,-185 1195,-185 1195,-204"/>
<text text-anchor="middle" x="1008.5" y="-192" font-family="Helvetica,sans-Serif" font-size="10.00">Assets.StyledLines.Runtime.LlamaInfrence.CallbackWrapper.StaticTokenCallback</text>
</a>
</g>
</g>
<!-- Node3&#45;&gt;Node5 -->
<g id="edge4_Node000003_Node000005" class="edge">
<title>Node3&#45;&gt;Node5</title>
<g id="a_edge4_Node000003_Node000005"><a xlink:title=" ">
<path fill="none" stroke="#63b8ff" d="M786.12,-194.5C794.68,-194.5 803.27,-194.5 811.84,-194.5"/>
<polygon fill="#63b8ff" stroke="#63b8ff" points="811.88,-198 821.88,-194.5 811.88,-191 811.88,-198"/>
</a>
</g>
</g>
<!-- Node7 -->
<g id="Node000007" class="node">
<title>Node7</title>
<g id="a_Node000007"><a xlink:href="$class_llama_library_1_1libllama__lib_p_i_n_v_o_k_e.html#a2e2f829d671969cd417008a77a3b7445" xlink:title=" ">
<polygon fill="white" stroke="#666666" points="1156.5,-167 860.5,-167 860.5,-148 1156.5,-148 1156.5,-167"/>
<text text-anchor="middle" x="1008.5" y="-155" font-family="Helvetica,sans-Serif" font-size="10.00">LlamaLibrary.libllama_libPINVOKE.FileWrapper_Save__SWIG_0</text>
</a>
</g>
</g>
<!-- Node6&#45;&gt;Node7 -->
<g id="edge6_Node000006_Node000007" class="edge">
<title>Node6&#45;&gt;Node7</title>
<g id="a_edge6_Node000006_Node000007"><a xlink:title=" ">
<path fill="none" stroke="#63b8ff" d="M670.59,-157.5C720.72,-157.5 788.5,-157.5 850.13,-157.5"/>
<polygon fill="#63b8ff" stroke="#63b8ff" points="850.36,-161 860.36,-157.5 850.36,-154 850.36,-161"/>
</a>
</g>
</g>
<!-- Node8 -->
<g id="Node000008" class="node">
<title>Node8</title>
<g id="a_Node000008"><a xlink:href="$class_llama_library_1_1libllama__lib_p_i_n_v_o_k_e_1_1_s_w_i_g_pending_exception.html#a2718a73540850b42db7c89e9be3519ec" xlink:title=" ">
<polygon fill="white" stroke="#666666" points="1164.5,-130 852.5,-130 852.5,-111 1164.5,-111 1164.5,-130"/>
<text text-anchor="middle" x="1008.5" y="-118" font-family="Helvetica,sans-Serif" font-size="10.00">LlamaLibrary.libllama_libPINVOKE.SWIGPendingException.Retrieve</text>
</a>
</g>
</g>
<!-- Node6&#45;&gt;Node8 -->
<g id="edge7_Node000006_Node000008" class="edge">
<title>Node6&#45;&gt;Node8</title>
<g id="a_edge7_Node000006_Node000008"><a xlink:title=" ">
<path fill="none" stroke="#63b8ff" d="M670.59,-150.76C732.2,-145.22 820.48,-137.3 891.22,-130.94"/>
<polygon fill="#63b8ff" stroke="#63b8ff" points="891.88,-134.4 901.53,-130.02 891.25,-127.43 891.88,-134.4"/>
</a>
</g>
</g>
<!-- Node9&#45;&gt;Node8 -->
<g id="edge12_Node000009_Node000008" class="edge">
<title>Node9&#45;&gt;Node8</title>
<g id="a_edge12_Node000009_Node000008"><a xlink:title=" ">
<path fill="none" stroke="#63b8ff" d="M701.33,-93C759.48,-98.23 831.7,-104.71 891.4,-110.07"/>
<polygon fill="#63b8ff" stroke="#63b8ff" points="891.35,-113.58 901.63,-110.99 891.98,-106.61 891.35,-113.58"/>
</a>
</g>
</g>
<!-- Node10 -->
<g id="Node000010" class="node">
<title>Node10</title>
<g id="a_Node000010"><a xlink:href="$class_llama_library_1_1libllama__lib_p_i_n_v_o_k_e.html#a3e629604030c518ff63457e5c5d03455" xlink:title=" ">
<polygon fill="white" stroke="#666666" points="1166.5,-93 850.5,-93 850.5,-74 1166.5,-74 1166.5,-93"/>
<text text-anchor="middle" x="1008.5" y="-81" font-family="Helvetica,sans-Serif" font-size="10.00">LlamaLibrary.libllama_libPINVOKE.AsyncLlamaInfrence_SetupAsync</text>
</a>
</g>
</g>
<!-- Node9&#45;&gt;Node10 -->
<g id="edge9_Node000009_Node000010" class="edge">
<title>Node9&#45;&gt;Node10</title>
<g id="a_edge9_Node000009_Node000010"><a xlink:title=" ">
<path fill="none" stroke="#63b8ff" d="M704.02,-83.5C745.66,-83.5 794.22,-83.5 840.12,-83.5"/>
<polygon fill="#63b8ff" stroke="#63b8ff" points="840.18,-87 850.18,-83.5 840.18,-80 840.18,-87"/>
</a>
</g>
</g>
<!-- Node11 -->
<g id="Node000011" class="node">
<title>Node11</title>
<g id="a_Node000011"><a xlink:href="$class_llama_library_1_1gpt__params.html#a352b93d1ce986af8f726ebc0643f2825" xlink:title=" ">
<polygon fill="white" stroke="#666666" points="1089.5,-56 927.5,-56 927.5,-37 1089.5,-37 1089.5,-56"/>
<text text-anchor="middle" x="1008.5" y="-44" font-family="Helvetica,sans-Serif" font-size="10.00">LlamaLibrary.gpt_params.getCPtr</text>
</a>
</g>
</g>
<!-- Node9&#45;&gt;Node11 -->
<g id="edge10_Node000009_Node000011" class="edge">
<title>Node9&#45;&gt;Node11</title>
<g id="a_edge10_Node000009_Node000011"><a xlink:title=" ">
<path fill="none" stroke="#63b8ff" d="M701.33,-74C768.21,-67.99 853.7,-60.31 917.34,-54.6"/>
<polygon fill="#63b8ff" stroke="#63b8ff" points="917.71,-58.08 927.36,-53.7 917.08,-51.11 917.71,-58.08"/>
</a>
</g>
</g>
<!-- Node12 -->
<g id="Node000012" class="node">
<title>Node12</title>
<g id="a_Node000012"><a xlink:href="$class_llama_library_1_1_logging_context.html#a8af2a946a9ffc74d4f17f897e781437d" xlink:title=" ">
<polygon fill="white" stroke="#666666" points="1098,-19 919,-19 919,0 1098,0 1098,-19"/>
<text text-anchor="middle" x="1008.5" y="-7" font-family="Helvetica,sans-Serif" font-size="10.00">LlamaLibrary.LoggingContext.getCPtr</text>
</a>
</g>
</g>
<!-- Node9&#45;&gt;Node12 -->
<g id="edge11_Node000009_Node000012" class="edge">
<title>Node9&#45;&gt;Node12</title>
<g id="a_edge11_Node000009_Node000012"><a xlink:title=" ">
<path fill="none" stroke="#63b8ff" d="M628.59,-73.96C672.45,-61.67 752.41,-40.46 822,-28.5 849.99,-23.69 880.58,-19.95 908.7,-17.1"/>
<polygon fill="#63b8ff" stroke="#63b8ff" points="909.33,-20.56 918.94,-16.09 908.65,-13.59 909.33,-20.56"/>
</a>
</g>
</g>
</g>
</svg>
