<?xml version="1.0" encoding="UTF-8" standalone="no"?>
<!DOCTYPE svg PUBLIC "-//W3C//DTD SVG 1.1//EN"
 "http://www.w3.org/Graphics/SVG/1.1/DTD/svg11.dtd">
<!-- Generated by graphviz version 6.0.1 (20220911.1526)
 -->
<!-- Title: LlamaLibrary.Int32s Pages: 1 -->
<svg width="666pt" height="798pt"
 viewBox="0.00 0.00 665.50 798.00" xmlns="http://www.w3.org/2000/svg" xmlns:xlink="http://www.w3.org/1999/xlink">
<g id="graph0" class="graph" transform="scale(1 1) rotate(0) translate(4 794)">
<title>LlamaLibrary.Int32s</title>
<!-- Node1 -->
<g id="Node000001" class="node">
<title>Node1</title>
<g id="a_Node000001"><a xlink:title=" ">
<polygon fill="#999999" stroke="none" points="633,-694 57,-694 57,0 633,0 633,-694"/>
<text text-anchor="start" x="302.5" y="-682" font-family="Helvetica,sans-Serif" font-size="10.00">LlamaLibrary.Int32s</text>
<text text-anchor="start" x="61" y="-667" font-family="Helvetica,sans-Serif" font-size="10.00">+</text>
<text text-anchor="start" x="72" y="-667" font-family="Helvetica,sans-Serif" font-size="10.00">int Capacity</text>
<text text-anchor="start" x="61" y="-652" font-family="Helvetica,sans-Serif" font-size="10.00">+</text>
<text text-anchor="start" x="72" y="-652" font-family="Helvetica,sans-Serif" font-size="10.00">int Count</text>
<text text-anchor="start" x="61" y="-637" font-family="Helvetica,sans-Serif" font-size="10.00">+</text>
<text text-anchor="start" x="72" y="-637" font-family="Helvetica,sans-Serif" font-size="10.00">bool IsFixedSize</text>
<text text-anchor="start" x="61" y="-622" font-family="Helvetica,sans-Serif" font-size="10.00">+</text>
<text text-anchor="start" x="72" y="-622" font-family="Helvetica,sans-Serif" font-size="10.00">bool IsReadOnly</text>
<text text-anchor="start" x="61" y="-607" font-family="Helvetica,sans-Serif" font-size="10.00">+</text>
<text text-anchor="start" x="72" y="-607" font-family="Helvetica,sans-Serif" font-size="10.00">bool IsSynchronized</text>
<text text-anchor="start" x="61" y="-592" font-family="Helvetica,sans-Serif" font-size="10.00">+</text>
<text text-anchor="start" x="72" y="-592" font-family="Helvetica,sans-Serif" font-size="10.00">int this[int index]</text>
<text text-anchor="start" x="61.5" y="-577" font-family="Helvetica,sans-Serif" font-size="10.00">#</text>
<text text-anchor="start" x="72" y="-577" font-family="Helvetica,sans-Serif" font-size="10.00">bool swigCMemOwn</text>
<text text-anchor="start" x="61" y="-562" font-family="Helvetica,sans-Serif" font-size="10.00">+</text>
<text text-anchor="start" x="72" y="-562" font-family="Helvetica,sans-Serif" font-size="10.00">void Add(int x)</text>
<text text-anchor="start" x="61" y="-547" font-family="Helvetica,sans-Serif" font-size="10.00">+</text>
<text text-anchor="start" x="72" y="-547" font-family="Helvetica,sans-Serif" font-size="10.00">void AddRange(Int32s values)</text>
<text text-anchor="start" x="61" y="-532" font-family="Helvetica,sans-Serif" font-size="10.00">+</text>
<text text-anchor="start" x="72" y="-532" font-family="Helvetica,sans-Serif" font-size="10.00">void Clear()</text>
<text text-anchor="start" x="61" y="-517" font-family="Helvetica,sans-Serif" font-size="10.00">+</text>
<text text-anchor="start" x="72" y="-517" font-family="Helvetica,sans-Serif" font-size="10.00">bool Contains(int value)</text>
<text text-anchor="start" x="61" y="-502" font-family="Helvetica,sans-Serif" font-size="10.00">+</text>
<text text-anchor="start" x="72" y="-502" font-family="Helvetica,sans-Serif" font-size="10.00">void CopyTo(int index, int[] array, int arrayIndex, int count)</text>
<text text-anchor="start" x="61" y="-487" font-family="Helvetica,sans-Serif" font-size="10.00">+</text>
<text text-anchor="start" x="72" y="-487" font-family="Helvetica,sans-Serif" font-size="10.00">void CopyTo(int[] array)</text>
<text text-anchor="start" x="61" y="-472" font-family="Helvetica,sans-Serif" font-size="10.00">+</text>
<text text-anchor="start" x="72" y="-472" font-family="Helvetica,sans-Serif" font-size="10.00">void CopyTo(int[] array, int arrayIndex)</text>
<text text-anchor="start" x="61" y="-457" font-family="Helvetica,sans-Serif" font-size="10.00">+</text>
<text text-anchor="start" x="72" y="-457" font-family="Helvetica,sans-Serif" font-size="10.00">virtual void Dispose()</text>
<text text-anchor="start" x="61" y="-442" font-family="Helvetica,sans-Serif" font-size="10.00">+</text>
<text text-anchor="start" x="72" y="-442" font-family="Helvetica,sans-Serif" font-size="10.00">Int32sEnumerator GetEnumerator()</text>
<text text-anchor="start" x="61" y="-427" font-family="Helvetica,sans-Serif" font-size="10.00">+</text>
<text text-anchor="start" x="72" y="-427" font-family="Helvetica,sans-Serif" font-size="10.00">Int32s GetRange(int index, int count)</text>
<text text-anchor="start" x="61" y="-412" font-family="Helvetica,sans-Serif" font-size="10.00">+</text>
<text text-anchor="start" x="72" y="-412" font-family="Helvetica,sans-Serif" font-size="10.00">int IndexOf(int value)</text>
<text text-anchor="start" x="61" y="-397" font-family="Helvetica,sans-Serif" font-size="10.00">+</text>
<text text-anchor="start" x="72" y="-397" font-family="Helvetica,sans-Serif" font-size="10.00">void Insert(int index, int x)</text>
<text text-anchor="start" x="61" y="-382" font-family="Helvetica,sans-Serif" font-size="10.00">+</text>
<text text-anchor="start" x="72" y="-382" font-family="Helvetica,sans-Serif" font-size="10.00">void InsertRange(int index, Int32s values)</text>
<text text-anchor="start" x="61" y="-367" font-family="Helvetica,sans-Serif" font-size="10.00">+</text>
<text text-anchor="start" x="72" y="-367" font-family="Helvetica,sans-Serif" font-size="10.00">Int32s()</text>
<text text-anchor="start" x="61" y="-352" font-family="Helvetica,sans-Serif" font-size="10.00">+</text>
<text text-anchor="start" x="72" y="-352" font-family="Helvetica,sans-Serif" font-size="10.00">Int32s(global::System.Collections.Generic.IEnumerable&lt; int &gt; c)</text>
<text text-anchor="start" x="61" y="-337" font-family="Helvetica,sans-Serif" font-size="10.00">+</text>
<text text-anchor="start" x="72" y="-337" font-family="Helvetica,sans-Serif" font-size="10.00">Int32s(global::System.Collections.IEnumerable c)</text>
<text text-anchor="start" x="61" y="-322" font-family="Helvetica,sans-Serif" font-size="10.00">+</text>
<text text-anchor="start" x="72" y="-322" font-family="Helvetica,sans-Serif" font-size="10.00">Int32s(int capacity)</text>
<text text-anchor="start" x="61" y="-307" font-family="Helvetica,sans-Serif" font-size="10.00">+</text>
<text text-anchor="start" x="72" y="-307" font-family="Helvetica,sans-Serif" font-size="10.00">Int32s(Int32s other)</text>
<text text-anchor="start" x="61" y="-292" font-family="Helvetica,sans-Serif" font-size="10.00">+</text>
<text text-anchor="start" x="72" y="-292" font-family="Helvetica,sans-Serif" font-size="10.00">int LastIndexOf(int value)</text>
<text text-anchor="start" x="61" y="-277" font-family="Helvetica,sans-Serif" font-size="10.00">+</text>
<text text-anchor="start" x="72" y="-277" font-family="Helvetica,sans-Serif" font-size="10.00">bool Remove(int value)</text>
<text text-anchor="start" x="61" y="-262" font-family="Helvetica,sans-Serif" font-size="10.00">+</text>
<text text-anchor="start" x="72" y="-262" font-family="Helvetica,sans-Serif" font-size="10.00">void RemoveAt(int index)</text>
<text text-anchor="start" x="61" y="-247" font-family="Helvetica,sans-Serif" font-size="10.00">+</text>
<text text-anchor="start" x="72" y="-247" font-family="Helvetica,sans-Serif" font-size="10.00">void RemoveRange(int index, int count)</text>
<text text-anchor="start" x="61" y="-232" font-family="Helvetica,sans-Serif" font-size="10.00">+</text>
<text text-anchor="start" x="72" y="-232" font-family="Helvetica,sans-Serif" font-size="10.00">void Reverse()</text>
<text text-anchor="start" x="61" y="-217" font-family="Helvetica,sans-Serif" font-size="10.00">+</text>
<text text-anchor="start" x="72" y="-217" font-family="Helvetica,sans-Serif" font-size="10.00">void Reverse(int index, int count)</text>
<text text-anchor="start" x="61" y="-202" font-family="Helvetica,sans-Serif" font-size="10.00">+</text>
<text text-anchor="start" x="72" y="-202" font-family="Helvetica,sans-Serif" font-size="10.00">void SetRange(int index, Int32s values)</text>
<text text-anchor="start" x="61" y="-187" font-family="Helvetica,sans-Serif" font-size="10.00">+</text>
<text text-anchor="start" x="72" y="-187" font-family="Helvetica,sans-Serif" font-size="10.00">int[] ToArray()</text>
<text text-anchor="start" x="61" y="-172" font-family="Helvetica,sans-Serif" font-size="10.00">+</text>
<text text-anchor="start" x="72" y="-172" font-family="Helvetica,sans-Serif" font-size="10.00">static Int32s Repeat(int value, int count)</text>
<text text-anchor="start" x="61" y="-157" font-family="Helvetica,sans-Serif" font-size="10.00">~</text>
<text text-anchor="start" x="72" y="-157" font-family="Helvetica,sans-Serif" font-size="10.00">Int32s(global::System.IntPtr cPtr, bool cMemoryOwn)</text>
<text text-anchor="start" x="61" y="-142" font-family="Helvetica,sans-Serif" font-size="10.00">~</text>
<text text-anchor="start" x="72" y="-142" font-family="Helvetica,sans-Serif" font-size="10.00">static global::System.Runtime.InteropServices.HandleRef getCPtr(Int32s obj)</text>
<text text-anchor="start" x="62.5" y="-127" font-family="Helvetica,sans-Serif" font-size="10.00">&#45;</text>
<text text-anchor="start" x="72" y="-127" font-family="Helvetica,sans-Serif" font-size="10.00">uint capacity()</text>
<text text-anchor="start" x="62.5" y="-112" font-family="Helvetica,sans-Serif" font-size="10.00">&#45;</text>
<text text-anchor="start" x="72" y="-112" font-family="Helvetica,sans-Serif" font-size="10.00">global::System.Collections.Generic.IEnumerator&lt; int &gt; global::System.Collections.Generic.IEnumerable&lt; int &gt;. GetEnumerator()</text>
<text text-anchor="start" x="62.5" y="-97" font-family="Helvetica,sans-Serif" font-size="10.00">&#45;</text>
<text text-anchor="start" x="72" y="-97" font-family="Helvetica,sans-Serif" font-size="10.00">global::System.Collections.IEnumerator global::System.Collections.IEnumerable. GetEnumerator()</text>
<text text-anchor="start" x="62.5" y="-82" font-family="Helvetica,sans-Serif" font-size="10.00">&#45;</text>
<text text-anchor="start" x="72" y="-82" font-family="Helvetica,sans-Serif" font-size="10.00">int getitem(int index)</text>
<text text-anchor="start" x="62.5" y="-67" font-family="Helvetica,sans-Serif" font-size="10.00">&#45;</text>
<text text-anchor="start" x="72" y="-67" font-family="Helvetica,sans-Serif" font-size="10.00">int getitemcopy(int index)</text>
<text text-anchor="start" x="62.5" y="-52" font-family="Helvetica,sans-Serif" font-size="10.00">&#45;</text>
<text text-anchor="start" x="72" y="-52" font-family="Helvetica,sans-Serif" font-size="10.00">void reserve(uint n)</text>
<text text-anchor="start" x="62.5" y="-37" font-family="Helvetica,sans-Serif" font-size="10.00">&#45;</text>
<text text-anchor="start" x="72" y="-37" font-family="Helvetica,sans-Serif" font-size="10.00">void setitem(int index, int value)</text>
<text text-anchor="start" x="62.5" y="-22" font-family="Helvetica,sans-Serif" font-size="10.00">&#45;</text>
<text text-anchor="start" x="72" y="-22" font-family="Helvetica,sans-Serif" font-size="10.00">uint size()</text>
<text text-anchor="start" x="62.5" y="-7" font-family="Helvetica,sans-Serif" font-size="10.00">&#45;</text>
<text text-anchor="start" x="72" y="-7" font-family="Helvetica,sans-Serif" font-size="10.00">~Int32s()</text>
<polygon fill="#666666" stroke="#666666" points="57,-677 57,-677 633,-677 633,-677 57,-677"/>
<polygon fill="#666666" stroke="#666666" points="57,-572 57,-572 70,-572 70,-572 57,-572"/>
<polygon fill="#666666" stroke="#666666" points="70,-572 70,-572 633,-572 633,-572 70,-572"/>
<polygon fill="none" stroke="#666666" points="57,0 57,-694 633,-694 633,0 57,0"/>
</a>
</g>
</g>
<!-- Node2 -->
<g id="Node000002" class="node">
<title>Node2</title>
<g id="a_Node000002"><a xlink:title=" ">
<polygon fill="white" stroke="none" points="126,-790 0,-790 0,-741 126,-741 126,-790"/>
<text text-anchor="start" x="5" y="-777.5" font-family="Helvetica,sans-Serif" font-size="10.00">global::SystemIDisposable</text>
<text text-anchor="start" x="61" y="-762.5" font-family="Helvetica,sans-Serif" font-size="10.00"> </text>
<text text-anchor="start" x="61" y="-747.5" font-family="Helvetica,sans-Serif" font-size="10.00"> </text>
<polygon fill="#666666" stroke="#666666" points="0,-772.5 0,-772.5 126,-772.5 126,-772.5 0,-772.5"/>
<polygon fill="#666666" stroke="#666666" points="0,-757.5 0,-757.5 126,-757.5 126,-757.5 0,-757.5"/>
<polygon fill="none" stroke="#666666" points="0,-741 0,-790 126,-790 126,-741 0,-741"/>
</a>
</g>
</g>
<!-- Node2&#45;&gt;Node1 -->
<g id="edge1_Node000001_Node000002" class="edge">
<title>Node2&#45;&gt;Node1</title>
<g id="a_edge1_Node000001_Node000002"><a xlink:title=" ">
<path fill="none" stroke="#63b8ff" d="M84.66,-732.51C91.88,-721.85 100.63,-708.92 110.49,-694.36"/>
<polygon fill="none" stroke="#63b8ff" points="81.68,-730.67 78.97,-740.91 87.47,-734.6 81.68,-730.67"/>
</a>
</g>
</g>
<!-- Node3 -->
<g id="Node000003" class="node">
<title>Node3</title>
<g id="a_Node000003"><a xlink:title=" ">
<polygon fill="white" stroke="none" points="328,-790 144,-790 144,-741 328,-741 328,-790"/>
<text text-anchor="start" x="149" y="-777.5" font-family="Helvetica,sans-Serif" font-size="10.00">global::SystemCollections::IEnumerable</text>
<text text-anchor="start" x="234" y="-762.5" font-family="Helvetica,sans-Serif" font-size="10.00"> </text>
<text text-anchor="start" x="234" y="-747.5" font-family="Helvetica,sans-Serif" font-size="10.00"> </text>
<polygon fill="#666666" stroke="#666666" points="144,-772.5 144,-772.5 328,-772.5 328,-772.5 144,-772.5"/>
<polygon fill="#666666" stroke="#666666" points="144,-757.5 144,-757.5 328,-757.5 328,-757.5 144,-757.5"/>
<polygon fill="none" stroke="#666666" points="144,-741 144,-790 328,-790 328,-741 144,-741"/>
</a>
</g>
</g>
<!-- Node3&#45;&gt;Node1 -->
<g id="edge2_Node000001_Node000003" class="edge">
<title>Node3&#45;&gt;Node1</title>
<g id="a_edge2_Node000001_Node000003"><a xlink:title=" ">
<path fill="none" stroke="#63b8ff" d="M244.71,-731.22C247.43,-720.81 250.7,-708.34 254.36,-694.36"/>
<polygon fill="none" stroke="#63b8ff" points="241.32,-730.35 242.17,-740.91 248.09,-732.13 241.32,-730.35"/>
</a>
</g>
</g>
<!-- Node4 -->
<g id="Node000004" class="node">
<title>Node4</title>
<g id="a_Node000004"><a xlink:title=" ">
<polygon fill="white" stroke="none" points="562,-790 346,-790 346,-741 562,-741 562,-790"/>
<text text-anchor="start" x="351" y="-777.5" font-family="Helvetica,sans-Serif" font-size="10.00">global::SystemCollections::Generic::IList&lt; int &gt;</text>
<text text-anchor="start" x="452" y="-762.5" font-family="Helvetica,sans-Serif" font-size="10.00"> </text>
<text text-anchor="start" x="452" y="-747.5" font-family="Helvetica,sans-Serif" font-size="10.00"> </text>
<polygon fill="#666666" stroke="#666666" points="346,-772.5 346,-772.5 562,-772.5 562,-772.5 346,-772.5"/>
<polygon fill="#666666" stroke="#666666" points="346,-757.5 346,-757.5 562,-757.5 562,-757.5 346,-757.5"/>
<polygon fill="none" stroke="#666666" points="346,-741 346,-790 562,-790 562,-741 346,-741"/>
</a>
</g>
</g>
<!-- Node4&#45;&gt;Node1 -->
<g id="edge3_Node000001_Node000004" class="edge">
<title>Node4&#45;&gt;Node1</title>
<g id="a_edge3_Node000001_Node000004"><a xlink:title=" ">
<path fill="none" stroke="#63b8ff" d="M445.29,-731.22C442.57,-720.81 439.3,-708.34 435.64,-694.36"/>
<polygon fill="none" stroke="#63b8ff" points="441.91,-732.13 447.83,-740.91 448.68,-730.35 441.91,-732.13"/>
</a>
</g>
</g>
<!-- Node5 -->
<g id="Node000005" class="node">
<title>Node5</title>
<g id="a_Node000005"><a xlink:title=" ">
<polygon fill="white" stroke="none" points="657.5,-790 580.5,-790 580.5,-741 657.5,-741 657.5,-790"/>
<text text-anchor="start" x="586" y="-777.5" font-family="Helvetica,sans-Serif" font-size="10.00">InteropServices</text>
<text text-anchor="start" x="617.5" y="-762.5" font-family="Helvetica,sans-Serif" font-size="10.00"> </text>
<text text-anchor="start" x="617.5" y="-747.5" font-family="Helvetica,sans-Serif" font-size="10.00"> </text>
<polygon fill="#666666" stroke="#666666" points="581,-772.5 581,-772.5 658,-772.5 658,-772.5 581,-772.5"/>
<polygon fill="#666666" stroke="#666666" points="581,-757.5 581,-757.5 658,-757.5 658,-757.5 581,-757.5"/>
<polygon fill="none" stroke="#666666" points="580.5,-741 580.5,-790 657.5,-790 657.5,-741 580.5,-741"/>
</a>
</g>
</g>
<!-- Node5&#45;&gt;Node1 -->
<g id="edge4_Node000001_Node000005" class="edge">
<title>Node5&#45;&gt;Node1</title>
<g id="a_edge4_Node000001_Node000005"><a xlink:title=" ">
<path fill="none" stroke="#63b8ff" d="M603.48,-740.91C597.09,-731.2 588.96,-718.84 579.56,-704.55"/>
<polygon fill="none" stroke="#63b8ff" points="579.45,-704.38 572.81,-701.57 572.86,-694.36 579.5,-697.17 579.45,-704.38"/>
</a>
</g>
<text text-anchor="middle" x="613" y="-715" font-family="Helvetica,sans-Serif" font-size="10.00" fill="grey"> &#45;swigCPtr</text>
</g>
</g>
</svg>
