<?xml version="1.0" encoding="UTF-8" standalone="no"?>
<!DOCTYPE svg PUBLIC "-//W3C//DTD SVG 1.1//EN"
 "http://www.w3.org/Graphics/SVG/1.1/DTD/svg11.dtd">
<!-- Generated by graphviz version 6.0.1 (20220911.1526)
 -->
<!-- Title: Assets.StyledLines.Runtime.DialogUtils.CharacterStyleMapper.Start Pages: 1 -->
<svg width="1152pt" height="103pt"
 viewBox="0.00 0.00 1152.00 103.00" xmlns="http://www.w3.org/2000/svg" xmlns:xlink="http://www.w3.org/1999/xlink">
<g id="graph0" class="graph" transform="scale(1 1) rotate(0) translate(4 99)">
<title>Assets.StyledLines.Runtime.DialogUtils.CharacterStyleMapper.Start</title>
<!-- Node1 -->
<g id="Node000001" class="node">
<title>Node1</title>
<g id="a_Node000001"><a xlink:title=" ">
<polygon fill="#999999" stroke="#666666" points="314,-57 0,-57 0,-38 314,-38 314,-57"/>
<text text-anchor="middle" x="157" y="-45" font-family="Helvetica,sans-Serif" font-size="10.00">Assets.StyledLines.Runtime.DialogUtils.CharacterStyleMapper.Start</text>
</a>
</g>
</g>
<!-- Node2 -->
<g id="Node000002" class="node">
<title>Node2</title>
<g id="a_Node000002"><a xlink:href="class_assets_1_1_styled_lines_1_1_runtime_1_1_dialog_utils_1_1_character_style_mapper.html#a827a4f53712682044a66c0262a5ffe2a" target="_top" xlink:title=" ">
<polygon fill="white" stroke="#666666" points="736,-95 350,-95 350,-76 736,-76 736,-95"/>
<text text-anchor="middle" x="543" y="-83" font-family="Helvetica,sans-Serif" font-size="10.00">Assets.StyledLines.Runtime.DialogUtils.CharacterStyleMapper.OnCharacterSelected</text>
</a>
</g>
</g>
<!-- Node1&#45;&gt;Node2 -->
<g id="edge1_Node000001_Node000002" class="edge">
<title>Node1&#45;&gt;Node2</title>
<g id="a_edge1_Node000001_Node000002"><a xlink:title=" ">
<path fill="none" stroke="#63b8ff" d="M254.4,-57.04C309.63,-62.5 379.02,-69.37 435.8,-74.99"/>
<polygon fill="#63b8ff" stroke="#63b8ff" points="435.59,-78.49 445.89,-75.99 436.28,-71.52 435.59,-78.49"/>
</a>
</g>
</g>
<!-- Node3 -->
<g id="Node000003" class="node">
<title>Node3</title>
<g id="a_Node000003"><a xlink:href="class_assets_1_1_styled_lines_1_1_runtime_1_1_dialog_utils_1_1_character_style_mapper.html#a3e1ff85c05a3dbfad1efac57874410da" target="_top" xlink:title=" ">
<polygon fill="white" stroke="#666666" points="1144,-76 772,-76 772,-57 1144,-57 1144,-76"/>
<text text-anchor="middle" x="958" y="-64" font-family="Helvetica,sans-Serif" font-size="10.00">Assets.StyledLines.Runtime.DialogUtils.CharacterStyleMapper.SetStyleInputField</text>
</a>
</g>
</g>
<!-- Node1&#45;&gt;Node3 -->
<g id="edge4_Node000001_Node000003" class="edge">
<title>Node1&#45;&gt;Node3</title>
<g id="a_edge4_Node000001_Node000003"><a xlink:title=" ">
<path fill="none" stroke="#63b8ff" d="M314.43,-51.22C442.41,-54.26 624.08,-58.58 761.61,-61.85"/>
<polygon fill="#63b8ff" stroke="#63b8ff" points="761.77,-65.36 771.85,-62.1 761.94,-58.36 761.77,-65.36"/>
</a>
</g>
</g>
<!-- Node4 -->
<g id="Node000004" class="node">
<title>Node4</title>
<g id="a_Node000004"><a xlink:href="class_assets_1_1_styled_lines_1_1_runtime_1_1_dialog_utils_1_1_character_style_mapper.html#a3a637a6255826134b4b9eb57005ffa77" target="_top" xlink:title=" ">
<polygon fill="white" stroke="#666666" points="726,-19 360,-19 360,0 726,0 726,-19"/>
<text text-anchor="middle" x="543" y="-7" font-family="Helvetica,sans-Serif" font-size="10.00">Assets.StyledLines.Runtime.DialogUtils.CharacterStyleMapper.OnStyleChanged</text>
</a>
</g>
</g>
<!-- Node1&#45;&gt;Node4 -->
<g id="edge3_Node000001_Node000004" class="edge">
<title>Node1&#45;&gt;Node4</title>
<g id="a_edge3_Node000001_Node000004"><a xlink:title=" ">
<path fill="none" stroke="#63b8ff" d="M254.4,-37.96C309.63,-32.5 379.02,-25.63 435.8,-20.01"/>
<polygon fill="#63b8ff" stroke="#63b8ff" points="436.28,-23.48 445.89,-19.01 435.59,-16.51 436.28,-23.48"/>
</a>
</g>
</g>
<!-- Node2&#45;&gt;Node3 -->
<g id="edge2_Node000002_Node000003" class="edge">
<title>Node2&#45;&gt;Node3</title>
<g id="a_edge2_Node000002_Node000003"><a xlink:title=" ">
<path fill="none" stroke="#63b8ff" d="M736.29,-76.65C744.84,-76.26 753.42,-75.87 761.97,-75.47"/>
<polygon fill="#63b8ff" stroke="#63b8ff" points="762.17,-78.97 772,-75.01 761.85,-71.97 762.17,-78.97"/>
</a>
</g>
</g>
</g>
</svg>
