<?xml version="1.0" encoding="UTF-8" standalone="no"?>
<!DOCTYPE svg PUBLIC "-//W3C//DTD SVG 1.1//EN"
 "http://www.w3.org/Graphics/SVG/1.1/DTD/svg11.dtd">
<!-- Generated by graphviz version 6.0.1 (20220911.1526)
 -->
<!-- Title: LlamaLibrary.AsyncLlamaInfrence.Dispose Pages: 1 -->
<svg width="505pt" height="64pt"
 viewBox="0.00 0.00 505.00 64.00" xmlns="http://www.w3.org/2000/svg" xmlns:xlink="http://www.w3.org/1999/xlink">
<g id="graph0" class="graph" transform="scale(1 1) rotate(0) translate(4 60)">
<title>LlamaLibrary.AsyncLlamaInfrence.Dispose</title>
<!-- Node1 -->
<g id="Node000001" class="node">
<title>Node1</title>
<g id="a_Node000001"><a xlink:title=" ">
<polygon fill="#999999" stroke="#666666" points="497,-37 296,-37 296,-18 497,-18 497,-37"/>
<text text-anchor="middle" x="396.5" y="-25" font-family="Helvetica,sans-Serif" font-size="10.00">LlamaLibrary.AsyncLlamaInfrence.Dispose</text>
</a>
</g>
</g>
<!-- Node2 -->
<g id="Node000002" class="node">
<title>Node2</title>
<g id="a_Node000002"><a xlink:href="class_run_model_async.html#a7a29035d3f1d08dfea5cd1f334d27433" target="_top" xlink:title="Method called when the MonoBehaviour is destroyed. Disposes of model resources and cleans up the envi...">
<polygon fill="white" stroke="#666666" points="198.5,-56 61.5,-56 61.5,-37 198.5,-37 198.5,-56"/>
<text text-anchor="middle" x="130" y="-44" font-family="Helvetica,sans-Serif" font-size="10.00">RunModelAsync.OnDestroy</text>
</a>
</g>
</g>
<!-- Node1&#45;&gt;Node2 -->
<g id="edge1_Node000001_Node000002" class="edge">
<title>Node1&#45;&gt;Node2</title>
<g id="a_edge1_Node000001_Node000002"><a xlink:title=" ">
<path fill="none" stroke="#63b8ff" d="M285.56,-35.4C256.17,-37.51 225.26,-39.73 198.88,-41.62"/>
<polygon fill="#63b8ff" stroke="#63b8ff" points="286.16,-38.86 295.88,-34.66 285.66,-31.88 286.16,-38.86"/>
</a>
</g>
</g>
<!-- Node3 -->
<g id="Node000003" class="node">
<title>Node3</title>
<g id="a_Node000003"><a xlink:href="class_llama_library_1_1_async_llama_infrence.html#ae7797a60afbc4bcc6bcde25e02bbe0d3" target="_top" xlink:title=" ">
<polygon fill="white" stroke="#666666" points="260,-19 0,-19 0,0 260,0 260,-19"/>
<text text-anchor="middle" x="130" y="-7" font-family="Helvetica,sans-Serif" font-size="10.00">LlamaLibrary.AsyncLlamaInfrence.~AsyncLlamaInfrence</text>
</a>
</g>
</g>
<!-- Node1&#45;&gt;Node3 -->
<g id="edge2_Node000001_Node000003" class="edge">
<title>Node1&#45;&gt;Node3</title>
<g id="a_edge2_Node000001_Node000003"><a xlink:title=" ">
<path fill="none" stroke="#63b8ff" d="M285.64,-20.02C277.18,-19.45 268.6,-18.86 260.04,-18.28"/>
<polygon fill="#63b8ff" stroke="#63b8ff" points="285.67,-23.53 295.88,-20.72 286.14,-16.55 285.67,-23.53"/>
</a>
</g>
</g>
</g>
</svg>
