<?xml version="1.0" encoding="UTF-8" standalone="no"?>
<!DOCTYPE svg PUBLIC "-//W3C//DTD SVG 1.1//EN"
 "http://www.w3.org/Graphics/SVG/1.1/DTD/svg11.dtd">
<!-- Generated by graphviz version 6.0.1 (20220911.1526)
 -->
<!-- Title: LlamaLibrary.LoggingContext.~LoggingContext Pages: 1 -->
<svg width="749pt" height="27pt"
 viewBox="0.00 0.00 749.00 27.00" xmlns="http://www.w3.org/2000/svg" xmlns:xlink="http://www.w3.org/1999/xlink">
<g id="graph0" class="graph" transform="scale(1 1) rotate(0) translate(4 23)">
<title>LlamaLibrary.LoggingContext.~LoggingContext</title>
<!-- Node1 -->
<g id="Node000001" class="node">
<title>Node1</title>
<g id="a_Node000001"><a xlink:title=" ">
<polygon fill="#999999" stroke="#666666" points="219,-19 0,-19 0,0 219,0 219,-19"/>
<text text-anchor="middle" x="109.5" y="-7" font-family="Helvetica,sans-Serif" font-size="10.00">LlamaLibrary.LoggingContext.~LoggingContext</text>
</a>
</g>
</g>
<!-- Node2 -->
<g id="Node000002" class="node">
<title>Node2</title>
<g id="a_Node000002"><a xlink:href="$class_llama_library_1_1_logging_context.html#ab6fd8a46d78d0662bcdb8a3a6129c08c" xlink:title=" ">
<polygon fill="white" stroke="#666666" points="436,-19 255,-19 255,0 436,0 436,-19"/>
<text text-anchor="middle" x="345.5" y="-7" font-family="Helvetica,sans-Serif" font-size="10.00">LlamaLibrary.LoggingContext.Dispose</text>
</a>
</g>
</g>
<!-- Node1&#45;&gt;Node2 -->
<g id="edge1_Node000001_Node000002" class="edge">
<title>Node1&#45;&gt;Node2</title>
<g id="a_edge1_Node000001_Node000002"><a xlink:title=" ">
<path fill="none" stroke="#63b8ff" d="M219.28,-9.5C227.76,-9.5 236.31,-9.5 244.73,-9.5"/>
<polygon fill="#63b8ff" stroke="#63b8ff" points="244.93,-13 254.93,-9.5 244.93,-6 244.93,-13"/>
</a>
</g>
</g>
<!-- Node3 -->
<g id="Node000003" class="node">
<title>Node3</title>
<g id="a_Node000003"><a xlink:href="$class_llama_library_1_1libllama__lib_p_i_n_v_o_k_e.html#a068d58bf7e6f134f41130f240a8d483b" xlink:title=" ">
<polygon fill="white" stroke="#666666" points="741,-19 472,-19 472,0 741,0 741,-19"/>
<text text-anchor="middle" x="606.5" y="-7" font-family="Helvetica,sans-Serif" font-size="10.00">LlamaLibrary.libllama_libPINVOKE.delete_LoggingContext</text>
</a>
</g>
</g>
<!-- Node2&#45;&gt;Node3 -->
<g id="edge2_Node000002_Node000003" class="edge">
<title>Node2&#45;&gt;Node3</title>
<g id="a_edge2_Node000002_Node000003"><a xlink:title=" ">
<path fill="none" stroke="#63b8ff" d="M436.36,-9.5C444.65,-9.5 453.19,-9.5 461.81,-9.5"/>
<polygon fill="#63b8ff" stroke="#63b8ff" points="461.96,-13 471.96,-9.5 461.96,-6 461.96,-13"/>
</a>
</g>
</g>
</g>
</svg>
