<?xml version="1.0" encoding="UTF-8" standalone="no"?>
<!DOCTYPE svg PUBLIC "-//W3C//DTD SVG 1.1//EN"
 "http://www.w3.org/Graphics/SVG/1.1/DTD/svg11.dtd">
<!-- Generated by graphviz version 6.0.1 (20220911.1526)
 -->
<!-- Title: MinimalExample Pages: 1 -->
<svg width="157pt" height="172pt"
 viewBox="0.00 0.00 157.00 172.00" xmlns="http://www.w3.org/2000/svg" xmlns:xlink="http://www.w3.org/1999/xlink">
<g id="graph0" class="graph" transform="scale(1 1) rotate(0) translate(4 168)">
<title>MinimalExample</title>
<!-- Node1 -->
<g id="Node000001" class="node">
<title>Node1</title>
<g id="a_Node000001"><a xlink:title=" ">
<polygon fill="#999999" stroke="none" points="149,-79 0,-79 0,0 149,0 149,-79"/>
<text text-anchor="start" x="38.5" y="-66.5" font-family="Helvetica,sans-Serif" font-size="10.00">MinimalExample</text>
<text text-anchor="start" x="4.5" y="-51.5" font-family="Helvetica,sans-Serif" font-size="10.00">+</text>
<text text-anchor="start" x="15.5" y="-51.5" font-family="Helvetica,sans-Serif" font-size="10.00">BinaryAsset binaryFileAsset</text>
<text text-anchor="start" x="6" y="-36.5" font-family="Helvetica,sans-Serif" font-size="10.00">&#45;</text>
<text text-anchor="start" x="15.5" y="-36.5" font-family="Helvetica,sans-Serif" font-size="10.00">ModelController _llmController</text>
<text text-anchor="start" x="6" y="-21.5" font-family="Helvetica,sans-Serif" font-size="10.00">&#45;</text>
<text text-anchor="start" x="15.5" y="-21.5" font-family="Helvetica,sans-Serif" font-size="10.00">IEnumerator GenerateLine()</text>
<text text-anchor="start" x="6" y="-6.5" font-family="Helvetica,sans-Serif" font-size="10.00">&#45;</text>
<text text-anchor="start" x="15.5" y="-6.5" font-family="Helvetica,sans-Serif" font-size="10.00">void Start()</text>
<polygon fill="#666666" stroke="#666666" points="0.5,-61.5 0.5,-61.5 149.5,-61.5 149.5,-61.5 0.5,-61.5"/>
<polygon fill="#666666" stroke="#666666" points="0.5,-31.5 0.5,-31.5 13.5,-31.5 13.5,-31.5 0.5,-31.5"/>
<polygon fill="#666666" stroke="#666666" points="13.5,-31.5 13.5,-31.5 149.5,-31.5 149.5,-31.5 13.5,-31.5"/>
<polygon fill="none" stroke="#666666" points="0,0 0,-79 149,-79 149,0 0,0"/>
</a>
</g>
</g>
<!-- Node2 -->
<g id="Node000002" class="node">
<title>Node2</title>
<g id="a_Node000002"><a xlink:title=" ">
<polygon fill="white" stroke="none" points="113,-164 36,-164 36,-115 113,-115 113,-164"/>
<text text-anchor="start" x="41.5" y="-151.5" font-family="Helvetica,sans-Serif" font-size="10.00">MonoBehaviour</text>
<text text-anchor="start" x="73" y="-136.5" font-family="Helvetica,sans-Serif" font-size="10.00"> </text>
<text text-anchor="start" x="73" y="-121.5" font-family="Helvetica,sans-Serif" font-size="10.00"> </text>
<polygon fill="#666666" stroke="#666666" points="36.5,-146.5 36.5,-146.5 113.5,-146.5 113.5,-146.5 36.5,-146.5"/>
<polygon fill="#666666" stroke="#666666" points="36.5,-131.5 36.5,-131.5 113.5,-131.5 113.5,-131.5 36.5,-131.5"/>
<polygon fill="none" stroke="#666666" points="36,-115 36,-164 113,-164 113,-115 36,-115"/>
</a>
</g>
</g>
<!-- Node2&#45;&gt;Node1 -->
<g id="edge1_Node000001_Node000002" class="edge">
<title>Node2&#45;&gt;Node1</title>
<g id="a_edge1_Node000001_Node000002"><a xlink:title=" ">
<path fill="none" stroke="#63b8ff" d="M74.5,-104.52C74.5,-96.38 74.5,-87.63 74.5,-79.29"/>
<polygon fill="none" stroke="#63b8ff" points="71,-104.78 74.5,-114.78 78,-104.78 71,-104.78"/>
</a>
</g>
</g>
</g>
</svg>
