<?xml version="1.0" encoding="UTF-8" standalone="no"?>
<!DOCTYPE svg PUBLIC "-//W3C//DTD SVG 1.1//EN"
 "http://www.w3.org/Graphics/SVG/1.1/DTD/svg11.dtd">
<!-- Generated by graphviz version 6.0.1 (20220911.1526)
 -->
<!-- Title: Assets.StyledLines.Runtime.DialogUtils.DialogManager.Start Pages: 1 -->
<svg width="1878pt" height="119pt"
 viewBox="0.00 0.00 1878.00 119.00" xmlns="http://www.w3.org/2000/svg" xmlns:xlink="http://www.w3.org/1999/xlink">
<g id="graph0" class="graph" transform="scale(1 1) rotate(0) translate(4 115)">
<title>Assets.StyledLines.Runtime.DialogUtils.DialogManager.Start</title>
<!-- Node1 -->
<g id="Node000001" class="node">
<title>Node1</title>
<g id="a_Node000001"><a xlink:title="Called when the script starts; initializes the model controller, parses the dialog,...">
<polygon fill="#999999" stroke="#666666" points="281,-74 0,-74 0,-55 281,-55 281,-74"/>
<text text-anchor="middle" x="140.5" y="-62" font-family="Helvetica,sans-Serif" font-size="10.00">Assets.StyledLines.Runtime.DialogUtils.DialogManager.Start</text>
</a>
</g>
</g>
<!-- Node2 -->
<g id="Node000002" class="node">
<title>Node2</title>
<g id="a_Node000002"><a xlink:href="class_assets_1_1_styled_lines_1_1_runtime_1_1_dialog_utils_1_1_dialog_manager.html#a0f90821789d3d4f9fe1159cb9591bb55" target="_top" xlink:title="Ensures that each character has a TextMeshPro component for displaying dialog, creating one if necess...">
<polygon fill="white" stroke="#666666" points="697,-111 317,-111 317,-92 697,-92 697,-111"/>
<text text-anchor="middle" x="507" y="-99" font-family="Helvetica,sans-Serif" font-size="10.00">Assets.StyledLines.Runtime.DialogUtils.DialogManager.CreateTextMeshesIfMissing</text>
</a>
</g>
</g>
<!-- Node1&#45;&gt;Node2 -->
<g id="edge1_Node000001_Node000002" class="edge">
<title>Node1&#45;&gt;Node2</title>
<g id="a_edge1_Node000001_Node000002"><a xlink:title=" ">
<path fill="none" stroke="#63b8ff" d="M227.62,-74.05C256.07,-77.14 287.88,-80.54 317,-83.5 341.64,-86.01 368.1,-88.59 393.19,-91"/>
<polygon fill="#63b8ff" stroke="#63b8ff" points="393.19,-94.51 403.47,-91.98 393.85,-87.54 393.19,-94.51"/>
</a>
</g>
</g>
<!-- Node4 -->
<g id="Node000004" class="node">
<title>Node4</title>
<g id="a_Node000004"><a xlink:href="class_assets_1_1_styled_lines_1_1_runtime_1_1_dialog_utils_1_1_dialog_manager.html#ab340ac66153bf61473e645a07bcd5004" target="_top" xlink:title="Parses the dialog text into individual lines based on a specific format.">
<polygon fill="white" stroke="#666666" points="663.5,-74 350.5,-74 350.5,-55 663.5,-55 663.5,-74"/>
<text text-anchor="middle" x="507" y="-62" font-family="Helvetica,sans-Serif" font-size="10.00">Assets.StyledLines.Runtime.DialogUtils.DialogManager.ParseDialog</text>
</a>
</g>
</g>
<!-- Node1&#45;&gt;Node4 -->
<g id="edge3_Node000001_Node000004" class="edge">
<title>Node1&#45;&gt;Node4</title>
<g id="a_edge3_Node000001_Node000004"><a xlink:title=" ">
<path fill="none" stroke="#63b8ff" d="M281.12,-64.5C300.37,-64.5 320.28,-64.5 339.94,-64.5"/>
<polygon fill="#63b8ff" stroke="#63b8ff" points="340.2,-68 350.2,-64.5 340.2,-61 340.2,-68"/>
</a>
</g>
</g>
<!-- Node5 -->
<g id="Node000005" class="node">
<title>Node5</title>
<g id="a_Node000005"><a xlink:href="class_assets_1_1_styled_lines_1_1_runtime_1_1_dialog_utils_1_1_dialog_manager.html#a38b321d8b3be72540eab19e2617352b5" target="_top" xlink:title="Starts the dialog sequence, setting the initial index and activating the dialog.">
<polygon fill="white" stroke="#666666" points="661,-37 353,-37 353,-18 661,-18 661,-37"/>
<text text-anchor="middle" x="507" y="-25" font-family="Helvetica,sans-Serif" font-size="10.00">Assets.StyledLines.Runtime.DialogUtils.DialogManager.StartDialog</text>
</a>
</g>
</g>
<!-- Node1&#45;&gt;Node5 -->
<g id="edge4_Node000001_Node000005" class="edge">
<title>Node1&#45;&gt;Node5</title>
<g id="a_edge4_Node000001_Node000005"><a xlink:title=" ">
<path fill="none" stroke="#63b8ff" d="M233.94,-54.98C260.74,-52.23 290.03,-49.24 317,-46.5 344.18,-43.74 373.55,-40.78 400.86,-38.03"/>
<polygon fill="#63b8ff" stroke="#63b8ff" points="401.22,-41.51 410.82,-37.03 400.52,-34.55 401.22,-41.51"/>
</a>
</g>
</g>
<!-- Node3 -->
<g id="Node000003" class="node">
<title>Node3</title>
<g id="a_Node000003"><a xlink:href="class_assets_1_1_styled_lines_1_1_runtime_1_1_dialog_utils_1_1_dialog_manager.html#a01743290b7a89762910df46dc02b3902" target="_top" xlink:title="Calculates the combined bounds of all renderers in a character&#39;s GameObject.">
<polygon fill="white" stroke="#666666" points="1086,-111 733,-111 733,-92 1086,-92 1086,-111"/>
<text text-anchor="middle" x="909.5" y="-99" font-family="Helvetica,sans-Serif" font-size="10.00">Assets.StyledLines.Runtime.DialogUtils.DialogManager.GetCombinedBounds</text>
</a>
</g>
</g>
<!-- Node2&#45;&gt;Node3 -->
<g id="edge2_Node000002_Node000003" class="edge">
<title>Node2&#45;&gt;Node3</title>
<g id="a_edge2_Node000002_Node000003"><a xlink:title=" ">
<path fill="none" stroke="#63b8ff" d="M697.11,-101.5C705.7,-101.5 714.31,-101.5 722.89,-101.5"/>
<polygon fill="#63b8ff" stroke="#63b8ff" points="722.95,-105 732.95,-101.5 722.95,-98 722.95,-105"/>
</a>
</g>
</g>
<!-- Node6 -->
<g id="Node000006" class="node">
<title>Node6</title>
<g id="a_Node000006"><a xlink:href="class_assets_1_1_styled_lines_1_1_runtime_1_1_dialog_utils_1_1_dialog_manager.html#a5f8f765bf2bba39f00acbfe9d5adab95" target="_top" xlink:title="Coroutine that displays the next line of dialog, handles looping, and manages the dialog&#39;s progressio...">
<polygon fill="white" stroke="#666666" points="1071,-37 748,-37 748,-18 1071,-18 1071,-37"/>
<text text-anchor="middle" x="909.5" y="-25" font-family="Helvetica,sans-Serif" font-size="10.00">Assets.StyledLines.Runtime.DialogUtils.DialogManager.ShowNextLine</text>
</a>
</g>
</g>
<!-- Node5&#45;&gt;Node6 -->
<g id="edge5_Node000005_Node000006" class="edge">
<title>Node5&#45;&gt;Node6</title>
<g id="a_edge5_Node000005_Node000006"><a xlink:title=" ">
<path fill="none" stroke="#63b8ff" d="M661.13,-27.5C686.18,-27.5 712.27,-27.5 737.72,-27.5"/>
<polygon fill="#63b8ff" stroke="#63b8ff" points="737.81,-31 747.81,-27.5 737.81,-24 737.81,-31"/>
</a>
</g>
</g>
<!-- Node7 -->
<g id="Node000007" class="node">
<title>Node7</title>
<g id="a_Node000007"><a xlink:href="class_assets_1_1_styled_lines_1_1_runtime_1_1_llama_infrence_unity_1_1_model_controller.html#af61c777c48182d3bec3f6c1dd3d36e8c" target="_top" xlink:title="Static method to extract the first part of a string up to a specified stop text. If the stop text is ...">
<polygon fill="white" stroke="#666666" points="1490,-56 1122,-56 1122,-37 1490,-37 1490,-56"/>
<text text-anchor="middle" x="1306" y="-44" font-family="Helvetica,sans-Serif" font-size="10.00">Assets.StyledLines.Runtime.LlamaInfrenceUnity.ModelController.ExtractFirstPart</text>
</a>
</g>
</g>
<!-- Node6&#45;&gt;Node7 -->
<g id="edge6_Node000006_Node000007" class="edge">
<title>Node6&#45;&gt;Node7</title>
<g id="a_edge6_Node000006_Node000007"><a xlink:title=" ">
<path fill="none" stroke="#63b8ff" d="M1071.24,-35.24C1084.49,-35.88 1097.97,-36.53 1111.43,-37.18"/>
<polygon fill="#63b8ff" stroke="#63b8ff" points="1111.55,-40.69 1121.71,-37.67 1111.89,-33.7 1111.55,-40.69"/>
</a>
</g>
</g>
<!-- Node8 -->
<g id="Node000008" class="node">
<title>Node8</title>
<g id="a_Node000008"><a xlink:href="class_assets_1_1_styled_lines_1_1_runtime_1_1_dialog_utils_1_1_dialog_manager.html#abf6ab9ac1cd1f285dbaf97aa03fba779" target="_top" xlink:title="Displays the specified text on the character&#39;s TextMeshPro component.">
<polygon fill="white" stroke="#666666" points="1457.5,-19 1154.5,-19 1154.5,0 1457.5,0 1457.5,-19"/>
<text text-anchor="middle" x="1306" y="-7" font-family="Helvetica,sans-Serif" font-size="10.00">Assets.StyledLines.Runtime.DialogUtils.DialogManager.ShowText</text>
</a>
</g>
</g>
<!-- Node6&#45;&gt;Node8 -->
<g id="edge7_Node000006_Node000008" class="edge">
<title>Node6&#45;&gt;Node8</title>
<g id="a_edge7_Node000006_Node000008"><a xlink:title=" ">
<path fill="none" stroke="#63b8ff" d="M1071.24,-20.17C1095.31,-19.07 1120.12,-17.94 1144.19,-16.84"/>
<polygon fill="#63b8ff" stroke="#63b8ff" points="1144.62,-20.32 1154.45,-16.37 1144.3,-13.33 1144.62,-20.32"/>
</a>
</g>
</g>
<!-- Node9 -->
<g id="Node000009" class="node">
<title>Node9</title>
<g id="a_Node000009"><a xlink:href="class_assets_1_1_styled_lines_1_1_runtime_1_1_dialog_utils_1_1_dialog_manager.html#a47b62c096fbeba9ef026ca70ab0cea25" target="_top" xlink:title="Coroutine that hides the text by clearing it after a specified delay.">
<polygon fill="white" stroke="#666666" points="1870,-19 1526,-19 1526,0 1870,0 1870,-19"/>
<text text-anchor="middle" x="1698" y="-7" font-family="Helvetica,sans-Serif" font-size="10.00">Assets.StyledLines.Runtime.DialogUtils.DialogManager.HideTextAfterDelay</text>
</a>
</g>
</g>
<!-- Node8&#45;&gt;Node9 -->
<g id="edge8_Node000008_Node000009" class="edge">
<title>Node8&#45;&gt;Node9</title>
<g id="a_edge8_Node000008_Node000009"><a xlink:title=" ">
<path fill="none" stroke="#63b8ff" d="M1457.51,-9.5C1476.59,-9.5 1496.28,-9.5 1515.78,-9.5"/>
<polygon fill="#63b8ff" stroke="#63b8ff" points="1515.95,-13 1525.95,-9.5 1515.95,-6 1515.95,-13"/>
</a>
</g>
</g>
</g>
</svg>
