<?xml version="1.0" encoding="UTF-8" standalone="no"?>
<!DOCTYPE svg PUBLIC "-//W3C//DTD SVG 1.1//EN"
 "http://www.w3.org/Graphics/SVG/1.1/DTD/svg11.dtd">
<!-- Generated by graphviz version 6.0.1 (20220911.1526)
 -->
<!-- Title: LlamaLibrary.FileWrapper Pages: 1 -->
<svg width="385pt" height="258pt"
 viewBox="0.00 0.00 385.00 258.00" xmlns="http://www.w3.org/2000/svg" xmlns:xlink="http://www.w3.org/1999/xlink">
<g id="graph0" class="graph" transform="scale(1 1) rotate(0) translate(4 254)">
<title>LlamaLibrary.FileWrapper</title>
<!-- Node1 -->
<g id="Node000001" class="node">
<title>Node1</title>
<g id="a_Node000001"><a xlink:title=" ">
<polygon fill="#999999" stroke="none" points="377,-154 0,-154 0,0 377,0 377,-154"/>
<text text-anchor="start" x="133" y="-142" font-family="Helvetica,sans-Serif" font-size="10.00">LlamaLibrary.FileWrapper</text>
<text text-anchor="start" x="5" y="-127" font-family="Helvetica,sans-Serif" font-size="10.00">#</text>
<text text-anchor="start" x="15.5" y="-127" font-family="Helvetica,sans-Serif" font-size="10.00">bool swigCMemOwn</text>
<text text-anchor="start" x="4.5" y="-112" font-family="Helvetica,sans-Serif" font-size="10.00">+</text>
<text text-anchor="start" x="15.5" y="-112" font-family="Helvetica,sans-Serif" font-size="10.00">virtual void Dispose()</text>
<text text-anchor="start" x="4.5" y="-97" font-family="Helvetica,sans-Serif" font-size="10.00">+</text>
<text text-anchor="start" x="15.5" y="-97" font-family="Helvetica,sans-Serif" font-size="10.00">FileWrapper()</text>
<text text-anchor="start" x="4.5" y="-82" font-family="Helvetica,sans-Serif" font-size="10.00">+</text>
<text text-anchor="start" x="15.5" y="-82" font-family="Helvetica,sans-Serif" font-size="10.00">static bool Save(byte[] data, int data_length, string path)</text>
<text text-anchor="start" x="4.5" y="-67" font-family="Helvetica,sans-Serif" font-size="10.00">+</text>
<text text-anchor="start" x="15.5" y="-67" font-family="Helvetica,sans-Serif" font-size="10.00">static bool Save(string data, string path)</text>
<text text-anchor="start" x="4.5" y="-52" font-family="Helvetica,sans-Serif" font-size="10.00">+</text>
<text text-anchor="start" x="15.5" y="-52" font-family="Helvetica,sans-Serif" font-size="10.00">static bool Save(string data, uint data_length, string path)</text>
<text text-anchor="start" x="4.5" y="-37" font-family="Helvetica,sans-Serif" font-size="10.00">~</text>
<text text-anchor="start" x="15.5" y="-37" font-family="Helvetica,sans-Serif" font-size="10.00">FileWrapper(global::System.IntPtr cPtr, bool cMemoryOwn)</text>
<text text-anchor="start" x="4.5" y="-22" font-family="Helvetica,sans-Serif" font-size="10.00">~</text>
<text text-anchor="start" x="15.5" y="-22" font-family="Helvetica,sans-Serif" font-size="10.00">static global::System.Runtime.InteropServices.HandleRef getCPtr(FileWrapper obj)</text>
<text text-anchor="start" x="6" y="-7" font-family="Helvetica,sans-Serif" font-size="10.00">&#45;</text>
<text text-anchor="start" x="15.5" y="-7" font-family="Helvetica,sans-Serif" font-size="10.00">~FileWrapper()</text>
<polygon fill="#666666" stroke="#666666" points="0.5,-137 0.5,-137 377.5,-137 377.5,-137 0.5,-137"/>
<polygon fill="#666666" stroke="#666666" points="0.5,-122 0.5,-122 13.5,-122 13.5,-122 0.5,-122"/>
<polygon fill="#666666" stroke="#666666" points="13.5,-122 13.5,-122 377.5,-122 377.5,-122 13.5,-122"/>
<polygon fill="none" stroke="#666666" points="0,0 0,-154 377,-154 377,0 0,0"/>
</a>
</g>
</g>
<!-- Node2 -->
<g id="Node000002" class="node">
<title>Node2</title>
<g id="a_Node000002"><a xlink:title=" ">
<polygon fill="white" stroke="none" points="191.5,-250 65.5,-250 65.5,-201 191.5,-201 191.5,-250"/>
<text text-anchor="start" x="70.5" y="-237.5" font-family="Helvetica,sans-Serif" font-size="10.00">global::SystemIDisposable</text>
<text text-anchor="start" x="126.5" y="-222.5" font-family="Helvetica,sans-Serif" font-size="10.00"> </text>
<text text-anchor="start" x="126.5" y="-207.5" font-family="Helvetica,sans-Serif" font-size="10.00"> </text>
<polygon fill="#666666" stroke="#666666" points="65.5,-232.5 65.5,-232.5 191.5,-232.5 191.5,-232.5 65.5,-232.5"/>
<polygon fill="#666666" stroke="#666666" points="65.5,-217.5 65.5,-217.5 191.5,-217.5 191.5,-217.5 65.5,-217.5"/>
<polygon fill="none" stroke="#666666" points="65.5,-201 65.5,-250 191.5,-250 191.5,-201 65.5,-201"/>
</a>
</g>
</g>
<!-- Node2&#45;&gt;Node1 -->
<g id="edge1_Node000001_Node000002" class="edge">
<title>Node2&#45;&gt;Node1</title>
<g id="a_edge1_Node000001_Node000002"><a xlink:title=" ">
<path fill="none" stroke="#63b8ff" d="M141.97,-191.61C146.57,-180.37 151.93,-167.29 157.34,-154.09"/>
<polygon fill="none" stroke="#63b8ff" points="138.69,-190.38 138.14,-200.96 145.17,-193.03 138.69,-190.38"/>
</a>
</g>
</g>
<!-- Node3 -->
<g id="Node000003" class="node">
<title>Node3</title>
<g id="a_Node000003"><a xlink:title=" ">
<polygon fill="white" stroke="none" points="287,-250 210,-250 210,-201 287,-201 287,-250"/>
<text text-anchor="start" x="215.5" y="-237.5" font-family="Helvetica,sans-Serif" font-size="10.00">InteropServices</text>
<text text-anchor="start" x="247" y="-222.5" font-family="Helvetica,sans-Serif" font-size="10.00"> </text>
<text text-anchor="start" x="247" y="-207.5" font-family="Helvetica,sans-Serif" font-size="10.00"> </text>
<polygon fill="#666666" stroke="#666666" points="210.5,-232.5 210.5,-232.5 287.5,-232.5 287.5,-232.5 210.5,-232.5"/>
<polygon fill="#666666" stroke="#666666" points="210.5,-217.5 210.5,-217.5 287.5,-217.5 287.5,-217.5 210.5,-217.5"/>
<polygon fill="none" stroke="#666666" points="210,-201 210,-250 287,-250 287,-201 210,-201"/>
</a>
</g>
</g>
<!-- Node3&#45;&gt;Node1 -->
<g id="edge2_Node000001_Node000003" class="edge">
<title>Node3&#45;&gt;Node1</title>
<g id="a_edge2_Node000001_Node000003"><a xlink:title=" ">
<path fill="none" stroke="#63b8ff" d="M238.86,-200.96C234.72,-190.85 229.6,-178.35 224.22,-165.22"/>
<polygon fill="none" stroke="#63b8ff" points="224.21,-165.2 218.24,-161.16 219.66,-154.09 225.64,-158.13 224.21,-165.2"/>
</a>
</g>
<text text-anchor="middle" x="253.5" y="-175" font-family="Helvetica,sans-Serif" font-size="10.00" fill="grey"> &#45;swigCPtr</text>
</g>
</g>
</svg>
