<?xml version="1.0" encoding="UTF-8" standalone="no"?>
<!DOCTYPE svg PUBLIC "-//W3C//DTD SVG 1.1//EN"
 "http://www.w3.org/Graphics/SVG/1.1/DTD/svg11.dtd">
<!-- Generated by graphviz version 6.0.1 (20220911.1526)
 -->
<!-- Title: Assets.StyledLines.Runtime.UIHelpers.DisableWhileNotConfigured.OnDestroy Pages: 1 -->
<svg width="1212pt" height="27pt"
 viewBox="0.00 0.00 1212.00 27.00" xmlns="http://www.w3.org/2000/svg" xmlns:xlink="http://www.w3.org/1999/xlink">
<g id="graph0" class="graph" transform="scale(1 1) rotate(0) translate(4 23)">
<title>Assets.StyledLines.Runtime.UIHelpers.DisableWhileNotConfigured.OnDestroy</title>
<!-- Node1 -->
<g id="Node000001" class="node">
<title>Node1</title>
<g id="a_Node000001"><a xlink:title=" ">
<polygon fill="#999999" stroke="#666666" points="356,-19 0,-19 0,0 356,0 356,-19"/>
<text text-anchor="middle" x="178" y="-7" font-family="Helvetica,sans-Serif" font-size="10.00">Assets.StyledLines.Runtime.UIHelpers.DisableWhileNotConfigured.OnDestroy</text>
</a>
</g>
</g>
<!-- Node2 -->
<g id="Node000002" class="node">
<title>Node2</title>
<g id="a_Node000002"><a xlink:href="$class_assets_1_1_styled_lines_1_1_runtime_1_1_u_i_helpers_1_1_disable_while_not_configured.html#aefe2786cc0dd4ecd77a74d86f6cb0802" xlink:title=" ">
<polygon fill="white" stroke="#666666" points="775,-19 392,-19 392,0 775,0 775,-19"/>
<text text-anchor="middle" x="583.5" y="-7" font-family="Helvetica,sans-Serif" font-size="10.00">Assets.StyledLines.Runtime.UIHelpers.DisableWhileNotConfigured.OnStateChanged</text>
</a>
</g>
</g>
<!-- Node1&#45;&gt;Node2 -->
<g id="edge1_Node000001_Node000002" class="edge">
<title>Node1&#45;&gt;Node2</title>
<g id="a_edge1_Node000001_Node000002"><a xlink:title=" ">
<path fill="none" stroke="#63b8ff" d="M356.27,-9.5C364.79,-9.5 373.37,-9.5 381.94,-9.5"/>
<polygon fill="#63b8ff" stroke="#63b8ff" points="382,-13 392,-9.5 382,-6 382,-13"/>
</a>
</g>
</g>
<!-- Node3 -->
<g id="Node000003" class="node">
<title>Node3</title>
<g id="a_Node000003"><a xlink:href="$class_assets_1_1_styled_lines_1_1_runtime_1_1_u_i_helpers_1_1_disable_while_not_configured.html#aafecead00cb59247992cd5cb4442a9bb" xlink:title=" ">
<polygon fill="white" stroke="#666666" points="1204,-19 811,-19 811,0 1204,0 1204,-19"/>
<text text-anchor="middle" x="1007.5" y="-7" font-family="Helvetica,sans-Serif" font-size="10.00">Assets.StyledLines.Runtime.UIHelpers.DisableWhileNotConfigured.SetUIObjectsActive</text>
</a>
</g>
</g>
<!-- Node2&#45;&gt;Node3 -->
<g id="edge2_Node000002_Node000003" class="edge">
<title>Node2&#45;&gt;Node3</title>
<g id="a_edge2_Node000002_Node000003"><a xlink:title=" ">
<path fill="none" stroke="#63b8ff" d="M775.13,-9.5C783.68,-9.5 792.29,-9.5 800.88,-9.5"/>
<polygon fill="#63b8ff" stroke="#63b8ff" points="800.95,-13 810.95,-9.5 800.95,-6 800.95,-13"/>
</a>
</g>
</g>
</g>
</svg>
