<?xml version="1.0" encoding="UTF-8" standalone="no"?>
<!DOCTYPE svg PUBLIC "-//W3C//DTD SVG 1.1//EN"
 "http://www.w3.org/Graphics/SVG/1.1/DTD/svg11.dtd">
<!-- Generated by graphviz version 6.0.1 (20220911.1526)
 -->
<!-- Title: DialogManager.GetCombinedBounds Pages: 1 -->
<svg width="565pt" height="27pt"
 viewBox="0.00 0.00 565.00 27.00" xmlns="http://www.w3.org/2000/svg" xmlns:xlink="http://www.w3.org/1999/xlink">
<g id="graph0" class="graph" transform="scale(1 1) rotate(0) translate(4 23)">
<title>DialogManager.GetCombinedBounds</title>
<!-- Node1 -->
<g id="Node000001" class="node">
<title>Node1</title>
<g id="a_Node000001"><a xlink:title="Calculates the combined bounds of all renderers in a character&#39;s GameObject.">
<polygon fill="#999999" stroke="#666666" points="557,-19 381,-19 381,0 557,0 557,-19"/>
<text text-anchor="middle" x="469" y="-7" font-family="Helvetica,sans-Serif" font-size="10.00">DialogManager.GetCombinedBounds</text>
</a>
</g>
</g>
<!-- Node2 -->
<g id="Node000002" class="node">
<title>Node2</title>
<g id="a_Node000002"><a xlink:href="class_dialog_manager.html#a890d62ace8df908b1438754eee811b14" target="_top" xlink:title="Ensures that each character has a TextMeshPro component for displaying dialog, creating one if necess...">
<polygon fill="white" stroke="#666666" points="345,-19 141,-19 141,0 345,0 345,-19"/>
<text text-anchor="middle" x="243" y="-7" font-family="Helvetica,sans-Serif" font-size="10.00">DialogManager.CreateTextMeshesIfMissing</text>
</a>
</g>
</g>
<!-- Node1&#45;&gt;Node2 -->
<g id="edge1_Node000001_Node000002" class="edge">
<title>Node1&#45;&gt;Node2</title>
<g id="a_edge1_Node000001_Node000002"><a xlink:title=" ">
<path fill="none" stroke="#63b8ff" d="M370.55,-9.5C362.13,-9.5 353.6,-9.5 345.15,-9.5"/>
<polygon fill="#63b8ff" stroke="#63b8ff" points="370.75,-13 380.75,-9.5 370.75,-6 370.75,-13"/>
</a>
</g>
</g>
<!-- Node3 -->
<g id="Node000003" class="node">
<title>Node3</title>
<g id="a_Node000003"><a xlink:href="class_dialog_manager.html#a03c8a9834097fe6f3c636076a97563c8" target="_top" xlink:title="Called when the script starts; initializes the model controller, parses the dialog,...">
<polygon fill="white" stroke="#666666" points="105,-19 0,-19 0,0 105,0 105,-19"/>
<text text-anchor="middle" x="52.5" y="-7" font-family="Helvetica,sans-Serif" font-size="10.00">DialogManager.Start</text>
</a>
</g>
</g>
<!-- Node2&#45;&gt;Node3 -->
<g id="edge2_Node000002_Node000003" class="edge">
<title>Node2&#45;&gt;Node3</title>
<g id="a_edge2_Node000002_Node000003"><a xlink:title=" ">
<path fill="none" stroke="#63b8ff" d="M130.59,-9.5C121.91,-9.5 113.44,-9.5 105.47,-9.5"/>
<polygon fill="#63b8ff" stroke="#63b8ff" points="130.85,-13 140.85,-9.5 130.85,-6 130.85,-13"/>
</a>
</g>
</g>
</g>
</svg>
