<?xml version="1.0" encoding="UTF-8" standalone="no"?>
<!DOCTYPE svg PUBLIC "-//W3C//DTD SVG 1.1//EN"
 "http://www.w3.org/Graphics/SVG/1.1/DTD/svg11.dtd">
<!-- Generated by graphviz version 6.0.1 (20220911.1526)
 -->
<!-- Title: LlamaLibrary.libllama_libPINVOKE.LlamaControlVectorLoadInfos_getitemcopy Pages: 1 -->
<svg width="931pt" height="27pt"
 viewBox="0.00 0.00 931.00 27.00" xmlns="http://www.w3.org/2000/svg" xmlns:xlink="http://www.w3.org/1999/xlink">
<g id="graph0" class="graph" transform="scale(1 1) rotate(0) translate(4 23)">
<title>LlamaLibrary.libllama_libPINVOKE.LlamaControlVectorLoadInfos_getitemcopy</title>
<!-- Node1 -->
<g id="Node000001" class="node">
<title>Node1</title>
<g id="a_Node000001"><a xlink:title=" ">
<polygon fill="#999999" stroke="#666666" points="923,-19 568,-19 568,0 923,0 923,-19"/>
<text text-anchor="middle" x="745.5" y="-7" font-family="Helvetica,sans-Serif" font-size="10.00">LlamaLibrary.libllama_libPINVOKE.LlamaControlVectorLoadInfos_getitemcopy</text>
</a>
</g>
</g>
<!-- Node2 -->
<g id="Node000002" class="node">
<title>Node2</title>
<g id="a_Node000002"><a xlink:href="$class_llama_library_1_1_llama_control_vector_load_infos.html#ad614ef85a8cb89bb39fdde5ed8ccf50d" xlink:title=" ">
<polygon fill="white" stroke="#666666" points="532,-19 274,-19 274,0 532,0 532,-19"/>
<text text-anchor="middle" x="403" y="-7" font-family="Helvetica,sans-Serif" font-size="10.00">LlamaLibrary.LlamaControlVectorLoadInfos.getitemcopy</text>
</a>
</g>
</g>
<!-- Node1&#45;&gt;Node2 -->
<g id="edge1_Node000001_Node000002" class="edge">
<title>Node1&#45;&gt;Node2</title>
<g id="a_edge1_Node000001_Node000002"><a xlink:title=" ">
<path fill="none" stroke="#63b8ff" d="M557.67,-9.5C549.09,-9.5 540.56,-9.5 532.18,-9.5"/>
<polygon fill="#63b8ff" stroke="#63b8ff" points="557.77,-13 567.77,-9.5 557.77,-6 557.77,-13"/>
</a>
</g>
</g>
<!-- Node3 -->
<g id="Node000003" class="node">
<title>Node3</title>
<g id="a_Node000003"><a xlink:href="$class_llama_library_1_1_llama_control_vector_load_infos.html#a868cb92aaf70617f59e8fca701ce943a" xlink:title=" ">
<polygon fill="white" stroke="#666666" points="238,-19 0,-19 0,0 238,0 238,-19"/>
<text text-anchor="middle" x="119" y="-7" font-family="Helvetica,sans-Serif" font-size="10.00">LlamaLibrary.LlamaControlVectorLoadInfos.CopyTo</text>
</a>
</g>
</g>
<!-- Node2&#45;&gt;Node3 -->
<g id="edge2_Node000002_Node000003" class="edge">
<title>Node2&#45;&gt;Node3</title>
<g id="a_edge2_Node000002_Node000003"><a xlink:title=" ">
<path fill="none" stroke="#63b8ff" d="M263.55,-9.5C255.14,-9.5 246.72,-9.5 238.41,-9.5"/>
<polygon fill="#63b8ff" stroke="#63b8ff" points="263.79,-13 273.79,-9.5 263.79,-6 263.79,-13"/>
</a>
</g>
</g>
</g>
</svg>
