<?xml version="1.0" encoding="UTF-8" standalone="no"?>
<!DOCTYPE svg PUBLIC "-//W3C//DTD SVG 1.1//EN"
 "http://www.w3.org/Graphics/SVG/1.1/DTD/svg11.dtd">
<!-- Generated by graphviz version 6.0.1 (20220911.1526)
 -->
<!-- Title: LlamaLibrary.libllama_libPINVOKE.delete_gpt_params Pages: 1 -->
<svg width="682pt" height="64pt"
 viewBox="0.00 0.00 682.00 64.00" xmlns="http://www.w3.org/2000/svg" xmlns:xlink="http://www.w3.org/1999/xlink">
<g id="graph0" class="graph" transform="scale(1 1) rotate(0) translate(4 60)">
<title>LlamaLibrary.libllama_libPINVOKE.delete_gpt_params</title>
<!-- Node1 -->
<g id="Node000001" class="node">
<title>Node1</title>
<g id="a_Node000001"><a xlink:title=" ">
<polygon fill="#999999" stroke="#666666" points="674,-37 422,-37 422,-18 674,-18 674,-37"/>
<text text-anchor="middle" x="548" y="-25" font-family="Helvetica,sans-Serif" font-size="10.00">LlamaLibrary.libllama_libPINVOKE.delete_gpt_params</text>
</a>
</g>
</g>
<!-- Node2 -->
<g id="Node000002" class="node">
<title>Node2</title>
<g id="a_Node000002"><a xlink:href="class_llama_library_1_1gpt__params.html#a7ea53f5ea026af47d5e5476194f1566d" target="_top" xlink:title=" ">
<polygon fill="white" stroke="#666666" points="386,-37 222,-37 222,-18 386,-18 386,-37"/>
<text text-anchor="middle" x="304" y="-25" font-family="Helvetica,sans-Serif" font-size="10.00">LlamaLibrary.gpt_params.Dispose</text>
</a>
</g>
</g>
<!-- Node1&#45;&gt;Node2 -->
<g id="edge1_Node000001_Node000002" class="edge">
<title>Node1&#45;&gt;Node2</title>
<g id="a_edge1_Node000001_Node000002"><a xlink:title=" ">
<path fill="none" stroke="#63b8ff" d="M411.55,-27.5C402.9,-27.5 394.35,-27.5 386.07,-27.5"/>
<polygon fill="#63b8ff" stroke="#63b8ff" points="411.75,-31 421.75,-27.5 411.75,-24 411.75,-31"/>
</a>
</g>
</g>
<!-- Node3 -->
<g id="Node000003" class="node">
<title>Node3</title>
<g id="a_Node000003"><a xlink:href="class_run_model_async.html#a7a29035d3f1d08dfea5cd1f334d27433" target="_top" xlink:title="Method called when the MonoBehaviour is destroyed. Disposes of model resources and cleans up the envi...">
<polygon fill="white" stroke="#666666" points="161.5,-56 24.5,-56 24.5,-37 161.5,-37 161.5,-56"/>
<text text-anchor="middle" x="93" y="-44" font-family="Helvetica,sans-Serif" font-size="10.00">RunModelAsync.OnDestroy</text>
</a>
</g>
</g>
<!-- Node2&#45;&gt;Node3 -->
<g id="edge2_Node000002_Node000003" class="edge">
<title>Node2&#45;&gt;Node3</title>
<g id="a_edge2_Node000002_Node000003"><a xlink:title=" ">
<path fill="none" stroke="#63b8ff" d="M211.51,-35.82C194.71,-37.34 177.46,-38.91 161.52,-40.36"/>
<polygon fill="#63b8ff" stroke="#63b8ff" points="212.25,-39.26 221.9,-34.87 211.62,-32.29 212.25,-39.26"/>
</a>
</g>
</g>
<!-- Node4 -->
<g id="Node000004" class="node">
<title>Node4</title>
<g id="a_Node000004"><a xlink:href="class_llama_library_1_1gpt__params.html#a86882c54e6b00ba1f6472f868b7ab3a9" target="_top" xlink:title=" ">
<polygon fill="white" stroke="#666666" points="186,-19 0,-19 0,0 186,0 186,-19"/>
<text text-anchor="middle" x="93" y="-7" font-family="Helvetica,sans-Serif" font-size="10.00">LlamaLibrary.gpt_params.~gpt_params</text>
</a>
</g>
</g>
<!-- Node2&#45;&gt;Node4 -->
<g id="edge3_Node000002_Node000004" class="edge">
<title>Node2&#45;&gt;Node4</title>
<g id="a_edge3_Node000002_Node000004"><a xlink:title=" ">
<path fill="none" stroke="#63b8ff" d="M211.66,-19.63C203.21,-18.91 194.64,-18.17 186.18,-17.44"/>
<polygon fill="#63b8ff" stroke="#63b8ff" points="211.63,-23.14 221.9,-20.51 212.23,-16.17 211.63,-23.14"/>
</a>
</g>
</g>
</g>
</svg>
