<?xml version="1.0" encoding="UTF-8" standalone="no"?>
<!DOCTYPE svg PUBLIC "-//W3C//DTD SVG 1.1//EN"
 "http://www.w3.org/Graphics/SVG/1.1/DTD/svg11.dtd">
<!-- Generated by graphviz version 6.0.1 (20220911.1526)
 -->
<!-- Title: Assets.StyledLines.Runtime.DialogUtils.DialogTextAndCharacterStylesResetter Pages: 1 -->
<svg width="364pt" height="202pt"
 viewBox="0.00 0.00 364.00 202.00" xmlns="http://www.w3.org/2000/svg" xmlns:xlink="http://www.w3.org/1999/xlink">

<svg id="main" version="1.1" xmlns="http://www.w3.org/2000/svg" xmlns:xlink="http://www.w3.org/1999/xlink" xml:space="preserve" onload="init(evt)">
<style type="text/css"><![CDATA[
.node, .edge {opacity: 0.7;}
.node.selected, .edge.selected {opacity: 1;}
.edge:hover path { stroke: red; }
.edge:hover polygon { stroke: red; fill: red; }
]]></style>
<script type="application/ecmascript" xlink:href="svg.min.js"/>
<svg id="graph" class="graph">
<g id="graph0" class="graph" transform="scale(1 1) rotate(0) translate(4 198)">
<title>Assets.StyledLines.Runtime.DialogUtils.DialogTextAndCharacterStylesResetter</title>
<!-- Node1 -->
<g id="Node000001" class="node">
<title>Node1</title>
<g id="a_Node000001"><a xlink:title=" ">
<polygon fill="#999999" stroke="none" points="356,-109 0,-109 0,0 356,0 356,-109"/>
<text text-anchor="start" x="5" y="-96.5" font-family="Helvetica,sans-Serif" font-size="10.00">Assets.StyledLines.Runtime.DialogUtils.DialogTextAndCharacterStylesResetter</text>
<text text-anchor="start" x="27" y="-81.5" font-family="Helvetica,sans-Serif" font-size="10.00">+</text>
<text text-anchor="start" x="61" y="-81.5" font-family="Helvetica,sans-Serif" font-size="10.00">DialogManager _dialogManager</text>
<text text-anchor="start" x="28.5" y="-66.5" font-family="Helvetica,sans-Serif" font-size="10.00">&#45;</text>
<text text-anchor="start" x="61" y="-66.5" font-family="Helvetica,sans-Serif" font-size="10.00">List&lt; DialogManager.Character &gt; _initialCharacterStates</text>
<text text-anchor="start" x="28.5" y="-51.5" font-family="Helvetica,sans-Serif" font-size="10.00">&#45;</text>
<text text-anchor="start" x="61" y="-51.5" font-family="Helvetica,sans-Serif" font-size="10.00">string _initialDialogText</text>
<text text-anchor="start" x="27" y="-36.5" font-family="Helvetica,sans-Serif" font-size="10.00">+</text>
<text text-anchor="start" x="61" y="-36.5" font-family="Helvetica,sans-Serif" font-size="10.00">void ResetStylesAndDialog()</text>
<text text-anchor="start" x="28.5" y="-21.5" font-family="Helvetica,sans-Serif" font-size="10.00">&#45;</text>
<text text-anchor="start" x="61" y="-21.5" font-family="Helvetica,sans-Serif" font-size="10.00">void SaveInitialState()</text>
<text text-anchor="start" x="28.5" y="-6.5" font-family="Helvetica,sans-Serif" font-size="10.00">&#45;</text>
<text text-anchor="start" x="61" y="-6.5" font-family="Helvetica,sans-Serif" font-size="10.00">void Start()</text>
<polygon fill="#666666" stroke="#666666" points="0,-91.5 0,-91.5 356,-91.5 356,-91.5 0,-91.5"/>
<polygon fill="#666666" stroke="#666666" points="0,-46.5 0,-46.5 59,-46.5 59,-46.5 0,-46.5"/>
<polygon fill="#666666" stroke="#666666" points="59,-46.5 59,-46.5 356,-46.5 356,-46.5 59,-46.5"/>
<polygon fill="none" stroke="#666666" points="0,0 0,-109 356,-109 356,0 0,0"/>
</a>
</g>
</g>
<!-- Node2 -->
<g id="Node000002" class="node">
<title>Node2</title>
<g id="a_Node000002"><a xlink:title=" ">
<polygon fill="white" stroke="none" points="216.5,-194 139.5,-194 139.5,-145 216.5,-145 216.5,-194"/>
<text text-anchor="start" x="145" y="-181.5" font-family="Helvetica,sans-Serif" font-size="10.00">MonoBehaviour</text>
<text text-anchor="start" x="176.5" y="-166.5" font-family="Helvetica,sans-Serif" font-size="10.00"> </text>
<text text-anchor="start" x="176.5" y="-151.5" font-family="Helvetica,sans-Serif" font-size="10.00"> </text>
<polygon fill="#666666" stroke="#666666" points="140,-176.5 140,-176.5 217,-176.5 217,-176.5 140,-176.5"/>
<polygon fill="#666666" stroke="#666666" points="140,-161.5 140,-161.5 217,-161.5 217,-161.5 140,-161.5"/>
<polygon fill="none" stroke="#666666" points="139.5,-145 139.5,-194 216.5,-194 216.5,-145 139.5,-145"/>
</a>
</g>
</g>
<!-- Node2&#45;&gt;Node1 -->
<g id="edge1_Node000001_Node000002" class="edge">
<title>Node2&#45;&gt;Node1</title>
<g id="a_edge1_Node000001_Node000002"><a xlink:title=" ">
<path fill="none" stroke="#63b8ff" d="M178,-134.79C178,-126.79 178,-118.06 178,-109.41"/>
<polygon fill="none" stroke="#63b8ff" points="174.5,-134.81 178,-144.81 181.5,-134.81 174.5,-134.81"/>
</a>
</g>
</g>
</g>
</svg>
</svg>

<style type='text/css'>
<![CDATA[
[data-mouse-over-selected='false'] { opacity: 0.7; }
[data-mouse-over-selected='true']  { opacity: 1.0; }
]]>
</style>
<script type="application/ecmascript"><![CDATA[
document.addEventListener('DOMContentLoaded', (event) => {
  highlightEdges();
  highlightAdjacentNodes();
});
]]></script>
</svg>
