<?xml version="1.0" encoding="UTF-8" standalone="no"?>
<!DOCTYPE svg PUBLIC "-//W3C//DTD SVG 1.1//EN"
 "http://www.w3.org/Graphics/SVG/1.1/DTD/svg11.dtd">
<!-- Generated by graphviz version 6.0.1 (20220911.1526)
 -->
<!-- Title: LlamaLibrary.StringsAndFloats.~StringsAndFloats Pages: 1 -->
<svg width="778pt" height="27pt"
 viewBox="0.00 0.00 778.00 27.00" xmlns="http://www.w3.org/2000/svg" xmlns:xlink="http://www.w3.org/1999/xlink">
<g id="graph0" class="graph" transform="scale(1 1) rotate(0) translate(4 23)">
<title>LlamaLibrary.StringsAndFloats.~StringsAndFloats</title>
<!-- Node1 -->
<g id="Node000001" class="node">
<title>Node1</title>
<g id="a_Node000001"><a xlink:title=" ">
<polygon fill="#999999" stroke="#666666" points="234,-19 0,-19 0,0 234,0 234,-19"/>
<text text-anchor="middle" x="117" y="-7" font-family="Helvetica,sans-Serif" font-size="10.00">LlamaLibrary.StringsAndFloats.~StringsAndFloats</text>
</a>
</g>
</g>
<!-- Node2 -->
<g id="Node000002" class="node">
<title>Node2</title>
<g id="a_Node000002"><a xlink:href="$class_llama_library_1_1_strings_and_floats.html#ab849d19c856bd3fb9dc9eb7e8cbac7d9" xlink:title=" ">
<polygon fill="white" stroke="#666666" points="458,-19 270,-19 270,0 458,0 458,-19"/>
<text text-anchor="middle" x="364" y="-7" font-family="Helvetica,sans-Serif" font-size="10.00">LlamaLibrary.StringsAndFloats.Dispose</text>
</a>
</g>
</g>
<!-- Node1&#45;&gt;Node2 -->
<g id="edge1_Node000001_Node000002" class="edge">
<title>Node1&#45;&gt;Node2</title>
<g id="a_edge1_Node000001_Node000002"><a xlink:title=" ">
<path fill="none" stroke="#63b8ff" d="M234.04,-9.5C242.57,-9.5 251.14,-9.5 259.59,-9.5"/>
<polygon fill="#63b8ff" stroke="#63b8ff" points="259.82,-13 269.82,-9.5 259.82,-6 259.82,-13"/>
</a>
</g>
</g>
<!-- Node3 -->
<g id="Node000003" class="node">
<title>Node3</title>
<g id="a_Node000003"><a xlink:href="$class_llama_library_1_1libllama__lib_p_i_n_v_o_k_e.html#a06c3c041ba9ec80e3f959e6ae77c89ae" xlink:title=" ">
<polygon fill="white" stroke="#666666" points="770,-19 494,-19 494,0 770,0 770,-19"/>
<text text-anchor="middle" x="632" y="-7" font-family="Helvetica,sans-Serif" font-size="10.00">LlamaLibrary.libllama_libPINVOKE.delete_StringsAndFloats</text>
</a>
</g>
</g>
<!-- Node2&#45;&gt;Node3 -->
<g id="edge2_Node000002_Node000003" class="edge">
<title>Node2&#45;&gt;Node3</title>
<g id="a_edge2_Node000002_Node000003"><a xlink:title=" ">
<path fill="none" stroke="#63b8ff" d="M458.03,-9.5C466.33,-9.5 474.85,-9.5 483.45,-9.5"/>
<polygon fill="#63b8ff" stroke="#63b8ff" points="483.57,-13 493.57,-9.5 483.57,-6 483.57,-13"/>
</a>
</g>
</g>
</g>
</svg>
