<?xml version="1.0" encoding="UTF-8" standalone="no"?>
<!DOCTYPE svg PUBLIC "-//W3C//DTD SVG 1.1//EN"
 "http://www.w3.org/Graphics/SVG/1.1/DTD/svg11.dtd">
<!-- Generated by graphviz version 6.0.1 (20220911.1526)
 -->
<!-- Title: LlamaLibrary.StringsAndFloats.StringsAndFloatsEnumerator Pages: 1 -->
<!--zoomable 262 -->

<svg id="main" version="1.1" xmlns="http://www.w3.org/2000/svg" xmlns:xlink="http://www.w3.org/1999/xlink" xml:space="preserve" onload="init(evt)">
<style type="text/css"><![CDATA[
.node, .edge {opacity: 0.7;}
.node.selected, .edge.selected {opacity: 1;}
.edge:hover path { stroke: red; }
.edge:hover polygon { stroke: red; fill: red; }
]]></style>

<defs>
  <circle id="rim" cx="0" cy="0" r="7"/>
  <circle id="rim2" cx="0" cy="0" r="3.5"/>
  <g id="zoomPlus">
    <use xlink:href="#rim" fill="#404040"><set attributeName="fill" to="#808080" begin="zoomplus.mouseover" end="zoomplus.mouseout"/></use>
    <path d="M-4,0h8M0,-4v8" fill="none" stroke="white" stroke-width="1.5" pointer-events="none"/>
  </g>
  <g id="zoomMin">
    <use xlink:href="#rim" fill="#404040"><set attributeName="fill" to="#808080" begin="zoomminus.mouseover" end="zoomminus.mouseout"/></use>
    <path d="M-4,0h8" fill="none" stroke="white" stroke-width="1.5" pointer-events="none"/>
  </g>
  <g id="arrowUp" transform="translate(30 24)">
    <use xlink:href="#rim"/>
    <path pointer-events="none" fill="none" stroke="white" stroke-width="1.5" d="M0,-3.0v7 M-2.5,-0.5L0,-3.0L2.5,-0.5"/>
  </g>
  <g id="arrowRight" transform="rotate(90) translate(36 -43)">
    <use xlink:href="#rim"/>
    <path pointer-events="none" fill="none" stroke="white" stroke-width="1.5" d="M0,-3.0v7 M-2.5,-0.5L0,-3.0L2.5,-0.5"/>
  </g>
  <g id="arrowDown" transform="rotate(180) translate(-30 -48)">
    <use xlink:href="#rim"/>
    <path pointer-events="none" fill="none" stroke="white" stroke-width="1.5" d="M0,-3.0v7 M-2.5,-0.5L0,-3.0L2.5,-0.5"/>
  </g>
  <g id="arrowLeft" transform="rotate(270) translate(-36 17)">
    <use xlink:href="#rim"/>
    <path pointer-events="none" fill="none" stroke="white" stroke-width="1.5" d="M0,-3.0v7 M-2.5,-0.5L0,-3.0L2.5,-0.5"/>
  </g>
  <g id="resetDef">
    <use xlink:href="#rim2" fill="#404040"><set attributeName="fill" to="#808080" begin="reset.mouseover" end="reset.mouseout"/></use>
  </g>
</defs>
<script type="application/ecmascript">
var viewWidth = 514;
var viewHeight = 262;
var sectionId = 'dynsection-0';
</script>
<script type="application/ecmascript" xlink:href="svg.min.js"/>
<svg id="graph" class="graph">
<g id="viewport">
<title>LlamaLibrary.StringsAndFloats.StringsAndFloatsEnumerator</title>
<!-- Node1 -->
<g id="Node000001" class="node">
<title>Node1</title>
<g id="a_Node000001"><a xlink:title=" ">
<polygon fill="#999999" stroke="none" points="358,-169 86,-169 86,0 358,0 358,-169"/>
<text text-anchor="start" x="91" y="-156.5" font-family="Helvetica,sans-Serif" font-size="10.00">LlamaLibrary.StringsAndFloats.StringsAndFloatsEnumerator</text>
<text text-anchor="start" x="90.5" y="-141.5" font-family="Helvetica,sans-Serif" font-size="10.00">+</text>
<text text-anchor="start" x="102" y="-141.5" font-family="Helvetica,sans-Serif" font-size="10.00">StringAndFloat Current</text>
<text text-anchor="start" x="90.5" y="-126.5" font-family="Helvetica,sans-Serif" font-size="10.00">+</text>
<text text-anchor="start" x="102" y="-126.5" font-family="Helvetica,sans-Serif" font-size="10.00">object global::System.Collections.IEnumerator. Current</text>
<text text-anchor="start" x="92" y="-111.5" font-family="Helvetica,sans-Serif" font-size="10.00">&#45;</text>
<text text-anchor="start" x="102" y="-111.5" font-family="Helvetica,sans-Serif" font-size="10.00">StringsAndFloats collectionRef</text>
<text text-anchor="start" x="92" y="-96.5" font-family="Helvetica,sans-Serif" font-size="10.00">&#45;</text>
<text text-anchor="start" x="102" y="-96.5" font-family="Helvetica,sans-Serif" font-size="10.00">int currentIndex</text>
<text text-anchor="start" x="92" y="-81.5" font-family="Helvetica,sans-Serif" font-size="10.00">&#45;</text>
<text text-anchor="start" x="102" y="-81.5" font-family="Helvetica,sans-Serif" font-size="10.00">object currentObject</text>
<text text-anchor="start" x="92" y="-66.5" font-family="Helvetica,sans-Serif" font-size="10.00">&#45;</text>
<text text-anchor="start" x="102" y="-66.5" font-family="Helvetica,sans-Serif" font-size="10.00">int currentSize</text>
<text text-anchor="start" x="90.5" y="-51.5" font-family="Helvetica,sans-Serif" font-size="10.00">+</text>
<text text-anchor="start" x="102" y="-51.5" font-family="Helvetica,sans-Serif" font-size="10.00">void Dispose()</text>
<text text-anchor="start" x="90.5" y="-36.5" font-family="Helvetica,sans-Serif" font-size="10.00">+</text>
<text text-anchor="start" x="102" y="-36.5" font-family="Helvetica,sans-Serif" font-size="10.00">bool MoveNext()</text>
<text text-anchor="start" x="90.5" y="-21.5" font-family="Helvetica,sans-Serif" font-size="10.00">+</text>
<text text-anchor="start" x="102" y="-21.5" font-family="Helvetica,sans-Serif" font-size="10.00">void Reset()</text>
<text text-anchor="start" x="90.5" y="-6.5" font-family="Helvetica,sans-Serif" font-size="10.00">+</text>
<text text-anchor="start" x="102" y="-6.5" font-family="Helvetica,sans-Serif" font-size="10.00">StringsAndFloatsEnumerator(StringsAndFloats collection)</text>
<polygon fill="#666666" stroke="#666666" points="86,-151.5 86,-151.5 358,-151.5 358,-151.5 86,-151.5"/>
<polygon fill="#666666" stroke="#666666" points="86,-61.5 86,-61.5 100,-61.5 100,-61.5 86,-61.5"/>
<polygon fill="#666666" stroke="#666666" points="100,-61.5 100,-61.5 358,-61.5 358,-61.5 100,-61.5"/>
<polygon fill="none" stroke="#666666" points="86,0 86,-169 358,-169 358,0 86,0"/>
</a>
</g>
</g>
<!-- Node2 -->
<g id="Node000002" class="node">
<title>Node2</title>
<g id="a_Node000002"><a xlink:title=" ">
<polygon fill="white" stroke="none" points="182,-254 0,-254 0,-205 182,-205 182,-254"/>
<text text-anchor="start" x="5" y="-241.5" font-family="Helvetica,sans-Serif" font-size="10.00">global::SystemCollections::IEnumerator</text>
<text text-anchor="start" x="89" y="-226.5" font-family="Helvetica,sans-Serif" font-size="10.00"> </text>
<text text-anchor="start" x="89" y="-211.5" font-family="Helvetica,sans-Serif" font-size="10.00"> </text>
<polygon fill="#666666" stroke="#666666" points="0,-236.5 0,-236.5 182,-236.5 182,-236.5 0,-236.5"/>
<polygon fill="#666666" stroke="#666666" points="0,-221.5 0,-221.5 182,-221.5 182,-221.5 0,-221.5"/>
<polygon fill="none" stroke="#666666" points="0,-205 0,-254 182,-254 182,-205 0,-205"/>
</a>
</g>
</g>
<!-- Node2&#45;&gt;Node1 -->
<g id="edge1_Node000001_Node000002" class="edge">
<title>Node2&#45;&gt;Node1</title>
<g id="a_edge1_Node000001_Node000002"><a xlink:title=" ">
<path fill="none" stroke="#63b8ff" d="M119.51,-197.38C127.35,-188.82 136.23,-179.12 145.42,-169.1"/>
<polygon fill="none" stroke="#63b8ff" points="116.81,-195.15 112.63,-204.89 121.97,-199.88 116.81,-195.15"/>
</a>
</g>
</g>
<!-- Node3 -->
<g id="Node000003" class="node">
<title>Node3</title>
<g id="a_Node000003"><a xlink:title=" ">
<polygon fill="white" stroke="none" points="505.5,-254 200.5,-254 200.5,-205 505.5,-205 505.5,-254"/>
<text text-anchor="start" x="206" y="-241.5" font-family="Helvetica,sans-Serif" font-size="10.00">global::SystemCollections::Generic::IEnumerator&lt; StringAndFloat &gt;</text>
<text text-anchor="start" x="351.5" y="-226.5" font-family="Helvetica,sans-Serif" font-size="10.00"> </text>
<text text-anchor="start" x="351.5" y="-211.5" font-family="Helvetica,sans-Serif" font-size="10.00"> </text>
<polygon fill="#666666" stroke="#666666" points="201,-236.5 201,-236.5 506,-236.5 506,-236.5 201,-236.5"/>
<polygon fill="#666666" stroke="#666666" points="201,-221.5 201,-221.5 506,-221.5 506,-221.5 201,-221.5"/>
<polygon fill="none" stroke="#666666" points="200.5,-205 200.5,-254 505.5,-254 505.5,-205 200.5,-205"/>
</a>
</g>
</g>
<!-- Node3&#45;&gt;Node1 -->
<g id="edge2_Node000001_Node000003" class="edge">
<title>Node3&#45;&gt;Node1</title>
<g id="a_edge2_Node000001_Node000003"><a xlink:title=" ">
<path fill="none" stroke="#63b8ff" d="M324.49,-197.38C316.65,-188.82 307.77,-179.12 298.58,-169.1"/>
<polygon fill="none" stroke="#63b8ff" points="322.03,-199.88 331.37,-204.89 327.19,-195.15 322.03,-199.88"/>
</a>
</g>
</g>
</g>
</svg>

<g id="navigator" transform="translate(0 0)" fill="#404254">
  <rect fill="#f2f5e9" fill-opacity="0.5" stroke="#606060" stroke-width=".5" x="0" y="0" width="60" height="60"/>
  <use id="zoomplus" xlink:href="#zoomPlus" x="17" y="9" onmousedown="handleZoom(evt,'in')"/>
  <use id="zoomminus" xlink:href="#zoomMin" x="42" y="9" onmousedown="handleZoom(evt,'out')"/>
  <use id="reset" xlink:href="#resetDef" x="30" y="36" onmousedown="handleReset()"/>
   <use id="arrowup" xlink:href="#arrowUp" x="0" y="0" onmousedown="handlePan(0,-1)"/>
  <use id="arrowright" xlink:href="#arrowRight" x="0" y="0" onmousedown="handlePan(1,0)"/>
  <use id="arrowdown" xlink:href="#arrowDown" x="0" y="0" onmousedown="handlePan(0,1)"/>
  <use id="arrowleft" xlink:href="#arrowLeft" x="0" y="0" onmousedown="handlePan(-1,0)"/>
</g>
<svg viewBox="0 0 15 15" width="100%" height="30px" preserveAspectRatio="xMaxYMin meet">
 <g id="arrow_out" transform="scale(0.3 0.3)">
  <a xlink:href="class_llama_library_1_1_strings_and_floats_1_1_strings_and_floats_enumerator__inherit__graph_org.svg" target="_base">
   <rect id="button" ry="5" rx="5" y="6" x="6" height="38" width="38"
        fill="#f2f5e9" fill-opacity="0.5" stroke="#606060" stroke-width="1.0"/>
   <path id="arrow"
     d="M 11.500037,31.436501 C 11.940474,20.09759 22.043105,11.32322 32.158766,21.979434 L 37.068811,17.246167 C 37.068811,17.246167 37.088388,32 37.088388,32 L 22.160133,31.978069 C 22.160133,31.978069 26.997745,27.140456 26.997745,27.140456 C 18.528582,18.264221 13.291696,25.230495 11.500037,31.436501 z"
     style="fill:#404040;"/>
  </a>
 </g>
</svg>

<style type='text/css'>
<![CDATA[
[data-mouse-over-selected='false'] { opacity: 0.7; }
[data-mouse-over-selected='true']  { opacity: 1.0; }
]]>
</style>
<script type="application/ecmascript"><![CDATA[
document.addEventListener('DOMContentLoaded', (event) => {
  highlightEdges();
  highlightAdjacentNodes();
});
]]></script>
</svg>
