<?xml version="1.0" encoding="UTF-8" standalone="no"?>
<!DOCTYPE svg PUBLIC "-//W3C//DTD SVG 1.1//EN"
 "http://www.w3.org/Graphics/SVG/1.1/DTD/svg11.dtd">
<!-- Generated by graphviz version 6.0.1 (20220911.1526)
 -->
<!-- Title: CharacterStyleMapper.Start Pages: 1 -->
<svg width="622pt" height="103pt"
 viewBox="0.00 0.00 622.00 103.00" xmlns="http://www.w3.org/2000/svg" xmlns:xlink="http://www.w3.org/1999/xlink">
<g id="graph0" class="graph" transform="scale(1 1) rotate(0) translate(4 99)">
<title>CharacterStyleMapper.Start</title>
<!-- Node1 -->
<g id="Node000001" class="node">
<title>Node1</title>
<g id="a_Node000001"><a xlink:title=" ">
<polygon fill="#999999" stroke="#666666" points="137,-57 0,-57 0,-38 137,-38 137,-57"/>
<text text-anchor="middle" x="68.5" y="-45" font-family="Helvetica,sans-Serif" font-size="10.00">CharacterStyleMapper.Start</text>
</a>
</g>
</g>
<!-- Node2 -->
<g id="Node000002" class="node">
<title>Node2</title>
<g id="a_Node000002"><a xlink:href="class_character_style_mapper.html#afb15d22f0b368b59f006d762b891c7dc" target="_top" xlink:title=" ">
<polygon fill="white" stroke="#666666" points="382,-95 173,-95 173,-76 382,-76 382,-95"/>
<text text-anchor="middle" x="277.5" y="-83" font-family="Helvetica,sans-Serif" font-size="10.00">CharacterStyleMapper.OnCharacterSelected</text>
</a>
</g>
</g>
<!-- Node1&#45;&gt;Node2 -->
<g id="edge1_Node000001_Node000002" class="edge">
<title>Node1&#45;&gt;Node2</title>
<g id="a_edge1_Node000001_Node000002"><a xlink:title=" ">
<path fill="none" stroke="#63b8ff" d="M121.47,-57.04C149.77,-62.23 184.96,-68.7 214.67,-74.15"/>
<polygon fill="#63b8ff" stroke="#63b8ff" points="214.04,-77.59 224.51,-75.96 215.31,-70.71 214.04,-77.59"/>
</a>
</g>
</g>
<!-- Node3 -->
<g id="Node000003" class="node">
<title>Node3</title>
<g id="a_Node000003"><a xlink:href="class_character_style_mapper.html#ae997bee0f431487d783a016735adb2de" target="_top" xlink:title=" ">
<polygon fill="white" stroke="#666666" points="614,-76 418,-76 418,-57 614,-57 614,-76"/>
<text text-anchor="middle" x="516" y="-64" font-family="Helvetica,sans-Serif" font-size="10.00">CharacterStyleMapper.SetStyleInputField</text>
</a>
</g>
</g>
<!-- Node1&#45;&gt;Node3 -->
<g id="edge4_Node000001_Node000003" class="edge">
<title>Node1&#45;&gt;Node3</title>
<g id="a_edge4_Node000001_Node000003"><a xlink:title=" ">
<path fill="none" stroke="#63b8ff" d="M137.16,-50.39C208.97,-53.45 323.47,-58.33 407.62,-61.92"/>
<polygon fill="#63b8ff" stroke="#63b8ff" points="407.59,-65.42 417.73,-62.35 407.89,-58.43 407.59,-65.42"/>
</a>
</g>
</g>
<!-- Node4 -->
<g id="Node000004" class="node">
<title>Node4</title>
<g id="a_Node000004"><a xlink:href="class_character_style_mapper.html#ae2395261820aac2173e0f67c87c89521" target="_top" xlink:title=" ">
<polygon fill="white" stroke="#666666" points="372.5,-19 182.5,-19 182.5,0 372.5,0 372.5,-19"/>
<text text-anchor="middle" x="277.5" y="-7" font-family="Helvetica,sans-Serif" font-size="10.00">CharacterStyleMapper.OnStyleChanged</text>
</a>
</g>
</g>
<!-- Node1&#45;&gt;Node4 -->
<g id="edge3_Node000001_Node000004" class="edge">
<title>Node1&#45;&gt;Node4</title>
<g id="a_edge3_Node000001_Node000004"><a xlink:title=" ">
<path fill="none" stroke="#63b8ff" d="M121.47,-37.96C149.77,-32.77 184.96,-26.3 214.67,-20.85"/>
<polygon fill="#63b8ff" stroke="#63b8ff" points="215.31,-24.29 224.51,-19.04 214.04,-17.41 215.31,-24.29"/>
</a>
</g>
</g>
<!-- Node2&#45;&gt;Node3 -->
<g id="edge2_Node000002_Node000003" class="edge">
<title>Node2&#45;&gt;Node3</title>
<g id="a_edge2_Node000002_Node000003"><a xlink:title=" ">
<path fill="none" stroke="#63b8ff" d="M382.23,-77.17C390.61,-76.49 399.1,-75.81 407.5,-75.14"/>
<polygon fill="#63b8ff" stroke="#63b8ff" points="408.02,-78.61 417.71,-74.32 407.46,-71.63 408.02,-78.61"/>
</a>
</g>
</g>
</g>
</svg>
