<?xml version="1.0" encoding="UTF-8" standalone="no"?>
<!DOCTYPE svg PUBLIC "-//W3C//DTD SVG 1.1//EN"
 "http://www.w3.org/Graphics/SVG/1.1/DTD/svg11.dtd">
<!-- Generated by graphviz version 6.0.1 (20220911.1526)
 -->
<!-- Title: LlamaLibrary.Strings.InsertRange Pages: 1 -->
<svg width="517pt" height="101pt"
 viewBox="0.00 0.00 517.00 101.00" xmlns="http://www.w3.org/2000/svg" xmlns:xlink="http://www.w3.org/1999/xlink">
<g id="graph0" class="graph" transform="scale(1 1) rotate(0) translate(4 97)">
<title>LlamaLibrary.Strings.InsertRange</title>
<!-- Node1 -->
<g id="Node000001" class="node">
<title>Node1</title>
<g id="a_Node000001"><a xlink:title=" ">
<polygon fill="#999999" stroke="#666666" points="161,-56 0,-56 0,-37 161,-37 161,-56"/>
<text text-anchor="middle" x="80.5" y="-44" font-family="Helvetica,sans-Serif" font-size="10.00">LlamaLibrary.Strings.InsertRange</text>
</a>
</g>
</g>
<!-- Node2 -->
<g id="Node000002" class="node">
<title>Node2</title>
<g id="a_Node000002"><a xlink:href="class_llama_library_1_1_strings.html#acaf7b039f8ddd87aadf3878782f3a1ea" target="_top" xlink:title=" ">
<polygon fill="white" stroke="#666666" points="424,-93 282,-93 282,-74 424,-74 424,-93"/>
<text text-anchor="middle" x="353" y="-81" font-family="Helvetica,sans-Serif" font-size="10.00">LlamaLibrary.Strings.getCPtr</text>
</a>
</g>
</g>
<!-- Node1&#45;&gt;Node2 -->
<g id="edge1_Node000001_Node000002" class="edge">
<title>Node1&#45;&gt;Node2</title>
<g id="a_edge1_Node000001_Node000002"><a xlink:title=" ">
<path fill="none" stroke="#63b8ff" d="M136.06,-56.02C155.29,-59.23 177.08,-62.71 197,-65.5 221.18,-68.89 247.54,-72.12 271.56,-74.89"/>
<polygon fill="#63b8ff" stroke="#63b8ff" points="271.36,-78.39 281.69,-76.05 272.16,-71.44 271.36,-78.39"/>
</a>
</g>
</g>
<!-- Node3 -->
<g id="Node000003" class="node">
<title>Node3</title>
<g id="a_Node000003"><a xlink:href="class_llama_library_1_1libllama__lib_p_i_n_v_o_k_e_1_1_s_w_i_g_pending_exception.html#a2718a73540850b42db7c89e9be3519ec" target="_top" xlink:title=" ">
<polygon fill="white" stroke="#666666" points="509,-56 197,-56 197,-37 509,-37 509,-56"/>
<text text-anchor="middle" x="353" y="-44" font-family="Helvetica,sans-Serif" font-size="10.00">LlamaLibrary.libllama_libPINVOKE.SWIGPendingException.Retrieve</text>
</a>
</g>
</g>
<!-- Node1&#45;&gt;Node3 -->
<g id="edge2_Node000001_Node000003" class="edge">
<title>Node1&#45;&gt;Node3</title>
<g id="a_edge2_Node000001_Node000003"><a xlink:title=" ">
<path fill="none" stroke="#63b8ff" d="M161.2,-46.5C169.37,-46.5 177.88,-46.5 186.56,-46.5"/>
<polygon fill="#63b8ff" stroke="#63b8ff" points="186.82,-50 196.82,-46.5 186.82,-43 186.82,-50"/>
</a>
</g>
</g>
<!-- Node4 -->
<g id="Node000004" class="node">
<title>Node4</title>
<g id="a_Node000004"><a xlink:href="class_llama_library_1_1libllama__lib_p_i_n_v_o_k_e.html#a1cc8a6d03a4f56687e8ce9259fd32f69" target="_top" xlink:title=" ">
<polygon fill="white" stroke="#666666" points="481.5,-19 224.5,-19 224.5,0 481.5,0 481.5,-19"/>
<text text-anchor="middle" x="353" y="-7" font-family="Helvetica,sans-Serif" font-size="10.00">LlamaLibrary.libllama_libPINVOKE.Strings_InsertRange</text>
</a>
</g>
</g>
<!-- Node1&#45;&gt;Node4 -->
<g id="edge3_Node000001_Node000004" class="edge">
<title>Node1&#45;&gt;Node4</title>
<g id="a_edge3_Node000001_Node000004"><a xlink:title=" ">
<path fill="none" stroke="#63b8ff" d="M140.2,-36.97C158.39,-34.12 178.51,-31.07 197,-28.5 217.42,-25.66 239.39,-22.83 260.18,-20.25"/>
<polygon fill="#63b8ff" stroke="#63b8ff" points="260.79,-23.7 270.29,-19.01 259.93,-16.76 260.79,-23.7"/>
</a>
</g>
</g>
</g>
</svg>
