<?xml version="1.0" encoding="UTF-8" standalone="no"?>
<!DOCTYPE svg PUBLIC "-//W3C//DTD SVG 1.1//EN"
 "http://www.w3.org/Graphics/SVG/1.1/DTD/svg11.dtd">
<!-- Generated by graphviz version 6.0.1 (20220911.1526)
 -->
<!-- Title: DialogManager.ShowNextLine Pages: 1 -->
<!--zoomable 175 -->

<svg id="main" version="1.1" xmlns="http://www.w3.org/2000/svg" xmlns:xlink="http://www.w3.org/1999/xlink" xml:space="preserve" onload="init(evt)">
<style type="text/css"><![CDATA[
.node, .edge {opacity: 0.7;}
.node.selected, .edge.selected {opacity: 1;}
.edge:hover path { stroke: red; }
.edge:hover polygon { stroke: red; fill: red; }
]]></style>

<defs>
  <circle id="rim" cx="0" cy="0" r="7"/>
  <circle id="rim2" cx="0" cy="0" r="3.5"/>
  <g id="zoomPlus">
    <use xlink:href="#rim" fill="#404040"><set attributeName="fill" to="#808080" begin="zoomplus.mouseover" end="zoomplus.mouseout"/></use>
    <path d="M-4,0h8M0,-4v8" fill="none" stroke="white" stroke-width="1.5" pointer-events="none"/>
  </g>
  <g id="zoomMin">
    <use xlink:href="#rim" fill="#404040"><set attributeName="fill" to="#808080" begin="zoomminus.mouseover" end="zoomminus.mouseout"/></use>
    <path d="M-4,0h8" fill="none" stroke="white" stroke-width="1.5" pointer-events="none"/>
  </g>
  <g id="arrowUp" transform="translate(30 24)">
    <use xlink:href="#rim"/>
    <path pointer-events="none" fill="none" stroke="white" stroke-width="1.5" d="M0,-3.0v7 M-2.5,-0.5L0,-3.0L2.5,-0.5"/>
  </g>
  <g id="arrowRight" transform="rotate(90) translate(36 -43)">
    <use xlink:href="#rim"/>
    <path pointer-events="none" fill="none" stroke="white" stroke-width="1.5" d="M0,-3.0v7 M-2.5,-0.5L0,-3.0L2.5,-0.5"/>
  </g>
  <g id="arrowDown" transform="rotate(180) translate(-30 -48)">
    <use xlink:href="#rim"/>
    <path pointer-events="none" fill="none" stroke="white" stroke-width="1.5" d="M0,-3.0v7 M-2.5,-0.5L0,-3.0L2.5,-0.5"/>
  </g>
  <g id="arrowLeft" transform="rotate(270) translate(-36 17)">
    <use xlink:href="#rim"/>
    <path pointer-events="none" fill="none" stroke="white" stroke-width="1.5" d="M0,-3.0v7 M-2.5,-0.5L0,-3.0L2.5,-0.5"/>
  </g>
  <g id="resetDef">
    <use xlink:href="#rim2" fill="#404040"><set attributeName="fill" to="#808080" begin="reset.mouseover" end="reset.mouseout"/></use>
  </g>
</defs>
<script type="application/ecmascript">
var viewWidth = 847;
var viewHeight = 175;
var sectionId = 'dynsection-9';
</script>
<script type="application/ecmascript" xlink:href="svg.min.js"/>
<svg id="graph" class="graph">
<g id="viewport">
<title>DialogManager.ShowNextLine</title>
<!-- Node1 -->
<g id="Node000001" class="node">
<title>Node1</title>
<g id="a_Node000001"><a xlink:title="Coroutine that displays the next line of dialog, handles looping, and manages the dialog&#39;s progressio...">
<polygon fill="#999999" stroke="#666666" points="146,-93 0,-93 0,-74 146,-74 146,-93"/>
<text text-anchor="middle" x="73" y="-81" font-family="Helvetica,sans-Serif" font-size="10.00">DialogManager.ShowNextLine</text>
</a>
</g>
</g>
<!-- Node2 -->
<g id="Node000002" class="node">
<title>Node2</title>
<g id="a_Node000002"><a xlink:href="class_model_controller.html#aab6e1807c1b6ee25a9a1d28028caec1a" target="_top" xlink:title="Static method to extract the first part of a string up to a specified stop text. If the stop text is ...">
<polygon fill="white" stroke="#666666" points="391,-167 235,-167 235,-148 391,-148 391,-167"/>
<text text-anchor="middle" x="313" y="-155" font-family="Helvetica,sans-Serif" font-size="10.00">ModelController.ExtractFirstPart</text>
</a>
</g>
</g>
<!-- Node1&#45;&gt;Node2 -->
<g id="edge1_Node000001_Node000002" class="edge">
<title>Node1&#45;&gt;Node2</title>
<g id="a_edge1_Node000001_Node000002"><a xlink:title=" ">
<path fill="none" stroke="#63b8ff" d="M88.67,-93.19C108.81,-105.99 146.58,-128.23 182,-139.5 195.58,-143.82 210.29,-147.1 224.77,-149.6"/>
<polygon fill="#63b8ff" stroke="#63b8ff" points="224.3,-153.07 234.73,-151.21 225.41,-146.16 224.3,-153.07"/>
</a>
</g>
</g>
<!-- Node3 -->
<g id="Node000003" class="node">
<title>Node3</title>
<g id="a_Node000003"><a xlink:href="class_llama_library_1_1_async_llama_infrence.html#ae80455f9b59fac152fa35e01470fd8d1" target="_top" xlink:title=" ">
<polygon fill="white" stroke="#666666" points="429.5,-130 196.5,-130 196.5,-111 429.5,-111 429.5,-130"/>
<text text-anchor="middle" x="313" y="-118" font-family="Helvetica,sans-Serif" font-size="10.00">LlamaLibrary.AsyncLlamaInfrence.GenerateAsync</text>
</a>
</g>
</g>
<!-- Node1&#45;&gt;Node3 -->
<g id="edge2_Node000001_Node000003" class="edge">
<title>Node1&#45;&gt;Node3</title>
<g id="a_edge2_Node000001_Node000003"><a xlink:title=" ">
<path fill="none" stroke="#63b8ff" d="M125.85,-93.02C143.63,-96.18 163.66,-99.62 182,-102.5 197.33,-104.91 213.69,-107.31 229.47,-109.54"/>
<polygon fill="#63b8ff" stroke="#63b8ff" points="229.34,-113.05 239.73,-110.97 230.31,-106.12 229.34,-113.05"/>
</a>
</g>
</g>
<!-- Node6 -->
<g id="Node000006" class="node">
<title>Node6</title>
<g id="a_Node000006"><a xlink:href="class_llama_library_1_1_async_llama_infrence.html#a74d73cee873a2080edfa0d915f367d30" target="_top" xlink:title=" ">
<polygon fill="white" stroke="#666666" points="444,-93 182,-93 182,-74 444,-74 444,-93"/>
<text text-anchor="middle" x="313" y="-81" font-family="Helvetica,sans-Serif" font-size="10.00">LlamaLibrary.AsyncLlamaInfrence.GetGenerationResults</text>
</a>
</g>
</g>
<!-- Node1&#45;&gt;Node6 -->
<g id="edge5_Node000001_Node000006" class="edge">
<title>Node1&#45;&gt;Node6</title>
<g id="a_edge5_Node000001_Node000006"><a xlink:title=" ">
<path fill="none" stroke="#63b8ff" d="M146.05,-83.5C154.22,-83.5 162.73,-83.5 171.4,-83.5"/>
<polygon fill="#63b8ff" stroke="#63b8ff" points="171.64,-87 181.64,-83.5 171.64,-80 171.64,-87"/>
</a>
</g>
</g>
<!-- Node8 -->
<g id="Node000008" class="node">
<title>Node8</title>
<g id="a_Node000008"><a xlink:href="class_llama_library_1_1_async_llama_infrence.html#a66a87fa4eb3794b3069e7470a1be66ce" target="_top" xlink:title=" ">
<polygon fill="white" stroke="#666666" points="437,-56 189,-56 189,-37 437,-37 437,-56"/>
<text text-anchor="middle" x="313" y="-44" font-family="Helvetica,sans-Serif" font-size="10.00">LlamaLibrary.AsyncLlamaInfrence.IsGenerationReady</text>
</a>
</g>
</g>
<!-- Node1&#45;&gt;Node8 -->
<g id="edge7_Node000001_Node000008" class="edge">
<title>Node1&#45;&gt;Node8</title>
<g id="a_edge7_Node000001_Node000008"><a xlink:title=" ">
<path fill="none" stroke="#63b8ff" d="M129.74,-73.99C146.53,-71.19 165,-68.16 182,-65.5 199.14,-62.82 217.58,-60.05 235.02,-57.49"/>
<polygon fill="#63b8ff" stroke="#63b8ff" points="235.77,-60.92 245.16,-56.01 234.76,-53.99 235.77,-60.92"/>
</a>
</g>
</g>
<!-- Node10 -->
<g id="Node000010" class="node">
<title>Node10</title>
<g id="a_Node000010"><a xlink:href="class_dialog_manager.html#a2b9e29dfdef1abb40b4d9bb7a6523be7" target="_top" xlink:title="Displays the specified text on the character&#39;s TextMeshPro component.">
<polygon fill="white" stroke="#666666" points="376.5,-19 249.5,-19 249.5,0 376.5,0 376.5,-19"/>
<text text-anchor="middle" x="313" y="-7" font-family="Helvetica,sans-Serif" font-size="10.00">DialogManager.ShowText</text>
</a>
</g>
</g>
<!-- Node1&#45;&gt;Node10 -->
<g id="edge9_Node000001_Node000010" class="edge">
<title>Node1&#45;&gt;Node10</title>
<g id="a_edge9_Node000001_Node000010"><a xlink:title=" ">
<path fill="none" stroke="#63b8ff" d="M89.06,-73.82C109.33,-61.27 146.91,-39.67 182,-28.5 200.15,-22.73 220.29,-18.7 239.19,-15.89"/>
<polygon fill="#63b8ff" stroke="#63b8ff" points="239.82,-19.33 249.24,-14.49 238.85,-12.4 239.82,-19.33"/>
</a>
</g>
</g>
<!-- Node4 -->
<g id="Node000004" class="node">
<title>Node4</title>
<g id="a_Node000004"><a xlink:href="class_llama_library_1_1libllama__lib_p_i_n_v_o_k_e.html#af55b1afde0c97563b362f3a6df224c4e" target="_top" xlink:title=" ">
<polygon fill="white" stroke="#666666" points="824.5,-167 494.5,-167 494.5,-148 824.5,-148 824.5,-167"/>
<text text-anchor="middle" x="659.5" y="-155" font-family="Helvetica,sans-Serif" font-size="10.00">LlamaLibrary.libllama_libPINVOKE.AsyncLlamaInfrence_GenerateAsync</text>
</a>
</g>
</g>
<!-- Node3&#45;&gt;Node4 -->
<g id="edge3_Node000003_Node000004" class="edge">
<title>Node3&#45;&gt;Node4</title>
<g id="a_edge3_Node000003_Node000004"><a xlink:title=" ">
<path fill="none" stroke="#63b8ff" d="M395.45,-130.04C422.36,-133.14 452.46,-136.54 480,-139.5 503.17,-141.99 528.04,-144.57 551.64,-146.96"/>
<polygon fill="#63b8ff" stroke="#63b8ff" points="551.37,-150.45 561.67,-147.98 552.07,-143.49 551.37,-150.45"/>
</a>
</g>
</g>
<!-- Node5 -->
<g id="Node000005" class="node">
<title>Node5</title>
<g id="a_Node000005"><a xlink:href="class_llama_library_1_1libllama__lib_p_i_n_v_o_k_e_1_1_s_w_i_g_pending_exception.html#a2718a73540850b42db7c89e9be3519ec" target="_top" xlink:title=" ">
<polygon fill="white" stroke="#666666" points="815.5,-130 503.5,-130 503.5,-111 815.5,-111 815.5,-130"/>
<text text-anchor="middle" x="659.5" y="-118" font-family="Helvetica,sans-Serif" font-size="10.00">LlamaLibrary.libllama_libPINVOKE.SWIGPendingException.Retrieve</text>
</a>
</g>
</g>
<!-- Node3&#45;&gt;Node5 -->
<g id="edge4_Node000003_Node000005" class="edge">
<title>Node3&#45;&gt;Node5</title>
<g id="a_edge4_Node000003_Node000005"><a xlink:title=" ">
<path fill="none" stroke="#63b8ff" d="M429.67,-120.5C450.09,-120.5 471.7,-120.5 493.17,-120.5"/>
<polygon fill="#63b8ff" stroke="#63b8ff" points="493.35,-124 503.35,-120.5 493.35,-117 493.35,-124"/>
</a>
</g>
</g>
<!-- Node7 -->
<g id="Node000007" class="node">
<title>Node7</title>
<g id="a_Node000007"><a xlink:href="class_llama_library_1_1libllama__lib_p_i_n_v_o_k_e.html#a2bdcb309c17221cae862eee0ad62128e" target="_top" xlink:title=" ">
<polygon fill="white" stroke="#666666" points="839,-93 480,-93 480,-74 839,-74 839,-93"/>
<text text-anchor="middle" x="659.5" y="-81" font-family="Helvetica,sans-Serif" font-size="10.00">LlamaLibrary.libllama_libPINVOKE.AsyncLlamaInfrence_GetGenerationResults</text>
</a>
</g>
</g>
<!-- Node6&#45;&gt;Node7 -->
<g id="edge6_Node000006_Node000007" class="edge">
<title>Node6&#45;&gt;Node7</title>
<g id="a_edge6_Node000006_Node000007"><a xlink:title=" ">
<path fill="none" stroke="#63b8ff" d="M444.24,-83.5C452.66,-83.5 461.23,-83.5 469.85,-83.5"/>
<polygon fill="#63b8ff" stroke="#63b8ff" points="469.99,-87 479.99,-83.5 469.99,-80 469.99,-87"/>
</a>
</g>
</g>
<!-- Node9 -->
<g id="Node000009" class="node">
<title>Node9</title>
<g id="a_Node000009"><a xlink:href="class_llama_library_1_1libllama__lib_p_i_n_v_o_k_e.html#ab50bb460cfde70a6f5eb120b81102ab9" target="_top" xlink:title=" ">
<polygon fill="white" stroke="#666666" points="832,-56 487,-56 487,-37 832,-37 832,-56"/>
<text text-anchor="middle" x="659.5" y="-44" font-family="Helvetica,sans-Serif" font-size="10.00">LlamaLibrary.libllama_libPINVOKE.AsyncLlamaInfrence_IsGenerationReady</text>
</a>
</g>
</g>
<!-- Node8&#45;&gt;Node9 -->
<g id="edge8_Node000008_Node000009" class="edge">
<title>Node8&#45;&gt;Node9</title>
<g id="a_edge8_Node000008_Node000009"><a xlink:title=" ">
<path fill="none" stroke="#63b8ff" d="M437.4,-46.5C450.25,-46.5 463.49,-46.5 476.8,-46.5"/>
<polygon fill="#63b8ff" stroke="#63b8ff" points="477,-50 487,-46.5 477,-43 477,-50"/>
</a>
</g>
</g>
<!-- Node11 -->
<g id="Node000011" class="node">
<title>Node11</title>
<g id="a_Node000011"><a xlink:href="class_dialog_manager.html#a20867c8053ce8cdd4d4bcd96ff6798b0" target="_top" xlink:title="Coroutine that hides the text by clearing it after a specified delay.">
<polygon fill="white" stroke="#666666" points="743,-19 576,-19 576,0 743,0 743,-19"/>
<text text-anchor="middle" x="659.5" y="-7" font-family="Helvetica,sans-Serif" font-size="10.00">DialogManager.HideTextAfterDelay</text>
</a>
</g>
</g>
<!-- Node10&#45;&gt;Node11 -->
<g id="edge10_Node000010_Node000011" class="edge">
<title>Node10&#45;&gt;Node11</title>
<g id="a_edge10_Node000010_Node000011"><a xlink:title=" ">
<path fill="none" stroke="#63b8ff" d="M376.79,-9.5C429.53,-9.5 505.66,-9.5 565.48,-9.5"/>
<polygon fill="#63b8ff" stroke="#63b8ff" points="565.69,-13 575.69,-9.5 565.69,-6 565.69,-13"/>
</a>
</g>
</g>
</g>
</svg>

<g id="navigator" transform="translate(0 0)" fill="#404254">
  <rect fill="#f2f5e9" fill-opacity="0.5" stroke="#606060" stroke-width=".5" x="0" y="0" width="60" height="60"/>
  <use id="zoomplus" xlink:href="#zoomPlus" x="17" y="9" onmousedown="handleZoom(evt,'in')"/>
  <use id="zoomminus" xlink:href="#zoomMin" x="42" y="9" onmousedown="handleZoom(evt,'out')"/>
  <use id="reset" xlink:href="#resetDef" x="30" y="36" onmousedown="handleReset()"/>
   <use id="arrowup" xlink:href="#arrowUp" x="0" y="0" onmousedown="handlePan(0,-1)"/>
  <use id="arrowright" xlink:href="#arrowRight" x="0" y="0" onmousedown="handlePan(1,0)"/>
  <use id="arrowdown" xlink:href="#arrowDown" x="0" y="0" onmousedown="handlePan(0,1)"/>
  <use id="arrowleft" xlink:href="#arrowLeft" x="0" y="0" onmousedown="handlePan(-1,0)"/>
</g>
<svg viewBox="0 0 15 15" width="100%" height="30px" preserveAspectRatio="xMaxYMin meet">
 <g id="arrow_out" transform="scale(0.3 0.3)">
  <a xlink:href="class_dialog_manager_a58ce81209f0fe6b90708dc9503bc97cd_cgraph_org.svg" target="_base">
   <rect id="button" ry="5" rx="5" y="6" x="6" height="38" width="38"
        fill="#f2f5e9" fill-opacity="0.5" stroke="#606060" stroke-width="1.0"/>
   <path id="arrow"
     d="M 11.500037,31.436501 C 11.940474,20.09759 22.043105,11.32322 32.158766,21.979434 L 37.068811,17.246167 C 37.068811,17.246167 37.088388,32 37.088388,32 L 22.160133,31.978069 C 22.160133,31.978069 26.997745,27.140456 26.997745,27.140456 C 18.528582,18.264221 13.291696,25.230495 11.500037,31.436501 z"
     style="fill:#404040;"/>
  </a>
 </g>
</svg>

<style type='text/css'>
<![CDATA[
[data-mouse-over-selected='false'] { opacity: 0.7; }
[data-mouse-over-selected='true']  { opacity: 1.0; }
]]>
</style>
<script type="application/ecmascript"><![CDATA[
document.addEventListener('DOMContentLoaded', (event) => {
  highlightEdges();
  highlightAdjacentNodes();
});
]]></script>
</svg>
