<?xml version="1.0" encoding="UTF-8" standalone="no"?>
<!DOCTYPE svg PUBLIC "-//W3C//DTD SVG 1.1//EN"
 "http://www.w3.org/Graphics/SVG/1.1/DTD/svg11.dtd">
<!-- Generated by graphviz version 6.0.1 (20220911.1526)
 -->
<!-- Title: LlamaLibrary.StringsAndFloats.StringsAndFloats Pages: 1 -->
<svg width="790pt" height="101pt"
 viewBox="0.00 0.00 790.00 101.00" xmlns="http://www.w3.org/2000/svg" xmlns:xlink="http://www.w3.org/1999/xlink">
<g id="graph0" class="graph" transform="scale(1 1) rotate(0) translate(4 97)">
<title>LlamaLibrary.StringsAndFloats.StringsAndFloats</title>
<!-- Node1 -->
<g id="Node000001" class="node">
<title>Node1</title>
<g id="a_Node000001"><a xlink:title=" ">
<polygon fill="#999999" stroke="#666666" points="228,-56 0,-56 0,-37 228,-37 228,-56"/>
<text text-anchor="middle" x="114" y="-44" font-family="Helvetica,sans-Serif" font-size="10.00">LlamaLibrary.StringsAndFloats.StringsAndFloats</text>
</a>
</g>
</g>
<!-- Node2 -->
<g id="Node000002" class="node">
<title>Node2</title>
<g id="a_Node000002"><a xlink:href="$class_llama_library_1_1_strings_and_floats.html#a040fc7eb962d0bb58697fdd36f6660ec" xlink:title=" ">
<polygon fill="white" stroke="#666666" points="434,-56 264,-56 264,-37 434,-37 434,-56"/>
<text text-anchor="middle" x="349" y="-44" font-family="Helvetica,sans-Serif" font-size="10.00">LlamaLibrary.StringsAndFloats.Add</text>
</a>
</g>
</g>
<!-- Node1&#45;&gt;Node2 -->
<g id="edge1_Node000001_Node000002" class="edge">
<title>Node1&#45;&gt;Node2</title>
<g id="a_edge1_Node000001_Node000002"><a xlink:title=" ">
<path fill="none" stroke="#63b8ff" d="M228.09,-46.5C236.66,-46.5 245.26,-46.5 253.69,-46.5"/>
<polygon fill="#63b8ff" stroke="#63b8ff" points="253.89,-50 263.89,-46.5 253.89,-43 253.89,-50"/>
</a>
</g>
</g>
<!-- Node3 -->
<g id="Node000003" class="node">
<title>Node3</title>
<g id="a_Node000003"><a xlink:href="$class_llama_library_1_1_string_and_float.html#a3de7dd13f6e517516b6a9f4348c2eaed" xlink:title=" ">
<polygon fill="white" stroke="#666666" points="714,-93 538,-93 538,-74 714,-74 714,-93"/>
<text text-anchor="middle" x="626" y="-81" font-family="Helvetica,sans-Serif" font-size="10.00">LlamaLibrary.StringAndFloat.getCPtr</text>
</a>
</g>
</g>
<!-- Node2&#45;&gt;Node3 -->
<g id="edge2_Node000002_Node000003" class="edge">
<title>Node2&#45;&gt;Node3</title>
<g id="a_edge2_Node000002_Node000003"><a xlink:title=" ">
<path fill="none" stroke="#63b8ff" d="M407,-56.02C426.91,-59.21 449.42,-62.68 470,-65.5 488.54,-68.04 508.36,-70.52 527.42,-72.79"/>
<polygon fill="#63b8ff" stroke="#63b8ff" points="527.28,-76.3 537.62,-73.99 528.09,-69.35 527.28,-76.3"/>
</a>
</g>
</g>
<!-- Node4 -->
<g id="Node000004" class="node">
<title>Node4</title>
<g id="a_Node000004"><a xlink:href="$class_llama_library_1_1libllama__lib_p_i_n_v_o_k_e_1_1_s_w_i_g_pending_exception.html#a2718a73540850b42db7c89e9be3519ec" xlink:title=" ">
<polygon fill="white" stroke="#666666" points="782,-56 470,-56 470,-37 782,-37 782,-56"/>
<text text-anchor="middle" x="626" y="-44" font-family="Helvetica,sans-Serif" font-size="10.00">LlamaLibrary.libllama_libPINVOKE.SWIGPendingException.Retrieve</text>
</a>
</g>
</g>
<!-- Node2&#45;&gt;Node4 -->
<g id="edge3_Node000002_Node000004" class="edge">
<title>Node2&#45;&gt;Node4</title>
<g id="a_edge3_Node000002_Node000004"><a xlink:title=" ">
<path fill="none" stroke="#63b8ff" d="M434,-46.5C442.38,-46.5 451.07,-46.5 459.92,-46.5"/>
<polygon fill="#63b8ff" stroke="#63b8ff" points="459.98,-50 469.98,-46.5 459.98,-43 459.98,-50"/>
</a>
</g>
</g>
<!-- Node5 -->
<g id="Node000005" class="node">
<title>Node5</title>
<g id="a_Node000005"><a xlink:href="$class_llama_library_1_1libllama__lib_p_i_n_v_o_k_e.html#a60b0d027c0c37f104e58385237441b74" xlink:title=" ">
<polygon fill="white" stroke="#666666" points="759.5,-19 492.5,-19 492.5,0 759.5,0 759.5,-19"/>
<text text-anchor="middle" x="626" y="-7" font-family="Helvetica,sans-Serif" font-size="10.00">LlamaLibrary.libllama_libPINVOKE.StringsAndFloats_Add</text>
</a>
</g>
</g>
<!-- Node2&#45;&gt;Node5 -->
<g id="edge4_Node000002_Node000005" class="edge">
<title>Node2&#45;&gt;Node5</title>
<g id="a_edge4_Node000002_Node000005"><a xlink:title=" ">
<path fill="none" stroke="#63b8ff" d="M411.31,-36.98C430.12,-34.14 450.9,-31.1 470,-28.5 490.55,-25.7 512.65,-22.88 533.55,-20.3"/>
<polygon fill="#63b8ff" stroke="#63b8ff" points="534.2,-23.74 543.7,-19.05 533.35,-16.79 534.2,-23.74"/>
</a>
</g>
</g>
</g>
</svg>
