<?xml version="1.0" encoding="UTF-8" standalone="no"?>
<!DOCTYPE svg PUBLIC "-//W3C//DTD SVG 1.1//EN"
 "http://www.w3.org/Graphics/SVG/1.1/DTD/svg11.dtd">
<!-- Generated by graphviz version 6.0.1 (20220911.1526)
 -->
<!-- Title: LlamaLibrary.AsyncLlamaInfrence.SetupAsync Pages: 1 -->
<svg width="579pt" height="138pt"
 viewBox="0.00 0.00 579.00 138.00" xmlns="http://www.w3.org/2000/svg" xmlns:xlink="http://www.w3.org/1999/xlink">
<g id="graph0" class="graph" transform="scale(1 1) rotate(0) translate(4 134)">
<title>LlamaLibrary.AsyncLlamaInfrence.SetupAsync</title>
<!-- Node1 -->
<g id="Node000001" class="node">
<title>Node1</title>
<g id="a_Node000001"><a xlink:title=" ">
<polygon fill="#999999" stroke="#666666" points="219,-74 0,-74 0,-55 219,-55 219,-74"/>
<text text-anchor="middle" x="109.5" y="-62" font-family="Helvetica,sans-Serif" font-size="10.00">LlamaLibrary.AsyncLlamaInfrence.SetupAsync</text>
</a>
</g>
</g>
<!-- Node2 -->
<g id="Node000002" class="node">
<title>Node2</title>
<g id="a_Node000002"><a xlink:href="class_llama_library_1_1libllama__lib_p_i_n_v_o_k_e.html#a3e629604030c518ff63457e5c5d03455" target="_top" xlink:title=" ">
<polygon fill="white" stroke="#666666" points="571,-130 255,-130 255,-111 571,-111 571,-130"/>
<text text-anchor="middle" x="413" y="-118" font-family="Helvetica,sans-Serif" font-size="10.00">LlamaLibrary.libllama_libPINVOKE.AsyncLlamaInfrence_SetupAsync</text>
</a>
</g>
</g>
<!-- Node1&#45;&gt;Node2 -->
<g id="edge1_Node000001_Node000002" class="edge">
<title>Node1&#45;&gt;Node2</title>
<g id="a_edge1_Node000001_Node000002"><a xlink:title=" ">
<path fill="none" stroke="#63b8ff" d="M141.5,-74.03C170.56,-82.63 215.36,-95.05 255,-102.5 269.6,-105.24 285.04,-107.63 300.33,-109.69"/>
<polygon fill="#63b8ff" stroke="#63b8ff" points="299.97,-113.17 310.33,-111 300.87,-106.23 299.97,-113.17"/>
</a>
</g>
</g>
<!-- Node3 -->
<g id="Node000003" class="node">
<title>Node3</title>
<g id="a_Node000003"><a xlink:href="class_llama_library_1_1gpt__params.html#a352b93d1ce986af8f726ebc0643f2825" target="_top" xlink:title=" ">
<polygon fill="white" stroke="#666666" points="494,-93 332,-93 332,-74 494,-74 494,-93"/>
<text text-anchor="middle" x="413" y="-81" font-family="Helvetica,sans-Serif" font-size="10.00">LlamaLibrary.gpt_params.getCPtr</text>
</a>
</g>
</g>
<!-- Node1&#45;&gt;Node3 -->
<g id="edge2_Node000001_Node000003" class="edge">
<title>Node1&#45;&gt;Node3</title>
<g id="a_edge2_Node000001_Node000003"><a xlink:title=" ">
<path fill="none" stroke="#63b8ff" d="M219.35,-71.36C252.83,-73.47 289.31,-75.77 321.43,-77.79"/>
<polygon fill="#63b8ff" stroke="#63b8ff" points="321.5,-81.3 331.7,-78.44 321.94,-74.32 321.5,-81.3"/>
</a>
</g>
</g>
<!-- Node4 -->
<g id="Node000004" class="node">
<title>Node4</title>
<g id="a_Node000004"><a xlink:href="class_llama_library_1_1_logging_context.html#a8af2a946a9ffc74d4f17f897e781437d" target="_top" xlink:title=" ">
<polygon fill="white" stroke="#666666" points="502.5,-56 323.5,-56 323.5,-37 502.5,-37 502.5,-56"/>
<text text-anchor="middle" x="413" y="-44" font-family="Helvetica,sans-Serif" font-size="10.00">LlamaLibrary.LoggingContext.getCPtr</text>
</a>
</g>
</g>
<!-- Node1&#45;&gt;Node4 -->
<g id="edge3_Node000001_Node000004" class="edge">
<title>Node1&#45;&gt;Node4</title>
<g id="a_edge3_Node000001_Node000004"><a xlink:title=" ">
<path fill="none" stroke="#63b8ff" d="M219.35,-58C249.96,-56.17 283.08,-54.2 313.07,-52.41"/>
<polygon fill="#63b8ff" stroke="#63b8ff" points="313.35,-55.9 323.12,-51.81 312.93,-48.91 313.35,-55.9"/>
</a>
</g>
</g>
<!-- Node5 -->
<g id="Node000005" class="node">
<title>Node5</title>
<g id="a_Node000005"><a xlink:href="class_llama_library_1_1libllama__lib_p_i_n_v_o_k_e_1_1_s_w_i_g_pending_exception.html#a2718a73540850b42db7c89e9be3519ec" target="_top" xlink:title=" ">
<polygon fill="white" stroke="#666666" points="569,-19 257,-19 257,0 569,0 569,-19"/>
<text text-anchor="middle" x="413" y="-7" font-family="Helvetica,sans-Serif" font-size="10.00">LlamaLibrary.libllama_libPINVOKE.SWIGPendingException.Retrieve</text>
</a>
</g>
</g>
<!-- Node1&#45;&gt;Node5 -->
<g id="edge4_Node000001_Node000005" class="edge">
<title>Node1&#45;&gt;Node5</title>
<g id="a_edge4_Node000001_Node000005"><a xlink:title=" ">
<path fill="none" stroke="#63b8ff" d="M143.82,-54.95C172.95,-46.91 216.48,-35.6 255,-28.5 271.82,-25.4 289.74,-22.68 307.24,-20.35"/>
<polygon fill="#63b8ff" stroke="#63b8ff" points="308.02,-23.78 317.48,-19.02 307.12,-16.84 308.02,-23.78"/>
</a>
</g>
</g>
</g>
</svg>
