<?xml version="1.0" encoding="UTF-8" standalone="no"?>
<!DOCTYPE svg PUBLIC "-//W3C//DTD SVG 1.1//EN"
 "http://www.w3.org/Graphics/SVG/1.1/DTD/svg11.dtd">
<!-- Generated by graphviz version 6.0.1 (20220911.1526)
 -->
<!-- Title: LlamaLibrary.LlamaControlVectorLoadInfos.Add Pages: 1 -->
<svg width="585pt" height="101pt"
 viewBox="0.00 0.00 585.00 101.00" xmlns="http://www.w3.org/2000/svg" xmlns:xlink="http://www.w3.org/1999/xlink">
<g id="graph0" class="graph" transform="scale(1 1) rotate(0) translate(4 97)">
<title>LlamaLibrary.LlamaControlVectorLoadInfos.Add</title>
<!-- Node1 -->
<g id="Node000001" class="node">
<title>Node1</title>
<g id="a_Node000001"><a xlink:title=" ">
<polygon fill="#999999" stroke="#666666" points="222,-56 0,-56 0,-37 222,-37 222,-56"/>
<text text-anchor="middle" x="111" y="-44" font-family="Helvetica,sans-Serif" font-size="10.00">LlamaLibrary.LlamaControlVectorLoadInfos.Add</text>
</a>
</g>
</g>
<!-- Node2 -->
<g id="Node000002" class="node">
<title>Node2</title>
<g id="a_Node000002"><a xlink:href="class_llama_library_1_1_s_w_i_g_t_y_p_e__p__llama__control__vector__load__info.html#a17cce04bff17da000653ab54f117a635" target="_top" xlink:title=" ">
<polygon fill="white" stroke="#666666" points="573,-93 262,-93 262,-74 573,-74 573,-93"/>
<text text-anchor="middle" x="417.5" y="-81" font-family="Helvetica,sans-Serif" font-size="10.00">LlamaLibrary.SWIGTYPE_p_llama_control_vector_load_info.getCPtr</text>
</a>
</g>
</g>
<!-- Node1&#45;&gt;Node2 -->
<g id="edge1_Node000001_Node000002" class="edge">
<title>Node1&#45;&gt;Node2</title>
<g id="a_edge1_Node000001_Node000002"><a xlink:title=" ">
<path fill="none" stroke="#63b8ff" d="M183.26,-56.01C207.02,-59.12 233.64,-62.53 258,-65.5 278.2,-67.96 299.86,-70.49 320.48,-72.85"/>
<polygon fill="#63b8ff" stroke="#63b8ff" points="320.18,-76.34 330.51,-73.99 320.97,-69.38 320.18,-76.34"/>
</a>
</g>
</g>
<!-- Node3 -->
<g id="Node000003" class="node">
<title>Node3</title>
<g id="a_Node000003"><a xlink:href="class_llama_library_1_1libllama__lib_p_i_n_v_o_k_e.html#a19b43cee94d32db0573069796591a883" target="_top" xlink:title=" ">
<polygon fill="white" stroke="#666666" points="577,-56 258,-56 258,-37 577,-37 577,-56"/>
<text text-anchor="middle" x="417.5" y="-44" font-family="Helvetica,sans-Serif" font-size="10.00">LlamaLibrary.libllama_libPINVOKE.LlamaControlVectorLoadInfos_Add</text>
</a>
</g>
</g>
<!-- Node1&#45;&gt;Node3 -->
<g id="edge2_Node000001_Node000003" class="edge">
<title>Node1&#45;&gt;Node3</title>
<g id="a_edge2_Node000001_Node000003"><a xlink:title=" ">
<path fill="none" stroke="#63b8ff" d="M222.36,-46.5C230.68,-46.5 239.18,-46.5 247.75,-46.5"/>
<polygon fill="#63b8ff" stroke="#63b8ff" points="247.84,-50 257.84,-46.5 247.84,-43 247.84,-50"/>
</a>
</g>
</g>
<!-- Node4 -->
<g id="Node000004" class="node">
<title>Node4</title>
<g id="a_Node000004"><a xlink:href="class_llama_library_1_1libllama__lib_p_i_n_v_o_k_e_1_1_s_w_i_g_pending_exception.html#a2718a73540850b42db7c89e9be3519ec" target="_top" xlink:title=" ">
<polygon fill="white" stroke="#666666" points="573.5,-19 261.5,-19 261.5,0 573.5,0 573.5,-19"/>
<text text-anchor="middle" x="417.5" y="-7" font-family="Helvetica,sans-Serif" font-size="10.00">LlamaLibrary.libllama_libPINVOKE.SWIGPendingException.Retrieve</text>
</a>
</g>
</g>
<!-- Node1&#45;&gt;Node4 -->
<g id="edge3_Node000001_Node000004" class="edge">
<title>Node1&#45;&gt;Node4</title>
<g id="a_edge3_Node000001_Node000004"><a xlink:title=" ">
<path fill="none" stroke="#63b8ff" d="M188.9,-36.97C211.19,-34.22 235.56,-31.23 258,-28.5 280.19,-25.8 304.13,-22.92 326.51,-20.23"/>
<polygon fill="#63b8ff" stroke="#63b8ff" points="327.16,-23.68 336.67,-19.02 326.33,-16.73 327.16,-23.68"/>
</a>
</g>
</g>
</g>
</svg>
