<?xml version="1.0" encoding="UTF-8" standalone="no"?>
<!DOCTYPE svg PUBLIC "-//W3C//DTD SVG 1.1//EN"
 "http://www.w3.org/Graphics/SVG/1.1/DTD/svg11.dtd">
<!-- Generated by graphviz version 6.0.1 (20220911.1526)
 -->
<!-- Title: LlamaLibrary.libllama_libPINVOKE.delete_LoggingContext Pages: 1 -->
<svg width="880pt" height="64pt"
 viewBox="0.00 0.00 880.00 64.00" xmlns="http://www.w3.org/2000/svg" xmlns:xlink="http://www.w3.org/1999/xlink">
<g id="graph0" class="graph" transform="scale(1 1) rotate(0) translate(4 60)">
<title>LlamaLibrary.libllama_libPINVOKE.delete_LoggingContext</title>
<!-- Node1 -->
<g id="Node000001" class="node">
<title>Node1</title>
<g id="a_Node000001"><a xlink:title=" ">
<polygon fill="#999999" stroke="#666666" points="872,-37 603,-37 603,-18 872,-18 872,-37"/>
<text text-anchor="middle" x="737.5" y="-25" font-family="Helvetica,sans-Serif" font-size="10.00">LlamaLibrary.libllama_libPINVOKE.delete_LoggingContext</text>
</a>
</g>
</g>
<!-- Node2 -->
<g id="Node000002" class="node">
<title>Node2</title>
<g id="a_Node000002"><a xlink:href="$class_llama_library_1_1_logging_context.html#ab6fd8a46d78d0662bcdb8a3a6129c08c" xlink:title=" ">
<polygon fill="white" stroke="#666666" points="567,-37 386,-37 386,-18 567,-18 567,-37"/>
<text text-anchor="middle" x="476.5" y="-25" font-family="Helvetica,sans-Serif" font-size="10.00">LlamaLibrary.LoggingContext.Dispose</text>
</a>
</g>
</g>
<!-- Node1&#45;&gt;Node2 -->
<g id="edge1_Node000001_Node000002" class="edge">
<title>Node1&#45;&gt;Node2</title>
<g id="a_edge1_Node000001_Node000002"><a xlink:title=" ">
<path fill="none" stroke="#63b8ff" d="M592.62,-27.5C583.95,-27.5 575.37,-27.5 567.03,-27.5"/>
<polygon fill="#63b8ff" stroke="#63b8ff" points="592.83,-31 602.83,-27.5 592.83,-24 592.83,-31"/>
</a>
</g>
</g>
<!-- Node3 -->
<g id="Node000003" class="node">
<title>Node3</title>
<g id="a_Node000003"><a xlink:href="$class_assets_1_1_styled_lines_1_1_runtime_1_1_llama_infrence_unity_1_1_run_model_async.html#aa84dadf5655e750a552e00475ae5b60b" xlink:title="Method called when the MonoBehaviour is destroyed. Disposes of model resources and cleans up the envi...">
<polygon fill="white" stroke="#666666" points="350,-56 0,-56 0,-37 350,-37 350,-56"/>
<text text-anchor="middle" x="175" y="-44" font-family="Helvetica,sans-Serif" font-size="10.00">Assets.StyledLines.Runtime.LlamaInfrenceUnity.RunModelAsync.OnDestroy</text>
</a>
</g>
</g>
<!-- Node2&#45;&gt;Node3 -->
<g id="edge2_Node000002_Node000003" class="edge">
<title>Node2&#45;&gt;Node3</title>
<g id="a_edge2_Node000002_Node000003"><a xlink:title=" ">
<path fill="none" stroke="#63b8ff" d="M375.33,-33.85C359.45,-34.86 342.72,-35.92 326,-36.98"/>
<polygon fill="#63b8ff" stroke="#63b8ff" points="375.88,-37.33 385.64,-33.2 375.44,-30.34 375.88,-37.33"/>
</a>
</g>
</g>
<!-- Node4 -->
<g id="Node000004" class="node">
<title>Node4</title>
<g id="a_Node000004"><a xlink:href="$class_llama_library_1_1_logging_context.html#a68039ac2c5ff27eaaf37769e8b703e28" xlink:title=" ">
<polygon fill="white" stroke="#666666" points="284.5,-19 65.5,-19 65.5,0 284.5,0 284.5,-19"/>
<text text-anchor="middle" x="175" y="-7" font-family="Helvetica,sans-Serif" font-size="10.00">LlamaLibrary.LoggingContext.~LoggingContext</text>
</a>
</g>
</g>
<!-- Node2&#45;&gt;Node4 -->
<g id="edge3_Node000002_Node000004" class="edge">
<title>Node2&#45;&gt;Node4</title>
<g id="a_edge3_Node000002_Node000004"><a xlink:title=" ">
<path fill="none" stroke="#63b8ff" d="M375.45,-21.49C346.27,-19.73 314.25,-17.81 284.57,-16.03"/>
<polygon fill="#63b8ff" stroke="#63b8ff" points="375.45,-24.99 385.64,-22.1 375.87,-18.01 375.45,-24.99"/>
</a>
</g>
</g>
</g>
</svg>
