<?xml version="1.0" encoding="UTF-8" standalone="no"?>
<!DOCTYPE svg PUBLIC "-//W3C//DTD SVG 1.1//EN"
 "http://www.w3.org/Graphics/SVG/1.1/DTD/svg11.dtd">
<!-- Generated by graphviz version 6.0.1 (20220911.1526)
 -->
<!-- Title: LlamaLibrary.Strings.Remove Pages: 1 -->
<svg width="499pt" height="64pt"
 viewBox="0.00 0.00 499.00 64.00" xmlns="http://www.w3.org/2000/svg" xmlns:xlink="http://www.w3.org/1999/xlink">
<g id="graph0" class="graph" transform="scale(1 1) rotate(0) translate(4 60)">
<title>LlamaLibrary.Strings.Remove</title>
<!-- Node1 -->
<g id="Node000001" class="node">
<title>Node1</title>
<g id="a_Node000001"><a xlink:title=" ">
<polygon fill="#999999" stroke="#666666" points="143,-37 0,-37 0,-18 143,-18 143,-37"/>
<text text-anchor="middle" x="71.5" y="-25" font-family="Helvetica,sans-Serif" font-size="10.00">LlamaLibrary.Strings.Remove</text>
</a>
</g>
</g>
<!-- Node2 -->
<g id="Node000002" class="node">
<title>Node2</title>
<g id="a_Node000002"><a xlink:href="class_llama_library_1_1libllama__lib_p_i_n_v_o_k_e_1_1_s_w_i_g_pending_exception.html#a2718a73540850b42db7c89e9be3519ec" target="_top" xlink:title=" ">
<polygon fill="white" stroke="#666666" points="491,-56 179,-56 179,-37 491,-37 491,-56"/>
<text text-anchor="middle" x="335" y="-44" font-family="Helvetica,sans-Serif" font-size="10.00">LlamaLibrary.libllama_libPINVOKE.SWIGPendingException.Retrieve</text>
</a>
</g>
</g>
<!-- Node1&#45;&gt;Node2 -->
<g id="edge1_Node000001_Node000002" class="edge">
<title>Node1&#45;&gt;Node2</title>
<g id="a_edge1_Node000001_Node000002"><a xlink:title=" ">
<path fill="none" stroke="#63b8ff" d="M143.27,-32.64C158.82,-33.77 175.82,-35.01 193.05,-36.26"/>
<polygon fill="#63b8ff" stroke="#63b8ff" points="192.99,-39.76 203.22,-37 193.5,-32.78 192.99,-39.76"/>
</a>
</g>
</g>
<!-- Node3 -->
<g id="Node000003" class="node">
<title>Node3</title>
<g id="a_Node000003"><a xlink:href="class_llama_library_1_1libllama__lib_p_i_n_v_o_k_e.html#a7a0f49a0c0fd2baebd62694dfa039d66" target="_top" xlink:title=" ">
<polygon fill="white" stroke="#666666" points="455,-19 215,-19 215,0 455,0 455,-19"/>
<text text-anchor="middle" x="335" y="-7" font-family="Helvetica,sans-Serif" font-size="10.00">LlamaLibrary.libllama_libPINVOKE.Strings_Remove</text>
</a>
</g>
</g>
<!-- Node1&#45;&gt;Node3 -->
<g id="edge2_Node000001_Node000003" class="edge">
<title>Node1&#45;&gt;Node3</title>
<g id="a_edge2_Node000001_Node000003"><a xlink:title=" ">
<path fill="none" stroke="#63b8ff" d="M143.27,-22.63C162.33,-21.32 183.57,-19.85 204.75,-18.4"/>
<polygon fill="#63b8ff" stroke="#63b8ff" points="205.07,-21.88 214.8,-17.7 204.59,-14.9 205.07,-21.88"/>
</a>
</g>
</g>
</g>
</svg>
