<?xml version="1.0" encoding="UTF-8" standalone="no"?>
<!DOCTYPE svg PUBLIC "-//W3C//DTD SVG 1.1//EN"
 "http://www.w3.org/Graphics/SVG/1.1/DTD/svg11.dtd">
<!-- Generated by graphviz version 6.0.1 (20220911.1526)
 -->
<!-- Title: LlamaLibrary.LlamaControlVectorLoadInfos.CopyTo Pages: 1 -->
<svg width="931pt" height="64pt"
 viewBox="0.00 0.00 931.00 64.00" xmlns="http://www.w3.org/2000/svg" xmlns:xlink="http://www.w3.org/1999/xlink">
<g id="graph0" class="graph" transform="scale(1 1) rotate(0) translate(4 60)">
<title>LlamaLibrary.LlamaControlVectorLoadInfos.CopyTo</title>
<!-- Node1 -->
<g id="Node000001" class="node">
<title>Node1</title>
<g id="a_Node000001"><a xlink:title=" ">
<polygon fill="#999999" stroke="#666666" points="238,-37 0,-37 0,-18 238,-18 238,-37"/>
<text text-anchor="middle" x="119" y="-25" font-family="Helvetica,sans-Serif" font-size="10.00">LlamaLibrary.LlamaControlVectorLoadInfos.CopyTo</text>
</a>
</g>
</g>
<!-- Node2 -->
<g id="Node000002" class="node">
<title>Node2</title>
<g id="a_Node000002"><a xlink:href="class_llama_library_1_1_llama_control_vector_load_infos.html#ad614ef85a8cb89bb39fdde5ed8ccf50d" target="_top" xlink:title=" ">
<polygon fill="white" stroke="#666666" points="532,-37 274,-37 274,-18 532,-18 532,-37"/>
<text text-anchor="middle" x="403" y="-25" font-family="Helvetica,sans-Serif" font-size="10.00">LlamaLibrary.LlamaControlVectorLoadInfos.getitemcopy</text>
</a>
</g>
</g>
<!-- Node1&#45;&gt;Node2 -->
<g id="edge1_Node000001_Node000002" class="edge">
<title>Node1&#45;&gt;Node2</title>
<g id="a_edge1_Node000001_Node000002"><a xlink:title=" ">
<path fill="none" stroke="#63b8ff" d="M238.37,-27.5C246.82,-27.5 255.38,-27.5 263.93,-27.5"/>
<polygon fill="#63b8ff" stroke="#63b8ff" points="263.95,-31 273.95,-27.5 263.95,-24 263.95,-31"/>
</a>
</g>
</g>
<!-- Node3 -->
<g id="Node000003" class="node">
<title>Node3</title>
<g id="a_Node000003"><a xlink:href="class_llama_library_1_1libllama__lib_p_i_n_v_o_k_e.html#a34fbe9e3bfacaab89d27456ebf65220b" target="_top" xlink:title=" ">
<polygon fill="white" stroke="#666666" points="923,-56 568,-56 568,-37 923,-37 923,-56"/>
<text text-anchor="middle" x="745.5" y="-44" font-family="Helvetica,sans-Serif" font-size="10.00">LlamaLibrary.libllama_libPINVOKE.LlamaControlVectorLoadInfos_getitemcopy</text>
</a>
</g>
</g>
<!-- Node2&#45;&gt;Node3 -->
<g id="edge2_Node000002_Node000003" class="edge">
<title>Node2&#45;&gt;Node3</title>
<g id="a_edge2_Node000002_Node000003"><a xlink:title=" ">
<path fill="none" stroke="#63b8ff" d="M532.24,-34.66C542.6,-35.23 553.18,-35.82 563.81,-36.42"/>
<polygon fill="#63b8ff" stroke="#63b8ff" points="563.84,-39.92 574.02,-36.99 564.23,-32.94 563.84,-39.92"/>
</a>
</g>
</g>
<!-- Node4 -->
<g id="Node000004" class="node">
<title>Node4</title>
<g id="a_Node000004"><a xlink:href="class_llama_library_1_1libllama__lib_p_i_n_v_o_k_e_1_1_s_w_i_g_pending_exception.html#a2718a73540850b42db7c89e9be3519ec" target="_top" xlink:title=" ">
<polygon fill="white" stroke="#666666" points="901.5,-19 589.5,-19 589.5,0 901.5,0 901.5,-19"/>
<text text-anchor="middle" x="745.5" y="-7" font-family="Helvetica,sans-Serif" font-size="10.00">LlamaLibrary.libllama_libPINVOKE.SWIGPendingException.Retrieve</text>
</a>
</g>
</g>
<!-- Node2&#45;&gt;Node4 -->
<g id="edge3_Node000002_Node000004" class="edge">
<title>Node2&#45;&gt;Node4</title>
<g id="a_edge3_Node000002_Node000004"><a xlink:title=" ">
<path fill="none" stroke="#63b8ff" d="M532.24,-20.72C547.55,-19.91 563.35,-19.08 579.08,-18.24"/>
<polygon fill="#63b8ff" stroke="#63b8ff" points="579.61,-21.72 589.41,-17.7 579.24,-14.73 579.61,-21.72"/>
</a>
</g>
</g>
</g>
</svg>
