<?xml version="1.0" encoding="UTF-8" standalone="no"?>
<!DOCTYPE svg PUBLIC "-//W3C//DTD SVG 1.1//EN"
 "http://www.w3.org/Graphics/SVG/1.1/DTD/svg11.dtd">
<!-- Generated by graphviz version 6.0.1 (20220911.1526)
 -->
<!-- Title: Assets.StyledLines.Runtime.DialogUtils.DialogTextMapper.Start Pages: 1 -->
<svg width="738pt" height="64pt"
 viewBox="0.00 0.00 738.00 64.00" xmlns="http://www.w3.org/2000/svg" xmlns:xlink="http://www.w3.org/1999/xlink">
<g id="graph0" class="graph" transform="scale(1 1) rotate(0) translate(4 60)">
<title>Assets.StyledLines.Runtime.DialogUtils.DialogTextMapper.Start</title>
<!-- Node1 -->
<g id="Node000001" class="node">
<title>Node1</title>
<g id="a_Node000001"><a xlink:title=" ">
<polygon fill="#999999" stroke="#666666" points="295,-37 0,-37 0,-18 295,-18 295,-37"/>
<text text-anchor="middle" x="147.5" y="-25" font-family="Helvetica,sans-Serif" font-size="10.00">Assets.StyledLines.Runtime.DialogUtils.DialogTextMapper.Start</text>
</a>
</g>
</g>
<!-- Node2 -->
<g id="Node000002" class="node">
<title>Node2</title>
<g id="a_Node000002"><a xlink:href="$class_assets_1_1_styled_lines_1_1_runtime_1_1_dialog_utils_1_1_dialog_text_mapper.html#a3be9e45c16cc0834bd2688435075447c" xlink:title=" ">
<polygon fill="white" stroke="#666666" points="716,-56 345,-56 345,-37 716,-37 716,-56"/>
<text text-anchor="middle" x="530.5" y="-44" font-family="Helvetica,sans-Serif" font-size="10.00">Assets.StyledLines.Runtime.DialogUtils.DialogTextMapper.OnDialogTextChanged</text>
</a>
</g>
</g>
<!-- Node1&#45;&gt;Node2 -->
<g id="edge1_Node000001_Node000002" class="edge">
<title>Node1&#45;&gt;Node2</title>
<g id="a_edge1_Node000001_Node000002"><a xlink:title=" ">
<path fill="none" stroke="#63b8ff" d="M295.26,-34.82C308.21,-35.46 321.44,-36.12 334.7,-36.79"/>
<polygon fill="#63b8ff" stroke="#63b8ff" points="334.67,-40.29 344.84,-37.29 335.02,-33.3 334.67,-40.29"/>
</a>
</g>
</g>
<!-- Node3 -->
<g id="Node000003" class="node">
<title>Node3</title>
<g id="a_Node000003"><a xlink:href="$class_assets_1_1_styled_lines_1_1_runtime_1_1_dialog_utils_1_1_dialog_text_mapper.html#a01198b1285422f9fbbb03ccd2eae08c4" xlink:title=" ">
<polygon fill="white" stroke="#666666" points="730,-19 331,-19 331,0 730,0 730,-19"/>
<text text-anchor="middle" x="530.5" y="-7" font-family="Helvetica,sans-Serif" font-size="10.00">Assets.StyledLines.Runtime.DialogUtils.DialogTextMapper.OnDialogTextExternalUpdate</text>
</a>
</g>
</g>
<!-- Node1&#45;&gt;Node3 -->
<g id="edge2_Node000001_Node000003" class="edge">
<title>Node1&#45;&gt;Node3</title>
<g id="a_edge2_Node000001_Node000003"><a xlink:title=" ">
<path fill="none" stroke="#63b8ff" d="M295.26,-20.57C303.7,-20.17 312.26,-19.76 320.86,-19.36"/>
<polygon fill="#63b8ff" stroke="#63b8ff" points="321.16,-22.85 330.99,-18.88 320.83,-15.85 321.16,-22.85"/>
</a>
</g>
</g>
</g>
</svg>
