<?xml version="1.0" encoding="UTF-8" standalone="no"?>
<!DOCTYPE svg PUBLIC "-//W3C//DTD SVG 1.1//EN"
 "http://www.w3.org/Graphics/SVG/1.1/DTD/svg11.dtd">
<!-- Generated by graphviz version 6.0.1 (20220911.1526)
 -->
<!-- Title: LlamaLibrary.AsyncLlamaInfrence.~AsyncLlamaInfrence Pages: 1 -->
<svg width="830pt" height="27pt"
 viewBox="0.00 0.00 830.00 27.00" xmlns="http://www.w3.org/2000/svg" xmlns:xlink="http://www.w3.org/1999/xlink">
<g id="graph0" class="graph" transform="scale(1 1) rotate(0) translate(4 23)">
<title>LlamaLibrary.AsyncLlamaInfrence.~AsyncLlamaInfrence</title>
<!-- Node1 -->
<g id="Node000001" class="node">
<title>Node1</title>
<g id="a_Node000001"><a xlink:title=" ">
<polygon fill="#999999" stroke="#666666" points="260,-19 0,-19 0,0 260,0 260,-19"/>
<text text-anchor="middle" x="130" y="-7" font-family="Helvetica,sans-Serif" font-size="10.00">LlamaLibrary.AsyncLlamaInfrence.~AsyncLlamaInfrence</text>
</a>
</g>
</g>
<!-- Node2 -->
<g id="Node000002" class="node">
<title>Node2</title>
<g id="a_Node000002"><a xlink:href="class_llama_library_1_1_async_llama_infrence.html#a32b189775ff5da836273149cf6cd1497" target="_top" xlink:title=" ">
<polygon fill="white" stroke="#666666" points="497,-19 296,-19 296,0 497,0 497,-19"/>
<text text-anchor="middle" x="396.5" y="-7" font-family="Helvetica,sans-Serif" font-size="10.00">LlamaLibrary.AsyncLlamaInfrence.Dispose</text>
</a>
</g>
</g>
<!-- Node1&#45;&gt;Node2 -->
<g id="edge1_Node000001_Node000002" class="edge">
<title>Node1&#45;&gt;Node2</title>
<g id="a_edge1_Node000001_Node000002"><a xlink:title=" ">
<path fill="none" stroke="#63b8ff" d="M260.15,-9.5C268.63,-9.5 277.14,-9.5 285.51,-9.5"/>
<polygon fill="#63b8ff" stroke="#63b8ff" points="285.66,-13 295.66,-9.5 285.66,-6 285.66,-13"/>
</a>
</g>
</g>
<!-- Node3 -->
<g id="Node000003" class="node">
<title>Node3</title>
<g id="a_Node000003"><a xlink:href="class_llama_library_1_1libllama__lib_p_i_n_v_o_k_e.html#af224ccbe4ec8c33a5ac0a278174281e3" target="_top" xlink:title=" ">
<polygon fill="white" stroke="#666666" points="822,-19 533,-19 533,0 822,0 822,-19"/>
<text text-anchor="middle" x="677.5" y="-7" font-family="Helvetica,sans-Serif" font-size="10.00">LlamaLibrary.libllama_libPINVOKE.delete_AsyncLlamaInfrence</text>
</a>
</g>
</g>
<!-- Node2&#45;&gt;Node3 -->
<g id="edge2_Node000002_Node000003" class="edge">
<title>Node2&#45;&gt;Node3</title>
<g id="a_edge2_Node000002_Node000003"><a xlink:title=" ">
<path fill="none" stroke="#63b8ff" d="M497.04,-9.5C505.37,-9.5 513.9,-9.5 522.5,-9.5"/>
<polygon fill="#63b8ff" stroke="#63b8ff" points="522.63,-13 532.63,-9.5 522.63,-6 522.63,-13"/>
</a>
</g>
</g>
</g>
</svg>
