<?xml version="1.0" encoding="UTF-8" standalone="no"?>
<!DOCTYPE svg PUBLIC "-//W3C//DTD SVG 1.1//EN"
 "http://www.w3.org/Graphics/SVG/1.1/DTD/svg11.dtd">
<!-- Generated by graphviz version 6.0.1 (20220911.1526)
 -->
<!-- Title: Assets.StyledLines.Runtime.LlamaInfrenceUnity.RunModelAsync.ThreadSafeString Pages: 1 -->
<svg width="379pt" height="87pt"
 viewBox="0.00 0.00 379.00 87.00" xmlns="http://www.w3.org/2000/svg" xmlns:xlink="http://www.w3.org/1999/xlink">
<g id="graph0" class="graph" transform="scale(1 1) rotate(0) translate(4 83)">
<title>Assets.StyledLines.Runtime.LlamaInfrenceUnity.RunModelAsync.ThreadSafeString</title>
<!-- Node1 -->
<g id="Node000001" class="node">
<title>Node1</title>
<g id="a_Node000001"><a xlink:title="A thread&#45;safe string wrapper to ensure safe access and modification from multiple threads.">
<polygon fill="#999999" stroke="none" points="371,-79 0,-79 0,0 371,0 371,-79"/>
<text text-anchor="start" x="5.5" y="-66.5" font-family="Helvetica,sans-Serif" font-size="10.00">Assets.StyledLines.Runtime.LlamaInfrenceUnity.RunModelAsync.ThreadSafeString</text>
<text text-anchor="start" x="62" y="-51.5" font-family="Helvetica,sans-Serif" font-size="10.00">+</text>
<text text-anchor="start" x="130.5" y="-51.5" font-family="Helvetica,sans-Serif" font-size="10.00">string Data</text>
<text text-anchor="start" x="63.5" y="-36.5" font-family="Helvetica,sans-Serif" font-size="10.00">&#45;</text>
<text text-anchor="start" x="130.5" y="-36.5" font-family="Helvetica,sans-Serif" font-size="10.00">string _data</text>
<text text-anchor="start" x="63.5" y="-21.5" font-family="Helvetica,sans-Serif" font-size="10.00">&#45;</text>
<text text-anchor="start" x="130.5" y="-21.5" font-family="Helvetica,sans-Serif" font-size="10.00">readonly object _lockObject</text>
<text text-anchor="start" x="62" y="-6.5" font-family="Helvetica,sans-Serif" font-size="10.00">+</text>
<text text-anchor="start" x="130.5" y="-6.5" font-family="Helvetica,sans-Serif" font-size="10.00">string GetDataAndClear()</text>
<polygon fill="#666666" stroke="#666666" points="0.5,-61.5 0.5,-61.5 371.5,-61.5 371.5,-61.5 0.5,-61.5"/>
<polygon fill="#666666" stroke="#666666" points="0.5,-16.5 0.5,-16.5 128.5,-16.5 128.5,-16.5 0.5,-16.5"/>
<polygon fill="#666666" stroke="#666666" points="128.5,-16.5 128.5,-16.5 371.5,-16.5 371.5,-16.5 128.5,-16.5"/>
<polygon fill="none" stroke="#666666" points="0,0 0,-79 371,-79 371,0 0,0"/>
</a>
</g>
</g>
</g>
</svg>
