<?xml version="1.0" encoding="UTF-8" standalone="no"?>
<!DOCTYPE svg PUBLIC "-//W3C//DTD SVG 1.1//EN"
 "http://www.w3.org/Graphics/SVG/1.1/DTD/svg11.dtd">
<!-- Generated by graphviz version 6.0.1 (20220911.1526)
 -->
<!-- Title: LlamaLibrary.LlamaControlVectorLoadInfos.getitemcopy Pages: 1 -->
<svg width="657pt" height="64pt"
 viewBox="0.00 0.00 657.00 64.00" xmlns="http://www.w3.org/2000/svg" xmlns:xlink="http://www.w3.org/1999/xlink">
<g id="graph0" class="graph" transform="scale(1 1) rotate(0) translate(4 60)">
<title>LlamaLibrary.LlamaControlVectorLoadInfos.getitemcopy</title>
<!-- Node1 -->
<g id="Node000001" class="node">
<title>Node1</title>
<g id="a_Node000001"><a xlink:title=" ">
<polygon fill="#999999" stroke="#666666" points="258,-37 0,-37 0,-18 258,-18 258,-37"/>
<text text-anchor="middle" x="129" y="-25" font-family="Helvetica,sans-Serif" font-size="10.00">LlamaLibrary.LlamaControlVectorLoadInfos.getitemcopy</text>
</a>
</g>
</g>
<!-- Node2 -->
<g id="Node000002" class="node">
<title>Node2</title>
<g id="a_Node000002"><a xlink:href="$class_llama_library_1_1libllama__lib_p_i_n_v_o_k_e.html#a34fbe9e3bfacaab89d27456ebf65220b" xlink:title=" ">
<polygon fill="white" stroke="#666666" points="649,-56 294,-56 294,-37 649,-37 649,-56"/>
<text text-anchor="middle" x="471.5" y="-44" font-family="Helvetica,sans-Serif" font-size="10.00">LlamaLibrary.libllama_libPINVOKE.LlamaControlVectorLoadInfos_getitemcopy</text>
</a>
</g>
</g>
<!-- Node1&#45;&gt;Node2 -->
<g id="edge1_Node000001_Node000002" class="edge">
<title>Node1&#45;&gt;Node2</title>
<g id="a_edge1_Node000001_Node000002"><a xlink:title=" ">
<path fill="none" stroke="#63b8ff" d="M258.24,-34.66C268.6,-35.23 279.18,-35.82 289.81,-36.42"/>
<polygon fill="#63b8ff" stroke="#63b8ff" points="289.84,-39.92 300.02,-36.99 290.23,-32.94 289.84,-39.92"/>
</a>
</g>
</g>
<!-- Node3 -->
<g id="Node000003" class="node">
<title>Node3</title>
<g id="a_Node000003"><a xlink:href="$class_llama_library_1_1libllama__lib_p_i_n_v_o_k_e_1_1_s_w_i_g_pending_exception.html#a2718a73540850b42db7c89e9be3519ec" xlink:title=" ">
<polygon fill="white" stroke="#666666" points="627.5,-19 315.5,-19 315.5,0 627.5,0 627.5,-19"/>
<text text-anchor="middle" x="471.5" y="-7" font-family="Helvetica,sans-Serif" font-size="10.00">LlamaLibrary.libllama_libPINVOKE.SWIGPendingException.Retrieve</text>
</a>
</g>
</g>
<!-- Node1&#45;&gt;Node3 -->
<g id="edge2_Node000001_Node000003" class="edge">
<title>Node1&#45;&gt;Node3</title>
<g id="a_edge2_Node000001_Node000003"><a xlink:title=" ">
<path fill="none" stroke="#63b8ff" d="M258.24,-20.72C273.55,-19.91 289.35,-19.08 305.08,-18.24"/>
<polygon fill="#63b8ff" stroke="#63b8ff" points="305.61,-21.72 315.41,-17.7 305.24,-14.73 305.61,-21.72"/>
</a>
</g>
</g>
</g>
</svg>
