<?xml version="1.0" encoding="UTF-8" standalone="no"?>
<!DOCTYPE svg PUBLIC "-//W3C//DTD SVG 1.1//EN"
 "http://www.w3.org/Graphics/SVG/1.1/DTD/svg11.dtd">
<!-- Generated by graphviz version 6.0.1 (20220911.1526)
 -->
<!-- Title: LlamaLibrary.StringsAndFloats.setitem Pages: 1 -->
<svg width="541pt" height="101pt"
 viewBox="0.00 0.00 541.00 101.00" xmlns="http://www.w3.org/2000/svg" xmlns:xlink="http://www.w3.org/1999/xlink">
<g id="graph0" class="graph" transform="scale(1 1) rotate(0) translate(4 97)">
<title>LlamaLibrary.StringsAndFloats.setitem</title>
<!-- Node1 -->
<g id="Node000001" class="node">
<title>Node1</title>
<g id="a_Node000001"><a xlink:title=" ">
<polygon fill="#999999" stroke="#666666" points="185,-56 0,-56 0,-37 185,-37 185,-56"/>
<text text-anchor="middle" x="92.5" y="-44" font-family="Helvetica,sans-Serif" font-size="10.00">LlamaLibrary.StringsAndFloats.setitem</text>
</a>
</g>
</g>
<!-- Node2 -->
<g id="Node000002" class="node">
<title>Node2</title>
<g id="a_Node000002"><a xlink:href="class_llama_library_1_1_string_and_float.html#a3de7dd13f6e517516b6a9f4348c2eaed" target="_top" xlink:title=" ">
<polygon fill="white" stroke="#666666" points="465,-93 289,-93 289,-74 465,-74 465,-93"/>
<text text-anchor="middle" x="377" y="-81" font-family="Helvetica,sans-Serif" font-size="10.00">LlamaLibrary.StringAndFloat.getCPtr</text>
</a>
</g>
</g>
<!-- Node1&#45;&gt;Node2 -->
<g id="edge1_Node000001_Node000002" class="edge">
<title>Node1&#45;&gt;Node2</title>
<g id="a_edge1_Node000001_Node000002"><a xlink:title=" ">
<path fill="none" stroke="#63b8ff" d="M154.73,-56.03C175.72,-59.19 199.37,-62.63 221,-65.5 239.98,-68.02 260.3,-70.51 279.76,-72.81"/>
<polygon fill="#63b8ff" stroke="#63b8ff" points="279.51,-76.31 289.85,-74 280.33,-69.36 279.51,-76.31"/>
</a>
</g>
</g>
<!-- Node3 -->
<g id="Node000003" class="node">
<title>Node3</title>
<g id="a_Node000003"><a xlink:href="class_llama_library_1_1libllama__lib_p_i_n_v_o_k_e_1_1_s_w_i_g_pending_exception.html#a2718a73540850b42db7c89e9be3519ec" target="_top" xlink:title=" ">
<polygon fill="white" stroke="#666666" points="533,-56 221,-56 221,-37 533,-37 533,-56"/>
<text text-anchor="middle" x="377" y="-44" font-family="Helvetica,sans-Serif" font-size="10.00">LlamaLibrary.libllama_libPINVOKE.SWIGPendingException.Retrieve</text>
</a>
</g>
</g>
<!-- Node1&#45;&gt;Node3 -->
<g id="edge2_Node000001_Node000003" class="edge">
<title>Node1&#45;&gt;Node3</title>
<g id="a_edge2_Node000001_Node000003"><a xlink:title=" ">
<path fill="none" stroke="#63b8ff" d="M185.22,-46.5C193.5,-46.5 202.04,-46.5 210.7,-46.5"/>
<polygon fill="#63b8ff" stroke="#63b8ff" points="210.92,-50 220.92,-46.5 210.92,-43 210.92,-50"/>
</a>
</g>
</g>
<!-- Node4 -->
<g id="Node000004" class="node">
<title>Node4</title>
<g id="a_Node000004"><a xlink:href="class_llama_library_1_1libllama__lib_p_i_n_v_o_k_e.html#a24f7ae8a813f419653fe9d6716bb9050" target="_top" xlink:title=" ">
<polygon fill="white" stroke="#666666" points="518,-19 236,-19 236,0 518,0 518,-19"/>
<text text-anchor="middle" x="377" y="-7" font-family="Helvetica,sans-Serif" font-size="10.00">LlamaLibrary.libllama_libPINVOKE.StringsAndFloats_setitem</text>
</a>
</g>
</g>
<!-- Node1&#45;&gt;Node4 -->
<g id="edge3_Node000001_Node000004" class="edge">
<title>Node1&#45;&gt;Node4</title>
<g id="a_edge3_Node000001_Node000004"><a xlink:title=" ">
<path fill="none" stroke="#63b8ff" d="M159.31,-36.97C179.13,-34.17 200.94,-31.14 221,-28.5 242,-25.73 264.62,-22.88 285.91,-20.26"/>
<polygon fill="#63b8ff" stroke="#63b8ff" points="286.42,-23.73 295.92,-19.03 285.56,-16.78 286.42,-23.73"/>
</a>
</g>
</g>
</g>
</svg>
