<?xml version="1.0" encoding="UTF-8" standalone="no"?>
<!DOCTYPE svg PUBLIC "-//W3C//DTD SVG 1.1//EN"
 "http://www.w3.org/Graphics/SVG/1.1/DTD/svg11.dtd">
<!-- Generated by graphviz version 6.0.1 (20220911.1526)
 -->
<!-- Title: LlamaLibrary.StringsAndFloats.SetRange Pages: 1 -->
<svg width="552pt" height="101pt"
 viewBox="0.00 0.00 552.00 101.00" xmlns="http://www.w3.org/2000/svg" xmlns:xlink="http://www.w3.org/1999/xlink">
<g id="graph0" class="graph" transform="scale(1 1) rotate(0) translate(4 97)">
<title>LlamaLibrary.StringsAndFloats.SetRange</title>
<!-- Node1 -->
<g id="Node000001" class="node">
<title>Node1</title>
<g id="a_Node000001"><a xlink:title=" ">
<polygon fill="#999999" stroke="#666666" points="196,-56 0,-56 0,-37 196,-37 196,-56"/>
<text text-anchor="middle" x="98" y="-44" font-family="Helvetica,sans-Serif" font-size="10.00">LlamaLibrary.StringsAndFloats.SetRange</text>
</a>
</g>
</g>
<!-- Node2 -->
<g id="Node000002" class="node">
<title>Node2</title>
<g id="a_Node000002"><a xlink:href="$class_llama_library_1_1_strings_and_floats.html#a87d81ca3abf338223215702b83893985" xlink:title=" ">
<polygon fill="white" stroke="#666666" points="481,-93 295,-93 295,-74 481,-74 481,-93"/>
<text text-anchor="middle" x="388" y="-81" font-family="Helvetica,sans-Serif" font-size="10.00">LlamaLibrary.StringsAndFloats.getCPtr</text>
</a>
</g>
</g>
<!-- Node1&#45;&gt;Node2 -->
<g id="edge1_Node000001_Node000002" class="edge">
<title>Node1&#45;&gt;Node2</title>
<g id="a_edge1_Node000001_Node000002"><a xlink:title=" ">
<path fill="none" stroke="#63b8ff" d="M163.22,-56.02C185.03,-59.16 209.56,-62.59 232,-65.5 251.22,-67.99 271.8,-70.49 291.48,-72.81"/>
<polygon fill="#63b8ff" stroke="#63b8ff" points="291.34,-76.31 301.68,-74 292.15,-69.36 291.34,-76.31"/>
</a>
</g>
</g>
<!-- Node3 -->
<g id="Node000003" class="node">
<title>Node3</title>
<g id="a_Node000003"><a xlink:href="$class_llama_library_1_1libllama__lib_p_i_n_v_o_k_e_1_1_s_w_i_g_pending_exception.html#a2718a73540850b42db7c89e9be3519ec" xlink:title=" ">
<polygon fill="white" stroke="#666666" points="544,-56 232,-56 232,-37 544,-37 544,-56"/>
<text text-anchor="middle" x="388" y="-44" font-family="Helvetica,sans-Serif" font-size="10.00">LlamaLibrary.libllama_libPINVOKE.SWIGPendingException.Retrieve</text>
</a>
</g>
</g>
<!-- Node1&#45;&gt;Node3 -->
<g id="edge2_Node000001_Node000003" class="edge">
<title>Node1&#45;&gt;Node3</title>
<g id="a_edge2_Node000001_Node000003"><a xlink:title=" ">
<path fill="none" stroke="#63b8ff" d="M196.1,-46.5C204.44,-46.5 213,-46.5 221.68,-46.5"/>
<polygon fill="#63b8ff" stroke="#63b8ff" points="221.9,-50 231.9,-46.5 221.9,-43 221.9,-50"/>
</a>
</g>
</g>
<!-- Node4 -->
<g id="Node000004" class="node">
<title>Node4</title>
<g id="a_Node000004"><a xlink:href="$class_llama_library_1_1libllama__lib_p_i_n_v_o_k_e.html#a91aed69920374a2692ec619bd91e57e0" xlink:title=" ">
<polygon fill="white" stroke="#666666" points="534.5,-19 241.5,-19 241.5,0 534.5,0 534.5,-19"/>
<text text-anchor="middle" x="388" y="-7" font-family="Helvetica,sans-Serif" font-size="10.00">LlamaLibrary.libllama_libPINVOKE.StringsAndFloats_SetRange</text>
</a>
</g>
</g>
<!-- Node1&#45;&gt;Node4 -->
<g id="edge3_Node000001_Node000004" class="edge">
<title>Node1&#45;&gt;Node4</title>
<g id="a_edge3_Node000001_Node000004"><a xlink:title=" ">
<path fill="none" stroke="#63b8ff" d="M168.01,-36.99C188.59,-34.2 211.2,-31.18 232,-28.5 253.24,-25.76 276.13,-22.9 297.63,-20.26"/>
<polygon fill="#63b8ff" stroke="#63b8ff" points="298.23,-23.71 307.73,-19.02 297.37,-16.77 298.23,-23.71"/>
</a>
</g>
</g>
</g>
</svg>
