<?xml version="1.0" encoding="UTF-8" standalone="no"?>
<!DOCTYPE svg PUBLIC "-//W3C//DTD SVG 1.1//EN"
 "http://www.w3.org/Graphics/SVG/1.1/DTD/svg11.dtd">
<!-- Generated by graphviz version 6.0.1 (20220911.1526)
 -->
<!-- Title: LlamaLibrary.StringAndFloat.getCPtr Pages: 1 -->
<svg width="669pt" height="156pt"
 viewBox="0.00 0.00 669.00 156.00" xmlns="http://www.w3.org/2000/svg" xmlns:xlink="http://www.w3.org/1999/xlink">
<g id="graph0" class="graph" transform="scale(1 1) rotate(0) translate(4 152)">
<title>LlamaLibrary.StringAndFloat.getCPtr</title>
<!-- Node1 -->
<g id="Node000001" class="node">
<title>Node1</title>
<g id="a_Node000001"><a xlink:title=" ">
<polygon fill="#999999" stroke="#666666" points="661,-74 485,-74 485,-55 661,-55 661,-74"/>
<text text-anchor="middle" x="573" y="-62" font-family="Helvetica,sans-Serif" font-size="10.00">LlamaLibrary.StringAndFloat.getCPtr</text>
</a>
</g>
</g>
<!-- Node2 -->
<g id="Node000002" class="node">
<title>Node2</title>
<g id="a_Node000002"><a xlink:href="class_llama_library_1_1_strings_and_floats.html#a040fc7eb962d0bb58697fdd36f6660ec" target="_top" xlink:title=" ">
<polygon fill="white" stroke="#666666" points="441.5,-130 271.5,-130 271.5,-111 441.5,-111 441.5,-130"/>
<text text-anchor="middle" x="356.5" y="-118" font-family="Helvetica,sans-Serif" font-size="10.00">LlamaLibrary.StringsAndFloats.Add</text>
</a>
</g>
</g>
<!-- Node1&#45;&gt;Node2 -->
<g id="edge1_Node000001_Node000002" class="edge">
<title>Node1&#45;&gt;Node2</title>
<g id="a_edge1_Node000001_Node000002"><a xlink:title=" ">
<path fill="none" stroke="#63b8ff" d="M534.39,-77.25C510.18,-85.17 477.95,-95.2 449,-102.5 436.75,-105.59 423.48,-108.46 410.93,-110.97"/>
<polygon fill="#63b8ff" stroke="#63b8ff" points="535.51,-80.57 543.9,-74.11 533.31,-73.92 535.51,-80.57"/>
</a>
</g>
</g>
<!-- Node5 -->
<g id="Node000005" class="node">
<title>Node5</title>
<g id="a_Node000005"><a xlink:href="class_llama_library_1_1_strings_and_floats.html#a4f7b6ee65b85130dd07db32cf3b5a5a1" target="_top" xlink:title=" ">
<polygon fill="white" stroke="#666666" points="445,-93 268,-93 268,-74 445,-74 445,-93"/>
<text text-anchor="middle" x="356.5" y="-81" font-family="Helvetica,sans-Serif" font-size="10.00">LlamaLibrary.StringsAndFloats.Insert</text>
</a>
</g>
</g>
<!-- Node1&#45;&gt;Node5 -->
<g id="edge4_Node000001_Node000005" class="edge">
<title>Node1&#45;&gt;Node5</title>
<g id="a_edge4_Node000001_Node000005"><a xlink:title=" ">
<path fill="none" stroke="#63b8ff" d="M474.55,-73.13C464.7,-74 454.75,-74.89 445.02,-75.75"/>
<polygon fill="#63b8ff" stroke="#63b8ff" points="475.1,-76.6 484.75,-72.23 474.48,-69.62 475.1,-76.6"/>
</a>
</g>
</g>
<!-- Node6 -->
<g id="Node000006" class="node">
<title>Node6</title>
<g id="a_Node000006"><a xlink:href="class_llama_library_1_1_strings_and_floats.html#a58ee0d05d6195c3cb3408face92df765" target="_top" xlink:title=" ">
<polygon fill="white" stroke="#666666" points="448.5,-56 264.5,-56 264.5,-37 448.5,-37 448.5,-56"/>
<text text-anchor="middle" x="356.5" y="-44" font-family="Helvetica,sans-Serif" font-size="10.00">LlamaLibrary.StringsAndFloats.Repeat</text>
</a>
</g>
</g>
<!-- Node1&#45;&gt;Node6 -->
<g id="edge5_Node000001_Node000006" class="edge">
<title>Node1&#45;&gt;Node6</title>
<g id="a_edge5_Node000001_Node000006"><a xlink:title=" ">
<path fill="none" stroke="#63b8ff" d="M474.61,-56.33C465.92,-55.6 457.14,-54.86 448.51,-54.14"/>
<polygon fill="#63b8ff" stroke="#63b8ff" points="474.5,-59.83 484.75,-57.18 475.08,-52.85 474.5,-59.83"/>
</a>
</g>
</g>
<!-- Node7 -->
<g id="Node000007" class="node">
<title>Node7</title>
<g id="a_Node000007"><a xlink:href="class_llama_library_1_1_strings_and_floats.html#a7b4f698153dd216136c7df08c39a6f4f" target="_top" xlink:title=" ">
<polygon fill="white" stroke="#666666" points="449,-19 264,-19 264,0 449,0 449,-19"/>
<text text-anchor="middle" x="356.5" y="-7" font-family="Helvetica,sans-Serif" font-size="10.00">LlamaLibrary.StringsAndFloats.setitem</text>
</a>
</g>
</g>
<!-- Node1&#45;&gt;Node7 -->
<g id="edge6_Node000001_Node000007" class="edge">
<title>Node1&#45;&gt;Node7</title>
<g id="a_edge6_Node000001_Node000007"><a xlink:title=" ">
<path fill="none" stroke="#63b8ff" d="M532.06,-51.93C508.1,-44.61 476.96,-35.48 449,-28.5 435.46,-25.12 420.69,-21.87 407.05,-19.04"/>
<polygon fill="#63b8ff" stroke="#63b8ff" points="531.27,-55.35 541.86,-54.94 533.33,-48.66 531.27,-55.35"/>
</a>
</g>
</g>
<!-- Node3 -->
<g id="Node000003" class="node">
<title>Node3</title>
<g id="a_Node000003"><a xlink:href="class_llama_library_1_1_strings_and_floats.html#a5c9646133ce9277eb6e9ff67f73c77fc" target="_top" xlink:title=" ">
<polygon fill="white" stroke="#666666" points="228,-148 0,-148 0,-129 228,-129 228,-148"/>
<text text-anchor="middle" x="114" y="-136" font-family="Helvetica,sans-Serif" font-size="10.00">LlamaLibrary.StringsAndFloats.StringsAndFloats</text>
</a>
</g>
</g>
<!-- Node2&#45;&gt;Node3 -->
<g id="edge2_Node000002_Node000003" class="edge">
<title>Node2&#45;&gt;Node3</title>
<g id="a_edge2_Node000002_Node000003"><a xlink:title=" ">
<path fill="none" stroke="#63b8ff" d="M261.13,-127.56C250.34,-128.37 239.25,-129.2 228.24,-130.03"/>
<polygon fill="#63b8ff" stroke="#63b8ff" points="261.67,-131.03 271.38,-126.8 261.15,-124.05 261.67,-131.03"/>
</a>
</g>
</g>
<!-- Node4 -->
<g id="Node000004" class="node">
<title>Node4</title>
<g id="a_Node000004"><a xlink:href="class_llama_library_1_1_strings_and_floats.html#a8b5e4d9199d5843ed34e475c4e363936" target="_top" xlink:title=" ">
<polygon fill="white" stroke="#666666" points="228,-111 0,-111 0,-92 228,-92 228,-111"/>
<text text-anchor="middle" x="114" y="-99" font-family="Helvetica,sans-Serif" font-size="10.00">LlamaLibrary.StringsAndFloats.StringsAndFloats</text>
</a>
</g>
</g>
<!-- Node2&#45;&gt;Node4 -->
<g id="edge3_Node000002_Node000004" class="edge">
<title>Node2&#45;&gt;Node4</title>
<g id="a_edge3_Node000002_Node000004"><a xlink:title=" ">
<path fill="none" stroke="#63b8ff" d="M261.13,-113.04C250.34,-112.19 239.25,-111.32 228.24,-110.45"/>
<polygon fill="#63b8ff" stroke="#63b8ff" points="261.14,-116.56 271.38,-113.85 261.69,-109.58 261.14,-116.56"/>
</a>
</g>
</g>
</g>
</svg>
