<?xml version="1.0" encoding="UTF-8" standalone="no"?>
<!DOCTYPE svg PUBLIC "-//W3C//DTD SVG 1.1//EN"
 "http://www.w3.org/Graphics/SVG/1.1/DTD/svg11.dtd">
<!-- Generated by graphviz version 6.0.1 (20220911.1526)
 -->
<!-- Title: Assets.StyledLines.Runtime.UIHelpers.PrintModelState.OnStateChanged Pages: 1 -->
<svg width="687pt" height="64pt"
 viewBox="0.00 0.00 687.00 64.00" xmlns="http://www.w3.org/2000/svg" xmlns:xlink="http://www.w3.org/1999/xlink">
<g id="graph0" class="graph" transform="scale(1 1) rotate(0) translate(4 60)">
<title>Assets.StyledLines.Runtime.UIHelpers.PrintModelState.OnStateChanged</title>
<!-- Node1 -->
<g id="Node000001" class="node">
<title>Node1</title>
<g id="a_Node000001"><a xlink:title=" ">
<polygon fill="#999999" stroke="#666666" points="679,-37 344,-37 344,-18 679,-18 679,-37"/>
<text text-anchor="middle" x="511.5" y="-25" font-family="Helvetica,sans-Serif" font-size="10.00">Assets.StyledLines.Runtime.UIHelpers.PrintModelState.OnStateChanged</text>
</a>
</g>
</g>
<!-- Node2 -->
<g id="Node000002" class="node">
<title>Node2</title>
<g id="a_Node000002"><a xlink:href="$class_assets_1_1_styled_lines_1_1_runtime_1_1_u_i_helpers_1_1_print_model_state.html#a1dd7e8c431b24e0e0b25734dea5097a8" xlink:title=" ">
<polygon fill="white" stroke="#666666" points="308,-56 0,-56 0,-37 308,-37 308,-56"/>
<text text-anchor="middle" x="154" y="-44" font-family="Helvetica,sans-Serif" font-size="10.00">Assets.StyledLines.Runtime.UIHelpers.PrintModelState.OnDestroy</text>
</a>
</g>
</g>
<!-- Node1&#45;&gt;Node2 -->
<g id="edge1_Node000001_Node000002" class="edge">
<title>Node1&#45;&gt;Node2</title>
<g id="a_edge1_Node000001_Node000002"><a xlink:title=" ">
<path fill="none" stroke="#63b8ff" d="M333.87,-36.94C325.29,-37.4 316.71,-37.86 308.2,-38.31"/>
<polygon fill="#63b8ff" stroke="#63b8ff" points="334.14,-40.43 343.94,-36.4 333.77,-33.44 334.14,-40.43"/>
</a>
</g>
</g>
<!-- Node3 -->
<g id="Node000003" class="node">
<title>Node3</title>
<g id="a_Node000003"><a xlink:href="$class_assets_1_1_styled_lines_1_1_runtime_1_1_u_i_helpers_1_1_print_model_state.html#a6d3d23463ea80dc6a0107f823f949779" xlink:title=" ">
<polygon fill="white" stroke="#666666" points="295,-19 13,-19 13,0 295,0 295,-19"/>
<text text-anchor="middle" x="154" y="-7" font-family="Helvetica,sans-Serif" font-size="10.00">Assets.StyledLines.Runtime.UIHelpers.PrintModelState.Start</text>
</a>
</g>
</g>
<!-- Node1&#45;&gt;Node3 -->
<g id="edge2_Node000001_Node000003" class="edge">
<title>Node1&#45;&gt;Node3</title>
<g id="a_edge2_Node000001_Node000003"><a xlink:title=" ">
<path fill="none" stroke="#63b8ff" d="M333.59,-18.54C320.67,-17.89 307.75,-17.23 295.09,-16.59"/>
<polygon fill="#63b8ff" stroke="#63b8ff" points="333.78,-22.06 343.94,-19.07 334.13,-15.07 333.78,-22.06"/>
</a>
</g>
</g>
</g>
</svg>
