<?xml version="1.0" encoding="UTF-8" standalone="no"?>
<!DOCTYPE svg PUBLIC "-//W3C//DTD SVG 1.1//EN"
 "http://www.w3.org/Graphics/SVG/1.1/DTD/svg11.dtd">
<!-- Generated by graphviz version 6.0.1 (20220911.1526)
 -->
<!-- Title: Assets.StyledLines.Runtime.DialogUtils.DialogTextMapper Pages: 1 -->
<svg width="273pt" height="187pt"
 viewBox="0.00 0.00 273.00 187.00" xmlns="http://www.w3.org/2000/svg" xmlns:xlink="http://www.w3.org/1999/xlink">
<g id="graph0" class="graph" transform="scale(1 1) rotate(0) translate(4 183)">
<title>Assets.StyledLines.Runtime.DialogUtils.DialogTextMapper</title>
<!-- Node1 -->
<g id="Node000001" class="node">
<title>Node1</title>
<g id="a_Node000001"><a xlink:title=" ">
<polygon fill="#999999" stroke="none" points="265,-94 0,-94 0,0 265,0 265,-94"/>
<text text-anchor="start" x="5.5" y="-82" font-family="Helvetica,sans-Serif" font-size="10.00">Assets.StyledLines.Runtime.DialogUtils.DialogTextMapper</text>
<text text-anchor="start" x="6.5" y="-67" font-family="Helvetica,sans-Serif" font-size="10.00">&#45;</text>
<text text-anchor="start" x="16.5" y="-67" font-family="Helvetica,sans-Serif" font-size="10.00">TMP_InputField dialogInputField</text>
<text text-anchor="start" x="6.5" y="-52" font-family="Helvetica,sans-Serif" font-size="10.00">&#45;</text>
<text text-anchor="start" x="16.5" y="-52" font-family="Helvetica,sans-Serif" font-size="10.00">DialogManager dialogManager</text>
<text text-anchor="start" x="6.5" y="-37" font-family="Helvetica,sans-Serif" font-size="10.00">&#45;</text>
<text text-anchor="start" x="16.5" y="-37" font-family="Helvetica,sans-Serif" font-size="10.00">void OnDialogTextChanged(string newDialogText)</text>
<text text-anchor="start" x="6.5" y="-22" font-family="Helvetica,sans-Serif" font-size="10.00">&#45;</text>
<text text-anchor="start" x="16.5" y="-22" font-family="Helvetica,sans-Serif" font-size="10.00">void OnDialogTextExternalUpdate(string newDialogText)</text>
<text text-anchor="start" x="6.5" y="-7" font-family="Helvetica,sans-Serif" font-size="10.00">&#45;</text>
<text text-anchor="start" x="16.5" y="-7" font-family="Helvetica,sans-Serif" font-size="10.00">void Start()</text>
<polygon fill="#666666" stroke="#666666" points="0.5,-77 0.5,-77 265.5,-77 265.5,-77 0.5,-77"/>
<polygon fill="#666666" stroke="#666666" points="0.5,-47 0.5,-47 14.5,-47 14.5,-47 0.5,-47"/>
<polygon fill="#666666" stroke="#666666" points="14.5,-47 14.5,-47 265.5,-47 265.5,-47 14.5,-47"/>
<polygon fill="none" stroke="#666666" points="0,0 0,-94 265,-94 265,0 0,0"/>
</a>
</g>
</g>
<!-- Node2 -->
<g id="Node000002" class="node">
<title>Node2</title>
<g id="a_Node000002"><a xlink:title=" ">
<polygon fill="white" stroke="none" points="171,-179 94,-179 94,-130 171,-130 171,-179"/>
<text text-anchor="start" x="99.5" y="-166.5" font-family="Helvetica,sans-Serif" font-size="10.00">MonoBehaviour</text>
<text text-anchor="start" x="131" y="-151.5" font-family="Helvetica,sans-Serif" font-size="10.00"> </text>
<text text-anchor="start" x="131" y="-136.5" font-family="Helvetica,sans-Serif" font-size="10.00"> </text>
<polygon fill="#666666" stroke="#666666" points="94.5,-161.5 94.5,-161.5 171.5,-161.5 171.5,-161.5 94.5,-161.5"/>
<polygon fill="#666666" stroke="#666666" points="94.5,-146.5 94.5,-146.5 171.5,-146.5 171.5,-146.5 94.5,-146.5"/>
<polygon fill="none" stroke="#666666" points="94,-130 94,-179 171,-179 171,-130 94,-130"/>
</a>
</g>
</g>
<!-- Node2&#45;&gt;Node1 -->
<g id="edge1_Node000001_Node000002" class="edge">
<title>Node2&#45;&gt;Node1</title>
<g id="a_edge1_Node000001_Node000002"><a xlink:title=" ">
<path fill="none" stroke="#63b8ff" d="M132.5,-119.61C132.5,-111.48 132.5,-102.66 132.5,-94.08"/>
<polygon fill="none" stroke="#63b8ff" points="129,-119.82 132.5,-129.82 136,-119.82 129,-119.82"/>
</a>
</g>
</g>
</g>
</svg>
