<?xml version="1.0" encoding="UTF-8" standalone="no"?>
<!DOCTYPE svg PUBLIC "-//W3C//DTD SVG 1.1//EN"
 "http://www.w3.org/Graphics/SVG/1.1/DTD/svg11.dtd">
<!-- Generated by graphviz version 6.0.1 (20220911.1526)
 -->
<!-- Title: Assets.StyledLines.Runtime.LlamaInfrenceUnity.RunModelAsync.Update Pages: 1 -->
<svg width="1229pt" height="101pt"
 viewBox="0.00 0.00 1229.00 101.00" xmlns="http://www.w3.org/2000/svg" xmlns:xlink="http://www.w3.org/1999/xlink">
<g id="graph0" class="graph" transform="scale(1 1) rotate(0) translate(4 97)">
<title>Assets.StyledLines.Runtime.LlamaInfrenceUnity.RunModelAsync.Update</title>
<!-- Node1 -->
<g id="Node000001" class="node">
<title>Node1</title>
<g id="a_Node000001"><a xlink:title="Method called every frame to update the state of the model and handle output.">
<polygon fill="#999999" stroke="#666666" points="334,-56 0,-56 0,-37 334,-37 334,-56"/>
<text text-anchor="middle" x="167" y="-44" font-family="Helvetica,sans-Serif" font-size="10.00">Assets.StyledLines.Runtime.LlamaInfrenceUnity.RunModelAsync.Update</text>
</a>
</g>
</g>
<!-- Node2 -->
<g id="Node000002" class="node">
<title>Node2</title>
<g id="a_Node000002"><a xlink:href="$class_assets_1_1_styled_lines_1_1_runtime_1_1_llama_infrence_unity_1_1_model_controller.html#af61c777c48182d3bec3f6c1dd3d36e8c" xlink:title="Static method to extract the first part of a string up to a specified stop text. If the stop text is ...">
<polygon fill="white" stroke="#666666" points="782,-93 414,-93 414,-74 782,-74 782,-93"/>
<text text-anchor="middle" x="598" y="-81" font-family="Helvetica,sans-Serif" font-size="10.00">Assets.StyledLines.Runtime.LlamaInfrenceUnity.ModelController.ExtractFirstPart</text>
</a>
</g>
</g>
<!-- Node1&#45;&gt;Node2 -->
<g id="edge1_Node000001_Node000002" class="edge">
<title>Node1&#45;&gt;Node2</title>
<g id="a_edge1_Node000001_Node000002"><a xlink:title=" ">
<path fill="none" stroke="#63b8ff" d="M266.09,-56.02C299.1,-59.14 336.14,-62.56 370,-65.5 399.99,-68.1 432.22,-70.74 462.71,-73.18"/>
<polygon fill="#63b8ff" stroke="#63b8ff" points="462.73,-76.69 472.97,-74 463.28,-69.71 462.73,-76.69"/>
</a>
</g>
</g>
<!-- Node3 -->
<g id="Node000003" class="node">
<title>Node3</title>
<g id="a_Node000003"><a xlink:href="$class_assets_1_1_styled_lines_1_1_runtime_1_1_llama_infrence_unity_1_1_run_model_async_1_1_thread_safe_string.html#a4a88b802a099b937bb965d8fb395079d" xlink:title="Method to retrieve the current data and clear it in a thread&#45;safe manner.">
<polygon fill="white" stroke="#666666" points="826,-56 370,-56 370,-37 826,-37 826,-56"/>
<text text-anchor="middle" x="598" y="-44" font-family="Helvetica,sans-Serif" font-size="10.00">Assets.StyledLines.Runtime.LlamaInfrenceUnity.RunModelAsync.ThreadSafeString.GetDataAndClear</text>
</a>
</g>
</g>
<!-- Node1&#45;&gt;Node3 -->
<g id="edge2_Node000001_Node000003" class="edge">
<title>Node1&#45;&gt;Node3</title>
<g id="a_edge2_Node000001_Node000003"><a xlink:title=" ">
<path fill="none" stroke="#63b8ff" d="M334.17,-46.5C342.64,-46.5 351.21,-46.5 359.84,-46.5"/>
<polygon fill="#63b8ff" stroke="#63b8ff" points="359.98,-50 369.98,-46.5 359.98,-43 359.98,-50"/>
</a>
</g>
</g>
<!-- Node4 -->
<g id="Node000004" class="node">
<title>Node4</title>
<g id="a_Node000004"><a xlink:href="$class_llama_library_1_1_async_llama_infrence.html#a74d73cee873a2080edfa0d915f367d30" xlink:title=" ">
<polygon fill="white" stroke="#666666" points="729,-19 467,-19 467,0 729,0 729,-19"/>
<text text-anchor="middle" x="598" y="-7" font-family="Helvetica,sans-Serif" font-size="10.00">LlamaLibrary.AsyncLlamaInfrence.GetGenerationResults</text>
</a>
</g>
</g>
<!-- Node1&#45;&gt;Node4 -->
<g id="edge3_Node000001_Node000004" class="edge">
<title>Node1&#45;&gt;Node4</title>
<g id="a_edge3_Node000001_Node000004"><a xlink:title=" ">
<path fill="none" stroke="#63b8ff" d="M273.61,-36.98C304.66,-34.21 338.69,-31.21 370,-28.5 402.94,-25.65 438.57,-22.64 471.63,-19.87"/>
<polygon fill="#63b8ff" stroke="#63b8ff" points="472.13,-23.34 481.8,-19.02 471.54,-16.37 472.13,-23.34"/>
</a>
</g>
</g>
<!-- Node5 -->
<g id="Node000005" class="node">
<title>Node5</title>
<g id="a_Node000005"><a xlink:href="$class_llama_library_1_1libllama__lib_p_i_n_v_o_k_e.html#a2bdcb309c17221cae862eee0ad62128e" xlink:title=" ">
<polygon fill="white" stroke="#666666" points="1221,-19 862,-19 862,0 1221,0 1221,-19"/>
<text text-anchor="middle" x="1041.5" y="-7" font-family="Helvetica,sans-Serif" font-size="10.00">LlamaLibrary.libllama_libPINVOKE.AsyncLlamaInfrence_GetGenerationResults</text>
</a>
</g>
</g>
<!-- Node4&#45;&gt;Node5 -->
<g id="edge4_Node000004_Node000005" class="edge">
<title>Node4&#45;&gt;Node5</title>
<g id="a_edge4_Node000004_Node000005"><a xlink:title=" ">
<path fill="none" stroke="#63b8ff" d="M729.08,-9.5C767.5,-9.5 810.35,-9.5 851.68,-9.5"/>
<polygon fill="#63b8ff" stroke="#63b8ff" points="851.87,-13 861.87,-9.5 851.87,-6 851.87,-13"/>
</a>
</g>
</g>
</g>
</svg>
