<?xml version="1.0" encoding="UTF-8" standalone="no"?>
<!DOCTYPE svg PUBLIC "-//W3C//DTD SVG 1.1//EN"
 "http://www.w3.org/Graphics/SVG/1.1/DTD/svg11.dtd">
<!-- Generated by graphviz version 6.0.1 (20220911.1526)
 -->
<!-- Title: LlamaLibrary.LlamaInfrence.Generate Pages: 1 -->
<svg width="534pt" height="64pt"
 viewBox="0.00 0.00 534.00 64.00" xmlns="http://www.w3.org/2000/svg" xmlns:xlink="http://www.w3.org/1999/xlink">
<g id="graph0" class="graph" transform="scale(1 1) rotate(0) translate(4 60)">
<title>LlamaLibrary.LlamaInfrence.Generate</title>
<!-- Node1 -->
<g id="Node000001" class="node">
<title>Node1</title>
<g id="a_Node000001"><a xlink:title=" ">
<polygon fill="#999999" stroke="#666666" points="178,-37 0,-37 0,-18 178,-18 178,-37"/>
<text text-anchor="middle" x="89" y="-25" font-family="Helvetica,sans-Serif" font-size="10.00">LlamaLibrary.LlamaInfrence.Generate</text>
</a>
</g>
</g>
<!-- Node2 -->
<g id="Node000002" class="node">
<title>Node2</title>
<g id="a_Node000002"><a xlink:href="class_llama_library_1_1libllama__lib_p_i_n_v_o_k_e.html#a5bf60620b52cef46f3c5b93dfa7c9e9d" target="_top" xlink:title=" ">
<polygon fill="white" stroke="#666666" points="507.5,-56 232.5,-56 232.5,-37 507.5,-37 507.5,-56"/>
<text text-anchor="middle" x="370" y="-44" font-family="Helvetica,sans-Serif" font-size="10.00">LlamaLibrary.libllama_libPINVOKE.LlamaInfrence_Generate</text>
</a>
</g>
</g>
<!-- Node1&#45;&gt;Node2 -->
<g id="edge1_Node000001_Node000002" class="edge">
<title>Node1&#45;&gt;Node2</title>
<g id="a_edge1_Node000001_Node000002"><a xlink:title=" ">
<path fill="none" stroke="#63b8ff" d="M178.28,-33.51C192.29,-34.47 207.1,-35.47 222.02,-36.49"/>
<polygon fill="#63b8ff" stroke="#63b8ff" points="222.15,-40.01 232.36,-37.19 222.62,-33.02 222.15,-40.01"/>
</a>
</g>
</g>
<!-- Node3 -->
<g id="Node000003" class="node">
<title>Node3</title>
<g id="a_Node000003"><a xlink:href="class_llama_library_1_1libllama__lib_p_i_n_v_o_k_e_1_1_s_w_i_g_pending_exception.html#a2718a73540850b42db7c89e9be3519ec" target="_top" xlink:title=" ">
<polygon fill="white" stroke="#666666" points="526,-19 214,-19 214,0 526,0 526,-19"/>
<text text-anchor="middle" x="370" y="-7" font-family="Helvetica,sans-Serif" font-size="10.00">LlamaLibrary.libllama_libPINVOKE.SWIGPendingException.Retrieve</text>
</a>
</g>
</g>
<!-- Node1&#45;&gt;Node3 -->
<g id="edge2_Node000001_Node000003" class="edge">
<title>Node1&#45;&gt;Node3</title>
<g id="a_edge2_Node000001_Node000003"><a xlink:title=" ">
<path fill="none" stroke="#63b8ff" d="M178.28,-21.8C189.02,-21.11 200.23,-20.39 211.61,-19.65"/>
<polygon fill="#63b8ff" stroke="#63b8ff" points="211.88,-23.14 221.64,-19.01 211.43,-16.16 211.88,-23.14"/>
</a>
</g>
</g>
</g>
</svg>
