<?xml version="1.0" encoding="UTF-8" standalone="no"?>
<!DOCTYPE svg PUBLIC "-//W3C//DTD SVG 1.1//EN"
 "http://www.w3.org/Graphics/SVG/1.1/DTD/svg11.dtd">
<!-- Generated by graphviz version 6.0.1 (20220911.1526)
 -->
<!-- Title: LlamaLibrary.llama_sampling_params Pages: 1 -->
<svg width="438pt" height="618pt"
 viewBox="0.00 0.00 438.00 618.00" xmlns="http://www.w3.org/2000/svg" xmlns:xlink="http://www.w3.org/1999/xlink">
<g id="graph0" class="graph" transform="scale(1 1) rotate(0) translate(4 614)">
<title>LlamaLibrary.llama_sampling_params</title>
<!-- Node1 -->
<g id="Node000001" class="node">
<title>Node1</title>
<g id="a_Node000001"><a xlink:title=" ">
<polygon fill="#999999" stroke="none" points="430,-514 0,-514 0,0 430,0 430,-514"/>
<text text-anchor="start" x="133" y="-502" font-family="Helvetica,sans-Serif" font-size="10.00">LlamaLibrary.llama_sampling_params</text>
<text text-anchor="start" x="4" y="-487" font-family="Helvetica,sans-Serif" font-size="10.00">+</text>
<text text-anchor="start" x="15" y="-487" font-family="Helvetica,sans-Serif" font-size="10.00">string cfg_negative_prompt</text>
<text text-anchor="start" x="4" y="-472" font-family="Helvetica,sans-Serif" font-size="10.00">+</text>
<text text-anchor="start" x="15" y="-472" font-family="Helvetica,sans-Serif" font-size="10.00">float cfg_scale</text>
<text text-anchor="start" x="4" y="-457" font-family="Helvetica,sans-Serif" font-size="10.00">+</text>
<text text-anchor="start" x="15" y="-457" font-family="Helvetica,sans-Serif" font-size="10.00">float dynatemp_exponent</text>
<text text-anchor="start" x="4" y="-442" font-family="Helvetica,sans-Serif" font-size="10.00">+</text>
<text text-anchor="start" x="15" y="-442" font-family="Helvetica,sans-Serif" font-size="10.00">float dynatemp_range</text>
<text text-anchor="start" x="4" y="-427" font-family="Helvetica,sans-Serif" font-size="10.00">+</text>
<text text-anchor="start" x="15" y="-427" font-family="Helvetica,sans-Serif" font-size="10.00">string grammar</text>
<text text-anchor="start" x="4" y="-412" font-family="Helvetica,sans-Serif" font-size="10.00">+</text>
<text text-anchor="start" x="15" y="-412" font-family="Helvetica,sans-Serif" font-size="10.00">SWIGTYPE_p_std__unordered_mapT_llama_token_float_t logit_bias</text>
<text text-anchor="start" x="4" y="-397" font-family="Helvetica,sans-Serif" font-size="10.00">+</text>
<text text-anchor="start" x="15" y="-397" font-family="Helvetica,sans-Serif" font-size="10.00">int min_keep</text>
<text text-anchor="start" x="4" y="-382" font-family="Helvetica,sans-Serif" font-size="10.00">+</text>
<text text-anchor="start" x="15" y="-382" font-family="Helvetica,sans-Serif" font-size="10.00">float min_p</text>
<text text-anchor="start" x="4" y="-367" font-family="Helvetica,sans-Serif" font-size="10.00">+</text>
<text text-anchor="start" x="15" y="-367" font-family="Helvetica,sans-Serif" font-size="10.00">int mirostat</text>
<text text-anchor="start" x="4" y="-352" font-family="Helvetica,sans-Serif" font-size="10.00">+</text>
<text text-anchor="start" x="15" y="-352" font-family="Helvetica,sans-Serif" font-size="10.00">float mirostat_eta</text>
<text text-anchor="start" x="4" y="-337" font-family="Helvetica,sans-Serif" font-size="10.00">+</text>
<text text-anchor="start" x="15" y="-337" font-family="Helvetica,sans-Serif" font-size="10.00">float mirostat_tau</text>
<text text-anchor="start" x="4" y="-322" font-family="Helvetica,sans-Serif" font-size="10.00">+</text>
<text text-anchor="start" x="15" y="-322" font-family="Helvetica,sans-Serif" font-size="10.00">int n_prev</text>
<text text-anchor="start" x="4" y="-307" font-family="Helvetica,sans-Serif" font-size="10.00">+</text>
<text text-anchor="start" x="15" y="-307" font-family="Helvetica,sans-Serif" font-size="10.00">int n_probs</text>
<text text-anchor="start" x="4" y="-292" font-family="Helvetica,sans-Serif" font-size="10.00">+</text>
<text text-anchor="start" x="15" y="-292" font-family="Helvetica,sans-Serif" font-size="10.00">bool penalize_nl</text>
<text text-anchor="start" x="4" y="-277" font-family="Helvetica,sans-Serif" font-size="10.00">+</text>
<text text-anchor="start" x="15" y="-277" font-family="Helvetica,sans-Serif" font-size="10.00">float penalty_freq</text>
<text text-anchor="start" x="4" y="-262" font-family="Helvetica,sans-Serif" font-size="10.00">+</text>
<text text-anchor="start" x="15" y="-262" font-family="Helvetica,sans-Serif" font-size="10.00">int penalty_last_n</text>
<text text-anchor="start" x="4" y="-247" font-family="Helvetica,sans-Serif" font-size="10.00">+</text>
<text text-anchor="start" x="15" y="-247" font-family="Helvetica,sans-Serif" font-size="10.00">float penalty_present</text>
<text text-anchor="start" x="4" y="-232" font-family="Helvetica,sans-Serif" font-size="10.00">+</text>
<text text-anchor="start" x="15" y="-232" font-family="Helvetica,sans-Serif" font-size="10.00">SWIGTYPE_p_std__vectorT_llama_token_t penalty_prompt_tokens</text>
<text text-anchor="start" x="4" y="-217" font-family="Helvetica,sans-Serif" font-size="10.00">+</text>
<text text-anchor="start" x="15" y="-217" font-family="Helvetica,sans-Serif" font-size="10.00">float penalty_repeat</text>
<text text-anchor="start" x="4" y="-202" font-family="Helvetica,sans-Serif" font-size="10.00">+</text>
<text text-anchor="start" x="15" y="-202" font-family="Helvetica,sans-Serif" font-size="10.00">SWIGTYPE_p_std__vectorT_llama_sampler_type_t samplers_sequence</text>
<text text-anchor="start" x="4" y="-187" font-family="Helvetica,sans-Serif" font-size="10.00">+</text>
<text text-anchor="start" x="15" y="-187" font-family="Helvetica,sans-Serif" font-size="10.00">uint seed</text>
<text text-anchor="start" x="4" y="-172" font-family="Helvetica,sans-Serif" font-size="10.00">+</text>
<text text-anchor="start" x="15" y="-172" font-family="Helvetica,sans-Serif" font-size="10.00">float temp</text>
<text text-anchor="start" x="4" y="-157" font-family="Helvetica,sans-Serif" font-size="10.00">+</text>
<text text-anchor="start" x="15" y="-157" font-family="Helvetica,sans-Serif" font-size="10.00">float tfs_z</text>
<text text-anchor="start" x="4" y="-142" font-family="Helvetica,sans-Serif" font-size="10.00">+</text>
<text text-anchor="start" x="15" y="-142" font-family="Helvetica,sans-Serif" font-size="10.00">int top_k</text>
<text text-anchor="start" x="4" y="-127" font-family="Helvetica,sans-Serif" font-size="10.00">+</text>
<text text-anchor="start" x="15" y="-127" font-family="Helvetica,sans-Serif" font-size="10.00">float top_p</text>
<text text-anchor="start" x="4" y="-112" font-family="Helvetica,sans-Serif" font-size="10.00">+</text>
<text text-anchor="start" x="15" y="-112" font-family="Helvetica,sans-Serif" font-size="10.00">float typical_p</text>
<text text-anchor="start" x="4" y="-97" font-family="Helvetica,sans-Serif" font-size="10.00">+</text>
<text text-anchor="start" x="15" y="-97" font-family="Helvetica,sans-Serif" font-size="10.00">bool use_penalty_prompt_tokens</text>
<text text-anchor="start" x="4.5" y="-82" font-family="Helvetica,sans-Serif" font-size="10.00">#</text>
<text text-anchor="start" x="15" y="-82" font-family="Helvetica,sans-Serif" font-size="10.00">bool swigCMemOwn</text>
<text text-anchor="start" x="4" y="-67" font-family="Helvetica,sans-Serif" font-size="10.00">+</text>
<text text-anchor="start" x="15" y="-67" font-family="Helvetica,sans-Serif" font-size="10.00">virtual void Dispose()</text>
<text text-anchor="start" x="4" y="-52" font-family="Helvetica,sans-Serif" font-size="10.00">+</text>
<text text-anchor="start" x="15" y="-52" font-family="Helvetica,sans-Serif" font-size="10.00">llama_sampling_params()</text>
<text text-anchor="start" x="4" y="-37" font-family="Helvetica,sans-Serif" font-size="10.00">~</text>
<text text-anchor="start" x="15" y="-37" font-family="Helvetica,sans-Serif" font-size="10.00">llama_sampling_params(global::System.IntPtr cPtr, bool cMemoryOwn)</text>
<text text-anchor="start" x="4" y="-22" font-family="Helvetica,sans-Serif" font-size="10.00">~</text>
<text text-anchor="start" x="15" y="-22" font-family="Helvetica,sans-Serif" font-size="10.00">static global::System.Runtime.InteropServices.HandleRef getCPtr(llama_sampling_params obj)</text>
<text text-anchor="start" x="5.5" y="-7" font-family="Helvetica,sans-Serif" font-size="10.00">&#45;</text>
<text text-anchor="start" x="15" y="-7" font-family="Helvetica,sans-Serif" font-size="10.00">~llama_sampling_params()</text>
<polygon fill="#666666" stroke="#666666" points="0,-497 0,-497 430,-497 430,-497 0,-497"/>
<polygon fill="#666666" stroke="#666666" points="0,-77 0,-77 13,-77 13,-77 0,-77"/>
<polygon fill="#666666" stroke="#666666" points="13,-77 13,-77 430,-77 430,-77 13,-77"/>
<polygon fill="none" stroke="#666666" points="0,0 0,-514 430,-514 430,0 0,0"/>
</a>
</g>
</g>
<!-- Node2 -->
<g id="Node000002" class="node">
<title>Node2</title>
<g id="a_Node000002"><a xlink:title=" ">
<polygon fill="white" stroke="none" points="218,-610 92,-610 92,-561 218,-561 218,-610"/>
<text text-anchor="start" x="97" y="-597.5" font-family="Helvetica,sans-Serif" font-size="10.00">global::SystemIDisposable</text>
<text text-anchor="start" x="153" y="-582.5" font-family="Helvetica,sans-Serif" font-size="10.00"> </text>
<text text-anchor="start" x="153" y="-567.5" font-family="Helvetica,sans-Serif" font-size="10.00"> </text>
<polygon fill="#666666" stroke="#666666" points="92,-592.5 92,-592.5 218,-592.5 218,-592.5 92,-592.5"/>
<polygon fill="#666666" stroke="#666666" points="92,-577.5 92,-577.5 218,-577.5 218,-577.5 92,-577.5"/>
<polygon fill="none" stroke="#666666" points="92,-561 92,-610 218,-610 218,-561 92,-561"/>
</a>
</g>
</g>
<!-- Node2&#45;&gt;Node1 -->
<g id="edge1_Node000001_Node000002" class="edge">
<title>Node2&#45;&gt;Node1</title>
<g id="a_edge1_Node000001_Node000002"><a xlink:title=" ">
<path fill="none" stroke="#63b8ff" d="M161.22,-550.63C163.14,-540.21 165.41,-527.83 167.93,-514.15"/>
<polygon fill="none" stroke="#63b8ff" points="157.73,-550.29 159.36,-560.76 164.61,-551.55 157.73,-550.29"/>
</a>
</g>
</g>
<!-- Node3 -->
<g id="Node000003" class="node">
<title>Node3</title>
<g id="a_Node000003"><a xlink:title=" ">
<polygon fill="white" stroke="none" points="313.5,-610 236.5,-610 236.5,-561 313.5,-561 313.5,-610"/>
<text text-anchor="start" x="242" y="-597.5" font-family="Helvetica,sans-Serif" font-size="10.00">InteropServices</text>
<text text-anchor="start" x="273.5" y="-582.5" font-family="Helvetica,sans-Serif" font-size="10.00"> </text>
<text text-anchor="start" x="273.5" y="-567.5" font-family="Helvetica,sans-Serif" font-size="10.00"> </text>
<polygon fill="#666666" stroke="#666666" points="237,-592.5 237,-592.5 314,-592.5 314,-592.5 237,-592.5"/>
<polygon fill="#666666" stroke="#666666" points="237,-577.5 237,-577.5 314,-577.5 314,-577.5 237,-577.5"/>
<polygon fill="none" stroke="#666666" points="236.5,-561 236.5,-610 313.5,-610 313.5,-561 236.5,-561"/>
</a>
</g>
</g>
<!-- Node3&#45;&gt;Node1 -->
<g id="edge2_Node000001_Node000003" class="edge">
<title>Node3&#45;&gt;Node1</title>
<g id="a_edge2_Node000001_Node000003"><a xlink:title=" ">
<path fill="none" stroke="#63b8ff" d="M270.64,-560.76C268.92,-551.39 266.76,-539.66 264.3,-526.3"/>
<polygon fill="none" stroke="#63b8ff" points="264.24,-525.95 259.22,-520.77 262.07,-514.15 267.09,-519.33 264.24,-525.95"/>
</a>
</g>
<text text-anchor="middle" x="289" y="-535" font-family="Helvetica,sans-Serif" font-size="10.00" fill="grey"> &#45;swigCPtr</text>
</g>
</g>
</svg>
