<?xml version="1.0" encoding="UTF-8" standalone="no"?>
<!DOCTYPE svg PUBLIC "-//W3C//DTD SVG 1.1//EN"
 "http://www.w3.org/Graphics/SVG/1.1/DTD/svg11.dtd">
<!-- Generated by graphviz version 6.0.1 (20220911.1526)
 -->
<!-- Title: LlamaLibrary.StringsAndFloats.StringsAndFloatsEnumerator Pages: 1 -->
<!--zoomable 939 -->

<svg id="main" version="1.1" xmlns="http://www.w3.org/2000/svg" xmlns:xlink="http://www.w3.org/1999/xlink" xml:space="preserve" onload="init(evt)">
<style type="text/css"><![CDATA[
.node, .edge {opacity: 0.7;}
.node.selected, .edge.selected {opacity: 1;}
.edge:hover path { stroke: red; }
.edge:hover polygon { stroke: red; fill: red; }
]]></style>

<defs>
  <circle id="rim" cx="0" cy="0" r="7"/>
  <circle id="rim2" cx="0" cy="0" r="3.5"/>
  <g id="zoomPlus">
    <use xlink:href="#rim" fill="#404040"><set attributeName="fill" to="#808080" begin="zoomplus.mouseover" end="zoomplus.mouseout"/></use>
    <path d="M-4,0h8M0,-4v8" fill="none" stroke="white" stroke-width="1.5" pointer-events="none"/>
  </g>
  <g id="zoomMin">
    <use xlink:href="#rim" fill="#404040"><set attributeName="fill" to="#808080" begin="zoomminus.mouseover" end="zoomminus.mouseout"/></use>
    <path d="M-4,0h8" fill="none" stroke="white" stroke-width="1.5" pointer-events="none"/>
  </g>
  <g id="arrowUp" transform="translate(30 24)">
    <use xlink:href="#rim"/>
    <path pointer-events="none" fill="none" stroke="white" stroke-width="1.5" d="M0,-3.0v7 M-2.5,-0.5L0,-3.0L2.5,-0.5"/>
  </g>
  <g id="arrowRight" transform="rotate(90) translate(36 -43)">
    <use xlink:href="#rim"/>
    <path pointer-events="none" fill="none" stroke="white" stroke-width="1.5" d="M0,-3.0v7 M-2.5,-0.5L0,-3.0L2.5,-0.5"/>
  </g>
  <g id="arrowDown" transform="rotate(180) translate(-30 -48)">
    <use xlink:href="#rim"/>
    <path pointer-events="none" fill="none" stroke="white" stroke-width="1.5" d="M0,-3.0v7 M-2.5,-0.5L0,-3.0L2.5,-0.5"/>
  </g>
  <g id="arrowLeft" transform="rotate(270) translate(-36 17)">
    <use xlink:href="#rim"/>
    <path pointer-events="none" fill="none" stroke="white" stroke-width="1.5" d="M0,-3.0v7 M-2.5,-0.5L0,-3.0L2.5,-0.5"/>
  </g>
  <g id="resetDef">
    <use xlink:href="#rim2" fill="#404040"><set attributeName="fill" to="#808080" begin="reset.mouseover" end="reset.mouseout"/></use>
  </g>
</defs>
<script type="application/ecmascript">
var viewWidth = 1255;
var viewHeight = 939;
var sectionId = 'dynsection-1';
</script>
<script type="application/ecmascript" xlink:href="svg.min.js"/>
<svg id="graph" class="graph">
<g id="viewport">
<title>LlamaLibrary.StringsAndFloats.StringsAndFloatsEnumerator</title>
<!-- Node1 -->
<g id="Node000001" class="node">
<title>Node1</title>
<g id="a_Node000001"><a xlink:title=" ">
<polygon fill="#999999" stroke="none" points="489,-154 217,-154 217,0 489,0 489,-154"/>
<text text-anchor="start" x="222" y="-142" font-family="Helvetica,sans-Serif" font-size="10.00">LlamaLibrary.StringsAndFloats.StringsAndFloatsEnumerator</text>
<text text-anchor="start" x="221.5" y="-127" font-family="Helvetica,sans-Serif" font-size="10.00">+</text>
<text text-anchor="start" x="233" y="-127" font-family="Helvetica,sans-Serif" font-size="10.00">StringAndFloat Current</text>
<text text-anchor="start" x="221.5" y="-112" font-family="Helvetica,sans-Serif" font-size="10.00">+</text>
<text text-anchor="start" x="233" y="-112" font-family="Helvetica,sans-Serif" font-size="10.00">object global::System.Collections.IEnumerator. Current</text>
<text text-anchor="start" x="223" y="-97" font-family="Helvetica,sans-Serif" font-size="10.00">&#45;</text>
<text text-anchor="start" x="233" y="-97" font-family="Helvetica,sans-Serif" font-size="10.00">int currentIndex</text>
<text text-anchor="start" x="223" y="-82" font-family="Helvetica,sans-Serif" font-size="10.00">&#45;</text>
<text text-anchor="start" x="233" y="-82" font-family="Helvetica,sans-Serif" font-size="10.00">object currentObject</text>
<text text-anchor="start" x="223" y="-67" font-family="Helvetica,sans-Serif" font-size="10.00">&#45;</text>
<text text-anchor="start" x="233" y="-67" font-family="Helvetica,sans-Serif" font-size="10.00">int currentSize</text>
<text text-anchor="start" x="221.5" y="-52" font-family="Helvetica,sans-Serif" font-size="10.00">+</text>
<text text-anchor="start" x="233" y="-52" font-family="Helvetica,sans-Serif" font-size="10.00">void Dispose()</text>
<text text-anchor="start" x="221.5" y="-37" font-family="Helvetica,sans-Serif" font-size="10.00">+</text>
<text text-anchor="start" x="233" y="-37" font-family="Helvetica,sans-Serif" font-size="10.00">bool MoveNext()</text>
<text text-anchor="start" x="221.5" y="-22" font-family="Helvetica,sans-Serif" font-size="10.00">+</text>
<text text-anchor="start" x="233" y="-22" font-family="Helvetica,sans-Serif" font-size="10.00">void Reset()</text>
<text text-anchor="start" x="221.5" y="-7" font-family="Helvetica,sans-Serif" font-size="10.00">+</text>
<text text-anchor="start" x="233" y="-7" font-family="Helvetica,sans-Serif" font-size="10.00">StringsAndFloatsEnumerator(StringsAndFloats collection)</text>
<polygon fill="#666666" stroke="#666666" points="217,-137 217,-137 489,-137 489,-137 217,-137"/>
<polygon fill="#666666" stroke="#666666" points="217,-62 217,-62 231,-62 231,-62 217,-62"/>
<polygon fill="#666666" stroke="#666666" points="231,-62 231,-62 489,-62 489,-62 231,-62"/>
<polygon fill="none" stroke="#666666" points="217,0 217,-154 489,-154 489,0 217,0"/>
</a>
</g>
</g>
<!-- Node2 -->
<g id="Node000002" class="node">
<title>Node2</title>
<g id="a_Node000002"><a xlink:title=" ">
<polygon fill="white" stroke="none" points="182,-542.5 0,-542.5 0,-493.5 182,-493.5 182,-542.5"/>
<text text-anchor="start" x="5" y="-530" font-family="Helvetica,sans-Serif" font-size="10.00">global::SystemCollections::IEnumerator</text>
<text text-anchor="start" x="89" y="-515" font-family="Helvetica,sans-Serif" font-size="10.00"> </text>
<text text-anchor="start" x="89" y="-500" font-family="Helvetica,sans-Serif" font-size="10.00"> </text>
<polygon fill="#666666" stroke="#666666" points="0,-525 0,-525 182,-525 182,-525 0,-525"/>
<polygon fill="#666666" stroke="#666666" points="0,-510 0,-510 182,-510 182,-510 0,-510"/>
<polygon fill="none" stroke="#666666" points="0,-493.5 0,-542.5 182,-542.5 182,-493.5 0,-493.5"/>
</a>
</g>
</g>
<!-- Node2&#45;&gt;Node1 -->
<g id="edge1_Node000001_Node000002" class="edge">
<title>Node2&#45;&gt;Node1</title>
<g id="a_edge1_Node000001_Node000002"><a xlink:title=" ">
<path fill="none" stroke="#63b8ff" d="M94.88,-483.18C103.3,-421.91 127.83,-290.63 191,-201 203,-183.97 218.08,-168.26 234.17,-154.16"/>
<polygon fill="none" stroke="#63b8ff" points="91.36,-483.06 93.53,-493.43 98.31,-483.97 91.36,-483.06"/>
</a>
</g>
</g>
<!-- Node3 -->
<g id="Node000003" class="node">
<title>Node3</title>
<g id="a_Node000003"><a xlink:title=" ">
<polygon fill="white" stroke="none" points="505.5,-542.5 200.5,-542.5 200.5,-493.5 505.5,-493.5 505.5,-542.5"/>
<text text-anchor="start" x="206" y="-530" font-family="Helvetica,sans-Serif" font-size="10.00">global::SystemCollections::Generic::IEnumerator&lt; StringAndFloat &gt;</text>
<text text-anchor="start" x="351.5" y="-515" font-family="Helvetica,sans-Serif" font-size="10.00"> </text>
<text text-anchor="start" x="351.5" y="-500" font-family="Helvetica,sans-Serif" font-size="10.00"> </text>
<polygon fill="#666666" stroke="#666666" points="201,-525 201,-525 506,-525 506,-525 201,-525"/>
<polygon fill="#666666" stroke="#666666" points="201,-510 201,-510 506,-510 506,-510 201,-510"/>
<polygon fill="none" stroke="#666666" points="200.5,-493.5 200.5,-542.5 505.5,-542.5 505.5,-493.5 200.5,-493.5"/>
</a>
</g>
</g>
<!-- Node3&#45;&gt;Node1 -->
<g id="edge2_Node000001_Node000003" class="edge">
<title>Node3&#45;&gt;Node1</title>
<g id="a_edge2_Node000001_Node000003"><a xlink:title=" ">
<path fill="none" stroke="#63b8ff" d="M353,-483.39C353,-413.49 353,-250.94 353,-154.25"/>
<polygon fill="none" stroke="#63b8ff" points="349.5,-483.4 353,-493.4 356.5,-483.4 349.5,-483.4"/>
</a>
</g>
</g>
<!-- Node4 -->
<g id="Node000004" class="node">
<title>Node4</title>
<g id="a_Node000004"><a xlink:href="class_llama_library_1_1_strings_and_floats.html" target="_top" xlink:title=" ">
<polygon fill="white" stroke="none" points="1208,-835 524,-835 524,-201 1208,-201 1208,-835"/>
<text text-anchor="start" x="799" y="-823" font-family="Helvetica,sans-Serif" font-size="10.00">LlamaLibrary.StringsAndFloats</text>
<text text-anchor="start" x="528" y="-808" font-family="Helvetica,sans-Serif" font-size="10.00">+</text>
<text text-anchor="start" x="539" y="-808" font-family="Helvetica,sans-Serif" font-size="10.00">int Capacity</text>
<text text-anchor="start" x="528" y="-793" font-family="Helvetica,sans-Serif" font-size="10.00">+</text>
<text text-anchor="start" x="539" y="-793" font-family="Helvetica,sans-Serif" font-size="10.00">int Count</text>
<text text-anchor="start" x="528" y="-778" font-family="Helvetica,sans-Serif" font-size="10.00">+</text>
<text text-anchor="start" x="539" y="-778" font-family="Helvetica,sans-Serif" font-size="10.00">bool IsFixedSize</text>
<text text-anchor="start" x="528" y="-763" font-family="Helvetica,sans-Serif" font-size="10.00">+</text>
<text text-anchor="start" x="539" y="-763" font-family="Helvetica,sans-Serif" font-size="10.00">bool IsReadOnly</text>
<text text-anchor="start" x="528" y="-748" font-family="Helvetica,sans-Serif" font-size="10.00">+</text>
<text text-anchor="start" x="539" y="-748" font-family="Helvetica,sans-Serif" font-size="10.00">bool IsSynchronized</text>
<text text-anchor="start" x="528" y="-733" font-family="Helvetica,sans-Serif" font-size="10.00">+</text>
<text text-anchor="start" x="539" y="-733" font-family="Helvetica,sans-Serif" font-size="10.00">StringAndFloat this[int index]</text>
<text text-anchor="start" x="528.5" y="-718" font-family="Helvetica,sans-Serif" font-size="10.00">#</text>
<text text-anchor="start" x="539" y="-718" font-family="Helvetica,sans-Serif" font-size="10.00">bool swigCMemOwn</text>
<text text-anchor="start" x="528" y="-703" font-family="Helvetica,sans-Serif" font-size="10.00">+</text>
<text text-anchor="start" x="539" y="-703" font-family="Helvetica,sans-Serif" font-size="10.00">void Add(StringAndFloat x)</text>
<text text-anchor="start" x="528" y="-688" font-family="Helvetica,sans-Serif" font-size="10.00">+</text>
<text text-anchor="start" x="539" y="-688" font-family="Helvetica,sans-Serif" font-size="10.00">void AddRange(StringsAndFloats values)</text>
<text text-anchor="start" x="528" y="-673" font-family="Helvetica,sans-Serif" font-size="10.00">+</text>
<text text-anchor="start" x="539" y="-673" font-family="Helvetica,sans-Serif" font-size="10.00">void Clear()</text>
<text text-anchor="start" x="528" y="-658" font-family="Helvetica,sans-Serif" font-size="10.00">+</text>
<text text-anchor="start" x="539" y="-658" font-family="Helvetica,sans-Serif" font-size="10.00">void CopyTo(int index, StringAndFloat[] array, int arrayIndex, int count)</text>
<text text-anchor="start" x="528" y="-643" font-family="Helvetica,sans-Serif" font-size="10.00">+</text>
<text text-anchor="start" x="539" y="-643" font-family="Helvetica,sans-Serif" font-size="10.00">void CopyTo(StringAndFloat[] array)</text>
<text text-anchor="start" x="528" y="-628" font-family="Helvetica,sans-Serif" font-size="10.00">+</text>
<text text-anchor="start" x="539" y="-628" font-family="Helvetica,sans-Serif" font-size="10.00">void CopyTo(StringAndFloat[] array, int arrayIndex)</text>
<text text-anchor="start" x="528" y="-613" font-family="Helvetica,sans-Serif" font-size="10.00">+</text>
<text text-anchor="start" x="539" y="-613" font-family="Helvetica,sans-Serif" font-size="10.00">virtual void Dispose()</text>
<text text-anchor="start" x="528" y="-598" font-family="Helvetica,sans-Serif" font-size="10.00">+</text>
<text text-anchor="start" x="539" y="-598" font-family="Helvetica,sans-Serif" font-size="10.00">StringsAndFloatsEnumerator GetEnumerator()</text>
<text text-anchor="start" x="528" y="-583" font-family="Helvetica,sans-Serif" font-size="10.00">+</text>
<text text-anchor="start" x="539" y="-583" font-family="Helvetica,sans-Serif" font-size="10.00">StringsAndFloats GetRange(int index, int count)</text>
<text text-anchor="start" x="528" y="-568" font-family="Helvetica,sans-Serif" font-size="10.00">+</text>
<text text-anchor="start" x="539" y="-568" font-family="Helvetica,sans-Serif" font-size="10.00">void Insert(int index, StringAndFloat x)</text>
<text text-anchor="start" x="528" y="-553" font-family="Helvetica,sans-Serif" font-size="10.00">+</text>
<text text-anchor="start" x="539" y="-553" font-family="Helvetica,sans-Serif" font-size="10.00">void InsertRange(int index, StringsAndFloats values)</text>
<text text-anchor="start" x="528" y="-538" font-family="Helvetica,sans-Serif" font-size="10.00">+</text>
<text text-anchor="start" x="539" y="-538" font-family="Helvetica,sans-Serif" font-size="10.00">void RemoveAt(int index)</text>
<text text-anchor="start" x="528" y="-523" font-family="Helvetica,sans-Serif" font-size="10.00">+</text>
<text text-anchor="start" x="539" y="-523" font-family="Helvetica,sans-Serif" font-size="10.00">void RemoveRange(int index, int count)</text>
<text text-anchor="start" x="528" y="-508" font-family="Helvetica,sans-Serif" font-size="10.00">+</text>
<text text-anchor="start" x="539" y="-508" font-family="Helvetica,sans-Serif" font-size="10.00">void Reverse()</text>
<text text-anchor="start" x="528" y="-493" font-family="Helvetica,sans-Serif" font-size="10.00">+</text>
<text text-anchor="start" x="539" y="-493" font-family="Helvetica,sans-Serif" font-size="10.00">void Reverse(int index, int count)</text>
<text text-anchor="start" x="528" y="-478" font-family="Helvetica,sans-Serif" font-size="10.00">+</text>
<text text-anchor="start" x="539" y="-478" font-family="Helvetica,sans-Serif" font-size="10.00">void SetRange(int index, StringsAndFloats values)</text>
<text text-anchor="start" x="528" y="-463" font-family="Helvetica,sans-Serif" font-size="10.00">+</text>
<text text-anchor="start" x="539" y="-463" font-family="Helvetica,sans-Serif" font-size="10.00">StringsAndFloats()</text>
<text text-anchor="start" x="528" y="-448" font-family="Helvetica,sans-Serif" font-size="10.00">+</text>
<text text-anchor="start" x="539" y="-448" font-family="Helvetica,sans-Serif" font-size="10.00">StringsAndFloats(global::System.Collections.Generic.IEnumerable&lt; StringAndFloat &gt; c)</text>
<text text-anchor="start" x="528" y="-433" font-family="Helvetica,sans-Serif" font-size="10.00">+</text>
<text text-anchor="start" x="539" y="-433" font-family="Helvetica,sans-Serif" font-size="10.00">StringsAndFloats(global::System.Collections.IEnumerable c)</text>
<text text-anchor="start" x="528" y="-418" font-family="Helvetica,sans-Serif" font-size="10.00">+</text>
<text text-anchor="start" x="539" y="-418" font-family="Helvetica,sans-Serif" font-size="10.00">StringsAndFloats(int capacity)</text>
<text text-anchor="start" x="528" y="-403" font-family="Helvetica,sans-Serif" font-size="10.00">+</text>
<text text-anchor="start" x="539" y="-403" font-family="Helvetica,sans-Serif" font-size="10.00">StringsAndFloats(StringsAndFloats other)</text>
<text text-anchor="start" x="528" y="-388" font-family="Helvetica,sans-Serif" font-size="10.00">+</text>
<text text-anchor="start" x="539" y="-388" font-family="Helvetica,sans-Serif" font-size="10.00">StringAndFloat[] ToArray()</text>
<text text-anchor="start" x="528" y="-373" font-family="Helvetica,sans-Serif" font-size="10.00">+</text>
<text text-anchor="start" x="539" y="-373" font-family="Helvetica,sans-Serif" font-size="10.00">static StringsAndFloats Repeat(StringAndFloat value, int count)</text>
<text text-anchor="start" x="528" y="-358" font-family="Helvetica,sans-Serif" font-size="10.00">~</text>
<text text-anchor="start" x="539" y="-358" font-family="Helvetica,sans-Serif" font-size="10.00">StringsAndFloats(global::System.IntPtr cPtr, bool cMemoryOwn)</text>
<text text-anchor="start" x="528" y="-343" font-family="Helvetica,sans-Serif" font-size="10.00">~</text>
<text text-anchor="start" x="539" y="-343" font-family="Helvetica,sans-Serif" font-size="10.00">static global::System.Runtime.InteropServices.HandleRef getCPtr(StringsAndFloats obj)</text>
<text text-anchor="start" x="529.5" y="-328" font-family="Helvetica,sans-Serif" font-size="10.00">&#45;</text>
<text text-anchor="start" x="539" y="-328" font-family="Helvetica,sans-Serif" font-size="10.00">uint capacity()</text>
<text text-anchor="start" x="529.5" y="-313" font-family="Helvetica,sans-Serif" font-size="10.00">&#45;</text>
<text text-anchor="start" x="539" y="-313" font-family="Helvetica,sans-Serif" font-size="10.00">global::System.Collections.Generic.IEnumerator&lt; StringAndFloat &gt; global::System.Collections.Generic.IEnumerable&lt; StringAndFloat &gt;. GetEnumerator()</text>
<text text-anchor="start" x="529.5" y="-298" font-family="Helvetica,sans-Serif" font-size="10.00">&#45;</text>
<text text-anchor="start" x="539" y="-298" font-family="Helvetica,sans-Serif" font-size="10.00">global::System.Collections.IEnumerator global::System.Collections.IEnumerable. GetEnumerator()</text>
<text text-anchor="start" x="529.5" y="-283" font-family="Helvetica,sans-Serif" font-size="10.00">&#45;</text>
<text text-anchor="start" x="539" y="-283" font-family="Helvetica,sans-Serif" font-size="10.00">StringAndFloat getitem(int index)</text>
<text text-anchor="start" x="529.5" y="-268" font-family="Helvetica,sans-Serif" font-size="10.00">&#45;</text>
<text text-anchor="start" x="539" y="-268" font-family="Helvetica,sans-Serif" font-size="10.00">StringAndFloat getitemcopy(int index)</text>
<text text-anchor="start" x="529.5" y="-253" font-family="Helvetica,sans-Serif" font-size="10.00">&#45;</text>
<text text-anchor="start" x="539" y="-253" font-family="Helvetica,sans-Serif" font-size="10.00">void reserve(uint n)</text>
<text text-anchor="start" x="529.5" y="-238" font-family="Helvetica,sans-Serif" font-size="10.00">&#45;</text>
<text text-anchor="start" x="539" y="-238" font-family="Helvetica,sans-Serif" font-size="10.00">void setitem(int index, StringAndFloat value)</text>
<text text-anchor="start" x="529.5" y="-223" font-family="Helvetica,sans-Serif" font-size="10.00">&#45;</text>
<text text-anchor="start" x="539" y="-223" font-family="Helvetica,sans-Serif" font-size="10.00">uint size()</text>
<text text-anchor="start" x="529.5" y="-208" font-family="Helvetica,sans-Serif" font-size="10.00">&#45;</text>
<text text-anchor="start" x="539" y="-208" font-family="Helvetica,sans-Serif" font-size="10.00">~StringsAndFloats()</text>
<polygon fill="#666666" stroke="#666666" points="524,-818 524,-818 1208,-818 1208,-818 524,-818"/>
<polygon fill="#666666" stroke="#666666" points="524,-713 524,-713 537,-713 537,-713 524,-713"/>
<polygon fill="#666666" stroke="#666666" points="537,-713 537,-713 1208,-713 1208,-713 537,-713"/>
<polygon fill="none" stroke="#666666" points="524,-201 524,-835 1208,-835 1208,-201 524,-201"/>
</a>
</g>
</g>
<!-- Node4&#45;&gt;Node1 -->
<g id="edge3_Node000001_Node000004" class="edge">
<title>Node4&#45;&gt;Node1</title>
<g id="a_edge3_Node000001_Node000004"><a xlink:title=" ">
<path fill="none" stroke="#63b8ff" d="M523.99,-209.31C520.65,-206.52 517.32,-203.75 514,-201 498.38,-188.05 481.62,-174.7 465.04,-161.77"/>
<polygon fill="none" stroke="#63b8ff" points="464.78,-161.58 457.59,-161.06 455.3,-154.22 462.49,-154.74 464.78,-161.58"/>
</a>
</g>
<text text-anchor="middle" x="520" y="-175" font-family="Helvetica,sans-Serif" font-size="10.00" fill="grey"> &#45;collectionRef</text>
</g>
<!-- Node5 -->
<g id="Node000005" class="node">
<title>Node5</title>
<g id="a_Node000005"><a xlink:title=" ">
<polygon fill="white" stroke="none" points="625,-931 499,-931 499,-882 625,-882 625,-931"/>
<text text-anchor="start" x="504" y="-918.5" font-family="Helvetica,sans-Serif" font-size="10.00">global::SystemIDisposable</text>
<text text-anchor="start" x="560" y="-903.5" font-family="Helvetica,sans-Serif" font-size="10.00"> </text>
<text text-anchor="start" x="560" y="-888.5" font-family="Helvetica,sans-Serif" font-size="10.00"> </text>
<polygon fill="#666666" stroke="#666666" points="499,-913.5 499,-913.5 625,-913.5 625,-913.5 499,-913.5"/>
<polygon fill="#666666" stroke="#666666" points="499,-898.5 499,-898.5 625,-898.5 625,-898.5 499,-898.5"/>
<polygon fill="none" stroke="#666666" points="499,-882 499,-931 625,-931 625,-882 499,-882"/>
</a>
</g>
</g>
<!-- Node5&#45;&gt;Node4 -->
<g id="edge4_Node000004_Node000005" class="edge">
<title>Node5&#45;&gt;Node4</title>
<g id="a_edge4_Node000004_Node000005"><a xlink:title=" ">
<path fill="none" stroke="#63b8ff" d="M586.97,-873.76C595.46,-862.96 605.77,-849.85 617.37,-835.11"/>
<polygon fill="none" stroke="#63b8ff" points="583.99,-871.88 580.56,-881.9 589.49,-876.21 583.99,-871.88"/>
</a>
</g>
</g>
<!-- Node6 -->
<g id="Node000006" class="node">
<title>Node6</title>
<g id="a_Node000006"><a xlink:title=" ">
<polygon fill="white" stroke="none" points="827,-931 643,-931 643,-882 827,-882 827,-931"/>
<text text-anchor="start" x="648" y="-918.5" font-family="Helvetica,sans-Serif" font-size="10.00">global::SystemCollections::IEnumerable</text>
<text text-anchor="start" x="733" y="-903.5" font-family="Helvetica,sans-Serif" font-size="10.00"> </text>
<text text-anchor="start" x="733" y="-888.5" font-family="Helvetica,sans-Serif" font-size="10.00"> </text>
<polygon fill="#666666" stroke="#666666" points="643,-913.5 643,-913.5 827,-913.5 827,-913.5 643,-913.5"/>
<polygon fill="#666666" stroke="#666666" points="643,-898.5 643,-898.5 827,-898.5 827,-898.5 643,-898.5"/>
<polygon fill="none" stroke="#666666" points="643,-882 643,-931 827,-931 827,-882 643,-882"/>
</a>
</g>
</g>
<!-- Node6&#45;&gt;Node4 -->
<g id="edge5_Node000004_Node000006" class="edge">
<title>Node6&#45;&gt;Node4</title>
<g id="a_edge5_Node000004_Node000006"><a xlink:title=" ">
<path fill="none" stroke="#63b8ff" d="M746.31,-872.14C749.86,-861.66 754.11,-849.12 758.86,-835.11"/>
<polygon fill="none" stroke="#63b8ff" points="742.89,-871.31 743,-881.9 749.52,-873.56 742.89,-871.31"/>
</a>
</g>
</g>
<!-- Node7 -->
<g id="Node000007" class="node">
<title>Node7</title>
<g id="a_Node000007"><a xlink:title=" ">
<polygon fill="white" stroke="none" points="1151,-931 845,-931 845,-882 1151,-882 1151,-931"/>
<text text-anchor="start" x="850" y="-918.5" font-family="Helvetica,sans-Serif" font-size="10.00">global::SystemCollections::Generic::IEnumerable&lt; StringAndFloat &gt;</text>
<text text-anchor="start" x="996" y="-903.5" font-family="Helvetica,sans-Serif" font-size="10.00"> </text>
<text text-anchor="start" x="996" y="-888.5" font-family="Helvetica,sans-Serif" font-size="10.00"> </text>
<polygon fill="#666666" stroke="#666666" points="845,-913.5 845,-913.5 1151,-913.5 1151,-913.5 845,-913.5"/>
<polygon fill="#666666" stroke="#666666" points="845,-898.5 845,-898.5 1151,-898.5 1151,-898.5 845,-898.5"/>
<polygon fill="none" stroke="#666666" points="845,-882 845,-931 1151,-931 1151,-882 845,-882"/>
</a>
</g>
</g>
<!-- Node7&#45;&gt;Node4 -->
<g id="edge6_Node000004_Node000007" class="edge">
<title>Node7&#45;&gt;Node4</title>
<g id="a_edge6_Node000004_Node000007"><a xlink:title=" ">
<path fill="none" stroke="#63b8ff" d="M986.61,-872.14C983.03,-861.66 978.74,-849.12 973.96,-835.11"/>
<polygon fill="none" stroke="#63b8ff" points="983.4,-873.57 989.94,-881.9 990.02,-871.31 983.4,-873.57"/>
</a>
</g>
</g>
<!-- Node8 -->
<g id="Node000008" class="node">
<title>Node8</title>
<g id="a_Node000008"><a xlink:title=" ">
<polygon fill="white" stroke="none" points="1246.5,-931 1169.5,-931 1169.5,-882 1246.5,-882 1246.5,-931"/>
<text text-anchor="start" x="1175" y="-918.5" font-family="Helvetica,sans-Serif" font-size="10.00">InteropServices</text>
<text text-anchor="start" x="1206.5" y="-903.5" font-family="Helvetica,sans-Serif" font-size="10.00"> </text>
<text text-anchor="start" x="1206.5" y="-888.5" font-family="Helvetica,sans-Serif" font-size="10.00"> </text>
<polygon fill="#666666" stroke="#666666" points="1170,-913.5 1170,-913.5 1247,-913.5 1247,-913.5 1170,-913.5"/>
<polygon fill="#666666" stroke="#666666" points="1170,-898.5 1170,-898.5 1247,-898.5 1247,-898.5 1170,-898.5"/>
<polygon fill="none" stroke="#666666" points="1169.5,-882 1169.5,-931 1246.5,-931 1246.5,-882 1169.5,-882"/>
</a>
</g>
</g>
<!-- Node8&#45;&gt;Node4 -->
<g id="edge7_Node000004_Node000008" class="edge">
<title>Node8&#45;&gt;Node4</title>
<g id="a_edge7_Node000004_Node000008"><a xlink:title=" ">
<path fill="none" stroke="#63b8ff" d="M1187.12,-881.9C1178.29,-871.93 1167.03,-859.2 1154.03,-844.5"/>
<polygon fill="none" stroke="#63b8ff" points="1153.66,-844.09 1146.69,-842.25 1145.71,-835.11 1152.68,-836.95 1153.66,-844.09"/>
</a>
</g>
<text text-anchor="middle" x="1188" y="-856" font-family="Helvetica,sans-Serif" font-size="10.00" fill="grey"> &#45;swigCPtr</text>
</g>
</g>
</svg>

<g id="navigator" transform="translate(0 0)" fill="#404254">
  <rect fill="#f2f5e9" fill-opacity="0.5" stroke="#606060" stroke-width=".5" x="0" y="0" width="60" height="60"/>
  <use id="zoomplus" xlink:href="#zoomPlus" x="17" y="9" onmousedown="handleZoom(evt,'in')"/>
  <use id="zoomminus" xlink:href="#zoomMin" x="42" y="9" onmousedown="handleZoom(evt,'out')"/>
  <use id="reset" xlink:href="#resetDef" x="30" y="36" onmousedown="handleReset()"/>
   <use id="arrowup" xlink:href="#arrowUp" x="0" y="0" onmousedown="handlePan(0,-1)"/>
  <use id="arrowright" xlink:href="#arrowRight" x="0" y="0" onmousedown="handlePan(1,0)"/>
  <use id="arrowdown" xlink:href="#arrowDown" x="0" y="0" onmousedown="handlePan(0,1)"/>
  <use id="arrowleft" xlink:href="#arrowLeft" x="0" y="0" onmousedown="handlePan(-1,0)"/>
</g>
<svg viewBox="0 0 15 15" width="100%" height="30px" preserveAspectRatio="xMaxYMin meet">
 <g id="arrow_out" transform="scale(0.3 0.3)">
  <a xlink:href="class_llama_library_1_1_strings_and_floats_1_1_strings_and_floats_enumerator__coll__graph_org.svg" target="_base">
   <rect id="button" ry="5" rx="5" y="6" x="6" height="38" width="38"
        fill="#f2f5e9" fill-opacity="0.5" stroke="#606060" stroke-width="1.0"/>
   <path id="arrow"
     d="M 11.500037,31.436501 C 11.940474,20.09759 22.043105,11.32322 32.158766,21.979434 L 37.068811,17.246167 C 37.068811,17.246167 37.088388,32 37.088388,32 L 22.160133,31.978069 C 22.160133,31.978069 26.997745,27.140456 26.997745,27.140456 C 18.528582,18.264221 13.291696,25.230495 11.500037,31.436501 z"
     style="fill:#404040;"/>
  </a>
 </g>
</svg>

<style type='text/css'>
<![CDATA[
[data-mouse-over-selected='false'] { opacity: 0.7; }
[data-mouse-over-selected='true']  { opacity: 1.0; }
]]>
</style>
<script type="application/ecmascript"><![CDATA[
document.addEventListener('DOMContentLoaded', (event) => {
  highlightEdges();
  highlightAdjacentNodes();
});
]]></script>
</svg>
