<?xml version="1.0" encoding="UTF-8" standalone="no"?>
<!DOCTYPE svg PUBLIC "-//W3C//DTD SVG 1.1//EN"
 "http://www.w3.org/Graphics/SVG/1.1/DTD/svg11.dtd">
<!-- Generated by graphviz version 6.0.1 (20220911.1526)
 -->
<!-- Title: Assets.StyledLines.Runtime.LlamaInfrenceUnity.RunModelAsync.DoSetup Pages: 1 -->
<svg width="956pt" height="138pt"
 viewBox="0.00 0.00 956.00 138.00" xmlns="http://www.w3.org/2000/svg" xmlns:xlink="http://www.w3.org/1999/xlink">
<g id="graph0" class="graph" transform="scale(1 1) rotate(0) translate(4 134)">
<title>Assets.StyledLines.Runtime.LlamaInfrenceUnity.RunModelAsync.DoSetup</title>
<!-- Node1 -->
<g id="Node000001" class="node">
<title>Node1</title>
<g id="a_Node000001"><a xlink:title="Method to start the asynchronous setup process for the model. Triggers the necessary state changes an...">
<polygon fill="#999999" stroke="#666666" points="341,-74 0,-74 0,-55 341,-55 341,-74"/>
<text text-anchor="middle" x="170.5" y="-62" font-family="Helvetica,sans-Serif" font-size="10.00">Assets.StyledLines.Runtime.LlamaInfrenceUnity.RunModelAsync.DoSetup</text>
</a>
</g>
</g>
<!-- Node2 -->
<g id="Node000002" class="node">
<title>Node2</title>
<g id="a_Node000002"><a xlink:href="$class_llama_library_1_1_async_llama_infrence.html#a7cc223c9533da0f040cfd02d7f944cf6" xlink:title=" ">
<polygon fill="white" stroke="#666666" points="596,-74 377,-74 377,-55 596,-55 596,-74"/>
<text text-anchor="middle" x="486.5" y="-62" font-family="Helvetica,sans-Serif" font-size="10.00">LlamaLibrary.AsyncLlamaInfrence.SetupAsync</text>
</a>
</g>
</g>
<!-- Node1&#45;&gt;Node2 -->
<g id="edge1_Node000001_Node000002" class="edge">
<title>Node1&#45;&gt;Node2</title>
<g id="a_edge1_Node000001_Node000002"><a xlink:title=" ">
<path fill="none" stroke="#63b8ff" d="M341.37,-64.5C349.89,-64.5 358.37,-64.5 366.69,-64.5"/>
<polygon fill="#63b8ff" stroke="#63b8ff" points="366.76,-68 376.76,-64.5 366.76,-61 366.76,-68"/>
</a>
</g>
</g>
<!-- Node3 -->
<g id="Node000003" class="node">
<title>Node3</title>
<g id="a_Node000003"><a xlink:href="$class_llama_library_1_1libllama__lib_p_i_n_v_o_k_e.html#a3e629604030c518ff63457e5c5d03455" xlink:title=" ">
<polygon fill="white" stroke="#666666" points="948,-130 632,-130 632,-111 948,-111 948,-130"/>
<text text-anchor="middle" x="790" y="-118" font-family="Helvetica,sans-Serif" font-size="10.00">LlamaLibrary.libllama_libPINVOKE.AsyncLlamaInfrence_SetupAsync</text>
</a>
</g>
</g>
<!-- Node2&#45;&gt;Node3 -->
<g id="edge2_Node000002_Node000003" class="edge">
<title>Node2&#45;&gt;Node3</title>
<g id="a_edge2_Node000002_Node000003"><a xlink:title=" ">
<path fill="none" stroke="#63b8ff" d="M518.5,-74.03C547.56,-82.63 592.36,-95.05 632,-102.5 646.6,-105.24 662.04,-107.63 677.33,-109.69"/>
<polygon fill="#63b8ff" stroke="#63b8ff" points="676.97,-113.17 687.33,-111 677.87,-106.23 676.97,-113.17"/>
</a>
</g>
</g>
<!-- Node4 -->
<g id="Node000004" class="node">
<title>Node4</title>
<g id="a_Node000004"><a xlink:href="$class_llama_library_1_1gpt__params.html#a352b93d1ce986af8f726ebc0643f2825" xlink:title=" ">
<polygon fill="white" stroke="#666666" points="871,-93 709,-93 709,-74 871,-74 871,-93"/>
<text text-anchor="middle" x="790" y="-81" font-family="Helvetica,sans-Serif" font-size="10.00">LlamaLibrary.gpt_params.getCPtr</text>
</a>
</g>
</g>
<!-- Node2&#45;&gt;Node4 -->
<g id="edge3_Node000002_Node000004" class="edge">
<title>Node2&#45;&gt;Node4</title>
<g id="a_edge3_Node000002_Node000004"><a xlink:title=" ">
<path fill="none" stroke="#63b8ff" d="M596.35,-71.36C629.83,-73.47 666.31,-75.77 698.43,-77.79"/>
<polygon fill="#63b8ff" stroke="#63b8ff" points="698.5,-81.3 708.7,-78.44 698.94,-74.32 698.5,-81.3"/>
</a>
</g>
</g>
<!-- Node5 -->
<g id="Node000005" class="node">
<title>Node5</title>
<g id="a_Node000005"><a xlink:href="$class_llama_library_1_1_logging_context.html#a8af2a946a9ffc74d4f17f897e781437d" xlink:title=" ">
<polygon fill="white" stroke="#666666" points="879.5,-56 700.5,-56 700.5,-37 879.5,-37 879.5,-56"/>
<text text-anchor="middle" x="790" y="-44" font-family="Helvetica,sans-Serif" font-size="10.00">LlamaLibrary.LoggingContext.getCPtr</text>
</a>
</g>
</g>
<!-- Node2&#45;&gt;Node5 -->
<g id="edge4_Node000002_Node000005" class="edge">
<title>Node2&#45;&gt;Node5</title>
<g id="a_edge4_Node000002_Node000005"><a xlink:title=" ">
<path fill="none" stroke="#63b8ff" d="M596.35,-58C626.96,-56.17 660.08,-54.2 690.07,-52.41"/>
<polygon fill="#63b8ff" stroke="#63b8ff" points="690.35,-55.9 700.12,-51.81 689.93,-48.91 690.35,-55.9"/>
</a>
</g>
</g>
<!-- Node6 -->
<g id="Node000006" class="node">
<title>Node6</title>
<g id="a_Node000006"><a xlink:href="$class_llama_library_1_1libllama__lib_p_i_n_v_o_k_e_1_1_s_w_i_g_pending_exception.html#a2718a73540850b42db7c89e9be3519ec" xlink:title=" ">
<polygon fill="white" stroke="#666666" points="946,-19 634,-19 634,0 946,0 946,-19"/>
<text text-anchor="middle" x="790" y="-7" font-family="Helvetica,sans-Serif" font-size="10.00">LlamaLibrary.libllama_libPINVOKE.SWIGPendingException.Retrieve</text>
</a>
</g>
</g>
<!-- Node2&#45;&gt;Node6 -->
<g id="edge5_Node000002_Node000006" class="edge">
<title>Node2&#45;&gt;Node6</title>
<g id="a_edge5_Node000002_Node000006"><a xlink:title=" ">
<path fill="none" stroke="#63b8ff" d="M520.82,-54.95C549.95,-46.91 593.48,-35.6 632,-28.5 648.82,-25.4 666.74,-22.68 684.24,-20.35"/>
<polygon fill="#63b8ff" stroke="#63b8ff" points="685.02,-23.78 694.48,-19.02 684.12,-16.84 685.02,-23.78"/>
</a>
</g>
</g>
</g>
</svg>
