<?xml version="1.0" encoding="UTF-8" standalone="no"?>
<!DOCTYPE svg PUBLIC "-//W3C//DTD SVG 1.1//EN"
 "http://www.w3.org/Graphics/SVG/1.1/DTD/svg11.dtd">
<!-- Generated by graphviz version 6.0.1 (20220911.1526)
 -->
<!-- Title: LlamaLibrary.Int32s.CopyTo Pages: 1 -->
<svg width="687pt" height="64pt"
 viewBox="0.00 0.00 687.00 64.00" xmlns="http://www.w3.org/2000/svg" xmlns:xlink="http://www.w3.org/1999/xlink">
<g id="graph0" class="graph" transform="scale(1 1) rotate(0) translate(4 60)">
<title>LlamaLibrary.Int32s.CopyTo</title>
<!-- Node1 -->
<g id="Node000001" class="node">
<title>Node1</title>
<g id="a_Node000001"><a xlink:title=" ">
<polygon fill="#999999" stroke="#666666" points="137,-37 0,-37 0,-18 137,-18 137,-37"/>
<text text-anchor="middle" x="68.5" y="-25" font-family="Helvetica,sans-Serif" font-size="10.00">LlamaLibrary.Int32s.CopyTo</text>
</a>
</g>
</g>
<!-- Node2 -->
<g id="Node000002" class="node">
<title>Node2</title>
<g id="a_Node000002"><a xlink:href="$class_llama_library_1_1_int32s.html#a16855d1b5b0459a7881759be097bd83e" xlink:title=" ">
<polygon fill="white" stroke="#666666" points="331,-37 173,-37 173,-18 331,-18 331,-37"/>
<text text-anchor="middle" x="252" y="-25" font-family="Helvetica,sans-Serif" font-size="10.00">LlamaLibrary.Int32s.getitemcopy</text>
</a>
</g>
</g>
<!-- Node1&#45;&gt;Node2 -->
<g id="edge1_Node000001_Node000002" class="edge">
<title>Node1&#45;&gt;Node2</title>
<g id="a_edge1_Node000001_Node000002"><a xlink:title=" ">
<path fill="none" stroke="#63b8ff" d="M137.08,-27.5C145.49,-27.5 154.17,-27.5 162.83,-27.5"/>
<polygon fill="#63b8ff" stroke="#63b8ff" points="162.96,-31 172.96,-27.5 162.96,-24 162.96,-31"/>
</a>
</g>
</g>
<!-- Node3 -->
<g id="Node000003" class="node">
<title>Node3</title>
<g id="a_Node000003"><a xlink:href="$class_llama_library_1_1libllama__lib_p_i_n_v_o_k_e.html#a0c1e2f1c5503ee04c00e3791daa89ca9" xlink:title=" ">
<polygon fill="white" stroke="#666666" points="650,-56 396,-56 396,-37 650,-37 650,-56"/>
<text text-anchor="middle" x="523" y="-44" font-family="Helvetica,sans-Serif" font-size="10.00">LlamaLibrary.libllama_libPINVOKE.Int32s_getitemcopy</text>
</a>
</g>
</g>
<!-- Node2&#45;&gt;Node3 -->
<g id="edge2_Node000002_Node000003" class="edge">
<title>Node2&#45;&gt;Node3</title>
<g id="a_edge2_Node000002_Node000003"><a xlink:title=" ">
<path fill="none" stroke="#63b8ff" d="M331.17,-33.02C348.33,-34.23 366.98,-35.55 385.68,-36.87"/>
<polygon fill="#63b8ff" stroke="#63b8ff" points="385.54,-40.37 395.76,-37.58 386.03,-33.39 385.54,-40.37"/>
</a>
</g>
</g>
<!-- Node4 -->
<g id="Node000004" class="node">
<title>Node4</title>
<g id="a_Node000004"><a xlink:href="$class_llama_library_1_1libllama__lib_p_i_n_v_o_k_e_1_1_s_w_i_g_pending_exception.html#a2718a73540850b42db7c89e9be3519ec" xlink:title=" ">
<polygon fill="white" stroke="#666666" points="679,-19 367,-19 367,0 679,0 679,-19"/>
<text text-anchor="middle" x="523" y="-7" font-family="Helvetica,sans-Serif" font-size="10.00">LlamaLibrary.libllama_libPINVOKE.SWIGPendingException.Retrieve</text>
</a>
</g>
</g>
<!-- Node2&#45;&gt;Node4 -->
<g id="edge3_Node000002_Node000004" class="edge">
<title>Node2&#45;&gt;Node4</title>
<g id="a_edge3_Node000002_Node000004"><a xlink:title=" ">
<path fill="none" stroke="#63b8ff" d="M331.17,-22.27C343.41,-21.45 356.4,-20.58 369.63,-19.7"/>
<polygon fill="#63b8ff" stroke="#63b8ff" points="370.05,-23.18 379.79,-19.02 369.58,-16.19 370.05,-23.18"/>
</a>
</g>
</g>
</g>
</svg>
