<?xml version="1.0" encoding="UTF-8" standalone="no"?>
<!DOCTYPE svg PUBLIC "-//W3C//DTD SVG 1.1//EN"
 "http://www.w3.org/Graphics/SVG/1.1/DTD/svg11.dtd">
<!-- Generated by graphviz version 6.0.1 (20220911.1526)
 -->
<!-- Title: LlamaLibrary.libllama_libPINVOKE.LlamaControlVectorLoadInfos_Add Pages: 1 -->
<svg width="953pt" height="64pt"
 viewBox="0.00 0.00 953.00 64.00" xmlns="http://www.w3.org/2000/svg" xmlns:xlink="http://www.w3.org/1999/xlink">
<g id="graph0" class="graph" transform="scale(1 1) rotate(0) translate(4 60)">
<title>LlamaLibrary.libllama_libPINVOKE.LlamaControlVectorLoadInfos_Add</title>
<!-- Node1 -->
<g id="Node000001" class="node">
<title>Node1</title>
<g id="a_Node000001"><a xlink:title=" ">
<polygon fill="#999999" stroke="#666666" points="945,-37 626,-37 626,-18 945,-18 945,-37"/>
<text text-anchor="middle" x="785.5" y="-25" font-family="Helvetica,sans-Serif" font-size="10.00">LlamaLibrary.libllama_libPINVOKE.LlamaControlVectorLoadInfos_Add</text>
</a>
</g>
</g>
<!-- Node2 -->
<g id="Node000002" class="node">
<title>Node2</title>
<g id="a_Node000002"><a xlink:href="class_llama_library_1_1_llama_control_vector_load_infos.html#a222cdf8694abce8cdc9977d8872b52c5" target="_top" xlink:title=" ">
<polygon fill="white" stroke="#666666" points="590,-37 368,-37 368,-18 590,-18 590,-37"/>
<text text-anchor="middle" x="479" y="-25" font-family="Helvetica,sans-Serif" font-size="10.00">LlamaLibrary.LlamaControlVectorLoadInfos.Add</text>
</a>
</g>
</g>
<!-- Node1&#45;&gt;Node2 -->
<g id="edge1_Node000001_Node000002" class="edge">
<title>Node1&#45;&gt;Node2</title>
<g id="a_edge1_Node000001_Node000002"><a xlink:title=" ">
<path fill="none" stroke="#63b8ff" d="M615.48,-27.5C606.92,-27.5 598.43,-27.5 590.12,-27.5"/>
<polygon fill="#63b8ff" stroke="#63b8ff" points="615.56,-31 625.56,-27.5 615.56,-24 615.56,-31"/>
</a>
</g>
</g>
<!-- Node3 -->
<g id="Node000003" class="node">
<title>Node3</title>
<g id="a_Node000003"><a xlink:href="class_llama_library_1_1_llama_control_vector_load_infos.html#ae2049f416cafc20c1b69853790f1938d" target="_top" xlink:title=" ">
<polygon fill="white" stroke="#666666" points="332,-56 0,-56 0,-37 332,-37 332,-56"/>
<text text-anchor="middle" x="166" y="-44" font-family="Helvetica,sans-Serif" font-size="10.00">LlamaLibrary.LlamaControlVectorLoadInfos.LlamaControlVectorLoadInfos</text>
</a>
</g>
</g>
<!-- Node2&#45;&gt;Node3 -->
<g id="edge2_Node000002_Node000003" class="edge">
<title>Node2&#45;&gt;Node3</title>
<g id="a_edge2_Node000002_Node000003"><a xlink:title=" ">
<path fill="none" stroke="#63b8ff" d="M357.85,-34.84C346.32,-35.54 334.51,-36.27 322.7,-36.99"/>
<polygon fill="#63b8ff" stroke="#63b8ff" points="358.15,-38.33 367.92,-34.23 357.72,-31.34 358.15,-38.33"/>
</a>
</g>
</g>
<!-- Node4 -->
<g id="Node000004" class="node">
<title>Node4</title>
<g id="a_Node000004"><a xlink:href="class_llama_library_1_1_llama_control_vector_load_infos.html#a1fb1b787b132c1476b9d4fef1791b769" target="_top" xlink:title=" ">
<polygon fill="white" stroke="#666666" points="332,-19 0,-19 0,0 332,0 332,-19"/>
<text text-anchor="middle" x="166" y="-7" font-family="Helvetica,sans-Serif" font-size="10.00">LlamaLibrary.LlamaControlVectorLoadInfos.LlamaControlVectorLoadInfos</text>
</a>
</g>
</g>
<!-- Node2&#45;&gt;Node4 -->
<g id="edge3_Node000002_Node000004" class="edge">
<title>Node2&#45;&gt;Node4</title>
<g id="a_edge3_Node000002_Node000004"><a xlink:title=" ">
<path fill="none" stroke="#63b8ff" d="M357.73,-20.54C348.99,-20.03 340.09,-19.52 331.15,-19"/>
<polygon fill="#63b8ff" stroke="#63b8ff" points="357.73,-24.04 367.92,-21.13 358.13,-17.06 357.73,-24.04"/>
</a>
</g>
</g>
</g>
</svg>
