<?xml version="1.0" encoding="UTF-8" standalone="no"?>
<!DOCTYPE svg PUBLIC "-//W3C//DTD SVG 1.1//EN"
 "http://www.w3.org/Graphics/SVG/1.1/DTD/svg11.dtd">
<!-- Generated by graphviz version 6.0.1 (20220911.1526)
 -->
<!-- Title: Assets.StyledLines.Runtime.LlamaInfrenceUnity.RunModelAsync.Start Pages: 1 -->
<svg width="1198pt" height="304pt"
 viewBox="0.00 0.00 1198.00 304.00" xmlns="http://www.w3.org/2000/svg" xmlns:xlink="http://www.w3.org/1999/xlink">
<g id="graph0" class="graph" transform="scale(1 1) rotate(0) translate(4 300)">
<title>Assets.StyledLines.Runtime.LlamaInfrenceUnity.RunModelAsync.Start</title>
<!-- Node1 -->
<g id="Node000001" class="node">
<title>Node1</title>
<g id="a_Node000001"><a xlink:title="Method called at the start of the MonoBehaviour&#39;s lifecycle. Initializes the model,...">
<polygon fill="#999999" stroke="#666666" points="324,-203 0,-203 0,-184 324,-184 324,-203"/>
<text text-anchor="middle" x="162" y="-191" font-family="Helvetica,sans-Serif" font-size="10.00">Assets.StyledLines.Runtime.LlamaInfrenceUnity.RunModelAsync.Start</text>
</a>
</g>
</g>
<!-- Node2 -->
<g id="Node000002" class="node">
<title>Node2</title>
<g id="a_Node000002"><a xlink:href="$class_assets_1_1_styled_lines_1_1_runtime_1_1_llama_infrence_unity_1_1_model_controller.html#a46681d90514c97a90a91a9d0777e4fe4" xlink:title="Static method to get the appropriate temporary file path based on the platform. This method returns a...">
<polygon fill="white" stroke="#666666" points="742.5,-296 383.5,-296 383.5,-277 742.5,-277 742.5,-296"/>
<text text-anchor="middle" x="563" y="-284" font-family="Helvetica,sans-Serif" font-size="10.00">Assets.StyledLines.Runtime.LlamaInfrenceUnity.ModelController.GetTempPath</text>
</a>
</g>
</g>
<!-- Node1&#45;&gt;Node2 -->
<g id="edge1_Node000001_Node000002" class="edge">
<title>Node1&#45;&gt;Node2</title>
<g id="a_edge1_Node000001_Node000002"><a xlink:title=" ">
<path fill="none" stroke="#63b8ff" d="M182.57,-203.03C217.34,-219.5 292.6,-252.98 360,-268.5 371.78,-271.21 384.03,-273.52 396.41,-275.48"/>
<polygon fill="#63b8ff" stroke="#63b8ff" points="395.96,-278.95 406.37,-276.99 397,-272.03 395.96,-278.95"/>
</a>
</g>
</g>
<!-- Node3 -->
<g id="Node000003" class="node">
<title>Node3</title>
<g id="a_Node000003"><a xlink:href="$class_assets_1_1_styled_lines_1_1_runtime_1_1_model_files_u_i_1_1_basic_gpt_params_settings.html#ab4c47ba8367a6cd97376382573372aaa" xlink:title=" ">
<polygon fill="white" stroke="#666666" points="730.5,-259 395.5,-259 395.5,-240 730.5,-240 730.5,-259"/>
<text text-anchor="middle" x="563" y="-247" font-family="Helvetica,sans-Serif" font-size="10.00">Assets.StyledLines.Runtime.ModelFilesUI.BasicGptParamsSettings.Raw</text>
</a>
</g>
</g>
<!-- Node1&#45;&gt;Node3 -->
<g id="edge2_Node000001_Node000003" class="edge">
<title>Node1&#45;&gt;Node3</title>
<g id="a_edge2_Node000001_Node000003"><a xlink:title=" ">
<path fill="none" stroke="#63b8ff" d="M205.83,-203.07C245.6,-211.64 306.54,-223.98 360,-231.5 380.32,-234.36 401.85,-236.85 422.99,-238.99"/>
<polygon fill="#63b8ff" stroke="#63b8ff" points="422.71,-242.48 433,-239.98 423.4,-235.51 422.71,-242.48"/>
</a>
</g>
</g>
<!-- Node4 -->
<g id="Node000004" class="node">
<title>Node4</title>
<g id="a_Node000004"><a xlink:href="$class_assets_1_1_styled_lines_1_1_runtime_1_1_llama_infrence_1_1_callback_wrapper.html#a179d4d8c24348da755b4caa4ebec3871" xlink:title="Registers a completion callback function for the Llama model.">
<polygon fill="white" stroke="#666666" points="766,-222 360,-222 360,-203 766,-203 766,-222"/>
<text text-anchor="middle" x="563" y="-210" font-family="Helvetica,sans-Serif" font-size="10.00">Assets.StyledLines.Runtime.LlamaInfrence.CallbackWrapper.RegisterCompletionCallback</text>
</a>
</g>
</g>
<!-- Node1&#45;&gt;Node4 -->
<g id="edge3_Node000001_Node000004" class="edge">
<title>Node1&#45;&gt;Node4</title>
<g id="a_edge3_Node000001_Node000004"><a xlink:title=" ">
<path fill="none" stroke="#63b8ff" d="M324.14,-201.17C333.35,-201.61 342.68,-202.06 352.03,-202.5"/>
<polygon fill="#63b8ff" stroke="#63b8ff" points="352.04,-206.01 362.19,-202.99 352.37,-199.01 352.04,-206.01"/>
</a>
</g>
</g>
<!-- Node7 -->
<g id="Node000007" class="node">
<title>Node7</title>
<g id="a_Node000007"><a xlink:href="$class_assets_1_1_styled_lines_1_1_runtime_1_1_llama_infrence_1_1_callback_wrapper.html#abd96cb93684352bd76e733d4907a19f9" xlink:title="Registers a log callback function for the Llama model.">
<polygon fill="white" stroke="#666666" points="749.5,-185 376.5,-185 376.5,-166 749.5,-166 749.5,-185"/>
<text text-anchor="middle" x="563" y="-173" font-family="Helvetica,sans-Serif" font-size="10.00">Assets.StyledLines.Runtime.LlamaInfrence.CallbackWrapper.RegisterLogCallback</text>
</a>
</g>
</g>
<!-- Node1&#45;&gt;Node7 -->
<g id="edge6_Node000001_Node000007" class="edge">
<title>Node1&#45;&gt;Node7</title>
<g id="a_edge6_Node000001_Node000007"><a xlink:title=" ">
<path fill="none" stroke="#63b8ff" d="M324.14,-186.23C337.97,-185.61 352.07,-184.97 366.13,-184.34"/>
<polygon fill="#63b8ff" stroke="#63b8ff" points="366.54,-187.82 376.37,-183.87 366.22,-180.83 366.54,-187.82"/>
</a>
</g>
</g>
<!-- Node10 -->
<g id="Node000010" class="node">
<title>Node10</title>
<g id="a_Node000010"><a xlink:href="$class_assets_1_1_styled_lines_1_1_runtime_1_1_llama_infrence_1_1_callback_wrapper.html#ac94cfbc5b52ab58117b391e3ccb69bbe" xlink:title="Registers a token callback function for the Llama model.">
<polygon fill="white" stroke="#666666" points="754.5,-130 371.5,-130 371.5,-111 754.5,-111 754.5,-130"/>
<text text-anchor="middle" x="563" y="-118" font-family="Helvetica,sans-Serif" font-size="10.00">Assets.StyledLines.Runtime.LlamaInfrence.CallbackWrapper.RegisterTokenCallback</text>
</a>
</g>
</g>
<!-- Node1&#45;&gt;Node10 -->
<g id="edge9_Node000001_Node000010" class="edge">
<title>Node1&#45;&gt;Node10</title>
<g id="a_edge9_Node000001_Node000010"><a xlink:title=" ">
<path fill="none" stroke="#63b8ff" d="M215.16,-183.96C288.34,-170.57 421.29,-146.24 499.62,-131.91"/>
<polygon fill="#63b8ff" stroke="#63b8ff" points="500.62,-135.29 509.82,-130.05 499.36,-128.4 500.62,-135.29"/>
</a>
</g>
</g>
<!-- Node13 -->
<g id="Node000013" class="node">
<title>Node13</title>
<g id="a_Node000013"><a xlink:href="$class_llama_library_1_1_file_wrapper.html#adf3f8c97164d49fd35efa91f740005a4" xlink:title=" ">
<polygon fill="white" stroke="#666666" points="639,-56 487,-56 487,-37 639,-37 639,-56"/>
<text text-anchor="middle" x="563" y="-44" font-family="Helvetica,sans-Serif" font-size="10.00">LlamaLibrary.FileWrapper.Save</text>
</a>
</g>
</g>
<!-- Node1&#45;&gt;Node13 -->
<g id="edge12_Node000001_Node000013" class="edge">
<title>Node1&#45;&gt;Node13</title>
<g id="a_edge12_Node000001_Node000013"><a xlink:title=" ">
<path fill="none" stroke="#63b8ff" d="M181.05,-183.95C215.23,-166.14 292.09,-127.41 360,-102.5 410.03,-84.15 468.91,-68.47 510.15,-58.41"/>
<polygon fill="#63b8ff" stroke="#63b8ff" points="511.08,-61.79 519.98,-56.04 509.44,-54.98 511.08,-61.79"/>
</a>
</g>
</g>
<!-- Node5 -->
<g id="Node000005" class="node">
<title>Node5</title>
<g id="a_Node000005"><a xlink:href="$class_assets_1_1_styled_lines_1_1_runtime_1_1_llama_infrence_1_1_callback_wrapper.html#a34617c5048d2676faa1c9d4378224d5b" xlink:title="Sets the completion callback function for the native library.">
<polygon fill="white" stroke="#666666" points="1188.5,-278 803.5,-278 803.5,-259 1188.5,-259 1188.5,-278"/>
<text text-anchor="middle" x="996" y="-266" font-family="Helvetica,sans-Serif" font-size="10.00">Assets.StyledLines.Runtime.LlamaInfrence.CallbackWrapper.SetCompletionCallback</text>
</a>
</g>
</g>
<!-- Node4&#45;&gt;Node5 -->
<g id="edge4_Node000004_Node000005" class="edge">
<title>Node4&#45;&gt;Node5</title>
<g id="a_edge4_Node000004_Node000005"><a xlink:title=" ">
<path fill="none" stroke="#63b8ff" d="M725.79,-222C739.53,-224.53 753.09,-227.65 766,-231.5 783.34,-236.67 784.66,-245.34 802,-250.5 810.26,-252.96 818.8,-255.11 827.48,-256.98"/>
<polygon fill="#63b8ff" stroke="#63b8ff" points="826.84,-260.42 837.33,-258.98 828.23,-253.56 826.84,-260.42"/>
</a>
</g>
</g>
<!-- Node6 -->
<g id="Node000006" class="node">
<title>Node6</title>
<g id="a_Node000006"><a xlink:href="$class_assets_1_1_styled_lines_1_1_runtime_1_1_llama_infrence_1_1_callback_wrapper.html#aebb37888a106737b5468bd108acf7bfc" xlink:title="Static method to handle the completion callback from the native library.">
<polygon fill="white" stroke="#666666" points="1190,-241 802,-241 802,-222 1190,-222 1190,-241"/>
<text text-anchor="middle" x="996" y="-229" font-family="Helvetica,sans-Serif" font-size="10.00">Assets.StyledLines.Runtime.LlamaInfrence.CallbackWrapper.StaticCompleteCallback</text>
</a>
</g>
</g>
<!-- Node4&#45;&gt;Node6 -->
<g id="edge5_Node000004_Node000006" class="edge">
<title>Node4&#45;&gt;Node6</title>
<g id="a_edge5_Node000004_Node000006"><a xlink:title=" ">
<path fill="none" stroke="#63b8ff" d="M766.25,-221.42C774.65,-221.79 783.07,-222.16 791.47,-222.53"/>
<polygon fill="#63b8ff" stroke="#63b8ff" points="791.55,-226.03 801.7,-222.98 791.86,-219.04 791.55,-226.03"/>
</a>
</g>
</g>
<!-- Node8 -->
<g id="Node000008" class="node">
<title>Node8</title>
<g id="a_Node000008"><a xlink:href="$class_assets_1_1_styled_lines_1_1_runtime_1_1_llama_infrence_1_1_callback_wrapper.html#aed9e6b8cd8a918661b8fce6112ea7275" xlink:title="Sets the log callback function for the native library.">
<polygon fill="white" stroke="#666666" points="1172,-204 820,-204 820,-185 1172,-185 1172,-204"/>
<text text-anchor="middle" x="996" y="-192" font-family="Helvetica,sans-Serif" font-size="10.00">Assets.StyledLines.Runtime.LlamaInfrence.CallbackWrapper.SetLogCallback</text>
</a>
</g>
</g>
<!-- Node7&#45;&gt;Node8 -->
<g id="edge7_Node000007_Node000008" class="edge">
<title>Node7&#45;&gt;Node8</title>
<g id="a_edge7_Node000007_Node000008"><a xlink:title=" ">
<path fill="none" stroke="#63b8ff" d="M749.6,-183.68C769.49,-184.56 789.73,-185.45 809.62,-186.33"/>
<polygon fill="#63b8ff" stroke="#63b8ff" points="809.53,-189.83 819.67,-186.77 809.84,-182.83 809.53,-189.83"/>
</a>
</g>
</g>
<!-- Node9 -->
<g id="Node000009" class="node">
<title>Node9</title>
<g id="a_Node000009"><a xlink:href="$class_assets_1_1_styled_lines_1_1_runtime_1_1_llama_infrence_1_1_callback_wrapper.html#ae2665b4e70a63797c99f2f3e1efe68ae" xlink:title="Static method to handle the log callback from the native library.">
<polygon fill="white" stroke="#666666" points="1177,-167 815,-167 815,-148 1177,-148 1177,-167"/>
<text text-anchor="middle" x="996" y="-155" font-family="Helvetica,sans-Serif" font-size="10.00">Assets.StyledLines.Runtime.LlamaInfrence.CallbackWrapper.StaticLogCallback</text>
</a>
</g>
</g>
<!-- Node7&#45;&gt;Node9 -->
<g id="edge8_Node000007_Node000009" class="edge">
<title>Node7&#45;&gt;Node9</title>
<g id="a_edge8_Node000007_Node000009"><a xlink:title=" ">
<path fill="none" stroke="#63b8ff" d="M749.6,-167.75C767.87,-166.99 786.44,-166.21 804.76,-165.45"/>
<polygon fill="#63b8ff" stroke="#63b8ff" points="805.06,-168.94 814.91,-165.02 804.77,-161.94 805.06,-168.94"/>
</a>
</g>
</g>
<!-- Node11 -->
<g id="Node000011" class="node">
<title>Node11</title>
<g id="a_Node000011"><a xlink:href="$class_assets_1_1_styled_lines_1_1_runtime_1_1_llama_infrence_1_1_callback_wrapper.html#aa8293a39e5b2094dab76d8c98bf06368" xlink:title="Sets the token callback function for the native library.">
<polygon fill="white" stroke="#666666" points="1177,-130 815,-130 815,-111 1177,-111 1177,-130"/>
<text text-anchor="middle" x="996" y="-118" font-family="Helvetica,sans-Serif" font-size="10.00">Assets.StyledLines.Runtime.LlamaInfrence.CallbackWrapper.SetTokenCallback</text>
</a>
</g>
</g>
<!-- Node10&#45;&gt;Node11 -->
<g id="edge10_Node000010_Node000011" class="edge">
<title>Node10&#45;&gt;Node11</title>
<g id="a_edge10_Node000010_Node000011"><a xlink:title=" ">
<path fill="none" stroke="#63b8ff" d="M754.61,-120.5C771.22,-120.5 788.03,-120.5 804.63,-120.5"/>
<polygon fill="#63b8ff" stroke="#63b8ff" points="804.94,-124 814.94,-120.5 804.94,-117 804.94,-124"/>
</a>
</g>
</g>
<!-- Node12 -->
<g id="Node000012" class="node">
<title>Node12</title>
<g id="a_Node000012"><a xlink:href="$class_assets_1_1_styled_lines_1_1_runtime_1_1_llama_infrence_1_1_callback_wrapper.html#a2f26e3355627e83d630f031d1a80c864" xlink:title="Static method to handle the token callback from the native library.">
<polygon fill="white" stroke="#666666" points="1182.5,-93 809.5,-93 809.5,-74 1182.5,-74 1182.5,-93"/>
<text text-anchor="middle" x="996" y="-81" font-family="Helvetica,sans-Serif" font-size="10.00">Assets.StyledLines.Runtime.LlamaInfrence.CallbackWrapper.StaticTokenCallback</text>
</a>
</g>
</g>
<!-- Node10&#45;&gt;Node12 -->
<g id="edge11_Node000010_Node000012" class="edge">
<title>Node10&#45;&gt;Node12</title>
<g id="a_edge11_Node000010_Node000012"><a xlink:title=" ">
<path fill="none" stroke="#63b8ff" d="M674.71,-111C735.67,-105.76 811.41,-99.26 873.93,-93.89"/>
<polygon fill="#63b8ff" stroke="#63b8ff" points="874.58,-97.35 884.24,-93.01 873.98,-90.38 874.58,-97.35"/>
</a>
</g>
</g>
<!-- Node14 -->
<g id="Node000014" class="node">
<title>Node14</title>
<g id="a_Node000014"><a xlink:href="$class_llama_library_1_1libllama__lib_p_i_n_v_o_k_e.html#a2e2f829d671969cd417008a77a3b7445" xlink:title=" ">
<polygon fill="white" stroke="#666666" points="1144,-56 848,-56 848,-37 1144,-37 1144,-56"/>
<text text-anchor="middle" x="996" y="-44" font-family="Helvetica,sans-Serif" font-size="10.00">LlamaLibrary.libllama_libPINVOKE.FileWrapper_Save__SWIG_0</text>
</a>
</g>
</g>
<!-- Node13&#45;&gt;Node14 -->
<g id="edge13_Node000013_Node000014" class="edge">
<title>Node13&#45;&gt;Node14</title>
<g id="a_edge13_Node000013_Node000014"><a xlink:title=" ">
<path fill="none" stroke="#63b8ff" d="M639.07,-46.5C693.67,-46.5 769.57,-46.5 837.26,-46.5"/>
<polygon fill="#63b8ff" stroke="#63b8ff" points="837.62,-50 847.62,-46.5 837.62,-43 837.62,-50"/>
</a>
</g>
</g>
<!-- Node15 -->
<g id="Node000015" class="node">
<title>Node15</title>
<g id="a_Node000015"><a xlink:href="$class_llama_library_1_1libllama__lib_p_i_n_v_o_k_e_1_1_s_w_i_g_pending_exception.html#a2718a73540850b42db7c89e9be3519ec" xlink:title=" ">
<polygon fill="white" stroke="#666666" points="1152,-19 840,-19 840,0 1152,0 1152,-19"/>
<text text-anchor="middle" x="996" y="-7" font-family="Helvetica,sans-Serif" font-size="10.00">LlamaLibrary.libllama_libPINVOKE.SWIGPendingException.Retrieve</text>
</a>
</g>
</g>
<!-- Node13&#45;&gt;Node15 -->
<g id="edge14_Node000013_Node000015" class="edge">
<title>Node13&#45;&gt;Node15</title>
<g id="a_edge14_Node000013_Node000015"><a xlink:title=" ">
<path fill="none" stroke="#63b8ff" d="M639.07,-40.06C703.82,-34.5 798.52,-26.37 873.96,-19.89"/>
<polygon fill="#63b8ff" stroke="#63b8ff" points="874.33,-23.37 884,-19.03 873.74,-16.4 874.33,-23.37"/>
</a>
</g>
</g>
</g>
</svg>
