<?xml version="1.0" encoding="UTF-8" standalone="no"?>
<!DOCTYPE svg PUBLIC "-//W3C//DTD SVG 1.1//EN"
 "http://www.w3.org/Graphics/SVG/1.1/DTD/svg11.dtd">
<!-- Generated by graphviz version 6.0.1 (20220911.1526)
 -->
<!-- Title: LlamaLibrary.libllama_libPINVOKE.SWIGExceptionHelper.SetPendingNullReferenceException Pages: 1 -->
<svg width="780pt" height="64pt"
 viewBox="0.00 0.00 780.00 64.00" xmlns="http://www.w3.org/2000/svg" xmlns:xlink="http://www.w3.org/1999/xlink">
<g id="graph0" class="graph" transform="scale(1 1) rotate(0) translate(4 60)">
<title>LlamaLibrary.libllama_libPINVOKE.SWIGExceptionHelper.SetPendingNullReferenceException</title>
<!-- Node1 -->
<g id="Node000001" class="node">
<title>Node1</title>
<g id="a_Node000001"><a xlink:title=" ">
<polygon fill="#999999" stroke="#666666" points="424,-37 0,-37 0,-18 424,-18 424,-37"/>
<text text-anchor="middle" x="212" y="-25" font-family="Helvetica,sans-Serif" font-size="10.00">LlamaLibrary.libllama_libPINVOKE.SWIGExceptionHelper.SetPendingNullReferenceException</text>
</a>
</g>
</g>
<!-- Node2 -->
<g id="Node000002" class="node">
<title>Node2</title>
<g id="a_Node000002"><a xlink:href="$class_llama_library_1_1libllama__lib_p_i_n_v_o_k_e_1_1_s_w_i_g_pending_exception.html#a2718a73540850b42db7c89e9be3519ec" xlink:title=" ">
<polygon fill="white" stroke="#666666" points="772,-56 460,-56 460,-37 772,-37 772,-56"/>
<text text-anchor="middle" x="616" y="-44" font-family="Helvetica,sans-Serif" font-size="10.00">LlamaLibrary.libllama_libPINVOKE.SWIGPendingException.Retrieve</text>
</a>
</g>
</g>
<!-- Node1&#45;&gt;Node2 -->
<g id="edge1_Node000001_Node000002" class="edge">
<title>Node1&#45;&gt;Node2</title>
<g id="a_edge1_Node000001_Node000002"><a xlink:title=" ">
<path fill="none" stroke="#63b8ff" d="M414.29,-37.01C426.12,-37.57 437.95,-38.13 449.62,-38.68"/>
<polygon fill="#63b8ff" stroke="#63b8ff" points="449.67,-42.19 459.82,-39.17 450,-35.2 449.67,-42.19"/>
</a>
</g>
</g>
<!-- Node3 -->
<g id="Node000003" class="node">
<title>Node3</title>
<g id="a_Node000003"><a xlink:href="$class_llama_library_1_1libllama__lib_p_i_n_v_o_k_e_1_1_s_w_i_g_pending_exception.html#a8ab3aa971cf4b30e8ca2e9973aa9d21a" xlink:title=" ">
<polygon fill="white" stroke="#666666" points="762.5,-19 469.5,-19 469.5,0 762.5,0 762.5,-19"/>
<text text-anchor="middle" x="616" y="-7" font-family="Helvetica,sans-Serif" font-size="10.00">LlamaLibrary.libllama_libPINVOKE.SWIGPendingException.Set</text>
</a>
</g>
</g>
<!-- Node1&#45;&gt;Node3 -->
<g id="edge2_Node000001_Node000003" class="edge">
<title>Node1&#45;&gt;Node3</title>
<g id="a_edge2_Node000001_Node000003"><a xlink:title=" ">
<path fill="none" stroke="#63b8ff" d="M424.01,-18.05C435.88,-17.52 447.71,-16.99 459.33,-16.47"/>
<polygon fill="#63b8ff" stroke="#63b8ff" points="459.64,-19.96 469.48,-16.02 459.33,-12.97 459.64,-19.96"/>
</a>
</g>
</g>
</g>
</svg>
