<?xml version="1.0" encoding="UTF-8" standalone="no"?>
<!DOCTYPE svg PUBLIC "-//W3C//DTD SVG 1.1//EN"
 "http://www.w3.org/Graphics/SVG/1.1/DTD/svg11.dtd">
<!-- Generated by graphviz version 6.0.1 (20220911.1526)
 -->
<!-- Title: Assets.StyledLines.Runtime.UIHelpers.PrintStopwatchScore.OnStateChangedDone Pages: 1 -->
<svg width="753pt" height="64pt"
 viewBox="0.00 0.00 753.00 64.00" xmlns="http://www.w3.org/2000/svg" xmlns:xlink="http://www.w3.org/1999/xlink">
<g id="graph0" class="graph" transform="scale(1 1) rotate(0) translate(4 60)">
<title>Assets.StyledLines.Runtime.UIHelpers.PrintStopwatchScore.OnStateChangedDone</title>
<!-- Node1 -->
<g id="Node000001" class="node">
<title>Node1</title>
<g id="a_Node000001"><a xlink:title=" ">
<polygon fill="#999999" stroke="#666666" points="745,-37 365,-37 365,-18 745,-18 745,-37"/>
<text text-anchor="middle" x="555" y="-25" font-family="Helvetica,sans-Serif" font-size="10.00">Assets.StyledLines.Runtime.UIHelpers.PrintStopwatchScore.OnStateChangedDone</text>
</a>
</g>
</g>
<!-- Node2 -->
<g id="Node000002" class="node">
<title>Node2</title>
<g id="a_Node000002"><a xlink:href="$class_assets_1_1_styled_lines_1_1_runtime_1_1_u_i_helpers_1_1_print_stopwatch_score.html#a69aabc064bcab4443b79d048372707d0" xlink:title=" ">
<polygon fill="white" stroke="#666666" points="329,-56 0,-56 0,-37 329,-37 329,-56"/>
<text text-anchor="middle" x="164.5" y="-44" font-family="Helvetica,sans-Serif" font-size="10.00">Assets.StyledLines.Runtime.UIHelpers.PrintStopwatchScore.OnDestroy</text>
</a>
</g>
</g>
<!-- Node1&#45;&gt;Node2 -->
<g id="edge1_Node000001_Node000002" class="edge">
<title>Node1&#45;&gt;Node2</title>
<g id="a_edge1_Node000001_Node000002"><a xlink:title=" ">
<path fill="none" stroke="#63b8ff" d="M354.77,-37.24C346.17,-37.66 337.59,-38.08 329.08,-38.5"/>
<polygon fill="#63b8ff" stroke="#63b8ff" points="355.05,-40.73 364.87,-36.75 354.71,-33.74 355.05,-40.73"/>
</a>
</g>
</g>
<!-- Node3 -->
<g id="Node000003" class="node">
<title>Node3</title>
<g id="a_Node000003"><a xlink:href="$class_assets_1_1_styled_lines_1_1_runtime_1_1_u_i_helpers_1_1_print_stopwatch_score.html#a11b0bd3fd8e99acda6e4df0194c1abd8" xlink:title=" ">
<polygon fill="white" stroke="#666666" points="316.5,-19 12.5,-19 12.5,0 316.5,0 316.5,-19"/>
<text text-anchor="middle" x="164.5" y="-7" font-family="Helvetica,sans-Serif" font-size="10.00">Assets.StyledLines.Runtime.UIHelpers.PrintStopwatchScore.Start</text>
</a>
</g>
</g>
<!-- Node1&#45;&gt;Node3 -->
<g id="edge2_Node000001_Node000003" class="edge">
<title>Node1&#45;&gt;Node3</title>
<g id="a_edge2_Node000001_Node000003"><a xlink:title=" ">
<path fill="none" stroke="#63b8ff" d="M354.61,-18.26C341.82,-17.67 329.06,-17.08 316.55,-16.5"/>
<polygon fill="#63b8ff" stroke="#63b8ff" points="354.72,-21.77 364.87,-18.74 355.04,-14.78 354.72,-21.77"/>
</a>
</g>
</g>
</g>
</svg>
