<?xml version="1.0" encoding="UTF-8" standalone="no"?>
<!DOCTYPE svg PUBLIC "-//W3C//DTD SVG 1.1//EN"
 "http://www.w3.org/Graphics/SVG/1.1/DTD/svg11.dtd">
<!-- Generated by graphviz version 6.0.1 (20220911.1526)
 -->
<!-- Title: LlamaLibrary.LlamaControlVectorLoadInfos.LlamaControlVectorLoadInfos Pages: 1 -->
<svg width="953pt" height="101pt"
 viewBox="0.00 0.00 953.00 101.00" xmlns="http://www.w3.org/2000/svg" xmlns:xlink="http://www.w3.org/1999/xlink">
<g id="graph0" class="graph" transform="scale(1 1) rotate(0) translate(4 97)">
<title>LlamaLibrary.LlamaControlVectorLoadInfos.LlamaControlVectorLoadInfos</title>
<!-- Node1 -->
<g id="Node000001" class="node">
<title>Node1</title>
<g id="a_Node000001"><a xlink:title=" ">
<polygon fill="#999999" stroke="#666666" points="332,-56 0,-56 0,-37 332,-37 332,-56"/>
<text text-anchor="middle" x="166" y="-44" font-family="Helvetica,sans-Serif" font-size="10.00">LlamaLibrary.LlamaControlVectorLoadInfos.LlamaControlVectorLoadInfos</text>
</a>
</g>
</g>
<!-- Node2 -->
<g id="Node000002" class="node">
<title>Node2</title>
<g id="a_Node000002"><a xlink:href="$class_llama_library_1_1_llama_control_vector_load_infos.html#a222cdf8694abce8cdc9977d8872b52c5" xlink:title=" ">
<polygon fill="white" stroke="#666666" points="590,-56 368,-56 368,-37 590,-37 590,-56"/>
<text text-anchor="middle" x="479" y="-44" font-family="Helvetica,sans-Serif" font-size="10.00">LlamaLibrary.LlamaControlVectorLoadInfos.Add</text>
</a>
</g>
</g>
<!-- Node1&#45;&gt;Node2 -->
<g id="edge1_Node000001_Node000002" class="edge">
<title>Node1&#45;&gt;Node2</title>
<g id="a_edge1_Node000001_Node000002"><a xlink:title=" ">
<path fill="none" stroke="#63b8ff" d="M332.06,-46.5C340.64,-46.5 349.18,-46.5 357.58,-46.5"/>
<polygon fill="#63b8ff" stroke="#63b8ff" points="357.74,-50 367.74,-46.5 357.74,-43 357.74,-50"/>
</a>
</g>
</g>
<!-- Node3 -->
<g id="Node000003" class="node">
<title>Node3</title>
<g id="a_Node000003"><a xlink:href="$class_llama_library_1_1_s_w_i_g_t_y_p_e__p__llama__control__vector__load__info.html#a17cce04bff17da000653ab54f117a635" xlink:title=" ">
<polygon fill="white" stroke="#666666" points="941,-93 630,-93 630,-74 941,-74 941,-93"/>
<text text-anchor="middle" x="785.5" y="-81" font-family="Helvetica,sans-Serif" font-size="10.00">LlamaLibrary.SWIGTYPE_p_llama_control_vector_load_info.getCPtr</text>
</a>
</g>
</g>
<!-- Node2&#45;&gt;Node3 -->
<g id="edge2_Node000002_Node000003" class="edge">
<title>Node2&#45;&gt;Node3</title>
<g id="a_edge2_Node000002_Node000003"><a xlink:title=" ">
<path fill="none" stroke="#63b8ff" d="M551.26,-56.01C575.02,-59.12 601.64,-62.53 626,-65.5 646.2,-67.96 667.86,-70.49 688.48,-72.85"/>
<polygon fill="#63b8ff" stroke="#63b8ff" points="688.18,-76.34 698.51,-73.99 688.97,-69.38 688.18,-76.34"/>
</a>
</g>
</g>
<!-- Node4 -->
<g id="Node000004" class="node">
<title>Node4</title>
<g id="a_Node000004"><a xlink:href="$class_llama_library_1_1libllama__lib_p_i_n_v_o_k_e.html#a19b43cee94d32db0573069796591a883" xlink:title=" ">
<polygon fill="white" stroke="#666666" points="945,-56 626,-56 626,-37 945,-37 945,-56"/>
<text text-anchor="middle" x="785.5" y="-44" font-family="Helvetica,sans-Serif" font-size="10.00">LlamaLibrary.libllama_libPINVOKE.LlamaControlVectorLoadInfos_Add</text>
</a>
</g>
</g>
<!-- Node2&#45;&gt;Node4 -->
<g id="edge3_Node000002_Node000004" class="edge">
<title>Node2&#45;&gt;Node4</title>
<g id="a_edge3_Node000002_Node000004"><a xlink:title=" ">
<path fill="none" stroke="#63b8ff" d="M590.36,-46.5C598.68,-46.5 607.18,-46.5 615.75,-46.5"/>
<polygon fill="#63b8ff" stroke="#63b8ff" points="615.84,-50 625.84,-46.5 615.84,-43 615.84,-50"/>
</a>
</g>
</g>
<!-- Node5 -->
<g id="Node000005" class="node">
<title>Node5</title>
<g id="a_Node000005"><a xlink:href="$class_llama_library_1_1libllama__lib_p_i_n_v_o_k_e_1_1_s_w_i_g_pending_exception.html#a2718a73540850b42db7c89e9be3519ec" xlink:title=" ">
<polygon fill="white" stroke="#666666" points="941.5,-19 629.5,-19 629.5,0 941.5,0 941.5,-19"/>
<text text-anchor="middle" x="785.5" y="-7" font-family="Helvetica,sans-Serif" font-size="10.00">LlamaLibrary.libllama_libPINVOKE.SWIGPendingException.Retrieve</text>
</a>
</g>
</g>
<!-- Node2&#45;&gt;Node5 -->
<g id="edge4_Node000002_Node000005" class="edge">
<title>Node2&#45;&gt;Node5</title>
<g id="a_edge4_Node000002_Node000005"><a xlink:title=" ">
<path fill="none" stroke="#63b8ff" d="M556.9,-36.97C579.19,-34.22 603.56,-31.23 626,-28.5 648.19,-25.8 672.13,-22.92 694.51,-20.23"/>
<polygon fill="#63b8ff" stroke="#63b8ff" points="695.16,-23.68 704.67,-19.02 694.33,-16.73 695.16,-23.68"/>
</a>
</g>
</g>
</g>
</svg>
