<?xml version="1.0" encoding="UTF-8" standalone="no"?>
<!DOCTYPE svg PUBLIC "-//W3C//DTD SVG 1.1//EN"
 "http://www.w3.org/Graphics/SVG/1.1/DTD/svg11.dtd">
<!-- Generated by graphviz version 6.0.1 (20220911.1526)
 -->
<!-- Title: LlamaLibrary.libllama_libPINVOKE.SWIGExceptionHelper.SWIGExceptionHelper Pages: 1 -->
<svg width="926pt" height="64pt"
 viewBox="0.00 0.00 926.00 64.00" xmlns="http://www.w3.org/2000/svg" xmlns:xlink="http://www.w3.org/1999/xlink">
<g id="graph0" class="graph" transform="scale(1 1) rotate(0) translate(4 60)">
<title>LlamaLibrary.libllama_libPINVOKE.SWIGExceptionHelper.SWIGExceptionHelper</title>
<!-- Node1 -->
<g id="Node000001" class="node">
<title>Node1</title>
<g id="a_Node000001"><a xlink:title=" ">
<polygon fill="#999999" stroke="#666666" points="368,-37 0,-37 0,-18 368,-18 368,-37"/>
<text text-anchor="middle" x="184" y="-25" font-family="Helvetica,sans-Serif" font-size="10.00">LlamaLibrary.libllama_libPINVOKE.SWIGExceptionHelper.SWIGExceptionHelper</text>
</a>
</g>
</g>
<!-- Node2 -->
<g id="Node000002" class="node">
<title>Node2</title>
<g id="a_Node000002"><a xlink:href="$class_llama_library_1_1libllama__lib_p_i_n_v_o_k_e_1_1_s_w_i_g_exception_helper.html#ac6b5ea36f49e427251e0978db140eee8" xlink:title=" ">
<polygon fill="white" stroke="#666666" points="897,-56 425,-56 425,-37 897,-37 897,-56"/>
<text text-anchor="middle" x="661" y="-44" font-family="Helvetica,sans-Serif" font-size="10.00">LlamaLibrary.libllama_libPINVOKE.SWIGExceptionHelper.SWIGRegisterExceptionCallbacks_libllama_lib</text>
</a>
</g>
</g>
<!-- Node1&#45;&gt;Node2 -->
<g id="edge1_Node000001_Node000002" class="edge">
<title>Node1&#45;&gt;Node2</title>
<g id="a_edge1_Node000001_Node000002"><a xlink:title=" ">
<path fill="none" stroke="#63b8ff" d="M368.31,-34.83C383.52,-35.44 399.05,-36.06 414.62,-36.68"/>
<polygon fill="#63b8ff" stroke="#63b8ff" points="414.72,-40.19 424.86,-37.09 415,-33.2 414.72,-40.19"/>
</a>
</g>
</g>
<!-- Node3 -->
<g id="Node000003" class="node">
<title>Node3</title>
<g id="a_Node000003"><a xlink:href="$class_llama_library_1_1libllama__lib_p_i_n_v_o_k_e_1_1_s_w_i_g_exception_helper.html#ad4e416be8a3df7aab5198717641f4b85" xlink:title=" ">
<polygon fill="white" stroke="#666666" points="918,-19 404,-19 404,0 918,0 918,-19"/>
<text text-anchor="middle" x="661" y="-7" font-family="Helvetica,sans-Serif" font-size="10.00">LlamaLibrary.libllama_libPINVOKE.SWIGExceptionHelper.SWIGRegisterExceptionCallbacksArgument_libllama_lib</text>
</a>
</g>
</g>
<!-- Node1&#45;&gt;Node3 -->
<g id="edge2_Node000001_Node000003" class="edge">
<title>Node1&#45;&gt;Node3</title>
<g id="a_edge2_Node000001_Node000003"><a xlink:title=" ">
<path fill="none" stroke="#63b8ff" d="M368.31,-20.55C378.4,-20.17 388.62,-19.78 398.91,-19.39"/>
<polygon fill="#63b8ff" stroke="#63b8ff" points="399.35,-22.88 409.21,-19 399.09,-15.88 399.35,-22.88"/>
</a>
</g>
</g>
</g>
</svg>
