<?xml version="1.0" encoding="UTF-8" standalone="no"?>
<!DOCTYPE svg PUBLIC "-//W3C//DTD SVG 1.1//EN"
 "http://www.w3.org/Graphics/SVG/1.1/DTD/svg11.dtd">
<!-- Generated by graphviz version 6.0.1 (20220911.1526)
 -->
<!-- Title: LlamaLibrary.LlamaInfrence.~LlamaInfrence Pages: 1 -->
<svg width="718pt" height="27pt"
 viewBox="0.00 0.00 718.00 27.00" xmlns="http://www.w3.org/2000/svg" xmlns:xlink="http://www.w3.org/1999/xlink">
<g id="graph0" class="graph" transform="scale(1 1) rotate(0) translate(4 23)">
<title>LlamaLibrary.LlamaInfrence.~LlamaInfrence</title>
<!-- Node1 -->
<g id="Node000001" class="node">
<title>Node1</title>
<g id="a_Node000001"><a xlink:title=" ">
<polygon fill="#999999" stroke="#666666" points="204,-19 0,-19 0,0 204,0 204,-19"/>
<text text-anchor="middle" x="102" y="-7" font-family="Helvetica,sans-Serif" font-size="10.00">LlamaLibrary.LlamaInfrence.~LlamaInfrence</text>
</a>
</g>
</g>
<!-- Node2 -->
<g id="Node000002" class="node">
<title>Node2</title>
<g id="a_Node000002"><a xlink:href="$class_llama_library_1_1_llama_infrence.html#a222db3942121164a1793699812a554ee" xlink:title=" ">
<polygon fill="white" stroke="#666666" points="413,-19 240,-19 240,0 413,0 413,-19"/>
<text text-anchor="middle" x="326.5" y="-7" font-family="Helvetica,sans-Serif" font-size="10.00">LlamaLibrary.LlamaInfrence.Dispose</text>
</a>
</g>
</g>
<!-- Node1&#45;&gt;Node2 -->
<g id="edge1_Node000001_Node000002" class="edge">
<title>Node1&#45;&gt;Node2</title>
<g id="a_edge1_Node000001_Node000002"><a xlink:title=" ">
<path fill="none" stroke="#63b8ff" d="M204.16,-9.5C212.65,-9.5 221.21,-9.5 229.66,-9.5"/>
<polygon fill="#63b8ff" stroke="#63b8ff" points="229.89,-13 239.89,-9.5 229.89,-6 229.89,-13"/>
</a>
</g>
</g>
<!-- Node3 -->
<g id="Node000003" class="node">
<title>Node3</title>
<g id="a_Node000003"><a xlink:href="$class_llama_library_1_1libllama__lib_p_i_n_v_o_k_e.html#a20cf4a278ca6391b02774523e2206089" xlink:title=" ">
<polygon fill="white" stroke="#666666" points="710,-19 449,-19 449,0 710,0 710,-19"/>
<text text-anchor="middle" x="579.5" y="-7" font-family="Helvetica,sans-Serif" font-size="10.00">LlamaLibrary.libllama_libPINVOKE.delete_LlamaInfrence</text>
</a>
</g>
</g>
<!-- Node2&#45;&gt;Node3 -->
<g id="edge2_Node000002_Node000003" class="edge">
<title>Node2&#45;&gt;Node3</title>
<g id="a_edge2_Node000002_Node000003"><a xlink:title=" ">
<path fill="none" stroke="#63b8ff" d="M413.18,-9.5C421.45,-9.5 429.97,-9.5 438.59,-9.5"/>
<polygon fill="#63b8ff" stroke="#63b8ff" points="438.74,-13 448.74,-9.5 438.74,-6 438.74,-13"/>
</a>
</g>
</g>
</g>
</svg>
