<?xml version="1.0" encoding="UTF-8" standalone="no"?>
<!DOCTYPE svg PUBLIC "-//W3C//DTD SVG 1.1//EN"
 "http://www.w3.org/Graphics/SVG/1.1/DTD/svg11.dtd">
<!-- Generated by graphviz version 6.0.1 (20220911.1526)
 -->
<!-- Title: DisableWhileNotConfigured.Start Pages: 1 -->
<svg width="671pt" height="46pt"
 viewBox="0.00 0.00 671.00 46.00" xmlns="http://www.w3.org/2000/svg" xmlns:xlink="http://www.w3.org/1999/xlink">
<g id="graph0" class="graph" transform="scale(1 1) rotate(0) translate(4 42)">
<title>DisableWhileNotConfigured.Start</title>
<!-- Node1 -->
<g id="Node000001" class="node">
<title>Node1</title>
<g id="a_Node000001"><a xlink:title=" ">
<polygon fill="#999999" stroke="#666666" points="158,-19 0,-19 0,0 158,0 158,-19"/>
<text text-anchor="middle" x="79" y="-7" font-family="Helvetica,sans-Serif" font-size="10.00">DisableWhileNotConfigured.Start</text>
</a>
</g>
</g>
<!-- Node2 -->
<g id="Node000002" class="node">
<title>Node2</title>
<g id="a_Node000002"><a xlink:href="class_disable_while_not_configured.html#a3d90809cbb6767eee937856f545ddb9d" target="_top" xlink:title=" ">
<polygon fill="white" stroke="#666666" points="406,-38 194,-38 194,-19 406,-19 406,-38"/>
<text text-anchor="middle" x="300" y="-26" font-family="Helvetica,sans-Serif" font-size="10.00">DisableWhileNotConfigured.OnStateChanged</text>
</a>
</g>
</g>
<!-- Node1&#45;&gt;Node2 -->
<g id="edge1_Node000001_Node000002" class="edge">
<title>Node1&#45;&gt;Node2</title>
<g id="a_edge1_Node000001_Node000002"><a xlink:title=" ">
<path fill="none" stroke="#63b8ff" d="M158.14,-16.28C166.44,-17 175,-17.74 183.61,-18.49"/>
<polygon fill="#63b8ff" stroke="#63b8ff" points="183.46,-21.99 193.73,-19.37 184.07,-15.02 183.46,-21.99"/>
</a>
</g>
</g>
<!-- Node3 -->
<g id="Node000003" class="node">
<title>Node3</title>
<g id="a_Node000003"><a xlink:href="class_disable_while_not_configured.html#ac86bad82530a44785926135dbfe2f608" target="_top" xlink:title=" ">
<polygon fill="white" stroke="#666666" points="663,-19 442,-19 442,0 663,0 663,-19"/>
<text text-anchor="middle" x="552.5" y="-7" font-family="Helvetica,sans-Serif" font-size="10.00">DisableWhileNotConfigured.SetUIObjectsActive</text>
</a>
</g>
</g>
<!-- Node1&#45;&gt;Node3 -->
<g id="edge3_Node000001_Node000003" class="edge">
<title>Node1&#45;&gt;Node3</title>
<g id="a_edge3_Node000001_Node000003"><a xlink:title=" ">
<path fill="none" stroke="#63b8ff" d="M158.12,-9.5C232.64,-9.5 345.93,-9.5 431.83,-9.5"/>
<polygon fill="#63b8ff" stroke="#63b8ff" points="431.9,-13 441.9,-9.5 431.9,-6 431.9,-13"/>
</a>
</g>
</g>
<!-- Node2&#45;&gt;Node3 -->
<g id="edge2_Node000002_Node000003" class="edge">
<title>Node2&#45;&gt;Node3</title>
<g id="a_edge2_Node000002_Node000003"><a xlink:title=" ">
<path fill="none" stroke="#63b8ff" d="M406.15,-20.52C414.61,-19.88 423.21,-19.23 431.77,-18.58"/>
<polygon fill="#63b8ff" stroke="#63b8ff" points="432.09,-22.07 441.79,-17.82 431.56,-15.09 432.09,-22.07"/>
</a>
</g>
</g>
</g>
</svg>
