<?xml version="1.0" encoding="UTF-8" standalone="no"?>
<!DOCTYPE svg PUBLIC "-//W3C//DTD SVG 1.1//EN"
 "http://www.w3.org/Graphics/SVG/1.1/DTD/svg11.dtd">
<!-- Generated by graphviz version 6.0.1 (20220911.1526)
 -->
<!-- Title: Assets.StyledLines.Runtime.DialogUtils.CharacterStyleMapper Pages: 1 -->
<svg width="292pt" height="217pt"
 viewBox="0.00 0.00 292.00 217.00" xmlns="http://www.w3.org/2000/svg" xmlns:xlink="http://www.w3.org/1999/xlink">
<g id="graph0" class="graph" transform="scale(1 1) rotate(0) translate(4 213)">
<title>Assets.StyledLines.Runtime.DialogUtils.CharacterStyleMapper</title>
<!-- Node1 -->
<g id="Node000001" class="node">
<title>Node1</title>
<g id="a_Node000001"><a xlink:title=" ">
<polygon fill="#999999" stroke="none" points="284,-124 0,-124 0,0 284,0 284,-124"/>
<text text-anchor="start" x="5" y="-112" font-family="Helvetica,sans-Serif" font-size="10.00">Assets.StyledLines.Runtime.DialogUtils.CharacterStyleMapper</text>
<text text-anchor="start" x="22.5" y="-97" font-family="Helvetica,sans-Serif" font-size="10.00">&#45;</text>
<text text-anchor="start" x="49" y="-97" font-family="Helvetica,sans-Serif" font-size="10.00">TMP_Dropdown characterDropdown</text>
<text text-anchor="start" x="22.5" y="-82" font-family="Helvetica,sans-Serif" font-size="10.00">&#45;</text>
<text text-anchor="start" x="49" y="-82" font-family="Helvetica,sans-Serif" font-size="10.00">DialogManager dialogManager</text>
<text text-anchor="start" x="22.5" y="-67" font-family="Helvetica,sans-Serif" font-size="10.00">&#45;</text>
<text text-anchor="start" x="49" y="-67" font-family="Helvetica,sans-Serif" font-size="10.00">TMP_InputField styleInputField</text>
<text text-anchor="start" x="22.5" y="-52" font-family="Helvetica,sans-Serif" font-size="10.00">&#45;</text>
<text text-anchor="start" x="49" y="-52" font-family="Helvetica,sans-Serif" font-size="10.00">void OnCharacterSelected(int selectedIndex)</text>
<text text-anchor="start" x="22.5" y="-37" font-family="Helvetica,sans-Serif" font-size="10.00">&#45;</text>
<text text-anchor="start" x="49" y="-37" font-family="Helvetica,sans-Serif" font-size="10.00">void OnStyleChanged(string newStyle)</text>
<text text-anchor="start" x="22.5" y="-22" font-family="Helvetica,sans-Serif" font-size="10.00">&#45;</text>
<text text-anchor="start" x="49" y="-22" font-family="Helvetica,sans-Serif" font-size="10.00">void SetStyleInputField(string style)</text>
<text text-anchor="start" x="22.5" y="-7" font-family="Helvetica,sans-Serif" font-size="10.00">&#45;</text>
<text text-anchor="start" x="49" y="-7" font-family="Helvetica,sans-Serif" font-size="10.00">void Start()</text>
<polygon fill="#666666" stroke="#666666" points="0,-107 0,-107 284,-107 284,-107 0,-107"/>
<polygon fill="#666666" stroke="#666666" points="0,-62 0,-62 47,-62 47,-62 0,-62"/>
<polygon fill="#666666" stroke="#666666" points="47,-62 47,-62 284,-62 284,-62 47,-62"/>
<polygon fill="none" stroke="#666666" points="0,0 0,-124 284,-124 284,0 0,0"/>
</a>
</g>
</g>
<!-- Node2 -->
<g id="Node000002" class="node">
<title>Node2</title>
<g id="a_Node000002"><a xlink:title=" ">
<polygon fill="white" stroke="none" points="180.5,-209 103.5,-209 103.5,-160 180.5,-160 180.5,-209"/>
<text text-anchor="start" x="109" y="-196.5" font-family="Helvetica,sans-Serif" font-size="10.00">MonoBehaviour</text>
<text text-anchor="start" x="140.5" y="-181.5" font-family="Helvetica,sans-Serif" font-size="10.00"> </text>
<text text-anchor="start" x="140.5" y="-166.5" font-family="Helvetica,sans-Serif" font-size="10.00"> </text>
<polygon fill="#666666" stroke="#666666" points="104,-191.5 104,-191.5 181,-191.5 181,-191.5 104,-191.5"/>
<polygon fill="#666666" stroke="#666666" points="104,-176.5 104,-176.5 181,-176.5 181,-176.5 104,-176.5"/>
<polygon fill="none" stroke="#666666" points="103.5,-160 103.5,-209 180.5,-209 180.5,-160 103.5,-160"/>
</a>
</g>
</g>
<!-- Node2&#45;&gt;Node1 -->
<g id="edge1_Node000001_Node000002" class="edge">
<title>Node2&#45;&gt;Node1</title>
<g id="a_edge1_Node000001_Node000002"><a xlink:title=" ">
<path fill="none" stroke="#63b8ff" d="M142,-149.94C142,-141.91 142,-133.08 142,-124.23"/>
<polygon fill="none" stroke="#63b8ff" points="138.5,-149.98 142,-159.98 145.5,-149.98 138.5,-149.98"/>
</a>
</g>
</g>
</g>
</svg>
