<?xml version="1.0" encoding="UTF-8" standalone="no"?>
<!DOCTYPE svg PUBLIC "-//W3C//DTD SVG 1.1//EN"
 "http://www.w3.org/Graphics/SVG/1.1/DTD/svg11.dtd">
<!-- Generated by graphviz version 6.0.1 (20220911.1526)
 -->
<!-- Title: Assets.StyledLines.Runtime.LlamaInfrenceUnity.RunModelAsync.OnDestroy Pages: 1 -->
<svg width="920pt" height="101pt"
 viewBox="0.00 0.00 920.00 101.00" xmlns="http://www.w3.org/2000/svg" xmlns:xlink="http://www.w3.org/1999/xlink">
<g id="graph0" class="graph" transform="scale(1 1) rotate(0) translate(4 97)">
<title>Assets.StyledLines.Runtime.LlamaInfrenceUnity.RunModelAsync.OnDestroy</title>
<!-- Node1 -->
<g id="Node000001" class="node">
<title>Node1</title>
<g id="a_Node000001"><a xlink:title="Method called when the MonoBehaviour is destroyed. Disposes of model resources and cleans up the envi...">
<polygon fill="#999999" stroke="#666666" points="350,-56 0,-56 0,-37 350,-37 350,-56"/>
<text text-anchor="middle" x="175" y="-44" font-family="Helvetica,sans-Serif" font-size="10.00">Assets.StyledLines.Runtime.LlamaInfrenceUnity.RunModelAsync.OnDestroy</text>
</a>
</g>
</g>
<!-- Node2 -->
<g id="Node000002" class="node">
<title>Node2</title>
<g id="a_Node000002"><a xlink:href="$class_llama_library_1_1_async_llama_infrence.html#a32b189775ff5da836273149cf6cd1497" xlink:title=" ">
<polygon fill="white" stroke="#666666" points="587,-93 386,-93 386,-74 587,-74 587,-93"/>
<text text-anchor="middle" x="486.5" y="-81" font-family="Helvetica,sans-Serif" font-size="10.00">LlamaLibrary.AsyncLlamaInfrence.Dispose</text>
</a>
</g>
</g>
<!-- Node1&#45;&gt;Node2 -->
<g id="edge1_Node000001_Node000002" class="edge">
<title>Node1&#45;&gt;Node2</title>
<g id="a_edge1_Node000001_Node000002"><a xlink:title=" ">
<path fill="none" stroke="#63b8ff" d="M255.7,-56.03C298.49,-61.14 351.38,-67.47 395.62,-72.76"/>
<polygon fill="#63b8ff" stroke="#63b8ff" points="395.45,-76.26 405.8,-73.97 396.28,-69.31 395.45,-76.26"/>
</a>
</g>
</g>
<!-- Node4 -->
<g id="Node000004" class="node">
<title>Node4</title>
<g id="a_Node000004"><a xlink:href="$class_llama_library_1_1gpt__params.html#a7ea53f5ea026af47d5e5476194f1566d" xlink:title=" ">
<polygon fill="white" stroke="#666666" points="568.5,-56 404.5,-56 404.5,-37 568.5,-37 568.5,-56"/>
<text text-anchor="middle" x="486.5" y="-44" font-family="Helvetica,sans-Serif" font-size="10.00">LlamaLibrary.gpt_params.Dispose</text>
</a>
</g>
</g>
<!-- Node1&#45;&gt;Node4 -->
<g id="edge3_Node000001_Node000004" class="edge">
<title>Node1&#45;&gt;Node4</title>
<g id="a_edge3_Node000001_Node000004"><a xlink:title=" ">
<path fill="none" stroke="#63b8ff" d="M350.2,-46.5C365.35,-46.5 380.25,-46.5 394.31,-46.5"/>
<polygon fill="#63b8ff" stroke="#63b8ff" points="394.38,-50 404.38,-46.5 394.38,-43 394.38,-50"/>
</a>
</g>
</g>
<!-- Node6 -->
<g id="Node000006" class="node">
<title>Node6</title>
<g id="a_Node000006"><a xlink:href="$class_llama_library_1_1_logging_context.html#ab6fd8a46d78d0662bcdb8a3a6129c08c" xlink:title=" ">
<polygon fill="white" stroke="#666666" points="577,-19 396,-19 396,0 577,0 577,-19"/>
<text text-anchor="middle" x="486.5" y="-7" font-family="Helvetica,sans-Serif" font-size="10.00">LlamaLibrary.LoggingContext.Dispose</text>
</a>
</g>
</g>
<!-- Node1&#45;&gt;Node6 -->
<g id="edge5_Node000001_Node000006" class="edge">
<title>Node1&#45;&gt;Node6</title>
<g id="a_edge5_Node000001_Node000006"><a xlink:title=" ">
<path fill="none" stroke="#63b8ff" d="M255.7,-36.97C298.49,-31.86 351.38,-25.53 395.62,-20.24"/>
<polygon fill="#63b8ff" stroke="#63b8ff" points="396.28,-23.69 405.8,-19.03 395.45,-16.74 396.28,-23.69"/>
</a>
</g>
</g>
<!-- Node3 -->
<g id="Node000003" class="node">
<title>Node3</title>
<g id="a_Node000003"><a xlink:href="$class_llama_library_1_1libllama__lib_p_i_n_v_o_k_e.html#af224ccbe4ec8c33a5ac0a278174281e3" xlink:title=" ">
<polygon fill="white" stroke="#666666" points="912,-93 623,-93 623,-74 912,-74 912,-93"/>
<text text-anchor="middle" x="767.5" y="-81" font-family="Helvetica,sans-Serif" font-size="10.00">LlamaLibrary.libllama_libPINVOKE.delete_AsyncLlamaInfrence</text>
</a>
</g>
</g>
<!-- Node2&#45;&gt;Node3 -->
<g id="edge2_Node000002_Node000003" class="edge">
<title>Node2&#45;&gt;Node3</title>
<g id="a_edge2_Node000002_Node000003"><a xlink:title=" ">
<path fill="none" stroke="#63b8ff" d="M587.04,-83.5C595.37,-83.5 603.9,-83.5 612.5,-83.5"/>
<polygon fill="#63b8ff" stroke="#63b8ff" points="612.63,-87 622.63,-83.5 612.63,-80 612.63,-87"/>
</a>
</g>
</g>
<!-- Node5 -->
<g id="Node000005" class="node">
<title>Node5</title>
<g id="a_Node000005"><a xlink:href="$class_llama_library_1_1libllama__lib_p_i_n_v_o_k_e.html#abca6ad2cac960a59c4d7b7ce91812951" xlink:title=" ">
<polygon fill="white" stroke="#666666" points="893.5,-56 641.5,-56 641.5,-37 893.5,-37 893.5,-56"/>
<text text-anchor="middle" x="767.5" y="-44" font-family="Helvetica,sans-Serif" font-size="10.00">LlamaLibrary.libllama_libPINVOKE.delete_gpt_params</text>
</a>
</g>
</g>
<!-- Node4&#45;&gt;Node5 -->
<g id="edge4_Node000004_Node000005" class="edge">
<title>Node4&#45;&gt;Node5</title>
<g id="a_edge4_Node000004_Node000005"><a xlink:title=" ">
<path fill="none" stroke="#63b8ff" d="M568.57,-46.5C588.23,-46.5 609.77,-46.5 631.18,-46.5"/>
<polygon fill="#63b8ff" stroke="#63b8ff" points="631.33,-50 641.33,-46.5 631.33,-43 631.33,-50"/>
</a>
</g>
</g>
<!-- Node7 -->
<g id="Node000007" class="node">
<title>Node7</title>
<g id="a_Node000007"><a xlink:href="$class_llama_library_1_1libllama__lib_p_i_n_v_o_k_e.html#a068d58bf7e6f134f41130f240a8d483b" xlink:title=" ">
<polygon fill="white" stroke="#666666" points="902,-19 633,-19 633,0 902,0 902,-19"/>
<text text-anchor="middle" x="767.5" y="-7" font-family="Helvetica,sans-Serif" font-size="10.00">LlamaLibrary.libllama_libPINVOKE.delete_LoggingContext</text>
</a>
</g>
</g>
<!-- Node6&#45;&gt;Node7 -->
<g id="edge6_Node000006_Node000007" class="edge">
<title>Node6&#45;&gt;Node7</title>
<g id="a_edge6_Node000006_Node000007"><a xlink:title=" ">
<path fill="none" stroke="#63b8ff" d="M577.31,-9.5C591.88,-9.5 607.29,-9.5 622.76,-9.5"/>
<polygon fill="#63b8ff" stroke="#63b8ff" points="622.93,-13 632.93,-9.5 622.93,-6 622.93,-13"/>
</a>
</g>
</g>
</g>
</svg>
