<?xml version="1.0" encoding="UTF-8" standalone="no"?>
<!DOCTYPE svg PUBLIC "-//W3C//DTD SVG 1.1//EN"
 "http://www.w3.org/Graphics/SVG/1.1/DTD/svg11.dtd">
<!-- Generated by graphviz version 6.0.1 (20220911.1526)
 -->
<!-- Title: BinaryAsset Pages: 1 -->
<svg width="91pt" height="142pt"
 viewBox="0.00 0.00 91.00 142.00" xmlns="http://www.w3.org/2000/svg" xmlns:xlink="http://www.w3.org/1999/xlink">
<g id="graph0" class="graph" transform="scale(1 1) rotate(0) translate(4 138)">
<title>BinaryAsset</title>
<!-- Node1 -->
<g id="Node000001" class="node">
<title>Node1</title>
<g id="a_Node000001"><a xlink:title=" ">
<polygon fill="#999999" stroke="none" points="74.5,-49 8.5,-49 8.5,0 74.5,0 74.5,-49"/>
<text text-anchor="start" x="14.5" y="-36.5" font-family="Helvetica,sans-Serif" font-size="10.00">BinaryAsset</text>
<text text-anchor="start" x="12.5" y="-21.5" font-family="Helvetica,sans-Serif" font-size="10.00">+</text>
<text text-anchor="start" x="23.5" y="-21.5" font-family="Helvetica,sans-Serif" font-size="10.00">byte[] data</text>
<text text-anchor="start" x="39.5" y="-6.5" font-family="Helvetica,sans-Serif" font-size="10.00"> </text>
<polygon fill="#666666" stroke="#666666" points="8.5,-31.5 8.5,-31.5 74.5,-31.5 74.5,-31.5 8.5,-31.5"/>
<polygon fill="#666666" stroke="#666666" points="8.5,-16.5 8.5,-16.5 21.5,-16.5 21.5,-16.5 8.5,-16.5"/>
<polygon fill="#666666" stroke="#666666" points="21.5,-16.5 21.5,-16.5 74.5,-16.5 74.5,-16.5 21.5,-16.5"/>
<polygon fill="none" stroke="#666666" points="8.5,0 8.5,-49 74.5,-49 74.5,0 8.5,0"/>
</a>
</g>
</g>
<!-- Node2 -->
<g id="Node000002" class="node">
<title>Node2</title>
<g id="a_Node000002"><a xlink:title=" ">
<polygon fill="white" stroke="none" points="83,-134 0,-134 0,-85 83,-85 83,-134"/>
<text text-anchor="start" x="5.5" y="-121.5" font-family="Helvetica,sans-Serif" font-size="10.00">ScriptableObject</text>
<text text-anchor="start" x="40" y="-106.5" font-family="Helvetica,sans-Serif" font-size="10.00"> </text>
<text text-anchor="start" x="40" y="-91.5" font-family="Helvetica,sans-Serif" font-size="10.00"> </text>
<polygon fill="#666666" stroke="#666666" points="0.5,-116.5 0.5,-116.5 83.5,-116.5 83.5,-116.5 0.5,-116.5"/>
<polygon fill="#666666" stroke="#666666" points="0.5,-101.5 0.5,-101.5 83.5,-101.5 83.5,-101.5 0.5,-101.5"/>
<polygon fill="none" stroke="#666666" points="0,-85 0,-134 83,-134 83,-85 0,-85"/>
</a>
</g>
</g>
<!-- Node2&#45;&gt;Node1 -->
<g id="edge1_Node000001_Node000002" class="edge">
<title>Node2&#45;&gt;Node1</title>
<g id="a_edge1_Node000001_Node000002"><a xlink:title=" ">
<path fill="none" stroke="#63b8ff" d="M41.5,-74.77C41.5,-66.17 41.5,-57.1 41.5,-49.12"/>
<polygon fill="none" stroke="#63b8ff" points="38,-74.94 41.5,-84.94 45,-74.94 38,-74.94"/>
</a>
</g>
</g>
</g>
</svg>
