<?xml version="1.0" encoding="UTF-8" standalone="no"?>
<!DOCTYPE svg PUBLIC "-//W3C//DTD SVG 1.1//EN"
 "http://www.w3.org/Graphics/SVG/1.1/DTD/svg11.dtd">
<!-- Generated by graphviz version 6.0.1 (20220911.1526)
 -->
<!-- Title: DisableWhileNotConfigured.SetUIObjectsActive Pages: 1 -->
<svg width="697pt" height="64pt"
 viewBox="0.00 0.00 697.00 64.00" xmlns="http://www.w3.org/2000/svg" xmlns:xlink="http://www.w3.org/1999/xlink">
<g id="graph0" class="graph" transform="scale(1 1) rotate(0) translate(4 60)">
<title>DisableWhileNotConfigured.SetUIObjectsActive</title>
<!-- Node1 -->
<g id="Node000001" class="node">
<title>Node1</title>
<g id="a_Node000001"><a xlink:title=" ">
<polygon fill="#999999" stroke="#666666" points="689,-37 468,-37 468,-18 689,-18 689,-37"/>
<text text-anchor="middle" x="578.5" y="-25" font-family="Helvetica,sans-Serif" font-size="10.00">DisableWhileNotConfigured.SetUIObjectsActive</text>
</a>
</g>
</g>
<!-- Node2 -->
<g id="Node000002" class="node">
<title>Node2</title>
<g id="a_Node000002"><a xlink:href="class_disable_while_not_configured.html#a3d90809cbb6767eee937856f545ddb9d" target="_top" xlink:title=" ">
<polygon fill="white" stroke="#666666" points="432,-56 220,-56 220,-37 432,-37 432,-56"/>
<text text-anchor="middle" x="326" y="-44" font-family="Helvetica,sans-Serif" font-size="10.00">DisableWhileNotConfigured.OnStateChanged</text>
</a>
</g>
</g>
<!-- Node1&#45;&gt;Node2 -->
<g id="edge1_Node000001_Node000002" class="edge">
<title>Node1&#45;&gt;Node2</title>
<g id="a_edge1_Node000001_Node000002"><a xlink:title=" ">
<path fill="none" stroke="#63b8ff" d="M457.96,-36.57C449.39,-37.22 440.79,-37.87 432.31,-38.51"/>
<polygon fill="#63b8ff" stroke="#63b8ff" points="458.28,-40.05 467.99,-35.81 457.76,-33.07 458.28,-40.05"/>
</a>
</g>
</g>
<!-- Node4 -->
<g id="Node000004" class="node">
<title>Node4</title>
<g id="a_Node000004"><a xlink:href="class_disable_while_not_configured.html#a464cc4484afc503a5722b1c85ee99597" target="_top" xlink:title=" ">
<polygon fill="white" stroke="#666666" points="171,-19 13,-19 13,0 171,0 171,-19"/>
<text text-anchor="middle" x="92" y="-7" font-family="Helvetica,sans-Serif" font-size="10.00">DisableWhileNotConfigured.Start</text>
</a>
</g>
</g>
<!-- Node1&#45;&gt;Node4 -->
<g id="edge4_Node000001_Node000004" class="edge">
<title>Node1&#45;&gt;Node4</title>
<g id="a_edge4_Node000001_Node000004"><a xlink:title=" ">
<path fill="none" stroke="#63b8ff" d="M457.67,-23.05C368.28,-19.73 248.73,-15.29 171.3,-12.41"/>
<polygon fill="#63b8ff" stroke="#63b8ff" points="457.74,-26.55 467.86,-23.43 458,-19.56 457.74,-26.55"/>
</a>
</g>
</g>
<!-- Node3 -->
<g id="Node000003" class="node">
<title>Node3</title>
<g id="a_Node000003"><a xlink:href="class_disable_while_not_configured.html#a7082b33f3b89215ee054d1a48ce0d54a" target="_top" xlink:title=" ">
<polygon fill="white" stroke="#666666" points="184,-56 0,-56 0,-37 184,-37 184,-56"/>
<text text-anchor="middle" x="92" y="-44" font-family="Helvetica,sans-Serif" font-size="10.00">DisableWhileNotConfigured.OnDestroy</text>
</a>
</g>
</g>
<!-- Node2&#45;&gt;Node3 -->
<g id="edge2_Node000002_Node000003" class="edge">
<title>Node2&#45;&gt;Node3</title>
<g id="a_edge2_Node000002_Node000003"><a xlink:title=" ">
<path fill="none" stroke="#63b8ff" d="M209.82,-46.5C201.26,-46.5 192.69,-46.5 184.3,-46.5"/>
<polygon fill="#63b8ff" stroke="#63b8ff" points="209.86,-50 219.86,-46.5 209.86,-43 209.86,-50"/>
</a>
</g>
</g>
<!-- Node2&#45;&gt;Node4 -->
<g id="edge3_Node000002_Node000004" class="edge">
<title>Node2&#45;&gt;Node4</title>
<g id="a_edge3_Node000002_Node000004"><a xlink:title=" ">
<path fill="none" stroke="#63b8ff" d="M255.33,-35.39C222.71,-30.19 184.25,-24.05 152.95,-19.06"/>
<polygon fill="#63b8ff" stroke="#63b8ff" points="254.83,-38.85 265.25,-36.97 255.93,-31.94 254.83,-38.85"/>
</a>
</g>
</g>
</g>
</svg>
