<?xml version="1.0" encoding="UTF-8" standalone="no"?>
<!DOCTYPE svg PUBLIC "-//W3C//DTD SVG 1.1//EN"
 "http://www.w3.org/Graphics/SVG/1.1/DTD/svg11.dtd">
<!-- Generated by graphviz version 6.0.1 (20220911.1526)
 -->
<!-- Title: LlamaLibrary.Strings.StringsEnumerator Pages: 1 -->
<!--zoomable 999 -->

<svg id="main" version="1.1" xmlns="http://www.w3.org/2000/svg" xmlns:xlink="http://www.w3.org/1999/xlink" xml:space="preserve" onload="init(evt)">
<style type="text/css"><![CDATA[
.node, .edge {opacity: 0.7;}
.node.selected, .edge.selected {opacity: 1;}
.edge:hover path { stroke: red; }
.edge:hover polygon { stroke: red; fill: red; }
]]></style>

<defs>
  <circle id="rim" cx="0" cy="0" r="7"/>
  <circle id="rim2" cx="0" cy="0" r="3.5"/>
  <g id="zoomPlus">
    <use xlink:href="#rim" fill="#404040"><set attributeName="fill" to="#808080" begin="zoomplus.mouseover" end="zoomplus.mouseout"/></use>
    <path d="M-4,0h8M0,-4v8" fill="none" stroke="white" stroke-width="1.5" pointer-events="none"/>
  </g>
  <g id="zoomMin">
    <use xlink:href="#rim" fill="#404040"><set attributeName="fill" to="#808080" begin="zoomminus.mouseover" end="zoomminus.mouseout"/></use>
    <path d="M-4,0h8" fill="none" stroke="white" stroke-width="1.5" pointer-events="none"/>
  </g>
  <g id="arrowUp" transform="translate(30 24)">
    <use xlink:href="#rim"/>
    <path pointer-events="none" fill="none" stroke="white" stroke-width="1.5" d="M0,-3.0v7 M-2.5,-0.5L0,-3.0L2.5,-0.5"/>
  </g>
  <g id="arrowRight" transform="rotate(90) translate(36 -43)">
    <use xlink:href="#rim"/>
    <path pointer-events="none" fill="none" stroke="white" stroke-width="1.5" d="M0,-3.0v7 M-2.5,-0.5L0,-3.0L2.5,-0.5"/>
  </g>
  <g id="arrowDown" transform="rotate(180) translate(-30 -48)">
    <use xlink:href="#rim"/>
    <path pointer-events="none" fill="none" stroke="white" stroke-width="1.5" d="M0,-3.0v7 M-2.5,-0.5L0,-3.0L2.5,-0.5"/>
  </g>
  <g id="arrowLeft" transform="rotate(270) translate(-36 17)">
    <use xlink:href="#rim"/>
    <path pointer-events="none" fill="none" stroke="white" stroke-width="1.5" d="M0,-3.0v7 M-2.5,-0.5L0,-3.0L2.5,-0.5"/>
  </g>
  <g id="resetDef">
    <use xlink:href="#rim2" fill="#404040"><set attributeName="fill" to="#808080" begin="reset.mouseover" end="reset.mouseout"/></use>
  </g>
</defs>
<script type="application/ecmascript">
var viewWidth = 1116;
var viewHeight = 999;
var sectionId = 'dynsection-1';
</script>
<script type="application/ecmascript" xlink:href="svg.min.js"/>
<svg id="graph" class="graph">
<g id="viewport">
<title>LlamaLibrary.Strings.StringsEnumerator</title>
<!-- Node1 -->
<g id="Node000001" class="node">
<title>Node1</title>
<g id="a_Node000001"><a xlink:title=" ">
<polygon fill="#999999" stroke="none" points="461,-154 203,-154 203,0 461,0 461,-154"/>
<text text-anchor="start" x="245" y="-142" font-family="Helvetica,sans-Serif" font-size="10.00">LlamaLibrary.Strings.StringsEnumerator</text>
<text text-anchor="start" x="207" y="-127" font-family="Helvetica,sans-Serif" font-size="10.00">+</text>
<text text-anchor="start" x="218" y="-127" font-family="Helvetica,sans-Serif" font-size="10.00">string Current</text>
<text text-anchor="start" x="207" y="-112" font-family="Helvetica,sans-Serif" font-size="10.00">+</text>
<text text-anchor="start" x="218" y="-112" font-family="Helvetica,sans-Serif" font-size="10.00">object global::System.Collections.IEnumerator. Current</text>
<text text-anchor="start" x="208.5" y="-97" font-family="Helvetica,sans-Serif" font-size="10.00">&#45;</text>
<text text-anchor="start" x="218" y="-97" font-family="Helvetica,sans-Serif" font-size="10.00">int currentIndex</text>
<text text-anchor="start" x="208.5" y="-82" font-family="Helvetica,sans-Serif" font-size="10.00">&#45;</text>
<text text-anchor="start" x="218" y="-82" font-family="Helvetica,sans-Serif" font-size="10.00">object currentObject</text>
<text text-anchor="start" x="208.5" y="-67" font-family="Helvetica,sans-Serif" font-size="10.00">&#45;</text>
<text text-anchor="start" x="218" y="-67" font-family="Helvetica,sans-Serif" font-size="10.00">int currentSize</text>
<text text-anchor="start" x="207" y="-52" font-family="Helvetica,sans-Serif" font-size="10.00">+</text>
<text text-anchor="start" x="218" y="-52" font-family="Helvetica,sans-Serif" font-size="10.00">void Dispose()</text>
<text text-anchor="start" x="207" y="-37" font-family="Helvetica,sans-Serif" font-size="10.00">+</text>
<text text-anchor="start" x="218" y="-37" font-family="Helvetica,sans-Serif" font-size="10.00">bool MoveNext()</text>
<text text-anchor="start" x="207" y="-22" font-family="Helvetica,sans-Serif" font-size="10.00">+</text>
<text text-anchor="start" x="218" y="-22" font-family="Helvetica,sans-Serif" font-size="10.00">void Reset()</text>
<text text-anchor="start" x="207" y="-7" font-family="Helvetica,sans-Serif" font-size="10.00">+</text>
<text text-anchor="start" x="218" y="-7" font-family="Helvetica,sans-Serif" font-size="10.00">StringsEnumerator(Strings collection)</text>
<polygon fill="#666666" stroke="#666666" points="203,-137 203,-137 461,-137 461,-137 203,-137"/>
<polygon fill="#666666" stroke="#666666" points="203,-62 203,-62 216,-62 216,-62 203,-62"/>
<polygon fill="#666666" stroke="#666666" points="216,-62 216,-62 461,-62 461,-62 216,-62"/>
<polygon fill="none" stroke="#666666" points="203,0 203,-154 461,-154 461,0 203,0"/>
</a>
</g>
</g>
<!-- Node2 -->
<g id="Node000002" class="node">
<title>Node2</title>
<g id="a_Node000002"><a xlink:title=" ">
<polygon fill="white" stroke="none" points="182,-572.5 0,-572.5 0,-523.5 182,-523.5 182,-572.5"/>
<text text-anchor="start" x="5" y="-560" font-family="Helvetica,sans-Serif" font-size="10.00">global::SystemCollections::IEnumerator</text>
<text text-anchor="start" x="89" y="-545" font-family="Helvetica,sans-Serif" font-size="10.00"> </text>
<text text-anchor="start" x="89" y="-530" font-family="Helvetica,sans-Serif" font-size="10.00"> </text>
<polygon fill="#666666" stroke="#666666" points="0,-555 0,-555 182,-555 182,-555 0,-555"/>
<polygon fill="#666666" stroke="#666666" points="0,-540 0,-540 182,-540 182,-540 0,-540"/>
<polygon fill="none" stroke="#666666" points="0,-523.5 0,-572.5 182,-572.5 182,-523.5 0,-523.5"/>
</a>
</g>
</g>
<!-- Node2&#45;&gt;Node1 -->
<g id="edge1_Node000001_Node000002" class="edge">
<title>Node2&#45;&gt;Node1</title>
<g id="a_edge1_Node000001_Node000002"><a xlink:title=" ">
<path fill="none" stroke="#63b8ff" d="M94.37,-513.18C102.18,-448.11 126.06,-302.9 191,-201 201.65,-184.29 215.23,-168.56 229.74,-154.29"/>
<polygon fill="none" stroke="#63b8ff" points="90.88,-512.95 93.22,-523.29 97.83,-513.75 90.88,-512.95"/>
</a>
</g>
</g>
<!-- Node3 -->
<g id="Node000003" class="node">
<title>Node3</title>
<g id="a_Node000003"><a xlink:title=" ">
<polygon fill="white" stroke="none" points="464,-572.5 200,-572.5 200,-523.5 464,-523.5 464,-572.5"/>
<text text-anchor="start" x="205" y="-560" font-family="Helvetica,sans-Serif" font-size="10.00">global::SystemCollections::Generic::IEnumerator&lt; string &gt;</text>
<text text-anchor="start" x="330" y="-545" font-family="Helvetica,sans-Serif" font-size="10.00"> </text>
<text text-anchor="start" x="330" y="-530" font-family="Helvetica,sans-Serif" font-size="10.00"> </text>
<polygon fill="#666666" stroke="#666666" points="200,-555 200,-555 464,-555 464,-555 200,-555"/>
<polygon fill="#666666" stroke="#666666" points="200,-540 200,-540 464,-540 464,-540 200,-540"/>
<polygon fill="none" stroke="#666666" points="200,-523.5 200,-572.5 464,-572.5 464,-523.5 200,-523.5"/>
</a>
</g>
</g>
<!-- Node3&#45;&gt;Node1 -->
<g id="edge2_Node000001_Node000003" class="edge">
<title>Node3&#45;&gt;Node1</title>
<g id="a_edge2_Node000001_Node000003"><a xlink:title=" ">
<path fill="none" stroke="#63b8ff" d="M332,-513.19C332,-438.5 332,-257.88 332,-154.33"/>
<polygon fill="none" stroke="#63b8ff" points="328.5,-513.42 332,-523.42 335.5,-513.42 328.5,-513.42"/>
</a>
</g>
</g>
<!-- Node4 -->
<g id="Node000004" class="node">
<title>Node4</title>
<g id="a_Node000004"><a xlink:href="class_llama_library_1_1_strings.html" target="_top" xlink:title=" ">
<polygon fill="white" stroke="none" points="1085.5,-895 482.5,-895 482.5,-201 1085.5,-201 1085.5,-895"/>
<text text-anchor="start" x="739.5" y="-883" font-family="Helvetica,sans-Serif" font-size="10.00">LlamaLibrary.Strings</text>
<text text-anchor="start" x="487" y="-868" font-family="Helvetica,sans-Serif" font-size="10.00">+</text>
<text text-anchor="start" x="498" y="-868" font-family="Helvetica,sans-Serif" font-size="10.00">int Capacity</text>
<text text-anchor="start" x="487" y="-853" font-family="Helvetica,sans-Serif" font-size="10.00">+</text>
<text text-anchor="start" x="498" y="-853" font-family="Helvetica,sans-Serif" font-size="10.00">int Count</text>
<text text-anchor="start" x="487" y="-838" font-family="Helvetica,sans-Serif" font-size="10.00">+</text>
<text text-anchor="start" x="498" y="-838" font-family="Helvetica,sans-Serif" font-size="10.00">bool IsFixedSize</text>
<text text-anchor="start" x="487" y="-823" font-family="Helvetica,sans-Serif" font-size="10.00">+</text>
<text text-anchor="start" x="498" y="-823" font-family="Helvetica,sans-Serif" font-size="10.00">bool IsReadOnly</text>
<text text-anchor="start" x="487" y="-808" font-family="Helvetica,sans-Serif" font-size="10.00">+</text>
<text text-anchor="start" x="498" y="-808" font-family="Helvetica,sans-Serif" font-size="10.00">bool IsSynchronized</text>
<text text-anchor="start" x="487" y="-793" font-family="Helvetica,sans-Serif" font-size="10.00">+</text>
<text text-anchor="start" x="498" y="-793" font-family="Helvetica,sans-Serif" font-size="10.00">string this[int index]</text>
<text text-anchor="start" x="487.5" y="-778" font-family="Helvetica,sans-Serif" font-size="10.00">#</text>
<text text-anchor="start" x="498" y="-778" font-family="Helvetica,sans-Serif" font-size="10.00">bool swigCMemOwn</text>
<text text-anchor="start" x="487" y="-763" font-family="Helvetica,sans-Serif" font-size="10.00">+</text>
<text text-anchor="start" x="498" y="-763" font-family="Helvetica,sans-Serif" font-size="10.00">void Add(string x)</text>
<text text-anchor="start" x="487" y="-748" font-family="Helvetica,sans-Serif" font-size="10.00">+</text>
<text text-anchor="start" x="498" y="-748" font-family="Helvetica,sans-Serif" font-size="10.00">void AddRange(Strings values)</text>
<text text-anchor="start" x="487" y="-733" font-family="Helvetica,sans-Serif" font-size="10.00">+</text>
<text text-anchor="start" x="498" y="-733" font-family="Helvetica,sans-Serif" font-size="10.00">void Clear()</text>
<text text-anchor="start" x="487" y="-718" font-family="Helvetica,sans-Serif" font-size="10.00">+</text>
<text text-anchor="start" x="498" y="-718" font-family="Helvetica,sans-Serif" font-size="10.00">bool Contains(string value)</text>
<text text-anchor="start" x="487" y="-703" font-family="Helvetica,sans-Serif" font-size="10.00">+</text>
<text text-anchor="start" x="498" y="-703" font-family="Helvetica,sans-Serif" font-size="10.00">void CopyTo(int index, string[] array, int arrayIndex, int count)</text>
<text text-anchor="start" x="487" y="-688" font-family="Helvetica,sans-Serif" font-size="10.00">+</text>
<text text-anchor="start" x="498" y="-688" font-family="Helvetica,sans-Serif" font-size="10.00">void CopyTo(string[] array)</text>
<text text-anchor="start" x="487" y="-673" font-family="Helvetica,sans-Serif" font-size="10.00">+</text>
<text text-anchor="start" x="498" y="-673" font-family="Helvetica,sans-Serif" font-size="10.00">void CopyTo(string[] array, int arrayIndex)</text>
<text text-anchor="start" x="487" y="-658" font-family="Helvetica,sans-Serif" font-size="10.00">+</text>
<text text-anchor="start" x="498" y="-658" font-family="Helvetica,sans-Serif" font-size="10.00">virtual void Dispose()</text>
<text text-anchor="start" x="487" y="-643" font-family="Helvetica,sans-Serif" font-size="10.00">+</text>
<text text-anchor="start" x="498" y="-643" font-family="Helvetica,sans-Serif" font-size="10.00">StringsEnumerator GetEnumerator()</text>
<text text-anchor="start" x="487" y="-628" font-family="Helvetica,sans-Serif" font-size="10.00">+</text>
<text text-anchor="start" x="498" y="-628" font-family="Helvetica,sans-Serif" font-size="10.00">Strings GetRange(int index, int count)</text>
<text text-anchor="start" x="487" y="-613" font-family="Helvetica,sans-Serif" font-size="10.00">+</text>
<text text-anchor="start" x="498" y="-613" font-family="Helvetica,sans-Serif" font-size="10.00">int IndexOf(string value)</text>
<text text-anchor="start" x="487" y="-598" font-family="Helvetica,sans-Serif" font-size="10.00">+</text>
<text text-anchor="start" x="498" y="-598" font-family="Helvetica,sans-Serif" font-size="10.00">void Insert(int index, string x)</text>
<text text-anchor="start" x="487" y="-583" font-family="Helvetica,sans-Serif" font-size="10.00">+</text>
<text text-anchor="start" x="498" y="-583" font-family="Helvetica,sans-Serif" font-size="10.00">void InsertRange(int index, Strings values)</text>
<text text-anchor="start" x="487" y="-568" font-family="Helvetica,sans-Serif" font-size="10.00">+</text>
<text text-anchor="start" x="498" y="-568" font-family="Helvetica,sans-Serif" font-size="10.00">int LastIndexOf(string value)</text>
<text text-anchor="start" x="487" y="-553" font-family="Helvetica,sans-Serif" font-size="10.00">+</text>
<text text-anchor="start" x="498" y="-553" font-family="Helvetica,sans-Serif" font-size="10.00">bool Remove(string value)</text>
<text text-anchor="start" x="487" y="-538" font-family="Helvetica,sans-Serif" font-size="10.00">+</text>
<text text-anchor="start" x="498" y="-538" font-family="Helvetica,sans-Serif" font-size="10.00">void RemoveAt(int index)</text>
<text text-anchor="start" x="487" y="-523" font-family="Helvetica,sans-Serif" font-size="10.00">+</text>
<text text-anchor="start" x="498" y="-523" font-family="Helvetica,sans-Serif" font-size="10.00">void RemoveRange(int index, int count)</text>
<text text-anchor="start" x="487" y="-508" font-family="Helvetica,sans-Serif" font-size="10.00">+</text>
<text text-anchor="start" x="498" y="-508" font-family="Helvetica,sans-Serif" font-size="10.00">void Reverse()</text>
<text text-anchor="start" x="487" y="-493" font-family="Helvetica,sans-Serif" font-size="10.00">+</text>
<text text-anchor="start" x="498" y="-493" font-family="Helvetica,sans-Serif" font-size="10.00">void Reverse(int index, int count)</text>
<text text-anchor="start" x="487" y="-478" font-family="Helvetica,sans-Serif" font-size="10.00">+</text>
<text text-anchor="start" x="498" y="-478" font-family="Helvetica,sans-Serif" font-size="10.00">void SetRange(int index, Strings values)</text>
<text text-anchor="start" x="487" y="-463" font-family="Helvetica,sans-Serif" font-size="10.00">+</text>
<text text-anchor="start" x="498" y="-463" font-family="Helvetica,sans-Serif" font-size="10.00">Strings()</text>
<text text-anchor="start" x="487" y="-448" font-family="Helvetica,sans-Serif" font-size="10.00">+</text>
<text text-anchor="start" x="498" y="-448" font-family="Helvetica,sans-Serif" font-size="10.00">Strings(global::System.Collections.Generic.IEnumerable&lt; string &gt; c)</text>
<text text-anchor="start" x="487" y="-433" font-family="Helvetica,sans-Serif" font-size="10.00">+</text>
<text text-anchor="start" x="498" y="-433" font-family="Helvetica,sans-Serif" font-size="10.00">Strings(global::System.Collections.IEnumerable c)</text>
<text text-anchor="start" x="487" y="-418" font-family="Helvetica,sans-Serif" font-size="10.00">+</text>
<text text-anchor="start" x="498" y="-418" font-family="Helvetica,sans-Serif" font-size="10.00">Strings(int capacity)</text>
<text text-anchor="start" x="487" y="-403" font-family="Helvetica,sans-Serif" font-size="10.00">+</text>
<text text-anchor="start" x="498" y="-403" font-family="Helvetica,sans-Serif" font-size="10.00">Strings(Strings other)</text>
<text text-anchor="start" x="487" y="-388" font-family="Helvetica,sans-Serif" font-size="10.00">+</text>
<text text-anchor="start" x="498" y="-388" font-family="Helvetica,sans-Serif" font-size="10.00">string[] ToArray()</text>
<text text-anchor="start" x="487" y="-373" font-family="Helvetica,sans-Serif" font-size="10.00">+</text>
<text text-anchor="start" x="498" y="-373" font-family="Helvetica,sans-Serif" font-size="10.00">static Strings Repeat(string value, int count)</text>
<text text-anchor="start" x="487" y="-358" font-family="Helvetica,sans-Serif" font-size="10.00">~</text>
<text text-anchor="start" x="498" y="-358" font-family="Helvetica,sans-Serif" font-size="10.00">Strings(global::System.IntPtr cPtr, bool cMemoryOwn)</text>
<text text-anchor="start" x="487" y="-343" font-family="Helvetica,sans-Serif" font-size="10.00">~</text>
<text text-anchor="start" x="498" y="-343" font-family="Helvetica,sans-Serif" font-size="10.00">static global::System.Runtime.InteropServices.HandleRef getCPtr(Strings obj)</text>
<text text-anchor="start" x="488.5" y="-328" font-family="Helvetica,sans-Serif" font-size="10.00">&#45;</text>
<text text-anchor="start" x="498" y="-328" font-family="Helvetica,sans-Serif" font-size="10.00">uint capacity()</text>
<text text-anchor="start" x="488.5" y="-313" font-family="Helvetica,sans-Serif" font-size="10.00">&#45;</text>
<text text-anchor="start" x="498" y="-313" font-family="Helvetica,sans-Serif" font-size="10.00">global::System.Collections.Generic.IEnumerator&lt; string &gt; global::System.Collections.Generic.IEnumerable&lt; string &gt;. GetEnumerator()</text>
<text text-anchor="start" x="488.5" y="-298" font-family="Helvetica,sans-Serif" font-size="10.00">&#45;</text>
<text text-anchor="start" x="498" y="-298" font-family="Helvetica,sans-Serif" font-size="10.00">global::System.Collections.IEnumerator global::System.Collections.IEnumerable. GetEnumerator()</text>
<text text-anchor="start" x="488.5" y="-283" font-family="Helvetica,sans-Serif" font-size="10.00">&#45;</text>
<text text-anchor="start" x="498" y="-283" font-family="Helvetica,sans-Serif" font-size="10.00">string getitem(int index)</text>
<text text-anchor="start" x="488.5" y="-268" font-family="Helvetica,sans-Serif" font-size="10.00">&#45;</text>
<text text-anchor="start" x="498" y="-268" font-family="Helvetica,sans-Serif" font-size="10.00">string getitemcopy(int index)</text>
<text text-anchor="start" x="488.5" y="-253" font-family="Helvetica,sans-Serif" font-size="10.00">&#45;</text>
<text text-anchor="start" x="498" y="-253" font-family="Helvetica,sans-Serif" font-size="10.00">void reserve(uint n)</text>
<text text-anchor="start" x="488.5" y="-238" font-family="Helvetica,sans-Serif" font-size="10.00">&#45;</text>
<text text-anchor="start" x="498" y="-238" font-family="Helvetica,sans-Serif" font-size="10.00">void setitem(int index, string value)</text>
<text text-anchor="start" x="488.5" y="-223" font-family="Helvetica,sans-Serif" font-size="10.00">&#45;</text>
<text text-anchor="start" x="498" y="-223" font-family="Helvetica,sans-Serif" font-size="10.00">uint size()</text>
<text text-anchor="start" x="488.5" y="-208" font-family="Helvetica,sans-Serif" font-size="10.00">&#45;</text>
<text text-anchor="start" x="498" y="-208" font-family="Helvetica,sans-Serif" font-size="10.00">~Strings()</text>
<polygon fill="#666666" stroke="#666666" points="483,-878 483,-878 1086,-878 1086,-878 483,-878"/>
<polygon fill="#666666" stroke="#666666" points="483,-773 483,-773 496,-773 496,-773 483,-773"/>
<polygon fill="#666666" stroke="#666666" points="496,-773 496,-773 1086,-773 1086,-773 496,-773"/>
<polygon fill="none" stroke="#666666" points="482.5,-201 482.5,-895 1085.5,-895 1085.5,-201 482.5,-201"/>
</a>
</g>
</g>
<!-- Node4&#45;&gt;Node1 -->
<g id="edge3_Node000001_Node000004" class="edge">
<title>Node4&#45;&gt;Node1</title>
<g id="a_edge3_Node000001_Node000004"><a xlink:title=" ">
<path fill="none" stroke="#63b8ff" d="M482.08,-210C479.05,-206.98 476.02,-203.98 473,-201 460,-188.19 445.91,-175.08 431.84,-162.41"/>
<polygon fill="none" stroke="#63b8ff" points="431.56,-162.16 424.42,-161.14 422.61,-154.16 429.75,-155.18 431.56,-162.16"/>
</a>
</g>
<text text-anchor="middle" x="482" y="-175" font-family="Helvetica,sans-Serif" font-size="10.00" fill="grey"> &#45;collectionRef</text>
</g>
<!-- Node5 -->
<g id="Node000005" class="node">
<title>Node5</title>
<g id="a_Node000005"><a xlink:title=" ">
<polygon fill="white" stroke="none" points="562,-991 436,-991 436,-942 562,-942 562,-991"/>
<text text-anchor="start" x="441" y="-978.5" font-family="Helvetica,sans-Serif" font-size="10.00">global::SystemIDisposable</text>
<text text-anchor="start" x="497" y="-963.5" font-family="Helvetica,sans-Serif" font-size="10.00"> </text>
<text text-anchor="start" x="497" y="-948.5" font-family="Helvetica,sans-Serif" font-size="10.00"> </text>
<polygon fill="#666666" stroke="#666666" points="436,-973.5 436,-973.5 562,-973.5 562,-973.5 436,-973.5"/>
<polygon fill="#666666" stroke="#666666" points="436,-958.5 436,-958.5 562,-958.5 562,-958.5 436,-958.5"/>
<polygon fill="none" stroke="#666666" points="436,-942 436,-991 562,-991 562,-942 436,-942"/>
</a>
</g>
</g>
<!-- Node5&#45;&gt;Node4 -->
<g id="edge4_Node000004_Node000005" class="edge">
<title>Node5&#45;&gt;Node4</title>
<g id="a_edge4_Node000004_Node000005"><a xlink:title=" ">
<path fill="none" stroke="#63b8ff" d="M520.89,-933.51C528.19,-922.85 537.03,-909.92 547,-895.36"/>
<polygon fill="none" stroke="#63b8ff" points="517.9,-931.68 515.14,-941.91 523.68,-935.64 517.9,-931.68"/>
</a>
</g>
</g>
<!-- Node6 -->
<g id="Node000006" class="node">
<title>Node6</title>
<g id="a_Node000006"><a xlink:title=" ">
<polygon fill="white" stroke="none" points="764,-991 580,-991 580,-942 764,-942 764,-991"/>
<text text-anchor="start" x="585" y="-978.5" font-family="Helvetica,sans-Serif" font-size="10.00">global::SystemCollections::IEnumerable</text>
<text text-anchor="start" x="670" y="-963.5" font-family="Helvetica,sans-Serif" font-size="10.00"> </text>
<text text-anchor="start" x="670" y="-948.5" font-family="Helvetica,sans-Serif" font-size="10.00"> </text>
<polygon fill="#666666" stroke="#666666" points="580,-973.5 580,-973.5 764,-973.5 764,-973.5 580,-973.5"/>
<polygon fill="#666666" stroke="#666666" points="580,-958.5 580,-958.5 764,-958.5 764,-958.5 580,-958.5"/>
<polygon fill="none" stroke="#666666" points="580,-942 580,-991 764,-991 764,-942 580,-942"/>
</a>
</g>
</g>
<!-- Node6&#45;&gt;Node4 -->
<g id="edge5_Node000004_Node000006" class="edge">
<title>Node6&#45;&gt;Node4</title>
<g id="a_edge5_Node000004_Node000006"><a xlink:title=" ">
<path fill="none" stroke="#63b8ff" d="M680.95,-932.22C683.75,-921.81 687.1,-909.34 690.86,-895.36"/>
<polygon fill="none" stroke="#63b8ff" points="677.56,-931.35 678.34,-941.91 684.32,-933.17 677.56,-931.35"/>
</a>
</g>
</g>
<!-- Node7 -->
<g id="Node000007" class="node">
<title>Node7</title>
<g id="a_Node000007"><a xlink:title=" ">
<polygon fill="white" stroke="none" points="1012,-991 782,-991 782,-942 1012,-942 1012,-991"/>
<text text-anchor="start" x="787" y="-978.5" font-family="Helvetica,sans-Serif" font-size="10.00">global::SystemCollections::Generic::IList&lt; string &gt;</text>
<text text-anchor="start" x="895" y="-963.5" font-family="Helvetica,sans-Serif" font-size="10.00"> </text>
<text text-anchor="start" x="895" y="-948.5" font-family="Helvetica,sans-Serif" font-size="10.00"> </text>
<polygon fill="#666666" stroke="#666666" points="782,-973.5 782,-973.5 1012,-973.5 1012,-973.5 782,-973.5"/>
<polygon fill="#666666" stroke="#666666" points="782,-958.5 782,-958.5 1012,-958.5 1012,-958.5 782,-958.5"/>
<polygon fill="none" stroke="#666666" points="782,-942 782,-991 1012,-991 1012,-942 782,-942"/>
</a>
</g>
</g>
<!-- Node7&#45;&gt;Node4 -->
<g id="edge6_Node000004_Node000007" class="edge">
<title>Node7&#45;&gt;Node4</title>
<g id="a_edge6_Node000004_Node000007"><a xlink:title=" ">
<path fill="none" stroke="#63b8ff" d="M887.97,-932.22C885.15,-921.81 881.76,-909.34 877.97,-895.36"/>
<polygon fill="none" stroke="#63b8ff" points="884.6,-933.18 890.6,-941.91 891.36,-931.35 884.6,-933.18"/>
</a>
</g>
</g>
<!-- Node8 -->
<g id="Node000008" class="node">
<title>Node8</title>
<g id="a_Node000008"><a xlink:title=" ">
<polygon fill="white" stroke="none" points="1107.5,-991 1030.5,-991 1030.5,-942 1107.5,-942 1107.5,-991"/>
<text text-anchor="start" x="1036" y="-978.5" font-family="Helvetica,sans-Serif" font-size="10.00">InteropServices</text>
<text text-anchor="start" x="1067.5" y="-963.5" font-family="Helvetica,sans-Serif" font-size="10.00"> </text>
<text text-anchor="start" x="1067.5" y="-948.5" font-family="Helvetica,sans-Serif" font-size="10.00"> </text>
<polygon fill="#666666" stroke="#666666" points="1031,-973.5 1031,-973.5 1108,-973.5 1108,-973.5 1031,-973.5"/>
<polygon fill="#666666" stroke="#666666" points="1031,-958.5 1031,-958.5 1108,-958.5 1108,-958.5 1031,-958.5"/>
<polygon fill="none" stroke="#666666" points="1030.5,-942 1030.5,-991 1107.5,-991 1107.5,-942 1030.5,-942"/>
</a>
</g>
</g>
<!-- Node8&#45;&gt;Node4 -->
<g id="edge7_Node000004_Node000008" class="edge">
<title>Node8&#45;&gt;Node4</title>
<g id="a_edge7_Node000004_Node000008"><a xlink:title=" ">
<path fill="none" stroke="#63b8ff" d="M1052.86,-941.91C1046.21,-932.2 1037.76,-919.84 1027.98,-905.55"/>
<polygon fill="none" stroke="#63b8ff" points="1027.78,-905.26 1021.09,-902.57 1021,-895.36 1027.69,-898.05 1027.78,-905.26"/>
</a>
</g>
<text text-anchor="middle" x="1062" y="-916" font-family="Helvetica,sans-Serif" font-size="10.00" fill="grey"> &#45;swigCPtr</text>
</g>
</g>
</svg>

<g id="navigator" transform="translate(0 0)" fill="#404254">
  <rect fill="#f2f5e9" fill-opacity="0.5" stroke="#606060" stroke-width=".5" x="0" y="0" width="60" height="60"/>
  <use id="zoomplus" xlink:href="#zoomPlus" x="17" y="9" onmousedown="handleZoom(evt,'in')"/>
  <use id="zoomminus" xlink:href="#zoomMin" x="42" y="9" onmousedown="handleZoom(evt,'out')"/>
  <use id="reset" xlink:href="#resetDef" x="30" y="36" onmousedown="handleReset()"/>
   <use id="arrowup" xlink:href="#arrowUp" x="0" y="0" onmousedown="handlePan(0,-1)"/>
  <use id="arrowright" xlink:href="#arrowRight" x="0" y="0" onmousedown="handlePan(1,0)"/>
  <use id="arrowdown" xlink:href="#arrowDown" x="0" y="0" onmousedown="handlePan(0,1)"/>
  <use id="arrowleft" xlink:href="#arrowLeft" x="0" y="0" onmousedown="handlePan(-1,0)"/>
</g>
<svg viewBox="0 0 15 15" width="100%" height="30px" preserveAspectRatio="xMaxYMin meet">
 <g id="arrow_out" transform="scale(0.3 0.3)">
  <a xlink:href="class_llama_library_1_1_strings_1_1_strings_enumerator__coll__graph_org.svg" target="_base">
   <rect id="button" ry="5" rx="5" y="6" x="6" height="38" width="38"
        fill="#f2f5e9" fill-opacity="0.5" stroke="#606060" stroke-width="1.0"/>
   <path id="arrow"
     d="M 11.500037,31.436501 C 11.940474,20.09759 22.043105,11.32322 32.158766,21.979434 L 37.068811,17.246167 C 37.068811,17.246167 37.088388,32 37.088388,32 L 22.160133,31.978069 C 22.160133,31.978069 26.997745,27.140456 26.997745,27.140456 C 18.528582,18.264221 13.291696,25.230495 11.500037,31.436501 z"
     style="fill:#404040;"/>
  </a>
 </g>
</svg>

<style type='text/css'>
<![CDATA[
[data-mouse-over-selected='false'] { opacity: 0.7; }
[data-mouse-over-selected='true']  { opacity: 1.0; }
]]>
</style>
<script type="application/ecmascript"><![CDATA[
document.addEventListener('DOMContentLoaded', (event) => {
  highlightEdges();
  highlightAdjacentNodes();
});
]]></script>
</svg>
