<?xml version="1.0" encoding="UTF-8" standalone="no"?>
<!DOCTYPE svg PUBLIC "-//W3C//DTD SVG 1.1//EN"
 "http://www.w3.org/Graphics/SVG/1.1/DTD/svg11.dtd">
<!-- Generated by graphviz version 6.0.1 (20220911.1526)
 -->
<!-- Title: LlamaLibrary.Strings Pages: 1 -->
<svg width="650pt" height="802pt"
 viewBox="0.00 0.00 649.50 802.00" xmlns="http://www.w3.org/2000/svg" xmlns:xlink="http://www.w3.org/1999/xlink">
<g id="graph0" class="graph" transform="scale(1 1) rotate(0) translate(4 798)">
<title>LlamaLibrary.Strings</title>
<!-- Node1 -->
<g id="Node000001" class="node">
<title>Node1</title>
<g id="a_Node000001"><a xlink:title=" ">
<polygon fill="#999999" stroke="none" points="603,-709 0,-709 0,0 603,0 603,-709"/>
<text text-anchor="start" x="257" y="-696.5" font-family="Helvetica,sans-Serif" font-size="10.00">LlamaLibrary.Strings</text>
<text text-anchor="start" x="4.5" y="-681.5" font-family="Helvetica,sans-Serif" font-size="10.00">+</text>
<text text-anchor="start" x="15.5" y="-681.5" font-family="Helvetica,sans-Serif" font-size="10.00">int Capacity</text>
<text text-anchor="start" x="4.5" y="-666.5" font-family="Helvetica,sans-Serif" font-size="10.00">+</text>
<text text-anchor="start" x="15.5" y="-666.5" font-family="Helvetica,sans-Serif" font-size="10.00">int Count</text>
<text text-anchor="start" x="4.5" y="-651.5" font-family="Helvetica,sans-Serif" font-size="10.00">+</text>
<text text-anchor="start" x="15.5" y="-651.5" font-family="Helvetica,sans-Serif" font-size="10.00">bool IsFixedSize</text>
<text text-anchor="start" x="4.5" y="-636.5" font-family="Helvetica,sans-Serif" font-size="10.00">+</text>
<text text-anchor="start" x="15.5" y="-636.5" font-family="Helvetica,sans-Serif" font-size="10.00">bool IsReadOnly</text>
<text text-anchor="start" x="4.5" y="-621.5" font-family="Helvetica,sans-Serif" font-size="10.00">+</text>
<text text-anchor="start" x="15.5" y="-621.5" font-family="Helvetica,sans-Serif" font-size="10.00">bool IsSynchronized</text>
<text text-anchor="start" x="4.5" y="-606.5" font-family="Helvetica,sans-Serif" font-size="10.00">+</text>
<text text-anchor="start" x="15.5" y="-606.5" font-family="Helvetica,sans-Serif" font-size="10.00">string this[int index]</text>
<text text-anchor="start" x="5" y="-591.5" font-family="Helvetica,sans-Serif" font-size="10.00">#</text>
<text text-anchor="start" x="15.5" y="-591.5" font-family="Helvetica,sans-Serif" font-size="10.00">bool swigCMemOwn</text>
<text text-anchor="start" x="6" y="-576.5" font-family="Helvetica,sans-Serif" font-size="10.00">&#45;</text>
<text text-anchor="start" x="15.5" y="-576.5" font-family="Helvetica,sans-Serif" font-size="10.00">global::System.Runtime.InteropServices.HandleRef swigCPtr</text>
<text text-anchor="start" x="4.5" y="-561.5" font-family="Helvetica,sans-Serif" font-size="10.00">+</text>
<text text-anchor="start" x="15.5" y="-561.5" font-family="Helvetica,sans-Serif" font-size="10.00">void Add(string x)</text>
<text text-anchor="start" x="4.5" y="-546.5" font-family="Helvetica,sans-Serif" font-size="10.00">+</text>
<text text-anchor="start" x="15.5" y="-546.5" font-family="Helvetica,sans-Serif" font-size="10.00">void AddRange(Strings values)</text>
<text text-anchor="start" x="4.5" y="-531.5" font-family="Helvetica,sans-Serif" font-size="10.00">+</text>
<text text-anchor="start" x="15.5" y="-531.5" font-family="Helvetica,sans-Serif" font-size="10.00">void Clear()</text>
<text text-anchor="start" x="4.5" y="-516.5" font-family="Helvetica,sans-Serif" font-size="10.00">+</text>
<text text-anchor="start" x="15.5" y="-516.5" font-family="Helvetica,sans-Serif" font-size="10.00">bool Contains(string value)</text>
<text text-anchor="start" x="4.5" y="-501.5" font-family="Helvetica,sans-Serif" font-size="10.00">+</text>
<text text-anchor="start" x="15.5" y="-501.5" font-family="Helvetica,sans-Serif" font-size="10.00">void CopyTo(int index, string[] array, int arrayIndex, int count)</text>
<text text-anchor="start" x="4.5" y="-486.5" font-family="Helvetica,sans-Serif" font-size="10.00">+</text>
<text text-anchor="start" x="15.5" y="-486.5" font-family="Helvetica,sans-Serif" font-size="10.00">void CopyTo(string[] array)</text>
<text text-anchor="start" x="4.5" y="-471.5" font-family="Helvetica,sans-Serif" font-size="10.00">+</text>
<text text-anchor="start" x="15.5" y="-471.5" font-family="Helvetica,sans-Serif" font-size="10.00">void CopyTo(string[] array, int arrayIndex)</text>
<text text-anchor="start" x="4.5" y="-456.5" font-family="Helvetica,sans-Serif" font-size="10.00">+</text>
<text text-anchor="start" x="15.5" y="-456.5" font-family="Helvetica,sans-Serif" font-size="10.00">virtual void Dispose()</text>
<text text-anchor="start" x="4.5" y="-441.5" font-family="Helvetica,sans-Serif" font-size="10.00">+</text>
<text text-anchor="start" x="15.5" y="-441.5" font-family="Helvetica,sans-Serif" font-size="10.00">StringsEnumerator GetEnumerator()</text>
<text text-anchor="start" x="4.5" y="-426.5" font-family="Helvetica,sans-Serif" font-size="10.00">+</text>
<text text-anchor="start" x="15.5" y="-426.5" font-family="Helvetica,sans-Serif" font-size="10.00">Strings GetRange(int index, int count)</text>
<text text-anchor="start" x="4.5" y="-411.5" font-family="Helvetica,sans-Serif" font-size="10.00">+</text>
<text text-anchor="start" x="15.5" y="-411.5" font-family="Helvetica,sans-Serif" font-size="10.00">int IndexOf(string value)</text>
<text text-anchor="start" x="4.5" y="-396.5" font-family="Helvetica,sans-Serif" font-size="10.00">+</text>
<text text-anchor="start" x="15.5" y="-396.5" font-family="Helvetica,sans-Serif" font-size="10.00">void Insert(int index, string x)</text>
<text text-anchor="start" x="4.5" y="-381.5" font-family="Helvetica,sans-Serif" font-size="10.00">+</text>
<text text-anchor="start" x="15.5" y="-381.5" font-family="Helvetica,sans-Serif" font-size="10.00">void InsertRange(int index, Strings values)</text>
<text text-anchor="start" x="4.5" y="-366.5" font-family="Helvetica,sans-Serif" font-size="10.00">+</text>
<text text-anchor="start" x="15.5" y="-366.5" font-family="Helvetica,sans-Serif" font-size="10.00">int LastIndexOf(string value)</text>
<text text-anchor="start" x="4.5" y="-351.5" font-family="Helvetica,sans-Serif" font-size="10.00">+</text>
<text text-anchor="start" x="15.5" y="-351.5" font-family="Helvetica,sans-Serif" font-size="10.00">bool Remove(string value)</text>
<text text-anchor="start" x="4.5" y="-336.5" font-family="Helvetica,sans-Serif" font-size="10.00">+</text>
<text text-anchor="start" x="15.5" y="-336.5" font-family="Helvetica,sans-Serif" font-size="10.00">void RemoveAt(int index)</text>
<text text-anchor="start" x="4.5" y="-321.5" font-family="Helvetica,sans-Serif" font-size="10.00">+</text>
<text text-anchor="start" x="15.5" y="-321.5" font-family="Helvetica,sans-Serif" font-size="10.00">void RemoveRange(int index, int count)</text>
<text text-anchor="start" x="4.5" y="-306.5" font-family="Helvetica,sans-Serif" font-size="10.00">+</text>
<text text-anchor="start" x="15.5" y="-306.5" font-family="Helvetica,sans-Serif" font-size="10.00">void Reverse()</text>
<text text-anchor="start" x="4.5" y="-291.5" font-family="Helvetica,sans-Serif" font-size="10.00">+</text>
<text text-anchor="start" x="15.5" y="-291.5" font-family="Helvetica,sans-Serif" font-size="10.00">void Reverse(int index, int count)</text>
<text text-anchor="start" x="4.5" y="-276.5" font-family="Helvetica,sans-Serif" font-size="10.00">+</text>
<text text-anchor="start" x="15.5" y="-276.5" font-family="Helvetica,sans-Serif" font-size="10.00">void SetRange(int index, Strings values)</text>
<text text-anchor="start" x="4.5" y="-261.5" font-family="Helvetica,sans-Serif" font-size="10.00">+</text>
<text text-anchor="start" x="15.5" y="-261.5" font-family="Helvetica,sans-Serif" font-size="10.00">Strings()</text>
<text text-anchor="start" x="4.5" y="-246.5" font-family="Helvetica,sans-Serif" font-size="10.00">+</text>
<text text-anchor="start" x="15.5" y="-246.5" font-family="Helvetica,sans-Serif" font-size="10.00">Strings(global::System.Collections.Generic.IEnumerable&lt; string &gt; c)</text>
<text text-anchor="start" x="4.5" y="-231.5" font-family="Helvetica,sans-Serif" font-size="10.00">+</text>
<text text-anchor="start" x="15.5" y="-231.5" font-family="Helvetica,sans-Serif" font-size="10.00">Strings(global::System.Collections.IEnumerable c)</text>
<text text-anchor="start" x="4.5" y="-216.5" font-family="Helvetica,sans-Serif" font-size="10.00">+</text>
<text text-anchor="start" x="15.5" y="-216.5" font-family="Helvetica,sans-Serif" font-size="10.00">Strings(int capacity)</text>
<text text-anchor="start" x="4.5" y="-201.5" font-family="Helvetica,sans-Serif" font-size="10.00">+</text>
<text text-anchor="start" x="15.5" y="-201.5" font-family="Helvetica,sans-Serif" font-size="10.00">Strings(Strings other)</text>
<text text-anchor="start" x="4.5" y="-186.5" font-family="Helvetica,sans-Serif" font-size="10.00">+</text>
<text text-anchor="start" x="15.5" y="-186.5" font-family="Helvetica,sans-Serif" font-size="10.00">string[] ToArray()</text>
<text text-anchor="start" x="4.5" y="-171.5" font-family="Helvetica,sans-Serif" font-size="10.00">+</text>
<text text-anchor="start" x="15.5" y="-171.5" font-family="Helvetica,sans-Serif" font-size="10.00">static Strings Repeat(string value, int count)</text>
<text text-anchor="start" x="4.5" y="-156.5" font-family="Helvetica,sans-Serif" font-size="10.00">~</text>
<text text-anchor="start" x="15.5" y="-156.5" font-family="Helvetica,sans-Serif" font-size="10.00">Strings(global::System.IntPtr cPtr, bool cMemoryOwn)</text>
<text text-anchor="start" x="4.5" y="-141.5" font-family="Helvetica,sans-Serif" font-size="10.00">~</text>
<text text-anchor="start" x="15.5" y="-141.5" font-family="Helvetica,sans-Serif" font-size="10.00">static global::System.Runtime.InteropServices.HandleRef getCPtr(Strings obj)</text>
<text text-anchor="start" x="6" y="-126.5" font-family="Helvetica,sans-Serif" font-size="10.00">&#45;</text>
<text text-anchor="start" x="15.5" y="-126.5" font-family="Helvetica,sans-Serif" font-size="10.00">uint capacity()</text>
<text text-anchor="start" x="6" y="-111.5" font-family="Helvetica,sans-Serif" font-size="10.00">&#45;</text>
<text text-anchor="start" x="15.5" y="-111.5" font-family="Helvetica,sans-Serif" font-size="10.00">global::System.Collections.Generic.IEnumerator&lt; string &gt; global::System.Collections.Generic.IEnumerable&lt; string &gt;. GetEnumerator()</text>
<text text-anchor="start" x="6" y="-96.5" font-family="Helvetica,sans-Serif" font-size="10.00">&#45;</text>
<text text-anchor="start" x="15.5" y="-96.5" font-family="Helvetica,sans-Serif" font-size="10.00">global::System.Collections.IEnumerator global::System.Collections.IEnumerable. GetEnumerator()</text>
<text text-anchor="start" x="6" y="-81.5" font-family="Helvetica,sans-Serif" font-size="10.00">&#45;</text>
<text text-anchor="start" x="15.5" y="-81.5" font-family="Helvetica,sans-Serif" font-size="10.00">string getitem(int index)</text>
<text text-anchor="start" x="6" y="-66.5" font-family="Helvetica,sans-Serif" font-size="10.00">&#45;</text>
<text text-anchor="start" x="15.5" y="-66.5" font-family="Helvetica,sans-Serif" font-size="10.00">string getitemcopy(int index)</text>
<text text-anchor="start" x="6" y="-51.5" font-family="Helvetica,sans-Serif" font-size="10.00">&#45;</text>
<text text-anchor="start" x="15.5" y="-51.5" font-family="Helvetica,sans-Serif" font-size="10.00">void reserve(uint n)</text>
<text text-anchor="start" x="6" y="-36.5" font-family="Helvetica,sans-Serif" font-size="10.00">&#45;</text>
<text text-anchor="start" x="15.5" y="-36.5" font-family="Helvetica,sans-Serif" font-size="10.00">void setitem(int index, string value)</text>
<text text-anchor="start" x="6" y="-21.5" font-family="Helvetica,sans-Serif" font-size="10.00">&#45;</text>
<text text-anchor="start" x="15.5" y="-21.5" font-family="Helvetica,sans-Serif" font-size="10.00">uint size()</text>
<text text-anchor="start" x="6" y="-6.5" font-family="Helvetica,sans-Serif" font-size="10.00">&#45;</text>
<text text-anchor="start" x="15.5" y="-6.5" font-family="Helvetica,sans-Serif" font-size="10.00">~Strings()</text>
<polygon fill="#666666" stroke="#666666" points="0.5,-691.5 0.5,-691.5 603.5,-691.5 603.5,-691.5 0.5,-691.5"/>
<polygon fill="#666666" stroke="#666666" points="0.5,-571.5 0.5,-571.5 13.5,-571.5 13.5,-571.5 0.5,-571.5"/>
<polygon fill="#666666" stroke="#666666" points="13.5,-571.5 13.5,-571.5 603.5,-571.5 603.5,-571.5 13.5,-571.5"/>
<polygon fill="none" stroke="#666666" points="0,0 0,-709 603,-709 603,0 0,0"/>
</a>
</g>
</g>
<!-- Node2 -->
<g id="Node000002" class="node">
<title>Node2</title>
<g id="a_Node000002"><a xlink:title=" ">
<polygon fill="white" stroke="none" points="191.5,-794 65.5,-794 65.5,-745 191.5,-745 191.5,-794"/>
<text text-anchor="start" x="70.5" y="-781.5" font-family="Helvetica,sans-Serif" font-size="10.00">global::SystemIDisposable</text>
<text text-anchor="start" x="126.5" y="-766.5" font-family="Helvetica,sans-Serif" font-size="10.00"> </text>
<text text-anchor="start" x="126.5" y="-751.5" font-family="Helvetica,sans-Serif" font-size="10.00"> </text>
<polygon fill="#666666" stroke="#666666" points="65.5,-776.5 65.5,-776.5 191.5,-776.5 191.5,-776.5 65.5,-776.5"/>
<polygon fill="#666666" stroke="#666666" points="65.5,-761.5 65.5,-761.5 191.5,-761.5 191.5,-761.5 65.5,-761.5"/>
<polygon fill="none" stroke="#666666" points="65.5,-745 65.5,-794 191.5,-794 191.5,-745 65.5,-745"/>
</a>
</g>
</g>
<!-- Node2&#45;&gt;Node1 -->
<g id="edge1_Node000001_Node000002" class="edge">
<title>Node2&#45;&gt;Node1</title>
<g id="a_edge1_Node000001_Node000002"><a xlink:title=" ">
<path fill="none" stroke="#63b8ff" d="M142.39,-735.35C145.62,-727.63 149.33,-718.78 153.42,-709.02"/>
<polygon fill="none" stroke="#63b8ff" points="139.06,-734.24 138.42,-744.81 145.51,-736.94 139.06,-734.24"/>
</a>
</g>
</g>
<!-- Node3 -->
<g id="Node000003" class="node">
<title>Node3</title>
<g id="a_Node000003"><a xlink:title=" ">
<polygon fill="white" stroke="none" points="393.5,-794 209.5,-794 209.5,-745 393.5,-745 393.5,-794"/>
<text text-anchor="start" x="214.5" y="-781.5" font-family="Helvetica,sans-Serif" font-size="10.00">global::SystemCollections::IEnumerable</text>
<text text-anchor="start" x="299.5" y="-766.5" font-family="Helvetica,sans-Serif" font-size="10.00"> </text>
<text text-anchor="start" x="299.5" y="-751.5" font-family="Helvetica,sans-Serif" font-size="10.00"> </text>
<polygon fill="#666666" stroke="#666666" points="209.5,-776.5 209.5,-776.5 393.5,-776.5 393.5,-776.5 209.5,-776.5"/>
<polygon fill="#666666" stroke="#666666" points="209.5,-761.5 209.5,-761.5 393.5,-761.5 393.5,-761.5 209.5,-761.5"/>
<polygon fill="none" stroke="#666666" points="209.5,-745 209.5,-794 393.5,-794 393.5,-745 209.5,-745"/>
</a>
</g>
</g>
<!-- Node3&#45;&gt;Node1 -->
<g id="edge2_Node000001_Node000003" class="edge">
<title>Node3&#45;&gt;Node1</title>
<g id="a_edge2_Node000001_Node000003"><a xlink:title=" ">
<path fill="none" stroke="#63b8ff" d="M301.5,-734.56C301.5,-727.03 301.5,-718.45 301.5,-709.02"/>
<polygon fill="none" stroke="#63b8ff" points="298,-734.81 301.5,-744.81 305,-734.81 298,-734.81"/>
</a>
</g>
</g>
<!-- Node4 -->
<g id="Node000004" class="node">
<title>Node4</title>
<g id="a_Node000004"><a xlink:title=" ">
<polygon fill="white" stroke="none" points="641.5,-794 411.5,-794 411.5,-745 641.5,-745 641.5,-794"/>
<text text-anchor="start" x="416.5" y="-781.5" font-family="Helvetica,sans-Serif" font-size="10.00">global::SystemCollections::Generic::IList&lt; string &gt;</text>
<text text-anchor="start" x="524.5" y="-766.5" font-family="Helvetica,sans-Serif" font-size="10.00"> </text>
<text text-anchor="start" x="524.5" y="-751.5" font-family="Helvetica,sans-Serif" font-size="10.00"> </text>
<polygon fill="#666666" stroke="#666666" points="411.5,-776.5 411.5,-776.5 641.5,-776.5 641.5,-776.5 411.5,-776.5"/>
<polygon fill="#666666" stroke="#666666" points="411.5,-761.5 411.5,-761.5 641.5,-761.5 641.5,-761.5 411.5,-761.5"/>
<polygon fill="none" stroke="#666666" points="411.5,-745 411.5,-794 641.5,-794 641.5,-745 411.5,-745"/>
</a>
</g>
</g>
<!-- Node4&#45;&gt;Node1 -->
<g id="edge3_Node000001_Node000004" class="edge">
<title>Node4&#45;&gt;Node1</title>
<g id="a_edge3_Node000001_Node000004"><a xlink:title=" ">
<path fill="none" stroke="#63b8ff" d="M508.72,-735.86C504.45,-728.03 499.53,-719 494.09,-709.02"/>
<polygon fill="none" stroke="#63b8ff" points="505.74,-737.7 513.59,-744.81 511.88,-734.36 505.74,-737.7"/>
</a>
</g>
</g>
</g>
</svg>
