<?xml version="1.0" encoding="UTF-8" standalone="no"?>
<!DOCTYPE svg PUBLIC "-//W3C//DTD SVG 1.1//EN"
 "http://www.w3.org/Graphics/SVG/1.1/DTD/svg11.dtd">
<!-- Generated by graphviz version 6.0.1 (20220911.1526)
 -->
<!-- Title: LlamaLibrary.libllama_libPINVOKE.delete_llama_sampling_params Pages: 1 -->
<svg width="898pt" height="27pt"
 viewBox="0.00 0.00 898.00 27.00" xmlns="http://www.w3.org/2000/svg" xmlns:xlink="http://www.w3.org/1999/xlink">
<g id="graph0" class="graph" transform="scale(1 1) rotate(0) translate(4 23)">
<title>LlamaLibrary.libllama_libPINVOKE.delete_llama_sampling_params</title>
<!-- Node1 -->
<g id="Node000001" class="node">
<title>Node1</title>
<g id="a_Node000001"><a xlink:title=" ">
<polygon fill="#999999" stroke="#666666" points="890,-19 584,-19 584,0 890,0 890,-19"/>
<text text-anchor="middle" x="737" y="-7" font-family="Helvetica,sans-Serif" font-size="10.00">LlamaLibrary.libllama_libPINVOKE.delete_llama_sampling_params</text>
</a>
</g>
</g>
<!-- Node2 -->
<g id="Node000002" class="node">
<title>Node2</title>
<g id="a_Node000002"><a xlink:href="class_llama_library_1_1llama__sampling__params.html#aa541e2a16653d5f211f75accb0a26baf" target="_top" xlink:title=" ">
<polygon fill="white" stroke="#666666" points="548,-19 330,-19 330,0 548,0 548,-19"/>
<text text-anchor="middle" x="439" y="-7" font-family="Helvetica,sans-Serif" font-size="10.00">LlamaLibrary.llama_sampling_params.Dispose</text>
</a>
</g>
</g>
<!-- Node1&#45;&gt;Node2 -->
<g id="edge1_Node000001_Node000002" class="edge">
<title>Node1&#45;&gt;Node2</title>
<g id="a_edge1_Node000001_Node000002"><a xlink:title=" ">
<path fill="none" stroke="#63b8ff" d="M573.64,-9.5C565.12,-9.5 556.67,-9.5 548.39,-9.5"/>
<polygon fill="#63b8ff" stroke="#63b8ff" points="573.66,-13 583.66,-9.5 573.66,-6 573.66,-13"/>
</a>
</g>
</g>
<!-- Node3 -->
<g id="Node000003" class="node">
<title>Node3</title>
<g id="a_Node000003"><a xlink:href="class_llama_library_1_1llama__sampling__params.html#a3dc2a592cb5ea8d10438ead472ca3091" target="_top" xlink:title=" ">
<polygon fill="white" stroke="#666666" points="294,-19 0,-19 0,0 294,0 294,-19"/>
<text text-anchor="middle" x="147" y="-7" font-family="Helvetica,sans-Serif" font-size="10.00">LlamaLibrary.llama_sampling_params.~llama_sampling_params</text>
</a>
</g>
</g>
<!-- Node2&#45;&gt;Node3 -->
<g id="edge2_Node000002_Node000003" class="edge">
<title>Node2&#45;&gt;Node3</title>
<g id="a_edge2_Node000002_Node000003"><a xlink:title=" ">
<path fill="none" stroke="#63b8ff" d="M319.48,-9.5C311.13,-9.5 302.65,-9.5 294.17,-9.5"/>
<polygon fill="#63b8ff" stroke="#63b8ff" points="319.6,-13 329.6,-9.5 319.6,-6 319.6,-13"/>
</a>
</g>
</g>
</g>
</svg>
