<?xml version="1.0" encoding="UTF-8" standalone="no"?>
<!DOCTYPE svg PUBLIC "-//W3C//DTD SVG 1.1//EN"
 "http://www.w3.org/Graphics/SVG/1.1/DTD/svg11.dtd">
<!-- Generated by graphviz version 6.0.1 (20220911.1526)
 -->
<!-- Title: LlamaLibrary.libllama_libPINVOKE.StringsAndFloats_getitemcopy Pages: 1 -->
<svg width="775pt" height="27pt"
 viewBox="0.00 0.00 775.00 27.00" xmlns="http://www.w3.org/2000/svg" xmlns:xlink="http://www.w3.org/1999/xlink">
<g id="graph0" class="graph" transform="scale(1 1) rotate(0) translate(4 23)">
<title>LlamaLibrary.libllama_libPINVOKE.StringsAndFloats_getitemcopy</title>
<!-- Node1 -->
<g id="Node000001" class="node">
<title>Node1</title>
<g id="a_Node000001"><a xlink:title=" ">
<polygon fill="#999999" stroke="#666666" points="767,-19 464,-19 464,0 767,0 767,-19"/>
<text text-anchor="middle" x="615.5" y="-7" font-family="Helvetica,sans-Serif" font-size="10.00">LlamaLibrary.libllama_libPINVOKE.StringsAndFloats_getitemcopy</text>
</a>
</g>
</g>
<!-- Node2 -->
<g id="Node000002" class="node">
<title>Node2</title>
<g id="a_Node000002"><a xlink:href="$class_llama_library_1_1_strings_and_floats.html#a478bf56290e849a87be47623bb0f1599" xlink:title=" ">
<polygon fill="white" stroke="#666666" points="428,-19 222,-19 222,0 428,0 428,-19"/>
<text text-anchor="middle" x="325" y="-7" font-family="Helvetica,sans-Serif" font-size="10.00">LlamaLibrary.StringsAndFloats.getitemcopy</text>
</a>
</g>
</g>
<!-- Node1&#45;&gt;Node2 -->
<g id="edge1_Node000001_Node000002" class="edge">
<title>Node1&#45;&gt;Node2</title>
<g id="a_edge1_Node000001_Node000002"><a xlink:title=" ">
<path fill="none" stroke="#63b8ff" d="M453.79,-9.5C445.19,-9.5 436.67,-9.5 428.36,-9.5"/>
<polygon fill="#63b8ff" stroke="#63b8ff" points="453.91,-13 463.91,-9.5 453.91,-6 453.91,-13"/>
</a>
</g>
</g>
<!-- Node3 -->
<g id="Node000003" class="node">
<title>Node3</title>
<g id="a_Node000003"><a xlink:href="$class_llama_library_1_1_strings_and_floats.html#a41bbf9697b7428d90149eb997947ba8e" xlink:title=" ">
<polygon fill="white" stroke="#666666" points="186,-19 0,-19 0,0 186,0 186,-19"/>
<text text-anchor="middle" x="93" y="-7" font-family="Helvetica,sans-Serif" font-size="10.00">LlamaLibrary.StringsAndFloats.CopyTo</text>
</a>
</g>
</g>
<!-- Node2&#45;&gt;Node3 -->
<g id="edge2_Node000002_Node000003" class="edge">
<title>Node2&#45;&gt;Node3</title>
<g id="a_edge2_Node000002_Node000003"><a xlink:title=" ">
<path fill="none" stroke="#63b8ff" d="M211.73,-9.5C203.14,-9.5 194.54,-9.5 186.11,-9.5"/>
<polygon fill="#63b8ff" stroke="#63b8ff" points="211.78,-13 221.78,-9.5 211.78,-6 211.78,-13"/>
</a>
</g>
</g>
</g>
</svg>
