<?xml version="1.0" encoding="UTF-8" standalone="no"?>
<!DOCTYPE svg PUBLIC "-//W3C//DTD SVG 1.1//EN"
 "http://www.w3.org/Graphics/SVG/1.1/DTD/svg11.dtd">
<!-- Generated by graphviz version 6.0.1 (20220911.1526)
 -->
<!-- Title: DisableWhileNotConfigured.OnDestroy Pages: 1 -->
<svg width="697pt" height="27pt"
 viewBox="0.00 0.00 697.00 27.00" xmlns="http://www.w3.org/2000/svg" xmlns:xlink="http://www.w3.org/1999/xlink">
<g id="graph0" class="graph" transform="scale(1 1) rotate(0) translate(4 23)">
<title>DisableWhileNotConfigured.OnDestroy</title>
<!-- Node1 -->
<g id="Node000001" class="node">
<title>Node1</title>
<g id="a_Node000001"><a xlink:title=" ">
<polygon fill="#999999" stroke="#666666" points="184,-19 0,-19 0,0 184,0 184,-19"/>
<text text-anchor="middle" x="92" y="-7" font-family="Helvetica,sans-Serif" font-size="10.00">DisableWhileNotConfigured.OnDestroy</text>
</a>
</g>
</g>
<!-- Node2 -->
<g id="Node000002" class="node">
<title>Node2</title>
<g id="a_Node000002"><a xlink:href="class_disable_while_not_configured.html#a3d90809cbb6767eee937856f545ddb9d" target="_top" xlink:title=" ">
<polygon fill="white" stroke="#666666" points="432,-19 220,-19 220,0 432,0 432,-19"/>
<text text-anchor="middle" x="326" y="-7" font-family="Helvetica,sans-Serif" font-size="10.00">DisableWhileNotConfigured.OnStateChanged</text>
</a>
</g>
</g>
<!-- Node1&#45;&gt;Node2 -->
<g id="edge1_Node000001_Node000002" class="edge">
<title>Node1&#45;&gt;Node2</title>
<g id="a_edge1_Node000001_Node000002"><a xlink:title=" ">
<path fill="none" stroke="#63b8ff" d="M184.03,-9.5C192.42,-9.5 201,-9.5 209.57,-9.5"/>
<polygon fill="#63b8ff" stroke="#63b8ff" points="209.62,-13 219.62,-9.5 209.62,-6 209.62,-13"/>
</a>
</g>
</g>
<!-- Node3 -->
<g id="Node000003" class="node">
<title>Node3</title>
<g id="a_Node000003"><a xlink:href="class_disable_while_not_configured.html#ac86bad82530a44785926135dbfe2f608" target="_top" xlink:title=" ">
<polygon fill="white" stroke="#666666" points="689,-19 468,-19 468,0 689,0 689,-19"/>
<text text-anchor="middle" x="578.5" y="-7" font-family="Helvetica,sans-Serif" font-size="10.00">DisableWhileNotConfigured.SetUIObjectsActive</text>
</a>
</g>
</g>
<!-- Node2&#45;&gt;Node3 -->
<g id="edge2_Node000002_Node000003" class="edge">
<title>Node2&#45;&gt;Node3</title>
<g id="a_edge2_Node000002_Node000003"><a xlink:title=" ">
<path fill="none" stroke="#63b8ff" d="M432.15,-9.5C440.61,-9.5 449.21,-9.5 457.77,-9.5"/>
<polygon fill="#63b8ff" stroke="#63b8ff" points="457.79,-13 467.79,-9.5 457.79,-6 457.79,-13"/>
</a>
</g>
</g>
</g>
</svg>
