<?xml version="1.0" encoding="UTF-8" standalone="no"?>
<!DOCTYPE svg PUBLIC "-//W3C//DTD SVG 1.1//EN"
 "http://www.w3.org/Graphics/SVG/1.1/DTD/svg11.dtd">
<!-- Generated by graphviz version 6.0.1 (20220911.1526)
 -->
<!-- Title: LlamaLibrary.StringAndFloat Pages: 1 -->
<svg width="397pt" height="273pt"
 viewBox="0.00 0.00 397.00 273.00" xmlns="http://www.w3.org/2000/svg" xmlns:xlink="http://www.w3.org/1999/xlink">
<g id="graph0" class="graph" transform="scale(1 1) rotate(0) translate(4 269)">
<title>LlamaLibrary.StringAndFloat</title>
<!-- Node1 -->
<g id="Node000001" class="node">
<title>Node1</title>
<g id="a_Node000001"><a xlink:title=" ">
<polygon fill="#999999" stroke="none" points="389,-169 0,-169 0,0 389,0 389,-169"/>
<text text-anchor="start" x="133" y="-156.5" font-family="Helvetica,sans-Serif" font-size="10.00">LlamaLibrary.StringAndFloat</text>
<text text-anchor="start" x="4.5" y="-141.5" font-family="Helvetica,sans-Serif" font-size="10.00">+</text>
<text text-anchor="start" x="15.5" y="-141.5" font-family="Helvetica,sans-Serif" font-size="10.00">string first</text>
<text text-anchor="start" x="4.5" y="-126.5" font-family="Helvetica,sans-Serif" font-size="10.00">+</text>
<text text-anchor="start" x="15.5" y="-126.5" font-family="Helvetica,sans-Serif" font-size="10.00">float second</text>
<text text-anchor="start" x="5" y="-111.5" font-family="Helvetica,sans-Serif" font-size="10.00">#</text>
<text text-anchor="start" x="15.5" y="-111.5" font-family="Helvetica,sans-Serif" font-size="10.00">bool swigCMemOwn</text>
<text text-anchor="start" x="4.5" y="-96.5" font-family="Helvetica,sans-Serif" font-size="10.00">+</text>
<text text-anchor="start" x="15.5" y="-96.5" font-family="Helvetica,sans-Serif" font-size="10.00">virtual void Dispose()</text>
<text text-anchor="start" x="4.5" y="-81.5" font-family="Helvetica,sans-Serif" font-size="10.00">+</text>
<text text-anchor="start" x="15.5" y="-81.5" font-family="Helvetica,sans-Serif" font-size="10.00">StringAndFloat()</text>
<text text-anchor="start" x="4.5" y="-66.5" font-family="Helvetica,sans-Serif" font-size="10.00">+</text>
<text text-anchor="start" x="15.5" y="-66.5" font-family="Helvetica,sans-Serif" font-size="10.00">StringAndFloat(string t, float u)</text>
<text text-anchor="start" x="4.5" y="-51.5" font-family="Helvetica,sans-Serif" font-size="10.00">+</text>
<text text-anchor="start" x="15.5" y="-51.5" font-family="Helvetica,sans-Serif" font-size="10.00">StringAndFloat(StringAndFloat p)</text>
<text text-anchor="start" x="4.5" y="-36.5" font-family="Helvetica,sans-Serif" font-size="10.00">~</text>
<text text-anchor="start" x="15.5" y="-36.5" font-family="Helvetica,sans-Serif" font-size="10.00">StringAndFloat(global::System.IntPtr cPtr, bool cMemoryOwn)</text>
<text text-anchor="start" x="4.5" y="-21.5" font-family="Helvetica,sans-Serif" font-size="10.00">~</text>
<text text-anchor="start" x="15.5" y="-21.5" font-family="Helvetica,sans-Serif" font-size="10.00">static global::System.Runtime.InteropServices.HandleRef getCPtr(StringAndFloat obj)</text>
<text text-anchor="start" x="6" y="-6.5" font-family="Helvetica,sans-Serif" font-size="10.00">&#45;</text>
<text text-anchor="start" x="15.5" y="-6.5" font-family="Helvetica,sans-Serif" font-size="10.00">~StringAndFloat()</text>
<polygon fill="#666666" stroke="#666666" points="0.5,-151.5 0.5,-151.5 389.5,-151.5 389.5,-151.5 0.5,-151.5"/>
<polygon fill="#666666" stroke="#666666" points="0.5,-106.5 0.5,-106.5 13.5,-106.5 13.5,-106.5 0.5,-106.5"/>
<polygon fill="#666666" stroke="#666666" points="13.5,-106.5 13.5,-106.5 389.5,-106.5 389.5,-106.5 13.5,-106.5"/>
<polygon fill="none" stroke="#666666" points="0,0 0,-169 389,-169 389,0 0,0"/>
</a>
</g>
</g>
<!-- Node2 -->
<g id="Node000002" class="node">
<title>Node2</title>
<g id="a_Node000002"><a xlink:title=" ">
<polygon fill="white" stroke="none" points="197.5,-265 71.5,-265 71.5,-216 197.5,-216 197.5,-265"/>
<text text-anchor="start" x="76.5" y="-252.5" font-family="Helvetica,sans-Serif" font-size="10.00">global::SystemIDisposable</text>
<text text-anchor="start" x="132.5" y="-237.5" font-family="Helvetica,sans-Serif" font-size="10.00"> </text>
<text text-anchor="start" x="132.5" y="-222.5" font-family="Helvetica,sans-Serif" font-size="10.00"> </text>
<polygon fill="#666666" stroke="#666666" points="71.5,-247.5 71.5,-247.5 197.5,-247.5 197.5,-247.5 71.5,-247.5"/>
<polygon fill="#666666" stroke="#666666" points="71.5,-232.5 71.5,-232.5 197.5,-232.5 197.5,-232.5 71.5,-232.5"/>
<polygon fill="none" stroke="#666666" points="71.5,-216 71.5,-265 197.5,-265 197.5,-216 71.5,-216"/>
</a>
</g>
</g>
<!-- Node2&#45;&gt;Node1 -->
<g id="edge1_Node000001_Node000002" class="edge">
<title>Node2&#45;&gt;Node1</title>
<g id="a_edge1_Node000001_Node000002"><a xlink:title=" ">
<path fill="none" stroke="#63b8ff" d="M147.49,-206.16C151.8,-195.1 156.81,-182.24 161.92,-169.13"/>
<polygon fill="none" stroke="#63b8ff" points="144.11,-205.19 143.74,-215.77 150.64,-207.73 144.11,-205.19"/>
</a>
</g>
</g>
<!-- Node3 -->
<g id="Node000003" class="node">
<title>Node3</title>
<g id="a_Node000003"><a xlink:title=" ">
<polygon fill="white" stroke="none" points="293,-265 216,-265 216,-216 293,-216 293,-265"/>
<text text-anchor="start" x="221.5" y="-252.5" font-family="Helvetica,sans-Serif" font-size="10.00">InteropServices</text>
<text text-anchor="start" x="253" y="-237.5" font-family="Helvetica,sans-Serif" font-size="10.00"> </text>
<text text-anchor="start" x="253" y="-222.5" font-family="Helvetica,sans-Serif" font-size="10.00"> </text>
<polygon fill="#666666" stroke="#666666" points="216.5,-247.5 216.5,-247.5 293.5,-247.5 293.5,-247.5 216.5,-247.5"/>
<polygon fill="#666666" stroke="#666666" points="216.5,-232.5 216.5,-232.5 293.5,-232.5 293.5,-232.5 216.5,-232.5"/>
<polygon fill="none" stroke="#666666" points="216,-216 216,-265 293,-265 293,-216 216,-216"/>
</a>
</g>
</g>
<!-- Node3&#45;&gt;Node1 -->
<g id="edge2_Node000001_Node000003" class="edge">
<title>Node3&#45;&gt;Node1</title>
<g id="a_edge2_Node000001_Node000003"><a xlink:title=" ">
<path fill="none" stroke="#63b8ff" d="M245.26,-215.77C241.39,-205.86 236.63,-193.62 231.58,-180.66"/>
<polygon fill="none" stroke="#63b8ff" points="231.44,-180.31 225.53,-176.17 227.08,-169.13 232.99,-173.26 231.44,-180.31"/>
</a>
</g>
<text text-anchor="middle" x="259.5" y="-190" font-family="Helvetica,sans-Serif" font-size="10.00" fill="grey"> &#45;swigCPtr</text>
</g>
</g>
</svg>
