<?xml version="1.0" encoding="UTF-8" standalone="no"?>
<!DOCTYPE svg PUBLIC "-//W3C//DTD SVG 1.1//EN"
 "http://www.w3.org/Graphics/SVG/1.1/DTD/svg11.dtd">
<!-- Generated by graphviz version 6.0.1 (20220911.1526)
 -->
<!-- Title: LlamaLibrary.FileWrapper.Save Pages: 1 -->
<svg width="508pt" height="64pt"
 viewBox="0.00 0.00 508.00 64.00" xmlns="http://www.w3.org/2000/svg" xmlns:xlink="http://www.w3.org/1999/xlink">
<g id="graph0" class="graph" transform="scale(1 1) rotate(0) translate(4 60)">
<title>LlamaLibrary.FileWrapper.Save</title>
<!-- Node1 -->
<g id="Node000001" class="node">
<title>Node1</title>
<g id="a_Node000001"><a xlink:title=" ">
<polygon fill="#999999" stroke="#666666" points="152,-37 0,-37 0,-18 152,-18 152,-37"/>
<text text-anchor="middle" x="76" y="-25" font-family="Helvetica,sans-Serif" font-size="10.00">LlamaLibrary.FileWrapper.Save</text>
</a>
</g>
</g>
<!-- Node2 -->
<g id="Node000002" class="node">
<title>Node2</title>
<g id="a_Node000002"><a xlink:href="class_llama_library_1_1libllama__lib_p_i_n_v_o_k_e.html#a690ee8b4e0e6562683a233fe443483a3" target="_top" xlink:title=" ">
<polygon fill="white" stroke="#666666" points="492,-56 196,-56 196,-37 492,-37 492,-56"/>
<text text-anchor="middle" x="344" y="-44" font-family="Helvetica,sans-Serif" font-size="10.00">LlamaLibrary.libllama_libPINVOKE.FileWrapper_Save__SWIG_1</text>
</a>
</g>
</g>
<!-- Node1&#45;&gt;Node2 -->
<g id="edge1_Node000001_Node000002" class="edge">
<title>Node1&#45;&gt;Node2</title>
<g id="a_edge1_Node000001_Node000002"><a xlink:title=" ">
<path fill="none" stroke="#63b8ff" d="M152.16,-32.87C167.11,-33.94 183.27,-35.09 199.64,-36.26"/>
<polygon fill="#63b8ff" stroke="#63b8ff" points="199.62,-39.77 209.85,-36.99 200.12,-32.79 199.62,-39.77"/>
</a>
</g>
</g>
<!-- Node3 -->
<g id="Node000003" class="node">
<title>Node3</title>
<g id="a_Node000003"><a xlink:href="class_llama_library_1_1libllama__lib_p_i_n_v_o_k_e_1_1_s_w_i_g_pending_exception.html#a2718a73540850b42db7c89e9be3519ec" target="_top" xlink:title=" ">
<polygon fill="white" stroke="#666666" points="500,-19 188,-19 188,0 500,0 500,-19"/>
<text text-anchor="middle" x="344" y="-7" font-family="Helvetica,sans-Serif" font-size="10.00">LlamaLibrary.libllama_libPINVOKE.SWIGPendingException.Retrieve</text>
</a>
</g>
</g>
<!-- Node1&#45;&gt;Node3 -->
<g id="edge2_Node000001_Node000003" class="edge">
<title>Node1&#45;&gt;Node3</title>
<g id="a_edge2_Node000001_Node000003"><a xlink:title=" ">
<path fill="none" stroke="#63b8ff" d="M152.16,-22.41C164.89,-21.55 178.5,-20.63 192.38,-19.69"/>
<polygon fill="#63b8ff" stroke="#63b8ff" points="192.77,-23.17 202.51,-19.01 192.3,-16.19 192.77,-23.17"/>
</a>
</g>
</g>
</g>
</svg>
