<?xml version="1.0" encoding="UTF-8" standalone="no"?>
<!DOCTYPE svg PUBLIC "-//W3C//DTD SVG 1.1//EN"
 "http://www.w3.org/Graphics/SVG/1.1/DTD/svg11.dtd">
<!-- Generated by graphviz version 6.0.1 (20220911.1526)
 -->
<!-- Title: LlamaLibrary.Strings.Add Pages: 1 -->
<svg width="310pt" height="64pt"
 viewBox="0.00 0.00 310.00 64.00" xmlns="http://www.w3.org/2000/svg" xmlns:xlink="http://www.w3.org/1999/xlink">
<g id="graph0" class="graph" transform="scale(1 1) rotate(0) translate(4 60)">
<title>LlamaLibrary.Strings.Add</title>
<!-- Node1 -->
<g id="Node000001" class="node">
<title>Node1</title>
<g id="a_Node000001"><a xlink:title=" ">
<polygon fill="#999999" stroke="#666666" points="302,-37 176,-37 176,-18 302,-18 302,-37"/>
<text text-anchor="middle" x="239" y="-25" font-family="Helvetica,sans-Serif" font-size="10.00">LlamaLibrary.Strings.Add</text>
</a>
</g>
</g>
<!-- Node2 -->
<g id="Node000002" class="node">
<title>Node2</title>
<g id="a_Node000002"><a xlink:href="class_llama_library_1_1_strings.html#a7cd7fea955e30d447c8ab402b82a6357" target="_top" xlink:title=" ">
<polygon fill="white" stroke="#666666" points="140,-56 0,-56 0,-37 140,-37 140,-56"/>
<text text-anchor="middle" x="70" y="-44" font-family="Helvetica,sans-Serif" font-size="10.00">LlamaLibrary.Strings.Strings</text>
</a>
</g>
</g>
<!-- Node1&#45;&gt;Node2 -->
<g id="edge1_Node000001_Node000002" class="edge">
<title>Node1&#45;&gt;Node2</title>
<g id="a_edge1_Node000001_Node000002"><a xlink:title=" ">
<path fill="none" stroke="#63b8ff" d="M165.64,-35.73C157.21,-36.69 148.64,-37.67 140.26,-38.62"/>
<polygon fill="#63b8ff" stroke="#63b8ff" points="166.28,-39.18 175.82,-34.57 165.48,-32.23 166.28,-39.18"/>
</a>
</g>
</g>
<!-- Node3 -->
<g id="Node000003" class="node">
<title>Node3</title>
<g id="a_Node000003"><a xlink:href="class_llama_library_1_1_strings.html#ab6c4d5feb6c87468196405bbe0a08b77" target="_top" xlink:title=" ">
<polygon fill="white" stroke="#666666" points="140,-19 0,-19 0,0 140,0 140,-19"/>
<text text-anchor="middle" x="70" y="-7" font-family="Helvetica,sans-Serif" font-size="10.00">LlamaLibrary.Strings.Strings</text>
</a>
</g>
</g>
<!-- Node1&#45;&gt;Node3 -->
<g id="edge2_Node000001_Node000003" class="edge">
<title>Node1&#45;&gt;Node3</title>
<g id="a_edge2_Node000001_Node000003"><a xlink:title=" ">
<path fill="none" stroke="#63b8ff" d="M165.64,-19.7C157.21,-18.79 148.64,-17.87 140.26,-16.96"/>
<polygon fill="#63b8ff" stroke="#63b8ff" points="165.5,-23.21 175.82,-20.8 166.25,-16.25 165.5,-23.21"/>
</a>
</g>
</g>
</g>
</svg>
