<?xml version="1.0" encoding="UTF-8" standalone="no"?>
<!DOCTYPE svg PUBLIC "-//W3C//DTD SVG 1.1//EN"
 "http://www.w3.org/Graphics/SVG/1.1/DTD/svg11.dtd">
<!-- Generated by graphviz version 6.0.1 (20220911.1526)
 -->
<!-- Title: LlamaLibrary.LlamaControlVectorLoadInfos.getCPtr Pages: 1 -->
<svg width="539pt" height="101pt"
 viewBox="0.00 0.00 539.00 101.00" xmlns="http://www.w3.org/2000/svg" xmlns:xlink="http://www.w3.org/1999/xlink">
<g id="graph0" class="graph" transform="scale(1 1) rotate(0) translate(4 97)">
<title>LlamaLibrary.LlamaControlVectorLoadInfos.getCPtr</title>
<!-- Node1 -->
<g id="Node000001" class="node">
<title>Node1</title>
<g id="a_Node000001"><a xlink:title=" ">
<polygon fill="#999999" stroke="#666666" points="531,-56 293,-56 293,-37 531,-37 531,-56"/>
<text text-anchor="middle" x="412" y="-44" font-family="Helvetica,sans-Serif" font-size="10.00">LlamaLibrary.LlamaControlVectorLoadInfos.getCPtr</text>
</a>
</g>
</g>
<!-- Node2 -->
<g id="Node000002" class="node">
<title>Node2</title>
<g id="a_Node000002"><a xlink:href="class_llama_library_1_1_llama_control_vector_load_infos.html#a1ff927baebca9535db0408ebb5ccee93" target="_top" xlink:title=" ">
<polygon fill="white" stroke="#666666" points="253.5,-93 3.5,-93 3.5,-74 253.5,-74 253.5,-93"/>
<text text-anchor="middle" x="128.5" y="-81" font-family="Helvetica,sans-Serif" font-size="10.00">LlamaLibrary.LlamaControlVectorLoadInfos.AddRange</text>
</a>
</g>
</g>
<!-- Node1&#45;&gt;Node2 -->
<g id="edge1_Node000001_Node000002" class="edge">
<title>Node1&#45;&gt;Node2</title>
<g id="a_edge1_Node000001_Node000002"><a xlink:title=" ">
<path fill="none" stroke="#63b8ff" d="M328.51,-57.34C288.5,-62.6 240.87,-68.86 202.24,-73.94"/>
<polygon fill="#63b8ff" stroke="#63b8ff" points="329.05,-60.8 338.51,-56.03 328.14,-53.86 329.05,-60.8"/>
</a>
</g>
</g>
<!-- Node3 -->
<g id="Node000003" class="node">
<title>Node3</title>
<g id="a_Node000003"><a xlink:href="class_llama_library_1_1_llama_control_vector_load_infos.html#a001bbeaa8244561f8a8a606683fab626" target="_top" xlink:title=" ">
<polygon fill="white" stroke="#666666" points="257,-56 0,-56 0,-37 257,-37 257,-56"/>
<text text-anchor="middle" x="128.5" y="-44" font-family="Helvetica,sans-Serif" font-size="10.00">LlamaLibrary.LlamaControlVectorLoadInfos.InsertRange</text>
</a>
</g>
</g>
<!-- Node1&#45;&gt;Node3 -->
<g id="edge2_Node000001_Node000003" class="edge">
<title>Node1&#45;&gt;Node3</title>
<g id="a_edge2_Node000001_Node000003"><a xlink:title=" ">
<path fill="none" stroke="#63b8ff" d="M282.62,-46.5C274.21,-46.5 265.74,-46.5 257.33,-46.5"/>
<polygon fill="#63b8ff" stroke="#63b8ff" points="282.84,-50 292.84,-46.5 282.84,-43 282.84,-50"/>
</a>
</g>
</g>
<!-- Node4 -->
<g id="Node000004" class="node">
<title>Node4</title>
<g id="a_Node000004"><a xlink:href="class_llama_library_1_1_llama_control_vector_load_infos.html#a39ea437d24223c9dbf5f956fbf465e87" target="_top" xlink:title=" ">
<polygon fill="white" stroke="#666666" points="252.5,-19 4.5,-19 4.5,0 252.5,0 252.5,-19"/>
<text text-anchor="middle" x="128.5" y="-7" font-family="Helvetica,sans-Serif" font-size="10.00">LlamaLibrary.LlamaControlVectorLoadInfos.SetRange</text>
</a>
</g>
</g>
<!-- Node1&#45;&gt;Node4 -->
<g id="edge3_Node000001_Node000004" class="edge">
<title>Node1&#45;&gt;Node4</title>
<g id="a_edge3_Node000001_Node000004"><a xlink:title=" ">
<path fill="none" stroke="#63b8ff" d="M328.51,-35.66C288.5,-30.4 240.87,-24.14 202.24,-19.06"/>
<polygon fill="#63b8ff" stroke="#63b8ff" points="328.14,-39.14 338.51,-36.97 329.05,-32.2 328.14,-39.14"/>
</a>
</g>
</g>
</g>
</svg>
