<?xml version="1.0" encoding="UTF-8" standalone="no"?>
<!DOCTYPE svg PUBLIC "-//W3C//DTD SVG 1.1//EN"
 "http://www.w3.org/Graphics/SVG/1.1/DTD/svg11.dtd">
<!-- Generated by graphviz version 6.0.1 (20220911.1526)
 -->
<!-- Title: MinimalExample.GenerateLine Pages: 1 -->
<svg width="850pt" height="138pt"
 viewBox="0.00 0.00 850.00 138.00" xmlns="http://www.w3.org/2000/svg" xmlns:xlink="http://www.w3.org/1999/xlink">
<g id="graph0" class="graph" transform="scale(1 1) rotate(0) translate(4 134)">
<title>MinimalExample.GenerateLine</title>
<!-- Node1 -->
<g id="Node000001" class="node">
<title>Node1</title>
<g id="a_Node000001"><a xlink:title="Coroutine to handle the asynchronous generation of text from the language model. Coroutines allow the...">
<polygon fill="#999999" stroke="#666666" points="149,-74 0,-74 0,-55 149,-55 149,-74"/>
<text text-anchor="middle" x="74.5" y="-62" font-family="Helvetica,sans-Serif" font-size="10.00">MinimalExample.GenerateLine</text>
</a>
</g>
</g>
<!-- Node2 -->
<g id="Node000002" class="node">
<title>Node2</title>
<g id="a_Node000002"><a xlink:href="class_model_controller.html#aab6e1807c1b6ee25a9a1d28028caec1a" target="_top" xlink:title="Static method to extract the first part of a string up to a specified stop text. If the stop text is ...">
<polygon fill="white" stroke="#666666" points="394,-130 238,-130 238,-111 394,-111 394,-130"/>
<text text-anchor="middle" x="316" y="-118" font-family="Helvetica,sans-Serif" font-size="10.00">ModelController.ExtractFirstPart</text>
</a>
</g>
</g>
<!-- Node1&#45;&gt;Node2 -->
<g id="edge1_Node000001_Node000002" class="edge">
<title>Node1&#45;&gt;Node2</title>
<g id="a_edge1_Node000001_Node000002"><a xlink:title=" ">
<path fill="none" stroke="#63b8ff" d="M98.6,-74.01C120.49,-82.66 154.48,-95.17 185,-102.5 198.77,-105.81 213.52,-108.57 227.96,-110.86"/>
<polygon fill="#63b8ff" stroke="#63b8ff" points="227.47,-114.33 237.89,-112.37 228.52,-107.41 227.47,-114.33"/>
</a>
</g>
</g>
<!-- Node3 -->
<g id="Node000003" class="node">
<title>Node3</title>
<g id="a_Node000003"><a xlink:href="class_llama_library_1_1_async_llama_infrence.html#ae80455f9b59fac152fa35e01470fd8d1" target="_top" xlink:title=" ">
<polygon fill="white" stroke="#666666" points="432.5,-93 199.5,-93 199.5,-74 432.5,-74 432.5,-93"/>
<text text-anchor="middle" x="316" y="-81" font-family="Helvetica,sans-Serif" font-size="10.00">LlamaLibrary.AsyncLlamaInfrence.GenerateAsync</text>
</a>
</g>
</g>
<!-- Node1&#45;&gt;Node3 -->
<g id="edge2_Node000001_Node000003" class="edge">
<title>Node1&#45;&gt;Node3</title>
<g id="a_edge2_Node000001_Node000003"><a xlink:title=" ">
<path fill="none" stroke="#63b8ff" d="M149.31,-70.36C161.91,-71.35 175.3,-72.42 188.81,-73.49"/>
<polygon fill="#63b8ff" stroke="#63b8ff" points="188.9,-77.01 199.14,-74.31 189.45,-70.03 188.9,-77.01"/>
</a>
</g>
</g>
<!-- Node6 -->
<g id="Node000006" class="node">
<title>Node6</title>
<g id="a_Node000006"><a xlink:href="class_llama_library_1_1_async_llama_infrence.html#a74d73cee873a2080edfa0d915f367d30" target="_top" xlink:title=" ">
<polygon fill="white" stroke="#666666" points="447,-56 185,-56 185,-37 447,-37 447,-56"/>
<text text-anchor="middle" x="316" y="-44" font-family="Helvetica,sans-Serif" font-size="10.00">LlamaLibrary.AsyncLlamaInfrence.GetGenerationResults</text>
</a>
</g>
</g>
<!-- Node1&#45;&gt;Node6 -->
<g id="edge5_Node000001_Node000006" class="edge">
<title>Node1&#45;&gt;Node6</title>
<g id="a_edge5_Node000001_Node000006"><a xlink:title=" ">
<path fill="none" stroke="#63b8ff" d="M149.31,-58.95C158.69,-58.25 168.52,-57.51 178.5,-56.76"/>
<polygon fill="#63b8ff" stroke="#63b8ff" points="178.81,-60.25 188.52,-56.01 178.29,-53.26 178.81,-60.25"/>
</a>
</g>
</g>
<!-- Node8 -->
<g id="Node000008" class="node">
<title>Node8</title>
<g id="a_Node000008"><a xlink:href="class_llama_library_1_1_async_llama_infrence.html#a66a87fa4eb3794b3069e7470a1be66ce" target="_top" xlink:title=" ">
<polygon fill="white" stroke="#666666" points="440,-19 192,-19 192,0 440,0 440,-19"/>
<text text-anchor="middle" x="316" y="-7" font-family="Helvetica,sans-Serif" font-size="10.00">LlamaLibrary.AsyncLlamaInfrence.IsGenerationReady</text>
</a>
</g>
</g>
<!-- Node1&#45;&gt;Node8 -->
<g id="edge7_Node000001_Node000008" class="edge">
<title>Node1&#45;&gt;Node8</title>
<g id="a_edge7_Node000001_Node000008"><a xlink:title=" ">
<path fill="none" stroke="#63b8ff" d="M100.37,-54.96C122.34,-46.86 155.39,-35.48 185,-28.5 197.65,-25.52 211.11,-22.92 224.39,-20.69"/>
<polygon fill="#63b8ff" stroke="#63b8ff" points="225.18,-24.11 234.49,-19.05 224.06,-17.2 225.18,-24.11"/>
</a>
</g>
</g>
<!-- Node4 -->
<g id="Node000004" class="node">
<title>Node4</title>
<g id="a_Node000004"><a xlink:href="class_llama_library_1_1libllama__lib_p_i_n_v_o_k_e.html#af55b1afde0c97563b362f3a6df224c4e" target="_top" xlink:title=" ">
<polygon fill="white" stroke="#666666" points="827.5,-130 497.5,-130 497.5,-111 827.5,-111 827.5,-130"/>
<text text-anchor="middle" x="662.5" y="-118" font-family="Helvetica,sans-Serif" font-size="10.00">LlamaLibrary.libllama_libPINVOKE.AsyncLlamaInfrence_GenerateAsync</text>
</a>
</g>
</g>
<!-- Node3&#45;&gt;Node4 -->
<g id="edge3_Node000003_Node000004" class="edge">
<title>Node3&#45;&gt;Node4</title>
<g id="a_edge3_Node000003_Node000004"><a xlink:title=" ">
<path fill="none" stroke="#63b8ff" d="M398.45,-93.04C425.36,-96.14 455.46,-99.54 483,-102.5 506.17,-104.99 531.04,-107.57 554.64,-109.96"/>
<polygon fill="#63b8ff" stroke="#63b8ff" points="554.37,-113.45 564.67,-110.98 555.07,-106.49 554.37,-113.45"/>
</a>
</g>
</g>
<!-- Node5 -->
<g id="Node000005" class="node">
<title>Node5</title>
<g id="a_Node000005"><a xlink:href="class_llama_library_1_1libllama__lib_p_i_n_v_o_k_e_1_1_s_w_i_g_pending_exception.html#a2718a73540850b42db7c89e9be3519ec" target="_top" xlink:title=" ">
<polygon fill="white" stroke="#666666" points="818.5,-93 506.5,-93 506.5,-74 818.5,-74 818.5,-93"/>
<text text-anchor="middle" x="662.5" y="-81" font-family="Helvetica,sans-Serif" font-size="10.00">LlamaLibrary.libllama_libPINVOKE.SWIGPendingException.Retrieve</text>
</a>
</g>
</g>
<!-- Node3&#45;&gt;Node5 -->
<g id="edge4_Node000003_Node000005" class="edge">
<title>Node3&#45;&gt;Node5</title>
<g id="a_edge4_Node000003_Node000005"><a xlink:title=" ">
<path fill="none" stroke="#63b8ff" d="M432.67,-83.5C453.09,-83.5 474.7,-83.5 496.17,-83.5"/>
<polygon fill="#63b8ff" stroke="#63b8ff" points="496.35,-87 506.35,-83.5 496.35,-80 496.35,-87"/>
</a>
</g>
</g>
<!-- Node7 -->
<g id="Node000007" class="node">
<title>Node7</title>
<g id="a_Node000007"><a xlink:href="class_llama_library_1_1libllama__lib_p_i_n_v_o_k_e.html#a2bdcb309c17221cae862eee0ad62128e" target="_top" xlink:title=" ">
<polygon fill="white" stroke="#666666" points="842,-56 483,-56 483,-37 842,-37 842,-56"/>
<text text-anchor="middle" x="662.5" y="-44" font-family="Helvetica,sans-Serif" font-size="10.00">LlamaLibrary.libllama_libPINVOKE.AsyncLlamaInfrence_GetGenerationResults</text>
</a>
</g>
</g>
<!-- Node6&#45;&gt;Node7 -->
<g id="edge6_Node000006_Node000007" class="edge">
<title>Node6&#45;&gt;Node7</title>
<g id="a_edge6_Node000006_Node000007"><a xlink:title=" ">
<path fill="none" stroke="#63b8ff" d="M447.24,-46.5C455.66,-46.5 464.23,-46.5 472.85,-46.5"/>
<polygon fill="#63b8ff" stroke="#63b8ff" points="472.99,-50 482.99,-46.5 472.99,-43 472.99,-50"/>
</a>
</g>
</g>
<!-- Node9 -->
<g id="Node000009" class="node">
<title>Node9</title>
<g id="a_Node000009"><a xlink:href="class_llama_library_1_1libllama__lib_p_i_n_v_o_k_e.html#ab50bb460cfde70a6f5eb120b81102ab9" target="_top" xlink:title=" ">
<polygon fill="white" stroke="#666666" points="835,-19 490,-19 490,0 835,0 835,-19"/>
<text text-anchor="middle" x="662.5" y="-7" font-family="Helvetica,sans-Serif" font-size="10.00">LlamaLibrary.libllama_libPINVOKE.AsyncLlamaInfrence_IsGenerationReady</text>
</a>
</g>
</g>
<!-- Node8&#45;&gt;Node9 -->
<g id="edge8_Node000008_Node000009" class="edge">
<title>Node8&#45;&gt;Node9</title>
<g id="a_edge8_Node000008_Node000009"><a xlink:title=" ">
<path fill="none" stroke="#63b8ff" d="M440.4,-9.5C453.25,-9.5 466.49,-9.5 479.8,-9.5"/>
<polygon fill="#63b8ff" stroke="#63b8ff" points="480,-13 490,-9.5 480,-6 480,-13"/>
</a>
</g>
</g>
</g>
</svg>
