<?xml version="1.0" encoding="UTF-8" standalone="no"?>
<!DOCTYPE svg PUBLIC "-//W3C//DTD SVG 1.1//EN"
 "http://www.w3.org/Graphics/SVG/1.1/DTD/svg11.dtd">
<!-- Generated by graphviz version 6.0.1 (20220911.1526)
 -->
<!-- Title: LlamaLibrary.LlamaControlVectorLoadInfos.Insert Pages: 1 -->
<svg width="599pt" height="101pt"
 viewBox="0.00 0.00 599.00 101.00" xmlns="http://www.w3.org/2000/svg" xmlns:xlink="http://www.w3.org/1999/xlink">
<g id="graph0" class="graph" transform="scale(1 1) rotate(0) translate(4 97)">
<title>LlamaLibrary.LlamaControlVectorLoadInfos.Insert</title>
<!-- Node1 -->
<g id="Node000001" class="node">
<title>Node1</title>
<g id="a_Node000001"><a xlink:title=" ">
<polygon fill="#999999" stroke="#666666" points="229,-56 0,-56 0,-37 229,-37 229,-56"/>
<text text-anchor="middle" x="114.5" y="-44" font-family="Helvetica,sans-Serif" font-size="10.00">LlamaLibrary.LlamaControlVectorLoadInfos.Insert</text>
</a>
</g>
</g>
<!-- Node2 -->
<g id="Node000002" class="node">
<title>Node2</title>
<g id="a_Node000002"><a xlink:href="$class_llama_library_1_1_s_w_i_g_t_y_p_e__p__llama__control__vector__load__info.html#a17cce04bff17da000653ab54f117a635" xlink:title=" ">
<polygon fill="white" stroke="#666666" points="583.5,-93 272.5,-93 272.5,-74 583.5,-74 583.5,-93"/>
<text text-anchor="middle" x="428" y="-81" font-family="Helvetica,sans-Serif" font-size="10.00">LlamaLibrary.SWIGTYPE_p_llama_control_vector_load_info.getCPtr</text>
</a>
</g>
</g>
<!-- Node1&#45;&gt;Node2 -->
<g id="edge1_Node000001_Node000002" class="edge">
<title>Node1&#45;&gt;Node2</title>
<g id="a_edge1_Node000001_Node000002"><a xlink:title=" ">
<path fill="none" stroke="#63b8ff" d="M188.47,-56.01C212.8,-59.12 240.06,-62.53 265,-65.5 285.74,-67.97 307.99,-70.51 329.15,-72.88"/>
<polygon fill="#63b8ff" stroke="#63b8ff" points="328.79,-76.36 339.11,-73.99 329.56,-69.4 328.79,-76.36"/>
</a>
</g>
</g>
<!-- Node3 -->
<g id="Node000003" class="node">
<title>Node3</title>
<g id="a_Node000003"><a xlink:href="$class_llama_library_1_1libllama__lib_p_i_n_v_o_k_e.html#a574283fbfa4214091634598d0e348904" xlink:title=" ">
<polygon fill="white" stroke="#666666" points="591,-56 265,-56 265,-37 591,-37 591,-56"/>
<text text-anchor="middle" x="428" y="-44" font-family="Helvetica,sans-Serif" font-size="10.00">LlamaLibrary.libllama_libPINVOKE.LlamaControlVectorLoadInfos_Insert</text>
</a>
</g>
</g>
<!-- Node1&#45;&gt;Node3 -->
<g id="edge2_Node000001_Node000003" class="edge">
<title>Node1&#45;&gt;Node3</title>
<g id="a_edge2_Node000001_Node000003"><a xlink:title=" ">
<path fill="none" stroke="#63b8ff" d="M229.28,-46.5C237.65,-46.5 246.19,-46.5 254.81,-46.5"/>
<polygon fill="#63b8ff" stroke="#63b8ff" points="254.94,-50 264.94,-46.5 254.94,-43 254.94,-50"/>
</a>
</g>
</g>
<!-- Node4 -->
<g id="Node000004" class="node">
<title>Node4</title>
<g id="a_Node000004"><a xlink:href="$class_llama_library_1_1libllama__lib_p_i_n_v_o_k_e_1_1_s_w_i_g_pending_exception.html#a2718a73540850b42db7c89e9be3519ec" xlink:title=" ">
<polygon fill="white" stroke="#666666" points="584,-19 272,-19 272,0 584,0 584,-19"/>
<text text-anchor="middle" x="428" y="-7" font-family="Helvetica,sans-Serif" font-size="10.00">LlamaLibrary.libllama_libPINVOKE.SWIGPendingException.Retrieve</text>
</a>
</g>
</g>
<!-- Node1&#45;&gt;Node4 -->
<g id="edge3_Node000001_Node000004" class="edge">
<title>Node1&#45;&gt;Node4</title>
<g id="a_edge3_Node000001_Node000004"><a xlink:title=" ">
<path fill="none" stroke="#63b8ff" d="M194.25,-36.97C217.07,-34.22 242.03,-31.23 265,-28.5 287.78,-25.79 312.37,-22.9 335.33,-20.2"/>
<polygon fill="#63b8ff" stroke="#63b8ff" points="335.89,-23.66 345.41,-19.02 335.07,-16.71 335.89,-23.66"/>
</a>
</g>
</g>
</g>
</svg>
