<?xml version="1.0" encoding="UTF-8" standalone="no"?>
<!DOCTYPE svg PUBLIC "-//W3C//DTD SVG 1.1//EN"
 "http://www.w3.org/Graphics/SVG/1.1/DTD/svg11.dtd">
<!-- Generated by graphviz version 6.0.1 (20220911.1526)
 -->
<!-- Title: LlamaLibrary.Strings.getitemcopy Pages: 1 -->
<svg width="518pt" height="64pt"
 viewBox="0.00 0.00 518.00 64.00" xmlns="http://www.w3.org/2000/svg" xmlns:xlink="http://www.w3.org/1999/xlink">
<g id="graph0" class="graph" transform="scale(1 1) rotate(0) translate(4 60)">
<title>LlamaLibrary.Strings.getitemcopy</title>
<!-- Node1 -->
<g id="Node000001" class="node">
<title>Node1</title>
<g id="a_Node000001"><a xlink:title=" ">
<polygon fill="#999999" stroke="#666666" points="162,-37 0,-37 0,-18 162,-18 162,-37"/>
<text text-anchor="middle" x="81" y="-25" font-family="Helvetica,sans-Serif" font-size="10.00">LlamaLibrary.Strings.getitemcopy</text>
</a>
</g>
</g>
<!-- Node2 -->
<g id="Node000002" class="node">
<title>Node2</title>
<g id="a_Node000002"><a xlink:href="class_llama_library_1_1libllama__lib_p_i_n_v_o_k_e_1_1_s_w_i_g_pending_exception.html#a2718a73540850b42db7c89e9be3519ec" target="_top" xlink:title=" ">
<polygon fill="white" stroke="#666666" points="510,-56 198,-56 198,-37 510,-37 510,-56"/>
<text text-anchor="middle" x="354" y="-44" font-family="Helvetica,sans-Serif" font-size="10.00">LlamaLibrary.libllama_libPINVOKE.SWIGPendingException.Retrieve</text>
</a>
</g>
</g>
<!-- Node1&#45;&gt;Node2 -->
<g id="edge1_Node000001_Node000002" class="edge">
<title>Node1&#45;&gt;Node2</title>
<g id="a_edge1_Node000001_Node000002"><a xlink:title=" ">
<path fill="none" stroke="#63b8ff" d="M162.21,-33.12C176.48,-34.12 191.75,-35.19 207.19,-36.28"/>
<polygon fill="#63b8ff" stroke="#63b8ff" points="207.14,-39.78 217.36,-36.99 207.63,-32.8 207.14,-39.78"/>
</a>
</g>
</g>
<!-- Node3 -->
<g id="Node000003" class="node">
<title>Node3</title>
<g id="a_Node000003"><a xlink:href="class_llama_library_1_1libllama__lib_p_i_n_v_o_k_e.html#ade604cae7d2397b3eea4827806905e1c" target="_top" xlink:title=" ">
<polygon fill="white" stroke="#666666" points="483.5,-19 224.5,-19 224.5,0 483.5,0 483.5,-19"/>
<text text-anchor="middle" x="354" y="-7" font-family="Helvetica,sans-Serif" font-size="10.00">LlamaLibrary.libllama_libPINVOKE.Strings_getitemcopy</text>
</a>
</g>
</g>
<!-- Node1&#45;&gt;Node3 -->
<g id="edge2_Node000001_Node000003" class="edge">
<title>Node1&#45;&gt;Node3</title>
<g id="a_edge2_Node000001_Node000003"><a xlink:title=" ">
<path fill="none" stroke="#63b8ff" d="M162.21,-22.17C178.58,-21.08 196.26,-19.91 214.01,-18.73"/>
<polygon fill="#63b8ff" stroke="#63b8ff" points="214.72,-22.19 224.46,-18.04 214.25,-15.21 214.72,-22.19"/>
</a>
</g>
</g>
</g>
</svg>
