<?xml version="1.0" encoding="UTF-8" standalone="no"?>
<!DOCTYPE svg PUBLIC "-//W3C//DTD SVG 1.1//EN"
 "http://www.w3.org/Graphics/SVG/1.1/DTD/svg11.dtd">
<!-- Generated by graphviz version 6.0.1 (20220911.1526)
 -->
<!-- Title: LlamaLibrary.AsyncLlamaInfrence Pages: 1 -->
<svg width="421pt" height="318pt"
 viewBox="0.00 0.00 421.00 318.00" xmlns="http://www.w3.org/2000/svg" xmlns:xlink="http://www.w3.org/1999/xlink">
<g id="graph0" class="graph" transform="scale(1 1) rotate(0) translate(4 314)">
<title>LlamaLibrary.AsyncLlamaInfrence</title>
<!-- Node1 -->
<g id="Node000001" class="node">
<title>Node1</title>
<g id="a_Node000001"><a xlink:title=" ">
<polygon fill="#999999" stroke="none" points="413,-214 0,-214 0,0 413,0 413,-214"/>
<text text-anchor="start" x="133.5" y="-202" font-family="Helvetica,sans-Serif" font-size="10.00">LlamaLibrary.AsyncLlamaInfrence</text>
<text text-anchor="start" x="4.5" y="-187" font-family="Helvetica,sans-Serif" font-size="10.00">+</text>
<text text-anchor="start" x="15.5" y="-187" font-family="Helvetica,sans-Serif" font-size="10.00">SWIGTYPE_p_AsyncLlamaInfrence__LlamaAsyncImpl pImpl</text>
<text text-anchor="start" x="5" y="-172" font-family="Helvetica,sans-Serif" font-size="10.00">#</text>
<text text-anchor="start" x="15.5" y="-172" font-family="Helvetica,sans-Serif" font-size="10.00">bool swigCMemOwn</text>
<text text-anchor="start" x="4.5" y="-157" font-family="Helvetica,sans-Serif" font-size="10.00">+</text>
<text text-anchor="start" x="15.5" y="-157" font-family="Helvetica,sans-Serif" font-size="10.00">AsyncLlamaInfrence()</text>
<text text-anchor="start" x="4.5" y="-142" font-family="Helvetica,sans-Serif" font-size="10.00">+</text>
<text text-anchor="start" x="15.5" y="-142" font-family="Helvetica,sans-Serif" font-size="10.00">void ClearAllTasks()</text>
<text text-anchor="start" x="4.5" y="-127" font-family="Helvetica,sans-Serif" font-size="10.00">+</text>
<text text-anchor="start" x="15.5" y="-127" font-family="Helvetica,sans-Serif" font-size="10.00">virtual void Dispose()</text>
<text text-anchor="start" x="4.5" y="-112" font-family="Helvetica,sans-Serif" font-size="10.00">+</text>
<text text-anchor="start" x="15.5" y="-112" font-family="Helvetica,sans-Serif" font-size="10.00">int GenerateAsync(string prompt)</text>
<text text-anchor="start" x="4.5" y="-97" font-family="Helvetica,sans-Serif" font-size="10.00">+</text>
<text text-anchor="start" x="15.5" y="-97" font-family="Helvetica,sans-Serif" font-size="10.00">string GetGenerationResults(int task_id)</text>
<text text-anchor="start" x="4.5" y="-82" font-family="Helvetica,sans-Serif" font-size="10.00">+</text>
<text text-anchor="start" x="15.5" y="-82" font-family="Helvetica,sans-Serif" font-size="10.00">bool GetSetupResults(int task_id)</text>
<text text-anchor="start" x="4.5" y="-67" font-family="Helvetica,sans-Serif" font-size="10.00">+</text>
<text text-anchor="start" x="15.5" y="-67" font-family="Helvetica,sans-Serif" font-size="10.00">bool IsGenerationReady(int task_id)</text>
<text text-anchor="start" x="4.5" y="-52" font-family="Helvetica,sans-Serif" font-size="10.00">+</text>
<text text-anchor="start" x="15.5" y="-52" font-family="Helvetica,sans-Serif" font-size="10.00">int SetupAsync(LoggingContext logging, gpt_params cfg_params)</text>
<text text-anchor="start" x="4.5" y="-37" font-family="Helvetica,sans-Serif" font-size="10.00">~</text>
<text text-anchor="start" x="15.5" y="-37" font-family="Helvetica,sans-Serif" font-size="10.00">AsyncLlamaInfrence(global::System.IntPtr cPtr, bool cMemoryOwn)</text>
<text text-anchor="start" x="4.5" y="-22" font-family="Helvetica,sans-Serif" font-size="10.00">~</text>
<text text-anchor="start" x="15.5" y="-22" font-family="Helvetica,sans-Serif" font-size="10.00">static global::System.Runtime.InteropServices.HandleRef getCPtr(AsyncLlamaInfrence obj)</text>
<text text-anchor="start" x="6" y="-7" font-family="Helvetica,sans-Serif" font-size="10.00">&#45;</text>
<text text-anchor="start" x="15.5" y="-7" font-family="Helvetica,sans-Serif" font-size="10.00">~AsyncLlamaInfrence()</text>
<polygon fill="#666666" stroke="#666666" points="0.5,-197 0.5,-197 413.5,-197 413.5,-197 0.5,-197"/>
<polygon fill="#666666" stroke="#666666" points="0.5,-167 0.5,-167 13.5,-167 13.5,-167 0.5,-167"/>
<polygon fill="#666666" stroke="#666666" points="13.5,-167 13.5,-167 413.5,-167 413.5,-167 13.5,-167"/>
<polygon fill="none" stroke="#666666" points="0,0 0,-214 413,-214 413,0 0,0"/>
</a>
</g>
</g>
<!-- Node2 -->
<g id="Node000002" class="node">
<title>Node2</title>
<g id="a_Node000002"><a xlink:title=" ">
<polygon fill="white" stroke="none" points="209.5,-310 83.5,-310 83.5,-261 209.5,-261 209.5,-310"/>
<text text-anchor="start" x="88.5" y="-297.5" font-family="Helvetica,sans-Serif" font-size="10.00">global::SystemIDisposable</text>
<text text-anchor="start" x="144.5" y="-282.5" font-family="Helvetica,sans-Serif" font-size="10.00"> </text>
<text text-anchor="start" x="144.5" y="-267.5" font-family="Helvetica,sans-Serif" font-size="10.00"> </text>
<polygon fill="#666666" stroke="#666666" points="83.5,-292.5 83.5,-292.5 209.5,-292.5 209.5,-292.5 83.5,-292.5"/>
<polygon fill="#666666" stroke="#666666" points="83.5,-277.5 83.5,-277.5 209.5,-277.5 209.5,-277.5 83.5,-277.5"/>
<polygon fill="none" stroke="#666666" points="83.5,-261 83.5,-310 209.5,-310 209.5,-261 83.5,-261"/>
</a>
</g>
</g>
<!-- Node2&#45;&gt;Node1 -->
<g id="edge1_Node000001_Node000002" class="edge">
<title>Node2&#45;&gt;Node1</title>
<g id="a_edge1_Node000001_Node000002"><a xlink:title=" ">
<path fill="none" stroke="#63b8ff" d="M157.92,-250.9C161.61,-240.05 165.91,-227.39 170.41,-214.18"/>
<polygon fill="none" stroke="#63b8ff" points="154.5,-250.1 154.59,-260.7 161.12,-252.36 154.5,-250.1"/>
</a>
</g>
</g>
<!-- Node3 -->
<g id="Node000003" class="node">
<title>Node3</title>
<g id="a_Node000003"><a xlink:title=" ">
<polygon fill="white" stroke="none" points="305,-310 228,-310 228,-261 305,-261 305,-310"/>
<text text-anchor="start" x="233.5" y="-297.5" font-family="Helvetica,sans-Serif" font-size="10.00">InteropServices</text>
<text text-anchor="start" x="265" y="-282.5" font-family="Helvetica,sans-Serif" font-size="10.00"> </text>
<text text-anchor="start" x="265" y="-267.5" font-family="Helvetica,sans-Serif" font-size="10.00"> </text>
<polygon fill="#666666" stroke="#666666" points="228.5,-292.5 228.5,-292.5 305.5,-292.5 305.5,-292.5 228.5,-292.5"/>
<polygon fill="#666666" stroke="#666666" points="228.5,-277.5 228.5,-277.5 305.5,-277.5 305.5,-277.5 228.5,-277.5"/>
<polygon fill="none" stroke="#666666" points="228,-261 228,-310 305,-310 305,-261 228,-261"/>
</a>
</g>
</g>
<!-- Node3&#45;&gt;Node1 -->
<g id="edge2_Node000001_Node000003" class="edge">
<title>Node3&#45;&gt;Node1</title>
<g id="a_edge2_Node000001_Node000003"><a xlink:title=" ">
<path fill="none" stroke="#63b8ff" d="M258.41,-260.7C255.09,-250.94 250.99,-238.88 246.56,-225.85"/>
<polygon fill="none" stroke="#63b8ff" points="246.46,-225.54 240.74,-221.14 242.59,-214.18 248.31,-218.57 246.46,-225.54"/>
</a>
</g>
<text text-anchor="middle" x="274.5" y="-235" font-family="Helvetica,sans-Serif" font-size="10.00" fill="grey"> &#45;swigCPtr</text>
</g>
</g>
</svg>
