<?xml version="1.0" encoding="UTF-8" standalone="no"?>
<!DOCTYPE svg PUBLIC "-//W3C//DTD SVG 1.1//EN"
 "http://www.w3.org/Graphics/SVG/1.1/DTD/svg11.dtd">
<!-- Generated by graphviz version 6.0.1 (20220911.1526)
 -->
<!-- Title: LlamaLibrary.StringsAndFloats.Insert Pages: 1 -->
<svg width="533pt" height="101pt"
 viewBox="0.00 0.00 533.00 101.00" xmlns="http://www.w3.org/2000/svg" xmlns:xlink="http://www.w3.org/1999/xlink">
<g id="graph0" class="graph" transform="scale(1 1) rotate(0) translate(4 97)">
<title>LlamaLibrary.StringsAndFloats.Insert</title>
<!-- Node1 -->
<g id="Node000001" class="node">
<title>Node1</title>
<g id="a_Node000001"><a xlink:title=" ">
<polygon fill="#999999" stroke="#666666" points="177,-56 0,-56 0,-37 177,-37 177,-56"/>
<text text-anchor="middle" x="88.5" y="-44" font-family="Helvetica,sans-Serif" font-size="10.00">LlamaLibrary.StringsAndFloats.Insert</text>
</a>
</g>
</g>
<!-- Node2 -->
<g id="Node000002" class="node">
<title>Node2</title>
<g id="a_Node000002"><a xlink:href="$class_llama_library_1_1_string_and_float.html#a3de7dd13f6e517516b6a9f4348c2eaed" xlink:title=" ">
<polygon fill="white" stroke="#666666" points="457,-93 281,-93 281,-74 457,-74 457,-93"/>
<text text-anchor="middle" x="369" y="-81" font-family="Helvetica,sans-Serif" font-size="10.00">LlamaLibrary.StringAndFloat.getCPtr</text>
</a>
</g>
</g>
<!-- Node1&#45;&gt;Node2 -->
<g id="edge1_Node000001_Node000002" class="edge">
<title>Node1&#45;&gt;Node2</title>
<g id="a_edge1_Node000001_Node000002"><a xlink:title=" ">
<path fill="none" stroke="#63b8ff" d="M148.49,-56.03C168.9,-59.21 191.93,-62.66 213,-65.5 231.75,-68.03 251.8,-70.52 271.05,-72.8"/>
<polygon fill="#63b8ff" stroke="#63b8ff" points="270.69,-76.28 281.03,-73.97 271.51,-69.33 270.69,-76.28"/>
</a>
</g>
</g>
<!-- Node3 -->
<g id="Node000003" class="node">
<title>Node3</title>
<g id="a_Node000003"><a xlink:href="$class_llama_library_1_1libllama__lib_p_i_n_v_o_k_e_1_1_s_w_i_g_pending_exception.html#a2718a73540850b42db7c89e9be3519ec" xlink:title=" ">
<polygon fill="white" stroke="#666666" points="525,-56 213,-56 213,-37 525,-37 525,-56"/>
<text text-anchor="middle" x="369" y="-44" font-family="Helvetica,sans-Serif" font-size="10.00">LlamaLibrary.libllama_libPINVOKE.SWIGPendingException.Retrieve</text>
</a>
</g>
</g>
<!-- Node1&#45;&gt;Node3 -->
<g id="edge2_Node000001_Node000003" class="edge">
<title>Node1&#45;&gt;Node3</title>
<g id="a_edge2_Node000001_Node000003"><a xlink:title=" ">
<path fill="none" stroke="#63b8ff" d="M177.24,-46.5C185.49,-46.5 194.02,-46.5 202.69,-46.5"/>
<polygon fill="#63b8ff" stroke="#63b8ff" points="202.93,-50 212.93,-46.5 202.93,-43 202.93,-50"/>
</a>
</g>
</g>
<!-- Node4 -->
<g id="Node000004" class="node">
<title>Node4</title>
<g id="a_Node000004"><a xlink:href="$class_llama_library_1_1libllama__lib_p_i_n_v_o_k_e.html#ae337825ef6bf31388d419e7f2b1c15c1" xlink:title=" ">
<polygon fill="white" stroke="#666666" points="506,-19 232,-19 232,0 506,0 506,-19"/>
<text text-anchor="middle" x="369" y="-7" font-family="Helvetica,sans-Serif" font-size="10.00">LlamaLibrary.libllama_libPINVOKE.StringsAndFloats_Insert</text>
</a>
</g>
</g>
<!-- Node1&#45;&gt;Node4 -->
<g id="edge3_Node000001_Node000004" class="edge">
<title>Node1&#45;&gt;Node4</title>
<g id="a_edge3_Node000001_Node000004"><a xlink:title=" ">
<path fill="none" stroke="#63b8ff" d="M152.92,-36.97C172.2,-34.15 193.46,-31.12 213,-28.5 233.88,-25.7 256.36,-22.85 277.55,-20.24"/>
<polygon fill="#63b8ff" stroke="#63b8ff" points="278.01,-23.71 287.51,-19.01 277.16,-16.76 278.01,-23.71"/>
</a>
</g>
</g>
</g>
</svg>
