<?xml version="1.0" encoding="UTF-8" standalone="no"?>
<!DOCTYPE svg PUBLIC "-//W3C//DTD SVG 1.1//EN"
 "http://www.w3.org/Graphics/SVG/1.1/DTD/svg11.dtd">
<!-- Generated by graphviz version 6.0.1 (20220911.1526)
 -->
<!-- Title: LlamaLibrary.FileWrapper Pages: 1 -->
<svg width="385pt" height="262pt"
 viewBox="0.00 0.00 385.00 262.00" xmlns="http://www.w3.org/2000/svg" xmlns:xlink="http://www.w3.org/1999/xlink">
<g id="graph0" class="graph" transform="scale(1 1) rotate(0) translate(4 258)">
<title>LlamaLibrary.FileWrapper</title>
<!-- Node1 -->
<g id="Node000001" class="node">
<title>Node1</title>
<g id="a_Node000001"><a xlink:title=" ">
<polygon fill="#999999" stroke="none" points="377,-169 0,-169 0,0 377,0 377,-169"/>
<text text-anchor="start" x="133" y="-156.5" font-family="Helvetica,sans-Serif" font-size="10.00">LlamaLibrary.FileWrapper</text>
<text text-anchor="start" x="5" y="-141.5" font-family="Helvetica,sans-Serif" font-size="10.00">#</text>
<text text-anchor="start" x="15.5" y="-141.5" font-family="Helvetica,sans-Serif" font-size="10.00">bool swigCMemOwn</text>
<text text-anchor="start" x="6" y="-126.5" font-family="Helvetica,sans-Serif" font-size="10.00">&#45;</text>
<text text-anchor="start" x="15.5" y="-126.5" font-family="Helvetica,sans-Serif" font-size="10.00">global::System.Runtime.InteropServices.HandleRef swigCPtr</text>
<text text-anchor="start" x="4.5" y="-111.5" font-family="Helvetica,sans-Serif" font-size="10.00">+</text>
<text text-anchor="start" x="15.5" y="-111.5" font-family="Helvetica,sans-Serif" font-size="10.00">virtual void Dispose()</text>
<text text-anchor="start" x="4.5" y="-96.5" font-family="Helvetica,sans-Serif" font-size="10.00">+</text>
<text text-anchor="start" x="15.5" y="-96.5" font-family="Helvetica,sans-Serif" font-size="10.00">FileWrapper()</text>
<text text-anchor="start" x="4.5" y="-81.5" font-family="Helvetica,sans-Serif" font-size="10.00">+</text>
<text text-anchor="start" x="15.5" y="-81.5" font-family="Helvetica,sans-Serif" font-size="10.00">static bool Save(byte[] data, int data_length, string path)</text>
<text text-anchor="start" x="4.5" y="-66.5" font-family="Helvetica,sans-Serif" font-size="10.00">+</text>
<text text-anchor="start" x="15.5" y="-66.5" font-family="Helvetica,sans-Serif" font-size="10.00">static bool Save(string data, string path)</text>
<text text-anchor="start" x="4.5" y="-51.5" font-family="Helvetica,sans-Serif" font-size="10.00">+</text>
<text text-anchor="start" x="15.5" y="-51.5" font-family="Helvetica,sans-Serif" font-size="10.00">static bool Save(string data, uint data_length, string path)</text>
<text text-anchor="start" x="4.5" y="-36.5" font-family="Helvetica,sans-Serif" font-size="10.00">~</text>
<text text-anchor="start" x="15.5" y="-36.5" font-family="Helvetica,sans-Serif" font-size="10.00">FileWrapper(global::System.IntPtr cPtr, bool cMemoryOwn)</text>
<text text-anchor="start" x="4.5" y="-21.5" font-family="Helvetica,sans-Serif" font-size="10.00">~</text>
<text text-anchor="start" x="15.5" y="-21.5" font-family="Helvetica,sans-Serif" font-size="10.00">static global::System.Runtime.InteropServices.HandleRef getCPtr(FileWrapper obj)</text>
<text text-anchor="start" x="6" y="-6.5" font-family="Helvetica,sans-Serif" font-size="10.00">&#45;</text>
<text text-anchor="start" x="15.5" y="-6.5" font-family="Helvetica,sans-Serif" font-size="10.00">~FileWrapper()</text>
<polygon fill="#666666" stroke="#666666" points="0.5,-151.5 0.5,-151.5 377.5,-151.5 377.5,-151.5 0.5,-151.5"/>
<polygon fill="#666666" stroke="#666666" points="0.5,-121.5 0.5,-121.5 13.5,-121.5 13.5,-121.5 0.5,-121.5"/>
<polygon fill="#666666" stroke="#666666" points="13.5,-121.5 13.5,-121.5 377.5,-121.5 377.5,-121.5 13.5,-121.5"/>
<polygon fill="none" stroke="#666666" points="0,0 0,-169 377,-169 377,0 0,0"/>
</a>
</g>
</g>
<!-- Node2 -->
<g id="Node000002" class="node">
<title>Node2</title>
<g id="a_Node000002"><a xlink:title=" ">
<polygon fill="white" stroke="none" points="251.5,-254 125.5,-254 125.5,-205 251.5,-205 251.5,-254"/>
<text text-anchor="start" x="130.5" y="-241.5" font-family="Helvetica,sans-Serif" font-size="10.00">global::SystemIDisposable</text>
<text text-anchor="start" x="186.5" y="-226.5" font-family="Helvetica,sans-Serif" font-size="10.00"> </text>
<text text-anchor="start" x="186.5" y="-211.5" font-family="Helvetica,sans-Serif" font-size="10.00"> </text>
<polygon fill="#666666" stroke="#666666" points="125.5,-236.5 125.5,-236.5 251.5,-236.5 251.5,-236.5 125.5,-236.5"/>
<polygon fill="#666666" stroke="#666666" points="125.5,-221.5 125.5,-221.5 251.5,-221.5 251.5,-221.5 125.5,-221.5"/>
<polygon fill="none" stroke="#666666" points="125.5,-205 125.5,-254 251.5,-254 251.5,-205 125.5,-205"/>
</a>
</g>
</g>
<!-- Node2&#45;&gt;Node1 -->
<g id="edge1_Node000001_Node000002" class="edge">
<title>Node2&#45;&gt;Node1</title>
<g id="a_edge1_Node000001_Node000002"><a xlink:title=" ">
<path fill="none" stroke="#63b8ff" d="M188.5,-194.72C188.5,-186.84 188.5,-178.1 188.5,-169.1"/>
<polygon fill="none" stroke="#63b8ff" points="185,-194.89 188.5,-204.89 192,-194.89 185,-194.89"/>
</a>
</g>
</g>
</g>
</svg>
