<?xml version="1.0" encoding="UTF-8" standalone="no"?>
<!DOCTYPE svg PUBLIC "-//W3C//DTD SVG 1.1//EN"
 "http://www.w3.org/Graphics/SVG/1.1/DTD/svg11.dtd">
<!-- Generated by graphviz version 6.0.1 (20220911.1526)
 -->
<!-- Title: ModelController.ModelController Pages: 1 -->
<svg width="803pt" height="249pt"
 viewBox="0.00 0.00 803.00 249.00" xmlns="http://www.w3.org/2000/svg" xmlns:xlink="http://www.w3.org/1999/xlink">
<g id="graph0" class="graph" transform="scale(1 1) rotate(0) translate(4 245)">
<title>ModelController.ModelController</title>
<!-- Node1 -->
<g id="Node000001" class="node">
<title>Node1</title>
<g id="a_Node000001"><a xlink:title="Constructor for initializing the ModelController with a binary asset. The constructor sets up the mod...">
<polygon fill="#999999" stroke="#666666" points="155,-185 0,-185 0,-166 155,-166 155,-185"/>
<text text-anchor="middle" x="77.5" y="-173" font-family="Helvetica,sans-Serif" font-size="10.00">ModelController.ModelController</text>
</a>
</g>
</g>
<!-- Node2 -->
<g id="Node000002" class="node">
<title>Node2</title>
<g id="a_Node000002"><a xlink:href="class_model_controller.html#aa55aede9a4107d8f32196d1237494749" target="_top" xlink:title="Static method to get the appropriate temporary file path based on the platform. This method returns a...">
<polygon fill="white" stroke="#666666" points="390.5,-241 243.5,-241 243.5,-222 390.5,-222 390.5,-241"/>
<text text-anchor="middle" x="317" y="-229" font-family="Helvetica,sans-Serif" font-size="10.00">ModelController.GetTempPath</text>
</a>
</g>
</g>
<!-- Node1&#45;&gt;Node2 -->
<g id="edge1_Node000001_Node000002" class="edge">
<title>Node1&#45;&gt;Node2</title>
<g id="a_edge1_Node000001_Node000002"><a xlink:title=" ">
<path fill="none" stroke="#63b8ff" d="M102.7,-185.11C125.23,-193.71 159.92,-206.08 191,-213.5 204.47,-216.72 218.9,-219.44 233.01,-221.72"/>
<polygon fill="#63b8ff" stroke="#63b8ff" points="232.78,-225.23 243.2,-223.3 233.85,-218.31 232.78,-225.23"/>
</a>
</g>
</g>
<!-- Node3 -->
<g id="Node000003" class="node">
<title>Node3</title>
<g id="a_Node000003"><a xlink:href="class_llama_library_1_1_callback_wrapper.html#a0411b900ff40cd0edb74d7465232241c" target="_top" xlink:title="Registers a token callback function for the Llama model.">
<polygon fill="white" stroke="#666666" points="443,-204 191,-204 191,-185 443,-185 443,-204"/>
<text text-anchor="middle" x="317" y="-192" font-family="Helvetica,sans-Serif" font-size="10.00">LlamaLibrary.CallbackWrapper.RegisterTokenCallback</text>
</a>
</g>
</g>
<!-- Node1&#45;&gt;Node3 -->
<g id="edge2_Node000001_Node000003" class="edge">
<title>Node1&#45;&gt;Node3</title>
<g id="a_edge2_Node000001_Node000003"><a xlink:title=" ">
<path fill="none" stroke="#63b8ff" d="M155.28,-181.64C165.55,-182.46 176.31,-183.32 187.17,-184.19"/>
<polygon fill="#63b8ff" stroke="#63b8ff" points="186.93,-187.69 197.17,-184.99 187.49,-180.71 186.93,-187.69"/>
</a>
</g>
</g>
<!-- Node6 -->
<g id="Node000006" class="node">
<title>Node6</title>
<g id="a_Node000006"><a xlink:href="class_llama_library_1_1_file_wrapper.html#adf3f8c97164d49fd35efa91f740005a4" target="_top" xlink:title=" ">
<polygon fill="white" stroke="#666666" points="393,-167 241,-167 241,-148 393,-148 393,-167"/>
<text text-anchor="middle" x="317" y="-155" font-family="Helvetica,sans-Serif" font-size="10.00">LlamaLibrary.FileWrapper.Save</text>
</a>
</g>
</g>
<!-- Node1&#45;&gt;Node6 -->
<g id="edge5_Node000001_Node000006" class="edge">
<title>Node1&#45;&gt;Node6</title>
<g id="a_edge5_Node000001_Node000006"><a xlink:title=" ">
<path fill="none" stroke="#63b8ff" d="M155.28,-169.68C179.34,-167.86 206.04,-165.83 230.66,-163.97"/>
<polygon fill="#63b8ff" stroke="#63b8ff" points="230.99,-167.45 240.7,-163.21 230.46,-160.47 230.99,-167.45"/>
</a>
</g>
</g>
<!-- Node9 -->
<g id="Node000009" class="node">
<title>Node9</title>
<g id="a_Node000009"><a xlink:href="class_llama_library_1_1_async_llama_infrence.html#a7cc223c9533da0f040cfd02d7f944cf6" target="_top" xlink:title=" ">
<polygon fill="white" stroke="#666666" points="426.5,-93 207.5,-93 207.5,-74 426.5,-74 426.5,-93"/>
<text text-anchor="middle" x="317" y="-81" font-family="Helvetica,sans-Serif" font-size="10.00">LlamaLibrary.AsyncLlamaInfrence.SetupAsync</text>
</a>
</g>
</g>
<!-- Node1&#45;&gt;Node9 -->
<g id="edge8_Node000001_Node000009" class="edge">
<title>Node1&#45;&gt;Node9</title>
<g id="a_edge8_Node000001_Node000009"><a xlink:title=" ">
<path fill="none" stroke="#63b8ff" d="M103.47,-165.83C146.25,-149.25 233.63,-115.41 281.96,-96.69"/>
<polygon fill="#63b8ff" stroke="#63b8ff" points="283.31,-99.92 291.37,-93.04 280.78,-93.39 283.31,-99.92"/>
</a>
</g>
</g>
<!-- Node4 -->
<g id="Node000004" class="node">
<title>Node4</title>
<g id="a_Node000004"><a xlink:href="class_llama_library_1_1_callback_wrapper.html#aef415ea31ed50c9275cd935e988f6573" target="_top" xlink:title="Sets the token callback function for the native library.">
<polygon fill="white" stroke="#666666" points="752.5,-241 521.5,-241 521.5,-222 752.5,-222 752.5,-241"/>
<text text-anchor="middle" x="637" y="-229" font-family="Helvetica,sans-Serif" font-size="10.00">LlamaLibrary.CallbackWrapper.SetTokenCallback</text>
</a>
</g>
</g>
<!-- Node3&#45;&gt;Node4 -->
<g id="edge3_Node000003_Node000004" class="edge">
<title>Node3&#45;&gt;Node4</title>
<g id="a_edge3_Node000003_Node000004"><a xlink:title=" ">
<path fill="none" stroke="#63b8ff" d="M398.25,-204.02C424.03,-207.07 452.72,-210.44 479,-213.5 499.49,-215.88 521.49,-218.42 542.34,-220.81"/>
<polygon fill="#63b8ff" stroke="#63b8ff" points="542.14,-224.31 552.48,-221.98 542.94,-217.36 542.14,-224.31"/>
</a>
</g>
</g>
<!-- Node5 -->
<g id="Node000005" class="node">
<title>Node5</title>
<g id="a_Node000005"><a xlink:href="class_llama_library_1_1_callback_wrapper.html#a9e8c964c9fc6be21114be42214490eb2" target="_top" xlink:title="Static method to handle the token callback from the native library.">
<polygon fill="white" stroke="#666666" points="758,-204 516,-204 516,-185 758,-185 758,-204"/>
<text text-anchor="middle" x="637" y="-192" font-family="Helvetica,sans-Serif" font-size="10.00">LlamaLibrary.CallbackWrapper.StaticTokenCallback</text>
</a>
</g>
</g>
<!-- Node3&#45;&gt;Node5 -->
<g id="edge4_Node000003_Node000005" class="edge">
<title>Node3&#45;&gt;Node5</title>
<g id="a_edge4_Node000003_Node000005"><a xlink:title=" ">
<path fill="none" stroke="#63b8ff" d="M443.23,-194.5C463.76,-194.5 485.09,-194.5 505.75,-194.5"/>
<polygon fill="#63b8ff" stroke="#63b8ff" points="505.83,-198 515.83,-194.5 505.83,-191 505.83,-198"/>
</a>
</g>
</g>
<!-- Node7 -->
<g id="Node000007" class="node">
<title>Node7</title>
<g id="a_Node000007"><a xlink:href="class_llama_library_1_1libllama__lib_p_i_n_v_o_k_e.html#a2e2f829d671969cd417008a77a3b7445" target="_top" xlink:title=" ">
<polygon fill="white" stroke="#666666" points="785,-167 489,-167 489,-148 785,-148 785,-167"/>
<text text-anchor="middle" x="637" y="-155" font-family="Helvetica,sans-Serif" font-size="10.00">LlamaLibrary.libllama_libPINVOKE.FileWrapper_Save__SWIG_0</text>
</a>
</g>
</g>
<!-- Node6&#45;&gt;Node7 -->
<g id="edge6_Node000006_Node000007" class="edge">
<title>Node6&#45;&gt;Node7</title>
<g id="a_edge6_Node000006_Node000007"><a xlink:title=" ">
<path fill="none" stroke="#63b8ff" d="M393.36,-157.5C419.1,-157.5 448.93,-157.5 478.69,-157.5"/>
<polygon fill="#63b8ff" stroke="#63b8ff" points="478.77,-161 488.77,-157.5 478.77,-154 478.77,-161"/>
</a>
</g>
</g>
<!-- Node8 -->
<g id="Node000008" class="node">
<title>Node8</title>
<g id="a_Node000008"><a xlink:href="class_llama_library_1_1libllama__lib_p_i_n_v_o_k_e_1_1_s_w_i_g_pending_exception.html#a2718a73540850b42db7c89e9be3519ec" target="_top" xlink:title=" ">
<polygon fill="white" stroke="#666666" points="793,-130 481,-130 481,-111 793,-111 793,-130"/>
<text text-anchor="middle" x="637" y="-118" font-family="Helvetica,sans-Serif" font-size="10.00">LlamaLibrary.libllama_libPINVOKE.SWIGPendingException.Retrieve</text>
</a>
</g>
</g>
<!-- Node6&#45;&gt;Node8 -->
<g id="edge7_Node000006_Node000008" class="edge">
<title>Node6&#45;&gt;Node8</title>
<g id="a_edge7_Node000006_Node000008"><a xlink:title=" ">
<path fill="none" stroke="#63b8ff" d="M393.36,-148.73C438.54,-143.47 496.32,-136.75 544.16,-131.19"/>
<polygon fill="#63b8ff" stroke="#63b8ff" points="544.68,-134.65 554.21,-130.02 543.87,-127.7 544.68,-134.65"/>
</a>
</g>
</g>
<!-- Node9&#45;&gt;Node8 -->
<g id="edge12_Node000009_Node000008" class="edge">
<title>Node9&#45;&gt;Node8</title>
<g id="a_edge12_Node000009_Node000008"><a xlink:title=" ">
<path fill="none" stroke="#63b8ff" d="M398.25,-93.02C424.03,-96.07 452.72,-99.44 479,-102.5 499.49,-104.88 521.49,-107.42 542.34,-109.81"/>
<polygon fill="#63b8ff" stroke="#63b8ff" points="542.14,-113.31 552.48,-110.98 542.94,-106.36 542.14,-113.31"/>
</a>
</g>
</g>
<!-- Node10 -->
<g id="Node000010" class="node">
<title>Node10</title>
<g id="a_Node000010"><a xlink:href="class_llama_library_1_1libllama__lib_p_i_n_v_o_k_e.html#a3e629604030c518ff63457e5c5d03455" target="_top" xlink:title=" ">
<polygon fill="white" stroke="#666666" points="795,-93 479,-93 479,-74 795,-74 795,-93"/>
<text text-anchor="middle" x="637" y="-81" font-family="Helvetica,sans-Serif" font-size="10.00">LlamaLibrary.libllama_libPINVOKE.AsyncLlamaInfrence_SetupAsync</text>
</a>
</g>
</g>
<!-- Node9&#45;&gt;Node10 -->
<g id="edge9_Node000009_Node000010" class="edge">
<title>Node9&#45;&gt;Node10</title>
<g id="a_edge9_Node000009_Node000010"><a xlink:title=" ">
<path fill="none" stroke="#63b8ff" d="M426.55,-83.5C440.16,-83.5 454.32,-83.5 468.57,-83.5"/>
<polygon fill="#63b8ff" stroke="#63b8ff" points="468.95,-87 478.95,-83.5 468.95,-80 468.95,-87"/>
</a>
</g>
</g>
<!-- Node11 -->
<g id="Node000011" class="node">
<title>Node11</title>
<g id="a_Node000011"><a xlink:href="class_llama_library_1_1gpt__params.html#a352b93d1ce986af8f726ebc0643f2825" target="_top" xlink:title=" ">
<polygon fill="white" stroke="#666666" points="718,-56 556,-56 556,-37 718,-37 718,-56"/>
<text text-anchor="middle" x="637" y="-44" font-family="Helvetica,sans-Serif" font-size="10.00">LlamaLibrary.gpt_params.getCPtr</text>
</a>
</g>
</g>
<!-- Node9&#45;&gt;Node11 -->
<g id="edge10_Node000009_Node000011" class="edge">
<title>Node9&#45;&gt;Node11</title>
<g id="a_edge10_Node000009_Node000011"><a xlink:title=" ">
<path fill="none" stroke="#63b8ff" d="M399.89,-73.97C444.55,-68.78 499.93,-62.33 545.82,-56.99"/>
<polygon fill="#63b8ff" stroke="#63b8ff" points="546.23,-60.47 555.76,-55.84 545.42,-53.52 546.23,-60.47"/>
</a>
</g>
</g>
<!-- Node12 -->
<g id="Node000012" class="node">
<title>Node12</title>
<g id="a_Node000012"><a xlink:href="class_llama_library_1_1_logging_context.html#a8af2a946a9ffc74d4f17f897e781437d" target="_top" xlink:title=" ">
<polygon fill="white" stroke="#666666" points="726.5,-19 547.5,-19 547.5,0 726.5,0 726.5,-19"/>
<text text-anchor="middle" x="637" y="-7" font-family="Helvetica,sans-Serif" font-size="10.00">LlamaLibrary.LoggingContext.getCPtr</text>
</a>
</g>
</g>
<!-- Node9&#45;&gt;Node12 -->
<g id="edge11_Node000009_Node000012" class="edge">
<title>Node9&#45;&gt;Node12</title>
<g id="a_edge11_Node000009_Node000012"><a xlink:title=" ">
<path fill="none" stroke="#63b8ff" d="M341.02,-73.93C371.88,-61.49 428.61,-40.02 479,-28.5 497.69,-24.23 517.86,-20.87 537.32,-18.25"/>
<polygon fill="#63b8ff" stroke="#63b8ff" points="537.95,-21.7 547.42,-16.94 537.06,-14.75 537.95,-21.7"/>
</a>
</g>
</g>
</g>
</svg>
