<?xml version="1.0" encoding="UTF-8" standalone="no"?>
<!DOCTYPE svg PUBLIC "-//W3C//DTD SVG 1.1//EN"
 "http://www.w3.org/Graphics/SVG/1.1/DTD/svg11.dtd">
<!-- Generated by graphviz version 6.0.1 (20220911.1526)
 -->
<!-- Title: LlamaLibrary.libllama_libPINVOKE.delete_Strings Pages: 1 -->
<svg width="602pt" height="27pt"
 viewBox="0.00 0.00 602.00 27.00" xmlns="http://www.w3.org/2000/svg" xmlns:xlink="http://www.w3.org/1999/xlink">
<g id="graph0" class="graph" transform="scale(1 1) rotate(0) translate(4 23)">
<title>LlamaLibrary.libllama_libPINVOKE.delete_Strings</title>
<!-- Node1 -->
<g id="Node000001" class="node">
<title>Node1</title>
<g id="a_Node000001"><a xlink:title=" ">
<polygon fill="#999999" stroke="#666666" points="594,-19 362,-19 362,0 594,0 594,-19"/>
<text text-anchor="middle" x="478" y="-7" font-family="Helvetica,sans-Serif" font-size="10.00">LlamaLibrary.libllama_libPINVOKE.delete_Strings</text>
</a>
</g>
</g>
<!-- Node2 -->
<g id="Node000002" class="node">
<title>Node2</title>
<g id="a_Node000002"><a xlink:href="$class_llama_library_1_1_strings.html#a2ff4b92d50b021bac8292092646185d6" xlink:title=" ">
<polygon fill="white" stroke="#666666" points="326,-19 182,-19 182,0 326,0 326,-19"/>
<text text-anchor="middle" x="254" y="-7" font-family="Helvetica,sans-Serif" font-size="10.00">LlamaLibrary.Strings.Dispose</text>
</a>
</g>
</g>
<!-- Node1&#45;&gt;Node2 -->
<g id="edge1_Node000001_Node000002" class="edge">
<title>Node1&#45;&gt;Node2</title>
<g id="a_edge1_Node000001_Node000002"><a xlink:title=" ">
<path fill="none" stroke="#63b8ff" d="M351.56,-9.5C342.89,-9.5 334.34,-9.5 326.13,-9.5"/>
<polygon fill="#63b8ff" stroke="#63b8ff" points="351.77,-13 361.77,-9.5 351.77,-6 351.77,-13"/>
</a>
</g>
</g>
<!-- Node3 -->
<g id="Node000003" class="node">
<title>Node3</title>
<g id="a_Node000003"><a xlink:href="$class_llama_library_1_1_strings.html#a7ae21ff4d8ba24b21b00cfd39ca110d7" xlink:title=" ">
<polygon fill="white" stroke="#666666" points="146,-19 0,-19 0,0 146,0 146,-19"/>
<text text-anchor="middle" x="73" y="-7" font-family="Helvetica,sans-Serif" font-size="10.00">LlamaLibrary.Strings.~Strings</text>
</a>
</g>
</g>
<!-- Node2&#45;&gt;Node3 -->
<g id="edge2_Node000002_Node000003" class="edge">
<title>Node2&#45;&gt;Node3</title>
<g id="a_edge2_Node000002_Node000003"><a xlink:title=" ">
<path fill="none" stroke="#63b8ff" d="M171.94,-9.5C163.32,-9.5 154.6,-9.5 146.09,-9.5"/>
<polygon fill="#63b8ff" stroke="#63b8ff" points="172,-13 182,-9.5 172,-6 172,-13"/>
</a>
</g>
</g>
</g>
</svg>
