<?xml version="1.0" encoding="UTF-8" standalone="no"?>
<!DOCTYPE svg PUBLIC "-//W3C//DTD SVG 1.1//EN"
 "http://www.w3.org/Graphics/SVG/1.1/DTD/svg11.dtd">
<!-- Generated by graphviz version 6.0.1 (20220911.1526)
 -->
<!-- Title: LlamaLibrary.CallbackWrapper.RegisterLogCallback Pages: 1 -->
<svg width="517pt" height="64pt"
 viewBox="0.00 0.00 517.00 64.00" xmlns="http://www.w3.org/2000/svg" xmlns:xlink="http://www.w3.org/1999/xlink">
<g id="graph0" class="graph" transform="scale(1 1) rotate(0) translate(4 60)">
<title>LlamaLibrary.CallbackWrapper.RegisterLogCallback</title>
<!-- Node1 -->
<g id="Node000001" class="node">
<title>Node1</title>
<g id="a_Node000001"><a xlink:title="Registers a log callback function for the Llama model.">
<polygon fill="#999999" stroke="#666666" points="242,-37 0,-37 0,-18 242,-18 242,-37"/>
<text text-anchor="middle" x="121" y="-25" font-family="Helvetica,sans-Serif" font-size="10.00">LlamaLibrary.CallbackWrapper.RegisterLogCallback</text>
</a>
</g>
</g>
<!-- Node2 -->
<g id="Node000002" class="node">
<title>Node2</title>
<g id="a_Node000002"><a xlink:href="class_llama_library_1_1_callback_wrapper.html#ac701bd4b9a9c659277593ed2bfbf2267" target="_top" xlink:title="Sets the log callback function for the native library.">
<polygon fill="white" stroke="#666666" points="504,-56 283,-56 283,-37 504,-37 504,-56"/>
<text text-anchor="middle" x="393.5" y="-44" font-family="Helvetica,sans-Serif" font-size="10.00">LlamaLibrary.CallbackWrapper.SetLogCallback</text>
</a>
</g>
</g>
<!-- Node1&#45;&gt;Node2 -->
<g id="edge1_Node000001_Node000002" class="edge">
<title>Node1&#45;&gt;Node2</title>
<g id="a_edge1_Node000001_Node000002"><a xlink:title=" ">
<path fill="none" stroke="#63b8ff" d="M242.22,-35.94C252.38,-36.66 262.65,-37.38 272.81,-38.09"/>
<polygon fill="#63b8ff" stroke="#63b8ff" points="272.7,-41.59 282.92,-38.8 273.19,-34.61 272.7,-41.59"/>
</a>
</g>
</g>
<!-- Node3 -->
<g id="Node000003" class="node">
<title>Node3</title>
<g id="a_Node000003"><a xlink:href="class_llama_library_1_1_callback_wrapper.html#a6bd607fe69c92146a8f31cb3a63055d6" target="_top" xlink:title="Static method to handle the log callback from the native library.">
<polygon fill="white" stroke="#666666" points="509,-19 278,-19 278,0 509,0 509,-19"/>
<text text-anchor="middle" x="393.5" y="-7" font-family="Helvetica,sans-Serif" font-size="10.00">LlamaLibrary.CallbackWrapper.StaticLogCallback</text>
</a>
</g>
</g>
<!-- Node1&#45;&gt;Node3 -->
<g id="edge2_Node000001_Node000003" class="edge">
<title>Node1&#45;&gt;Node3</title>
<g id="a_edge2_Node000001_Node000003"><a xlink:title=" ">
<path fill="none" stroke="#63b8ff" d="M242.22,-19.5C250.74,-18.93 259.34,-18.36 267.88,-17.79"/>
<polygon fill="#63b8ff" stroke="#63b8ff" points="268.13,-21.28 277.88,-17.13 267.67,-14.3 268.13,-21.28"/>
</a>
</g>
</g>
</g>
</svg>
