<?xml version="1.0" encoding="UTF-8" standalone="no"?>
<!DOCTYPE svg PUBLIC "-//W3C//DTD SVG 1.1//EN"
 "http://www.w3.org/Graphics/SVG/1.1/DTD/svg11.dtd">
<!-- Generated by graphviz version 6.0.1 (20220911.1526)
 -->
<!-- Title: Assets.StyledLines.Runtime.UIHelpers.PrintStopwatchScore.OnDestroy Pages: 1 -->
<svg width="753pt" height="64pt"
 viewBox="0.00 0.00 753.00 64.00" xmlns="http://www.w3.org/2000/svg" xmlns:xlink="http://www.w3.org/1999/xlink">
<g id="graph0" class="graph" transform="scale(1 1) rotate(0) translate(4 60)">
<title>Assets.StyledLines.Runtime.UIHelpers.PrintStopwatchScore.OnDestroy</title>
<!-- Node1 -->
<g id="Node000001" class="node">
<title>Node1</title>
<g id="a_Node000001"><a xlink:title=" ">
<polygon fill="#999999" stroke="#666666" points="329,-37 0,-37 0,-18 329,-18 329,-37"/>
<text text-anchor="middle" x="164.5" y="-25" font-family="Helvetica,sans-Serif" font-size="10.00">Assets.StyledLines.Runtime.UIHelpers.PrintStopwatchScore.OnDestroy</text>
</a>
</g>
</g>
<!-- Node2 -->
<g id="Node000002" class="node">
<title>Node2</title>
<g id="a_Node000002"><a xlink:href="$class_assets_1_1_styled_lines_1_1_runtime_1_1_u_i_helpers_1_1_print_stopwatch_score.html#a2794b1a11a04b3607bd1d8a5094e6088" xlink:title=" ">
<polygon fill="white" stroke="#666666" points="745,-56 365,-56 365,-37 745,-37 745,-56"/>
<text text-anchor="middle" x="555" y="-44" font-family="Helvetica,sans-Serif" font-size="10.00">Assets.StyledLines.Runtime.UIHelpers.PrintStopwatchScore.OnStateChangedDone</text>
</a>
</g>
</g>
<!-- Node1&#45;&gt;Node2 -->
<g id="edge1_Node000001_Node000002" class="edge">
<title>Node1&#45;&gt;Node2</title>
<g id="a_edge1_Node000001_Node000002"><a xlink:title=" ">
<path fill="none" stroke="#63b8ff" d="M329.13,-35.5C337.63,-35.92 346.2,-36.34 354.79,-36.76"/>
<polygon fill="#63b8ff" stroke="#63b8ff" points="354.72,-40.26 364.88,-37.25 355.06,-33.27 354.72,-40.26"/>
</a>
</g>
</g>
<!-- Node3 -->
<g id="Node000003" class="node">
<title>Node3</title>
<g id="a_Node000003"><a xlink:href="$class_assets_1_1_styled_lines_1_1_runtime_1_1_u_i_helpers_1_1_print_stopwatch_score.html#a582441b73d44bd29584cb604d8e489d6" xlink:title=" ">
<polygon fill="white" stroke="#666666" points="744,-19 366,-19 366,0 744,0 744,-19"/>
<text text-anchor="middle" x="555" y="-7" font-family="Helvetica,sans-Serif" font-size="10.00">Assets.StyledLines.Runtime.UIHelpers.PrintStopwatchScore.OnStateChangedStart</text>
</a>
</g>
</g>
<!-- Node1&#45;&gt;Node3 -->
<g id="edge2_Node000001_Node000003" class="edge">
<title>Node1&#45;&gt;Node3</title>
<g id="a_edge2_Node000001_Node000003"><a xlink:title=" ">
<path fill="none" stroke="#63b8ff" d="M329.13,-19.92C337.95,-19.51 346.85,-19.1 355.76,-18.68"/>
<polygon fill="#63b8ff" stroke="#63b8ff" points="355.99,-22.18 365.82,-18.22 355.67,-15.19 355.99,-22.18"/>
</a>
</g>
</g>
</g>
</svg>
