<?xml version="1.0" encoding="UTF-8" standalone="no"?>
<!DOCTYPE svg PUBLIC "-//W3C//DTD SVG 1.1//EN"
 "http://www.w3.org/Graphics/SVG/1.1/DTD/svg11.dtd">
<!-- Generated by graphviz version 6.0.1 (20220911.1526)
 -->
<!-- Title: DialogManager.ParseDialog Pages: 1 -->
<svg width="696pt" height="64pt"
 viewBox="0.00 0.00 696.00 64.00" xmlns="http://www.w3.org/2000/svg" xmlns:xlink="http://www.w3.org/1999/xlink">
<g id="graph0" class="graph" transform="scale(1 1) rotate(0) translate(4 60)">
<title>DialogManager.ParseDialog</title>
<!-- Node1 -->
<g id="Node000001" class="node">
<title>Node1</title>
<g id="a_Node000001"><a xlink:title="Parses the dialog text into individual lines based on a specific format.">
<polygon fill="#999999" stroke="#666666" points="688,-37 551,-37 551,-18 688,-18 688,-37"/>
<text text-anchor="middle" x="619.5" y="-25" font-family="Helvetica,sans-Serif" font-size="10.00">DialogManager.ParseDialog</text>
</a>
</g>
</g>
<!-- Node2 -->
<g id="Node000002" class="node">
<title>Node2</title>
<g id="a_Node000002"><a xlink:href="class_dialog_manager.html#ab0c342d16b660dc18f0b066a8dd3c832" target="_top" xlink:title="Re&#45;parses the dialog and styles when the dialog text changes.">
<polygon fill="white" stroke="#666666" points="515,-56 323,-56 323,-37 515,-37 515,-56"/>
<text text-anchor="middle" x="419" y="-44" font-family="Helvetica,sans-Serif" font-size="10.00">DialogManager.ReparseDialogAndStyles</text>
</a>
</g>
</g>
<!-- Node1&#45;&gt;Node2 -->
<g id="edge1_Node000001_Node000002" class="edge">
<title>Node1&#45;&gt;Node2</title>
<g id="a_edge1_Node000001_Node000002"><a xlink:title=" ">
<path fill="none" stroke="#63b8ff" d="M540.67,-34.95C532.31,-35.75 523.74,-36.57 515.21,-37.39"/>
<polygon fill="#63b8ff" stroke="#63b8ff" points="541.12,-38.42 550.74,-33.99 540.45,-31.45 541.12,-38.42"/>
</a>
</g>
</g>
<!-- Node4 -->
<g id="Node000004" class="node">
<title>Node4</title>
<g id="a_Node000004"><a xlink:href="class_dialog_manager.html#a03c8a9834097fe6f3c636076a97563c8" target="_top" xlink:title="Called when the script starts; initializes the model controller, parses the dialog,...">
<polygon fill="white" stroke="#666666" points="471.5,-19 366.5,-19 366.5,0 471.5,0 471.5,-19"/>
<text text-anchor="middle" x="419" y="-7" font-family="Helvetica,sans-Serif" font-size="10.00">DialogManager.Start</text>
</a>
</g>
</g>
<!-- Node1&#45;&gt;Node4 -->
<g id="edge3_Node000001_Node000004" class="edge">
<title>Node1&#45;&gt;Node4</title>
<g id="a_edge3_Node000001_Node000004"><a xlink:title=" ">
<path fill="none" stroke="#63b8ff" d="M540.61,-20.44C517.51,-18.34 492.79,-16.1 471.79,-14.2"/>
<polygon fill="#63b8ff" stroke="#63b8ff" points="540.47,-23.94 550.74,-21.36 541.1,-16.97 540.47,-23.94"/>
</a>
</g>
</g>
<!-- Node3 -->
<g id="Node000003" class="node">
<title>Node3</title>
<g id="a_Node000003"><a xlink:href="class_dialog_text_and_character_styles_resetter.html#a5f0aa178e92573f0a80bfb50548010e2" target="_top" xlink:title=" ">
<polygon fill="white" stroke="#666666" points="287,-56 0,-56 0,-37 287,-37 287,-56"/>
<text text-anchor="middle" x="143.5" y="-44" font-family="Helvetica,sans-Serif" font-size="10.00">DialogTextAndCharacterStylesResetter.ResetStylesAndDialog</text>
</a>
</g>
</g>
<!-- Node2&#45;&gt;Node3 -->
<g id="edge2_Node000002_Node000003" class="edge">
<title>Node2&#45;&gt;Node3</title>
<g id="a_edge2_Node000002_Node000003"><a xlink:title=" ">
<path fill="none" stroke="#63b8ff" d="M312.6,-46.5C304.22,-46.5 295.68,-46.5 287.11,-46.5"/>
<polygon fill="#63b8ff" stroke="#63b8ff" points="312.73,-50 322.73,-46.5 312.73,-43 312.73,-50"/>
</a>
</g>
</g>
</g>
</svg>
