<?xml version="1.0" encoding="UTF-8" standalone="no"?>
<!DOCTYPE svg PUBLIC "-//W3C//DTD SVG 1.1//EN"
 "http://www.w3.org/Graphics/SVG/1.1/DTD/svg11.dtd">
<!-- Generated by graphviz version 6.0.1 (20220911.1526)
 -->
<!-- Title: Assets.StyledLines.Runtime.UIHelpers.PrintGeneratedText Pages: 1 -->
<svg width="274pt" height="187pt"
 viewBox="0.00 0.00 274.00 187.00" xmlns="http://www.w3.org/2000/svg" xmlns:xlink="http://www.w3.org/1999/xlink">
<g id="graph0" class="graph" transform="scale(1 1) rotate(0) translate(4 183)">
<title>Assets.StyledLines.Runtime.UIHelpers.PrintGeneratedText</title>
<!-- Node1 -->
<g id="Node000001" class="node">
<title>Node1</title>
<g id="a_Node000001"><a xlink:title=" ">
<polygon fill="#999999" stroke="none" points="266,-94 0,-94 0,0 266,0 266,-94"/>
<text text-anchor="start" x="5" y="-82" font-family="Helvetica,sans-Serif" font-size="10.00">Assets.StyledLines.Runtime.UIHelpers.PrintGeneratedText</text>
<text text-anchor="start" x="29.5" y="-67" font-family="Helvetica,sans-Serif" font-size="10.00">+</text>
<text text-anchor="start" x="66" y="-67" font-family="Helvetica,sans-Serif" font-size="10.00">RunModelAsync StateController</text>
<text text-anchor="start" x="29.5" y="-52" font-family="Helvetica,sans-Serif" font-size="10.00">+</text>
<text text-anchor="start" x="66" y="-52" font-family="Helvetica,sans-Serif" font-size="10.00">TMP_Text UiObject</text>
<text text-anchor="start" x="31" y="-37" font-family="Helvetica,sans-Serif" font-size="10.00">&#45;</text>
<text text-anchor="start" x="66" y="-37" font-family="Helvetica,sans-Serif" font-size="10.00">void OnDestroy()</text>
<text text-anchor="start" x="31" y="-22" font-family="Helvetica,sans-Serif" font-size="10.00">&#45;</text>
<text text-anchor="start" x="66" y="-22" font-family="Helvetica,sans-Serif" font-size="10.00">void OnStateChanged(string text)</text>
<text text-anchor="start" x="31" y="-7" font-family="Helvetica,sans-Serif" font-size="10.00">&#45;</text>
<text text-anchor="start" x="66" y="-7" font-family="Helvetica,sans-Serif" font-size="10.00">void Start()</text>
<polygon fill="#666666" stroke="#666666" points="0,-77 0,-77 266,-77 266,-77 0,-77"/>
<polygon fill="#666666" stroke="#666666" points="0,-47 0,-47 64,-47 64,-47 0,-47"/>
<polygon fill="#666666" stroke="#666666" points="64,-47 64,-47 266,-47 266,-47 64,-47"/>
<polygon fill="none" stroke="#666666" points="0,0 0,-94 266,-94 266,0 0,0"/>
</a>
</g>
</g>
<!-- Node2 -->
<g id="Node000002" class="node">
<title>Node2</title>
<g id="a_Node000002"><a xlink:title=" ">
<polygon fill="white" stroke="none" points="171.5,-179 94.5,-179 94.5,-130 171.5,-130 171.5,-179"/>
<text text-anchor="start" x="100" y="-166.5" font-family="Helvetica,sans-Serif" font-size="10.00">MonoBehaviour</text>
<text text-anchor="start" x="131.5" y="-151.5" font-family="Helvetica,sans-Serif" font-size="10.00"> </text>
<text text-anchor="start" x="131.5" y="-136.5" font-family="Helvetica,sans-Serif" font-size="10.00"> </text>
<polygon fill="#666666" stroke="#666666" points="95,-161.5 95,-161.5 172,-161.5 172,-161.5 95,-161.5"/>
<polygon fill="#666666" stroke="#666666" points="95,-146.5 95,-146.5 172,-146.5 172,-146.5 95,-146.5"/>
<polygon fill="none" stroke="#666666" points="94.5,-130 94.5,-179 171.5,-179 171.5,-130 94.5,-130"/>
</a>
</g>
</g>
<!-- Node2&#45;&gt;Node1 -->
<g id="edge1_Node000001_Node000002" class="edge">
<title>Node2&#45;&gt;Node1</title>
<g id="a_edge1_Node000001_Node000002"><a xlink:title=" ">
<path fill="none" stroke="#63b8ff" d="M133,-119.61C133,-111.48 133,-102.66 133,-94.08"/>
<polygon fill="none" stroke="#63b8ff" points="129.5,-119.82 133,-129.82 136.5,-119.82 129.5,-119.82"/>
</a>
</g>
</g>
</g>
</svg>
