<?xml version="1.0" encoding="UTF-8" standalone="no"?>
<!DOCTYPE svg PUBLIC "-//W3C//DTD SVG 1.1//EN"
 "http://www.w3.org/Graphics/SVG/1.1/DTD/svg11.dtd">
<!-- Generated by graphviz version 6.0.1 (20220911.1526)
 -->
<!-- Title: LlamaLibrary.Int32s.AddRange Pages: 1 -->
<svg width="505pt" height="101pt"
 viewBox="0.00 0.00 505.00 101.00" xmlns="http://www.w3.org/2000/svg" xmlns:xlink="http://www.w3.org/1999/xlink">
<g id="graph0" class="graph" transform="scale(1 1) rotate(0) translate(4 97)">
<title>LlamaLibrary.Int32s.AddRange</title>
<!-- Node1 -->
<g id="Node000001" class="node">
<title>Node1</title>
<g id="a_Node000001"><a xlink:title=" ">
<polygon fill="#999999" stroke="#666666" points="149,-56 0,-56 0,-37 149,-37 149,-56"/>
<text text-anchor="middle" x="74.5" y="-44" font-family="Helvetica,sans-Serif" font-size="10.00">LlamaLibrary.Int32s.AddRange</text>
</a>
</g>
</g>
<!-- Node2 -->
<g id="Node000002" class="node">
<title>Node2</title>
<g id="a_Node000002"><a xlink:href="$class_llama_library_1_1_int32s.html#af513ab0e44144d369d5633a60a2aaa24" xlink:title=" ">
<polygon fill="white" stroke="#666666" points="409.5,-93 272.5,-93 272.5,-74 409.5,-74 409.5,-93"/>
<text text-anchor="middle" x="341" y="-81" font-family="Helvetica,sans-Serif" font-size="10.00">LlamaLibrary.Int32s.getCPtr</text>
</a>
</g>
</g>
<!-- Node1&#45;&gt;Node2 -->
<g id="edge1_Node000001_Node000002" class="edge">
<title>Node1&#45;&gt;Node2</title>
<g id="a_edge1_Node000001_Node000002"><a xlink:title=" ">
<path fill="none" stroke="#63b8ff" d="M126.93,-56.04C145.23,-59.27 166,-62.75 185,-65.5 210.1,-69.13 237.56,-72.51 262.31,-75.34"/>
<polygon fill="#63b8ff" stroke="#63b8ff" points="262.04,-78.84 272.37,-76.48 262.83,-71.88 262.04,-78.84"/>
</a>
</g>
</g>
<!-- Node3 -->
<g id="Node000003" class="node">
<title>Node3</title>
<g id="a_Node000003"><a xlink:href="$class_llama_library_1_1libllama__lib_p_i_n_v_o_k_e.html#aa23d1eb7327886da6a20c0251a9bb001" xlink:title=" ">
<polygon fill="white" stroke="#666666" points="464,-56 218,-56 218,-37 464,-37 464,-56"/>
<text text-anchor="middle" x="341" y="-44" font-family="Helvetica,sans-Serif" font-size="10.00">LlamaLibrary.libllama_libPINVOKE.Int32s_AddRange</text>
</a>
</g>
</g>
<!-- Node1&#45;&gt;Node3 -->
<g id="edge2_Node000001_Node000003" class="edge">
<title>Node1&#45;&gt;Node3</title>
<g id="a_edge2_Node000001_Node000003"><a xlink:title=" ">
<path fill="none" stroke="#63b8ff" d="M149.18,-46.5C167.42,-46.5 187.52,-46.5 207.63,-46.5"/>
<polygon fill="#63b8ff" stroke="#63b8ff" points="207.82,-50 217.82,-46.5 207.82,-43 207.82,-50"/>
</a>
</g>
</g>
<!-- Node4 -->
<g id="Node000004" class="node">
<title>Node4</title>
<g id="a_Node000004"><a xlink:href="$class_llama_library_1_1libllama__lib_p_i_n_v_o_k_e_1_1_s_w_i_g_pending_exception.html#a2718a73540850b42db7c89e9be3519ec" xlink:title=" ">
<polygon fill="white" stroke="#666666" points="497,-19 185,-19 185,0 497,0 497,-19"/>
<text text-anchor="middle" x="341" y="-7" font-family="Helvetica,sans-Serif" font-size="10.00">LlamaLibrary.libllama_libPINVOKE.SWIGPendingException.Retrieve</text>
</a>
</g>
</g>
<!-- Node1&#45;&gt;Node4 -->
<g id="edge3_Node000001_Node000004" class="edge">
<title>Node1&#45;&gt;Node4</title>
<g id="a_edge3_Node000001_Node000004"><a xlink:title=" ">
<path fill="none" stroke="#63b8ff" d="M130.58,-36.99C147.96,-34.11 167.26,-31.04 185,-28.5 205.06,-25.62 226.63,-22.8 247.11,-20.26"/>
<polygon fill="#63b8ff" stroke="#63b8ff" points="247.57,-23.73 257.06,-19.03 246.71,-16.78 247.57,-23.73"/>
</a>
</g>
</g>
</g>
</svg>
