<?xml version="1.0" encoding="UTF-8" standalone="no"?>
<!DOCTYPE svg PUBLIC "-//W3C//DTD SVG 1.1//EN"
 "http://www.w3.org/Graphics/SVG/1.1/DTD/svg11.dtd">
<!-- Generated by graphviz version 6.0.1 (20220911.1526)
 -->
<!-- Title: LlamaLibrary.StringAndFloat.~StringAndFloat Pages: 1 -->
<svg width="737pt" height="27pt"
 viewBox="0.00 0.00 737.00 27.00" xmlns="http://www.w3.org/2000/svg" xmlns:xlink="http://www.w3.org/1999/xlink">
<g id="graph0" class="graph" transform="scale(1 1) rotate(0) translate(4 23)">
<title>LlamaLibrary.StringAndFloat.~StringAndFloat</title>
<!-- Node1 -->
<g id="Node000001" class="node">
<title>Node1</title>
<g id="a_Node000001"><a xlink:title=" ">
<polygon fill="#999999" stroke="#666666" points="213,-19 0,-19 0,0 213,0 213,-19"/>
<text text-anchor="middle" x="106.5" y="-7" font-family="Helvetica,sans-Serif" font-size="10.00">LlamaLibrary.StringAndFloat.~StringAndFloat</text>
</a>
</g>
</g>
<!-- Node2 -->
<g id="Node000002" class="node">
<title>Node2</title>
<g id="a_Node000002"><a xlink:href="$class_llama_library_1_1_string_and_float.html#a08e653dfbd31c5ba2933cff8c65cab72" xlink:title=" ">
<polygon fill="white" stroke="#666666" points="427,-19 249,-19 249,0 427,0 427,-19"/>
<text text-anchor="middle" x="338" y="-7" font-family="Helvetica,sans-Serif" font-size="10.00">LlamaLibrary.StringAndFloat.Dispose</text>
</a>
</g>
</g>
<!-- Node1&#45;&gt;Node2 -->
<g id="edge1_Node000001_Node000002" class="edge">
<title>Node1&#45;&gt;Node2</title>
<g id="a_edge1_Node000001_Node000002"><a xlink:title=" ">
<path fill="none" stroke="#63b8ff" d="M213.18,-9.5C221.63,-9.5 230.14,-9.5 238.54,-9.5"/>
<polygon fill="#63b8ff" stroke="#63b8ff" points="238.7,-13 248.7,-9.5 238.7,-6 238.7,-13"/>
</a>
</g>
</g>
<!-- Node3 -->
<g id="Node000003" class="node">
<title>Node3</title>
<g id="a_Node000003"><a xlink:href="$class_llama_library_1_1libllama__lib_p_i_n_v_o_k_e.html#a02e2b04098cd02e47871e28226558d31" xlink:title=" ">
<polygon fill="white" stroke="#666666" points="729,-19 463,-19 463,0 729,0 729,-19"/>
<text text-anchor="middle" x="596" y="-7" font-family="Helvetica,sans-Serif" font-size="10.00">LlamaLibrary.libllama_libPINVOKE.delete_StringAndFloat</text>
</a>
</g>
</g>
<!-- Node2&#45;&gt;Node3 -->
<g id="edge2_Node000002_Node000003" class="edge">
<title>Node2&#45;&gt;Node3</title>
<g id="a_edge2_Node000002_Node000003"><a xlink:title=" ">
<path fill="none" stroke="#63b8ff" d="M427.1,-9.5C435.42,-9.5 443.98,-9.5 452.64,-9.5"/>
<polygon fill="#63b8ff" stroke="#63b8ff" points="452.83,-13 462.83,-9.5 452.83,-6 452.83,-13"/>
</a>
</g>
</g>
</g>
</svg>
