<?xml version="1.0" encoding="UTF-8" standalone="no"?>
<!DOCTYPE svg PUBLIC "-//W3C//DTD SVG 1.1//EN"
 "http://www.w3.org/Graphics/SVG/1.1/DTD/svg11.dtd">
<!-- Generated by graphviz version 6.0.1 (20220911.1526)
 -->
<!-- Title: LlamaLibrary.LlamaControlVectorLoadInfos.LlamaControlVectorLoadInfosEnumerator Pages: 1 -->
<svg width="1625pt" height="939pt"
 viewBox="0.00 0.00 1624.50 939.00" xmlns="http://www.w3.org/2000/svg" xmlns:xlink="http://www.w3.org/1999/xlink">
<g id="graph0" class="graph" transform="scale(1 1) rotate(0) translate(4 935)">
<title>LlamaLibrary.LlamaControlVectorLoadInfos.LlamaControlVectorLoadInfosEnumerator</title>
<!-- Node1 -->
<g id="Node000001" class="node">
<title>Node1</title>
<g id="a_Node000001"><a xlink:title=" ">
<polygon fill="#999999" stroke="none" points="608,-154 232,-154 232,0 608,0 608,-154"/>
<text text-anchor="start" x="237" y="-142" font-family="Helvetica,sans-Serif" font-size="10.00">LlamaLibrary.LlamaControlVectorLoadInfos.LlamaControlVectorLoadInfosEnumerator</text>
<text text-anchor="start" x="236.5" y="-127" font-family="Helvetica,sans-Serif" font-size="10.00">+</text>
<text text-anchor="start" x="248" y="-127" font-family="Helvetica,sans-Serif" font-size="10.00">SWIGTYPE_p_llama_control_vector_load_info Current</text>
<text text-anchor="start" x="236.5" y="-112" font-family="Helvetica,sans-Serif" font-size="10.00">+</text>
<text text-anchor="start" x="248" y="-112" font-family="Helvetica,sans-Serif" font-size="10.00">object global::System.Collections.IEnumerator. Current</text>
<text text-anchor="start" x="238" y="-97" font-family="Helvetica,sans-Serif" font-size="10.00">&#45;</text>
<text text-anchor="start" x="248" y="-97" font-family="Helvetica,sans-Serif" font-size="10.00">int currentIndex</text>
<text text-anchor="start" x="238" y="-82" font-family="Helvetica,sans-Serif" font-size="10.00">&#45;</text>
<text text-anchor="start" x="248" y="-82" font-family="Helvetica,sans-Serif" font-size="10.00">object currentObject</text>
<text text-anchor="start" x="238" y="-67" font-family="Helvetica,sans-Serif" font-size="10.00">&#45;</text>
<text text-anchor="start" x="248" y="-67" font-family="Helvetica,sans-Serif" font-size="10.00">int currentSize</text>
<text text-anchor="start" x="236.5" y="-52" font-family="Helvetica,sans-Serif" font-size="10.00">+</text>
<text text-anchor="start" x="248" y="-52" font-family="Helvetica,sans-Serif" font-size="10.00">void Dispose()</text>
<text text-anchor="start" x="236.5" y="-37" font-family="Helvetica,sans-Serif" font-size="10.00">+</text>
<text text-anchor="start" x="248" y="-37" font-family="Helvetica,sans-Serif" font-size="10.00">LlamaControlVectorLoadInfosEnumerator(LlamaControlVectorLoadInfos collection)</text>
<text text-anchor="start" x="236.5" y="-22" font-family="Helvetica,sans-Serif" font-size="10.00">+</text>
<text text-anchor="start" x="248" y="-22" font-family="Helvetica,sans-Serif" font-size="10.00">bool MoveNext()</text>
<text text-anchor="start" x="236.5" y="-7" font-family="Helvetica,sans-Serif" font-size="10.00">+</text>
<text text-anchor="start" x="248" y="-7" font-family="Helvetica,sans-Serif" font-size="10.00">void Reset()</text>
<polygon fill="#666666" stroke="#666666" points="232,-137 232,-137 608,-137 608,-137 232,-137"/>
<polygon fill="#666666" stroke="#666666" points="232,-62 232,-62 246,-62 246,-62 232,-62"/>
<polygon fill="#666666" stroke="#666666" points="246,-62 246,-62 608,-62 608,-62 246,-62"/>
<polygon fill="none" stroke="#666666" points="232,0 232,-154 608,-154 608,0 232,0"/>
</a>
</g>
</g>
<!-- Node2 -->
<g id="Node000002" class="node">
<title>Node2</title>
<g id="a_Node000002"><a xlink:title=" ">
<polygon fill="white" stroke="none" points="182,-542.5 0,-542.5 0,-493.5 182,-493.5 182,-542.5"/>
<text text-anchor="start" x="5" y="-530" font-family="Helvetica,sans-Serif" font-size="10.00">global::SystemCollections::IEnumerator</text>
<text text-anchor="start" x="89" y="-515" font-family="Helvetica,sans-Serif" font-size="10.00"> </text>
<text text-anchor="start" x="89" y="-500" font-family="Helvetica,sans-Serif" font-size="10.00"> </text>
<polygon fill="#666666" stroke="#666666" points="0,-525 0,-525 182,-525 182,-525 0,-525"/>
<polygon fill="#666666" stroke="#666666" points="0,-510 0,-510 182,-510 182,-510 0,-510"/>
<polygon fill="none" stroke="#666666" points="0,-493.5 0,-542.5 182,-542.5 182,-493.5 0,-493.5"/>
</a>
</g>
</g>
<!-- Node2&#45;&gt;Node1 -->
<g id="edge1_Node000001_Node000002" class="edge">
<title>Node2&#45;&gt;Node1</title>
<g id="a_edge1_Node000001_Node000002"><a xlink:title=" ">
<path fill="none" stroke="#63b8ff" d="M93.46,-483.01C99.62,-420.47 120.7,-285.8 191,-201 205.76,-183.19 223.79,-167.59 243.19,-154.02"/>
<polygon fill="none" stroke="#63b8ff" points="89.96,-482.84 92.53,-493.12 96.93,-483.48 89.96,-482.84"/>
</a>
</g>
</g>
<!-- Node3 -->
<g id="Node000003" class="node">
<title>Node3</title>
<g id="a_Node000003"><a xlink:title=" ">
<polygon fill="white" stroke="none" points="640,-542.5 200,-542.5 200,-493.5 640,-493.5 640,-542.5"/>
<text text-anchor="start" x="205" y="-530" font-family="Helvetica,sans-Serif" font-size="10.00">global::SystemCollections::Generic::IEnumerator&lt; SWIGTYPE_p_llama_control_vector_load_info &gt;</text>
<text text-anchor="start" x="418" y="-515" font-family="Helvetica,sans-Serif" font-size="10.00"> </text>
<text text-anchor="start" x="418" y="-500" font-family="Helvetica,sans-Serif" font-size="10.00"> </text>
<polygon fill="#666666" stroke="#666666" points="200,-525 200,-525 640,-525 640,-525 200,-525"/>
<polygon fill="#666666" stroke="#666666" points="200,-510 200,-510 640,-510 640,-510 200,-510"/>
<polygon fill="none" stroke="#666666" points="200,-493.5 200,-542.5 640,-542.5 640,-493.5 200,-493.5"/>
</a>
</g>
</g>
<!-- Node3&#45;&gt;Node1 -->
<g id="edge2_Node000001_Node000003" class="edge">
<title>Node3&#45;&gt;Node1</title>
<g id="a_edge2_Node000001_Node000003"><a xlink:title=" ">
<path fill="none" stroke="#63b8ff" d="M420,-483.39C420,-413.49 420,-250.94 420,-154.25"/>
<polygon fill="none" stroke="#63b8ff" points="416.5,-483.4 420,-493.4 423.5,-483.4 416.5,-483.4"/>
</a>
</g>
</g>
<!-- Node4 -->
<g id="Node000004" class="node">
<title>Node4</title>
<g id="a_Node000004"><a xlink:href="class_llama_library_1_1_llama_control_vector_load_infos.html" target="_top" xlink:title=" ">
<polygon fill="white" stroke="none" points="1612,-835 658,-835 658,-201 1612,-201 1612,-835"/>
<text text-anchor="start" x="1042" y="-823" font-family="Helvetica,sans-Serif" font-size="10.00">LlamaLibrary.LlamaControlVectorLoadInfos</text>
<text text-anchor="start" x="662" y="-808" font-family="Helvetica,sans-Serif" font-size="10.00">+</text>
<text text-anchor="start" x="673" y="-808" font-family="Helvetica,sans-Serif" font-size="10.00">int Capacity</text>
<text text-anchor="start" x="662" y="-793" font-family="Helvetica,sans-Serif" font-size="10.00">+</text>
<text text-anchor="start" x="673" y="-793" font-family="Helvetica,sans-Serif" font-size="10.00">int Count</text>
<text text-anchor="start" x="662" y="-778" font-family="Helvetica,sans-Serif" font-size="10.00">+</text>
<text text-anchor="start" x="673" y="-778" font-family="Helvetica,sans-Serif" font-size="10.00">bool IsFixedSize</text>
<text text-anchor="start" x="662" y="-763" font-family="Helvetica,sans-Serif" font-size="10.00">+</text>
<text text-anchor="start" x="673" y="-763" font-family="Helvetica,sans-Serif" font-size="10.00">bool IsReadOnly</text>
<text text-anchor="start" x="662" y="-748" font-family="Helvetica,sans-Serif" font-size="10.00">+</text>
<text text-anchor="start" x="673" y="-748" font-family="Helvetica,sans-Serif" font-size="10.00">bool IsSynchronized</text>
<text text-anchor="start" x="662" y="-733" font-family="Helvetica,sans-Serif" font-size="10.00">+</text>
<text text-anchor="start" x="673" y="-733" font-family="Helvetica,sans-Serif" font-size="10.00">SWIGTYPE_p_llama_control_vector_load_info this[int index]</text>
<text text-anchor="start" x="662.5" y="-718" font-family="Helvetica,sans-Serif" font-size="10.00">#</text>
<text text-anchor="start" x="673" y="-718" font-family="Helvetica,sans-Serif" font-size="10.00">bool swigCMemOwn</text>
<text text-anchor="start" x="662" y="-703" font-family="Helvetica,sans-Serif" font-size="10.00">+</text>
<text text-anchor="start" x="673" y="-703" font-family="Helvetica,sans-Serif" font-size="10.00">void Add(SWIGTYPE_p_llama_control_vector_load_info x)</text>
<text text-anchor="start" x="662" y="-688" font-family="Helvetica,sans-Serif" font-size="10.00">+</text>
<text text-anchor="start" x="673" y="-688" font-family="Helvetica,sans-Serif" font-size="10.00">void AddRange(LlamaControlVectorLoadInfos values)</text>
<text text-anchor="start" x="662" y="-673" font-family="Helvetica,sans-Serif" font-size="10.00">+</text>
<text text-anchor="start" x="673" y="-673" font-family="Helvetica,sans-Serif" font-size="10.00">void Clear()</text>
<text text-anchor="start" x="662" y="-658" font-family="Helvetica,sans-Serif" font-size="10.00">+</text>
<text text-anchor="start" x="673" y="-658" font-family="Helvetica,sans-Serif" font-size="10.00">void CopyTo(int index, SWIGTYPE_p_llama_control_vector_load_info[] array, int arrayIndex, int count)</text>
<text text-anchor="start" x="662" y="-643" font-family="Helvetica,sans-Serif" font-size="10.00">+</text>
<text text-anchor="start" x="673" y="-643" font-family="Helvetica,sans-Serif" font-size="10.00">void CopyTo(SWIGTYPE_p_llama_control_vector_load_info[] array)</text>
<text text-anchor="start" x="662" y="-628" font-family="Helvetica,sans-Serif" font-size="10.00">+</text>
<text text-anchor="start" x="673" y="-628" font-family="Helvetica,sans-Serif" font-size="10.00">void CopyTo(SWIGTYPE_p_llama_control_vector_load_info[] array, int arrayIndex)</text>
<text text-anchor="start" x="662" y="-613" font-family="Helvetica,sans-Serif" font-size="10.00">+</text>
<text text-anchor="start" x="673" y="-613" font-family="Helvetica,sans-Serif" font-size="10.00">virtual void Dispose()</text>
<text text-anchor="start" x="662" y="-598" font-family="Helvetica,sans-Serif" font-size="10.00">+</text>
<text text-anchor="start" x="673" y="-598" font-family="Helvetica,sans-Serif" font-size="10.00">LlamaControlVectorLoadInfosEnumerator GetEnumerator()</text>
<text text-anchor="start" x="662" y="-583" font-family="Helvetica,sans-Serif" font-size="10.00">+</text>
<text text-anchor="start" x="673" y="-583" font-family="Helvetica,sans-Serif" font-size="10.00">LlamaControlVectorLoadInfos GetRange(int index, int count)</text>
<text text-anchor="start" x="662" y="-568" font-family="Helvetica,sans-Serif" font-size="10.00">+</text>
<text text-anchor="start" x="673" y="-568" font-family="Helvetica,sans-Serif" font-size="10.00">void Insert(int index, SWIGTYPE_p_llama_control_vector_load_info x)</text>
<text text-anchor="start" x="662" y="-553" font-family="Helvetica,sans-Serif" font-size="10.00">+</text>
<text text-anchor="start" x="673" y="-553" font-family="Helvetica,sans-Serif" font-size="10.00">void InsertRange(int index, LlamaControlVectorLoadInfos values)</text>
<text text-anchor="start" x="662" y="-538" font-family="Helvetica,sans-Serif" font-size="10.00">+</text>
<text text-anchor="start" x="673" y="-538" font-family="Helvetica,sans-Serif" font-size="10.00">LlamaControlVectorLoadInfos()</text>
<text text-anchor="start" x="662" y="-523" font-family="Helvetica,sans-Serif" font-size="10.00">+</text>
<text text-anchor="start" x="673" y="-523" font-family="Helvetica,sans-Serif" font-size="10.00">LlamaControlVectorLoadInfos(global::System.Collections.Generic.IEnumerable&lt; SWIGTYPE_p_llama_control_vector_load_info &gt; c)</text>
<text text-anchor="start" x="662" y="-508" font-family="Helvetica,sans-Serif" font-size="10.00">+</text>
<text text-anchor="start" x="673" y="-508" font-family="Helvetica,sans-Serif" font-size="10.00">LlamaControlVectorLoadInfos(global::System.Collections.IEnumerable c)</text>
<text text-anchor="start" x="662" y="-493" font-family="Helvetica,sans-Serif" font-size="10.00">+</text>
<text text-anchor="start" x="673" y="-493" font-family="Helvetica,sans-Serif" font-size="10.00">LlamaControlVectorLoadInfos(int capacity)</text>
<text text-anchor="start" x="662" y="-478" font-family="Helvetica,sans-Serif" font-size="10.00">+</text>
<text text-anchor="start" x="673" y="-478" font-family="Helvetica,sans-Serif" font-size="10.00">LlamaControlVectorLoadInfos(LlamaControlVectorLoadInfos other)</text>
<text text-anchor="start" x="662" y="-463" font-family="Helvetica,sans-Serif" font-size="10.00">+</text>
<text text-anchor="start" x="673" y="-463" font-family="Helvetica,sans-Serif" font-size="10.00">void RemoveAt(int index)</text>
<text text-anchor="start" x="662" y="-448" font-family="Helvetica,sans-Serif" font-size="10.00">+</text>
<text text-anchor="start" x="673" y="-448" font-family="Helvetica,sans-Serif" font-size="10.00">void RemoveRange(int index, int count)</text>
<text text-anchor="start" x="662" y="-433" font-family="Helvetica,sans-Serif" font-size="10.00">+</text>
<text text-anchor="start" x="673" y="-433" font-family="Helvetica,sans-Serif" font-size="10.00">void Reverse()</text>
<text text-anchor="start" x="662" y="-418" font-family="Helvetica,sans-Serif" font-size="10.00">+</text>
<text text-anchor="start" x="673" y="-418" font-family="Helvetica,sans-Serif" font-size="10.00">void Reverse(int index, int count)</text>
<text text-anchor="start" x="662" y="-403" font-family="Helvetica,sans-Serif" font-size="10.00">+</text>
<text text-anchor="start" x="673" y="-403" font-family="Helvetica,sans-Serif" font-size="10.00">void SetRange(int index, LlamaControlVectorLoadInfos values)</text>
<text text-anchor="start" x="662" y="-388" font-family="Helvetica,sans-Serif" font-size="10.00">+</text>
<text text-anchor="start" x="673" y="-388" font-family="Helvetica,sans-Serif" font-size="10.00">SWIGTYPE_p_llama_control_vector_load_info[] ToArray()</text>
<text text-anchor="start" x="662" y="-373" font-family="Helvetica,sans-Serif" font-size="10.00">+</text>
<text text-anchor="start" x="673" y="-373" font-family="Helvetica,sans-Serif" font-size="10.00">static LlamaControlVectorLoadInfos Repeat(SWIGTYPE_p_llama_control_vector_load_info value, int count)</text>
<text text-anchor="start" x="662" y="-358" font-family="Helvetica,sans-Serif" font-size="10.00">~</text>
<text text-anchor="start" x="673" y="-358" font-family="Helvetica,sans-Serif" font-size="10.00">LlamaControlVectorLoadInfos(global::System.IntPtr cPtr, bool cMemoryOwn)</text>
<text text-anchor="start" x="662" y="-343" font-family="Helvetica,sans-Serif" font-size="10.00">~</text>
<text text-anchor="start" x="673" y="-343" font-family="Helvetica,sans-Serif" font-size="10.00">static global::System.Runtime.InteropServices.HandleRef getCPtr(LlamaControlVectorLoadInfos obj)</text>
<text text-anchor="start" x="663.5" y="-328" font-family="Helvetica,sans-Serif" font-size="10.00">&#45;</text>
<text text-anchor="start" x="673" y="-328" font-family="Helvetica,sans-Serif" font-size="10.00">uint capacity()</text>
<text text-anchor="start" x="663.5" y="-313" font-family="Helvetica,sans-Serif" font-size="10.00">&#45;</text>
<text text-anchor="start" x="673" y="-313" font-family="Helvetica,sans-Serif" font-size="10.00">global::System.Collections.Generic.IEnumerator&lt; SWIGTYPE_p_llama_control_vector_load_info &gt; global::System.Collections.Generic.IEnumerable&lt; SWIGTYPE_p_llama_control_vector_load_info &gt;. GetEnumerator()</text>
<text text-anchor="start" x="663.5" y="-298" font-family="Helvetica,sans-Serif" font-size="10.00">&#45;</text>
<text text-anchor="start" x="673" y="-298" font-family="Helvetica,sans-Serif" font-size="10.00">global::System.Collections.IEnumerator global::System.Collections.IEnumerable. GetEnumerator()</text>
<text text-anchor="start" x="663.5" y="-283" font-family="Helvetica,sans-Serif" font-size="10.00">&#45;</text>
<text text-anchor="start" x="673" y="-283" font-family="Helvetica,sans-Serif" font-size="10.00">SWIGTYPE_p_llama_control_vector_load_info getitem(int index)</text>
<text text-anchor="start" x="663.5" y="-268" font-family="Helvetica,sans-Serif" font-size="10.00">&#45;</text>
<text text-anchor="start" x="673" y="-268" font-family="Helvetica,sans-Serif" font-size="10.00">SWIGTYPE_p_llama_control_vector_load_info getitemcopy(int index)</text>
<text text-anchor="start" x="663.5" y="-253" font-family="Helvetica,sans-Serif" font-size="10.00">&#45;</text>
<text text-anchor="start" x="673" y="-253" font-family="Helvetica,sans-Serif" font-size="10.00">void reserve(uint n)</text>
<text text-anchor="start" x="663.5" y="-238" font-family="Helvetica,sans-Serif" font-size="10.00">&#45;</text>
<text text-anchor="start" x="673" y="-238" font-family="Helvetica,sans-Serif" font-size="10.00">void setitem(int index, SWIGTYPE_p_llama_control_vector_load_info value)</text>
<text text-anchor="start" x="663.5" y="-223" font-family="Helvetica,sans-Serif" font-size="10.00">&#45;</text>
<text text-anchor="start" x="673" y="-223" font-family="Helvetica,sans-Serif" font-size="10.00">uint size()</text>
<text text-anchor="start" x="663.5" y="-208" font-family="Helvetica,sans-Serif" font-size="10.00">&#45;</text>
<text text-anchor="start" x="673" y="-208" font-family="Helvetica,sans-Serif" font-size="10.00">~LlamaControlVectorLoadInfos()</text>
<polygon fill="#666666" stroke="#666666" points="658,-818 658,-818 1612,-818 1612,-818 658,-818"/>
<polygon fill="#666666" stroke="#666666" points="658,-713 658,-713 671,-713 671,-713 658,-713"/>
<polygon fill="#666666" stroke="#666666" points="671,-713 671,-713 1612,-713 1612,-713 671,-713"/>
<polygon fill="none" stroke="#666666" points="658,-201 658,-835 1612,-835 1612,-201 658,-201"/>
</a>
</g>
</g>
<!-- Node4&#45;&gt;Node1 -->
<g id="edge3_Node000001_Node000004" class="edge">
<title>Node4&#45;&gt;Node1</title>
<g id="a_edge3_Node000001_Node000004"><a xlink:title=" ">
<path fill="none" stroke="#63b8ff" d="M657.79,-206.22C654.85,-204.47 651.92,-202.73 649,-201 625.91,-187.33 601.2,-173.37 576.86,-160"/>
<polygon fill="none" stroke="#63b8ff" points="576.61,-159.87 569.43,-160.5 566.09,-154.11 573.27,-153.48 576.61,-159.87"/>
</a>
</g>
<text text-anchor="middle" x="644" y="-175" font-family="Helvetica,sans-Serif" font-size="10.00" fill="grey"> &#45;collectionRef</text>
</g>
<!-- Node5 -->
<g id="Node000005" class="node">
<title>Node5</title>
<g id="a_Node000005"><a xlink:title=" ">
<polygon fill="white" stroke="none" points="860,-931 734,-931 734,-882 860,-882 860,-931"/>
<text text-anchor="start" x="739" y="-918.5" font-family="Helvetica,sans-Serif" font-size="10.00">global::SystemIDisposable</text>
<text text-anchor="start" x="795" y="-903.5" font-family="Helvetica,sans-Serif" font-size="10.00"> </text>
<text text-anchor="start" x="795" y="-888.5" font-family="Helvetica,sans-Serif" font-size="10.00"> </text>
<polygon fill="#666666" stroke="#666666" points="734,-913.5 734,-913.5 860,-913.5 860,-913.5 734,-913.5"/>
<polygon fill="#666666" stroke="#666666" points="734,-898.5 734,-898.5 860,-898.5 860,-898.5 734,-898.5"/>
<polygon fill="none" stroke="#666666" points="734,-882 734,-931 860,-931 860,-882 734,-882"/>
</a>
</g>
</g>
<!-- Node5&#45;&gt;Node4 -->
<g id="edge4_Node000004_Node000005" class="edge">
<title>Node5&#45;&gt;Node4</title>
<g id="a_edge4_Node000004_Node000005"><a xlink:title=" ">
<path fill="none" stroke="#63b8ff" d="M824.48,-874.08C833.97,-863.22 845.54,-850 858.56,-835.11"/>
<polygon fill="none" stroke="#63b8ff" points="821.58,-872.07 817.63,-881.9 826.85,-876.68 821.58,-872.07"/>
</a>
</g>
</g>
<!-- Node6 -->
<g id="Node000006" class="node">
<title>Node6</title>
<g id="a_Node000006"><a xlink:title=" ">
<polygon fill="white" stroke="none" points="1062,-931 878,-931 878,-882 1062,-882 1062,-931"/>
<text text-anchor="start" x="883" y="-918.5" font-family="Helvetica,sans-Serif" font-size="10.00">global::SystemCollections::IEnumerable</text>
<text text-anchor="start" x="968" y="-903.5" font-family="Helvetica,sans-Serif" font-size="10.00"> </text>
<text text-anchor="start" x="968" y="-888.5" font-family="Helvetica,sans-Serif" font-size="10.00"> </text>
<polygon fill="#666666" stroke="#666666" points="878,-913.5 878,-913.5 1062,-913.5 1062,-913.5 878,-913.5"/>
<polygon fill="#666666" stroke="#666666" points="878,-898.5 878,-898.5 1062,-898.5 1062,-898.5 878,-898.5"/>
<polygon fill="none" stroke="#666666" points="878,-882 878,-931 1062,-931 1062,-882 878,-882"/>
</a>
</g>
</g>
<!-- Node6&#45;&gt;Node4 -->
<g id="edge5_Node000004_Node000006" class="edge">
<title>Node6&#45;&gt;Node4</title>
<g id="a_edge5_Node000004_Node000006"><a xlink:title=" ">
<path fill="none" stroke="#63b8ff" d="M984.1,-872.46C988.6,-861.92 994.01,-849.27 1000.05,-835.11"/>
<polygon fill="none" stroke="#63b8ff" points="980.78,-871.33 980.07,-881.9 987.22,-874.08 980.78,-871.33"/>
</a>
</g>
</g>
<!-- Node7 -->
<g id="Node000007" class="node">
<title>Node7</title>
<g id="a_Node000007"><a xlink:title=" ">
<polygon fill="white" stroke="none" points="1521.5,-931 1080.5,-931 1080.5,-882 1521.5,-882 1521.5,-931"/>
<text text-anchor="start" x="1086" y="-918.5" font-family="Helvetica,sans-Serif" font-size="10.00">global::SystemCollections::Generic::IEnumerable&lt; SWIGTYPE_p_llama_control_vector_load_info &gt;</text>
<text text-anchor="start" x="1299.5" y="-903.5" font-family="Helvetica,sans-Serif" font-size="10.00"> </text>
<text text-anchor="start" x="1299.5" y="-888.5" font-family="Helvetica,sans-Serif" font-size="10.00"> </text>
<polygon fill="#666666" stroke="#666666" points="1081,-913.5 1081,-913.5 1522,-913.5 1522,-913.5 1081,-913.5"/>
<polygon fill="#666666" stroke="#666666" points="1081,-898.5 1081,-898.5 1522,-898.5 1522,-898.5 1081,-898.5"/>
<polygon fill="none" stroke="#666666" points="1080.5,-882 1080.5,-931 1521.5,-931 1521.5,-882 1080.5,-882"/>
</a>
</g>
</g>
<!-- Node7&#45;&gt;Node4 -->
<g id="edge6_Node000004_Node000007" class="edge">
<title>Node7&#45;&gt;Node4</title>
<g id="a_edge6_Node000004_Node000007"><a xlink:title=" ">
<path fill="none" stroke="#63b8ff" d="M1286.81,-872.46C1282.28,-861.92 1276.85,-849.27 1270.77,-835.11"/>
<polygon fill="none" stroke="#63b8ff" points="1283.7,-874.1 1290.87,-881.9 1290.14,-871.33 1283.7,-874.1"/>
</a>
</g>
</g>
<!-- Node8 -->
<g id="Node000008" class="node">
<title>Node8</title>
<g id="a_Node000008"><a xlink:title=" ">
<polygon fill="white" stroke="none" points="1616.5,-931 1539.5,-931 1539.5,-882 1616.5,-882 1616.5,-931"/>
<text text-anchor="start" x="1545" y="-918.5" font-family="Helvetica,sans-Serif" font-size="10.00">InteropServices</text>
<text text-anchor="start" x="1576.5" y="-903.5" font-family="Helvetica,sans-Serif" font-size="10.00"> </text>
<text text-anchor="start" x="1576.5" y="-888.5" font-family="Helvetica,sans-Serif" font-size="10.00"> </text>
<polygon fill="#666666" stroke="#666666" points="1540,-913.5 1540,-913.5 1617,-913.5 1617,-913.5 1540,-913.5"/>
<polygon fill="#666666" stroke="#666666" points="1540,-898.5 1540,-898.5 1617,-898.5 1617,-898.5 1540,-898.5"/>
<polygon fill="none" stroke="#666666" points="1539.5,-882 1539.5,-931 1616.5,-931 1616.5,-882 1539.5,-882"/>
</a>
</g>
</g>
<!-- Node8&#45;&gt;Node4 -->
<g id="edge7_Node000004_Node000008" class="edge">
<title>Node8&#45;&gt;Node4</title>
<g id="a_edge7_Node000004_Node000008"><a xlink:title=" ">
<path fill="none" stroke="#63b8ff" d="M1550.96,-881.9C1539.2,-871.65 1524.1,-858.47 1506.65,-843.25"/>
<polygon fill="none" stroke="#63b8ff" points="1506.36,-843 1499.21,-842.07 1497.32,-835.11 1504.47,-836.04 1506.36,-843"/>
</a>
</g>
<text text-anchor="middle" x="1546" y="-856" font-family="Helvetica,sans-Serif" font-size="10.00" fill="grey"> &#45;swigCPtr</text>
</g>
</g>
</svg>
