<?xml version="1.0" encoding="UTF-8" standalone="no"?>
<!DOCTYPE svg PUBLIC "-//W3C//DTD SVG 1.1//EN"
 "http://www.w3.org/Graphics/SVG/1.1/DTD/svg11.dtd">
<!-- Generated by graphviz version 6.0.1 (20220911.1526)
 -->
<!-- Title: Assets.StyledLines.Samples.BasicDebug.Runtime.CircularMotion Pages: 1 -->
<svg width="304pt" height="202pt"
 viewBox="0.00 0.00 304.00 202.00" xmlns="http://www.w3.org/2000/svg" xmlns:xlink="http://www.w3.org/1999/xlink">
<g id="graph0" class="graph" transform="scale(1 1) rotate(0) translate(4 198)">
<title>Assets.StyledLines.Samples.BasicDebug.Runtime.CircularMotion</title>
<!-- Node1 -->
<g id="Node000001" class="node">
<title>Node1</title>
<g id="a_Node000001"><a xlink:title=" ">
<polygon fill="#999999" stroke="none" points="296,-109 0,-109 0,0 296,0 296,-109"/>
<text text-anchor="start" x="5" y="-96.5" font-family="Helvetica,sans-Serif" font-size="10.00">Assets.StyledLines.Samples.BasicDebug.Runtime.CircularMotion</text>
<text text-anchor="start" x="47" y="-81.5" font-family="Helvetica,sans-Serif" font-size="10.00">+</text>
<text text-anchor="start" x="101" y="-81.5" font-family="Helvetica,sans-Serif" font-size="10.00">float Radius</text>
<text text-anchor="start" x="47" y="-66.5" font-family="Helvetica,sans-Serif" font-size="10.00">+</text>
<text text-anchor="start" x="101" y="-66.5" font-family="Helvetica,sans-Serif" font-size="10.00">float Speed</text>
<text text-anchor="start" x="48.5" y="-51.5" font-family="Helvetica,sans-Serif" font-size="10.00">&#45;</text>
<text text-anchor="start" x="101" y="-51.5" font-family="Helvetica,sans-Serif" font-size="10.00">float _angle</text>
<text text-anchor="start" x="48.5" y="-36.5" font-family="Helvetica,sans-Serif" font-size="10.00">&#45;</text>
<text text-anchor="start" x="101" y="-36.5" font-family="Helvetica,sans-Serif" font-size="10.00">Vector3 _centerPosition</text>
<text text-anchor="start" x="48.5" y="-21.5" font-family="Helvetica,sans-Serif" font-size="10.00">&#45;</text>
<text text-anchor="start" x="101" y="-21.5" font-family="Helvetica,sans-Serif" font-size="10.00">void Start()</text>
<text text-anchor="start" x="48.5" y="-6.5" font-family="Helvetica,sans-Serif" font-size="10.00">&#45;</text>
<text text-anchor="start" x="101" y="-6.5" font-family="Helvetica,sans-Serif" font-size="10.00">void Update()</text>
<polygon fill="#666666" stroke="#666666" points="0,-91.5 0,-91.5 296,-91.5 296,-91.5 0,-91.5"/>
<polygon fill="#666666" stroke="#666666" points="0,-31.5 0,-31.5 99,-31.5 99,-31.5 0,-31.5"/>
<polygon fill="#666666" stroke="#666666" points="99,-31.5 99,-31.5 296,-31.5 296,-31.5 99,-31.5"/>
<polygon fill="none" stroke="#666666" points="0,0 0,-109 296,-109 296,0 0,0"/>
</a>
</g>
</g>
<!-- Node2 -->
<g id="Node000002" class="node">
<title>Node2</title>
<g id="a_Node000002"><a xlink:title=" ">
<polygon fill="white" stroke="none" points="186.5,-194 109.5,-194 109.5,-145 186.5,-145 186.5,-194"/>
<text text-anchor="start" x="115" y="-181.5" font-family="Helvetica,sans-Serif" font-size="10.00">MonoBehaviour</text>
<text text-anchor="start" x="146.5" y="-166.5" font-family="Helvetica,sans-Serif" font-size="10.00"> </text>
<text text-anchor="start" x="146.5" y="-151.5" font-family="Helvetica,sans-Serif" font-size="10.00"> </text>
<polygon fill="#666666" stroke="#666666" points="110,-176.5 110,-176.5 187,-176.5 187,-176.5 110,-176.5"/>
<polygon fill="#666666" stroke="#666666" points="110,-161.5 110,-161.5 187,-161.5 187,-161.5 110,-161.5"/>
<polygon fill="none" stroke="#666666" points="109.5,-145 109.5,-194 186.5,-194 186.5,-145 109.5,-145"/>
</a>
</g>
</g>
<!-- Node2&#45;&gt;Node1 -->
<g id="edge1_Node000001_Node000002" class="edge">
<title>Node2&#45;&gt;Node1</title>
<g id="a_edge1_Node000001_Node000002"><a xlink:title=" ">
<path fill="none" stroke="#63b8ff" d="M148,-134.79C148,-126.79 148,-118.06 148,-109.41"/>
<polygon fill="none" stroke="#63b8ff" points="144.5,-134.81 148,-144.81 151.5,-134.81 144.5,-134.81"/>
</a>
</g>
</g>
</g>
</svg>
