<?xml version="1.0" encoding="UTF-8" standalone="no"?>
<!DOCTYPE svg PUBLIC "-//W3C//DTD SVG 1.1//EN"
 "http://www.w3.org/Graphics/SVG/1.1/DTD/svg11.dtd">
<!-- Generated by graphviz version 6.0.1 (20220911.1526)
 -->
<!-- Title: RunModelAsync.Start Pages: 1 -->
<svg width="779pt" height="304pt"
 viewBox="0.00 0.00 779.00 304.00" xmlns="http://www.w3.org/2000/svg" xmlns:xlink="http://www.w3.org/1999/xlink">
<g id="graph0" class="graph" transform="scale(1 1) rotate(0) translate(4 300)">
<title>RunModelAsync.Start</title>
<!-- Node1 -->
<g id="Node000001" class="node">
<title>Node1</title>
<g id="a_Node000001"><a xlink:title="Method called at the start of the MonoBehaviour&#39;s lifecycle. Initializes the model,...">
<polygon fill="#999999" stroke="#666666" points="112,-203 0,-203 0,-184 112,-184 112,-203"/>
<text text-anchor="middle" x="56" y="-191" font-family="Helvetica,sans-Serif" font-size="10.00">RunModelAsync.Start</text>
</a>
</g>
</g>
<!-- Node2 -->
<g id="Node000002" class="node">
<title>Node2</title>
<g id="a_Node000002"><a xlink:href="class_model_controller.html#aa55aede9a4107d8f32196d1237494749" target="_top" xlink:title="Static method to get the appropriate temporary file path based on the platform. This method returns a...">
<polygon fill="white" stroke="#666666" points="359,-296 212,-296 212,-277 359,-277 359,-296"/>
<text text-anchor="middle" x="285.5" y="-284" font-family="Helvetica,sans-Serif" font-size="10.00">ModelController.GetTempPath</text>
</a>
</g>
</g>
<!-- Node1&#45;&gt;Node2 -->
<g id="edge1_Node000001_Node000002" class="edge">
<title>Node1&#45;&gt;Node2</title>
<g id="a_edge1_Node000001_Node000002"><a xlink:title=" ">
<path fill="none" stroke="#63b8ff" d="M65.15,-203.05C79.83,-219.54 112.52,-253.07 148,-268.5 164.74,-275.78 183.64,-280.32 201.91,-283.1"/>
<polygon fill="#63b8ff" stroke="#63b8ff" points="201.61,-286.59 211.99,-284.47 202.55,-279.66 201.61,-286.59"/>
</a>
</g>
</g>
<!-- Node3 -->
<g id="Node000003" class="node">
<title>Node3</title>
<g id="a_Node000003"><a xlink:href="class_basic_gpt_params_settings.html#a5ba6a31fefeda7ec006961344a818609" target="_top" xlink:title=" ">
<polygon fill="white" stroke="#666666" points="360,-259 211,-259 211,-240 360,-240 360,-259"/>
<text text-anchor="middle" x="285.5" y="-247" font-family="Helvetica,sans-Serif" font-size="10.00">BasicGptParamsSettings.Raw</text>
</a>
</g>
</g>
<!-- Node1&#45;&gt;Node3 -->
<g id="edge2_Node000001_Node000003" class="edge">
<title>Node1&#45;&gt;Node3</title>
<g id="a_edge2_Node000001_Node000003"><a xlink:title=" ">
<path fill="none" stroke="#63b8ff" d="M75.66,-203.01C93.7,-211.8 122.05,-224.5 148,-231.5 164.78,-236.03 183.05,-239.43 200.6,-241.99"/>
<polygon fill="#63b8ff" stroke="#63b8ff" points="200.45,-245.5 210.83,-243.4 201.4,-238.57 200.45,-245.5"/>
</a>
</g>
</g>
<!-- Node4 -->
<g id="Node000004" class="node">
<title>Node4</title>
<g id="a_Node000004"><a xlink:href="class_llama_library_1_1_callback_wrapper.html#a353d1a08774ce45047d6651294fbc77a" target="_top" xlink:title="Registers a completion callback function for the Llama model.">
<polygon fill="white" stroke="#666666" points="423,-222 148,-222 148,-203 423,-203 423,-222"/>
<text text-anchor="middle" x="285.5" y="-210" font-family="Helvetica,sans-Serif" font-size="10.00">LlamaLibrary.CallbackWrapper.RegisterCompletionCallback</text>
</a>
</g>
</g>
<!-- Node1&#45;&gt;Node4 -->
<g id="edge3_Node000001_Node000004" class="edge">
<title>Node1&#45;&gt;Node4</title>
<g id="a_edge3_Node000001_Node000004"><a xlink:title=" ">
<path fill="none" stroke="#63b8ff" d="M112.07,-198.1C126.91,-199.34 143.59,-200.73 160.57,-202.15"/>
<polygon fill="#63b8ff" stroke="#63b8ff" points="160.33,-205.64 170.59,-202.99 160.91,-198.67 160.33,-205.64"/>
</a>
</g>
</g>
<!-- Node7 -->
<g id="Node000007" class="node">
<title>Node7</title>
<g id="a_Node000007"><a xlink:href="class_llama_library_1_1_callback_wrapper.html#a4206d466b5e3e4a6c95c04e2df4640ce" target="_top" xlink:title="Registers a log callback function for the Llama model.">
<polygon fill="white" stroke="#666666" points="406.5,-185 164.5,-185 164.5,-166 406.5,-166 406.5,-185"/>
<text text-anchor="middle" x="285.5" y="-173" font-family="Helvetica,sans-Serif" font-size="10.00">LlamaLibrary.CallbackWrapper.RegisterLogCallback</text>
</a>
</g>
</g>
<!-- Node1&#45;&gt;Node7 -->
<g id="edge6_Node000001_Node000007" class="edge">
<title>Node1&#45;&gt;Node7</title>
<g id="a_edge6_Node000001_Node000007"><a xlink:title=" ">
<path fill="none" stroke="#63b8ff" d="M112.07,-189.14C125,-188.12 139.32,-186.99 154.02,-185.82"/>
<polygon fill="#63b8ff" stroke="#63b8ff" points="154.56,-189.29 164.25,-185.01 154,-182.31 154.56,-189.29"/>
</a>
</g>
</g>
<!-- Node10 -->
<g id="Node000010" class="node">
<title>Node10</title>
<g id="a_Node000010"><a xlink:href="class_llama_library_1_1_callback_wrapper.html#a0411b900ff40cd0edb74d7465232241c" target="_top" xlink:title="Registers a token callback function for the Llama model.">
<polygon fill="white" stroke="#666666" points="411.5,-130 159.5,-130 159.5,-111 411.5,-111 411.5,-130"/>
<text text-anchor="middle" x="285.5" y="-118" font-family="Helvetica,sans-Serif" font-size="10.00">LlamaLibrary.CallbackWrapper.RegisterTokenCallback</text>
</a>
</g>
</g>
<!-- Node1&#45;&gt;Node10 -->
<g id="edge9_Node000001_Node000010" class="edge">
<title>Node1&#45;&gt;Node10</title>
<g id="a_edge9_Node000001_Node000010"><a xlink:title=" ">
<path fill="none" stroke="#63b8ff" d="M79.18,-183.92C97.45,-176.22 124.14,-165.43 148,-157.5 176.39,-148.07 208.67,-139.24 234.71,-132.57"/>
<polygon fill="#63b8ff" stroke="#63b8ff" points="235.89,-135.88 244.73,-130.03 234.17,-129.09 235.89,-135.88"/>
</a>
</g>
</g>
<!-- Node13 -->
<g id="Node000013" class="node">
<title>Node13</title>
<g id="a_Node000013"><a xlink:href="class_llama_library_1_1_file_wrapper.html#adf3f8c97164d49fd35efa91f740005a4" target="_top" xlink:title=" ">
<polygon fill="white" stroke="#666666" points="361.5,-56 209.5,-56 209.5,-37 361.5,-37 361.5,-56"/>
<text text-anchor="middle" x="285.5" y="-44" font-family="Helvetica,sans-Serif" font-size="10.00">LlamaLibrary.FileWrapper.Save</text>
</a>
</g>
</g>
<!-- Node1&#45;&gt;Node13 -->
<g id="edge12_Node000001_Node000013" class="edge">
<title>Node1&#45;&gt;Node13</title>
<g id="a_edge12_Node000001_Node000013"><a xlink:title=" ">
<path fill="none" stroke="#63b8ff" d="M64.52,-183.74C78.96,-165.57 112.29,-126.27 148,-102.5 176.99,-83.2 213.69,-68.6 241.74,-59.16"/>
<polygon fill="#63b8ff" stroke="#63b8ff" points="242.85,-62.48 251.27,-56.03 240.67,-55.82 242.85,-62.48"/>
</a>
</g>
</g>
<!-- Node5 -->
<g id="Node000005" class="node">
<title>Node5</title>
<g id="a_Node000005"><a xlink:href="class_llama_library_1_1_callback_wrapper.html#a6147ace2bde7e2352e4868621f3c95ba" target="_top" xlink:title="Sets the completion callback function for the native library.">
<polygon fill="white" stroke="#666666" points="742,-278 488,-278 488,-259 742,-259 742,-278"/>
<text text-anchor="middle" x="615" y="-266" font-family="Helvetica,sans-Serif" font-size="10.00">LlamaLibrary.CallbackWrapper.SetCompletionCallback</text>
</a>
</g>
</g>
<!-- Node4&#45;&gt;Node5 -->
<g id="edge4_Node000004_Node000005" class="edge">
<title>Node4&#45;&gt;Node5</title>
<g id="a_edge4_Node000004_Node000005"><a xlink:title=" ">
<path fill="none" stroke="#63b8ff" d="M385.1,-222.05C398.01,-224.51 410.93,-227.61 423,-231.5 440.22,-237.05 441.72,-245.14 459,-250.5 466.9,-252.95 475.13,-255.07 483.49,-256.91"/>
<polygon fill="#63b8ff" stroke="#63b8ff" points="482.84,-260.35 493.34,-258.94 484.25,-253.49 482.84,-260.35"/>
</a>
</g>
</g>
<!-- Node6 -->
<g id="Node000006" class="node">
<title>Node6</title>
<g id="a_Node000006"><a xlink:href="class_llama_library_1_1_callback_wrapper.html#a24f4396cd7ec5b8215e99195b4a88754" target="_top" xlink:title="Static method to handle the completion callback from the native library.">
<polygon fill="white" stroke="#666666" points="743.5,-241 486.5,-241 486.5,-222 743.5,-222 743.5,-241"/>
<text text-anchor="middle" x="615" y="-229" font-family="Helvetica,sans-Serif" font-size="10.00">LlamaLibrary.CallbackWrapper.StaticCompleteCallback</text>
</a>
</g>
</g>
<!-- Node4&#45;&gt;Node6 -->
<g id="edge5_Node000004_Node000006" class="edge">
<title>Node4&#45;&gt;Node6</title>
<g id="a_edge5_Node000004_Node000006"><a xlink:title=" ">
<path fill="none" stroke="#63b8ff" d="M423.02,-220.42C440.55,-221.44 458.51,-222.48 476.07,-223.5"/>
<polygon fill="#63b8ff" stroke="#63b8ff" points="476.16,-227.01 486.35,-224.09 476.57,-220.02 476.16,-227.01"/>
</a>
</g>
</g>
<!-- Node8 -->
<g id="Node000008" class="node">
<title>Node8</title>
<g id="a_Node000008"><a xlink:href="class_llama_library_1_1_callback_wrapper.html#ac701bd4b9a9c659277593ed2bfbf2267" target="_top" xlink:title="Sets the log callback function for the native library.">
<polygon fill="white" stroke="#666666" points="725.5,-204 504.5,-204 504.5,-185 725.5,-185 725.5,-204"/>
<text text-anchor="middle" x="615" y="-192" font-family="Helvetica,sans-Serif" font-size="10.00">LlamaLibrary.CallbackWrapper.SetLogCallback</text>
</a>
</g>
</g>
<!-- Node7&#45;&gt;Node8 -->
<g id="edge7_Node000007_Node000008" class="edge">
<title>Node7&#45;&gt;Node8</title>
<g id="a_edge7_Node000007_Node000008"><a xlink:title=" ">
<path fill="none" stroke="#63b8ff" d="M406.59,-182.47C435.17,-184.12 465.66,-185.89 494.22,-187.55"/>
<polygon fill="#63b8ff" stroke="#63b8ff" points="494.05,-191.05 504.24,-188.13 494.46,-184.06 494.05,-191.05"/>
</a>
</g>
</g>
<!-- Node9 -->
<g id="Node000009" class="node">
<title>Node9</title>
<g id="a_Node000009"><a xlink:href="class_llama_library_1_1_callback_wrapper.html#a6bd607fe69c92146a8f31cb3a63055d6" target="_top" xlink:title="Static method to handle the log callback from the native library.">
<polygon fill="white" stroke="#666666" points="730.5,-167 499.5,-167 499.5,-148 730.5,-148 730.5,-167"/>
<text text-anchor="middle" x="615" y="-155" font-family="Helvetica,sans-Serif" font-size="10.00">LlamaLibrary.CallbackWrapper.StaticLogCallback</text>
</a>
</g>
</g>
<!-- Node7&#45;&gt;Node9 -->
<g id="edge8_Node000007_Node000009" class="edge">
<title>Node7&#45;&gt;Node9</title>
<g id="a_edge8_Node000007_Node000009"><a xlink:title=" ">
<path fill="none" stroke="#63b8ff" d="M406.59,-168.9C433.46,-167.42 462.02,-165.85 489.09,-164.37"/>
<polygon fill="#63b8ff" stroke="#63b8ff" points="489.58,-167.84 499.38,-163.8 489.2,-160.85 489.58,-167.84"/>
</a>
</g>
</g>
<!-- Node11 -->
<g id="Node000011" class="node">
<title>Node11</title>
<g id="a_Node000011"><a xlink:href="class_llama_library_1_1_callback_wrapper.html#aef415ea31ed50c9275cd935e988f6573" target="_top" xlink:title="Sets the token callback function for the native library.">
<polygon fill="white" stroke="#666666" points="730.5,-130 499.5,-130 499.5,-111 730.5,-111 730.5,-130"/>
<text text-anchor="middle" x="615" y="-118" font-family="Helvetica,sans-Serif" font-size="10.00">LlamaLibrary.CallbackWrapper.SetTokenCallback</text>
</a>
</g>
</g>
<!-- Node10&#45;&gt;Node11 -->
<g id="edge10_Node000010_Node000011" class="edge">
<title>Node10&#45;&gt;Node11</title>
<g id="a_edge10_Node000010_Node000011"><a xlink:title=" ">
<path fill="none" stroke="#63b8ff" d="M411.72,-120.5C437.14,-120.5 463.88,-120.5 489.29,-120.5"/>
<polygon fill="#63b8ff" stroke="#63b8ff" points="489.33,-124 499.33,-120.5 489.33,-117 489.33,-124"/>
</a>
</g>
</g>
<!-- Node12 -->
<g id="Node000012" class="node">
<title>Node12</title>
<g id="a_Node000012"><a xlink:href="class_llama_library_1_1_callback_wrapper.html#a9e8c964c9fc6be21114be42214490eb2" target="_top" xlink:title="Static method to handle the token callback from the native library.">
<polygon fill="white" stroke="#666666" points="736,-93 494,-93 494,-74 736,-74 736,-93"/>
<text text-anchor="middle" x="615" y="-81" font-family="Helvetica,sans-Serif" font-size="10.00">LlamaLibrary.CallbackWrapper.StaticTokenCallback</text>
</a>
</g>
</g>
<!-- Node10&#45;&gt;Node12 -->
<g id="edge11_Node000010_Node000012" class="edge">
<title>Node10&#45;&gt;Node12</title>
<g id="a_edge11_Node000010_Node000012"><a xlink:title=" ">
<path fill="none" stroke="#63b8ff" d="M370.84,-110.97C416.31,-105.83 472.55,-99.48 519.49,-94.18"/>
<polygon fill="#63b8ff" stroke="#63b8ff" points="520.12,-97.63 529.66,-93.03 519.33,-90.67 520.12,-97.63"/>
</a>
</g>
</g>
<!-- Node14 -->
<g id="Node000014" class="node">
<title>Node14</title>
<g id="a_Node000014"><a xlink:href="class_llama_library_1_1libllama__lib_p_i_n_v_o_k_e.html#a2e2f829d671969cd417008a77a3b7445" target="_top" xlink:title=" ">
<polygon fill="white" stroke="#666666" points="763,-56 467,-56 467,-37 763,-37 763,-56"/>
<text text-anchor="middle" x="615" y="-44" font-family="Helvetica,sans-Serif" font-size="10.00">LlamaLibrary.libllama_libPINVOKE.FileWrapper_Save__SWIG_0</text>
</a>
</g>
</g>
<!-- Node13&#45;&gt;Node14 -->
<g id="edge13_Node000013_Node000014" class="edge">
<title>Node13&#45;&gt;Node14</title>
<g id="a_edge13_Node000013_Node000014"><a xlink:title=" ">
<path fill="none" stroke="#63b8ff" d="M361.64,-46.5C390.04,-46.5 423.55,-46.5 456.7,-46.5"/>
<polygon fill="#63b8ff" stroke="#63b8ff" points="456.97,-50 466.97,-46.5 456.97,-43 456.97,-50"/>
</a>
</g>
</g>
<!-- Node15 -->
<g id="Node000015" class="node">
<title>Node15</title>
<g id="a_Node000015"><a xlink:href="class_llama_library_1_1libllama__lib_p_i_n_v_o_k_e_1_1_s_w_i_g_pending_exception.html#a2718a73540850b42db7c89e9be3519ec" target="_top" xlink:title=" ">
<polygon fill="white" stroke="#666666" points="771,-19 459,-19 459,0 771,0 771,-19"/>
<text text-anchor="middle" x="615" y="-7" font-family="Helvetica,sans-Serif" font-size="10.00">LlamaLibrary.libllama_libPINVOKE.SWIGPendingException.Retrieve</text>
</a>
</g>
</g>
<!-- Node13&#45;&gt;Node15 -->
<g id="edge14_Node000013_Node000015" class="edge">
<title>Node13&#45;&gt;Node15</title>
<g id="a_edge14_Node000013_Node000015"><a xlink:title=" ">
<path fill="none" stroke="#63b8ff" d="M361.64,-38.01C408.54,-32.71 469.33,-25.84 519.49,-20.18"/>
<polygon fill="#63b8ff" stroke="#63b8ff" points="520.16,-23.62 529.7,-19.02 519.37,-16.67 520.16,-23.62"/>
</a>
</g>
</g>
</g>
</svg>
