<?xml version="1.0" encoding="UTF-8" standalone="no"?>
<!DOCTYPE svg PUBLIC "-//W3C//DTD SVG 1.1//EN"
 "http://www.w3.org/Graphics/SVG/1.1/DTD/svg11.dtd">
<!-- Generated by graphviz version 6.0.1 (20220911.1526)
 -->
<!-- Title: LlamaLibrary.LlamaControlVectorLoadInfos.CopyTo Pages: 1 -->
<svg width="520pt" height="45pt"
 viewBox="0.00 0.00 520.00 45.00" xmlns="http://www.w3.org/2000/svg" xmlns:xlink="http://www.w3.org/1999/xlink">
<g id="graph0" class="graph" transform="scale(1 1) rotate(0) translate(4 41)">
<title>LlamaLibrary.LlamaControlVectorLoadInfos.CopyTo</title>
<!-- Node1 -->
<g id="Node000001" class="node">
<title>Node1</title>
<g id="a_Node000001"><a xlink:title=" ">
<polygon fill="#999999" stroke="#666666" points="238,-19 0,-19 0,0 238,0 238,-19"/>
<text text-anchor="middle" x="119" y="-7" font-family="Helvetica,sans-Serif" font-size="10.00">LlamaLibrary.LlamaControlVectorLoadInfos.CopyTo</text>
</a>
</g>
</g>
<!-- Node2 -->
<g id="Node000002" class="node">
<title>Node2</title>
<g id="a_Node000002"><a xlink:href="$class_llama_library_1_1_llama_control_vector_load_infos.html#a750dadb6297f14fb29a155bc21d6f430" xlink:title=" ">
<polygon fill="white" stroke="#666666" points="512,-19 274,-19 274,0 512,0 512,-19"/>
<text text-anchor="middle" x="393" y="-7" font-family="Helvetica,sans-Serif" font-size="10.00">LlamaLibrary.LlamaControlVectorLoadInfos.CopyTo</text>
</a>
</g>
</g>
<!-- Node1&#45;&gt;Node2 -->
<g id="edge1_Node000001_Node000002" class="edge">
<title>Node1&#45;&gt;Node2</title>
<g id="a_edge1_Node000001_Node000002"><a xlink:title=" ">
<path fill="none" stroke="#63b8ff" d="M238.12,-9.5C246.47,-9.5 254.92,-9.5 263.34,-9.5"/>
<polygon fill="#63b8ff" stroke="#63b8ff" points="263.57,-13 273.57,-9.5 263.57,-6 263.57,-13"/>
</a>
</g>
</g>
<!-- Node2&#45;&gt;Node2 -->
<g id="edge2_Node000002_Node000002" class="edge">
<title>Node2&#45;&gt;Node2</title>
<g id="a_edge2_Node000002_Node000002"><a xlink:title=" ">
<path fill="none" stroke="#63b8ff" d="M350.77,-19.08C330.22,-27.73 344.3,-37 393,-37 431.05,-37 447.96,-31.34 443.74,-24.74"/>
<polygon fill="#63b8ff" stroke="#63b8ff" points="445.5,-21.71 435.23,-19.08 441.62,-27.54 445.5,-21.71"/>
</a>
</g>
</g>
</g>
</svg>
