<?xml version="1.0" encoding="UTF-8" standalone="no"?>
<!DOCTYPE svg PUBLIC "-//W3C//DTD SVG 1.1//EN"
 "http://www.w3.org/Graphics/SVG/1.1/DTD/svg11.dtd">
<!-- Generated by graphviz version 6.0.1 (20220911.1526)
 -->
<!-- Title: LlamaLibrary.LoggingContext.getCPtr Pages: 1 -->
<svg width="633pt" height="64pt"
 viewBox="0.00 0.00 633.00 64.00" xmlns="http://www.w3.org/2000/svg" xmlns:xlink="http://www.w3.org/1999/xlink">
<g id="graph0" class="graph" transform="scale(1 1) rotate(0) translate(4 60)">
<title>LlamaLibrary.LoggingContext.getCPtr</title>
<!-- Node1 -->
<g id="Node000001" class="node">
<title>Node1</title>
<g id="a_Node000001"><a xlink:title=" ">
<polygon fill="#999999" stroke="#666666" points="625,-37 446,-37 446,-18 625,-18 625,-37"/>
<text text-anchor="middle" x="535.5" y="-25" font-family="Helvetica,sans-Serif" font-size="10.00">LlamaLibrary.LoggingContext.getCPtr</text>
</a>
</g>
</g>
<!-- Node2 -->
<g id="Node000002" class="node">
<title>Node2</title>
<g id="a_Node000002"><a xlink:href="class_llama_library_1_1_async_llama_infrence.html#a7cc223c9533da0f040cfd02d7f944cf6" target="_top" xlink:title=" ">
<polygon fill="white" stroke="#666666" points="410,-37 191,-37 191,-18 410,-18 410,-37"/>
<text text-anchor="middle" x="300.5" y="-25" font-family="Helvetica,sans-Serif" font-size="10.00">LlamaLibrary.AsyncLlamaInfrence.SetupAsync</text>
</a>
</g>
</g>
<!-- Node1&#45;&gt;Node2 -->
<g id="edge1_Node000001_Node000002" class="edge">
<title>Node1&#45;&gt;Node2</title>
<g id="a_edge1_Node000001_Node000002"><a xlink:title=" ">
<path fill="none" stroke="#63b8ff" d="M435.63,-27.5C427.27,-27.5 418.78,-27.5 410.35,-27.5"/>
<polygon fill="#63b8ff" stroke="#63b8ff" points="435.75,-31 445.75,-27.5 435.75,-24 435.75,-31"/>
</a>
</g>
</g>
<!-- Node3 -->
<g id="Node000003" class="node">
<title>Node3</title>
<g id="a_Node000003"><a xlink:href="class_run_model_async.html#a4048431f59a00b4f27333815ecfaa0ce" target="_top" xlink:title="Method to start the asynchronous setup process for the model. Triggers the necessary state changes an...">
<polygon fill="white" stroke="#666666" points="141.5,-56 13.5,-56 13.5,-37 141.5,-37 141.5,-56"/>
<text text-anchor="middle" x="77.5" y="-44" font-family="Helvetica,sans-Serif" font-size="10.00">RunModelAsync.DoSetup</text>
</a>
</g>
</g>
<!-- Node2&#45;&gt;Node3 -->
<g id="edge2_Node000002_Node000003" class="edge">
<title>Node2&#45;&gt;Node3</title>
<g id="a_edge2_Node000002_Node000003"><a xlink:title=" ">
<path fill="none" stroke="#63b8ff" d="M180.64,-37.72C167.19,-38.88 153.9,-40.02 141.59,-41.08"/>
<polygon fill="#63b8ff" stroke="#63b8ff" points="181.28,-41.18 190.94,-36.83 180.68,-34.2 181.28,-41.18"/>
</a>
</g>
</g>
<!-- Node4 -->
<g id="Node000004" class="node">
<title>Node4</title>
<g id="a_Node000004"><a xlink:href="class_model_controller.html#a1fc046dc8dd8428ecb7a0c797b423397" target="_top" xlink:title="Constructor for initializing the ModelController with a binary asset. The constructor sets up the mod...">
<polygon fill="white" stroke="#666666" points="155,-19 0,-19 0,0 155,0 155,-19"/>
<text text-anchor="middle" x="77.5" y="-7" font-family="Helvetica,sans-Serif" font-size="10.00">ModelController.ModelController</text>
</a>
</g>
</g>
<!-- Node2&#45;&gt;Node4 -->
<g id="edge3_Node000002_Node000004" class="edge">
<title>Node2&#45;&gt;Node4</title>
<g id="a_edge3_Node000002_Node000004"><a xlink:title=" ">
<path fill="none" stroke="#63b8ff" d="M180.72,-17.83C172.04,-17.12 163.42,-16.42 155.08,-15.74"/>
<polygon fill="#63b8ff" stroke="#63b8ff" points="180.69,-21.33 190.94,-18.66 181.26,-14.36 180.69,-21.33"/>
</a>
</g>
</g>
</g>
</svg>
