<?xml version="1.0" encoding="UTF-8" standalone="no"?>
<!DOCTYPE svg PUBLIC "-//W3C//DTD SVG 1.1//EN"
 "http://www.w3.org/Graphics/SVG/1.1/DTD/svg11.dtd">
<!-- Generated by graphviz version 6.0.1 (20220911.1526)
 -->
<!-- Title: LlamaLibrary.SWIGTYPE_p_std__unordered_mapT_llama_token_float_t Pages: 1 -->
<svg width="586pt" height="183pt"
 viewBox="0.00 0.00 586.00 183.00" xmlns="http://www.w3.org/2000/svg" xmlns:xlink="http://www.w3.org/1999/xlink">
<g id="graph0" class="graph" transform="scale(1 1) rotate(0) translate(4 179)">
<title>LlamaLibrary.SWIGTYPE_p_std__unordered_mapT_llama_token_float_t</title>
<!-- Node1 -->
<g id="Node000001" class="node">
<title>Node1</title>
<g id="a_Node000001"><a xlink:title=" ">
<polygon fill="#999999" stroke="none" points="578,-79 0,-79 0,0 578,0 578,-79"/>
<text text-anchor="start" x="133" y="-66.5" font-family="Helvetica,sans-Serif" font-size="10.00">LlamaLibrary.SWIGTYPE_p_std__unordered_mapT_llama_token_float_t</text>
<text text-anchor="start" x="287" y="-51.5" font-family="Helvetica,sans-Serif" font-size="10.00"> </text>
<text text-anchor="start" x="4" y="-36.5" font-family="Helvetica,sans-Serif" font-size="10.00">~</text>
<text text-anchor="start" x="15" y="-36.5" font-family="Helvetica,sans-Serif" font-size="10.00">SWIGTYPE_p_std__unordered_mapT_llama_token_float_t(global::System.IntPtr cPtr, bool futureUse)</text>
<text text-anchor="start" x="4" y="-21.5" font-family="Helvetica,sans-Serif" font-size="10.00">~</text>
<text text-anchor="start" x="15" y="-21.5" font-family="Helvetica,sans-Serif" font-size="10.00">static global::System.Runtime.InteropServices.HandleRef getCPtr(SWIGTYPE_p_std__unordered_mapT_llama_token_float_t obj)</text>
<text text-anchor="start" x="4.5" y="-6.5" font-family="Helvetica,sans-Serif" font-size="10.00">#</text>
<text text-anchor="start" x="15" y="-6.5" font-family="Helvetica,sans-Serif" font-size="10.00">SWIGTYPE_p_std__unordered_mapT_llama_token_float_t()</text>
<polygon fill="#666666" stroke="#666666" points="0,-61.5 0,-61.5 578,-61.5 578,-61.5 0,-61.5"/>
<polygon fill="#666666" stroke="#666666" points="0,-46.5 0,-46.5 578,-46.5 578,-46.5 0,-46.5"/>
<polygon fill="none" stroke="#666666" points="0,0 0,-79 578,-79 578,0 0,0"/>
</a>
</g>
</g>
<!-- Node2 -->
<g id="Node000002" class="node">
<title>Node2</title>
<g id="a_Node000002"><a xlink:title=" ">
<polygon fill="white" stroke="none" points="327.5,-175 250.5,-175 250.5,-126 327.5,-126 327.5,-175"/>
<text text-anchor="start" x="256" y="-162.5" font-family="Helvetica,sans-Serif" font-size="10.00">InteropServices</text>
<text text-anchor="start" x="287.5" y="-147.5" font-family="Helvetica,sans-Serif" font-size="10.00"> </text>
<text text-anchor="start" x="287.5" y="-132.5" font-family="Helvetica,sans-Serif" font-size="10.00"> </text>
<polygon fill="#666666" stroke="#666666" points="251,-157.5 251,-157.5 328,-157.5 328,-157.5 251,-157.5"/>
<polygon fill="#666666" stroke="#666666" points="251,-142.5 251,-142.5 328,-142.5 328,-142.5 251,-142.5"/>
<polygon fill="none" stroke="#666666" points="250.5,-126 250.5,-175 327.5,-175 327.5,-126 250.5,-126"/>
</a>
</g>
</g>
<!-- Node2&#45;&gt;Node1 -->
<g id="edge1_Node000001_Node000002" class="edge">
<title>Node2&#45;&gt;Node1</title>
<g id="a_edge1_Node000001_Node000002"><a xlink:title=" ">
<path fill="none" stroke="#63b8ff" d="M289,-125.85C289,-115.72 289,-103.47 289,-91.45"/>
<polygon fill="none" stroke="#63b8ff" points="289,-91.1 285,-85.1 289,-79.1 293,-85.1 289,-91.1"/>
</a>
</g>
<text text-anchor="middle" x="312" y="-100" font-family="Helvetica,sans-Serif" font-size="10.00" fill="grey"> &#45;swigCPtr</text>
</g>
</g>
</svg>
