<?xml version="1.0" encoding="UTF-8" standalone="no"?>
<!DOCTYPE svg PUBLIC "-//W3C//DTD SVG 1.1//EN"
 "http://www.w3.org/Graphics/SVG/1.1/DTD/svg11.dtd">
<!-- Generated by graphviz version 6.0.1 (20220911.1526)
 -->
<!-- Title: Assets.StyledLines.Runtime.DialogUtils.CharacterStyleMapper.SetStyleInputField Pages: 1 -->
<svg width="1152pt" height="46pt"
 viewBox="0.00 0.00 1152.00 46.00" xmlns="http://www.w3.org/2000/svg" xmlns:xlink="http://www.w3.org/1999/xlink">
<g id="graph0" class="graph" transform="scale(1 1) rotate(0) translate(4 42)">
<title>Assets.StyledLines.Runtime.DialogUtils.CharacterStyleMapper.SetStyleInputField</title>
<!-- Node1 -->
<g id="Node000001" class="node">
<title>Node1</title>
<g id="a_Node000001"><a xlink:title=" ">
<polygon fill="#999999" stroke="#666666" points="1144,-19 772,-19 772,0 1144,0 1144,-19"/>
<text text-anchor="middle" x="958" y="-7" font-family="Helvetica,sans-Serif" font-size="10.00">Assets.StyledLines.Runtime.DialogUtils.CharacterStyleMapper.SetStyleInputField</text>
</a>
</g>
</g>
<!-- Node2 -->
<g id="Node000002" class="node">
<title>Node2</title>
<g id="a_Node000002"><a xlink:href="class_assets_1_1_styled_lines_1_1_runtime_1_1_dialog_utils_1_1_character_style_mapper.html#a827a4f53712682044a66c0262a5ffe2a" target="_top" xlink:title=" ">
<polygon fill="white" stroke="#666666" points="736,-38 350,-38 350,-19 736,-19 736,-38"/>
<text text-anchor="middle" x="543" y="-26" font-family="Helvetica,sans-Serif" font-size="10.00">Assets.StyledLines.Runtime.DialogUtils.CharacterStyleMapper.OnCharacterSelected</text>
</a>
</g>
</g>
<!-- Node1&#45;&gt;Node2 -->
<g id="edge1_Node000001_Node000002" class="edge">
<title>Node1&#45;&gt;Node2</title>
<g id="a_edge1_Node000001_Node000002"><a xlink:title=" ">
<path fill="none" stroke="#63b8ff" d="M761.87,-18.48C753.28,-18.87 744.67,-19.27 736.08,-19.66"/>
<polygon fill="#63b8ff" stroke="#63b8ff" points="762.11,-21.97 771.94,-18.01 761.79,-14.98 762.11,-21.97"/>
</a>
</g>
</g>
<!-- Node3 -->
<g id="Node000003" class="node">
<title>Node3</title>
<g id="a_Node000003"><a xlink:href="class_assets_1_1_styled_lines_1_1_runtime_1_1_dialog_utils_1_1_character_style_mapper.html#a64534ca01d88303bb6b781ea0c96edf6" target="_top" xlink:title=" ">
<polygon fill="white" stroke="#666666" points="314,-19 0,-19 0,0 314,0 314,-19"/>
<text text-anchor="middle" x="157" y="-7" font-family="Helvetica,sans-Serif" font-size="10.00">Assets.StyledLines.Runtime.DialogUtils.CharacterStyleMapper.Start</text>
</a>
</g>
</g>
<!-- Node1&#45;&gt;Node3 -->
<g id="edge3_Node000001_Node000003" class="edge">
<title>Node1&#45;&gt;Node3</title>
<g id="a_edge3_Node000001_Node000003"><a xlink:title=" ">
<path fill="none" stroke="#63b8ff" d="M761.69,-9.5C624.05,-9.5 442.19,-9.5 314.17,-9.5"/>
<polygon fill="#63b8ff" stroke="#63b8ff" points="761.94,-13 771.94,-9.5 761.94,-6 761.94,-13"/>
</a>
</g>
</g>
<!-- Node2&#45;&gt;Node3 -->
<g id="edge2_Node000002_Node000003" class="edge">
<title>Node2&#45;&gt;Node3</title>
<g id="a_edge2_Node000002_Node000003"><a xlink:title=" ">
<path fill="none" stroke="#63b8ff" d="M339.69,-18.49C331.15,-18.07 322.64,-17.65 314.22,-17.23"/>
<polygon fill="#63b8ff" stroke="#63b8ff" points="339.56,-21.99 349.72,-18.99 339.9,-15 339.56,-21.99"/>
</a>
</g>
</g>
</g>
</svg>
