<?xml version="1.0" encoding="UTF-8" standalone="no"?>
<!DOCTYPE svg PUBLIC "-//W3C//DTD SVG 1.1//EN"
 "http://www.w3.org/Graphics/SVG/1.1/DTD/svg11.dtd">
<!-- Generated by graphviz version 6.0.1 (20220911.1526)
 -->
<!-- Title: LlamaLibrary.SWIGTYPE_p_llama_control_vector_load_info.getCPtr Pages: 1 -->
<svg width="960pt" height="156pt"
 viewBox="0.00 0.00 960.00 156.00" xmlns="http://www.w3.org/2000/svg" xmlns:xlink="http://www.w3.org/1999/xlink">
<g id="graph0" class="graph" transform="scale(1 1) rotate(0) translate(4 152)">
<title>LlamaLibrary.SWIGTYPE_p_llama_control_vector_load_info.getCPtr</title>
<!-- Node1 -->
<g id="Node000001" class="node">
<title>Node1</title>
<g id="a_Node000001"><a xlink:title=" ">
<polygon fill="#999999" stroke="#666666" points="952,-74 641,-74 641,-55 952,-55 952,-74"/>
<text text-anchor="middle" x="796.5" y="-62" font-family="Helvetica,sans-Serif" font-size="10.00">LlamaLibrary.SWIGTYPE_p_llama_control_vector_load_info.getCPtr</text>
</a>
</g>
</g>
<!-- Node2 -->
<g id="Node000002" class="node">
<title>Node2</title>
<g id="a_Node000002"><a xlink:href="class_llama_library_1_1_llama_control_vector_load_infos.html#a222cdf8694abce8cdc9977d8872b52c5" target="_top" xlink:title=" ">
<polygon fill="white" stroke="#666666" points="597.5,-130 375.5,-130 375.5,-111 597.5,-111 597.5,-130"/>
<text text-anchor="middle" x="486.5" y="-118" font-family="Helvetica,sans-Serif" font-size="10.00">LlamaLibrary.LlamaControlVectorLoadInfos.Add</text>
</a>
</g>
</g>
<!-- Node1&#45;&gt;Node2 -->
<g id="edge1_Node000001_Node000002" class="edge">
<title>Node1&#45;&gt;Node2</title>
<g id="a_edge1_Node000001_Node000002"><a xlink:title=" ">
<path fill="none" stroke="#63b8ff" d="M740.73,-76.1C702.73,-83.99 650.88,-94.41 605,-102.5 588.23,-105.46 570.07,-108.37 553.15,-110.98"/>
<polygon fill="#63b8ff" stroke="#63b8ff" points="741.5,-79.52 750.57,-74.05 740.07,-72.67 741.5,-79.52"/>
</a>
</g>
</g>
<!-- Node5 -->
<g id="Node000005" class="node">
<title>Node5</title>
<g id="a_Node000005"><a xlink:href="class_llama_library_1_1_llama_control_vector_load_infos.html#aae6ca3b8d5a74255d0b2e82abc56e61d" target="_top" xlink:title=" ">
<polygon fill="white" stroke="#666666" points="601,-93 372,-93 372,-74 601,-74 601,-93"/>
<text text-anchor="middle" x="486.5" y="-81" font-family="Helvetica,sans-Serif" font-size="10.00">LlamaLibrary.LlamaControlVectorLoadInfos.Insert</text>
</a>
</g>
</g>
<!-- Node1&#45;&gt;Node5 -->
<g id="edge4_Node000001_Node000005" class="edge">
<title>Node1&#45;&gt;Node5</title>
<g id="a_edge4_Node000001_Node000005"><a xlink:title=" ">
<path fill="none" stroke="#63b8ff" d="M631.04,-74.65C621.04,-75.26 611.1,-75.88 601.39,-76.47"/>
<polygon fill="#63b8ff" stroke="#63b8ff" points="631.28,-78.14 641.05,-74.03 630.85,-71.15 631.28,-78.14"/>
</a>
</g>
</g>
<!-- Node6 -->
<g id="Node000006" class="node">
<title>Node6</title>
<g id="a_Node000006"><a xlink:href="class_llama_library_1_1_llama_control_vector_load_infos.html#a029f9ef01bfc12784fafa66f8c8ad473" target="_top" xlink:title=" ">
<polygon fill="white" stroke="#666666" points="604.5,-56 368.5,-56 368.5,-37 604.5,-37 604.5,-56"/>
<text text-anchor="middle" x="486.5" y="-44" font-family="Helvetica,sans-Serif" font-size="10.00">LlamaLibrary.LlamaControlVectorLoadInfos.Repeat</text>
</a>
</g>
</g>
<!-- Node1&#45;&gt;Node6 -->
<g id="edge5_Node000001_Node000006" class="edge">
<title>Node1&#45;&gt;Node6</title>
<g id="a_edge5_Node000001_Node000006"><a xlink:title=" ">
<path fill="none" stroke="#63b8ff" d="M630.37,-54.85C621.67,-54.34 613.01,-53.84 604.52,-53.34"/>
<polygon fill="#63b8ff" stroke="#63b8ff" points="630.41,-58.36 640.6,-55.45 630.82,-51.37 630.41,-58.36"/>
</a>
</g>
</g>
<!-- Node7 -->
<g id="Node000007" class="node">
<title>Node7</title>
<g id="a_Node000007"><a xlink:href="class_llama_library_1_1_llama_control_vector_load_infos.html#abf96e95a9ce37473da566ad56ef0b846" target="_top" xlink:title=" ">
<polygon fill="white" stroke="#666666" points="605,-19 368,-19 368,0 605,0 605,-19"/>
<text text-anchor="middle" x="486.5" y="-7" font-family="Helvetica,sans-Serif" font-size="10.00">LlamaLibrary.LlamaControlVectorLoadInfos.setitem</text>
</a>
</g>
</g>
<!-- Node1&#45;&gt;Node7 -->
<g id="edge6_Node000001_Node000007" class="edge">
<title>Node1&#45;&gt;Node7</title>
<g id="a_edge6_Node000001_Node000007"><a xlink:title=" ">
<path fill="none" stroke="#63b8ff" d="M736.75,-52.98C699.13,-45.71 649.24,-36.26 605,-28.5 586.58,-25.27 566.5,-21.95 548.23,-19.01"/>
<polygon fill="#63b8ff" stroke="#63b8ff" points="736.54,-56.51 747.02,-54.97 737.87,-49.63 736.54,-56.51"/>
</a>
</g>
</g>
<!-- Node3 -->
<g id="Node000003" class="node">
<title>Node3</title>
<g id="a_Node000003"><a xlink:href="class_llama_library_1_1_llama_control_vector_load_infos.html#ae2049f416cafc20c1b69853790f1938d" target="_top" xlink:title=" ">
<polygon fill="white" stroke="#666666" points="332,-148 0,-148 0,-129 332,-129 332,-148"/>
<text text-anchor="middle" x="166" y="-136" font-family="Helvetica,sans-Serif" font-size="10.00">LlamaLibrary.LlamaControlVectorLoadInfos.LlamaControlVectorLoadInfos</text>
</a>
</g>
</g>
<!-- Node2&#45;&gt;Node3 -->
<g id="edge2_Node000002_Node000003" class="edge">
<title>Node2&#45;&gt;Node3</title>
<g id="a_edge2_Node000002_Node000003"><a xlink:title=" ">
<path fill="none" stroke="#63b8ff" d="M365.16,-127.3C354.35,-127.91 343.28,-128.54 332.17,-129.17"/>
<polygon fill="#63b8ff" stroke="#63b8ff" points="365.66,-130.78 375.44,-126.72 365.26,-123.79 365.66,-130.78"/>
</a>
</g>
</g>
<!-- Node4 -->
<g id="Node000004" class="node">
<title>Node4</title>
<g id="a_Node000004"><a xlink:href="class_llama_library_1_1_llama_control_vector_load_infos.html#a1fb1b787b132c1476b9d4fef1791b769" target="_top" xlink:title=" ">
<polygon fill="white" stroke="#666666" points="332,-111 0,-111 0,-92 332,-92 332,-111"/>
<text text-anchor="middle" x="166" y="-99" font-family="Helvetica,sans-Serif" font-size="10.00">LlamaLibrary.LlamaControlVectorLoadInfos.LlamaControlVectorLoadInfos</text>
</a>
</g>
</g>
<!-- Node2&#45;&gt;Node4 -->
<g id="edge3_Node000002_Node000004" class="edge">
<title>Node2&#45;&gt;Node4</title>
<g id="a_edge3_Node000002_Node000004"><a xlink:title=" ">
<path fill="none" stroke="#63b8ff" d="M365.28,-113.33C352.51,-112.57 339.38,-111.78 326.25,-111"/>
<polygon fill="#63b8ff" stroke="#63b8ff" points="365.25,-116.83 375.44,-113.93 365.67,-109.85 365.25,-116.83"/>
</a>
</g>
</g>
</g>
</svg>
