<?xml version="1.0" encoding="UTF-8" standalone="no"?>
<!DOCTYPE svg PUBLIC "-//W3C//DTD SVG 1.1//EN"
 "http://www.w3.org/Graphics/SVG/1.1/DTD/svg11.dtd">
<!-- Generated by graphviz version 6.0.1 (20220911.1526)
 -->
<!-- Title: LlamaLibrary.LlamaControlVectorLoadInfos.GetRange Pages: 1 -->
<svg width="637pt" height="101pt"
 viewBox="0.00 0.00 637.00 101.00" xmlns="http://www.w3.org/2000/svg" xmlns:xlink="http://www.w3.org/1999/xlink">
<g id="graph0" class="graph" transform="scale(1 1) rotate(0) translate(4 97)">
<title>LlamaLibrary.LlamaControlVectorLoadInfos.GetRange</title>
<!-- Node1 -->
<g id="Node000001" class="node">
<title>Node1</title>
<g id="a_Node000001"><a xlink:title=" ">
<polygon fill="#999999" stroke="#666666" points="248,-56 0,-56 0,-37 248,-37 248,-56"/>
<text text-anchor="middle" x="124" y="-44" font-family="Helvetica,sans-Serif" font-size="10.00">LlamaLibrary.LlamaControlVectorLoadInfos.GetRange</text>
</a>
</g>
</g>
<!-- Node2 -->
<g id="Node000002" class="node">
<title>Node2</title>
<g id="a_Node000002"><a xlink:href="class_llama_library_1_1_llama_control_vector_load_infos.html#a097f2296c3c09d05d43ffc8d9a59a4fc" target="_top" xlink:title=" ">
<polygon fill="white" stroke="#666666" points="622.5,-93 290.5,-93 290.5,-74 622.5,-74 622.5,-93"/>
<text text-anchor="middle" x="456.5" y="-81" font-family="Helvetica,sans-Serif" font-size="10.00">LlamaLibrary.LlamaControlVectorLoadInfos.LlamaControlVectorLoadInfos</text>
</a>
</g>
</g>
<!-- Node1&#45;&gt;Node2 -->
<g id="edge1_Node000001_Node000002" class="edge">
<title>Node1&#45;&gt;Node2</title>
<g id="a_edge1_Node000001_Node000002"><a xlink:title=" ">
<path fill="none" stroke="#63b8ff" d="M202.61,-56C228.49,-59.11 257.48,-62.52 284,-65.5 306.06,-67.98 329.73,-70.53 352.22,-72.9"/>
<polygon fill="#63b8ff" stroke="#63b8ff" points="352.15,-76.41 362.46,-73.98 352.88,-69.45 352.15,-76.41"/>
</a>
</g>
</g>
<!-- Node3 -->
<g id="Node000003" class="node">
<title>Node3</title>
<g id="a_Node000003"><a xlink:href="class_llama_library_1_1libllama__lib_p_i_n_v_o_k_e.html#a61daebf06c5c1cf6dbc2073a8f2966f1" target="_top" xlink:title=" ">
<polygon fill="white" stroke="#666666" points="629,-56 284,-56 284,-37 629,-37 629,-56"/>
<text text-anchor="middle" x="456.5" y="-44" font-family="Helvetica,sans-Serif" font-size="10.00">LlamaLibrary.libllama_libPINVOKE.LlamaControlVectorLoadInfos_GetRange</text>
</a>
</g>
</g>
<!-- Node1&#45;&gt;Node3 -->
<g id="edge2_Node000001_Node000003" class="edge">
<title>Node1&#45;&gt;Node3</title>
<g id="a_edge2_Node000001_Node000003"><a xlink:title=" ">
<path fill="none" stroke="#63b8ff" d="M248.07,-46.5C256.51,-46.5 265.11,-46.5 273.77,-46.5"/>
<polygon fill="#63b8ff" stroke="#63b8ff" points="273.96,-50 283.96,-46.5 273.96,-43 273.96,-50"/>
</a>
</g>
</g>
<!-- Node4 -->
<g id="Node000004" class="node">
<title>Node4</title>
<g id="a_Node000004"><a xlink:href="class_llama_library_1_1libllama__lib_p_i_n_v_o_k_e_1_1_s_w_i_g_pending_exception.html#a2718a73540850b42db7c89e9be3519ec" target="_top" xlink:title=" ">
<polygon fill="white" stroke="#666666" points="612.5,-19 300.5,-19 300.5,0 612.5,0 612.5,-19"/>
<text text-anchor="middle" x="456.5" y="-7" font-family="Helvetica,sans-Serif" font-size="10.00">LlamaLibrary.libllama_libPINVOKE.SWIGPendingException.Retrieve</text>
</a>
</g>
</g>
<!-- Node1&#45;&gt;Node4 -->
<g id="edge3_Node000001_Node000004" class="edge">
<title>Node1&#45;&gt;Node4</title>
<g id="a_edge3_Node000001_Node000004"><a xlink:title=" ">
<path fill="none" stroke="#63b8ff" d="M208.75,-36.98C233.02,-34.23 259.57,-31.24 284,-28.5 308.33,-25.77 334.61,-22.85 359.11,-20.14"/>
<polygon fill="#63b8ff" stroke="#63b8ff" points="359.57,-23.61 369.13,-19.03 358.8,-16.65 359.57,-23.61"/>
</a>
</g>
</g>
</g>
</svg>
