<?xml version="1.0" encoding="UTF-8" standalone="no"?>
<!DOCTYPE svg PUBLIC "-//W3C//DTD SVG 1.1//EN"
 "http://www.w3.org/Graphics/SVG/1.1/DTD/svg11.dtd">
<!-- Generated by graphviz version 6.0.1 (20220911.1526)
 -->
<!-- Title: LlamaLibrary.Strings.Insert Pages: 1 -->
<svg width="489pt" height="64pt"
 viewBox="0.00 0.00 489.00 64.00" xmlns="http://www.w3.org/2000/svg" xmlns:xlink="http://www.w3.org/1999/xlink">
<g id="graph0" class="graph" transform="scale(1 1) rotate(0) translate(4 60)">
<title>LlamaLibrary.Strings.Insert</title>
<!-- Node1 -->
<g id="Node000001" class="node">
<title>Node1</title>
<g id="a_Node000001"><a xlink:title=" ">
<polygon fill="#999999" stroke="#666666" points="133,-37 0,-37 0,-18 133,-18 133,-37"/>
<text text-anchor="middle" x="66.5" y="-25" font-family="Helvetica,sans-Serif" font-size="10.00">LlamaLibrary.Strings.Insert</text>
</a>
</g>
</g>
<!-- Node2 -->
<g id="Node000002" class="node">
<title>Node2</title>
<g id="a_Node000002"><a xlink:href="class_llama_library_1_1libllama__lib_p_i_n_v_o_k_e_1_1_s_w_i_g_pending_exception.html#a2718a73540850b42db7c89e9be3519ec" target="_top" xlink:title=" ">
<polygon fill="white" stroke="#666666" points="481,-56 169,-56 169,-37 481,-37 481,-56"/>
<text text-anchor="middle" x="325" y="-44" font-family="Helvetica,sans-Serif" font-size="10.00">LlamaLibrary.libllama_libPINVOKE.SWIGPendingException.Retrieve</text>
</a>
</g>
</g>
<!-- Node1&#45;&gt;Node2 -->
<g id="edge1_Node000001_Node000002" class="edge">
<title>Node1&#45;&gt;Node2</title>
<g id="a_edge1_Node000001_Node000002"><a xlink:title=" ">
<path fill="none" stroke="#63b8ff" d="M133.22,-32.37C149.38,-33.57 167.29,-34.89 185.47,-36.24"/>
<polygon fill="#63b8ff" stroke="#63b8ff" points="185.36,-39.74 195.6,-36.99 185.88,-32.76 185.36,-39.74"/>
</a>
</g>
</g>
<!-- Node3 -->
<g id="Node000003" class="node">
<title>Node3</title>
<g id="a_Node000003"><a xlink:href="class_llama_library_1_1libllama__lib_p_i_n_v_o_k_e.html#afea00c9c2a29a320d841b05bc937d361" target="_top" xlink:title=" ">
<polygon fill="white" stroke="#666666" points="440,-19 210,-19 210,0 440,0 440,-19"/>
<text text-anchor="middle" x="325" y="-7" font-family="Helvetica,sans-Serif" font-size="10.00">LlamaLibrary.libllama_libPINVOKE.Strings_Insert</text>
</a>
</g>
</g>
<!-- Node1&#45;&gt;Node3 -->
<g id="edge2_Node000001_Node000003" class="edge">
<title>Node1&#45;&gt;Node3</title>
<g id="a_edge2_Node000001_Node000003"><a xlink:title=" ">
<path fill="none" stroke="#63b8ff" d="M133.22,-22.89C153.52,-21.46 176.59,-19.84 199.5,-18.24"/>
<polygon fill="#63b8ff" stroke="#63b8ff" points="199.92,-21.72 209.65,-17.52 199.43,-14.73 199.92,-21.72"/>
</a>
</g>
</g>
</g>
</svg>
