<?xml version="1.0" encoding="UTF-8" standalone="no"?>
<!DOCTYPE svg PUBLIC "-//W3C//DTD SVG 1.1//EN"
 "http://www.w3.org/Graphics/SVG/1.1/DTD/svg11.dtd">
<!-- Generated by graphviz version 6.0.1 (20220911.1526)
 -->
<!-- Title: LlamaLibrary.Strings.StringsEnumerator Pages: 1 -->
<svg width="472pt" height="262pt"
 viewBox="0.00 0.00 472.00 262.00" xmlns="http://www.w3.org/2000/svg" xmlns:xlink="http://www.w3.org/1999/xlink">

<svg id="main" version="1.1" xmlns="http://www.w3.org/2000/svg" xmlns:xlink="http://www.w3.org/1999/xlink" xml:space="preserve" onload="init(evt)">
<style type="text/css"><![CDATA[
.node, .edge {opacity: 0.7;}
.node.selected, .edge.selected {opacity: 1;}
.edge:hover path { stroke: red; }
.edge:hover polygon { stroke: red; fill: red; }
]]></style>
<script type="application/ecmascript" xlink:href="svg.min.js"/>
<svg id="graph" class="graph">
<g id="graph0" class="graph" transform="scale(1 1) rotate(0) translate(4 258)">
<title>LlamaLibrary.Strings.StringsEnumerator</title>
<!-- Node1 -->
<g id="Node000001" class="node">
<title>Node1</title>
<g id="a_Node000001"><a xlink:title=" ">
<polygon fill="#999999" stroke="none" points="340,-169 82,-169 82,0 340,0 340,-169"/>
<text text-anchor="start" x="124" y="-156.5" font-family="Helvetica,sans-Serif" font-size="10.00">LlamaLibrary.Strings.StringsEnumerator</text>
<text text-anchor="start" x="86" y="-141.5" font-family="Helvetica,sans-Serif" font-size="10.00">+</text>
<text text-anchor="start" x="97" y="-141.5" font-family="Helvetica,sans-Serif" font-size="10.00">string Current</text>
<text text-anchor="start" x="86" y="-126.5" font-family="Helvetica,sans-Serif" font-size="10.00">+</text>
<text text-anchor="start" x="97" y="-126.5" font-family="Helvetica,sans-Serif" font-size="10.00">object global::System.Collections.IEnumerator. Current</text>
<text text-anchor="start" x="87.5" y="-111.5" font-family="Helvetica,sans-Serif" font-size="10.00">&#45;</text>
<text text-anchor="start" x="97" y="-111.5" font-family="Helvetica,sans-Serif" font-size="10.00">Strings collectionRef</text>
<text text-anchor="start" x="87.5" y="-96.5" font-family="Helvetica,sans-Serif" font-size="10.00">&#45;</text>
<text text-anchor="start" x="97" y="-96.5" font-family="Helvetica,sans-Serif" font-size="10.00">int currentIndex</text>
<text text-anchor="start" x="87.5" y="-81.5" font-family="Helvetica,sans-Serif" font-size="10.00">&#45;</text>
<text text-anchor="start" x="97" y="-81.5" font-family="Helvetica,sans-Serif" font-size="10.00">object currentObject</text>
<text text-anchor="start" x="87.5" y="-66.5" font-family="Helvetica,sans-Serif" font-size="10.00">&#45;</text>
<text text-anchor="start" x="97" y="-66.5" font-family="Helvetica,sans-Serif" font-size="10.00">int currentSize</text>
<text text-anchor="start" x="86" y="-51.5" font-family="Helvetica,sans-Serif" font-size="10.00">+</text>
<text text-anchor="start" x="97" y="-51.5" font-family="Helvetica,sans-Serif" font-size="10.00">void Dispose()</text>
<text text-anchor="start" x="86" y="-36.5" font-family="Helvetica,sans-Serif" font-size="10.00">+</text>
<text text-anchor="start" x="97" y="-36.5" font-family="Helvetica,sans-Serif" font-size="10.00">bool MoveNext()</text>
<text text-anchor="start" x="86" y="-21.5" font-family="Helvetica,sans-Serif" font-size="10.00">+</text>
<text text-anchor="start" x="97" y="-21.5" font-family="Helvetica,sans-Serif" font-size="10.00">void Reset()</text>
<text text-anchor="start" x="86" y="-6.5" font-family="Helvetica,sans-Serif" font-size="10.00">+</text>
<text text-anchor="start" x="97" y="-6.5" font-family="Helvetica,sans-Serif" font-size="10.00">StringsEnumerator(Strings collection)</text>
<polygon fill="#666666" stroke="#666666" points="82,-151.5 82,-151.5 340,-151.5 340,-151.5 82,-151.5"/>
<polygon fill="#666666" stroke="#666666" points="82,-61.5 82,-61.5 95,-61.5 95,-61.5 82,-61.5"/>
<polygon fill="#666666" stroke="#666666" points="95,-61.5 95,-61.5 340,-61.5 340,-61.5 95,-61.5"/>
<polygon fill="none" stroke="#666666" points="82,0 82,-169 340,-169 340,0 82,0"/>
</a>
</g>
</g>
<!-- Node2 -->
<g id="Node000002" class="node">
<title>Node2</title>
<g id="a_Node000002"><a xlink:title=" ">
<polygon fill="white" stroke="none" points="182,-254 0,-254 0,-205 182,-205 182,-254"/>
<text text-anchor="start" x="5" y="-241.5" font-family="Helvetica,sans-Serif" font-size="10.00">global::SystemCollections::IEnumerator</text>
<text text-anchor="start" x="89" y="-226.5" font-family="Helvetica,sans-Serif" font-size="10.00"> </text>
<text text-anchor="start" x="89" y="-211.5" font-family="Helvetica,sans-Serif" font-size="10.00"> </text>
<polygon fill="#666666" stroke="#666666" points="0,-236.5 0,-236.5 182,-236.5 182,-236.5 0,-236.5"/>
<polygon fill="#666666" stroke="#666666" points="0,-221.5 0,-221.5 182,-221.5 182,-221.5 0,-221.5"/>
<polygon fill="none" stroke="#666666" points="0,-205 0,-254 182,-254 182,-205 0,-205"/>
</a>
</g>
</g>
<!-- Node2&#45;&gt;Node1 -->
<g id="edge1_Node000001_Node000002" class="edge">
<title>Node2&#45;&gt;Node1</title>
<g id="a_edge1_Node000001_Node000002"><a xlink:title=" ">
<path fill="none" stroke="#63b8ff" d="M117.34,-197.12C124.46,-188.63 132.52,-179.02 140.85,-169.1"/>
<polygon fill="none" stroke="#63b8ff" points="114.56,-194.98 110.82,-204.89 119.92,-199.48 114.56,-194.98"/>
</a>
</g>
</g>
<!-- Node3 -->
<g id="Node000003" class="node">
<title>Node3</title>
<g id="a_Node000003"><a xlink:title=" ">
<polygon fill="white" stroke="none" points="464,-254 200,-254 200,-205 464,-205 464,-254"/>
<text text-anchor="start" x="205" y="-241.5" font-family="Helvetica,sans-Serif" font-size="10.00">global::SystemCollections::Generic::IEnumerator&lt; string &gt;</text>
<text text-anchor="start" x="330" y="-226.5" font-family="Helvetica,sans-Serif" font-size="10.00"> </text>
<text text-anchor="start" x="330" y="-211.5" font-family="Helvetica,sans-Serif" font-size="10.00"> </text>
<polygon fill="#666666" stroke="#666666" points="200,-236.5 200,-236.5 464,-236.5 464,-236.5 200,-236.5"/>
<polygon fill="#666666" stroke="#666666" points="200,-221.5 200,-221.5 464,-221.5 464,-221.5 200,-221.5"/>
<polygon fill="none" stroke="#666666" points="200,-205 200,-254 464,-254 464,-205 200,-205"/>
</a>
</g>
</g>
<!-- Node3&#45;&gt;Node1 -->
<g id="edge2_Node000001_Node000003" class="edge">
<title>Node3&#45;&gt;Node1</title>
<g id="a_edge2_Node000001_Node000003"><a xlink:title=" ">
<path fill="none" stroke="#63b8ff" d="M305.44,-197.12C298.26,-188.63 290.13,-179.02 281.74,-169.1"/>
<polygon fill="none" stroke="#63b8ff" points="302.89,-199.51 312.02,-204.89 308.23,-194.99 302.89,-199.51"/>
</a>
</g>
</g>
</g>
</svg>
</svg>

<style type='text/css'>
<![CDATA[
[data-mouse-over-selected='false'] { opacity: 0.7; }
[data-mouse-over-selected='true']  { opacity: 1.0; }
]]>
</style>
<script type="application/ecmascript"><![CDATA[
document.addEventListener('DOMContentLoaded', (event) => {
  highlightEdges();
  highlightAdjacentNodes();
});
]]></script>
</svg>
