<?xml version="1.0" encoding="UTF-8" standalone="no"?>
<!DOCTYPE svg PUBLIC "-//W3C//DTD SVG 1.1//EN"
 "http://www.w3.org/Graphics/SVG/1.1/DTD/svg11.dtd">
<!-- Generated by graphviz version 6.0.1 (20220911.1526)
 -->
<!-- Title: Assets.StyledLines.Runtime.UIHelpers.PrintStopwatchScore.Start Pages: 1 -->
<svg width="728pt" height="64pt"
 viewBox="0.00 0.00 728.00 64.00" xmlns="http://www.w3.org/2000/svg" xmlns:xlink="http://www.w3.org/1999/xlink">
<g id="graph0" class="graph" transform="scale(1 1) rotate(0) translate(4 60)">
<title>Assets.StyledLines.Runtime.UIHelpers.PrintStopwatchScore.Start</title>
<!-- Node1 -->
<g id="Node000001" class="node">
<title>Node1</title>
<g id="a_Node000001"><a xlink:title=" ">
<polygon fill="#999999" stroke="#666666" points="304,-37 0,-37 0,-18 304,-18 304,-37"/>
<text text-anchor="middle" x="152" y="-25" font-family="Helvetica,sans-Serif" font-size="10.00">Assets.StyledLines.Runtime.UIHelpers.PrintStopwatchScore.Start</text>
</a>
</g>
</g>
<!-- Node2 -->
<g id="Node000002" class="node">
<title>Node2</title>
<g id="a_Node000002"><a xlink:href="$class_assets_1_1_styled_lines_1_1_runtime_1_1_u_i_helpers_1_1_print_stopwatch_score.html#a2794b1a11a04b3607bd1d8a5094e6088" xlink:title=" ">
<polygon fill="white" stroke="#666666" points="720,-56 340,-56 340,-37 720,-37 720,-56"/>
<text text-anchor="middle" x="530" y="-44" font-family="Helvetica,sans-Serif" font-size="10.00">Assets.StyledLines.Runtime.UIHelpers.PrintStopwatchScore.OnStateChangedDone</text>
</a>
</g>
</g>
<!-- Node1&#45;&gt;Node2 -->
<g id="edge1_Node000001_Node000002" class="edge">
<title>Node1&#45;&gt;Node2</title>
<g id="a_edge1_Node000001_Node000002"><a xlink:title=" ">
<path fill="none" stroke="#63b8ff" d="M304.04,-35.13C312.86,-35.58 321.8,-36.03 330.78,-36.48"/>
<polygon fill="#63b8ff" stroke="#63b8ff" points="330.75,-39.99 340.91,-37 331.1,-33 330.75,-39.99"/>
</a>
</g>
</g>
<!-- Node3 -->
<g id="Node000003" class="node">
<title>Node3</title>
<g id="a_Node000003"><a xlink:href="$class_assets_1_1_styled_lines_1_1_runtime_1_1_u_i_helpers_1_1_print_stopwatch_score.html#a582441b73d44bd29584cb604d8e489d6" xlink:title=" ">
<polygon fill="white" stroke="#666666" points="719,-19 341,-19 341,0 719,0 719,-19"/>
<text text-anchor="middle" x="530" y="-7" font-family="Helvetica,sans-Serif" font-size="10.00">Assets.StyledLines.Runtime.UIHelpers.PrintStopwatchScore.OnStateChangedStart</text>
</a>
</g>
</g>
<!-- Node1&#45;&gt;Node3 -->
<g id="edge2_Node000001_Node000003" class="edge">
<title>Node1&#45;&gt;Node3</title>
<g id="a_edge2_Node000001_Node000003"><a xlink:title=" ">
<path fill="none" stroke="#63b8ff" d="M304.04,-20.27C312.86,-19.85 321.8,-19.42 330.78,-18.99"/>
<polygon fill="#63b8ff" stroke="#63b8ff" points="331.09,-22.48 340.91,-18.5 330.76,-15.49 331.09,-22.48"/>
</a>
</g>
</g>
</g>
</svg>
