<?xml version="1.0" encoding="UTF-8" standalone="no"?>
<!DOCTYPE svg PUBLIC "-//W3C//DTD SVG 1.1//EN"
 "http://www.w3.org/Graphics/SVG/1.1/DTD/svg11.dtd">
<!-- Generated by graphviz version 6.0.1 (20220911.1526)
 -->
<!-- Title: Assets.StyledLines.Runtime.DialogUtils.DialogManager.HideTextAfterDelay Pages: 1 -->
<!--zoomable 64 -->

<svg id="main" version="1.1" xmlns="http://www.w3.org/2000/svg" xmlns:xlink="http://www.w3.org/1999/xlink" xml:space="preserve" onload="init(evt)">
<style type="text/css"><![CDATA[
.node, .edge {opacity: 0.7;}
.node.selected, .edge.selected {opacity: 1;}
.edge:hover path { stroke: red; }
.edge:hover polygon { stroke: red; fill: red; }
]]></style>

<defs>
  <circle id="rim" cx="0" cy="0" r="7"/>
  <circle id="rim2" cx="0" cy="0" r="3.5"/>
  <g id="zoomPlus">
    <use xlink:href="#rim" fill="#404040"><set attributeName="fill" to="#808080" begin="zoomplus.mouseover" end="zoomplus.mouseout"/></use>
    <path d="M-4,0h8M0,-4v8" fill="none" stroke="white" stroke-width="1.5" pointer-events="none"/>
  </g>
  <g id="zoomMin">
    <use xlink:href="#rim" fill="#404040"><set attributeName="fill" to="#808080" begin="zoomminus.mouseover" end="zoomminus.mouseout"/></use>
    <path d="M-4,0h8" fill="none" stroke="white" stroke-width="1.5" pointer-events="none"/>
  </g>
  <g id="arrowUp" transform="translate(30 24)">
    <use xlink:href="#rim"/>
    <path pointer-events="none" fill="none" stroke="white" stroke-width="1.5" d="M0,-3.0v7 M-2.5,-0.5L0,-3.0L2.5,-0.5"/>
  </g>
  <g id="arrowRight" transform="rotate(90) translate(36 -43)">
    <use xlink:href="#rim"/>
    <path pointer-events="none" fill="none" stroke="white" stroke-width="1.5" d="M0,-3.0v7 M-2.5,-0.5L0,-3.0L2.5,-0.5"/>
  </g>
  <g id="arrowDown" transform="rotate(180) translate(-30 -48)">
    <use xlink:href="#rim"/>
    <path pointer-events="none" fill="none" stroke="white" stroke-width="1.5" d="M0,-3.0v7 M-2.5,-0.5L0,-3.0L2.5,-0.5"/>
  </g>
  <g id="arrowLeft" transform="rotate(270) translate(-36 17)">
    <use xlink:href="#rim"/>
    <path pointer-events="none" fill="none" stroke="white" stroke-width="1.5" d="M0,-3.0v7 M-2.5,-0.5L0,-3.0L2.5,-0.5"/>
  </g>
  <g id="resetDef">
    <use xlink:href="#rim2" fill="#404040"><set attributeName="fill" to="#808080" begin="reset.mouseover" end="reset.mouseout"/></use>
  </g>
</defs>
<script type="application/ecmascript">
var viewWidth = 1711;
var viewHeight = 64;
var sectionId = 'dynsection-5';
</script>
<script type="application/ecmascript" xlink:href="svg.min.js"/>
<svg id="graph" class="graph">
<g id="viewport">
<title>Assets.StyledLines.Runtime.DialogUtils.DialogManager.HideTextAfterDelay</title>
<!-- Node1 -->
<g id="Node000001" class="node">
<title>Node1</title>
<g id="a_Node000001"><a xlink:title="Coroutine that hides the text by clearing it after a specified delay.">
<polygon fill="#999999" stroke="#666666" points="1703,-37 1359,-37 1359,-18 1703,-18 1703,-37"/>
<text text-anchor="middle" x="1531" y="-25" font-family="Helvetica,sans-Serif" font-size="10.00">Assets.StyledLines.Runtime.DialogUtils.DialogManager.HideTextAfterDelay</text>
</a>
</g>
</g>
<!-- Node2 -->
<g id="Node000002" class="node">
<title>Node2</title>
<g id="a_Node000002"><a xlink:href="class_assets_1_1_styled_lines_1_1_runtime_1_1_dialog_utils_1_1_dialog_manager.html#abf6ab9ac1cd1f285dbaf97aa03fba779" target="_top" xlink:title="Displays the specified text on the character&#39;s TextMeshPro component.">
<polygon fill="white" stroke="#666666" points="1323,-37 1020,-37 1020,-18 1323,-18 1323,-37"/>
<text text-anchor="middle" x="1171.5" y="-25" font-family="Helvetica,sans-Serif" font-size="10.00">Assets.StyledLines.Runtime.DialogUtils.DialogManager.ShowText</text>
</a>
</g>
</g>
<!-- Node1&#45;&gt;Node2 -->
<g id="edge1_Node000001_Node000002" class="edge">
<title>Node1&#45;&gt;Node2</title>
<g id="a_edge1_Node000001_Node000002"><a xlink:title=" ">
<path fill="none" stroke="#63b8ff" d="M1348.77,-27.5C1340.19,-27.5 1331.62,-27.5 1323.14,-27.5"/>
<polygon fill="#63b8ff" stroke="#63b8ff" points="1348.84,-31 1358.84,-27.5 1348.84,-24 1348.84,-31"/>
</a>
</g>
</g>
<!-- Node3 -->
<g id="Node000003" class="node">
<title>Node3</title>
<g id="a_Node000003"><a xlink:href="class_assets_1_1_styled_lines_1_1_runtime_1_1_dialog_utils_1_1_dialog_manager.html#a5f8f765bf2bba39f00acbfe9d5adab95" target="_top" xlink:title="Coroutine that displays the next line of dialog, handles looping, and manages the dialog&#39;s progressio...">
<polygon fill="white" stroke="#666666" points="984,-37 661,-37 661,-18 984,-18 984,-37"/>
<text text-anchor="middle" x="822.5" y="-25" font-family="Helvetica,sans-Serif" font-size="10.00">Assets.StyledLines.Runtime.DialogUtils.DialogManager.ShowNextLine</text>
</a>
</g>
</g>
<!-- Node2&#45;&gt;Node3 -->
<g id="edge2_Node000002_Node000003" class="edge">
<title>Node2&#45;&gt;Node3</title>
<g id="a_edge2_Node000002_Node000003"><a xlink:title=" ">
<path fill="none" stroke="#63b8ff" d="M1009.55,-27.5C1001.12,-27.5 992.65,-27.5 984.22,-27.5"/>
<polygon fill="#63b8ff" stroke="#63b8ff" points="1009.81,-31 1019.81,-27.5 1009.81,-24 1009.81,-31"/>
</a>
</g>
</g>
<!-- Node4 -->
<g id="Node000004" class="node">
<title>Node4</title>
<g id="a_Node000004"><a xlink:href="class_assets_1_1_styled_lines_1_1_runtime_1_1_dialog_utils_1_1_dialog_manager.html#a38b321d8b3be72540eab19e2617352b5" target="_top" xlink:title="Starts the dialog sequence, setting the initial index and activating the dialog.">
<polygon fill="white" stroke="#666666" points="625,-56 317,-56 317,-37 625,-37 625,-56"/>
<text text-anchor="middle" x="471" y="-44" font-family="Helvetica,sans-Serif" font-size="10.00">Assets.StyledLines.Runtime.DialogUtils.DialogManager.StartDialog</text>
</a>
</g>
</g>
<!-- Node3&#45;&gt;Node4 -->
<g id="edge3_Node000003_Node000004" class="edge">
<title>Node3&#45;&gt;Node4</title>
<g id="a_edge3_Node000003_Node000004"><a xlink:title=" ">
<path fill="none" stroke="#63b8ff" d="M650.74,-36.78C642.15,-37.25 633.54,-37.72 625.01,-38.18"/>
<polygon fill="#63b8ff" stroke="#63b8ff" points="651.02,-40.27 660.82,-36.24 650.64,-33.28 651.02,-40.27"/>
</a>
</g>
</g>
<!-- Node6 -->
<g id="Node000006" class="node">
<title>Node6</title>
<g id="a_Node000006"><a xlink:href="class_assets_1_1_styled_lines_1_1_runtime_1_1_dialog_utils_1_1_dialog_manager.html#af3e4a4ceac0c1a23ec2421aea4e95ff9" target="_top" xlink:title="Called every frame; updates dialog progression and rotates text objects to face the camera.">
<polygon fill="white" stroke="#666666" points="616.5,-19 325.5,-19 325.5,0 616.5,0 616.5,-19"/>
<text text-anchor="middle" x="471" y="-7" font-family="Helvetica,sans-Serif" font-size="10.00">Assets.StyledLines.Runtime.DialogUtils.DialogManager.Update</text>
</a>
</g>
</g>
<!-- Node3&#45;&gt;Node6 -->
<g id="edge5_Node000003_Node000006" class="edge">
<title>Node3&#45;&gt;Node6</title>
<g id="a_edge5_Node000003_Node000006"><a xlink:title=" ">
<path fill="none" stroke="#63b8ff" d="M650.81,-18.71C639.4,-18.12 627.98,-17.53 616.73,-16.95"/>
<polygon fill="#63b8ff" stroke="#63b8ff" points="650.65,-22.21 660.82,-19.22 651.01,-15.21 650.65,-22.21"/>
</a>
</g>
</g>
<!-- Node5 -->
<g id="Node000005" class="node">
<title>Node5</title>
<g id="a_Node000005"><a xlink:href="class_assets_1_1_styled_lines_1_1_runtime_1_1_dialog_utils_1_1_dialog_manager.html#ab96fbfc2e535bb4e1a20307702926a9b" target="_top" xlink:title="Called when the script starts; initializes the model controller, parses the dialog,...">
<polygon fill="white" stroke="#666666" points="281,-56 0,-56 0,-37 281,-37 281,-56"/>
<text text-anchor="middle" x="140.5" y="-44" font-family="Helvetica,sans-Serif" font-size="10.00">Assets.StyledLines.Runtime.DialogUtils.DialogManager.Start</text>
</a>
</g>
</g>
<!-- Node4&#45;&gt;Node5 -->
<g id="edge4_Node000004_Node000005" class="edge">
<title>Node4&#45;&gt;Node5</title>
<g id="a_edge4_Node000004_Node000005"><a xlink:title=" ">
<path fill="none" stroke="#63b8ff" d="M306.78,-46.5C298.22,-46.5 289.67,-46.5 281.2,-46.5"/>
<polygon fill="#63b8ff" stroke="#63b8ff" points="306.81,-50 316.81,-46.5 306.81,-43 306.81,-50"/>
</a>
</g>
</g>
</g>
</svg>

<g id="navigator" transform="translate(0 0)" fill="#404254">
  <rect fill="#f2f5e9" fill-opacity="0.5" stroke="#606060" stroke-width=".5" x="0" y="0" width="60" height="60"/>
  <use id="zoomplus" xlink:href="#zoomPlus" x="17" y="9" onmousedown="handleZoom(evt,'in')"/>
  <use id="zoomminus" xlink:href="#zoomMin" x="42" y="9" onmousedown="handleZoom(evt,'out')"/>
  <use id="reset" xlink:href="#resetDef" x="30" y="36" onmousedown="handleReset()"/>
   <use id="arrowup" xlink:href="#arrowUp" x="0" y="0" onmousedown="handlePan(0,-1)"/>
  <use id="arrowright" xlink:href="#arrowRight" x="0" y="0" onmousedown="handlePan(1,0)"/>
  <use id="arrowdown" xlink:href="#arrowDown" x="0" y="0" onmousedown="handlePan(0,1)"/>
  <use id="arrowleft" xlink:href="#arrowLeft" x="0" y="0" onmousedown="handlePan(-1,0)"/>
</g>
<svg viewBox="0 0 15 15" width="100%" height="30px" preserveAspectRatio="xMaxYMin meet">
 <g id="arrow_out" transform="scale(0.3 0.3)">
  <a xlink:href="class_assets_1_1_styled_lines_1_1_runtime_1_1_dialog_utils_1_1_dialog_manager_a47b62c096fbeba9ef026ca70ab0cea25_icgraph_org.svg" target="_base">
   <rect id="button" ry="5" rx="5" y="6" x="6" height="38" width="38"
        fill="#f2f5e9" fill-opacity="0.5" stroke="#606060" stroke-width="1.0"/>
   <path id="arrow"
     d="M 11.500037,31.436501 C 11.940474,20.09759 22.043105,11.32322 32.158766,21.979434 L 37.068811,17.246167 C 37.068811,17.246167 37.088388,32 37.088388,32 L 22.160133,31.978069 C 22.160133,31.978069 26.997745,27.140456 26.997745,27.140456 C 18.528582,18.264221 13.291696,25.230495 11.500037,31.436501 z"
     style="fill:#404040;"/>
  </a>
 </g>
</svg>

<style type='text/css'>
<![CDATA[
[data-mouse-over-selected='false'] { opacity: 0.7; }
[data-mouse-over-selected='true']  { opacity: 1.0; }
]]>
</style>
<script type="application/ecmascript"><![CDATA[
document.addEventListener('DOMContentLoaded', (event) => {
  highlightEdges();
  highlightAdjacentNodes();
});
]]></script>
</svg>
