<?xml version="1.0" encoding="UTF-8" standalone="no"?>
<!DOCTYPE svg PUBLIC "-//W3C//DTD SVG 1.1//EN"
 "http://www.w3.org/Graphics/SVG/1.1/DTD/svg11.dtd">
<!-- Generated by graphviz version 6.0.1 (20220911.1526)
 -->
<!-- Title: Assets.StyledLines.Samples.BasicDebug.Runtime.SetStringValueFromFloat Pages: 1 -->
<svg width="352pt" height="142pt"
 viewBox="0.00 0.00 352.00 142.00" xmlns="http://www.w3.org/2000/svg" xmlns:xlink="http://www.w3.org/1999/xlink">
<g id="graph0" class="graph" transform="scale(1 1) rotate(0) translate(4 138)">
<title>Assets.StyledLines.Samples.BasicDebug.Runtime.SetStringValueFromFloat</title>
<!-- Node1 -->
<g id="Node000001" class="node">
<title>Node1</title>
<g id="a_Node000001"><a xlink:title=" ">
<polygon fill="#999999" stroke="none" points="344,-49 0,-49 0,0 344,0 344,-49"/>
<text text-anchor="start" x="5" y="-36.5" font-family="Helvetica,sans-Serif" font-size="10.00">Assets.StyledLines.Samples.BasicDebug.Runtime.SetStringValueFromFloat</text>
<text text-anchor="start" x="64" y="-21.5" font-family="Helvetica,sans-Serif" font-size="10.00">+</text>
<text text-anchor="start" x="135" y="-21.5" font-family="Helvetica,sans-Serif" font-size="10.00">TMP_Text UiObject</text>
<text text-anchor="start" x="64" y="-6.5" font-family="Helvetica,sans-Serif" font-size="10.00">+</text>
<text text-anchor="start" x="135" y="-6.5" font-family="Helvetica,sans-Serif" font-size="10.00">void Set(float val)</text>
<polygon fill="#666666" stroke="#666666" points="0,-31.5 0,-31.5 344,-31.5 344,-31.5 0,-31.5"/>
<polygon fill="#666666" stroke="#666666" points="0,-16.5 0,-16.5 133,-16.5 133,-16.5 0,-16.5"/>
<polygon fill="#666666" stroke="#666666" points="133,-16.5 133,-16.5 344,-16.5 344,-16.5 133,-16.5"/>
<polygon fill="none" stroke="#666666" points="0,0 0,-49 344,-49 344,0 0,0"/>
</a>
</g>
</g>
<!-- Node2 -->
<g id="Node000002" class="node">
<title>Node2</title>
<g id="a_Node000002"><a xlink:title=" ">
<polygon fill="white" stroke="none" points="210.5,-134 133.5,-134 133.5,-85 210.5,-85 210.5,-134"/>
<text text-anchor="start" x="139" y="-121.5" font-family="Helvetica,sans-Serif" font-size="10.00">MonoBehaviour</text>
<text text-anchor="start" x="170.5" y="-106.5" font-family="Helvetica,sans-Serif" font-size="10.00"> </text>
<text text-anchor="start" x="170.5" y="-91.5" font-family="Helvetica,sans-Serif" font-size="10.00"> </text>
<polygon fill="#666666" stroke="#666666" points="134,-116.5 134,-116.5 211,-116.5 211,-116.5 134,-116.5"/>
<polygon fill="#666666" stroke="#666666" points="134,-101.5 134,-101.5 211,-101.5 211,-101.5 134,-101.5"/>
<polygon fill="none" stroke="#666666" points="133.5,-85 133.5,-134 210.5,-134 210.5,-85 133.5,-85"/>
</a>
</g>
</g>
<!-- Node2&#45;&gt;Node1 -->
<g id="edge1_Node000001_Node000002" class="edge">
<title>Node2&#45;&gt;Node1</title>
<g id="a_edge1_Node000001_Node000002"><a xlink:title=" ">
<path fill="none" stroke="#63b8ff" d="M172,-74.77C172,-66.17 172,-57.1 172,-49.12"/>
<polygon fill="none" stroke="#63b8ff" points="168.5,-74.94 172,-84.94 175.5,-74.94 168.5,-74.94"/>
</a>
</g>
</g>
</g>
</svg>
