<?xml version="1.0" encoding="UTF-8" standalone="no"?>
<!DOCTYPE svg PUBLIC "-//W3C//DTD SVG 1.1//EN"
 "http://www.w3.org/Graphics/SVG/1.1/DTD/svg11.dtd">
<!-- Generated by graphviz version 6.0.1 (20220911.1526)
 -->
<!-- Title: LlamaLibrary.Int32s.GetRange Pages: 1 -->
<svg width="504pt" height="101pt"
 viewBox="0.00 0.00 504.00 101.00" xmlns="http://www.w3.org/2000/svg" xmlns:xlink="http://www.w3.org/1999/xlink">
<g id="graph0" class="graph" transform="scale(1 1) rotate(0) translate(4 97)">
<title>LlamaLibrary.Int32s.GetRange</title>
<!-- Node1 -->
<g id="Node000001" class="node">
<title>Node1</title>
<g id="a_Node000001"><a xlink:title=" ">
<polygon fill="#999999" stroke="#666666" points="148,-56 0,-56 0,-37 148,-37 148,-56"/>
<text text-anchor="middle" x="74" y="-44" font-family="Helvetica,sans-Serif" font-size="10.00">LlamaLibrary.Int32s.GetRange</text>
</a>
</g>
</g>
<!-- Node2 -->
<g id="Node000002" class="node">
<title>Node2</title>
<g id="a_Node000002"><a xlink:href="$class_llama_library_1_1_int32s.html#a6e0526d79ae8c002caf9aa40c3389a41" xlink:title=" ">
<polygon fill="white" stroke="#666666" points="405.5,-93 274.5,-93 274.5,-74 405.5,-74 405.5,-93"/>
<text text-anchor="middle" x="340" y="-81" font-family="Helvetica,sans-Serif" font-size="10.00">LlamaLibrary.Int32s.Int32s</text>
</a>
</g>
</g>
<!-- Node1&#45;&gt;Node2 -->
<g id="edge1_Node000001_Node000002" class="edge">
<title>Node1&#45;&gt;Node2</title>
<g id="a_edge1_Node000001_Node000002"><a xlink:title=" ">
<path fill="none" stroke="#63b8ff" d="M126.19,-56.04C144.41,-59.27 165.09,-62.76 184,-65.5 210.15,-69.29 238.88,-72.81 264.42,-75.71"/>
<polygon fill="#63b8ff" stroke="#63b8ff" points="264.09,-79.19 274.41,-76.83 264.87,-72.24 264.09,-79.19"/>
</a>
</g>
</g>
<!-- Node3 -->
<g id="Node000003" class="node">
<title>Node3</title>
<g id="a_Node000003"><a xlink:href="$class_llama_library_1_1libllama__lib_p_i_n_v_o_k_e.html#ac415da917f99be5ac62db05ac00add3f" xlink:title=" ">
<polygon fill="white" stroke="#666666" points="462.5,-56 217.5,-56 217.5,-37 462.5,-37 462.5,-56"/>
<text text-anchor="middle" x="340" y="-44" font-family="Helvetica,sans-Serif" font-size="10.00">LlamaLibrary.libllama_libPINVOKE.Int32s_GetRange</text>
</a>
</g>
</g>
<!-- Node1&#45;&gt;Node3 -->
<g id="edge2_Node000001_Node000003" class="edge">
<title>Node1&#45;&gt;Node3</title>
<g id="a_edge2_Node000001_Node000003"><a xlink:title=" ">
<path fill="none" stroke="#63b8ff" d="M148.19,-46.5C166.53,-46.5 186.77,-46.5 207.02,-46.5"/>
<polygon fill="#63b8ff" stroke="#63b8ff" points="207.27,-50 217.27,-46.5 207.27,-43 207.27,-50"/>
</a>
</g>
</g>
<!-- Node4 -->
<g id="Node000004" class="node">
<title>Node4</title>
<g id="a_Node000004"><a xlink:href="$class_llama_library_1_1libllama__lib_p_i_n_v_o_k_e_1_1_s_w_i_g_pending_exception.html#a2718a73540850b42db7c89e9be3519ec" xlink:title=" ">
<polygon fill="white" stroke="#666666" points="496,-19 184,-19 184,0 496,0 496,-19"/>
<text text-anchor="middle" x="340" y="-7" font-family="Helvetica,sans-Serif" font-size="10.00">LlamaLibrary.libllama_libPINVOKE.SWIGPendingException.Retrieve</text>
</a>
</g>
</g>
<!-- Node1&#45;&gt;Node4 -->
<g id="edge3_Node000001_Node000004" class="edge">
<title>Node1&#45;&gt;Node4</title>
<g id="a_edge3_Node000001_Node000004"><a xlink:title=" ">
<path fill="none" stroke="#63b8ff" d="M129.82,-36.99C147.13,-34.11 166.34,-31.04 184,-28.5 204.06,-25.61 225.63,-22.79 246.11,-20.25"/>
<polygon fill="#63b8ff" stroke="#63b8ff" points="246.56,-23.72 256.06,-19.02 245.71,-16.77 246.56,-23.72"/>
</a>
</g>
</g>
</g>
</svg>
