<?xml version="1.0" encoding="UTF-8" standalone="no"?>
<!DOCTYPE svg PUBLIC "-//W3C//DTD SVG 1.1//EN"
 "http://www.w3.org/Graphics/SVG/1.1/DTD/svg11.dtd">
<!-- Generated by graphviz version 6.0.1 (20220911.1526)
 -->
<!-- Title: LlamaLibrary.LlamaControlVectorLoadInfos.SetRange Pages: 1 -->
<svg width="636pt" height="101pt"
 viewBox="0.00 0.00 636.00 101.00" xmlns="http://www.w3.org/2000/svg" xmlns:xlink="http://www.w3.org/1999/xlink">
<g id="graph0" class="graph" transform="scale(1 1) rotate(0) translate(4 97)">
<title>LlamaLibrary.LlamaControlVectorLoadInfos.SetRange</title>
<!-- Node1 -->
<g id="Node000001" class="node">
<title>Node1</title>
<g id="a_Node000001"><a xlink:title=" ">
<polygon fill="#999999" stroke="#666666" points="248,-56 0,-56 0,-37 248,-37 248,-56"/>
<text text-anchor="middle" x="124" y="-44" font-family="Helvetica,sans-Serif" font-size="10.00">LlamaLibrary.LlamaControlVectorLoadInfos.SetRange</text>
</a>
</g>
</g>
<!-- Node2 -->
<g id="Node000002" class="node">
<title>Node2</title>
<g id="a_Node000002"><a xlink:href="$class_llama_library_1_1_llama_control_vector_load_infos.html#a296477239302e62871d7f009dde55569" xlink:title=" ">
<polygon fill="white" stroke="#666666" points="575,-93 337,-93 337,-74 575,-74 575,-93"/>
<text text-anchor="middle" x="456" y="-81" font-family="Helvetica,sans-Serif" font-size="10.00">LlamaLibrary.LlamaControlVectorLoadInfos.getCPtr</text>
</a>
</g>
</g>
<!-- Node1&#45;&gt;Node2 -->
<g id="edge1_Node000001_Node000002" class="edge">
<title>Node1&#45;&gt;Node2</title>
<g id="a_edge1_Node000001_Node000002"><a xlink:title=" ">
<path fill="none" stroke="#63b8ff" d="M203.02,-56.04C228.79,-59.14 257.62,-62.54 284,-65.5 305.99,-67.97 329.59,-70.52 352.02,-72.9"/>
<polygon fill="#63b8ff" stroke="#63b8ff" points="351.92,-76.41 362.23,-73.98 352.66,-69.44 351.92,-76.41"/>
</a>
</g>
</g>
<!-- Node3 -->
<g id="Node000003" class="node">
<title>Node3</title>
<g id="a_Node000003"><a xlink:href="$class_llama_library_1_1libllama__lib_p_i_n_v_o_k_e.html#a9b16c0235918f9be6520df03209412b2" xlink:title=" ">
<polygon fill="white" stroke="#666666" points="628,-56 284,-56 284,-37 628,-37 628,-56"/>
<text text-anchor="middle" x="456" y="-44" font-family="Helvetica,sans-Serif" font-size="10.00">LlamaLibrary.libllama_libPINVOKE.LlamaControlVectorLoadInfos_SetRange</text>
</a>
</g>
</g>
<!-- Node1&#45;&gt;Node3 -->
<g id="edge2_Node000001_Node000003" class="edge">
<title>Node1&#45;&gt;Node3</title>
<g id="a_edge2_Node000001_Node000003"><a xlink:title=" ">
<path fill="none" stroke="#63b8ff" d="M248.35,-46.5C256.7,-46.5 265.21,-46.5 273.78,-46.5"/>
<polygon fill="#63b8ff" stroke="#63b8ff" points="273.86,-50 283.86,-46.5 273.86,-43 273.86,-50"/>
</a>
</g>
</g>
<!-- Node4 -->
<g id="Node000004" class="node">
<title>Node4</title>
<g id="a_Node000004"><a xlink:href="$class_llama_library_1_1libllama__lib_p_i_n_v_o_k_e_1_1_s_w_i_g_pending_exception.html#a2718a73540850b42db7c89e9be3519ec" xlink:title=" ">
<polygon fill="white" stroke="#666666" points="612,-19 300,-19 300,0 612,0 612,-19"/>
<text text-anchor="middle" x="456" y="-7" font-family="Helvetica,sans-Serif" font-size="10.00">LlamaLibrary.libllama_libPINVOKE.SWIGPendingException.Retrieve</text>
</a>
</g>
</g>
<!-- Node1&#45;&gt;Node4 -->
<g id="edge3_Node000001_Node000004" class="edge">
<title>Node1&#45;&gt;Node4</title>
<g id="a_edge3_Node000001_Node000004"><a xlink:title=" ">
<path fill="none" stroke="#63b8ff" d="M208.75,-36.99C233.03,-34.24 259.57,-31.24 284,-28.5 308.26,-25.78 334.47,-22.86 358.89,-20.14"/>
<polygon fill="#63b8ff" stroke="#63b8ff" points="359.33,-23.62 368.88,-19.03 358.56,-16.66 359.33,-23.62"/>
</a>
</g>
</g>
</g>
</svg>
