<?xml version="1.0" encoding="UTF-8" standalone="no"?>
<!DOCTYPE svg PUBLIC "-//W3C//DTD SVG 1.1//EN"
 "http://www.w3.org/Graphics/SVG/1.1/DTD/svg11.dtd">
<!-- Generated by graphviz version 6.0.1 (20220911.1526)
 -->
<!-- Title: PrintStopwatchScore.OnStateChangedDone Pages: 1 -->
<svg width="410pt" height="64pt"
 viewBox="0.00 0.00 410.00 64.00" xmlns="http://www.w3.org/2000/svg" xmlns:xlink="http://www.w3.org/1999/xlink">
<g id="graph0" class="graph" transform="scale(1 1) rotate(0) translate(4 60)">
<title>PrintStopwatchScore.OnStateChangedDone</title>
<!-- Node1 -->
<g id="Node000001" class="node">
<title>Node1</title>
<g id="a_Node000001"><a xlink:title=" ">
<polygon fill="#999999" stroke="#666666" points="402,-37 194,-37 194,-18 402,-18 402,-37"/>
<text text-anchor="middle" x="298" y="-25" font-family="Helvetica,sans-Serif" font-size="10.00">PrintStopwatchScore.OnStateChangedDone</text>
</a>
</g>
</g>
<!-- Node2 -->
<g id="Node000002" class="node">
<title>Node2</title>
<g id="a_Node000002"><a xlink:href="class_print_stopwatch_score.html#a9b67af249dc9fda73c20f722f2aba6f5" target="_top" xlink:title=" ">
<polygon fill="white" stroke="#666666" points="158,-56 0,-56 0,-37 158,-37 158,-56"/>
<text text-anchor="middle" x="79" y="-44" font-family="Helvetica,sans-Serif" font-size="10.00">PrintStopwatchScore.OnDestroy</text>
</a>
</g>
</g>
<!-- Node1&#45;&gt;Node2 -->
<g id="edge1_Node000001_Node000002" class="edge">
<title>Node1&#45;&gt;Node2</title>
<g id="a_edge1_Node000001_Node000002"><a xlink:title=" ">
<path fill="none" stroke="#63b8ff" d="M183.74,-37.42C175.1,-38.17 166.49,-38.93 158.14,-39.66"/>
<polygon fill="#63b8ff" stroke="#63b8ff" points="184.25,-40.89 193.9,-36.53 183.63,-33.91 184.25,-40.89"/>
</a>
</g>
</g>
<!-- Node3 -->
<g id="Node000003" class="node">
<title>Node3</title>
<g id="a_Node000003"><a xlink:href="class_print_stopwatch_score.html#ae4fb42bd674e78d822e633e8fa206cc6" target="_top" xlink:title=" ">
<polygon fill="white" stroke="#666666" points="145,-19 13,-19 13,0 145,0 145,-19"/>
<text text-anchor="middle" x="79" y="-7" font-family="Helvetica,sans-Serif" font-size="10.00">PrintStopwatchScore.Start</text>
</a>
</g>
</g>
<!-- Node1&#45;&gt;Node3 -->
<g id="edge2_Node000001_Node000003" class="edge">
<title>Node1&#45;&gt;Node3</title>
<g id="a_edge2_Node000001_Node000003"><a xlink:title=" ">
<path fill="none" stroke="#63b8ff" d="M183.77,-18.11C170.52,-17.01 157.36,-15.92 145.09,-14.9"/>
<polygon fill="#63b8ff" stroke="#63b8ff" points="183.65,-21.61 193.9,-18.95 184.23,-14.63 183.65,-21.61"/>
</a>
</g>
</g>
</g>
</svg>
