<?xml version="1.0" encoding="UTF-8" standalone="no"?>
<!DOCTYPE svg PUBLIC "-//W3C//DTD SVG 1.1//EN"
 "http://www.w3.org/Graphics/SVG/1.1/DTD/svg11.dtd">
<!-- Generated by graphviz version 6.0.1 (20220911.1526)
 -->
<!-- Title: LlamaLibrary.libllama_libPINVOKE.delete_LlamaControlVectorLoadInfos Pages: 1 -->
<svg width="986pt" height="27pt"
 viewBox="0.00 0.00 986.00 27.00" xmlns="http://www.w3.org/2000/svg" xmlns:xlink="http://www.w3.org/1999/xlink">
<g id="graph0" class="graph" transform="scale(1 1) rotate(0) translate(4 23)">
<title>LlamaLibrary.libllama_libPINVOKE.delete_LlamaControlVectorLoadInfos</title>
<!-- Node1 -->
<g id="Node000001" class="node">
<title>Node1</title>
<g id="a_Node000001"><a xlink:title=" ">
<polygon fill="#999999" stroke="#666666" points="978,-19 650,-19 650,0 978,0 978,-19"/>
<text text-anchor="middle" x="814" y="-7" font-family="Helvetica,sans-Serif" font-size="10.00">LlamaLibrary.libllama_libPINVOKE.delete_LlamaControlVectorLoadInfos</text>
</a>
</g>
</g>
<!-- Node2 -->
<g id="Node000002" class="node">
<title>Node2</title>
<g id="a_Node000002"><a xlink:href="$class_llama_library_1_1_llama_control_vector_load_infos.html#a694029ae2e942d098897f453b6554f57" xlink:title=" ">
<polygon fill="white" stroke="#666666" points="614,-19 374,-19 374,0 614,0 614,-19"/>
<text text-anchor="middle" x="494" y="-7" font-family="Helvetica,sans-Serif" font-size="10.00">LlamaLibrary.LlamaControlVectorLoadInfos.Dispose</text>
</a>
</g>
</g>
<!-- Node1&#45;&gt;Node2 -->
<g id="edge1_Node000001_Node000002" class="edge">
<title>Node1&#45;&gt;Node2</title>
<g id="a_edge1_Node000001_Node000002"><a xlink:title=" ">
<path fill="none" stroke="#63b8ff" d="M639.66,-9.5C631.03,-9.5 622.45,-9.5 614.04,-9.5"/>
<polygon fill="#63b8ff" stroke="#63b8ff" points="639.81,-13 649.81,-9.5 639.81,-6 639.81,-13"/>
</a>
</g>
</g>
<!-- Node3 -->
<g id="Node000003" class="node">
<title>Node3</title>
<g id="a_Node000003"><a xlink:href="$class_llama_library_1_1_llama_control_vector_load_infos.html#a13815a1ccc292b4fd6b92b705ac9063f" xlink:title=" ">
<polygon fill="white" stroke="#666666" points="338,-19 0,-19 0,0 338,0 338,-19"/>
<text text-anchor="middle" x="169" y="-7" font-family="Helvetica,sans-Serif" font-size="10.00">LlamaLibrary.LlamaControlVectorLoadInfos.~LlamaControlVectorLoadInfos</text>
</a>
</g>
</g>
<!-- Node2&#45;&gt;Node3 -->
<g id="edge2_Node000002_Node000003" class="edge">
<title>Node2&#45;&gt;Node3</title>
<g id="a_edge2_Node000002_Node000003"><a xlink:title=" ">
<path fill="none" stroke="#63b8ff" d="M363.52,-9.5C355.17,-9.5 346.7,-9.5 338.2,-9.5"/>
<polygon fill="#63b8ff" stroke="#63b8ff" points="363.64,-13 373.64,-9.5 363.64,-6 363.64,-13"/>
</a>
</g>
</g>
</g>
</svg>
