<?xml version="1.0" encoding="UTF-8" standalone="no"?>
<!DOCTYPE svg PUBLIC "-//W3C//DTD SVG 1.1//EN"
 "http://www.w3.org/Graphics/SVG/1.1/DTD/svg11.dtd">
<!-- Generated by graphviz version 6.0.1 (20220911.1526)
 -->
<!-- Title: LlamaLibrary.libllama_libPINVOKE.StringsAndFloats_Add Pages: 1 -->
<svg width="745pt" height="64pt"
 viewBox="0.00 0.00 745.00 64.00" xmlns="http://www.w3.org/2000/svg" xmlns:xlink="http://www.w3.org/1999/xlink">
<g id="graph0" class="graph" transform="scale(1 1) rotate(0) translate(4 60)">
<title>LlamaLibrary.libllama_libPINVOKE.StringsAndFloats_Add</title>
<!-- Node1 -->
<g id="Node000001" class="node">
<title>Node1</title>
<g id="a_Node000001"><a xlink:title=" ">
<polygon fill="#999999" stroke="#666666" points="737,-37 470,-37 470,-18 737,-18 737,-37"/>
<text text-anchor="middle" x="603.5" y="-25" font-family="Helvetica,sans-Serif" font-size="10.00">LlamaLibrary.libllama_libPINVOKE.StringsAndFloats_Add</text>
</a>
</g>
</g>
<!-- Node2 -->
<g id="Node000002" class="node">
<title>Node2</title>
<g id="a_Node000002"><a xlink:href="class_llama_library_1_1_strings_and_floats.html#a040fc7eb962d0bb58697fdd36f6660ec" target="_top" xlink:title=" ">
<polygon fill="white" stroke="#666666" points="434,-37 264,-37 264,-18 434,-18 434,-37"/>
<text text-anchor="middle" x="349" y="-25" font-family="Helvetica,sans-Serif" font-size="10.00">LlamaLibrary.StringsAndFloats.Add</text>
</a>
</g>
</g>
<!-- Node1&#45;&gt;Node2 -->
<g id="edge1_Node000001_Node000002" class="edge">
<title>Node1&#45;&gt;Node2</title>
<g id="a_edge1_Node000001_Node000002"><a xlink:title=" ">
<path fill="none" stroke="#63b8ff" d="M459.75,-27.5C451.07,-27.5 442.51,-27.5 434.21,-27.5"/>
<polygon fill="#63b8ff" stroke="#63b8ff" points="459.96,-31 469.96,-27.5 459.96,-24 459.96,-31"/>
</a>
</g>
</g>
<!-- Node3 -->
<g id="Node000003" class="node">
<title>Node3</title>
<g id="a_Node000003"><a xlink:href="class_llama_library_1_1_strings_and_floats.html#a5c9646133ce9277eb6e9ff67f73c77fc" target="_top" xlink:title=" ">
<polygon fill="white" stroke="#666666" points="228,-56 0,-56 0,-37 228,-37 228,-56"/>
<text text-anchor="middle" x="114" y="-44" font-family="Helvetica,sans-Serif" font-size="10.00">LlamaLibrary.StringsAndFloats.StringsAndFloats</text>
</a>
</g>
</g>
<!-- Node2&#45;&gt;Node3 -->
<g id="edge2_Node000002_Node000003" class="edge">
<title>Node2&#45;&gt;Node3</title>
<g id="a_edge2_Node000002_Node000003"><a xlink:title=" ">
<path fill="none" stroke="#63b8ff" d="M253.72,-35.19C245.31,-35.87 236.74,-36.57 228.19,-37.27"/>
<polygon fill="#63b8ff" stroke="#63b8ff" points="254.2,-38.66 263.88,-34.36 253.63,-31.68 254.2,-38.66"/>
</a>
</g>
</g>
<!-- Node4 -->
<g id="Node000004" class="node">
<title>Node4</title>
<g id="a_Node000004"><a xlink:href="class_llama_library_1_1_strings_and_floats.html#a8b5e4d9199d5843ed34e475c4e363936" target="_top" xlink:title=" ">
<polygon fill="white" stroke="#666666" points="228,-19 0,-19 0,0 228,0 228,-19"/>
<text text-anchor="middle" x="114" y="-7" font-family="Helvetica,sans-Serif" font-size="10.00">LlamaLibrary.StringsAndFloats.StringsAndFloats</text>
</a>
</g>
</g>
<!-- Node2&#45;&gt;Node4 -->
<g id="edge3_Node000002_Node000004" class="edge">
<title>Node2&#45;&gt;Node4</title>
<g id="a_edge3_Node000002_Node000004"><a xlink:title=" ">
<path fill="none" stroke="#63b8ff" d="M253.72,-20.22C245.31,-19.57 236.74,-18.9 228.19,-18.24"/>
<polygon fill="#63b8ff" stroke="#63b8ff" points="253.64,-23.72 263.88,-21 254.18,-16.74 253.64,-23.72"/>
</a>
</g>
</g>
</g>
</svg>
