<?xml version="1.0" encoding="UTF-8" standalone="no"?>
<!DOCTYPE svg PUBLIC "-//W3C//DTD SVG 1.1//EN"
 "http://www.w3.org/Graphics/SVG/1.1/DTD/svg11.dtd">
<!-- Generated by graphviz version 6.0.1 (20220911.1526)
 -->
<!-- Title: LlamaLibrary.LoggingContext Pages: 1 -->
<svg width="400pt" height="228pt"
 viewBox="0.00 0.00 400.00 228.00" xmlns="http://www.w3.org/2000/svg" xmlns:xlink="http://www.w3.org/1999/xlink">

<svg id="main" version="1.1" xmlns="http://www.w3.org/2000/svg" xmlns:xlink="http://www.w3.org/1999/xlink" xml:space="preserve" onload="init(evt)">
<style type="text/css"><![CDATA[
.node, .edge {opacity: 0.7;}
.node.selected, .edge.selected {opacity: 1;}
.edge:hover path { stroke: red; }
.edge:hover polygon { stroke: red; fill: red; }
]]></style>
<script type="application/ecmascript" xlink:href="svg.min.js"/>
<svg id="graph" class="graph">
<g id="graph0" class="graph" transform="scale(1 1) rotate(0) translate(4 224)">
<title>LlamaLibrary.LoggingContext</title>
<!-- Node1 -->
<g id="Node000001" class="node">
<title>Node1</title>
<g id="a_Node000001"><a xlink:title=" ">
<polygon fill="#999999" stroke="none" points="392,-124 0,-124 0,0 392,0 392,-124"/>
<text text-anchor="start" x="132.5" y="-112" font-family="Helvetica,sans-Serif" font-size="10.00">LlamaLibrary.LoggingContext</text>
<text text-anchor="start" x="4" y="-97" font-family="Helvetica,sans-Serif" font-size="10.00">+</text>
<text text-anchor="start" x="15" y="-97" font-family="Helvetica,sans-Serif" font-size="10.00">SWIGTYPE_p_LoggingContext__LoggingContextPimpl pImpl</text>
<text text-anchor="start" x="4.5" y="-82" font-family="Helvetica,sans-Serif" font-size="10.00">#</text>
<text text-anchor="start" x="15" y="-82" font-family="Helvetica,sans-Serif" font-size="10.00">bool swigCMemOwn</text>
<text text-anchor="start" x="4" y="-67" font-family="Helvetica,sans-Serif" font-size="10.00">+</text>
<text text-anchor="start" x="15" y="-67" font-family="Helvetica,sans-Serif" font-size="10.00">virtual void Dispose()</text>
<text text-anchor="start" x="4" y="-52" font-family="Helvetica,sans-Serif" font-size="10.00">+</text>
<text text-anchor="start" x="15" y="-52" font-family="Helvetica,sans-Serif" font-size="10.00">LoggingContext()</text>
<text text-anchor="start" x="4" y="-37" font-family="Helvetica,sans-Serif" font-size="10.00">~</text>
<text text-anchor="start" x="15" y="-37" font-family="Helvetica,sans-Serif" font-size="10.00">LoggingContext(global::System.IntPtr cPtr, bool cMemoryOwn)</text>
<text text-anchor="start" x="4" y="-22" font-family="Helvetica,sans-Serif" font-size="10.00">~</text>
<text text-anchor="start" x="15" y="-22" font-family="Helvetica,sans-Serif" font-size="10.00">static global::System.Runtime.InteropServices.HandleRef getCPtr(LoggingContext obj)</text>
<text text-anchor="start" x="5.5" y="-7" font-family="Helvetica,sans-Serif" font-size="10.00">&#45;</text>
<text text-anchor="start" x="15" y="-7" font-family="Helvetica,sans-Serif" font-size="10.00">~LoggingContext()</text>
<polygon fill="#666666" stroke="#666666" points="0,-107 0,-107 392,-107 392,-107 0,-107"/>
<polygon fill="#666666" stroke="#666666" points="0,-77 0,-77 13,-77 13,-77 0,-77"/>
<polygon fill="#666666" stroke="#666666" points="13,-77 13,-77 392,-77 392,-77 13,-77"/>
<polygon fill="none" stroke="#666666" points="0,0 0,-124 392,-124 392,0 0,0"/>
</a>
</g>
</g>
<!-- Node2 -->
<g id="Node000002" class="node">
<title>Node2</title>
<g id="a_Node000002"><a xlink:title=" ">
<polygon fill="white" stroke="none" points="199,-220 73,-220 73,-171 199,-171 199,-220"/>
<text text-anchor="start" x="78" y="-207.5" font-family="Helvetica,sans-Serif" font-size="10.00">global::SystemIDisposable</text>
<text text-anchor="start" x="134" y="-192.5" font-family="Helvetica,sans-Serif" font-size="10.00"> </text>
<text text-anchor="start" x="134" y="-177.5" font-family="Helvetica,sans-Serif" font-size="10.00"> </text>
<polygon fill="#666666" stroke="#666666" points="73,-202.5 73,-202.5 199,-202.5 199,-202.5 73,-202.5"/>
<polygon fill="#666666" stroke="#666666" points="73,-187.5 73,-187.5 199,-187.5 199,-187.5 73,-187.5"/>
<polygon fill="none" stroke="#666666" points="73,-171 73,-220 199,-220 199,-171 73,-171"/>
</a>
</g>
</g>
<!-- Node2&#45;&gt;Node1 -->
<g id="edge1_Node000001_Node000002" class="edge">
<title>Node2&#45;&gt;Node1</title>
<g id="a_edge1_Node000001_Node000002"><a xlink:title=" ">
<path fill="none" stroke="#63b8ff" d="M150.9,-161.84C156.12,-150.4 162.17,-137.14 168.11,-124.12"/>
<polygon fill="none" stroke="#63b8ff" points="147.69,-160.44 146.73,-170.99 154.06,-163.35 147.69,-160.44"/>
</a>
</g>
</g>
<!-- Node3 -->
<g id="Node000003" class="node">
<title>Node3</title>
<g id="a_Node000003"><a xlink:title=" ">
<polygon fill="white" stroke="none" points="294.5,-220 217.5,-220 217.5,-171 294.5,-171 294.5,-220"/>
<text text-anchor="start" x="223" y="-207.5" font-family="Helvetica,sans-Serif" font-size="10.00">InteropServices</text>
<text text-anchor="start" x="254.5" y="-192.5" font-family="Helvetica,sans-Serif" font-size="10.00"> </text>
<text text-anchor="start" x="254.5" y="-177.5" font-family="Helvetica,sans-Serif" font-size="10.00"> </text>
<polygon fill="#666666" stroke="#666666" points="218,-202.5 218,-202.5 295,-202.5 295,-202.5 218,-202.5"/>
<polygon fill="#666666" stroke="#666666" points="218,-187.5 218,-187.5 295,-187.5 295,-187.5 218,-187.5"/>
<polygon fill="none" stroke="#666666" points="217.5,-171 217.5,-220 294.5,-220 294.5,-171 217.5,-171"/>
</a>
</g>
</g>
<!-- Node3&#45;&gt;Node1 -->
<g id="edge2_Node000001_Node000003" class="edge">
<title>Node3&#45;&gt;Node1</title>
<g id="a_edge2_Node000001_Node000003"><a xlink:title=" ">
<path fill="none" stroke="#63b8ff" d="M245.27,-170.99C240.59,-160.72 234.81,-148.06 228.88,-135.07"/>
<polygon fill="none" stroke="#63b8ff" points="228.87,-135.04 222.74,-131.24 223.89,-124.12 230.02,-127.92 228.87,-135.04"/>
</a>
</g>
<text text-anchor="middle" x="260.5" y="-145" font-family="Helvetica,sans-Serif" font-size="10.00" fill="grey"> +swigCPtr</text>
</g>
</g>
</svg>
</svg>

<style type='text/css'>
<![CDATA[
[data-mouse-over-selected='false'] { opacity: 0.7; }
[data-mouse-over-selected='true']  { opacity: 1.0; }
]]>
</style>
<script type="application/ecmascript"><![CDATA[
document.addEventListener('DOMContentLoaded', (event) => {
  highlightEdges();
  highlightAdjacentNodes();
});
]]></script>
</svg>
