<?xml version="1.0" encoding="UTF-8" standalone="no"?>
<!DOCTYPE svg PUBLIC "-//W3C//DTD SVG 1.1//EN"
 "http://www.w3.org/Graphics/SVG/1.1/DTD/svg11.dtd">
<!-- Generated by graphviz version 6.0.1 (20220911.1526)
 -->
<!-- Title: LlamaLibrary.Int32s Pages: 1 -->
<svg width="622pt" height="802pt"
 viewBox="0.00 0.00 622.00 802.00" xmlns="http://www.w3.org/2000/svg" xmlns:xlink="http://www.w3.org/1999/xlink">
<g id="graph0" class="graph" transform="scale(1 1) rotate(0) translate(4 798)">
<title>LlamaLibrary.Int32s</title>
<!-- Node1 -->
<g id="Node000001" class="node">
<title>Node1</title>
<g id="a_Node000001"><a xlink:title=" ">
<polygon fill="#999999" stroke="none" points="576,-709 0,-709 0,0 576,0 576,-709"/>
<text text-anchor="start" x="245.5" y="-696.5" font-family="Helvetica,sans-Serif" font-size="10.00">LlamaLibrary.Int32s</text>
<text text-anchor="start" x="4" y="-681.5" font-family="Helvetica,sans-Serif" font-size="10.00">+</text>
<text text-anchor="start" x="15" y="-681.5" font-family="Helvetica,sans-Serif" font-size="10.00">int Capacity</text>
<text text-anchor="start" x="4" y="-666.5" font-family="Helvetica,sans-Serif" font-size="10.00">+</text>
<text text-anchor="start" x="15" y="-666.5" font-family="Helvetica,sans-Serif" font-size="10.00">int Count</text>
<text text-anchor="start" x="4" y="-651.5" font-family="Helvetica,sans-Serif" font-size="10.00">+</text>
<text text-anchor="start" x="15" y="-651.5" font-family="Helvetica,sans-Serif" font-size="10.00">bool IsFixedSize</text>
<text text-anchor="start" x="4" y="-636.5" font-family="Helvetica,sans-Serif" font-size="10.00">+</text>
<text text-anchor="start" x="15" y="-636.5" font-family="Helvetica,sans-Serif" font-size="10.00">bool IsReadOnly</text>
<text text-anchor="start" x="4" y="-621.5" font-family="Helvetica,sans-Serif" font-size="10.00">+</text>
<text text-anchor="start" x="15" y="-621.5" font-family="Helvetica,sans-Serif" font-size="10.00">bool IsSynchronized</text>
<text text-anchor="start" x="4" y="-606.5" font-family="Helvetica,sans-Serif" font-size="10.00">+</text>
<text text-anchor="start" x="15" y="-606.5" font-family="Helvetica,sans-Serif" font-size="10.00">int this[int index]</text>
<text text-anchor="start" x="4.5" y="-591.5" font-family="Helvetica,sans-Serif" font-size="10.00">#</text>
<text text-anchor="start" x="15" y="-591.5" font-family="Helvetica,sans-Serif" font-size="10.00">bool swigCMemOwn</text>
<text text-anchor="start" x="5.5" y="-576.5" font-family="Helvetica,sans-Serif" font-size="10.00">&#45;</text>
<text text-anchor="start" x="15" y="-576.5" font-family="Helvetica,sans-Serif" font-size="10.00">global::System.Runtime.InteropServices.HandleRef swigCPtr</text>
<text text-anchor="start" x="4" y="-561.5" font-family="Helvetica,sans-Serif" font-size="10.00">+</text>
<text text-anchor="start" x="15" y="-561.5" font-family="Helvetica,sans-Serif" font-size="10.00">void Add(int x)</text>
<text text-anchor="start" x="4" y="-546.5" font-family="Helvetica,sans-Serif" font-size="10.00">+</text>
<text text-anchor="start" x="15" y="-546.5" font-family="Helvetica,sans-Serif" font-size="10.00">void AddRange(Int32s values)</text>
<text text-anchor="start" x="4" y="-531.5" font-family="Helvetica,sans-Serif" font-size="10.00">+</text>
<text text-anchor="start" x="15" y="-531.5" font-family="Helvetica,sans-Serif" font-size="10.00">void Clear()</text>
<text text-anchor="start" x="4" y="-516.5" font-family="Helvetica,sans-Serif" font-size="10.00">+</text>
<text text-anchor="start" x="15" y="-516.5" font-family="Helvetica,sans-Serif" font-size="10.00">bool Contains(int value)</text>
<text text-anchor="start" x="4" y="-501.5" font-family="Helvetica,sans-Serif" font-size="10.00">+</text>
<text text-anchor="start" x="15" y="-501.5" font-family="Helvetica,sans-Serif" font-size="10.00">void CopyTo(int index, int[] array, int arrayIndex, int count)</text>
<text text-anchor="start" x="4" y="-486.5" font-family="Helvetica,sans-Serif" font-size="10.00">+</text>
<text text-anchor="start" x="15" y="-486.5" font-family="Helvetica,sans-Serif" font-size="10.00">void CopyTo(int[] array)</text>
<text text-anchor="start" x="4" y="-471.5" font-family="Helvetica,sans-Serif" font-size="10.00">+</text>
<text text-anchor="start" x="15" y="-471.5" font-family="Helvetica,sans-Serif" font-size="10.00">void CopyTo(int[] array, int arrayIndex)</text>
<text text-anchor="start" x="4" y="-456.5" font-family="Helvetica,sans-Serif" font-size="10.00">+</text>
<text text-anchor="start" x="15" y="-456.5" font-family="Helvetica,sans-Serif" font-size="10.00">virtual void Dispose()</text>
<text text-anchor="start" x="4" y="-441.5" font-family="Helvetica,sans-Serif" font-size="10.00">+</text>
<text text-anchor="start" x="15" y="-441.5" font-family="Helvetica,sans-Serif" font-size="10.00">Int32sEnumerator GetEnumerator()</text>
<text text-anchor="start" x="4" y="-426.5" font-family="Helvetica,sans-Serif" font-size="10.00">+</text>
<text text-anchor="start" x="15" y="-426.5" font-family="Helvetica,sans-Serif" font-size="10.00">Int32s GetRange(int index, int count)</text>
<text text-anchor="start" x="4" y="-411.5" font-family="Helvetica,sans-Serif" font-size="10.00">+</text>
<text text-anchor="start" x="15" y="-411.5" font-family="Helvetica,sans-Serif" font-size="10.00">int IndexOf(int value)</text>
<text text-anchor="start" x="4" y="-396.5" font-family="Helvetica,sans-Serif" font-size="10.00">+</text>
<text text-anchor="start" x="15" y="-396.5" font-family="Helvetica,sans-Serif" font-size="10.00">void Insert(int index, int x)</text>
<text text-anchor="start" x="4" y="-381.5" font-family="Helvetica,sans-Serif" font-size="10.00">+</text>
<text text-anchor="start" x="15" y="-381.5" font-family="Helvetica,sans-Serif" font-size="10.00">void InsertRange(int index, Int32s values)</text>
<text text-anchor="start" x="4" y="-366.5" font-family="Helvetica,sans-Serif" font-size="10.00">+</text>
<text text-anchor="start" x="15" y="-366.5" font-family="Helvetica,sans-Serif" font-size="10.00">Int32s()</text>
<text text-anchor="start" x="4" y="-351.5" font-family="Helvetica,sans-Serif" font-size="10.00">+</text>
<text text-anchor="start" x="15" y="-351.5" font-family="Helvetica,sans-Serif" font-size="10.00">Int32s(global::System.Collections.Generic.IEnumerable&lt; int &gt; c)</text>
<text text-anchor="start" x="4" y="-336.5" font-family="Helvetica,sans-Serif" font-size="10.00">+</text>
<text text-anchor="start" x="15" y="-336.5" font-family="Helvetica,sans-Serif" font-size="10.00">Int32s(global::System.Collections.IEnumerable c)</text>
<text text-anchor="start" x="4" y="-321.5" font-family="Helvetica,sans-Serif" font-size="10.00">+</text>
<text text-anchor="start" x="15" y="-321.5" font-family="Helvetica,sans-Serif" font-size="10.00">Int32s(int capacity)</text>
<text text-anchor="start" x="4" y="-306.5" font-family="Helvetica,sans-Serif" font-size="10.00">+</text>
<text text-anchor="start" x="15" y="-306.5" font-family="Helvetica,sans-Serif" font-size="10.00">Int32s(Int32s other)</text>
<text text-anchor="start" x="4" y="-291.5" font-family="Helvetica,sans-Serif" font-size="10.00">+</text>
<text text-anchor="start" x="15" y="-291.5" font-family="Helvetica,sans-Serif" font-size="10.00">int LastIndexOf(int value)</text>
<text text-anchor="start" x="4" y="-276.5" font-family="Helvetica,sans-Serif" font-size="10.00">+</text>
<text text-anchor="start" x="15" y="-276.5" font-family="Helvetica,sans-Serif" font-size="10.00">bool Remove(int value)</text>
<text text-anchor="start" x="4" y="-261.5" font-family="Helvetica,sans-Serif" font-size="10.00">+</text>
<text text-anchor="start" x="15" y="-261.5" font-family="Helvetica,sans-Serif" font-size="10.00">void RemoveAt(int index)</text>
<text text-anchor="start" x="4" y="-246.5" font-family="Helvetica,sans-Serif" font-size="10.00">+</text>
<text text-anchor="start" x="15" y="-246.5" font-family="Helvetica,sans-Serif" font-size="10.00">void RemoveRange(int index, int count)</text>
<text text-anchor="start" x="4" y="-231.5" font-family="Helvetica,sans-Serif" font-size="10.00">+</text>
<text text-anchor="start" x="15" y="-231.5" font-family="Helvetica,sans-Serif" font-size="10.00">void Reverse()</text>
<text text-anchor="start" x="4" y="-216.5" font-family="Helvetica,sans-Serif" font-size="10.00">+</text>
<text text-anchor="start" x="15" y="-216.5" font-family="Helvetica,sans-Serif" font-size="10.00">void Reverse(int index, int count)</text>
<text text-anchor="start" x="4" y="-201.5" font-family="Helvetica,sans-Serif" font-size="10.00">+</text>
<text text-anchor="start" x="15" y="-201.5" font-family="Helvetica,sans-Serif" font-size="10.00">void SetRange(int index, Int32s values)</text>
<text text-anchor="start" x="4" y="-186.5" font-family="Helvetica,sans-Serif" font-size="10.00">+</text>
<text text-anchor="start" x="15" y="-186.5" font-family="Helvetica,sans-Serif" font-size="10.00">int[] ToArray()</text>
<text text-anchor="start" x="4" y="-171.5" font-family="Helvetica,sans-Serif" font-size="10.00">+</text>
<text text-anchor="start" x="15" y="-171.5" font-family="Helvetica,sans-Serif" font-size="10.00">static Int32s Repeat(int value, int count)</text>
<text text-anchor="start" x="4" y="-156.5" font-family="Helvetica,sans-Serif" font-size="10.00">~</text>
<text text-anchor="start" x="15" y="-156.5" font-family="Helvetica,sans-Serif" font-size="10.00">Int32s(global::System.IntPtr cPtr, bool cMemoryOwn)</text>
<text text-anchor="start" x="4" y="-141.5" font-family="Helvetica,sans-Serif" font-size="10.00">~</text>
<text text-anchor="start" x="15" y="-141.5" font-family="Helvetica,sans-Serif" font-size="10.00">static global::System.Runtime.InteropServices.HandleRef getCPtr(Int32s obj)</text>
<text text-anchor="start" x="5.5" y="-126.5" font-family="Helvetica,sans-Serif" font-size="10.00">&#45;</text>
<text text-anchor="start" x="15" y="-126.5" font-family="Helvetica,sans-Serif" font-size="10.00">uint capacity()</text>
<text text-anchor="start" x="5.5" y="-111.5" font-family="Helvetica,sans-Serif" font-size="10.00">&#45;</text>
<text text-anchor="start" x="15" y="-111.5" font-family="Helvetica,sans-Serif" font-size="10.00">global::System.Collections.Generic.IEnumerator&lt; int &gt; global::System.Collections.Generic.IEnumerable&lt; int &gt;. GetEnumerator()</text>
<text text-anchor="start" x="5.5" y="-96.5" font-family="Helvetica,sans-Serif" font-size="10.00">&#45;</text>
<text text-anchor="start" x="15" y="-96.5" font-family="Helvetica,sans-Serif" font-size="10.00">global::System.Collections.IEnumerator global::System.Collections.IEnumerable. GetEnumerator()</text>
<text text-anchor="start" x="5.5" y="-81.5" font-family="Helvetica,sans-Serif" font-size="10.00">&#45;</text>
<text text-anchor="start" x="15" y="-81.5" font-family="Helvetica,sans-Serif" font-size="10.00">int getitem(int index)</text>
<text text-anchor="start" x="5.5" y="-66.5" font-family="Helvetica,sans-Serif" font-size="10.00">&#45;</text>
<text text-anchor="start" x="15" y="-66.5" font-family="Helvetica,sans-Serif" font-size="10.00">int getitemcopy(int index)</text>
<text text-anchor="start" x="5.5" y="-51.5" font-family="Helvetica,sans-Serif" font-size="10.00">&#45;</text>
<text text-anchor="start" x="15" y="-51.5" font-family="Helvetica,sans-Serif" font-size="10.00">void reserve(uint n)</text>
<text text-anchor="start" x="5.5" y="-36.5" font-family="Helvetica,sans-Serif" font-size="10.00">&#45;</text>
<text text-anchor="start" x="15" y="-36.5" font-family="Helvetica,sans-Serif" font-size="10.00">void setitem(int index, int value)</text>
<text text-anchor="start" x="5.5" y="-21.5" font-family="Helvetica,sans-Serif" font-size="10.00">&#45;</text>
<text text-anchor="start" x="15" y="-21.5" font-family="Helvetica,sans-Serif" font-size="10.00">uint size()</text>
<text text-anchor="start" x="5.5" y="-6.5" font-family="Helvetica,sans-Serif" font-size="10.00">&#45;</text>
<text text-anchor="start" x="15" y="-6.5" font-family="Helvetica,sans-Serif" font-size="10.00">~Int32s()</text>
<polygon fill="#666666" stroke="#666666" points="0,-691.5 0,-691.5 576,-691.5 576,-691.5 0,-691.5"/>
<polygon fill="#666666" stroke="#666666" points="0,-571.5 0,-571.5 13,-571.5 13,-571.5 0,-571.5"/>
<polygon fill="#666666" stroke="#666666" points="13,-571.5 13,-571.5 576,-571.5 576,-571.5 13,-571.5"/>
<polygon fill="none" stroke="#666666" points="0,0 0,-709 576,-709 576,0 0,0"/>
</a>
</g>
</g>
<!-- Node2 -->
<g id="Node000002" class="node">
<title>Node2</title>
<g id="a_Node000002"><a xlink:title=" ">
<polygon fill="white" stroke="none" points="178,-794 52,-794 52,-745 178,-745 178,-794"/>
<text text-anchor="start" x="57" y="-781.5" font-family="Helvetica,sans-Serif" font-size="10.00">global::SystemIDisposable</text>
<text text-anchor="start" x="113" y="-766.5" font-family="Helvetica,sans-Serif" font-size="10.00"> </text>
<text text-anchor="start" x="113" y="-751.5" font-family="Helvetica,sans-Serif" font-size="10.00"> </text>
<polygon fill="#666666" stroke="#666666" points="52,-776.5 52,-776.5 178,-776.5 178,-776.5 52,-776.5"/>
<polygon fill="#666666" stroke="#666666" points="52,-761.5 52,-761.5 178,-761.5 178,-761.5 52,-761.5"/>
<polygon fill="none" stroke="#666666" points="52,-745 52,-794 178,-794 178,-745 52,-745"/>
</a>
</g>
</g>
<!-- Node2&#45;&gt;Node1 -->
<g id="edge1_Node000001_Node000002" class="edge">
<title>Node2&#45;&gt;Node1</title>
<g id="a_edge1_Node000001_Node000002"><a xlink:title=" ">
<path fill="none" stroke="#63b8ff" d="M128.89,-735.35C132.12,-727.63 135.83,-718.78 139.92,-709.02"/>
<polygon fill="none" stroke="#63b8ff" points="125.56,-734.24 124.92,-744.81 132.01,-736.94 125.56,-734.24"/>
</a>
</g>
</g>
<!-- Node3 -->
<g id="Node000003" class="node">
<title>Node3</title>
<g id="a_Node000003"><a xlink:title=" ">
<polygon fill="white" stroke="none" points="380,-794 196,-794 196,-745 380,-745 380,-794"/>
<text text-anchor="start" x="201" y="-781.5" font-family="Helvetica,sans-Serif" font-size="10.00">global::SystemCollections::IEnumerable</text>
<text text-anchor="start" x="286" y="-766.5" font-family="Helvetica,sans-Serif" font-size="10.00"> </text>
<text text-anchor="start" x="286" y="-751.5" font-family="Helvetica,sans-Serif" font-size="10.00"> </text>
<polygon fill="#666666" stroke="#666666" points="196,-776.5 196,-776.5 380,-776.5 380,-776.5 196,-776.5"/>
<polygon fill="#666666" stroke="#666666" points="196,-761.5 196,-761.5 380,-761.5 380,-761.5 196,-761.5"/>
<polygon fill="none" stroke="#666666" points="196,-745 196,-794 380,-794 380,-745 196,-745"/>
</a>
</g>
</g>
<!-- Node3&#45;&gt;Node1 -->
<g id="edge2_Node000001_Node000003" class="edge">
<title>Node3&#45;&gt;Node1</title>
<g id="a_edge2_Node000001_Node000003"><a xlink:title=" ">
<path fill="none" stroke="#63b8ff" d="M288,-734.56C288,-727.03 288,-718.45 288,-709.02"/>
<polygon fill="none" stroke="#63b8ff" points="284.5,-734.81 288,-744.81 291.5,-734.81 284.5,-734.81"/>
</a>
</g>
</g>
<!-- Node4 -->
<g id="Node000004" class="node">
<title>Node4</title>
<g id="a_Node000004"><a xlink:title=" ">
<polygon fill="white" stroke="none" points="614,-794 398,-794 398,-745 614,-745 614,-794"/>
<text text-anchor="start" x="403" y="-781.5" font-family="Helvetica,sans-Serif" font-size="10.00">global::SystemCollections::Generic::IList&lt; int &gt;</text>
<text text-anchor="start" x="504" y="-766.5" font-family="Helvetica,sans-Serif" font-size="10.00"> </text>
<text text-anchor="start" x="504" y="-751.5" font-family="Helvetica,sans-Serif" font-size="10.00"> </text>
<polygon fill="#666666" stroke="#666666" points="398,-776.5 398,-776.5 614,-776.5 614,-776.5 398,-776.5"/>
<polygon fill="#666666" stroke="#666666" points="398,-761.5 398,-761.5 614,-761.5 614,-761.5 398,-761.5"/>
<polygon fill="none" stroke="#666666" points="398,-745 398,-794 614,-794 614,-745 398,-745"/>
</a>
</g>
</g>
<!-- Node4&#45;&gt;Node1 -->
<g id="edge3_Node000001_Node000004" class="edge">
<title>Node4&#45;&gt;Node1</title>
<g id="a_edge3_Node000001_Node000004"><a xlink:title=" ">
<path fill="none" stroke="#63b8ff" d="M488.77,-735.86C484.64,-728.03 479.87,-719 474.6,-709.02"/>
<polygon fill="none" stroke="#63b8ff" points="485.73,-737.6 493.5,-744.81 491.92,-734.33 485.73,-737.6"/>
</a>
</g>
</g>
</g>
</svg>
