<?xml version="1.0" encoding="UTF-8" standalone="no"?>
<!DOCTYPE svg PUBLIC "-//W3C//DTD SVG 1.1//EN"
 "http://www.w3.org/Graphics/SVG/1.1/DTD/svg11.dtd">
<!-- Generated by graphviz version 6.0.1 (20220911.1526)
 -->
<!-- Title: CharacterStyleMapper.SetStyleInputField Pages: 1 -->
<svg width="622pt" height="46pt"
 viewBox="0.00 0.00 622.00 46.00" xmlns="http://www.w3.org/2000/svg" xmlns:xlink="http://www.w3.org/1999/xlink">
<g id="graph0" class="graph" transform="scale(1 1) rotate(0) translate(4 42)">
<title>CharacterStyleMapper.SetStyleInputField</title>
<!-- Node1 -->
<g id="Node000001" class="node">
<title>Node1</title>
<g id="a_Node000001"><a xlink:title=" ">
<polygon fill="#999999" stroke="#666666" points="614,-19 418,-19 418,0 614,0 614,-19"/>
<text text-anchor="middle" x="516" y="-7" font-family="Helvetica,sans-Serif" font-size="10.00">CharacterStyleMapper.SetStyleInputField</text>
</a>
</g>
</g>
<!-- Node2 -->
<g id="Node000002" class="node">
<title>Node2</title>
<g id="a_Node000002"><a xlink:href="class_character_style_mapper.html#afb15d22f0b368b59f006d762b891c7dc" target="_top" xlink:title=" ">
<polygon fill="white" stroke="#666666" points="382,-38 173,-38 173,-19 382,-19 382,-38"/>
<text text-anchor="middle" x="277.5" y="-26" font-family="Helvetica,sans-Serif" font-size="10.00">CharacterStyleMapper.OnCharacterSelected</text>
</a>
</g>
</g>
<!-- Node1&#45;&gt;Node2 -->
<g id="edge1_Node000001_Node000002" class="edge">
<title>Node1&#45;&gt;Node2</title>
<g id="a_edge1_Node000001_Node000002"><a xlink:title=" ">
<path fill="none" stroke="#63b8ff" d="M407.56,-18.13C399.14,-18.81 390.64,-19.49 382.25,-20.17"/>
<polygon fill="#63b8ff" stroke="#63b8ff" points="408.1,-21.6 417.78,-17.31 407.53,-14.62 408.1,-21.6"/>
</a>
</g>
</g>
<!-- Node3 -->
<g id="Node000003" class="node">
<title>Node3</title>
<g id="a_Node000003"><a xlink:href="class_character_style_mapper.html#a1b9068ca15aebcf857dc7997030ac14e" target="_top" xlink:title=" ">
<polygon fill="white" stroke="#666666" points="137,-19 0,-19 0,0 137,0 137,-19"/>
<text text-anchor="middle" x="68.5" y="-7" font-family="Helvetica,sans-Serif" font-size="10.00">CharacterStyleMapper.Start</text>
</a>
</g>
</g>
<!-- Node1&#45;&gt;Node3 -->
<g id="edge3_Node000001_Node000003" class="edge">
<title>Node1&#45;&gt;Node3</title>
<g id="a_edge3_Node000001_Node000003"><a xlink:title=" ">
<path fill="none" stroke="#63b8ff" d="M407.68,-9.5C323.53,-9.5 209.02,-9.5 137.19,-9.5"/>
<polygon fill="#63b8ff" stroke="#63b8ff" points="407.78,-13 417.78,-9.5 407.78,-6 407.78,-13"/>
</a>
</g>
</g>
<!-- Node2&#45;&gt;Node3 -->
<g id="edge2_Node000002_Node000003" class="edge">
<title>Node2&#45;&gt;Node3</title>
<g id="a_edge2_Node000002_Node000003"><a xlink:title=" ">
<path fill="none" stroke="#63b8ff" d="M162.5,-18.04C153.84,-17.24 145.28,-16.46 137.06,-15.7"/>
<polygon fill="#63b8ff" stroke="#63b8ff" points="162.42,-21.54 172.7,-18.97 163.06,-14.57 162.42,-21.54"/>
</a>
</g>
</g>
</g>
</svg>
