<?xml version="1.0" encoding="UTF-8" standalone="no"?>
<!DOCTYPE svg PUBLIC "-//W3C//DTD SVG 1.1//EN"
 "http://www.w3.org/Graphics/SVG/1.1/DTD/svg11.dtd">
<!-- Generated by graphviz version 6.0.1 (20220911.1526)
 -->
<!-- Title: DialogTextAndCharacterStylesResetter.ResetStylesAndDialog Pages: 1 -->
<svg width="696pt" height="27pt"
 viewBox="0.00 0.00 696.00 27.00" xmlns="http://www.w3.org/2000/svg" xmlns:xlink="http://www.w3.org/1999/xlink">
<g id="graph0" class="graph" transform="scale(1 1) rotate(0) translate(4 23)">
<title>DialogTextAndCharacterStylesResetter.ResetStylesAndDialog</title>
<!-- Node1 -->
<g id="Node000001" class="node">
<title>Node1</title>
<g id="a_Node000001"><a xlink:title=" ">
<polygon fill="#999999" stroke="#666666" points="287,-19 0,-19 0,0 287,0 287,-19"/>
<text text-anchor="middle" x="143.5" y="-7" font-family="Helvetica,sans-Serif" font-size="10.00">DialogTextAndCharacterStylesResetter.ResetStylesAndDialog</text>
</a>
</g>
</g>
<!-- Node2 -->
<g id="Node000002" class="node">
<title>Node2</title>
<g id="a_Node000002"><a xlink:href="class_dialog_manager.html#ab0c342d16b660dc18f0b066a8dd3c832" target="_top" xlink:title="Re&#45;parses the dialog and styles when the dialog text changes.">
<polygon fill="white" stroke="#666666" points="515,-19 323,-19 323,0 515,0 515,-19"/>
<text text-anchor="middle" x="419" y="-7" font-family="Helvetica,sans-Serif" font-size="10.00">DialogManager.ReparseDialogAndStyles</text>
</a>
</g>
</g>
<!-- Node1&#45;&gt;Node2 -->
<g id="edge1_Node000001_Node000002" class="edge">
<title>Node1&#45;&gt;Node2</title>
<g id="a_edge1_Node000001_Node000002"><a xlink:title=" ">
<path fill="none" stroke="#63b8ff" d="M287.26,-9.5C295.82,-9.5 304.35,-9.5 312.72,-9.5"/>
<polygon fill="#63b8ff" stroke="#63b8ff" points="312.83,-13 322.83,-9.5 312.83,-6 312.83,-13"/>
</a>
</g>
</g>
<!-- Node3 -->
<g id="Node000003" class="node">
<title>Node3</title>
<g id="a_Node000003"><a xlink:href="class_dialog_manager.html#acf205d073b2975bd1e27713a71f11bd6" target="_top" xlink:title="Parses the dialog text into individual lines based on a specific format.">
<polygon fill="white" stroke="#666666" points="688,-19 551,-19 551,0 688,0 688,-19"/>
<text text-anchor="middle" x="619.5" y="-7" font-family="Helvetica,sans-Serif" font-size="10.00">DialogManager.ParseDialog</text>
</a>
</g>
</g>
<!-- Node2&#45;&gt;Node3 -->
<g id="edge2_Node000002_Node000003" class="edge">
<title>Node2&#45;&gt;Node3</title>
<g id="a_edge2_Node000002_Node000003"><a xlink:title=" ">
<path fill="none" stroke="#63b8ff" d="M515.18,-9.5C523.74,-9.5 532.34,-9.5 540.72,-9.5"/>
<polygon fill="#63b8ff" stroke="#63b8ff" points="540.83,-13 550.83,-9.5 540.83,-6 540.83,-13"/>
</a>
</g>
</g>
</g>
</svg>
