<?xml version="1.0" encoding="UTF-8" standalone="no"?>
<!DOCTYPE svg PUBLIC "-//W3C//DTD SVG 1.1//EN"
 "http://www.w3.org/Graphics/SVG/1.1/DTD/svg11.dtd">
<!-- Generated by graphviz version 6.0.1 (20220911.1526)
 -->
<!-- Title: LlamaLibrary.Int32s.InsertRange Pages: 1 -->
<svg width="512pt" height="101pt"
 viewBox="0.00 0.00 512.00 101.00" xmlns="http://www.w3.org/2000/svg" xmlns:xlink="http://www.w3.org/1999/xlink">
<g id="graph0" class="graph" transform="scale(1 1) rotate(0) translate(4 97)">
<title>LlamaLibrary.Int32s.InsertRange</title>
<!-- Node1 -->
<g id="Node000001" class="node">
<title>Node1</title>
<g id="a_Node000001"><a xlink:title=" ">
<polygon fill="#999999" stroke="#666666" points="156,-56 0,-56 0,-37 156,-37 156,-56"/>
<text text-anchor="middle" x="78" y="-44" font-family="Helvetica,sans-Serif" font-size="10.00">LlamaLibrary.Int32s.InsertRange</text>
</a>
</g>
</g>
<!-- Node2 -->
<g id="Node000002" class="node">
<title>Node2</title>
<g id="a_Node000002"><a xlink:href="$class_llama_library_1_1_int32s.html#af513ab0e44144d369d5633a60a2aaa24" xlink:title=" ">
<polygon fill="white" stroke="#666666" points="416.5,-93 279.5,-93 279.5,-74 416.5,-74 416.5,-93"/>
<text text-anchor="middle" x="348" y="-81" font-family="Helvetica,sans-Serif" font-size="10.00">LlamaLibrary.Int32s.getCPtr</text>
</a>
</g>
</g>
<!-- Node1&#45;&gt;Node2 -->
<g id="edge1_Node000001_Node000002" class="edge">
<title>Node1&#45;&gt;Node2</title>
<g id="a_edge1_Node000001_Node000002"><a xlink:title=" ">
<path fill="none" stroke="#63b8ff" d="M132.37,-56.05C151.18,-59.26 172.5,-62.73 192,-65.5 217.11,-69.07 244.57,-72.43 269.32,-75.26"/>
<polygon fill="#63b8ff" stroke="#63b8ff" points="269.05,-78.76 279.38,-76.4 269.84,-71.8 269.05,-78.76"/>
</a>
</g>
</g>
<!-- Node3 -->
<g id="Node000003" class="node">
<title>Node3</title>
<g id="a_Node000003"><a xlink:href="$class_llama_library_1_1libllama__lib_p_i_n_v_o_k_e.html#a7db569d6c15b24f3c88bd57238fee609" xlink:title=" ">
<polygon fill="white" stroke="#666666" points="474.5,-56 221.5,-56 221.5,-37 474.5,-37 474.5,-56"/>
<text text-anchor="middle" x="348" y="-44" font-family="Helvetica,sans-Serif" font-size="10.00">LlamaLibrary.libllama_libPINVOKE.Int32s_InsertRange</text>
</a>
</g>
</g>
<!-- Node1&#45;&gt;Node3 -->
<g id="edge2_Node000001_Node000003" class="edge">
<title>Node1&#45;&gt;Node3</title>
<g id="a_edge2_Node000001_Node000003"><a xlink:title=" ">
<path fill="none" stroke="#63b8ff" d="M156.16,-46.5C173.46,-46.5 192.31,-46.5 211.21,-46.5"/>
<polygon fill="#63b8ff" stroke="#63b8ff" points="211.4,-50 221.4,-46.5 211.4,-43 211.4,-50"/>
</a>
</g>
</g>
<!-- Node4 -->
<g id="Node000004" class="node">
<title>Node4</title>
<g id="a_Node000004"><a xlink:href="$class_llama_library_1_1libllama__lib_p_i_n_v_o_k_e_1_1_s_w_i_g_pending_exception.html#a2718a73540850b42db7c89e9be3519ec" xlink:title=" ">
<polygon fill="white" stroke="#666666" points="504,-19 192,-19 192,0 504,0 504,-19"/>
<text text-anchor="middle" x="348" y="-7" font-family="Helvetica,sans-Serif" font-size="10.00">LlamaLibrary.libllama_libPINVOKE.SWIGPendingException.Retrieve</text>
</a>
</g>
</g>
<!-- Node1&#45;&gt;Node4 -->
<g id="edge3_Node000001_Node000004" class="edge">
<title>Node1&#45;&gt;Node4</title>
<g id="a_edge3_Node000001_Node000004"><a xlink:title=" ">
<path fill="none" stroke="#63b8ff" d="M136.14,-36.99C154,-34.12 173.8,-31.06 192,-28.5 212.3,-25.64 234.14,-22.81 254.82,-20.25"/>
<polygon fill="#63b8ff" stroke="#63b8ff" points="255.38,-23.7 264.88,-19.01 254.52,-16.76 255.38,-23.7"/>
</a>
</g>
</g>
</g>
</svg>
