<?xml version="1.0" encoding="UTF-8" standalone="no"?>
<!DOCTYPE svg PUBLIC "-//W3C//DTD SVG 1.1//EN"
 "http://www.w3.org/Graphics/SVG/1.1/DTD/svg11.dtd">
<!-- Generated by graphviz version 6.0.1 (20220911.1526)
 -->
<!-- Title: DialogManager.HideTextAfterDelay Pages: 1 -->
<svg width="829pt" height="64pt"
 viewBox="0.00 0.00 829.00 64.00" xmlns="http://www.w3.org/2000/svg" xmlns:xlink="http://www.w3.org/1999/xlink">
<g id="graph0" class="graph" transform="scale(1 1) rotate(0) translate(4 60)">
<title>DialogManager.HideTextAfterDelay</title>
<!-- Node1 -->
<g id="Node000001" class="node">
<title>Node1</title>
<g id="a_Node000001"><a xlink:title="Coroutine that hides the text by clearing it after a specified delay.">
<polygon fill="#999999" stroke="#666666" points="821,-37 654,-37 654,-18 821,-18 821,-37"/>
<text text-anchor="middle" x="737.5" y="-25" font-family="Helvetica,sans-Serif" font-size="10.00">DialogManager.HideTextAfterDelay</text>
</a>
</g>
</g>
<!-- Node2 -->
<g id="Node000002" class="node">
<title>Node2</title>
<g id="a_Node000002"><a xlink:href="class_dialog_manager.html#a2b9e29dfdef1abb40b4d9bb7a6523be7" target="_top" xlink:title="Displays the specified text on the character&#39;s TextMeshPro component.">
<polygon fill="white" stroke="#666666" points="618,-37 491,-37 491,-18 618,-18 618,-37"/>
<text text-anchor="middle" x="554.5" y="-25" font-family="Helvetica,sans-Serif" font-size="10.00">DialogManager.ShowText</text>
</a>
</g>
</g>
<!-- Node1&#45;&gt;Node2 -->
<g id="edge1_Node000001_Node000002" class="edge">
<title>Node1&#45;&gt;Node2</title>
<g id="a_edge1_Node000001_Node000002"><a xlink:title=" ">
<path fill="none" stroke="#63b8ff" d="M643.77,-27.5C635.1,-27.5 626.45,-27.5 618.16,-27.5"/>
<polygon fill="#63b8ff" stroke="#63b8ff" points="643.95,-31 653.94,-27.5 643.94,-24 643.95,-31"/>
</a>
</g>
</g>
<!-- Node3 -->
<g id="Node000003" class="node">
<title>Node3</title>
<g id="a_Node000003"><a xlink:href="class_dialog_manager.html#a58ce81209f0fe6b90708dc9503bc97cd" target="_top" xlink:title="Coroutine that displays the next line of dialog, handles looping, and manages the dialog&#39;s progressio...">
<polygon fill="white" stroke="#666666" points="455,-37 309,-37 309,-18 455,-18 455,-37"/>
<text text-anchor="middle" x="382" y="-25" font-family="Helvetica,sans-Serif" font-size="10.00">DialogManager.ShowNextLine</text>
</a>
</g>
</g>
<!-- Node2&#45;&gt;Node3 -->
<g id="edge2_Node000002_Node000003" class="edge">
<title>Node2&#45;&gt;Node3</title>
<g id="a_edge2_Node000002_Node000003"><a xlink:title=" ">
<path fill="none" stroke="#63b8ff" d="M480.71,-27.5C472.21,-27.5 463.53,-27.5 455.04,-27.5"/>
<polygon fill="#63b8ff" stroke="#63b8ff" points="480.98,-31 490.98,-27.5 480.98,-24 480.98,-31"/>
</a>
</g>
</g>
<!-- Node4 -->
<g id="Node000004" class="node">
<title>Node4</title>
<g id="a_Node000004"><a xlink:href="class_dialog_manager.html#ad32c4cce175c0c1b0f15049695fa7948" target="_top" xlink:title="Starts the dialog sequence, setting the initial index and activating the dialog.">
<polygon fill="white" stroke="#666666" points="273,-56 141,-56 141,-37 273,-37 273,-56"/>
<text text-anchor="middle" x="207" y="-44" font-family="Helvetica,sans-Serif" font-size="10.00">DialogManager.StartDialog</text>
</a>
</g>
</g>
<!-- Node3&#45;&gt;Node4 -->
<g id="edge3_Node000003_Node000004" class="edge">
<title>Node3&#45;&gt;Node4</title>
<g id="a_edge3_Node000003_Node000004"><a xlink:title=" ">
<path fill="none" stroke="#63b8ff" d="M298.8,-36.53C290.18,-37.47 281.49,-38.43 273.1,-39.35"/>
<polygon fill="#63b8ff" stroke="#63b8ff" points="299.33,-39.99 308.89,-35.42 298.56,-33.03 299.33,-39.99"/>
</a>
</g>
</g>
<!-- Node6 -->
<g id="Node000006" class="node">
<title>Node6</title>
<g id="a_Node000006"><a xlink:href="class_dialog_manager.html#a79957ecbbb9b70e0a2a4e66ef206a498" target="_top" xlink:title="Called every frame; updates dialog progression and rotates text objects to face the camera.">
<polygon fill="white" stroke="#666666" points="264.5,-19 149.5,-19 149.5,0 264.5,0 264.5,-19"/>
<text text-anchor="middle" x="207" y="-7" font-family="Helvetica,sans-Serif" font-size="10.00">DialogManager.Update</text>
</a>
</g>
</g>
<!-- Node3&#45;&gt;Node6 -->
<g id="edge5_Node000003_Node000006" class="edge">
<title>Node3&#45;&gt;Node6</title>
<g id="a_edge5_Node000003_Node000006"><a xlink:title=" ">
<path fill="none" stroke="#63b8ff" d="M298.8,-18.95C287.27,-17.75 275.63,-16.54 264.72,-15.4"/>
<polygon fill="#63b8ff" stroke="#63b8ff" points="298.58,-22.44 308.89,-20 299.3,-15.48 298.58,-22.44"/>
</a>
</g>
</g>
<!-- Node5 -->
<g id="Node000005" class="node">
<title>Node5</title>
<g id="a_Node000005"><a xlink:href="class_dialog_manager.html#a03c8a9834097fe6f3c636076a97563c8" target="_top" xlink:title="Called when the script starts; initializes the model controller, parses the dialog,...">
<polygon fill="white" stroke="#666666" points="105,-56 0,-56 0,-37 105,-37 105,-56"/>
<text text-anchor="middle" x="52.5" y="-44" font-family="Helvetica,sans-Serif" font-size="10.00">DialogManager.Start</text>
</a>
</g>
</g>
<!-- Node4&#45;&gt;Node5 -->
<g id="edge4_Node000004_Node000005" class="edge">
<title>Node4&#45;&gt;Node5</title>
<g id="a_edge4_Node000004_Node000005"><a xlink:title=" ">
<path fill="none" stroke="#63b8ff" d="M130.71,-46.5C122.02,-46.5 113.31,-46.5 105.03,-46.5"/>
<polygon fill="#63b8ff" stroke="#63b8ff" points="130.88,-50 140.88,-46.5 130.88,-43 130.88,-50"/>
</a>
</g>
</g>
</g>
</svg>
