<?xml version="1.0" encoding="UTF-8" standalone="no"?>
<!DOCTYPE svg PUBLIC "-//W3C//DTD SVG 1.1//EN"
 "http://www.w3.org/Graphics/SVG/1.1/DTD/svg11.dtd">
<!-- Generated by graphviz version 6.0.1 (20220911.1526)
 -->
<!-- Title: LlamaLibrary.libllama_libPINVOKE.SWIGPendingException.Set Pages: 1 -->
<svg width="796pt" height="508pt"
 viewBox="0.00 0.00 796.00 508.00" xmlns="http://www.w3.org/2000/svg" xmlns:xlink="http://www.w3.org/1999/xlink">
<g id="graph0" class="graph" transform="scale(1 1) rotate(0) translate(4 504)">
<title>LlamaLibrary.libllama_libPINVOKE.SWIGPendingException.Set</title>
<!-- Node1 -->
<g id="Node000001" class="node">
<title>Node1</title>
<g id="a_Node000001"><a xlink:title=" ">
<polygon fill="#999999" stroke="#666666" points="788,-259 495,-259 495,-240 788,-240 788,-259"/>
<text text-anchor="middle" x="641.5" y="-247" font-family="Helvetica,sans-Serif" font-size="10.00">LlamaLibrary.libllama_libPINVOKE.SWIGPendingException.Set</text>
</a>
</g>
</g>
<!-- Node2 -->
<g id="Node000002" class="node">
<title>Node2</title>
<g id="a_Node000002"><a xlink:href="$class_llama_library_1_1libllama__lib_p_i_n_v_o_k_e_1_1_s_w_i_g_exception_helper.html#a82bed617569fc1f95ca8749e8f7be850" xlink:title=" ">
<polygon fill="white" stroke="#666666" points="435.5,-500 23.5,-500 23.5,-481 435.5,-481 435.5,-500"/>
<text text-anchor="middle" x="229.5" y="-488" font-family="Helvetica,sans-Serif" font-size="10.00">LlamaLibrary.libllama_libPINVOKE.SWIGExceptionHelper.SetPendingApplicationException</text>
</a>
</g>
</g>
<!-- Node1&#45;&gt;Node2 -->
<g id="edge1_Node000001_Node000002" class="edge">
<title>Node1&#45;&gt;Node2</title>
<g id="a_edge1_Node000001_Node000002"><a xlink:title=" ">
<path fill="none" stroke="#63b8ff" d="M631.68,-268.66C609.83,-313.62 548.4,-425.6 459,-472.5 451.51,-476.43 443.69,-479.83 435.65,-482.76"/>
<polygon fill="#63b8ff" stroke="#63b8ff" points="634.93,-269.97 636.06,-259.44 628.61,-266.97 634.93,-269.97"/>
</a>
</g>
</g>
<!-- Node3 -->
<g id="Node000003" class="node">
<title>Node3</title>
<g id="a_Node000003"><a xlink:href="$class_llama_library_1_1libllama__lib_p_i_n_v_o_k_e_1_1_s_w_i_g_exception_helper.html#a45bc30ad245bfc85d5f9d9066b73e7c4" xlink:title=" ">
<polygon fill="white" stroke="#666666" points="432.5,-463 26.5,-463 26.5,-444 432.5,-444 432.5,-463"/>
<text text-anchor="middle" x="229.5" y="-451" font-family="Helvetica,sans-Serif" font-size="10.00">LlamaLibrary.libllama_libPINVOKE.SWIGExceptionHelper.SetPendingArgumentException</text>
</a>
</g>
</g>
<!-- Node1&#45;&gt;Node3 -->
<g id="edge2_Node000001_Node000003" class="edge">
<title>Node1&#45;&gt;Node3</title>
<g id="a_edge2_Node000001_Node000003"><a xlink:title=" ">
<path fill="none" stroke="#63b8ff" d="M629.31,-267.86C604.36,-306.87 539.98,-397.56 459,-435.5 450.53,-439.47 441.69,-442.86 432.62,-445.74"/>
<polygon fill="#63b8ff" stroke="#63b8ff" points="632.44,-269.45 634.78,-259.12 626.51,-265.73 632.44,-269.45"/>
</a>
</g>
</g>
<!-- Node4 -->
<g id="Node000004" class="node">
<title>Node4</title>
<g id="a_Node000004"><a xlink:href="$class_llama_library_1_1libllama__lib_p_i_n_v_o_k_e_1_1_s_w_i_g_exception_helper.html#ae8e97469f4e6070c78231556c56a998c" xlink:title=" ">
<polygon fill="white" stroke="#666666" points="440.5,-426 18.5,-426 18.5,-407 440.5,-407 440.5,-426"/>
<text text-anchor="middle" x="229.5" y="-414" font-family="Helvetica,sans-Serif" font-size="10.00">LlamaLibrary.libllama_libPINVOKE.SWIGExceptionHelper.SetPendingArgumentNullException</text>
</a>
</g>
</g>
<!-- Node1&#45;&gt;Node4 -->
<g id="edge3_Node000001_Node000004" class="edge">
<title>Node1&#45;&gt;Node4</title>
<g id="a_edge3_Node000001_Node000004"><a xlink:title=" ">
<path fill="none" stroke="#63b8ff" d="M626.09,-266.9C597.93,-299.5 531.9,-369.13 459,-398.5 450.97,-401.73 442.66,-404.55 434.17,-406.99"/>
<polygon fill="#63b8ff" stroke="#63b8ff" points="628.91,-268.99 632.72,-259.1 623.58,-264.46 628.91,-268.99"/>
</a>
</g>
</g>
<!-- Node5 -->
<g id="Node000005" class="node">
<title>Node5</title>
<g id="a_Node000005"><a xlink:href="$class_llama_library_1_1libllama__lib_p_i_n_v_o_k_e_1_1_s_w_i_g_exception_helper.html#ae374ea43ce3e21854ebe476ee7db6ecd" xlink:title=" ">
<polygon fill="white" stroke="#666666" points="459,-389 0,-389 0,-370 459,-370 459,-389"/>
<text text-anchor="middle" x="229.5" y="-377" font-family="Helvetica,sans-Serif" font-size="10.00">LlamaLibrary.libllama_libPINVOKE.SWIGExceptionHelper.SetPendingArgumentOutOfRangeException</text>
</a>
</g>
</g>
<!-- Node1&#45;&gt;Node5 -->
<g id="edge4_Node000001_Node000005" class="edge">
<title>Node1&#45;&gt;Node5</title>
<g id="a_edge4_Node000001_Node000005"><a xlink:title=" ">
<path fill="none" stroke="#63b8ff" d="M621.2,-265.81C589.65,-291.4 523.99,-340.27 459,-361.5 448.98,-364.77 438.58,-367.56 427.99,-369.93"/>
<polygon fill="#63b8ff" stroke="#63b8ff" points="623.67,-268.31 629.17,-259.25 619.23,-262.9 623.67,-268.31"/>
</a>
</g>
</g>
<!-- Node6 -->
<g id="Node000006" class="node">
<title>Node6</title>
<g id="a_Node000006"><a xlink:href="$class_llama_library_1_1libllama__lib_p_i_n_v_o_k_e_1_1_s_w_i_g_exception_helper.html#a5e55fcaec059bc6540a782cdc17ee960" xlink:title=" ">
<polygon fill="white" stroke="#666666" points="433.5,-352 25.5,-352 25.5,-333 433.5,-333 433.5,-352"/>
<text text-anchor="middle" x="229.5" y="-340" font-family="Helvetica,sans-Serif" font-size="10.00">LlamaLibrary.libllama_libPINVOKE.SWIGExceptionHelper.SetPendingArithmeticException</text>
</a>
</g>
</g>
<!-- Node1&#45;&gt;Node6 -->
<g id="edge5_Node000001_Node000006" class="edge">
<title>Node1&#45;&gt;Node6</title>
<g id="a_edge5_Node000001_Node000006"><a xlink:title=" ">
<path fill="none" stroke="#63b8ff" d="M613.85,-263.64C579.24,-281.26 516.43,-310.74 459,-324.5 444.88,-327.89 430.13,-330.67 415.24,-332.96"/>
<polygon fill="#63b8ff" stroke="#63b8ff" points="615.56,-266.7 622.84,-259 612.35,-260.48 615.56,-266.7"/>
</a>
</g>
</g>
<!-- Node7 -->
<g id="Node000007" class="node">
<title>Node7</title>
<g id="a_Node000007"><a xlink:href="$class_llama_library_1_1libllama__lib_p_i_n_v_o_k_e_1_1_s_w_i_g_exception_helper.html#a170b9e1f2c9b362b8b8a94f179cf76fd" xlink:title=" ">
<polygon fill="white" stroke="#666666" points="439.5,-315 19.5,-315 19.5,-296 439.5,-296 439.5,-315"/>
<text text-anchor="middle" x="229.5" y="-303" font-family="Helvetica,sans-Serif" font-size="10.00">LlamaLibrary.libllama_libPINVOKE.SWIGExceptionHelper.SetPendingDivideByZeroException</text>
</a>
</g>
</g>
<!-- Node1&#45;&gt;Node7 -->
<g id="edge6_Node000001_Node000007" class="edge">
<title>Node1&#45;&gt;Node7</title>
<g id="a_edge6_Node000001_Node000007"><a xlink:title=" ">
<path fill="none" stroke="#63b8ff" d="M592.3,-261.34C555.9,-269.86 504.59,-280.96 459,-287.5 435.27,-290.9 410.05,-293.7 385.36,-295.99"/>
<polygon fill="#63b8ff" stroke="#63b8ff" points="593.23,-264.72 602.16,-259.02 591.62,-257.91 593.23,-264.72"/>
</a>
</g>
</g>
<!-- Node8 -->
<g id="Node000008" class="node">
<title>Node8</title>
<g id="a_Node000008"><a xlink:href="$class_llama_library_1_1libllama__lib_p_i_n_v_o_k_e_1_1_s_w_i_g_exception_helper.html#a2253f959f82dc88f8ce53724f828ab6d" xlink:title=" ">
<polygon fill="white" stroke="#666666" points="449.5,-278 9.5,-278 9.5,-259 449.5,-259 449.5,-278"/>
<text text-anchor="middle" x="229.5" y="-266" font-family="Helvetica,sans-Serif" font-size="10.00">LlamaLibrary.libllama_libPINVOKE.SWIGExceptionHelper.SetPendingIndexOutOfRangeException</text>
</a>
</g>
</g>
<!-- Node1&#45;&gt;Node8 -->
<g id="edge7_Node000001_Node000008" class="edge">
<title>Node1&#45;&gt;Node8</title>
<g id="a_edge7_Node000001_Node000008"><a xlink:title=" ">
<path fill="none" stroke="#63b8ff" d="M484.37,-256.74C468.4,-257.48 452.01,-258.24 435.61,-258.99"/>
<polygon fill="#63b8ff" stroke="#63b8ff" points="484.97,-260.21 494.79,-256.25 484.64,-253.22 484.97,-260.21"/>
</a>
</g>
</g>
<!-- Node9 -->
<g id="Node000009" class="node">
<title>Node9</title>
<g id="a_Node000009"><a xlink:href="$class_llama_library_1_1libllama__lib_p_i_n_v_o_k_e_1_1_s_w_i_g_exception_helper.html#ac4ac1179534650ed25d71617ebcf3e38" xlink:title=" ">
<polygon fill="white" stroke="#666666" points="434.5,-241 24.5,-241 24.5,-222 434.5,-222 434.5,-241"/>
<text text-anchor="middle" x="229.5" y="-229" font-family="Helvetica,sans-Serif" font-size="10.00">LlamaLibrary.libllama_libPINVOKE.SWIGExceptionHelper.SetPendingInvalidCastException</text>
</a>
</g>
</g>
<!-- Node1&#45;&gt;Node9 -->
<g id="edge8_Node000001_Node000009" class="edge">
<title>Node1&#45;&gt;Node9</title>
<g id="a_edge8_Node000001_Node000009"><a xlink:title=" ">
<path fill="none" stroke="#63b8ff" d="M484.64,-242.66C468.23,-241.94 451.38,-241.2 434.54,-240.46"/>
<polygon fill="#63b8ff" stroke="#63b8ff" points="484.65,-246.16 494.79,-243.1 484.96,-239.17 484.65,-246.16"/>
</a>
</g>
</g>
<!-- Node10 -->
<g id="Node000010" class="node">
<title>Node10</title>
<g id="a_Node000010"><a xlink:href="$class_llama_library_1_1libllama__lib_p_i_n_v_o_k_e_1_1_s_w_i_g_exception_helper.html#a0004f84ed03024639ac2d5e07699d309" xlink:title=" ">
<polygon fill="white" stroke="#666666" points="445.5,-204 13.5,-204 13.5,-185 445.5,-185 445.5,-204"/>
<text text-anchor="middle" x="229.5" y="-192" font-family="Helvetica,sans-Serif" font-size="10.00">LlamaLibrary.libllama_libPINVOKE.SWIGExceptionHelper.SetPendingInvalidOperationException</text>
</a>
</g>
</g>
<!-- Node1&#45;&gt;Node10 -->
<g id="edge9_Node000001_Node000010" class="edge">
<title>Node1&#45;&gt;Node10</title>
<g id="a_edge9_Node000001_Node000010"><a xlink:title=" ">
<path fill="none" stroke="#63b8ff" d="M589.44,-237.77C553.21,-229.84 503.35,-219.72 459,-213.5 431.9,-209.7 402.87,-206.57 374.91,-204.02"/>
<polygon fill="#63b8ff" stroke="#63b8ff" points="588.76,-241.2 599.28,-239.94 590.27,-234.37 588.76,-241.2"/>
</a>
</g>
</g>
<!-- Node11 -->
<g id="Node000011" class="node">
<title>Node11</title>
<g id="a_Node000011"><a xlink:href="$class_llama_library_1_1libllama__lib_p_i_n_v_o_k_e_1_1_s_w_i_g_exception_helper.html#afbb2c3ae73dc2677aae189a0f803c223" xlink:title=" ">
<polygon fill="white" stroke="#666666" points="416.5,-167 42.5,-167 42.5,-148 416.5,-148 416.5,-167"/>
<text text-anchor="middle" x="229.5" y="-155" font-family="Helvetica,sans-Serif" font-size="10.00">LlamaLibrary.libllama_libPINVOKE.SWIGExceptionHelper.SetPendingIOException</text>
</a>
</g>
</g>
<!-- Node1&#45;&gt;Node11 -->
<g id="edge10_Node000001_Node000011" class="edge">
<title>Node1&#45;&gt;Node11</title>
<g id="a_edge10_Node000001_Node000011"><a xlink:title=" ">
<path fill="none" stroke="#63b8ff" d="M612.97,-235.38C578.12,-218.24 515.79,-189.96 459,-176.5 442.63,-172.62 425.45,-169.51 408.16,-167.01"/>
<polygon fill="#63b8ff" stroke="#63b8ff" points="611.52,-238.58 622.04,-239.9 614.65,-232.31 611.52,-238.58"/>
</a>
</g>
</g>
<!-- Node12 -->
<g id="Node000012" class="node">
<title>Node12</title>
<g id="a_Node000012"><a xlink:href="$class_llama_library_1_1libllama__lib_p_i_n_v_o_k_e_1_1_s_w_i_g_exception_helper.html#ad678be491e0e1da103b1dedd7d98b5f8" xlink:title=" ">
<polygon fill="white" stroke="#666666" points="441.5,-130 17.5,-130 17.5,-111 441.5,-111 441.5,-130"/>
<text text-anchor="middle" x="229.5" y="-118" font-family="Helvetica,sans-Serif" font-size="10.00">LlamaLibrary.libllama_libPINVOKE.SWIGExceptionHelper.SetPendingNullReferenceException</text>
</a>
</g>
</g>
<!-- Node1&#45;&gt;Node12 -->
<g id="edge11_Node000001_Node000012" class="edge">
<title>Node1&#45;&gt;Node12</title>
<g id="a_edge11_Node000001_Node000012"><a xlink:title=" ">
<path fill="none" stroke="#63b8ff" d="M621.14,-233.52C589.49,-208.43 523.71,-160.51 459,-139.5 447.45,-135.75 435.41,-132.63 423.16,-130.03"/>
<polygon fill="#63b8ff" stroke="#63b8ff" points="619.14,-236.41 629.13,-239.95 623.53,-230.95 619.14,-236.41"/>
</a>
</g>
</g>
<!-- Node13 -->
<g id="Node000013" class="node">
<title>Node13</title>
<g id="a_Node000013"><a xlink:href="$class_llama_library_1_1libllama__lib_p_i_n_v_o_k_e_1_1_s_w_i_g_exception_helper.html#a7247469885df9e737fbe8a58b3b2d51e" xlink:title=" ">
<polygon fill="white" stroke="#666666" points="442,-93 17,-93 17,-74 442,-74 442,-93"/>
<text text-anchor="middle" x="229.5" y="-81" font-family="Helvetica,sans-Serif" font-size="10.00">LlamaLibrary.libllama_libPINVOKE.SWIGExceptionHelper.SetPendingOutOfMemoryException</text>
</a>
</g>
</g>
<!-- Node1&#45;&gt;Node13 -->
<g id="edge12_Node000001_Node000013" class="edge">
<title>Node1&#45;&gt;Node13</title>
<g id="a_edge12_Node000001_Node000013"><a xlink:title=" ">
<path fill="none" stroke="#63b8ff" d="M625.62,-231.9C597.12,-199.59 531.19,-131.49 459,-102.5 449.86,-98.83 440.35,-95.69 430.62,-93.01"/>
<polygon fill="#63b8ff" stroke="#63b8ff" points="623.15,-234.39 632.35,-239.65 628.44,-229.8 623.15,-234.39"/>
</a>
</g>
</g>
<!-- Node14 -->
<g id="Node000014" class="node">
<title>Node14</title>
<g id="a_Node000014"><a xlink:href="$class_llama_library_1_1libllama__lib_p_i_n_v_o_k_e_1_1_s_w_i_g_exception_helper.html#af6c30281aa5c9154eee710f5176f6a96" xlink:title=" ">
<polygon fill="white" stroke="#666666" points="429.5,-56 29.5,-56 29.5,-37 429.5,-37 429.5,-56"/>
<text text-anchor="middle" x="229.5" y="-44" font-family="Helvetica,sans-Serif" font-size="10.00">LlamaLibrary.libllama_libPINVOKE.SWIGExceptionHelper.SetPendingOverflowException</text>
</a>
</g>
</g>
<!-- Node1&#45;&gt;Node14 -->
<g id="edge13_Node000001_Node000014" class="edge">
<title>Node1&#45;&gt;Node14</title>
<g id="a_edge13_Node000001_Node000014"><a xlink:title=" ">
<path fill="none" stroke="#63b8ff" d="M629.24,-231.36C604.17,-192.81 539.55,-103.19 459,-65.5 449.63,-61.11 439.8,-57.42 429.71,-54.33"/>
<polygon fill="#63b8ff" stroke="#63b8ff" points="626.42,-233.45 634.75,-240 632.32,-229.69 626.42,-233.45"/>
</a>
</g>
</g>
<!-- Node15 -->
<g id="Node000015" class="node">
<title>Node15</title>
<g id="a_Node000015"><a xlink:href="$class_llama_library_1_1libllama__lib_p_i_n_v_o_k_e_1_1_s_w_i_g_exception_helper.html#a9d70551163b4bcf95f963352044041e1" xlink:title=" ">
<polygon fill="white" stroke="#666666" points="428.5,-19 30.5,-19 30.5,0 428.5,0 428.5,-19"/>
<text text-anchor="middle" x="229.5" y="-7" font-family="Helvetica,sans-Serif" font-size="10.00">LlamaLibrary.libllama_libPINVOKE.SWIGExceptionHelper.SetPendingSystemException</text>
</a>
</g>
</g>
<!-- Node1&#45;&gt;Node15 -->
<g id="edge14_Node000001_Node000015" class="edge">
<title>Node1&#45;&gt;Node15</title>
<g id="a_edge14_Node000001_Node000015"><a xlink:title=" ">
<path fill="none" stroke="#63b8ff" d="M631.62,-230.53C609.62,-186.02 547.92,-75.14 459,-28.5 449.39,-23.46 439.24,-19.28 428.77,-15.83"/>
<polygon fill="#63b8ff" stroke="#63b8ff" points="628.52,-232.18 636.03,-239.66 634.83,-229.13 628.52,-232.18"/>
</a>
</g>
</g>
</g>
</svg>
