<?xml version="1.0" encoding="UTF-8" standalone="no"?>
<!DOCTYPE svg PUBLIC "-//W3C//DTD SVG 1.1//EN"
 "http://www.w3.org/Graphics/SVG/1.1/DTD/svg11.dtd">
<!-- Generated by graphviz version 6.0.1 (20220911.1526)
 -->
<!-- Title: Assets.StyledLines.Runtime.LlamaInfrenceUnity.ModelController.ExtractFirstPart Pages: 1 -->
<svg width="1452pt" height="101pt"
 viewBox="0.00 0.00 1452.00 101.00" xmlns="http://www.w3.org/2000/svg" xmlns:xlink="http://www.w3.org/1999/xlink">
<g id="graph0" class="graph" transform="scale(1 1) rotate(0) translate(4 97)">
<title>Assets.StyledLines.Runtime.LlamaInfrenceUnity.ModelController.ExtractFirstPart</title>
<!-- Node1 -->
<g id="Node000001" class="node">
<title>Node1</title>
<g id="a_Node000001"><a xlink:title="Static method to extract the first part of a string up to a specified stop text. If the stop text is ...">
<polygon fill="#999999" stroke="#666666" points="1444,-56 1076,-56 1076,-37 1444,-37 1444,-56"/>
<text text-anchor="middle" x="1260" y="-44" font-family="Helvetica,sans-Serif" font-size="10.00">Assets.StyledLines.Runtime.LlamaInfrenceUnity.ModelController.ExtractFirstPart</text>
</a>
</g>
</g>
<!-- Node2 -->
<g id="Node000002" class="node">
<title>Node2</title>
<g id="a_Node000002"><a xlink:href="$class_assets_1_1_styled_lines_1_1_runtime_1_1_llama_infrence_unity_1_1_minimal_example.html#aa2c607981a96d13a2edbc95d47a87282" xlink:title="Coroutine to handle the asynchronous generation of text from the language model. Coroutines allow the...">
<polygon fill="white" stroke="#666666" points="1040,-93 678,-93 678,-74 1040,-74 1040,-93"/>
<text text-anchor="middle" x="859" y="-81" font-family="Helvetica,sans-Serif" font-size="10.00">Assets.StyledLines.Runtime.LlamaInfrenceUnity.MinimalExample.GenerateLine</text>
</a>
</g>
</g>
<!-- Node1&#45;&gt;Node2 -->
<g id="edge1_Node000001_Node000002" class="edge">
<title>Node1&#45;&gt;Node2</title>
<g id="a_edge1_Node000001_Node000002"><a xlink:title=" ">
<path fill="none" stroke="#63b8ff" d="M1146.24,-56.96C1088.51,-62.31 1018.74,-68.78 962.53,-73.99"/>
<polygon fill="#63b8ff" stroke="#63b8ff" points="1146.87,-60.41 1156.51,-56 1146.23,-53.44 1146.87,-60.41"/>
</a>
</g>
</g>
<!-- Node4 -->
<g id="Node000004" class="node">
<title>Node4</title>
<g id="a_Node000004"><a xlink:href="$class_assets_1_1_styled_lines_1_1_runtime_1_1_dialog_utils_1_1_dialog_manager.html#a5f8f765bf2bba39f00acbfe9d5adab95" xlink:title="Coroutine that displays the next line of dialog, handles looping, and manages the dialog&#39;s progressio...">
<polygon fill="white" stroke="#666666" points="1020.5,-56 697.5,-56 697.5,-37 1020.5,-37 1020.5,-56"/>
<text text-anchor="middle" x="859" y="-44" font-family="Helvetica,sans-Serif" font-size="10.00">Assets.StyledLines.Runtime.DialogUtils.DialogManager.ShowNextLine</text>
</a>
</g>
</g>
<!-- Node1&#45;&gt;Node4 -->
<g id="edge3_Node000001_Node000004" class="edge">
<title>Node1&#45;&gt;Node4</title>
<g id="a_edge3_Node000001_Node000004"><a xlink:title=" ">
<path fill="none" stroke="#63b8ff" d="M1065.46,-46.5C1050.44,-46.5 1035.38,-46.5 1020.61,-46.5"/>
<polygon fill="#63b8ff" stroke="#63b8ff" points="1065.85,-50 1075.85,-46.5 1065.85,-43 1065.85,-50"/>
</a>
</g>
</g>
<!-- Node8 -->
<g id="Node000008" class="node">
<title>Node8</title>
<g id="a_Node000008"><a xlink:href="$class_assets_1_1_styled_lines_1_1_runtime_1_1_llama_infrence_unity_1_1_run_model_async.html#aabe6cc4182e4b6029714bff7b9076a34" xlink:title="Method called every frame to update the state of the model and handle output.">
<polygon fill="white" stroke="#666666" points="1026,-19 692,-19 692,0 1026,0 1026,-19"/>
<text text-anchor="middle" x="859" y="-7" font-family="Helvetica,sans-Serif" font-size="10.00">Assets.StyledLines.Runtime.LlamaInfrenceUnity.RunModelAsync.Update</text>
</a>
</g>
</g>
<!-- Node1&#45;&gt;Node8 -->
<g id="edge7_Node000001_Node000008" class="edge">
<title>Node1&#45;&gt;Node8</title>
<g id="a_edge7_Node000001_Node000008"><a xlink:title=" ">
<path fill="none" stroke="#63b8ff" d="M1146.24,-36.04C1088.51,-30.69 1018.74,-24.22 962.53,-19.01"/>
<polygon fill="#63b8ff" stroke="#63b8ff" points="1146.23,-39.56 1156.51,-37 1146.87,-32.59 1146.23,-39.56"/>
</a>
</g>
</g>
<!-- Node3 -->
<g id="Node000003" class="node">
<title>Node3</title>
<g id="a_Node000003"><a xlink:href="$class_assets_1_1_styled_lines_1_1_runtime_1_1_llama_infrence_unity_1_1_minimal_example.html#aaed938d97be4e225c763c1eaf666bf26" xlink:title="The Start method is called when the script instance is being loaded. It initializes the ModelControll...">
<polygon fill="white" stroke="#666666" points="642,-93 317,-93 317,-74 642,-74 642,-93"/>
<text text-anchor="middle" x="479.5" y="-81" font-family="Helvetica,sans-Serif" font-size="10.00">Assets.StyledLines.Runtime.LlamaInfrenceUnity.MinimalExample.Start</text>
</a>
</g>
</g>
<!-- Node2&#45;&gt;Node3 -->
<g id="edge2_Node000002_Node000003" class="edge">
<title>Node2&#45;&gt;Node3</title>
<g id="a_edge2_Node000002_Node000003"><a xlink:title=" ">
<path fill="none" stroke="#63b8ff" d="M667.73,-83.5C659.13,-83.5 650.53,-83.5 642.01,-83.5"/>
<polygon fill="#63b8ff" stroke="#63b8ff" points="667.82,-87 677.82,-83.5 667.82,-80 667.82,-87"/>
</a>
</g>
</g>
<!-- Node5 -->
<g id="Node000005" class="node">
<title>Node5</title>
<g id="a_Node000005"><a xlink:href="$class_assets_1_1_styled_lines_1_1_runtime_1_1_dialog_utils_1_1_dialog_manager.html#a38b321d8b3be72540eab19e2617352b5" xlink:title="Starts the dialog sequence, setting the initial index and activating the dialog.">
<polygon fill="white" stroke="#666666" points="633.5,-56 325.5,-56 325.5,-37 633.5,-37 633.5,-56"/>
<text text-anchor="middle" x="479.5" y="-44" font-family="Helvetica,sans-Serif" font-size="10.00">Assets.StyledLines.Runtime.DialogUtils.DialogManager.StartDialog</text>
</a>
</g>
</g>
<!-- Node4&#45;&gt;Node5 -->
<g id="edge4_Node000004_Node000005" class="edge">
<title>Node4&#45;&gt;Node5</title>
<g id="a_edge4_Node000004_Node000005"><a xlink:title=" ">
<path fill="none" stroke="#63b8ff" d="M686.95,-46.5C669.23,-46.5 651.3,-46.5 633.79,-46.5"/>
<polygon fill="#63b8ff" stroke="#63b8ff" points="687.36,-50 697.36,-46.5 687.36,-43 687.36,-50"/>
</a>
</g>
</g>
<!-- Node7 -->
<g id="Node000007" class="node">
<title>Node7</title>
<g id="a_Node000007"><a xlink:href="$class_assets_1_1_styled_lines_1_1_runtime_1_1_dialog_utils_1_1_dialog_manager.html#af3e4a4ceac0c1a23ec2421aea4e95ff9" xlink:title="Called every frame; updates dialog progression and rotates text objects to face the camera.">
<polygon fill="white" stroke="#666666" points="625,-19 334,-19 334,0 625,0 625,-19"/>
<text text-anchor="middle" x="479.5" y="-7" font-family="Helvetica,sans-Serif" font-size="10.00">Assets.StyledLines.Runtime.DialogUtils.DialogManager.Update</text>
</a>
</g>
</g>
<!-- Node4&#45;&gt;Node7 -->
<g id="edge6_Node000004_Node000007" class="edge">
<title>Node4&#45;&gt;Node7</title>
<g id="a_edge6_Node000004_Node000007"><a xlink:title=" ">
<path fill="none" stroke="#63b8ff" d="M750.75,-35.99C696.31,-30.65 630.67,-24.22 577.71,-19.03"/>
<polygon fill="#63b8ff" stroke="#63b8ff" points="750.49,-39.48 760.78,-36.97 751.17,-32.51 750.49,-39.48"/>
</a>
</g>
</g>
<!-- Node6 -->
<g id="Node000006" class="node">
<title>Node6</title>
<g id="a_Node000006"><a xlink:href="$class_assets_1_1_styled_lines_1_1_runtime_1_1_dialog_utils_1_1_dialog_manager.html#ab96fbfc2e535bb4e1a20307702926a9b" xlink:title="Called when the script starts; initializes the model controller, parses the dialog,...">
<polygon fill="white" stroke="#666666" points="281,-56 0,-56 0,-37 281,-37 281,-56"/>
<text text-anchor="middle" x="140.5" y="-44" font-family="Helvetica,sans-Serif" font-size="10.00">Assets.StyledLines.Runtime.DialogUtils.DialogManager.Start</text>
</a>
</g>
</g>
<!-- Node5&#45;&gt;Node6 -->
<g id="edge5_Node000005_Node000006" class="edge">
<title>Node5&#45;&gt;Node6</title>
<g id="a_edge5_Node000005_Node000006"><a xlink:title=" ">
<path fill="none" stroke="#63b8ff" d="M315.28,-46.5C303.88,-46.5 292.45,-46.5 281.19,-46.5"/>
<polygon fill="#63b8ff" stroke="#63b8ff" points="315.28,-50 325.28,-46.5 315.28,-43 315.28,-50"/>
</a>
</g>
</g>
</g>
</svg>
