<?xml version="1.0" encoding="UTF-8" standalone="no"?>
<!DOCTYPE svg PUBLIC "-//W3C//DTD SVG 1.1//EN"
 "http://www.w3.org/Graphics/SVG/1.1/DTD/svg11.dtd">
<!-- Generated by graphviz version 6.0.1 (20220911.1526)
 -->
<!-- Title: RunModelAsync.OnDestroy Pages: 1 -->
<svg width="707pt" height="101pt"
 viewBox="0.00 0.00 707.00 101.00" xmlns="http://www.w3.org/2000/svg" xmlns:xlink="http://www.w3.org/1999/xlink">
<g id="graph0" class="graph" transform="scale(1 1) rotate(0) translate(4 97)">
<title>RunModelAsync.OnDestroy</title>
<!-- Node1 -->
<g id="Node000001" class="node">
<title>Node1</title>
<g id="a_Node000001"><a xlink:title="Method called when the MonoBehaviour is destroyed. Disposes of model resources and cleans up the envi...">
<polygon fill="#999999" stroke="#666666" points="137,-56 0,-56 0,-37 137,-37 137,-56"/>
<text text-anchor="middle" x="68.5" y="-44" font-family="Helvetica,sans-Serif" font-size="10.00">RunModelAsync.OnDestroy</text>
</a>
</g>
</g>
<!-- Node2 -->
<g id="Node000002" class="node">
<title>Node2</title>
<g id="a_Node000002"><a xlink:href="class_llama_library_1_1_async_llama_infrence.html#a32b189775ff5da836273149cf6cd1497" target="_top" xlink:title=" ">
<polygon fill="white" stroke="#666666" points="374,-93 173,-93 173,-74 374,-74 374,-93"/>
<text text-anchor="middle" x="273.5" y="-81" font-family="Helvetica,sans-Serif" font-size="10.00">LlamaLibrary.AsyncLlamaInfrence.Dispose</text>
</a>
</g>
</g>
<!-- Node1&#45;&gt;Node2 -->
<g id="edge1_Node000001_Node000002" class="edge">
<title>Node1&#45;&gt;Node2</title>
<g id="a_edge1_Node000001_Node000002"><a xlink:title=" ">
<path fill="none" stroke="#63b8ff" d="M121.35,-56.05C137.86,-59.08 156.2,-62.44 173,-65.5 184.87,-67.66 197.55,-69.96 209.73,-72.17"/>
<polygon fill="#63b8ff" stroke="#63b8ff" points="209.36,-75.66 219.82,-74 210.61,-68.77 209.36,-75.66"/>
</a>
</g>
</g>
<!-- Node4 -->
<g id="Node000004" class="node">
<title>Node4</title>
<g id="a_Node000004"><a xlink:href="class_llama_library_1_1gpt__params.html#a7ea53f5ea026af47d5e5476194f1566d" target="_top" xlink:title=" ">
<polygon fill="white" stroke="#666666" points="355.5,-56 191.5,-56 191.5,-37 355.5,-37 355.5,-56"/>
<text text-anchor="middle" x="273.5" y="-44" font-family="Helvetica,sans-Serif" font-size="10.00">LlamaLibrary.gpt_params.Dispose</text>
</a>
</g>
</g>
<!-- Node1&#45;&gt;Node4 -->
<g id="edge3_Node000001_Node000004" class="edge">
<title>Node1&#45;&gt;Node4</title>
<g id="a_edge3_Node000001_Node000004"><a xlink:title=" ">
<path fill="none" stroke="#63b8ff" d="M137.1,-46.5C151.25,-46.5 166.39,-46.5 181.24,-46.5"/>
<polygon fill="#63b8ff" stroke="#63b8ff" points="181.46,-50 191.46,-46.5 181.46,-43 181.46,-50"/>
</a>
</g>
</g>
<!-- Node6 -->
<g id="Node000006" class="node">
<title>Node6</title>
<g id="a_Node000006"><a xlink:href="class_llama_library_1_1_logging_context.html#ab6fd8a46d78d0662bcdb8a3a6129c08c" target="_top" xlink:title=" ">
<polygon fill="white" stroke="#666666" points="364,-19 183,-19 183,0 364,0 364,-19"/>
<text text-anchor="middle" x="273.5" y="-7" font-family="Helvetica,sans-Serif" font-size="10.00">LlamaLibrary.LoggingContext.Dispose</text>
</a>
</g>
</g>
<!-- Node1&#45;&gt;Node6 -->
<g id="edge5_Node000001_Node000006" class="edge">
<title>Node1&#45;&gt;Node6</title>
<g id="a_edge5_Node000001_Node000006"><a xlink:title=" ">
<path fill="none" stroke="#63b8ff" d="M121.78,-36.97C148.67,-32.07 181.64,-26.06 209.88,-20.91"/>
<polygon fill="#63b8ff" stroke="#63b8ff" points="210.84,-24.3 220.05,-19.06 209.58,-17.41 210.84,-24.3"/>
</a>
</g>
</g>
<!-- Node3 -->
<g id="Node000003" class="node">
<title>Node3</title>
<g id="a_Node000003"><a xlink:href="class_llama_library_1_1libllama__lib_p_i_n_v_o_k_e.html#af224ccbe4ec8c33a5ac0a278174281e3" target="_top" xlink:title=" ">
<polygon fill="white" stroke="#666666" points="699,-93 410,-93 410,-74 699,-74 699,-93"/>
<text text-anchor="middle" x="554.5" y="-81" font-family="Helvetica,sans-Serif" font-size="10.00">LlamaLibrary.libllama_libPINVOKE.delete_AsyncLlamaInfrence</text>
</a>
</g>
</g>
<!-- Node2&#45;&gt;Node3 -->
<g id="edge2_Node000002_Node000003" class="edge">
<title>Node2&#45;&gt;Node3</title>
<g id="a_edge2_Node000002_Node000003"><a xlink:title=" ">
<path fill="none" stroke="#63b8ff" d="M374.04,-83.5C382.37,-83.5 390.9,-83.5 399.5,-83.5"/>
<polygon fill="#63b8ff" stroke="#63b8ff" points="399.63,-87 409.63,-83.5 399.63,-80 399.63,-87"/>
</a>
</g>
</g>
<!-- Node5 -->
<g id="Node000005" class="node">
<title>Node5</title>
<g id="a_Node000005"><a xlink:href="class_llama_library_1_1libllama__lib_p_i_n_v_o_k_e.html#abca6ad2cac960a59c4d7b7ce91812951" target="_top" xlink:title=" ">
<polygon fill="white" stroke="#666666" points="680.5,-56 428.5,-56 428.5,-37 680.5,-37 680.5,-56"/>
<text text-anchor="middle" x="554.5" y="-44" font-family="Helvetica,sans-Serif" font-size="10.00">LlamaLibrary.libllama_libPINVOKE.delete_gpt_params</text>
</a>
</g>
</g>
<!-- Node4&#45;&gt;Node5 -->
<g id="edge4_Node000004_Node000005" class="edge">
<title>Node4&#45;&gt;Node5</title>
<g id="a_edge4_Node000004_Node000005"><a xlink:title=" ">
<path fill="none" stroke="#63b8ff" d="M355.57,-46.5C375.23,-46.5 396.77,-46.5 418.18,-46.5"/>
<polygon fill="#63b8ff" stroke="#63b8ff" points="418.33,-50 428.33,-46.5 418.33,-43 418.33,-50"/>
</a>
</g>
</g>
<!-- Node7 -->
<g id="Node000007" class="node">
<title>Node7</title>
<g id="a_Node000007"><a xlink:href="class_llama_library_1_1libllama__lib_p_i_n_v_o_k_e.html#a068d58bf7e6f134f41130f240a8d483b" target="_top" xlink:title=" ">
<polygon fill="white" stroke="#666666" points="689,-19 420,-19 420,0 689,0 689,-19"/>
<text text-anchor="middle" x="554.5" y="-7" font-family="Helvetica,sans-Serif" font-size="10.00">LlamaLibrary.libllama_libPINVOKE.delete_LoggingContext</text>
</a>
</g>
</g>
<!-- Node6&#45;&gt;Node7 -->
<g id="edge6_Node000006_Node000007" class="edge">
<title>Node6&#45;&gt;Node7</title>
<g id="a_edge6_Node000006_Node000007"><a xlink:title=" ">
<path fill="none" stroke="#63b8ff" d="M364.31,-9.5C378.88,-9.5 394.29,-9.5 409.76,-9.5"/>
<polygon fill="#63b8ff" stroke="#63b8ff" points="409.93,-13 419.93,-9.5 409.93,-6 409.93,-13"/>
</a>
</g>
</g>
</g>
</svg>
