<?xml version="1.0" encoding="UTF-8" standalone="no"?>
<!DOCTYPE svg PUBLIC "-//W3C//DTD SVG 1.1//EN"
 "http://www.w3.org/Graphics/SVG/1.1/DTD/svg11.dtd">
<!-- Generated by graphviz version 6.0.1 (20220911.1526)
 -->
<!-- Title: LlamaLibrary.CallbackWrapper.RegisterTokenCallback Pages: 1 -->
<svg width="538pt" height="64pt"
 viewBox="0.00 0.00 538.00 64.00" xmlns="http://www.w3.org/2000/svg" xmlns:xlink="http://www.w3.org/1999/xlink">
<g id="graph0" class="graph" transform="scale(1 1) rotate(0) translate(4 60)">
<title>LlamaLibrary.CallbackWrapper.RegisterTokenCallback</title>
<!-- Node1 -->
<g id="Node000001" class="node">
<title>Node1</title>
<g id="a_Node000001"><a xlink:title="Registers a token callback function for the Llama model.">
<polygon fill="#999999" stroke="#666666" points="252,-37 0,-37 0,-18 252,-18 252,-37"/>
<text text-anchor="middle" x="126" y="-25" font-family="Helvetica,sans-Serif" font-size="10.00">LlamaLibrary.CallbackWrapper.RegisterTokenCallback</text>
</a>
</g>
</g>
<!-- Node2 -->
<g id="Node000002" class="node">
<title>Node2</title>
<g id="a_Node000002"><a xlink:href="class_llama_library_1_1_callback_wrapper.html#aef415ea31ed50c9275cd935e988f6573" target="_top" xlink:title="Sets the token callback function for the native library.">
<polygon fill="white" stroke="#666666" points="524.5,-56 293.5,-56 293.5,-37 524.5,-37 524.5,-56"/>
<text text-anchor="middle" x="409" y="-44" font-family="Helvetica,sans-Serif" font-size="10.00">LlamaLibrary.CallbackWrapper.SetTokenCallback</text>
</a>
</g>
</g>
<!-- Node1&#45;&gt;Node2 -->
<g id="edge1_Node000001_Node000002" class="edge">
<title>Node1&#45;&gt;Node2</title>
<g id="a_edge1_Node000001_Node000002"><a xlink:title=" ">
<path fill="none" stroke="#63b8ff" d="M252.3,-35.97C262.5,-36.66 272.82,-37.36 283.03,-38.05"/>
<polygon fill="#63b8ff" stroke="#63b8ff" points="282.97,-41.55 293.19,-38.74 283.45,-34.57 282.97,-41.55"/>
</a>
</g>
</g>
<!-- Node3 -->
<g id="Node000003" class="node">
<title>Node3</title>
<g id="a_Node000003"><a xlink:href="class_llama_library_1_1_callback_wrapper.html#a9e8c964c9fc6be21114be42214490eb2" target="_top" xlink:title="Static method to handle the token callback from the native library.">
<polygon fill="white" stroke="#666666" points="530,-19 288,-19 288,0 530,0 530,-19"/>
<text text-anchor="middle" x="409" y="-7" font-family="Helvetica,sans-Serif" font-size="10.00">LlamaLibrary.CallbackWrapper.StaticTokenCallback</text>
</a>
</g>
</g>
<!-- Node1&#45;&gt;Node3 -->
<g id="edge2_Node000001_Node000003" class="edge">
<title>Node1&#45;&gt;Node3</title>
<g id="a_edge2_Node000001_Node000003"><a xlink:title=" ">
<path fill="none" stroke="#63b8ff" d="M252.3,-19.47C260.82,-18.93 269.41,-18.38 277.96,-17.83"/>
<polygon fill="#63b8ff" stroke="#63b8ff" points="278.2,-21.32 287.96,-17.19 277.75,-14.34 278.2,-21.32"/>
</a>
</g>
</g>
</g>
</svg>
