<?xml version="1.0" encoding="UTF-8" standalone="no"?>
<!DOCTYPE svg PUBLIC "-//W3C//DTD SVG 1.1//EN"
 "http://www.w3.org/Graphics/SVG/1.1/DTD/svg11.dtd">
<!-- Generated by graphviz version 6.0.1 (20220911.1526)
 -->
<!-- Title: PrintGeneratedText.OnStateChanged Pages: 1 -->
<svg width="372pt" height="64pt"
 viewBox="0.00 0.00 372.00 64.00" xmlns="http://www.w3.org/2000/svg" xmlns:xlink="http://www.w3.org/1999/xlink">
<g id="graph0" class="graph" transform="scale(1 1) rotate(0) translate(4 60)">
<title>PrintGeneratedText.OnStateChanged</title>
<!-- Node1 -->
<g id="Node000001" class="node">
<title>Node1</title>
<g id="a_Node000001"><a xlink:title=" ">
<polygon fill="#999999" stroke="#666666" points="364,-37 186,-37 186,-18 364,-18 364,-37"/>
<text text-anchor="middle" x="275" y="-25" font-family="Helvetica,sans-Serif" font-size="10.00">PrintGeneratedText.OnStateChanged</text>
</a>
</g>
</g>
<!-- Node2 -->
<g id="Node000002" class="node">
<title>Node2</title>
<g id="a_Node000002"><a xlink:href="class_print_generated_text.html#a6f47029e9bf4133730b461956b4a898d" target="_top" xlink:title=" ">
<polygon fill="white" stroke="#666666" points="150,-56 0,-56 0,-37 150,-37 150,-56"/>
<text text-anchor="middle" x="75" y="-44" font-family="Helvetica,sans-Serif" font-size="10.00">PrintGeneratedText.OnDestroy</text>
</a>
</g>
</g>
<!-- Node1&#45;&gt;Node2 -->
<g id="edge1_Node000001_Node000002" class="edge">
<title>Node1&#45;&gt;Node2</title>
<g id="a_edge1_Node000001_Node000002"><a xlink:title=" ">
<path fill="none" stroke="#63b8ff" d="M175.67,-36.94C167.1,-37.76 158.53,-38.58 150.2,-39.38"/>
<polygon fill="#63b8ff" stroke="#63b8ff" points="176.09,-40.41 185.71,-35.97 175.42,-33.44 176.09,-40.41"/>
</a>
</g>
</g>
<!-- Node3 -->
<g id="Node000003" class="node">
<title>Node3</title>
<g id="a_Node000003"><a xlink:href="class_print_generated_text.html#a076e1782f44b8b7a52bbf49164349169" target="_top" xlink:title=" ">
<polygon fill="white" stroke="#666666" points="137.5,-19 12.5,-19 12.5,0 137.5,0 137.5,-19"/>
<text text-anchor="middle" x="75" y="-7" font-family="Helvetica,sans-Serif" font-size="10.00">PrintGeneratedText.Start</text>
</a>
</g>
</g>
<!-- Node1&#45;&gt;Node3 -->
<g id="edge2_Node000001_Node000003" class="edge">
<title>Node1&#45;&gt;Node3</title>
<g id="a_edge2_Node000001_Node000003"><a xlink:title=" ">
<path fill="none" stroke="#63b8ff" d="M175.43,-18.54C162.59,-17.37 149.74,-16.2 137.74,-15.11"/>
<polygon fill="#63b8ff" stroke="#63b8ff" points="175.44,-22.05 185.71,-19.47 176.07,-15.08 175.44,-22.05"/>
</a>
</g>
</g>
</g>
</svg>
