<?xml version="1.0" encoding="UTF-8" standalone="no"?>
<!DOCTYPE svg PUBLIC "-//W3C//DTD SVG 1.1//EN"
 "http://www.w3.org/Graphics/SVG/1.1/DTD/svg11.dtd">
<!-- Generated by graphviz version 6.0.1 (20220911.1526)
 -->
<!-- Title: LlamaLibrary.Strings.Repeat Pages: 1 -->
<svg width="496pt" height="101pt"
 viewBox="0.00 0.00 496.00 101.00" xmlns="http://www.w3.org/2000/svg" xmlns:xlink="http://www.w3.org/1999/xlink">
<g id="graph0" class="graph" transform="scale(1 1) rotate(0) translate(4 97)">
<title>LlamaLibrary.Strings.Repeat</title>
<!-- Node1 -->
<g id="Node000001" class="node">
<title>Node1</title>
<g id="a_Node000001"><a xlink:title=" ">
<polygon fill="#999999" stroke="#666666" points="140,-56 0,-56 0,-37 140,-37 140,-56"/>
<text text-anchor="middle" x="70" y="-44" font-family="Helvetica,sans-Serif" font-size="10.00">LlamaLibrary.Strings.Repeat</text>
</a>
</g>
</g>
<!-- Node2 -->
<g id="Node000002" class="node">
<title>Node2</title>
<g id="a_Node000002"><a xlink:href="$class_llama_library_1_1libllama__lib_p_i_n_v_o_k_e_1_1_s_w_i_g_pending_exception.html#a2718a73540850b42db7c89e9be3519ec" xlink:title=" ">
<polygon fill="white" stroke="#666666" points="488,-93 176,-93 176,-74 488,-74 488,-93"/>
<text text-anchor="middle" x="332" y="-81" font-family="Helvetica,sans-Serif" font-size="10.00">LlamaLibrary.libllama_libPINVOKE.SWIGPendingException.Retrieve</text>
</a>
</g>
</g>
<!-- Node1&#45;&gt;Node2 -->
<g id="edge1_Node000001_Node000002" class="edge">
<title>Node1&#45;&gt;Node2</title>
<g id="a_edge1_Node000001_Node000002"><a xlink:title=" ">
<path fill="none" stroke="#63b8ff" d="M120.04,-56.04C137.65,-59.29 157.68,-62.78 176,-65.5 193.64,-68.12 212.45,-70.58 230.67,-72.79"/>
<polygon fill="#63b8ff" stroke="#63b8ff" points="230.37,-76.28 240.72,-73.99 231.2,-69.33 230.37,-76.28"/>
</a>
</g>
</g>
<!-- Node3 -->
<g id="Node000003" class="node">
<title>Node3</title>
<g id="a_Node000003"><a xlink:href="$class_llama_library_1_1_strings.html#a0e9e6085bcdc0c9e98034a9cbfbbe9d5" xlink:title=" ">
<polygon fill="white" stroke="#666666" points="402,-56 262,-56 262,-37 402,-37 402,-56"/>
<text text-anchor="middle" x="332" y="-44" font-family="Helvetica,sans-Serif" font-size="10.00">LlamaLibrary.Strings.Strings</text>
</a>
</g>
</g>
<!-- Node1&#45;&gt;Node3 -->
<g id="edge2_Node000001_Node000003" class="edge">
<title>Node1&#45;&gt;Node3</title>
<g id="a_edge2_Node000001_Node000003"><a xlink:title=" ">
<path fill="none" stroke="#63b8ff" d="M140.33,-46.5C174.56,-46.5 216.03,-46.5 251.53,-46.5"/>
<polygon fill="#63b8ff" stroke="#63b8ff" points="251.86,-50 261.86,-46.5 251.86,-43 251.86,-50"/>
</a>
</g>
</g>
<!-- Node4 -->
<g id="Node000004" class="node">
<title>Node4</title>
<g id="a_Node000004"><a xlink:href="$class_llama_library_1_1libllama__lib_p_i_n_v_o_k_e.html#a8e9aef7521b87dcf0644825a7b521b82" xlink:title=" ">
<polygon fill="white" stroke="#666666" points="450,-19 214,-19 214,0 450,0 450,-19"/>
<text text-anchor="middle" x="332" y="-7" font-family="Helvetica,sans-Serif" font-size="10.00">LlamaLibrary.libllama_libPINVOKE.Strings_Repeat</text>
</a>
</g>
</g>
<!-- Node1&#45;&gt;Node4 -->
<g id="edge3_Node000001_Node000004" class="edge">
<title>Node1&#45;&gt;Node4</title>
<g id="a_edge3_Node000001_Node000004"><a xlink:title=" ">
<path fill="none" stroke="#63b8ff" d="M123.53,-36.99C140.27,-34.09 158.89,-31.01 176,-28.5 195.73,-25.6 216.93,-22.8 237.11,-20.28"/>
<polygon fill="#63b8ff" stroke="#63b8ff" points="237.75,-23.73 247.24,-19.02 236.89,-16.78 237.75,-23.73"/>
</a>
</g>
</g>
</g>
</svg>
