<?xml version="1.0" encoding="UTF-8" standalone="no"?>
<!DOCTYPE svg PUBLIC "-//W3C//DTD SVG 1.1//EN"
 "http://www.w3.org/Graphics/SVG/1.1/DTD/svg11.dtd">
<!-- Generated by graphviz version 6.0.1 (20220911.1526)
 -->
<!-- Title: LlamaLibrary.libllama_libPINVOKE.AsyncLlamaInfrence_GetGenerationResults Pages: 1 -->
<svg width="1035pt" height="27pt"
 viewBox="0.00 0.00 1035.00 27.00" xmlns="http://www.w3.org/2000/svg" xmlns:xlink="http://www.w3.org/1999/xlink">
<g id="graph0" class="graph" transform="scale(1 1) rotate(0) translate(4 23)">
<title>LlamaLibrary.libllama_libPINVOKE.AsyncLlamaInfrence_GetGenerationResults</title>
<!-- Node1 -->
<g id="Node000001" class="node">
<title>Node1</title>
<g id="a_Node000001"><a xlink:title=" ">
<polygon fill="#999999" stroke="#666666" points="1027,-19 668,-19 668,0 1027,0 1027,-19"/>
<text text-anchor="middle" x="847.5" y="-7" font-family="Helvetica,sans-Serif" font-size="10.00">LlamaLibrary.libllama_libPINVOKE.AsyncLlamaInfrence_GetGenerationResults</text>
</a>
</g>
</g>
<!-- Node2 -->
<g id="Node000002" class="node">
<title>Node2</title>
<g id="a_Node000002"><a xlink:href="$class_llama_library_1_1_async_llama_infrence.html#a74d73cee873a2080edfa0d915f367d30" xlink:title=" ">
<polygon fill="white" stroke="#666666" points="632,-19 370,-19 370,0 632,0 632,-19"/>
<text text-anchor="middle" x="501" y="-7" font-family="Helvetica,sans-Serif" font-size="10.00">LlamaLibrary.AsyncLlamaInfrence.GetGenerationResults</text>
</a>
</g>
</g>
<!-- Node1&#45;&gt;Node2 -->
<g id="edge1_Node000001_Node000002" class="edge">
<title>Node1&#45;&gt;Node2</title>
<g id="a_edge1_Node000001_Node000002"><a xlink:title=" ">
<path fill="none" stroke="#63b8ff" d="M657.86,-9.5C649.28,-9.5 640.76,-9.5 632.38,-9.5"/>
<polygon fill="#63b8ff" stroke="#63b8ff" points="657.94,-13 667.94,-9.5 657.94,-6 657.94,-13"/>
</a>
</g>
</g>
<!-- Node3 -->
<g id="Node000003" class="node">
<title>Node3</title>
<g id="a_Node000003"><a xlink:href="$class_assets_1_1_styled_lines_1_1_runtime_1_1_llama_infrence_unity_1_1_run_model_async.html#aabe6cc4182e4b6029714bff7b9076a34" xlink:title="Method called every frame to update the state of the model and handle output.">
<polygon fill="white" stroke="#666666" points="334,-19 0,-19 0,0 334,0 334,-19"/>
<text text-anchor="middle" x="167" y="-7" font-family="Helvetica,sans-Serif" font-size="10.00">Assets.StyledLines.Runtime.LlamaInfrenceUnity.RunModelAsync.Update</text>
</a>
</g>
</g>
<!-- Node2&#45;&gt;Node3 -->
<g id="edge2_Node000002_Node000003" class="edge">
<title>Node2&#45;&gt;Node3</title>
<g id="a_edge2_Node000002_Node000003"><a xlink:title=" ">
<path fill="none" stroke="#63b8ff" d="M359.52,-9.5C351.1,-9.5 342.59,-9.5 334.09,-9.5"/>
<polygon fill="#63b8ff" stroke="#63b8ff" points="359.74,-13 369.74,-9.5 359.74,-6 359.74,-13"/>
</a>
</g>
</g>
</g>
</svg>
