<?xml version="1.0" encoding="UTF-8" standalone="no"?>
<!DOCTYPE svg PUBLIC "-//W3C//DTD SVG 1.1//EN"
 "http://www.w3.org/Graphics/SVG/1.1/DTD/svg11.dtd">
<!-- Generated by graphviz version 6.0.1 (20220911.1526)
 -->
<!-- Title: Assets.StyledLines.Runtime.UIHelpers.LogToUI.HandleLog Pages: 1 -->
<svg width="588pt" height="64pt"
 viewBox="0.00 0.00 588.00 64.00" xmlns="http://www.w3.org/2000/svg" xmlns:xlink="http://www.w3.org/1999/xlink">
<g id="graph0" class="graph" transform="scale(1 1) rotate(0) translate(4 60)">
<title>Assets.StyledLines.Runtime.UIHelpers.LogToUI.HandleLog</title>
<!-- Node1 -->
<g id="Node000001" class="node">
<title>Node1</title>
<g id="a_Node000001"><a xlink:title=" ">
<polygon fill="#999999" stroke="#666666" points="580,-37 308,-37 308,-18 580,-18 580,-37"/>
<text text-anchor="middle" x="444" y="-25" font-family="Helvetica,sans-Serif" font-size="10.00">Assets.StyledLines.Runtime.UIHelpers.LogToUI.HandleLog</text>
</a>
</g>
</g>
<!-- Node2 -->
<g id="Node000002" class="node">
<title>Node2</title>
<g id="a_Node000002"><a xlink:href="$class_assets_1_1_styled_lines_1_1_runtime_1_1_u_i_helpers_1_1_log_to_u_i.html#aeb58ade7da0b6c33339e152f2a5c3d63" xlink:title=" ">
<polygon fill="white" stroke="#666666" points="272,-56 0,-56 0,-37 272,-37 272,-56"/>
<text text-anchor="middle" x="136" y="-44" font-family="Helvetica,sans-Serif" font-size="10.00">Assets.StyledLines.Runtime.UIHelpers.LogToUI.OnDisable</text>
</a>
</g>
</g>
<!-- Node1&#45;&gt;Node2 -->
<g id="edge1_Node000001_Node000002" class="edge">
<title>Node1&#45;&gt;Node2</title>
<g id="a_edge1_Node000001_Node000002"><a xlink:title=" ">
<path fill="none" stroke="#63b8ff" d="M297.87,-36.51C289.31,-37.04 280.72,-37.58 272.2,-38.1"/>
<polygon fill="#63b8ff" stroke="#63b8ff" points="298.13,-40 307.89,-35.89 297.7,-33.02 298.13,-40"/>
</a>
</g>
</g>
<!-- Node3 -->
<g id="Node000003" class="node">
<title>Node3</title>
<g id="a_Node000003"><a xlink:href="$class_assets_1_1_styled_lines_1_1_runtime_1_1_u_i_helpers_1_1_log_to_u_i.html#a28be6f1bbe189335927c425fb15fdcb5" xlink:title=" ">
<polygon fill="white" stroke="#666666" points="270.5,-19 1.5,-19 1.5,0 270.5,0 270.5,-19"/>
<text text-anchor="middle" x="136" y="-7" font-family="Helvetica,sans-Serif" font-size="10.00">Assets.StyledLines.Runtime.UIHelpers.LogToUI.OnEnable</text>
</a>
</g>
</g>
<!-- Node1&#45;&gt;Node3 -->
<g id="edge2_Node000001_Node000003" class="edge">
<title>Node1&#45;&gt;Node3</title>
<g id="a_edge2_Node000001_Node000003"><a xlink:title=" ">
<path fill="none" stroke="#63b8ff" d="M297.75,-18.96C288.75,-18.43 279.71,-17.89 270.76,-17.37"/>
<polygon fill="#63b8ff" stroke="#63b8ff" points="297.7,-22.46 307.89,-19.55 298.12,-15.47 297.7,-22.46"/>
</a>
</g>
</g>
</g>
</svg>
