<?xml version="1.0" encoding="UTF-8" standalone="no"?>
<!DOCTYPE svg PUBLIC "-//W3C//DTD SVG 1.1//EN"
 "http://www.w3.org/Graphics/SVG/1.1/DTD/svg11.dtd">
<!-- Generated by graphviz version 6.0.1 (20220911.1526)
 -->
<!-- Title: LlamaLibrary.CallbackWrapper.RegisterTokenCallback Pages: 1 -->
<svg width="451pt" height="64pt"
 viewBox="0.00 0.00 451.00 64.00" xmlns="http://www.w3.org/2000/svg" xmlns:xlink="http://www.w3.org/1999/xlink">
<g id="graph0" class="graph" transform="scale(1 1) rotate(0) translate(4 60)">
<title>LlamaLibrary.CallbackWrapper.RegisterTokenCallback</title>
<!-- Node1 -->
<g id="Node000001" class="node">
<title>Node1</title>
<g id="a_Node000001"><a xlink:title="Registers a token callback function for the Llama model.">
<polygon fill="#999999" stroke="#666666" points="443,-37 191,-37 191,-18 443,-18 443,-37"/>
<text text-anchor="middle" x="317" y="-25" font-family="Helvetica,sans-Serif" font-size="10.00">LlamaLibrary.CallbackWrapper.RegisterTokenCallback</text>
</a>
</g>
</g>
<!-- Node2 -->
<g id="Node000002" class="node">
<title>Node2</title>
<g id="a_Node000002"><a xlink:href="class_model_controller.html#a1fc046dc8dd8428ecb7a0c797b423397" target="_top" xlink:title="Constructor for initializing the ModelController with a binary asset. The constructor sets up the mod...">
<polygon fill="white" stroke="#666666" points="155,-56 0,-56 0,-37 155,-37 155,-56"/>
<text text-anchor="middle" x="77.5" y="-44" font-family="Helvetica,sans-Serif" font-size="10.00">ModelController.ModelController</text>
</a>
</g>
</g>
<!-- Node1&#45;&gt;Node2 -->
<g id="edge1_Node000001_Node000002" class="edge">
<title>Node1&#45;&gt;Node2</title>
<g id="a_edge1_Node000001_Node000002"><a xlink:title=" ">
<path fill="none" stroke="#63b8ff" d="M186.9,-37.83C176.04,-38.7 165.3,-39.56 155.03,-40.38"/>
<polygon fill="#63b8ff" stroke="#63b8ff" points="187.21,-41.31 196.9,-37.03 186.65,-34.34 187.21,-41.31"/>
</a>
</g>
</g>
<!-- Node3 -->
<g id="Node000003" class="node">
<title>Node3</title>
<g id="a_Node000003"><a xlink:href="class_run_model_async.html#a57b42f3e7a40dd687a32b1e62f2ce96a" target="_top" xlink:title="Method called at the start of the MonoBehaviour&#39;s lifecycle. Initializes the model,...">
<polygon fill="white" stroke="#666666" points="133.5,-19 21.5,-19 21.5,0 133.5,0 133.5,-19"/>
<text text-anchor="middle" x="77.5" y="-7" font-family="Helvetica,sans-Serif" font-size="10.00">RunModelAsync.Start</text>
</a>
</g>
</g>
<!-- Node1&#45;&gt;Node3 -->
<g id="edge2_Node000001_Node000003" class="edge">
<title>Node1&#45;&gt;Node3</title>
<g id="a_edge2_Node000001_Node000003"><a xlink:title=" ">
<path fill="none" stroke="#63b8ff" d="M180.65,-17.24C164.12,-15.99 148.02,-14.77 133.68,-13.68"/>
<polygon fill="#63b8ff" stroke="#63b8ff" points="180.75,-20.76 190.99,-18.03 181.28,-13.78 180.75,-20.76"/>
</a>
</g>
</g>
</g>
</svg>
