<?xml version="1.0" encoding="UTF-8" standalone="no"?>
<!DOCTYPE svg PUBLIC "-//W3C//DTD SVG 1.1//EN"
 "http://www.w3.org/Graphics/SVG/1.1/DTD/svg11.dtd">
<!-- Generated by graphviz version 6.0.1 (20220911.1526)
 -->
<!-- Title: LlamaLibrary.Int32s.SetRange Pages: 1 -->
<svg width="503pt" height="101pt"
 viewBox="0.00 0.00 503.00 101.00" xmlns="http://www.w3.org/2000/svg" xmlns:xlink="http://www.w3.org/1999/xlink">
<g id="graph0" class="graph" transform="scale(1 1) rotate(0) translate(4 97)">
<title>LlamaLibrary.Int32s.SetRange</title>
<!-- Node1 -->
<g id="Node000001" class="node">
<title>Node1</title>
<g id="a_Node000001"><a xlink:title=" ">
<polygon fill="#999999" stroke="#666666" points="147,-56 0,-56 0,-37 147,-37 147,-56"/>
<text text-anchor="middle" x="73.5" y="-44" font-family="Helvetica,sans-Serif" font-size="10.00">LlamaLibrary.Int32s.SetRange</text>
</a>
</g>
</g>
<!-- Node2 -->
<g id="Node000002" class="node">
<title>Node2</title>
<g id="a_Node000002"><a xlink:href="$class_llama_library_1_1_int32s.html#af513ab0e44144d369d5633a60a2aaa24" xlink:title=" ">
<polygon fill="white" stroke="#666666" points="407.5,-93 270.5,-93 270.5,-74 407.5,-74 407.5,-93"/>
<text text-anchor="middle" x="339" y="-81" font-family="Helvetica,sans-Serif" font-size="10.00">LlamaLibrary.Int32s.getCPtr</text>
</a>
</g>
</g>
<!-- Node1&#45;&gt;Node2 -->
<g id="edge1_Node000001_Node000002" class="edge">
<title>Node1&#45;&gt;Node2</title>
<g id="a_edge1_Node000001_Node000002"><a xlink:title=" ">
<path fill="none" stroke="#63b8ff" d="M125.19,-56C143.38,-59.25 164.08,-62.75 183,-65.5 208.09,-69.15 235.56,-72.54 260.31,-75.37"/>
<polygon fill="#63b8ff" stroke="#63b8ff" points="260.04,-78.86 270.37,-76.5 260.82,-71.9 260.04,-78.86"/>
</a>
</g>
</g>
<!-- Node3 -->
<g id="Node000003" class="node">
<title>Node3</title>
<g id="a_Node000003"><a xlink:href="$class_llama_library_1_1libllama__lib_p_i_n_v_o_k_e.html#a248871aaac19b59e0c12908d95711c74" xlink:title=" ">
<polygon fill="white" stroke="#666666" points="461,-56 217,-56 217,-37 461,-37 461,-56"/>
<text text-anchor="middle" x="339" y="-44" font-family="Helvetica,sans-Serif" font-size="10.00">LlamaLibrary.libllama_libPINVOKE.Int32s_SetRange</text>
</a>
</g>
</g>
<!-- Node1&#45;&gt;Node3 -->
<g id="edge2_Node000001_Node000003" class="edge">
<title>Node1&#45;&gt;Node3</title>
<g id="a_edge2_Node000001_Node000003"><a xlink:title=" ">
<path fill="none" stroke="#63b8ff" d="M147.2,-46.5C165.79,-46.5 186.36,-46.5 206.9,-46.5"/>
<polygon fill="#63b8ff" stroke="#63b8ff" points="206.98,-50 216.98,-46.5 206.98,-43 206.98,-50"/>
</a>
</g>
</g>
<!-- Node4 -->
<g id="Node000004" class="node">
<title>Node4</title>
<g id="a_Node000004"><a xlink:href="$class_llama_library_1_1libllama__lib_p_i_n_v_o_k_e_1_1_s_w_i_g_pending_exception.html#a2718a73540850b42db7c89e9be3519ec" xlink:title=" ">
<polygon fill="white" stroke="#666666" points="495,-19 183,-19 183,0 495,0 495,-19"/>
<text text-anchor="middle" x="339" y="-7" font-family="Helvetica,sans-Serif" font-size="10.00">LlamaLibrary.libllama_libPINVOKE.SWIGPendingException.Retrieve</text>
</a>
</g>
</g>
<!-- Node1&#45;&gt;Node4 -->
<g id="edge3_Node000001_Node000004" class="edge">
<title>Node1&#45;&gt;Node4</title>
<g id="a_edge3_Node000001_Node000004"><a xlink:title=" ">
<path fill="none" stroke="#63b8ff" d="M129.07,-36.98C146.3,-34.1 165.42,-31.03 183,-28.5 203.06,-25.61 224.63,-22.78 245.11,-20.24"/>
<polygon fill="#63b8ff" stroke="#63b8ff" points="245.56,-23.71 255.06,-19.01 244.71,-16.76 245.56,-23.71"/>
</a>
</g>
</g>
</g>
</svg>
