<?xml version="1.0" encoding="UTF-8" standalone="no"?>
<!DOCTYPE svg PUBLIC "-//W3C//DTD SVG 1.1//EN"
 "http://www.w3.org/Graphics/SVG/1.1/DTD/svg11.dtd">
<!-- Generated by graphviz version 6.0.1 (20220911.1526)
 -->
<!-- Title: LlamaLibrary.Int32s.Int32sEnumerator Pages: 1 -->
<!--zoomable 999 -->

<svg id="main" version="1.1" xmlns="http://www.w3.org/2000/svg" xmlns:xlink="http://www.w3.org/1999/xlink" xml:space="preserve" onload="init(evt)">
<style type="text/css"><![CDATA[
.node, .edge {opacity: 0.7;}
.node.selected, .edge.selected {opacity: 1;}
.edge:hover path { stroke: red; }
.edge:hover polygon { stroke: red; fill: red; }
]]></style>

<defs>
  <circle id="rim" cx="0" cy="0" r="7"/>
  <circle id="rim2" cx="0" cy="0" r="3.5"/>
  <g id="zoomPlus">
    <use xlink:href="#rim" fill="#404040"><set attributeName="fill" to="#808080" begin="zoomplus.mouseover" end="zoomplus.mouseout"/></use>
    <path d="M-4,0h8M0,-4v8" fill="none" stroke="white" stroke-width="1.5" pointer-events="none"/>
  </g>
  <g id="zoomMin">
    <use xlink:href="#rim" fill="#404040"><set attributeName="fill" to="#808080" begin="zoomminus.mouseover" end="zoomminus.mouseout"/></use>
    <path d="M-4,0h8" fill="none" stroke="white" stroke-width="1.5" pointer-events="none"/>
  </g>
  <g id="arrowUp" transform="translate(30 24)">
    <use xlink:href="#rim"/>
    <path pointer-events="none" fill="none" stroke="white" stroke-width="1.5" d="M0,-3.0v7 M-2.5,-0.5L0,-3.0L2.5,-0.5"/>
  </g>
  <g id="arrowRight" transform="rotate(90) translate(36 -43)">
    <use xlink:href="#rim"/>
    <path pointer-events="none" fill="none" stroke="white" stroke-width="1.5" d="M0,-3.0v7 M-2.5,-0.5L0,-3.0L2.5,-0.5"/>
  </g>
  <g id="arrowDown" transform="rotate(180) translate(-30 -48)">
    <use xlink:href="#rim"/>
    <path pointer-events="none" fill="none" stroke="white" stroke-width="1.5" d="M0,-3.0v7 M-2.5,-0.5L0,-3.0L2.5,-0.5"/>
  </g>
  <g id="arrowLeft" transform="rotate(270) translate(-36 17)">
    <use xlink:href="#rim"/>
    <path pointer-events="none" fill="none" stroke="white" stroke-width="1.5" d="M0,-3.0v7 M-2.5,-0.5L0,-3.0L2.5,-0.5"/>
  </g>
  <g id="resetDef">
    <use xlink:href="#rim2" fill="#404040"><set attributeName="fill" to="#808080" begin="reset.mouseover" end="reset.mouseout"/></use>
  </g>
</defs>
<script type="application/ecmascript">
var viewWidth = 1079;
var viewHeight = 999;
var sectionId = 'dynsection-1';
</script>
<script type="application/ecmascript" xlink:href="svg.min.js"/>
<svg id="graph" class="graph">
<g id="viewport">
<title>LlamaLibrary.Int32s.Int32sEnumerator</title>
<!-- Node1 -->
<g id="Node000001" class="node">
<title>Node1</title>
<g id="a_Node000001"><a xlink:title=" ">
<polygon fill="#999999" stroke="none" points="455,-154 197,-154 197,0 455,0 455,-154"/>
<text text-anchor="start" x="243.5" y="-142" font-family="Helvetica,sans-Serif" font-size="10.00">LlamaLibrary.Int32s.Int32sEnumerator</text>
<text text-anchor="start" x="201" y="-127" font-family="Helvetica,sans-Serif" font-size="10.00">+</text>
<text text-anchor="start" x="212" y="-127" font-family="Helvetica,sans-Serif" font-size="10.00">int Current</text>
<text text-anchor="start" x="201" y="-112" font-family="Helvetica,sans-Serif" font-size="10.00">+</text>
<text text-anchor="start" x="212" y="-112" font-family="Helvetica,sans-Serif" font-size="10.00">object global::System.Collections.IEnumerator. Current</text>
<text text-anchor="start" x="202.5" y="-97" font-family="Helvetica,sans-Serif" font-size="10.00">&#45;</text>
<text text-anchor="start" x="212" y="-97" font-family="Helvetica,sans-Serif" font-size="10.00">int currentIndex</text>
<text text-anchor="start" x="202.5" y="-82" font-family="Helvetica,sans-Serif" font-size="10.00">&#45;</text>
<text text-anchor="start" x="212" y="-82" font-family="Helvetica,sans-Serif" font-size="10.00">object currentObject</text>
<text text-anchor="start" x="202.5" y="-67" font-family="Helvetica,sans-Serif" font-size="10.00">&#45;</text>
<text text-anchor="start" x="212" y="-67" font-family="Helvetica,sans-Serif" font-size="10.00">int currentSize</text>
<text text-anchor="start" x="201" y="-52" font-family="Helvetica,sans-Serif" font-size="10.00">+</text>
<text text-anchor="start" x="212" y="-52" font-family="Helvetica,sans-Serif" font-size="10.00">void Dispose()</text>
<text text-anchor="start" x="201" y="-37" font-family="Helvetica,sans-Serif" font-size="10.00">+</text>
<text text-anchor="start" x="212" y="-37" font-family="Helvetica,sans-Serif" font-size="10.00">Int32sEnumerator(Int32s collection)</text>
<text text-anchor="start" x="201" y="-22" font-family="Helvetica,sans-Serif" font-size="10.00">+</text>
<text text-anchor="start" x="212" y="-22" font-family="Helvetica,sans-Serif" font-size="10.00">bool MoveNext()</text>
<text text-anchor="start" x="201" y="-7" font-family="Helvetica,sans-Serif" font-size="10.00">+</text>
<text text-anchor="start" x="212" y="-7" font-family="Helvetica,sans-Serif" font-size="10.00">void Reset()</text>
<polygon fill="#666666" stroke="#666666" points="197,-137 197,-137 455,-137 455,-137 197,-137"/>
<polygon fill="#666666" stroke="#666666" points="197,-62 197,-62 210,-62 210,-62 197,-62"/>
<polygon fill="#666666" stroke="#666666" points="210,-62 210,-62 455,-62 455,-62 210,-62"/>
<polygon fill="none" stroke="#666666" points="197,0 197,-154 455,-154 455,0 197,0"/>
</a>
</g>
</g>
<!-- Node2 -->
<g id="Node000002" class="node">
<title>Node2</title>
<g id="a_Node000002"><a xlink:title=" ">
<polygon fill="white" stroke="none" points="182,-572.5 0,-572.5 0,-523.5 182,-523.5 182,-572.5"/>
<text text-anchor="start" x="5" y="-560" font-family="Helvetica,sans-Serif" font-size="10.00">global::SystemCollections::IEnumerator</text>
<text text-anchor="start" x="89" y="-545" font-family="Helvetica,sans-Serif" font-size="10.00"> </text>
<text text-anchor="start" x="89" y="-530" font-family="Helvetica,sans-Serif" font-size="10.00"> </text>
<polygon fill="#666666" stroke="#666666" points="0,-555 0,-555 182,-555 182,-555 0,-555"/>
<polygon fill="#666666" stroke="#666666" points="0,-540 0,-540 182,-540 182,-540 0,-540"/>
<polygon fill="none" stroke="#666666" points="0,-523.5 0,-572.5 182,-572.5 182,-523.5 0,-523.5"/>
</a>
</g>
</g>
<!-- Node2&#45;&gt;Node1 -->
<g id="edge1_Node000001_Node000002" class="edge">
<title>Node2&#45;&gt;Node1</title>
<g id="a_edge1_Node000001_Node000002"><a xlink:title=" ">
<path fill="none" stroke="#63b8ff" d="M94.57,-513.31C102.72,-448.45 127.16,-303.59 191,-201 201.39,-184.31 214.66,-168.49 228.81,-154.1"/>
<polygon fill="none" stroke="#63b8ff" points="91.08,-513.03 93.36,-523.38 98.03,-513.87 91.08,-513.03"/>
</a>
</g>
</g>
<!-- Node3 -->
<g id="Node000003" class="node">
<title>Node3</title>
<g id="a_Node000003"><a xlink:title=" ">
<polygon fill="white" stroke="none" points="451.5,-572.5 200.5,-572.5 200.5,-523.5 451.5,-523.5 451.5,-572.5"/>
<text text-anchor="start" x="206" y="-560" font-family="Helvetica,sans-Serif" font-size="10.00">global::SystemCollections::Generic::IEnumerator&lt; int &gt;</text>
<text text-anchor="start" x="324.5" y="-545" font-family="Helvetica,sans-Serif" font-size="10.00"> </text>
<text text-anchor="start" x="324.5" y="-530" font-family="Helvetica,sans-Serif" font-size="10.00"> </text>
<polygon fill="#666666" stroke="#666666" points="201,-555 201,-555 452,-555 452,-555 201,-555"/>
<polygon fill="#666666" stroke="#666666" points="201,-540 201,-540 452,-540 452,-540 201,-540"/>
<polygon fill="none" stroke="#666666" points="200.5,-523.5 200.5,-572.5 451.5,-572.5 451.5,-523.5 200.5,-523.5"/>
</a>
</g>
</g>
<!-- Node3&#45;&gt;Node1 -->
<g id="edge2_Node000001_Node000003" class="edge">
<title>Node3&#45;&gt;Node1</title>
<g id="a_edge2_Node000001_Node000003"><a xlink:title=" ">
<path fill="none" stroke="#63b8ff" d="M326,-513.19C326,-438.5 326,-257.88 326,-154.33"/>
<polygon fill="none" stroke="#63b8ff" points="322.5,-513.42 326,-523.42 329.5,-513.42 322.5,-513.42"/>
</a>
</g>
</g>
<!-- Node4 -->
<g id="Node000004" class="node">
<title>Node4</title>
<g id="a_Node000004"><a xlink:href="class_llama_library_1_1_int32s.html" target="_top" xlink:title=" ">
<polygon fill="white" stroke="none" points="1046,-895 470,-895 470,-201 1046,-201 1046,-895"/>
<text text-anchor="start" x="715.5" y="-883" font-family="Helvetica,sans-Serif" font-size="10.00">LlamaLibrary.Int32s</text>
<text text-anchor="start" x="474" y="-868" font-family="Helvetica,sans-Serif" font-size="10.00">+</text>
<text text-anchor="start" x="485" y="-868" font-family="Helvetica,sans-Serif" font-size="10.00">int Capacity</text>
<text text-anchor="start" x="474" y="-853" font-family="Helvetica,sans-Serif" font-size="10.00">+</text>
<text text-anchor="start" x="485" y="-853" font-family="Helvetica,sans-Serif" font-size="10.00">int Count</text>
<text text-anchor="start" x="474" y="-838" font-family="Helvetica,sans-Serif" font-size="10.00">+</text>
<text text-anchor="start" x="485" y="-838" font-family="Helvetica,sans-Serif" font-size="10.00">bool IsFixedSize</text>
<text text-anchor="start" x="474" y="-823" font-family="Helvetica,sans-Serif" font-size="10.00">+</text>
<text text-anchor="start" x="485" y="-823" font-family="Helvetica,sans-Serif" font-size="10.00">bool IsReadOnly</text>
<text text-anchor="start" x="474" y="-808" font-family="Helvetica,sans-Serif" font-size="10.00">+</text>
<text text-anchor="start" x="485" y="-808" font-family="Helvetica,sans-Serif" font-size="10.00">bool IsSynchronized</text>
<text text-anchor="start" x="474" y="-793" font-family="Helvetica,sans-Serif" font-size="10.00">+</text>
<text text-anchor="start" x="485" y="-793" font-family="Helvetica,sans-Serif" font-size="10.00">int this[int index]</text>
<text text-anchor="start" x="474.5" y="-778" font-family="Helvetica,sans-Serif" font-size="10.00">#</text>
<text text-anchor="start" x="485" y="-778" font-family="Helvetica,sans-Serif" font-size="10.00">bool swigCMemOwn</text>
<text text-anchor="start" x="474" y="-763" font-family="Helvetica,sans-Serif" font-size="10.00">+</text>
<text text-anchor="start" x="485" y="-763" font-family="Helvetica,sans-Serif" font-size="10.00">void Add(int x)</text>
<text text-anchor="start" x="474" y="-748" font-family="Helvetica,sans-Serif" font-size="10.00">+</text>
<text text-anchor="start" x="485" y="-748" font-family="Helvetica,sans-Serif" font-size="10.00">void AddRange(Int32s values)</text>
<text text-anchor="start" x="474" y="-733" font-family="Helvetica,sans-Serif" font-size="10.00">+</text>
<text text-anchor="start" x="485" y="-733" font-family="Helvetica,sans-Serif" font-size="10.00">void Clear()</text>
<text text-anchor="start" x="474" y="-718" font-family="Helvetica,sans-Serif" font-size="10.00">+</text>
<text text-anchor="start" x="485" y="-718" font-family="Helvetica,sans-Serif" font-size="10.00">bool Contains(int value)</text>
<text text-anchor="start" x="474" y="-703" font-family="Helvetica,sans-Serif" font-size="10.00">+</text>
<text text-anchor="start" x="485" y="-703" font-family="Helvetica,sans-Serif" font-size="10.00">void CopyTo(int index, int[] array, int arrayIndex, int count)</text>
<text text-anchor="start" x="474" y="-688" font-family="Helvetica,sans-Serif" font-size="10.00">+</text>
<text text-anchor="start" x="485" y="-688" font-family="Helvetica,sans-Serif" font-size="10.00">void CopyTo(int[] array)</text>
<text text-anchor="start" x="474" y="-673" font-family="Helvetica,sans-Serif" font-size="10.00">+</text>
<text text-anchor="start" x="485" y="-673" font-family="Helvetica,sans-Serif" font-size="10.00">void CopyTo(int[] array, int arrayIndex)</text>
<text text-anchor="start" x="474" y="-658" font-family="Helvetica,sans-Serif" font-size="10.00">+</text>
<text text-anchor="start" x="485" y="-658" font-family="Helvetica,sans-Serif" font-size="10.00">virtual void Dispose()</text>
<text text-anchor="start" x="474" y="-643" font-family="Helvetica,sans-Serif" font-size="10.00">+</text>
<text text-anchor="start" x="485" y="-643" font-family="Helvetica,sans-Serif" font-size="10.00">Int32sEnumerator GetEnumerator()</text>
<text text-anchor="start" x="474" y="-628" font-family="Helvetica,sans-Serif" font-size="10.00">+</text>
<text text-anchor="start" x="485" y="-628" font-family="Helvetica,sans-Serif" font-size="10.00">Int32s GetRange(int index, int count)</text>
<text text-anchor="start" x="474" y="-613" font-family="Helvetica,sans-Serif" font-size="10.00">+</text>
<text text-anchor="start" x="485" y="-613" font-family="Helvetica,sans-Serif" font-size="10.00">int IndexOf(int value)</text>
<text text-anchor="start" x="474" y="-598" font-family="Helvetica,sans-Serif" font-size="10.00">+</text>
<text text-anchor="start" x="485" y="-598" font-family="Helvetica,sans-Serif" font-size="10.00">void Insert(int index, int x)</text>
<text text-anchor="start" x="474" y="-583" font-family="Helvetica,sans-Serif" font-size="10.00">+</text>
<text text-anchor="start" x="485" y="-583" font-family="Helvetica,sans-Serif" font-size="10.00">void InsertRange(int index, Int32s values)</text>
<text text-anchor="start" x="474" y="-568" font-family="Helvetica,sans-Serif" font-size="10.00">+</text>
<text text-anchor="start" x="485" y="-568" font-family="Helvetica,sans-Serif" font-size="10.00">Int32s()</text>
<text text-anchor="start" x="474" y="-553" font-family="Helvetica,sans-Serif" font-size="10.00">+</text>
<text text-anchor="start" x="485" y="-553" font-family="Helvetica,sans-Serif" font-size="10.00">Int32s(global::System.Collections.Generic.IEnumerable&lt; int &gt; c)</text>
<text text-anchor="start" x="474" y="-538" font-family="Helvetica,sans-Serif" font-size="10.00">+</text>
<text text-anchor="start" x="485" y="-538" font-family="Helvetica,sans-Serif" font-size="10.00">Int32s(global::System.Collections.IEnumerable c)</text>
<text text-anchor="start" x="474" y="-523" font-family="Helvetica,sans-Serif" font-size="10.00">+</text>
<text text-anchor="start" x="485" y="-523" font-family="Helvetica,sans-Serif" font-size="10.00">Int32s(int capacity)</text>
<text text-anchor="start" x="474" y="-508" font-family="Helvetica,sans-Serif" font-size="10.00">+</text>
<text text-anchor="start" x="485" y="-508" font-family="Helvetica,sans-Serif" font-size="10.00">Int32s(Int32s other)</text>
<text text-anchor="start" x="474" y="-493" font-family="Helvetica,sans-Serif" font-size="10.00">+</text>
<text text-anchor="start" x="485" y="-493" font-family="Helvetica,sans-Serif" font-size="10.00">int LastIndexOf(int value)</text>
<text text-anchor="start" x="474" y="-478" font-family="Helvetica,sans-Serif" font-size="10.00">+</text>
<text text-anchor="start" x="485" y="-478" font-family="Helvetica,sans-Serif" font-size="10.00">bool Remove(int value)</text>
<text text-anchor="start" x="474" y="-463" font-family="Helvetica,sans-Serif" font-size="10.00">+</text>
<text text-anchor="start" x="485" y="-463" font-family="Helvetica,sans-Serif" font-size="10.00">void RemoveAt(int index)</text>
<text text-anchor="start" x="474" y="-448" font-family="Helvetica,sans-Serif" font-size="10.00">+</text>
<text text-anchor="start" x="485" y="-448" font-family="Helvetica,sans-Serif" font-size="10.00">void RemoveRange(int index, int count)</text>
<text text-anchor="start" x="474" y="-433" font-family="Helvetica,sans-Serif" font-size="10.00">+</text>
<text text-anchor="start" x="485" y="-433" font-family="Helvetica,sans-Serif" font-size="10.00">void Reverse()</text>
<text text-anchor="start" x="474" y="-418" font-family="Helvetica,sans-Serif" font-size="10.00">+</text>
<text text-anchor="start" x="485" y="-418" font-family="Helvetica,sans-Serif" font-size="10.00">void Reverse(int index, int count)</text>
<text text-anchor="start" x="474" y="-403" font-family="Helvetica,sans-Serif" font-size="10.00">+</text>
<text text-anchor="start" x="485" y="-403" font-family="Helvetica,sans-Serif" font-size="10.00">void SetRange(int index, Int32s values)</text>
<text text-anchor="start" x="474" y="-388" font-family="Helvetica,sans-Serif" font-size="10.00">+</text>
<text text-anchor="start" x="485" y="-388" font-family="Helvetica,sans-Serif" font-size="10.00">int[] ToArray()</text>
<text text-anchor="start" x="474" y="-373" font-family="Helvetica,sans-Serif" font-size="10.00">+</text>
<text text-anchor="start" x="485" y="-373" font-family="Helvetica,sans-Serif" font-size="10.00">static Int32s Repeat(int value, int count)</text>
<text text-anchor="start" x="474" y="-358" font-family="Helvetica,sans-Serif" font-size="10.00">~</text>
<text text-anchor="start" x="485" y="-358" font-family="Helvetica,sans-Serif" font-size="10.00">Int32s(global::System.IntPtr cPtr, bool cMemoryOwn)</text>
<text text-anchor="start" x="474" y="-343" font-family="Helvetica,sans-Serif" font-size="10.00">~</text>
<text text-anchor="start" x="485" y="-343" font-family="Helvetica,sans-Serif" font-size="10.00">static global::System.Runtime.InteropServices.HandleRef getCPtr(Int32s obj)</text>
<text text-anchor="start" x="475.5" y="-328" font-family="Helvetica,sans-Serif" font-size="10.00">&#45;</text>
<text text-anchor="start" x="485" y="-328" font-family="Helvetica,sans-Serif" font-size="10.00">uint capacity()</text>
<text text-anchor="start" x="475.5" y="-313" font-family="Helvetica,sans-Serif" font-size="10.00">&#45;</text>
<text text-anchor="start" x="485" y="-313" font-family="Helvetica,sans-Serif" font-size="10.00">global::System.Collections.Generic.IEnumerator&lt; int &gt; global::System.Collections.Generic.IEnumerable&lt; int &gt;. GetEnumerator()</text>
<text text-anchor="start" x="475.5" y="-298" font-family="Helvetica,sans-Serif" font-size="10.00">&#45;</text>
<text text-anchor="start" x="485" y="-298" font-family="Helvetica,sans-Serif" font-size="10.00">global::System.Collections.IEnumerator global::System.Collections.IEnumerable. GetEnumerator()</text>
<text text-anchor="start" x="475.5" y="-283" font-family="Helvetica,sans-Serif" font-size="10.00">&#45;</text>
<text text-anchor="start" x="485" y="-283" font-family="Helvetica,sans-Serif" font-size="10.00">int getitem(int index)</text>
<text text-anchor="start" x="475.5" y="-268" font-family="Helvetica,sans-Serif" font-size="10.00">&#45;</text>
<text text-anchor="start" x="485" y="-268" font-family="Helvetica,sans-Serif" font-size="10.00">int getitemcopy(int index)</text>
<text text-anchor="start" x="475.5" y="-253" font-family="Helvetica,sans-Serif" font-size="10.00">&#45;</text>
<text text-anchor="start" x="485" y="-253" font-family="Helvetica,sans-Serif" font-size="10.00">void reserve(uint n)</text>
<text text-anchor="start" x="475.5" y="-238" font-family="Helvetica,sans-Serif" font-size="10.00">&#45;</text>
<text text-anchor="start" x="485" y="-238" font-family="Helvetica,sans-Serif" font-size="10.00">void setitem(int index, int value)</text>
<text text-anchor="start" x="475.5" y="-223" font-family="Helvetica,sans-Serif" font-size="10.00">&#45;</text>
<text text-anchor="start" x="485" y="-223" font-family="Helvetica,sans-Serif" font-size="10.00">uint size()</text>
<text text-anchor="start" x="475.5" y="-208" font-family="Helvetica,sans-Serif" font-size="10.00">&#45;</text>
<text text-anchor="start" x="485" y="-208" font-family="Helvetica,sans-Serif" font-size="10.00">~Int32s()</text>
<polygon fill="#666666" stroke="#666666" points="470,-878 470,-878 1046,-878 1046,-878 470,-878"/>
<polygon fill="#666666" stroke="#666666" points="470,-773 470,-773 483,-773 483,-773 470,-773"/>
<polygon fill="#666666" stroke="#666666" points="483,-773 483,-773 1046,-773 1046,-773 483,-773"/>
<polygon fill="none" stroke="#666666" points="470,-201 470,-895 1046,-895 1046,-201 470,-201"/>
</a>
</g>
</g>
<!-- Node4&#45;&gt;Node1 -->
<g id="edge3_Node000001_Node000004" class="edge">
<title>Node4&#45;&gt;Node1</title>
<g id="a_edge3_Node000001_Node000004"><a xlink:title=" ">
<path fill="none" stroke="#63b8ff" d="M469.95,-211.34C466.63,-207.86 463.31,-204.42 460,-201 447.65,-188.26 434.27,-175.18 420.9,-162.53"/>
<polygon fill="none" stroke="#63b8ff" points="420.87,-162.51 413.76,-161.31 412.13,-154.29 419.24,-155.48 420.87,-162.51"/>
</a>
</g>
<text text-anchor="middle" x="470" y="-175" font-family="Helvetica,sans-Serif" font-size="10.00" fill="grey"> &#45;collectionRef</text>
</g>
<!-- Node5 -->
<g id="Node000005" class="node">
<title>Node5</title>
<g id="a_Node000005"><a xlink:title=" ">
<polygon fill="white" stroke="none" points="539,-991 413,-991 413,-942 539,-942 539,-991"/>
<text text-anchor="start" x="418" y="-978.5" font-family="Helvetica,sans-Serif" font-size="10.00">global::SystemIDisposable</text>
<text text-anchor="start" x="474" y="-963.5" font-family="Helvetica,sans-Serif" font-size="10.00"> </text>
<text text-anchor="start" x="474" y="-948.5" font-family="Helvetica,sans-Serif" font-size="10.00"> </text>
<polygon fill="#666666" stroke="#666666" points="413,-973.5 413,-973.5 539,-973.5 539,-973.5 413,-973.5"/>
<polygon fill="#666666" stroke="#666666" points="413,-958.5 413,-958.5 539,-958.5 539,-958.5 413,-958.5"/>
<polygon fill="none" stroke="#666666" points="413,-942 413,-991 539,-991 539,-942 413,-942"/>
</a>
</g>
</g>
<!-- Node5&#45;&gt;Node4 -->
<g id="edge4_Node000004_Node000005" class="edge">
<title>Node5&#45;&gt;Node4</title>
<g id="a_edge4_Node000004_Node000005"><a xlink:title=" ">
<path fill="none" stroke="#63b8ff" d="M497.66,-933.51C504.88,-922.85 513.63,-909.92 523.49,-895.36"/>
<polygon fill="none" stroke="#63b8ff" points="494.68,-931.67 491.97,-941.91 500.47,-935.6 494.68,-931.67"/>
</a>
</g>
</g>
<!-- Node6 -->
<g id="Node000006" class="node">
<title>Node6</title>
<g id="a_Node000006"><a xlink:title=" ">
<polygon fill="white" stroke="none" points="741,-991 557,-991 557,-942 741,-942 741,-991"/>
<text text-anchor="start" x="562" y="-978.5" font-family="Helvetica,sans-Serif" font-size="10.00">global::SystemCollections::IEnumerable</text>
<text text-anchor="start" x="647" y="-963.5" font-family="Helvetica,sans-Serif" font-size="10.00"> </text>
<text text-anchor="start" x="647" y="-948.5" font-family="Helvetica,sans-Serif" font-size="10.00"> </text>
<polygon fill="#666666" stroke="#666666" points="557,-973.5 557,-973.5 741,-973.5 741,-973.5 557,-973.5"/>
<polygon fill="#666666" stroke="#666666" points="557,-958.5 557,-958.5 741,-958.5 741,-958.5 557,-958.5"/>
<polygon fill="none" stroke="#666666" points="557,-942 557,-991 741,-991 741,-942 557,-942"/>
</a>
</g>
</g>
<!-- Node6&#45;&gt;Node4 -->
<g id="edge5_Node000004_Node000006" class="edge">
<title>Node6&#45;&gt;Node4</title>
<g id="a_edge5_Node000004_Node000006"><a xlink:title=" ">
<path fill="none" stroke="#63b8ff" d="M657.71,-932.22C660.43,-921.81 663.7,-909.34 667.36,-895.36"/>
<polygon fill="none" stroke="#63b8ff" points="654.32,-931.35 655.17,-941.91 661.09,-933.13 654.32,-931.35"/>
</a>
</g>
</g>
<!-- Node7 -->
<g id="Node000007" class="node">
<title>Node7</title>
<g id="a_Node000007"><a xlink:title=" ">
<polygon fill="white" stroke="none" points="975,-991 759,-991 759,-942 975,-942 975,-991"/>
<text text-anchor="start" x="764" y="-978.5" font-family="Helvetica,sans-Serif" font-size="10.00">global::SystemCollections::Generic::IList&lt; int &gt;</text>
<text text-anchor="start" x="865" y="-963.5" font-family="Helvetica,sans-Serif" font-size="10.00"> </text>
<text text-anchor="start" x="865" y="-948.5" font-family="Helvetica,sans-Serif" font-size="10.00"> </text>
<polygon fill="#666666" stroke="#666666" points="759,-973.5 759,-973.5 975,-973.5 975,-973.5 759,-973.5"/>
<polygon fill="#666666" stroke="#666666" points="759,-958.5 759,-958.5 975,-958.5 975,-958.5 759,-958.5"/>
<polygon fill="none" stroke="#666666" points="759,-942 759,-991 975,-991 975,-942 759,-942"/>
</a>
</g>
</g>
<!-- Node7&#45;&gt;Node4 -->
<g id="edge6_Node000004_Node000007" class="edge">
<title>Node7&#45;&gt;Node4</title>
<g id="a_edge6_Node000004_Node000007"><a xlink:title=" ">
<path fill="none" stroke="#63b8ff" d="M858.29,-932.22C855.57,-921.81 852.3,-909.34 848.64,-895.36"/>
<polygon fill="none" stroke="#63b8ff" points="854.91,-933.13 860.83,-941.91 861.68,-931.35 854.91,-933.13"/>
</a>
</g>
</g>
<!-- Node8 -->
<g id="Node000008" class="node">
<title>Node8</title>
<g id="a_Node000008"><a xlink:title=" ">
<polygon fill="white" stroke="none" points="1070.5,-991 993.5,-991 993.5,-942 1070.5,-942 1070.5,-991"/>
<text text-anchor="start" x="999" y="-978.5" font-family="Helvetica,sans-Serif" font-size="10.00">InteropServices</text>
<text text-anchor="start" x="1030.5" y="-963.5" font-family="Helvetica,sans-Serif" font-size="10.00"> </text>
<text text-anchor="start" x="1030.5" y="-948.5" font-family="Helvetica,sans-Serif" font-size="10.00"> </text>
<polygon fill="#666666" stroke="#666666" points="994,-973.5 994,-973.5 1071,-973.5 1071,-973.5 994,-973.5"/>
<polygon fill="#666666" stroke="#666666" points="994,-958.5 994,-958.5 1071,-958.5 1071,-958.5 994,-958.5"/>
<polygon fill="none" stroke="#666666" points="993.5,-942 993.5,-991 1070.5,-991 1070.5,-942 993.5,-942"/>
</a>
</g>
</g>
<!-- Node8&#45;&gt;Node4 -->
<g id="edge7_Node000004_Node000008" class="edge">
<title>Node8&#45;&gt;Node4</title>
<g id="a_edge7_Node000004_Node000008"><a xlink:title=" ">
<path fill="none" stroke="#63b8ff" d="M1016.48,-941.91C1010.09,-932.2 1001.96,-919.84 992.56,-905.55"/>
<polygon fill="none" stroke="#63b8ff" points="992.45,-905.38 985.81,-902.57 985.86,-895.36 992.5,-898.17 992.45,-905.38"/>
</a>
</g>
<text text-anchor="middle" x="1026" y="-916" font-family="Helvetica,sans-Serif" font-size="10.00" fill="grey"> &#45;swigCPtr</text>
</g>
</g>
</svg>

<g id="navigator" transform="translate(0 0)" fill="#404254">
  <rect fill="#f2f5e9" fill-opacity="0.5" stroke="#606060" stroke-width=".5" x="0" y="0" width="60" height="60"/>
  <use id="zoomplus" xlink:href="#zoomPlus" x="17" y="9" onmousedown="handleZoom(evt,'in')"/>
  <use id="zoomminus" xlink:href="#zoomMin" x="42" y="9" onmousedown="handleZoom(evt,'out')"/>
  <use id="reset" xlink:href="#resetDef" x="30" y="36" onmousedown="handleReset()"/>
   <use id="arrowup" xlink:href="#arrowUp" x="0" y="0" onmousedown="handlePan(0,-1)"/>
  <use id="arrowright" xlink:href="#arrowRight" x="0" y="0" onmousedown="handlePan(1,0)"/>
  <use id="arrowdown" xlink:href="#arrowDown" x="0" y="0" onmousedown="handlePan(0,1)"/>
  <use id="arrowleft" xlink:href="#arrowLeft" x="0" y="0" onmousedown="handlePan(-1,0)"/>
</g>
<svg viewBox="0 0 15 15" width="100%" height="30px" preserveAspectRatio="xMaxYMin meet">
 <g id="arrow_out" transform="scale(0.3 0.3)">
  <a xlink:href="class_llama_library_1_1_int32s_1_1_int32s_enumerator__coll__graph_org.svg" target="_base">
   <rect id="button" ry="5" rx="5" y="6" x="6" height="38" width="38"
        fill="#f2f5e9" fill-opacity="0.5" stroke="#606060" stroke-width="1.0"/>
   <path id="arrow"
     d="M 11.500037,31.436501 C 11.940474,20.09759 22.043105,11.32322 32.158766,21.979434 L 37.068811,17.246167 C 37.068811,17.246167 37.088388,32 37.088388,32 L 22.160133,31.978069 C 22.160133,31.978069 26.997745,27.140456 26.997745,27.140456 C 18.528582,18.264221 13.291696,25.230495 11.500037,31.436501 z"
     style="fill:#404040;"/>
  </a>
 </g>
</svg>

<style type='text/css'>
<![CDATA[
[data-mouse-over-selected='false'] { opacity: 0.7; }
[data-mouse-over-selected='true']  { opacity: 1.0; }
]]>
</style>
<script type="application/ecmascript"><![CDATA[
document.addEventListener('DOMContentLoaded', (event) => {
  highlightEdges();
  highlightAdjacentNodes();
});
]]></script>
</svg>
