<?xml version="1.0" encoding="UTF-8" standalone="no"?>
<!DOCTYPE svg PUBLIC "-//W3C//DTD SVG 1.1//EN"
 "http://www.w3.org/Graphics/SVG/1.1/DTD/svg11.dtd">
<!-- Generated by graphviz version 6.0.1 (20220911.1526)
 -->
<!-- Title: Assets.StyledLines.Runtime.UIHelpers.PrintStopwatchScore.OnStateChangedStart Pages: 1 -->
<svg width="751pt" height="64pt"
 viewBox="0.00 0.00 751.00 64.00" xmlns="http://www.w3.org/2000/svg" xmlns:xlink="http://www.w3.org/1999/xlink">
<g id="graph0" class="graph" transform="scale(1 1) rotate(0) translate(4 60)">
<title>Assets.StyledLines.Runtime.UIHelpers.PrintStopwatchScore.OnStateChangedStart</title>
<!-- Node1 -->
<g id="Node000001" class="node">
<title>Node1</title>
<g id="a_Node000001"><a xlink:title=" ">
<polygon fill="#999999" stroke="#666666" points="743,-37 365,-37 365,-18 743,-18 743,-37"/>
<text text-anchor="middle" x="554" y="-25" font-family="Helvetica,sans-Serif" font-size="10.00">Assets.StyledLines.Runtime.UIHelpers.PrintStopwatchScore.OnStateChangedStart</text>
</a>
</g>
</g>
<!-- Node2 -->
<g id="Node000002" class="node">
<title>Node2</title>
<g id="a_Node000002"><a xlink:href="$class_assets_1_1_styled_lines_1_1_runtime_1_1_u_i_helpers_1_1_print_stopwatch_score.html#a69aabc064bcab4443b79d048372707d0" xlink:title=" ">
<polygon fill="white" stroke="#666666" points="329,-56 0,-56 0,-37 329,-37 329,-56"/>
<text text-anchor="middle" x="164.5" y="-44" font-family="Helvetica,sans-Serif" font-size="10.00">Assets.StyledLines.Runtime.UIHelpers.PrintStopwatchScore.OnDestroy</text>
</a>
</g>
</g>
<!-- Node1&#45;&gt;Node2 -->
<g id="edge1_Node000001_Node000002" class="edge">
<title>Node1&#45;&gt;Node2</title>
<g id="a_edge1_Node000001_Node000002"><a xlink:title=" ">
<path fill="none" stroke="#63b8ff" d="M354.84,-37.22C346.24,-37.64 337.66,-38.06 329.15,-38.48"/>
<polygon fill="#63b8ff" stroke="#63b8ff" points="355.11,-40.71 364.93,-36.72 354.77,-33.72 355.11,-40.71"/>
</a>
</g>
</g>
<!-- Node3 -->
<g id="Node000003" class="node">
<title>Node3</title>
<g id="a_Node000003"><a xlink:href="$class_assets_1_1_styled_lines_1_1_runtime_1_1_u_i_helpers_1_1_print_stopwatch_score.html#a11b0bd3fd8e99acda6e4df0194c1abd8" xlink:title=" ">
<polygon fill="white" stroke="#666666" points="316.5,-19 12.5,-19 12.5,0 316.5,0 316.5,-19"/>
<text text-anchor="middle" x="164.5" y="-7" font-family="Helvetica,sans-Serif" font-size="10.00">Assets.StyledLines.Runtime.UIHelpers.PrintStopwatchScore.Start</text>
</a>
</g>
</g>
<!-- Node1&#45;&gt;Node3 -->
<g id="edge2_Node000001_Node000003" class="edge">
<title>Node1&#45;&gt;Node3</title>
<g id="a_edge2_Node000001_Node000003"><a xlink:title=" ">
<path fill="none" stroke="#63b8ff" d="M354.67,-18.29C341.89,-17.69 329.13,-17.1 316.63,-16.52"/>
<polygon fill="#63b8ff" stroke="#63b8ff" points="354.77,-21.8 364.93,-18.76 355.1,-14.8 354.77,-21.8"/>
</a>
</g>
</g>
</g>
</svg>
