<?xml version="1.0" encoding="UTF-8" standalone="no"?>
<!DOCTYPE svg PUBLIC "-//W3C//DTD SVG 1.1//EN"
 "http://www.w3.org/Graphics/SVG/1.1/DTD/svg11.dtd">
<!-- Generated by graphviz version 6.0.1 (20220911.1526)
 -->
<!-- Title: LlamaLibrary.CallbackWrapper.RegisterCompletionCallback Pages: 1 -->
<svg width="576pt" height="64pt"
 viewBox="0.00 0.00 576.00 64.00" xmlns="http://www.w3.org/2000/svg" xmlns:xlink="http://www.w3.org/1999/xlink">
<g id="graph0" class="graph" transform="scale(1 1) rotate(0) translate(4 60)">
<title>LlamaLibrary.CallbackWrapper.RegisterCompletionCallback</title>
<!-- Node1 -->
<g id="Node000001" class="node">
<title>Node1</title>
<g id="a_Node000001"><a xlink:title="Registers a completion callback function for the Llama model.">
<polygon fill="#999999" stroke="#666666" points="275,-37 0,-37 0,-18 275,-18 275,-37"/>
<text text-anchor="middle" x="137.5" y="-25" font-family="Helvetica,sans-Serif" font-size="10.00">LlamaLibrary.CallbackWrapper.RegisterCompletionCallback</text>
</a>
</g>
</g>
<!-- Node2 -->
<g id="Node000002" class="node">
<title>Node2</title>
<g id="a_Node000002"><a xlink:href="class_llama_library_1_1_callback_wrapper.html#a6147ace2bde7e2352e4868621f3c95ba" target="_top" xlink:title="Sets the completion callback function for the native library.">
<polygon fill="white" stroke="#666666" points="566.5,-56 312.5,-56 312.5,-37 566.5,-37 566.5,-56"/>
<text text-anchor="middle" x="439.5" y="-44" font-family="Helvetica,sans-Serif" font-size="10.00">LlamaLibrary.CallbackWrapper.SetCompletionCallback</text>
</a>
</g>
</g>
<!-- Node1&#45;&gt;Node2 -->
<g id="edge1_Node000001_Node000002" class="edge">
<title>Node1&#45;&gt;Node2</title>
<g id="a_edge1_Node000001_Node000002"><a xlink:title=" ">
<path fill="none" stroke="#63b8ff" d="M275.33,-36.17C284.31,-36.73 293.36,-37.31 302.34,-37.88"/>
<polygon fill="#63b8ff" stroke="#63b8ff" points="302.24,-41.38 312.44,-38.52 302.68,-34.39 302.24,-41.38"/>
</a>
</g>
</g>
<!-- Node3 -->
<g id="Node000003" class="node">
<title>Node3</title>
<g id="a_Node000003"><a xlink:href="class_llama_library_1_1_callback_wrapper.html#a24f4396cd7ec5b8215e99195b4a88754" target="_top" xlink:title="Static method to handle the completion callback from the native library.">
<polygon fill="white" stroke="#666666" points="568,-19 311,-19 311,0 568,0 568,-19"/>
<text text-anchor="middle" x="439.5" y="-7" font-family="Helvetica,sans-Serif" font-size="10.00">LlamaLibrary.CallbackWrapper.StaticCompleteCallback</text>
</a>
</g>
</g>
<!-- Node1&#45;&gt;Node3 -->
<g id="edge2_Node000001_Node000003" class="edge">
<title>Node1&#45;&gt;Node3</title>
<g id="a_edge2_Node000001_Node000003"><a xlink:title=" ">
<path fill="none" stroke="#63b8ff" d="M275.33,-19.29C283.68,-18.79 292.09,-18.28 300.44,-17.78"/>
<polygon fill="#63b8ff" stroke="#63b8ff" points="300.83,-21.27 310.6,-17.17 300.41,-14.28 300.83,-21.27"/>
</a>
</g>
</g>
</g>
</svg>
