<?xml version="1.0" encoding="UTF-8" standalone="no"?>
<!DOCTYPE svg PUBLIC "-//W3C//DTD SVG 1.1//EN"
 "http://www.w3.org/Graphics/SVG/1.1/DTD/svg11.dtd">
<!-- Generated by graphviz version 6.0.1 (20220911.1526)
 -->
<!-- Title: DialogTextMapper.Start Pages: 1 -->
<svg width="386pt" height="64pt"
 viewBox="0.00 0.00 386.00 64.00" xmlns="http://www.w3.org/2000/svg" xmlns:xlink="http://www.w3.org/1999/xlink">
<g id="graph0" class="graph" transform="scale(1 1) rotate(0) translate(4 60)">
<title>DialogTextMapper.Start</title>
<!-- Node1 -->
<g id="Node000001" class="node">
<title>Node1</title>
<g id="a_Node000001"><a xlink:title=" ">
<polygon fill="#999999" stroke="#666666" points="119,-37 0,-37 0,-18 119,-18 119,-37"/>
<text text-anchor="middle" x="59.5" y="-25" font-family="Helvetica,sans-Serif" font-size="10.00">DialogTextMapper.Start</text>
</a>
</g>
</g>
<!-- Node2 -->
<g id="Node000002" class="node">
<title>Node2</title>
<g id="a_Node000002"><a xlink:href="class_dialog_text_mapper.html#af1fbed96cd3446c0d5dcd118b82a3782" target="_top" xlink:title=" ">
<polygon fill="white" stroke="#666666" points="363.5,-56 169.5,-56 169.5,-37 363.5,-37 363.5,-56"/>
<text text-anchor="middle" x="266.5" y="-44" font-family="Helvetica,sans-Serif" font-size="10.00">DialogTextMapper.OnDialogTextChanged</text>
</a>
</g>
</g>
<!-- Node1&#45;&gt;Node2 -->
<g id="edge1_Node000001_Node000002" class="edge">
<title>Node1&#45;&gt;Node2</title>
<g id="a_edge1_Node000001_Node000002"><a xlink:title=" ">
<path fill="none" stroke="#63b8ff" d="M119.24,-32.94C131.81,-34.11 145.46,-35.37 159.2,-36.65"/>
<polygon fill="#63b8ff" stroke="#63b8ff" points="158.92,-40.14 169.2,-37.58 159.57,-33.17 158.92,-40.14"/>
</a>
</g>
</g>
<!-- Node3 -->
<g id="Node000003" class="node">
<title>Node3</title>
<g id="a_Node000003"><a xlink:href="class_dialog_text_mapper.html#ad7e9d706a78140689648e10e5a78de5e" target="_top" xlink:title=" ">
<polygon fill="white" stroke="#666666" points="378,-19 155,-19 155,0 378,0 378,-19"/>
<text text-anchor="middle" x="266.5" y="-7" font-family="Helvetica,sans-Serif" font-size="10.00">DialogTextMapper.OnDialogTextExternalUpdate</text>
</a>
</g>
</g>
<!-- Node1&#45;&gt;Node3 -->
<g id="edge2_Node000001_Node000003" class="edge">
<title>Node1&#45;&gt;Node3</title>
<g id="a_edge2_Node000001_Node000003"><a xlink:title=" ">
<path fill="none" stroke="#63b8ff" d="M119.24,-22.34C128.11,-21.56 137.52,-20.74 147.12,-19.89"/>
<polygon fill="#63b8ff" stroke="#63b8ff" points="147.52,-23.37 157.17,-19.01 146.91,-16.4 147.52,-23.37"/>
</a>
</g>
</g>
</g>
</svg>
