<?xml version="1.0" encoding="UTF-8" standalone="no"?>
<!DOCTYPE svg PUBLIC "-//W3C//DTD SVG 1.1//EN"
 "http://www.w3.org/Graphics/SVG/1.1/DTD/svg11.dtd">
<!-- Generated by graphviz version 6.0.1 (20220911.1526)
 -->
<!-- Title: LlamaLibrary.Int32s.CopyTo Pages: 1 -->
<svg width="319pt" height="64pt"
 viewBox="0.00 0.00 319.00 64.00" xmlns="http://www.w3.org/2000/svg" xmlns:xlink="http://www.w3.org/1999/xlink">
<g id="graph0" class="graph" transform="scale(1 1) rotate(0) translate(4 60)">
<title>LlamaLibrary.Int32s.CopyTo</title>
<!-- Node1 -->
<g id="Node000001" class="node">
<title>Node1</title>
<g id="a_Node000001"><a xlink:title=" ">
<polygon fill="#999999" stroke="#666666" points="311,-37 174,-37 174,-18 311,-18 311,-37"/>
<text text-anchor="middle" x="242.5" y="-25" font-family="Helvetica,sans-Serif" font-size="10.00">LlamaLibrary.Int32s.CopyTo</text>
</a>
</g>
</g>
<!-- Node1&#45;&gt;Node1 -->
<g id="edge1_Node000001_Node000001" class="edge">
<title>Node1&#45;&gt;Node1</title>
<g id="a_edge1_Node000001_Node000001"><a xlink:title=" ">
<path fill="none" stroke="#63b8ff" d="M274.97,-45.45C274.04,-50.82 263.22,-55 242.5,-55 211.66,-55 202.75,-45.73 215.76,-37.08"/>
<polygon fill="#63b8ff" stroke="#63b8ff" points="277.78,-43.36 269.24,-37.08 272,-47.31 277.78,-43.36"/>
</a>
</g>
</g>
<!-- Node2 -->
<g id="Node000002" class="node">
<title>Node2</title>
<g id="a_Node000002"><a xlink:href="class_llama_library_1_1_int32s.html#abf4558aef2161e39e3d1996730893ffb" target="_top" xlink:title=" ">
<polygon fill="white" stroke="#666666" points="137.5,-56 0.5,-56 0.5,-37 137.5,-37 137.5,-56"/>
<text text-anchor="middle" x="69" y="-44" font-family="Helvetica,sans-Serif" font-size="10.00">LlamaLibrary.Int32s.CopyTo</text>
</a>
</g>
</g>
<!-- Node1&#45;&gt;Node2 -->
<g id="edge2_Node000001_Node000002" class="edge">
<title>Node1&#45;&gt;Node2</title>
<g id="a_edge2_Node000001_Node000002"><a xlink:title=" ">
<path fill="none" stroke="#63b8ff" d="M163.59,-36.13C154.91,-37.09 146.11,-38.07 137.57,-39.01"/>
<polygon fill="#63b8ff" stroke="#63b8ff" points="164.16,-39.59 173.72,-35.01 163.39,-32.63 164.16,-39.59"/>
</a>
</g>
</g>
<!-- Node3 -->
<g id="Node000003" class="node">
<title>Node3</title>
<g id="a_Node000003"><a xlink:href="class_llama_library_1_1_int32s.html#a1f18faf771deecd82b8264424afbfd5d" target="_top" xlink:title=" ">
<polygon fill="white" stroke="#666666" points="138,-19 0,-19 0,0 138,0 138,-19"/>
<text text-anchor="middle" x="69" y="-7" font-family="Helvetica,sans-Serif" font-size="10.00">LlamaLibrary.Int32s.ToArray</text>
</a>
</g>
</g>
<!-- Node1&#45;&gt;Node3 -->
<g id="edge3_Node000001_Node000003" class="edge">
<title>Node1&#45;&gt;Node3</title>
<g id="a_edge3_Node000001_Node000003"><a xlink:title=" ">
<path fill="none" stroke="#63b8ff" d="M163.75,-19.34C155.21,-18.44 146.55,-17.53 138.13,-16.65"/>
<polygon fill="#63b8ff" stroke="#63b8ff" points="163.41,-22.82 173.72,-20.39 164.14,-15.86 163.41,-22.82"/>
</a>
</g>
</g>
</g>
</svg>
