<?xml version="1.0" encoding="UTF-8" standalone="no"?>
<!DOCTYPE svg PUBLIC "-//W3C//DTD SVG 1.1//EN"
 "http://www.w3.org/Graphics/SVG/1.1/DTD/svg11.dtd">
<!-- Generated by graphviz version 6.0.1 (20220911.1526)
 -->
<!-- Title: LlamaLibrary.StringsAndFloats.Repeat Pages: 1 -->
<svg width="540pt" height="138pt"
 viewBox="0.00 0.00 540.00 138.00" xmlns="http://www.w3.org/2000/svg" xmlns:xlink="http://www.w3.org/1999/xlink">
<g id="graph0" class="graph" transform="scale(1 1) rotate(0) translate(4 134)">
<title>LlamaLibrary.StringsAndFloats.Repeat</title>
<!-- Node1 -->
<g id="Node000001" class="node">
<title>Node1</title>
<g id="a_Node000001"><a xlink:title=" ">
<polygon fill="#999999" stroke="#666666" points="184,-74 0,-74 0,-55 184,-55 184,-74"/>
<text text-anchor="middle" x="92" y="-62" font-family="Helvetica,sans-Serif" font-size="10.00">LlamaLibrary.StringsAndFloats.Repeat</text>
</a>
</g>
</g>
<!-- Node2 -->
<g id="Node000002" class="node">
<title>Node2</title>
<g id="a_Node000002"><a xlink:href="$class_llama_library_1_1_string_and_float.html#a3de7dd13f6e517516b6a9f4348c2eaed" xlink:title=" ">
<polygon fill="white" stroke="#666666" points="464,-130 288,-130 288,-111 464,-111 464,-130"/>
<text text-anchor="middle" x="376" y="-118" font-family="Helvetica,sans-Serif" font-size="10.00">LlamaLibrary.StringAndFloat.getCPtr</text>
</a>
</g>
</g>
<!-- Node1&#45;&gt;Node2 -->
<g id="edge1_Node000001_Node000002" class="edge">
<title>Node1&#45;&gt;Node2</title>
<g id="a_edge1_Node000001_Node000002"><a xlink:title=" ">
<path fill="none" stroke="#63b8ff" d="M119.9,-74.05C145.37,-82.73 184.84,-95.26 220,-102.5 238.53,-106.32 258.48,-109.39 277.7,-111.84"/>
<polygon fill="#63b8ff" stroke="#63b8ff" points="277.32,-115.32 287.68,-113.07 278.18,-108.38 277.32,-115.32"/>
</a>
</g>
</g>
<!-- Node3 -->
<g id="Node000003" class="node">
<title>Node3</title>
<g id="a_Node000003"><a xlink:href="$class_llama_library_1_1libllama__lib_p_i_n_v_o_k_e_1_1_s_w_i_g_pending_exception.html#a2718a73540850b42db7c89e9be3519ec" xlink:title=" ">
<polygon fill="white" stroke="#666666" points="532,-93 220,-93 220,-74 532,-74 532,-93"/>
<text text-anchor="middle" x="376" y="-81" font-family="Helvetica,sans-Serif" font-size="10.00">LlamaLibrary.libllama_libPINVOKE.SWIGPendingException.Retrieve</text>
</a>
</g>
</g>
<!-- Node1&#45;&gt;Node3 -->
<g id="edge2_Node000001_Node000003" class="edge">
<title>Node1&#45;&gt;Node3</title>
<g id="a_edge2_Node000001_Node000003"><a xlink:title=" ">
<path fill="none" stroke="#63b8ff" d="M184.17,-70.64C196.86,-71.5 210.18,-72.39 223.62,-73.3"/>
<polygon fill="#63b8ff" stroke="#63b8ff" points="223.7,-76.81 233.91,-73.99 224.17,-69.83 223.7,-76.81"/>
</a>
</g>
</g>
<!-- Node4 -->
<g id="Node000004" class="node">
<title>Node4</title>
<g id="a_Node000004"><a xlink:href="$class_llama_library_1_1_strings_and_floats.html#a92bc039ff797723e95453a3e2614ebfc" xlink:title=" ">
<polygon fill="white" stroke="#666666" points="490,-56 262,-56 262,-37 490,-37 490,-56"/>
<text text-anchor="middle" x="376" y="-44" font-family="Helvetica,sans-Serif" font-size="10.00">LlamaLibrary.StringsAndFloats.StringsAndFloats</text>
</a>
</g>
</g>
<!-- Node1&#45;&gt;Node4 -->
<g id="edge3_Node000001_Node000004" class="edge">
<title>Node1&#45;&gt;Node4</title>
<g id="a_edge3_Node000001_Node000004"><a xlink:title=" ">
<path fill="none" stroke="#63b8ff" d="M184.17,-58.68C205.75,-57.3 229.13,-55.81 251.87,-54.36"/>
<polygon fill="#63b8ff" stroke="#63b8ff" points="252.17,-57.85 261.92,-53.72 251.72,-50.86 252.17,-57.85"/>
</a>
</g>
</g>
<!-- Node5 -->
<g id="Node000005" class="node">
<title>Node5</title>
<g id="a_Node000005"><a xlink:href="$class_llama_library_1_1libllama__lib_p_i_n_v_o_k_e.html#a55f390d11e9f6c18225c0eb6dbe0780e" xlink:title=" ">
<polygon fill="white" stroke="#666666" points="516.5,-19 235.5,-19 235.5,0 516.5,0 516.5,-19"/>
<text text-anchor="middle" x="376" y="-7" font-family="Helvetica,sans-Serif" font-size="10.00">LlamaLibrary.libllama_libPINVOKE.StringsAndFloats_Repeat</text>
</a>
</g>
</g>
<!-- Node1&#45;&gt;Node5 -->
<g id="edge4_Node000001_Node000005" class="edge">
<title>Node1&#45;&gt;Node5</title>
<g id="a_edge4_Node000001_Node000005"><a xlink:title=" ">
<path fill="none" stroke="#63b8ff" d="M121.94,-54.91C147.48,-46.79 185.85,-35.39 220,-28.5 235.52,-25.37 252.02,-22.68 268.24,-20.39"/>
<polygon fill="#63b8ff" stroke="#63b8ff" points="268.87,-23.84 278.3,-19.02 267.92,-16.9 268.87,-23.84"/>
</a>
</g>
</g>
</g>
</svg>
