<?xml version="1.0" encoding="UTF-8" standalone="no"?>
<!DOCTYPE svg PUBLIC "-//W3C//DTD SVG 1.1//EN"
 "http://www.w3.org/Graphics/SVG/1.1/DTD/svg11.dtd">
<!-- Generated by graphviz version 6.0.1 (20220911.1526)
 -->
<!-- Title: LlamaLibrary.LlamaControlVectorLoadInfos.setitem Pages: 1 -->
<svg width="615pt" height="101pt"
 viewBox="0.00 0.00 615.00 101.00" xmlns="http://www.w3.org/2000/svg" xmlns:xlink="http://www.w3.org/1999/xlink">
<g id="graph0" class="graph" transform="scale(1 1) rotate(0) translate(4 97)">
<title>LlamaLibrary.LlamaControlVectorLoadInfos.setitem</title>
<!-- Node1 -->
<g id="Node000001" class="node">
<title>Node1</title>
<g id="a_Node000001"><a xlink:title=" ">
<polygon fill="#999999" stroke="#666666" points="237,-56 0,-56 0,-37 237,-37 237,-56"/>
<text text-anchor="middle" x="118.5" y="-44" font-family="Helvetica,sans-Serif" font-size="10.00">LlamaLibrary.LlamaControlVectorLoadInfos.setitem</text>
</a>
</g>
</g>
<!-- Node2 -->
<g id="Node000002" class="node">
<title>Node2</title>
<g id="a_Node000002"><a xlink:href="$class_llama_library_1_1_s_w_i_g_t_y_p_e__p__llama__control__vector__load__info.html#a17cce04bff17da000653ab54f117a635" xlink:title=" ">
<polygon fill="white" stroke="#666666" points="595.5,-93 284.5,-93 284.5,-74 595.5,-74 595.5,-93"/>
<text text-anchor="middle" x="440" y="-81" font-family="Helvetica,sans-Serif" font-size="10.00">LlamaLibrary.SWIGTYPE_p_llama_control_vector_load_info.getCPtr</text>
</a>
</g>
</g>
<!-- Node1&#45;&gt;Node2 -->
<g id="edge1_Node000001_Node000002" class="edge">
<title>Node1&#45;&gt;Node2</title>
<g id="a_edge1_Node000001_Node000002"><a xlink:title=" ">
<path fill="none" stroke="#63b8ff" d="M194.42,-56C219.41,-59.11 247.39,-62.53 273,-65.5 294.25,-67.97 317.05,-70.51 338.74,-72.88"/>
<polygon fill="#63b8ff" stroke="#63b8ff" points="338.62,-76.38 348.94,-73.99 339.38,-69.42 338.62,-76.38"/>
</a>
</g>
</g>
<!-- Node3 -->
<g id="Node000003" class="node">
<title>Node3</title>
<g id="a_Node000003"><a xlink:href="$class_llama_library_1_1libllama__lib_p_i_n_v_o_k_e.html#adad2a42b40c15ebf7da2692f2445fa28" xlink:title=" ">
<polygon fill="white" stroke="#666666" points="607,-56 273,-56 273,-37 607,-37 607,-56"/>
<text text-anchor="middle" x="440" y="-44" font-family="Helvetica,sans-Serif" font-size="10.00">LlamaLibrary.libllama_libPINVOKE.LlamaControlVectorLoadInfos_setitem</text>
</a>
</g>
</g>
<!-- Node1&#45;&gt;Node3 -->
<g id="edge2_Node000001_Node000003" class="edge">
<title>Node1&#45;&gt;Node3</title>
<g id="a_edge2_Node000001_Node000003"><a xlink:title=" ">
<path fill="none" stroke="#63b8ff" d="M237.11,-46.5C245.49,-46.5 254.03,-46.5 262.64,-46.5"/>
<polygon fill="#63b8ff" stroke="#63b8ff" points="262.77,-50 272.77,-46.5 262.77,-43 262.77,-50"/>
</a>
</g>
</g>
<!-- Node4 -->
<g id="Node000004" class="node">
<title>Node4</title>
<g id="a_Node000004"><a xlink:href="$class_llama_library_1_1libllama__lib_p_i_n_v_o_k_e_1_1_s_w_i_g_pending_exception.html#a2718a73540850b42db7c89e9be3519ec" xlink:title=" ">
<polygon fill="white" stroke="#666666" points="596,-19 284,-19 284,0 596,0 596,-19"/>
<text text-anchor="middle" x="440" y="-7" font-family="Helvetica,sans-Serif" font-size="10.00">LlamaLibrary.libllama_libPINVOKE.SWIGPendingException.Retrieve</text>
</a>
</g>
</g>
<!-- Node1&#45;&gt;Node4 -->
<g id="edge3_Node000001_Node000004" class="edge">
<title>Node1&#45;&gt;Node4</title>
<g id="a_edge3_Node000001_Node000004"><a xlink:title=" ">
<path fill="none" stroke="#63b8ff" d="M200.35,-36.98C223.79,-34.23 249.41,-31.23 273,-28.5 296.45,-25.78 321.76,-22.87 345.39,-20.17"/>
<polygon fill="#63b8ff" stroke="#63b8ff" points="345.86,-23.64 355.4,-19.02 345.06,-16.68 345.86,-23.64"/>
</a>
</g>
</g>
</g>
</svg>
