<?xml version="1.0" encoding="UTF-8" standalone="no"?>
<!DOCTYPE svg PUBLIC "-//W3C//DTD SVG 1.1//EN"
 "http://www.w3.org/Graphics/SVG/1.1/DTD/svg11.dtd">
<!-- Generated by graphviz version 6.0.1 (20220911.1526)
 -->
<!-- Title: Assets.StyledLines.Runtime.UIHelpers.PrintStopwatchScore Pages: 1 -->
<svg width="282pt" height="202pt"
 viewBox="0.00 0.00 282.00 202.00" xmlns="http://www.w3.org/2000/svg" xmlns:xlink="http://www.w3.org/1999/xlink">
<g id="graph0" class="graph" transform="scale(1 1) rotate(0) translate(4 198)">
<title>Assets.StyledLines.Runtime.UIHelpers.PrintStopwatchScore</title>
<!-- Node1 -->
<g id="Node000001" class="node">
<title>Node1</title>
<g id="a_Node000001"><a xlink:title=" ">
<polygon fill="#999999" stroke="none" points="274,-109 0,-109 0,0 274,0 274,-109"/>
<text text-anchor="start" x="5" y="-96.5" font-family="Helvetica,sans-Serif" font-size="10.00">Assets.StyledLines.Runtime.UIHelpers.PrintStopwatchScore</text>
<text text-anchor="start" x="26" y="-81.5" font-family="Helvetica,sans-Serif" font-size="10.00">+</text>
<text text-anchor="start" x="59" y="-81.5" font-family="Helvetica,sans-Serif" font-size="10.00">RunModelAsync StateController</text>
<text text-anchor="start" x="26" y="-66.5" font-family="Helvetica,sans-Serif" font-size="10.00">+</text>
<text text-anchor="start" x="59" y="-66.5" font-family="Helvetica,sans-Serif" font-size="10.00">TMP_Text UiObject</text>
<text text-anchor="start" x="27.5" y="-51.5" font-family="Helvetica,sans-Serif" font-size="10.00">&#45;</text>
<text text-anchor="start" x="59" y="-51.5" font-family="Helvetica,sans-Serif" font-size="10.00">void OnDestroy()</text>
<text text-anchor="start" x="27.5" y="-36.5" font-family="Helvetica,sans-Serif" font-size="10.00">&#45;</text>
<text text-anchor="start" x="59" y="-36.5" font-family="Helvetica,sans-Serif" font-size="10.00">void OnStateChangedDone(string text)</text>
<text text-anchor="start" x="27.5" y="-21.5" font-family="Helvetica,sans-Serif" font-size="10.00">&#45;</text>
<text text-anchor="start" x="59" y="-21.5" font-family="Helvetica,sans-Serif" font-size="10.00">void OnStateChangedStart(string text)</text>
<text text-anchor="start" x="27.5" y="-6.5" font-family="Helvetica,sans-Serif" font-size="10.00">&#45;</text>
<text text-anchor="start" x="59" y="-6.5" font-family="Helvetica,sans-Serif" font-size="10.00">void Start()</text>
<polygon fill="#666666" stroke="#666666" points="0,-91.5 0,-91.5 274,-91.5 274,-91.5 0,-91.5"/>
<polygon fill="#666666" stroke="#666666" points="0,-61.5 0,-61.5 57,-61.5 57,-61.5 0,-61.5"/>
<polygon fill="#666666" stroke="#666666" points="57,-61.5 57,-61.5 274,-61.5 274,-61.5 57,-61.5"/>
<polygon fill="none" stroke="#666666" points="0,0 0,-109 274,-109 274,0 0,0"/>
</a>
</g>
</g>
<!-- Node2 -->
<g id="Node000002" class="node">
<title>Node2</title>
<g id="a_Node000002"><a xlink:title=" ">
<polygon fill="white" stroke="none" points="175.5,-194 98.5,-194 98.5,-145 175.5,-145 175.5,-194"/>
<text text-anchor="start" x="104" y="-181.5" font-family="Helvetica,sans-Serif" font-size="10.00">MonoBehaviour</text>
<text text-anchor="start" x="135.5" y="-166.5" font-family="Helvetica,sans-Serif" font-size="10.00"> </text>
<text text-anchor="start" x="135.5" y="-151.5" font-family="Helvetica,sans-Serif" font-size="10.00"> </text>
<polygon fill="#666666" stroke="#666666" points="99,-176.5 99,-176.5 176,-176.5 176,-176.5 99,-176.5"/>
<polygon fill="#666666" stroke="#666666" points="99,-161.5 99,-161.5 176,-161.5 176,-161.5 99,-161.5"/>
<polygon fill="none" stroke="#666666" points="98.5,-145 98.5,-194 175.5,-194 175.5,-145 98.5,-145"/>
</a>
</g>
</g>
<!-- Node2&#45;&gt;Node1 -->
<g id="edge1_Node000001_Node000002" class="edge">
<title>Node2&#45;&gt;Node1</title>
<g id="a_edge1_Node000001_Node000002"><a xlink:title=" ">
<path fill="none" stroke="#63b8ff" d="M137,-134.79C137,-126.79 137,-118.06 137,-109.41"/>
<polygon fill="none" stroke="#63b8ff" points="133.5,-134.81 137,-144.81 140.5,-134.81 133.5,-134.81"/>
</a>
</g>
</g>
</g>
</svg>
