<?xml version="1.0" encoding="UTF-8" standalone="no"?>
<!DOCTYPE svg PUBLIC "-//W3C//DTD SVG 1.1//EN"
 "http://www.w3.org/Graphics/SVG/1.1/DTD/svg11.dtd">
<!-- Generated by graphviz version 6.0.1 (20220911.1526)
 -->
<!-- Title: RunModelAsync.Update Pages: 1 -->
<svg width="823pt" height="101pt"
 viewBox="0.00 0.00 823.00 101.00" xmlns="http://www.w3.org/2000/svg" xmlns:xlink="http://www.w3.org/1999/xlink">
<g id="graph0" class="graph" transform="scale(1 1) rotate(0) translate(4 97)">
<title>RunModelAsync.Update</title>
<!-- Node1 -->
<g id="Node000001" class="node">
<title>Node1</title>
<g id="a_Node000001"><a xlink:title="Method called every frame to update the state of the model and handle output.">
<polygon fill="#999999" stroke="#666666" points="122,-56 0,-56 0,-37 122,-37 122,-56"/>
<text text-anchor="middle" x="61" y="-44" font-family="Helvetica,sans-Serif" font-size="10.00">RunModelAsync.Update</text>
</a>
</g>
</g>
<!-- Node2 -->
<g id="Node000002" class="node">
<title>Node2</title>
<g id="a_Node000002"><a xlink:href="class_model_controller.html#aab6e1807c1b6ee25a9a1d28028caec1a" target="_top" xlink:title="Static method to extract the first part of a string up to a specified stop text. If the stop text is ...">
<polygon fill="white" stroke="#666666" points="367,-93 211,-93 211,-74 367,-74 367,-93"/>
<text text-anchor="middle" x="289" y="-81" font-family="Helvetica,sans-Serif" font-size="10.00">ModelController.ExtractFirstPart</text>
</a>
</g>
</g>
<!-- Node1&#45;&gt;Node2 -->
<g id="edge1_Node000001_Node000002" class="edge">
<title>Node1&#45;&gt;Node2</title>
<g id="a_edge1_Node000001_Node000002"><a xlink:title=" ">
<path fill="none" stroke="#63b8ff" d="M107.32,-56.03C123.3,-59.24 141.41,-62.71 158,-65.5 172.75,-67.98 188.47,-70.37 203.71,-72.55"/>
<polygon fill="#63b8ff" stroke="#63b8ff" points="203.25,-76.02 213.64,-73.96 204.23,-69.09 203.25,-76.02"/>
</a>
</g>
</g>
<!-- Node3 -->
<g id="Node000003" class="node">
<title>Node3</title>
<g id="a_Node000003"><a xlink:href="class_run_model_async_1_1_thread_safe_string.html#abddf763f56982fcd828d3d9f5bc2d28d" target="_top" xlink:title="Method to retrieve the current data and clear it in a thread&#45;safe manner.">
<polygon fill="white" stroke="#666666" points="411,-56 167,-56 167,-37 411,-37 411,-56"/>
<text text-anchor="middle" x="289" y="-44" font-family="Helvetica,sans-Serif" font-size="10.00">RunModelAsync.ThreadSafeString.GetDataAndClear</text>
</a>
</g>
</g>
<!-- Node1&#45;&gt;Node3 -->
<g id="edge2_Node000001_Node000003" class="edge">
<title>Node1&#45;&gt;Node3</title>
<g id="a_edge2_Node000001_Node000003"><a xlink:title=" ">
<path fill="none" stroke="#63b8ff" d="M122.27,-46.5C133.1,-46.5 144.76,-46.5 156.7,-46.5"/>
<polygon fill="#63b8ff" stroke="#63b8ff" points="156.78,-50 166.78,-46.5 156.78,-43 156.78,-50"/>
</a>
</g>
</g>
<!-- Node4 -->
<g id="Node000004" class="node">
<title>Node4</title>
<g id="a_Node000004"><a xlink:href="class_llama_library_1_1_async_llama_infrence.html#a74d73cee873a2080edfa0d915f367d30" target="_top" xlink:title=" ">
<polygon fill="white" stroke="#666666" points="420,-19 158,-19 158,0 420,0 420,-19"/>
<text text-anchor="middle" x="289" y="-7" font-family="Helvetica,sans-Serif" font-size="10.00">LlamaLibrary.AsyncLlamaInfrence.GetGenerationResults</text>
</a>
</g>
</g>
<!-- Node1&#45;&gt;Node4 -->
<g id="edge3_Node000001_Node000004" class="edge">
<title>Node1&#45;&gt;Node4</title>
<g id="a_edge3_Node000001_Node000004"><a xlink:title=" ">
<path fill="none" stroke="#63b8ff" d="M110.77,-36.96C125.89,-34.11 142.61,-31.07 158,-28.5 174.4,-25.77 191.99,-23.05 208.78,-20.56"/>
<polygon fill="#63b8ff" stroke="#63b8ff" points="209.72,-23.96 219.1,-19.04 208.7,-17.03 209.72,-23.96"/>
</a>
</g>
</g>
<!-- Node5 -->
<g id="Node000005" class="node">
<title>Node5</title>
<g id="a_Node000005"><a xlink:href="class_llama_library_1_1libllama__lib_p_i_n_v_o_k_e.html#a2bdcb309c17221cae862eee0ad62128e" target="_top" xlink:title=" ">
<polygon fill="white" stroke="#666666" points="815,-19 456,-19 456,0 815,0 815,-19"/>
<text text-anchor="middle" x="635.5" y="-7" font-family="Helvetica,sans-Serif" font-size="10.00">LlamaLibrary.libllama_libPINVOKE.AsyncLlamaInfrence_GetGenerationResults</text>
</a>
</g>
</g>
<!-- Node4&#45;&gt;Node5 -->
<g id="edge4_Node000004_Node000005" class="edge">
<title>Node4&#45;&gt;Node5</title>
<g id="a_edge4_Node000004_Node000005"><a xlink:title=" ">
<path fill="none" stroke="#63b8ff" d="M420.24,-9.5C428.66,-9.5 437.23,-9.5 445.85,-9.5"/>
<polygon fill="#63b8ff" stroke="#63b8ff" points="445.99,-13 455.99,-9.5 445.99,-6 445.99,-13"/>
</a>
</g>
</g>
</g>
</svg>
