<?xml version="1.0" encoding="UTF-8" standalone="no"?>
<!DOCTYPE svg PUBLIC "-//W3C//DTD SVG 1.1//EN"
 "http://www.w3.org/Graphics/SVG/1.1/DTD/svg11.dtd">
<!-- Generated by graphviz version 6.0.1 (20220911.1526)
 -->
<!-- Title: Assets.StyledLines.Runtime.UIHelpers.DisableWhileNotConfigured.Start Pages: 1 -->
<svg width="1186pt" height="46pt"
 viewBox="0.00 0.00 1186.00 46.00" xmlns="http://www.w3.org/2000/svg" xmlns:xlink="http://www.w3.org/1999/xlink">
<g id="graph0" class="graph" transform="scale(1 1) rotate(0) translate(4 42)">
<title>Assets.StyledLines.Runtime.UIHelpers.DisableWhileNotConfigured.Start</title>
<!-- Node1 -->
<g id="Node000001" class="node">
<title>Node1</title>
<g id="a_Node000001"><a xlink:title=" ">
<polygon fill="#999999" stroke="#666666" points="330,-19 0,-19 0,0 330,0 330,-19"/>
<text text-anchor="middle" x="165" y="-7" font-family="Helvetica,sans-Serif" font-size="10.00">Assets.StyledLines.Runtime.UIHelpers.DisableWhileNotConfigured.Start</text>
</a>
</g>
</g>
<!-- Node2 -->
<g id="Node000002" class="node">
<title>Node2</title>
<g id="a_Node000002"><a xlink:href="$class_assets_1_1_styled_lines_1_1_runtime_1_1_u_i_helpers_1_1_disable_while_not_configured.html#aefe2786cc0dd4ecd77a74d86f6cb0802" xlink:title=" ">
<polygon fill="white" stroke="#666666" points="749,-38 366,-38 366,-19 749,-19 749,-38"/>
<text text-anchor="middle" x="557.5" y="-26" font-family="Helvetica,sans-Serif" font-size="10.00">Assets.StyledLines.Runtime.UIHelpers.DisableWhileNotConfigured.OnStateChanged</text>
</a>
</g>
</g>
<!-- Node1&#45;&gt;Node2 -->
<g id="edge1_Node000001_Node000002" class="edge">
<title>Node1&#45;&gt;Node2</title>
<g id="a_edge1_Node000001_Node000002"><a xlink:title=" ">
<path fill="none" stroke="#63b8ff" d="M330.19,-17.49C338.66,-17.9 347.21,-18.32 355.78,-18.73"/>
<polygon fill="#63b8ff" stroke="#63b8ff" points="355.68,-22.23 365.83,-19.22 356.02,-15.24 355.68,-22.23"/>
</a>
</g>
</g>
<!-- Node3 -->
<g id="Node000003" class="node">
<title>Node3</title>
<g id="a_Node000003"><a xlink:href="$class_assets_1_1_styled_lines_1_1_runtime_1_1_u_i_helpers_1_1_disable_while_not_configured.html#aafecead00cb59247992cd5cb4442a9bb" xlink:title=" ">
<polygon fill="white" stroke="#666666" points="1178,-19 785,-19 785,0 1178,0 1178,-19"/>
<text text-anchor="middle" x="981.5" y="-7" font-family="Helvetica,sans-Serif" font-size="10.00">Assets.StyledLines.Runtime.UIHelpers.DisableWhileNotConfigured.SetUIObjectsActive</text>
</a>
</g>
</g>
<!-- Node1&#45;&gt;Node3 -->
<g id="edge3_Node000001_Node000003" class="edge">
<title>Node1&#45;&gt;Node3</title>
<g id="a_edge3_Node000001_Node000003"><a xlink:title=" ">
<path fill="none" stroke="#63b8ff" d="M330.34,-9.5C458.41,-9.5 636.99,-9.5 774.59,-9.5"/>
<polygon fill="#63b8ff" stroke="#63b8ff" points="774.84,-13 784.84,-9.5 774.84,-6 774.84,-13"/>
</a>
</g>
</g>
<!-- Node2&#45;&gt;Node3 -->
<g id="edge2_Node000002_Node000003" class="edge">
<title>Node2&#45;&gt;Node3</title>
<g id="a_edge2_Node000002_Node000003"><a xlink:title=" ">
<path fill="none" stroke="#63b8ff" d="M749.13,-19.92C757.68,-19.53 766.29,-19.14 774.88,-18.76"/>
<polygon fill="#63b8ff" stroke="#63b8ff" points="775.12,-22.25 784.95,-18.3 774.8,-15.26 775.12,-22.25"/>
</a>
</g>
</g>
</g>
</svg>
