<?xml version="1.0" encoding="UTF-8" standalone="no"?>
<!DOCTYPE svg PUBLIC "-//W3C//DTD SVG 1.1//EN"
 "http://www.w3.org/Graphics/SVG/1.1/DTD/svg11.dtd">
<!-- Generated by graphviz version 6.0.1 (20220911.1526)
 -->
<!-- Title: LlamaLibrary.libllama_libPINVOKE.SWIGExceptionHelper.SetPendingSystemException Pages: 1 -->
<svg width="754pt" height="64pt"
 viewBox="0.00 0.00 754.00 64.00" xmlns="http://www.w3.org/2000/svg" xmlns:xlink="http://www.w3.org/1999/xlink">
<g id="graph0" class="graph" transform="scale(1 1) rotate(0) translate(4 60)">
<title>LlamaLibrary.libllama_libPINVOKE.SWIGExceptionHelper.SetPendingSystemException</title>
<!-- Node1 -->
<g id="Node000001" class="node">
<title>Node1</title>
<g id="a_Node000001"><a xlink:title=" ">
<polygon fill="#999999" stroke="#666666" points="398,-37 0,-37 0,-18 398,-18 398,-37"/>
<text text-anchor="middle" x="199" y="-25" font-family="Helvetica,sans-Serif" font-size="10.00">LlamaLibrary.libllama_libPINVOKE.SWIGExceptionHelper.SetPendingSystemException</text>
</a>
</g>
</g>
<!-- Node2 -->
<g id="Node000002" class="node">
<title>Node2</title>
<g id="a_Node000002"><a xlink:href="$class_llama_library_1_1libllama__lib_p_i_n_v_o_k_e_1_1_s_w_i_g_pending_exception.html#a2718a73540850b42db7c89e9be3519ec" xlink:title=" ">
<polygon fill="white" stroke="#666666" points="746,-56 434,-56 434,-37 746,-37 746,-56"/>
<text text-anchor="middle" x="590" y="-44" font-family="Helvetica,sans-Serif" font-size="10.00">LlamaLibrary.libllama_libPINVOKE.SWIGPendingException.Retrieve</text>
</a>
</g>
</g>
<!-- Node1&#45;&gt;Node2 -->
<g id="edge1_Node000001_Node000002" class="edge">
<title>Node1&#45;&gt;Node2</title>
<g id="a_edge1_Node000001_Node000002"><a xlink:title=" ">
<path fill="none" stroke="#63b8ff" d="M394.78,-37.01C404.4,-37.48 414.01,-37.95 423.53,-38.42"/>
<polygon fill="#63b8ff" stroke="#63b8ff" points="423.66,-41.93 433.82,-38.92 424,-34.94 423.66,-41.93"/>
</a>
</g>
</g>
<!-- Node3 -->
<g id="Node000003" class="node">
<title>Node3</title>
<g id="a_Node000003"><a xlink:href="$class_llama_library_1_1libllama__lib_p_i_n_v_o_k_e_1_1_s_w_i_g_pending_exception.html#a8ab3aa971cf4b30e8ca2e9973aa9d21a" xlink:title=" ">
<polygon fill="white" stroke="#666666" points="736.5,-19 443.5,-19 443.5,0 736.5,0 736.5,-19"/>
<text text-anchor="middle" x="590" y="-7" font-family="Helvetica,sans-Serif" font-size="10.00">LlamaLibrary.libllama_libPINVOKE.SWIGPendingException.Set</text>
</a>
</g>
</g>
<!-- Node1&#45;&gt;Node3 -->
<g id="edge2_Node000001_Node000003" class="edge">
<title>Node1&#45;&gt;Node3</title>
<g id="a_edge2_Node000001_Node000003"><a xlink:title=" ">
<path fill="none" stroke="#63b8ff" d="M398.2,-18.33C409.95,-17.79 421.68,-17.24 433.22,-16.71"/>
<polygon fill="#63b8ff" stroke="#63b8ff" points="433.48,-20.2 443.31,-16.24 433.15,-13.21 433.48,-20.2"/>
</a>
</g>
</g>
</g>
</svg>
