<?xml version="1.0" encoding="UTF-8" standalone="no"?>
<!DOCTYPE svg PUBLIC "-//W3C//DTD SVG 1.1//EN"
 "http://www.w3.org/Graphics/SVG/1.1/DTD/svg11.dtd">
<!-- Generated by graphviz version 6.0.1 (20220911.1526)
 -->
<!-- Title: LlamaLibrary.Strings.Strings Pages: 1 -->
<svg width="336pt" height="64pt"
 viewBox="0.00 0.00 336.00 64.00" xmlns="http://www.w3.org/2000/svg" xmlns:xlink="http://www.w3.org/1999/xlink">
<g id="graph0" class="graph" transform="scale(1 1) rotate(0) translate(4 60)">
<title>LlamaLibrary.Strings.Strings</title>
<!-- Node1 -->
<g id="Node000001" class="node">
<title>Node1</title>
<g id="a_Node000001"><a xlink:title=" ">
<polygon fill="#999999" stroke="#666666" points="328,-37 188,-37 188,-18 328,-18 328,-37"/>
<text text-anchor="middle" x="258" y="-25" font-family="Helvetica,sans-Serif" font-size="10.00">LlamaLibrary.Strings.Strings</text>
</a>
</g>
</g>
<!-- Node2 -->
<g id="Node000002" class="node">
<title>Node2</title>
<g id="a_Node000002"><a xlink:href="class_llama_library_1_1_strings.html#a89ef32e9250628f19e93fce590a92017" target="_top" xlink:title=" ">
<polygon fill="white" stroke="#666666" points="152,-56 0,-56 0,-37 152,-37 152,-56"/>
<text text-anchor="middle" x="76" y="-44" font-family="Helvetica,sans-Serif" font-size="10.00">LlamaLibrary.Strings.GetRange</text>
</a>
</g>
</g>
<!-- Node1&#45;&gt;Node2 -->
<g id="edge1_Node000001_Node000002" class="edge">
<title>Node1&#45;&gt;Node2</title>
<g id="a_edge1_Node000001_Node000002"><a xlink:title=" ">
<path fill="none" stroke="#63b8ff" d="M177.95,-35.84C169.39,-36.75 160.69,-37.67 152.18,-38.56"/>
<polygon fill="#63b8ff" stroke="#63b8ff" points="178.34,-39.32 187.92,-34.79 177.61,-32.36 178.34,-39.32"/>
</a>
</g>
</g>
<!-- Node3 -->
<g id="Node000003" class="node">
<title>Node3</title>
<g id="a_Node000003"><a xlink:href="class_llama_library_1_1_strings.html#a6a575332cc78ef5ca64cf6d81dbc7e50" target="_top" xlink:title=" ">
<polygon fill="white" stroke="#666666" points="146,-19 6,-19 6,0 146,0 146,-19"/>
<text text-anchor="middle" x="76" y="-7" font-family="Helvetica,sans-Serif" font-size="10.00">LlamaLibrary.Strings.Repeat</text>
</a>
</g>
</g>
<!-- Node1&#45;&gt;Node3 -->
<g id="edge2_Node000001_Node000003" class="edge">
<title>Node1&#45;&gt;Node3</title>
<g id="a_edge2_Node000001_Node000003"><a xlink:title=" ">
<path fill="none" stroke="#63b8ff" d="M177.88,-19.59C167.32,-18.53 156.56,-17.46 146.19,-16.42"/>
<polygon fill="#63b8ff" stroke="#63b8ff" points="177.62,-23.08 187.92,-20.59 178.32,-16.11 177.62,-23.08"/>
</a>
</g>
</g>
</g>
</svg>
