<?xml version="1.0" encoding="UTF-8" standalone="no"?>
<!DOCTYPE svg PUBLIC "-//W3C//DTD SVG 1.1//EN"
 "http://www.w3.org/Graphics/SVG/1.1/DTD/svg11.dtd">
<!-- Generated by graphviz version 6.0.1 (20220911.1526)
 -->
<!-- Title: LlamaLibrary.LlamaControlVectorLoadInfos.Repeat Pages: 1 -->
<svg width="612pt" height="138pt"
 viewBox="0.00 0.00 612.00 138.00" xmlns="http://www.w3.org/2000/svg" xmlns:xlink="http://www.w3.org/1999/xlink">
<g id="graph0" class="graph" transform="scale(1 1) rotate(0) translate(4 134)">
<title>LlamaLibrary.LlamaControlVectorLoadInfos.Repeat</title>
<!-- Node1 -->
<g id="Node000001" class="node">
<title>Node1</title>
<g id="a_Node000001"><a xlink:title=" ">
<polygon fill="#999999" stroke="#666666" points="236,-74 0,-74 0,-55 236,-55 236,-74"/>
<text text-anchor="middle" x="118" y="-62" font-family="Helvetica,sans-Serif" font-size="10.00">LlamaLibrary.LlamaControlVectorLoadInfos.Repeat</text>
</a>
</g>
</g>
<!-- Node2 -->
<g id="Node000002" class="node">
<title>Node2</title>
<g id="a_Node000002"><a xlink:href="class_llama_library_1_1_s_w_i_g_t_y_p_e__p__llama__control__vector__load__info.html#a17cce04bff17da000653ab54f117a635" target="_top" xlink:title=" ">
<polygon fill="white" stroke="#666666" points="593.5,-130 282.5,-130 282.5,-111 593.5,-111 593.5,-130"/>
<text text-anchor="middle" x="438" y="-118" font-family="Helvetica,sans-Serif" font-size="10.00">LlamaLibrary.SWIGTYPE_p_llama_control_vector_load_info.getCPtr</text>
</a>
</g>
</g>
<!-- Node1&#45;&gt;Node2 -->
<g id="edge1_Node000001_Node000002" class="edge">
<title>Node1&#45;&gt;Node2</title>
<g id="a_edge1_Node000001_Node000002"><a xlink:title=" ">
<path fill="none" stroke="#63b8ff" d="M151.85,-74.02C182.65,-82.63 230.1,-95.05 272,-102.5 287.51,-105.26 303.91,-107.66 320.13,-109.73"/>
<polygon fill="#63b8ff" stroke="#63b8ff" points="319.83,-113.22 330.19,-110.98 320.7,-106.27 319.83,-113.22"/>
</a>
</g>
</g>
<!-- Node3 -->
<g id="Node000003" class="node">
<title>Node3</title>
<g id="a_Node000003"><a xlink:href="class_llama_library_1_1_llama_control_vector_load_infos.html#a097f2296c3c09d05d43ffc8d9a59a4fc" target="_top" xlink:title=" ">
<polygon fill="white" stroke="#666666" points="604,-93 272,-93 272,-74 604,-74 604,-93"/>
<text text-anchor="middle" x="438" y="-81" font-family="Helvetica,sans-Serif" font-size="10.00">LlamaLibrary.LlamaControlVectorLoadInfos.LlamaControlVectorLoadInfos</text>
</a>
</g>
</g>
<!-- Node1&#45;&gt;Node3 -->
<g id="edge2_Node000001_Node000003" class="edge">
<title>Node1&#45;&gt;Node3</title>
<g id="a_edge2_Node000001_Node000003"><a xlink:title=" ">
<path fill="none" stroke="#63b8ff" d="M236.06,-71.49C246.39,-72.11 256.98,-72.74 267.63,-73.38"/>
<polygon fill="#63b8ff" stroke="#63b8ff" points="267.66,-76.89 277.85,-73.99 268.08,-69.9 267.66,-76.89"/>
</a>
</g>
</g>
<!-- Node4 -->
<g id="Node000004" class="node">
<title>Node4</title>
<g id="a_Node000004"><a xlink:href="class_llama_library_1_1libllama__lib_p_i_n_v_o_k_e.html#ad6e5a0b516a5bda7877dd03ee32df2e2" target="_top" xlink:title=" ">
<polygon fill="white" stroke="#666666" points="604,-56 272,-56 272,-37 604,-37 604,-56"/>
<text text-anchor="middle" x="438" y="-44" font-family="Helvetica,sans-Serif" font-size="10.00">LlamaLibrary.libllama_libPINVOKE.LlamaControlVectorLoadInfos_Repeat</text>
</a>
</g>
</g>
<!-- Node1&#45;&gt;Node4 -->
<g id="edge3_Node000001_Node000004" class="edge">
<title>Node1&#45;&gt;Node4</title>
<g id="a_edge3_Node000001_Node000004"><a xlink:title=" ">
<path fill="none" stroke="#63b8ff" d="M236.06,-57.87C244.46,-57.4 253.03,-56.91 261.66,-56.42"/>
<polygon fill="#63b8ff" stroke="#63b8ff" points="262.03,-59.91 271.82,-55.85 261.64,-52.92 262.03,-59.91"/>
</a>
</g>
</g>
<!-- Node5 -->
<g id="Node000005" class="node">
<title>Node5</title>
<g id="a_Node000005"><a xlink:href="class_llama_library_1_1libllama__lib_p_i_n_v_o_k_e_1_1_s_w_i_g_pending_exception.html#a2718a73540850b42db7c89e9be3519ec" target="_top" xlink:title=" ">
<polygon fill="white" stroke="#666666" points="594,-19 282,-19 282,0 594,0 594,-19"/>
<text text-anchor="middle" x="438" y="-7" font-family="Helvetica,sans-Serif" font-size="10.00">LlamaLibrary.libllama_libPINVOKE.SWIGPendingException.Retrieve</text>
</a>
</g>
</g>
<!-- Node1&#45;&gt;Node5 -->
<g id="edge4_Node000001_Node000005" class="edge">
<title>Node1&#45;&gt;Node5</title>
<g id="a_edge4_Node000001_Node000005"><a xlink:title=" ">
<path fill="none" stroke="#63b8ff" d="M154.31,-54.96C185.17,-46.91 231.28,-35.61 272,-28.5 289.94,-25.37 309.07,-22.62 327.71,-20.27"/>
<polygon fill="#63b8ff" stroke="#63b8ff" points="328.2,-23.73 337.7,-19.04 327.35,-16.79 328.2,-23.73"/>
</a>
</g>
</g>
</g>
</svg>
