<?xml version="1.0" encoding="UTF-8" standalone="no"?>
<!DOCTYPE svg PUBLIC "-//W3C//DTD SVG 1.1//EN"
 "http://www.w3.org/Graphics/SVG/1.1/DTD/svg11.dtd">
<!-- Generated by graphviz version 6.0.1 (20220911.1526)
 -->
<!-- Title: LlamaLibrary.Strings Pages: 1 -->
<svg width="680pt" height="798pt"
 viewBox="0.00 0.00 679.50 798.00" xmlns="http://www.w3.org/2000/svg" xmlns:xlink="http://www.w3.org/1999/xlink">
<g id="graph0" class="graph" transform="scale(1 1) rotate(0) translate(4 794)">
<title>LlamaLibrary.Strings</title>
<!-- Node1 -->
<g id="Node000001" class="node">
<title>Node1</title>
<g id="a_Node000001"><a xlink:title=" ">
<polygon fill="#999999" stroke="none" points="649.5,-694 46.5,-694 46.5,0 649.5,0 649.5,-694"/>
<text text-anchor="start" x="303.5" y="-682" font-family="Helvetica,sans-Serif" font-size="10.00">LlamaLibrary.Strings</text>
<text text-anchor="start" x="51" y="-667" font-family="Helvetica,sans-Serif" font-size="10.00">+</text>
<text text-anchor="start" x="62" y="-667" font-family="Helvetica,sans-Serif" font-size="10.00">int Capacity</text>
<text text-anchor="start" x="51" y="-652" font-family="Helvetica,sans-Serif" font-size="10.00">+</text>
<text text-anchor="start" x="62" y="-652" font-family="Helvetica,sans-Serif" font-size="10.00">int Count</text>
<text text-anchor="start" x="51" y="-637" font-family="Helvetica,sans-Serif" font-size="10.00">+</text>
<text text-anchor="start" x="62" y="-637" font-family="Helvetica,sans-Serif" font-size="10.00">bool IsFixedSize</text>
<text text-anchor="start" x="51" y="-622" font-family="Helvetica,sans-Serif" font-size="10.00">+</text>
<text text-anchor="start" x="62" y="-622" font-family="Helvetica,sans-Serif" font-size="10.00">bool IsReadOnly</text>
<text text-anchor="start" x="51" y="-607" font-family="Helvetica,sans-Serif" font-size="10.00">+</text>
<text text-anchor="start" x="62" y="-607" font-family="Helvetica,sans-Serif" font-size="10.00">bool IsSynchronized</text>
<text text-anchor="start" x="51" y="-592" font-family="Helvetica,sans-Serif" font-size="10.00">+</text>
<text text-anchor="start" x="62" y="-592" font-family="Helvetica,sans-Serif" font-size="10.00">string this[int index]</text>
<text text-anchor="start" x="51.5" y="-577" font-family="Helvetica,sans-Serif" font-size="10.00">#</text>
<text text-anchor="start" x="62" y="-577" font-family="Helvetica,sans-Serif" font-size="10.00">bool swigCMemOwn</text>
<text text-anchor="start" x="51" y="-562" font-family="Helvetica,sans-Serif" font-size="10.00">+</text>
<text text-anchor="start" x="62" y="-562" font-family="Helvetica,sans-Serif" font-size="10.00">void Add(string x)</text>
<text text-anchor="start" x="51" y="-547" font-family="Helvetica,sans-Serif" font-size="10.00">+</text>
<text text-anchor="start" x="62" y="-547" font-family="Helvetica,sans-Serif" font-size="10.00">void AddRange(Strings values)</text>
<text text-anchor="start" x="51" y="-532" font-family="Helvetica,sans-Serif" font-size="10.00">+</text>
<text text-anchor="start" x="62" y="-532" font-family="Helvetica,sans-Serif" font-size="10.00">void Clear()</text>
<text text-anchor="start" x="51" y="-517" font-family="Helvetica,sans-Serif" font-size="10.00">+</text>
<text text-anchor="start" x="62" y="-517" font-family="Helvetica,sans-Serif" font-size="10.00">bool Contains(string value)</text>
<text text-anchor="start" x="51" y="-502" font-family="Helvetica,sans-Serif" font-size="10.00">+</text>
<text text-anchor="start" x="62" y="-502" font-family="Helvetica,sans-Serif" font-size="10.00">void CopyTo(int index, string[] array, int arrayIndex, int count)</text>
<text text-anchor="start" x="51" y="-487" font-family="Helvetica,sans-Serif" font-size="10.00">+</text>
<text text-anchor="start" x="62" y="-487" font-family="Helvetica,sans-Serif" font-size="10.00">void CopyTo(string[] array)</text>
<text text-anchor="start" x="51" y="-472" font-family="Helvetica,sans-Serif" font-size="10.00">+</text>
<text text-anchor="start" x="62" y="-472" font-family="Helvetica,sans-Serif" font-size="10.00">void CopyTo(string[] array, int arrayIndex)</text>
<text text-anchor="start" x="51" y="-457" font-family="Helvetica,sans-Serif" font-size="10.00">+</text>
<text text-anchor="start" x="62" y="-457" font-family="Helvetica,sans-Serif" font-size="10.00">virtual void Dispose()</text>
<text text-anchor="start" x="51" y="-442" font-family="Helvetica,sans-Serif" font-size="10.00">+</text>
<text text-anchor="start" x="62" y="-442" font-family="Helvetica,sans-Serif" font-size="10.00">StringsEnumerator GetEnumerator()</text>
<text text-anchor="start" x="51" y="-427" font-family="Helvetica,sans-Serif" font-size="10.00">+</text>
<text text-anchor="start" x="62" y="-427" font-family="Helvetica,sans-Serif" font-size="10.00">Strings GetRange(int index, int count)</text>
<text text-anchor="start" x="51" y="-412" font-family="Helvetica,sans-Serif" font-size="10.00">+</text>
<text text-anchor="start" x="62" y="-412" font-family="Helvetica,sans-Serif" font-size="10.00">int IndexOf(string value)</text>
<text text-anchor="start" x="51" y="-397" font-family="Helvetica,sans-Serif" font-size="10.00">+</text>
<text text-anchor="start" x="62" y="-397" font-family="Helvetica,sans-Serif" font-size="10.00">void Insert(int index, string x)</text>
<text text-anchor="start" x="51" y="-382" font-family="Helvetica,sans-Serif" font-size="10.00">+</text>
<text text-anchor="start" x="62" y="-382" font-family="Helvetica,sans-Serif" font-size="10.00">void InsertRange(int index, Strings values)</text>
<text text-anchor="start" x="51" y="-367" font-family="Helvetica,sans-Serif" font-size="10.00">+</text>
<text text-anchor="start" x="62" y="-367" font-family="Helvetica,sans-Serif" font-size="10.00">int LastIndexOf(string value)</text>
<text text-anchor="start" x="51" y="-352" font-family="Helvetica,sans-Serif" font-size="10.00">+</text>
<text text-anchor="start" x="62" y="-352" font-family="Helvetica,sans-Serif" font-size="10.00">bool Remove(string value)</text>
<text text-anchor="start" x="51" y="-337" font-family="Helvetica,sans-Serif" font-size="10.00">+</text>
<text text-anchor="start" x="62" y="-337" font-family="Helvetica,sans-Serif" font-size="10.00">void RemoveAt(int index)</text>
<text text-anchor="start" x="51" y="-322" font-family="Helvetica,sans-Serif" font-size="10.00">+</text>
<text text-anchor="start" x="62" y="-322" font-family="Helvetica,sans-Serif" font-size="10.00">void RemoveRange(int index, int count)</text>
<text text-anchor="start" x="51" y="-307" font-family="Helvetica,sans-Serif" font-size="10.00">+</text>
<text text-anchor="start" x="62" y="-307" font-family="Helvetica,sans-Serif" font-size="10.00">void Reverse()</text>
<text text-anchor="start" x="51" y="-292" font-family="Helvetica,sans-Serif" font-size="10.00">+</text>
<text text-anchor="start" x="62" y="-292" font-family="Helvetica,sans-Serif" font-size="10.00">void Reverse(int index, int count)</text>
<text text-anchor="start" x="51" y="-277" font-family="Helvetica,sans-Serif" font-size="10.00">+</text>
<text text-anchor="start" x="62" y="-277" font-family="Helvetica,sans-Serif" font-size="10.00">void SetRange(int index, Strings values)</text>
<text text-anchor="start" x="51" y="-262" font-family="Helvetica,sans-Serif" font-size="10.00">+</text>
<text text-anchor="start" x="62" y="-262" font-family="Helvetica,sans-Serif" font-size="10.00">Strings()</text>
<text text-anchor="start" x="51" y="-247" font-family="Helvetica,sans-Serif" font-size="10.00">+</text>
<text text-anchor="start" x="62" y="-247" font-family="Helvetica,sans-Serif" font-size="10.00">Strings(global::System.Collections.Generic.IEnumerable&lt; string &gt; c)</text>
<text text-anchor="start" x="51" y="-232" font-family="Helvetica,sans-Serif" font-size="10.00">+</text>
<text text-anchor="start" x="62" y="-232" font-family="Helvetica,sans-Serif" font-size="10.00">Strings(global::System.Collections.IEnumerable c)</text>
<text text-anchor="start" x="51" y="-217" font-family="Helvetica,sans-Serif" font-size="10.00">+</text>
<text text-anchor="start" x="62" y="-217" font-family="Helvetica,sans-Serif" font-size="10.00">Strings(int capacity)</text>
<text text-anchor="start" x="51" y="-202" font-family="Helvetica,sans-Serif" font-size="10.00">+</text>
<text text-anchor="start" x="62" y="-202" font-family="Helvetica,sans-Serif" font-size="10.00">Strings(Strings other)</text>
<text text-anchor="start" x="51" y="-187" font-family="Helvetica,sans-Serif" font-size="10.00">+</text>
<text text-anchor="start" x="62" y="-187" font-family="Helvetica,sans-Serif" font-size="10.00">string[] ToArray()</text>
<text text-anchor="start" x="51" y="-172" font-family="Helvetica,sans-Serif" font-size="10.00">+</text>
<text text-anchor="start" x="62" y="-172" font-family="Helvetica,sans-Serif" font-size="10.00">static Strings Repeat(string value, int count)</text>
<text text-anchor="start" x="51" y="-157" font-family="Helvetica,sans-Serif" font-size="10.00">~</text>
<text text-anchor="start" x="62" y="-157" font-family="Helvetica,sans-Serif" font-size="10.00">Strings(global::System.IntPtr cPtr, bool cMemoryOwn)</text>
<text text-anchor="start" x="51" y="-142" font-family="Helvetica,sans-Serif" font-size="10.00">~</text>
<text text-anchor="start" x="62" y="-142" font-family="Helvetica,sans-Serif" font-size="10.00">static global::System.Runtime.InteropServices.HandleRef getCPtr(Strings obj)</text>
<text text-anchor="start" x="52.5" y="-127" font-family="Helvetica,sans-Serif" font-size="10.00">&#45;</text>
<text text-anchor="start" x="62" y="-127" font-family="Helvetica,sans-Serif" font-size="10.00">uint capacity()</text>
<text text-anchor="start" x="52.5" y="-112" font-family="Helvetica,sans-Serif" font-size="10.00">&#45;</text>
<text text-anchor="start" x="62" y="-112" font-family="Helvetica,sans-Serif" font-size="10.00">global::System.Collections.Generic.IEnumerator&lt; string &gt; global::System.Collections.Generic.IEnumerable&lt; string &gt;. GetEnumerator()</text>
<text text-anchor="start" x="52.5" y="-97" font-family="Helvetica,sans-Serif" font-size="10.00">&#45;</text>
<text text-anchor="start" x="62" y="-97" font-family="Helvetica,sans-Serif" font-size="10.00">global::System.Collections.IEnumerator global::System.Collections.IEnumerable. GetEnumerator()</text>
<text text-anchor="start" x="52.5" y="-82" font-family="Helvetica,sans-Serif" font-size="10.00">&#45;</text>
<text text-anchor="start" x="62" y="-82" font-family="Helvetica,sans-Serif" font-size="10.00">string getitem(int index)</text>
<text text-anchor="start" x="52.5" y="-67" font-family="Helvetica,sans-Serif" font-size="10.00">&#45;</text>
<text text-anchor="start" x="62" y="-67" font-family="Helvetica,sans-Serif" font-size="10.00">string getitemcopy(int index)</text>
<text text-anchor="start" x="52.5" y="-52" font-family="Helvetica,sans-Serif" font-size="10.00">&#45;</text>
<text text-anchor="start" x="62" y="-52" font-family="Helvetica,sans-Serif" font-size="10.00">void reserve(uint n)</text>
<text text-anchor="start" x="52.5" y="-37" font-family="Helvetica,sans-Serif" font-size="10.00">&#45;</text>
<text text-anchor="start" x="62" y="-37" font-family="Helvetica,sans-Serif" font-size="10.00">void setitem(int index, string value)</text>
<text text-anchor="start" x="52.5" y="-22" font-family="Helvetica,sans-Serif" font-size="10.00">&#45;</text>
<text text-anchor="start" x="62" y="-22" font-family="Helvetica,sans-Serif" font-size="10.00">uint size()</text>
<text text-anchor="start" x="52.5" y="-7" font-family="Helvetica,sans-Serif" font-size="10.00">&#45;</text>
<text text-anchor="start" x="62" y="-7" font-family="Helvetica,sans-Serif" font-size="10.00">~Strings()</text>
<polygon fill="#666666" stroke="#666666" points="47,-677 47,-677 650,-677 650,-677 47,-677"/>
<polygon fill="#666666" stroke="#666666" points="47,-572 47,-572 60,-572 60,-572 47,-572"/>
<polygon fill="#666666" stroke="#666666" points="60,-572 60,-572 650,-572 650,-572 60,-572"/>
<polygon fill="none" stroke="#666666" points="46.5,0 46.5,-694 649.5,-694 649.5,0 46.5,0"/>
</a>
</g>
</g>
<!-- Node2 -->
<g id="Node000002" class="node">
<title>Node2</title>
<g id="a_Node000002"><a xlink:title=" ">
<polygon fill="white" stroke="none" points="126,-790 0,-790 0,-741 126,-741 126,-790"/>
<text text-anchor="start" x="5" y="-777.5" font-family="Helvetica,sans-Serif" font-size="10.00">global::SystemIDisposable</text>
<text text-anchor="start" x="61" y="-762.5" font-family="Helvetica,sans-Serif" font-size="10.00"> </text>
<text text-anchor="start" x="61" y="-747.5" font-family="Helvetica,sans-Serif" font-size="10.00"> </text>
<polygon fill="#666666" stroke="#666666" points="0,-772.5 0,-772.5 126,-772.5 126,-772.5 0,-772.5"/>
<polygon fill="#666666" stroke="#666666" points="0,-757.5 0,-757.5 126,-757.5 126,-757.5 0,-757.5"/>
<polygon fill="none" stroke="#666666" points="0,-741 0,-790 126,-790 126,-741 0,-741"/>
</a>
</g>
</g>
<!-- Node2&#45;&gt;Node1 -->
<g id="edge1_Node000001_Node000002" class="edge">
<title>Node2&#45;&gt;Node1</title>
<g id="a_edge1_Node000001_Node000002"><a xlink:title=" ">
<path fill="none" stroke="#63b8ff" d="M84.89,-732.51C92.19,-721.85 101.03,-708.92 111,-694.36"/>
<polygon fill="none" stroke="#63b8ff" points="81.9,-730.68 79.14,-740.91 87.68,-734.64 81.9,-730.68"/>
</a>
</g>
</g>
<!-- Node3 -->
<g id="Node000003" class="node">
<title>Node3</title>
<g id="a_Node000003"><a xlink:title=" ">
<polygon fill="white" stroke="none" points="328,-790 144,-790 144,-741 328,-741 328,-790"/>
<text text-anchor="start" x="149" y="-777.5" font-family="Helvetica,sans-Serif" font-size="10.00">global::SystemCollections::IEnumerable</text>
<text text-anchor="start" x="234" y="-762.5" font-family="Helvetica,sans-Serif" font-size="10.00"> </text>
<text text-anchor="start" x="234" y="-747.5" font-family="Helvetica,sans-Serif" font-size="10.00"> </text>
<polygon fill="#666666" stroke="#666666" points="144,-772.5 144,-772.5 328,-772.5 328,-772.5 144,-772.5"/>
<polygon fill="#666666" stroke="#666666" points="144,-757.5 144,-757.5 328,-757.5 328,-757.5 144,-757.5"/>
<polygon fill="none" stroke="#666666" points="144,-741 144,-790 328,-790 328,-741 144,-741"/>
</a>
</g>
</g>
<!-- Node3&#45;&gt;Node1 -->
<g id="edge2_Node000001_Node000003" class="edge">
<title>Node3&#45;&gt;Node1</title>
<g id="a_edge2_Node000001_Node000003"><a xlink:title=" ">
<path fill="none" stroke="#63b8ff" d="M244.95,-731.22C247.75,-720.81 251.1,-708.34 254.86,-694.36"/>
<polygon fill="none" stroke="#63b8ff" points="241.56,-730.35 242.34,-740.91 248.32,-732.17 241.56,-730.35"/>
</a>
</g>
</g>
<!-- Node4 -->
<g id="Node000004" class="node">
<title>Node4</title>
<g id="a_Node000004"><a xlink:title=" ">
<polygon fill="white" stroke="none" points="576,-790 346,-790 346,-741 576,-741 576,-790"/>
<text text-anchor="start" x="351" y="-777.5" font-family="Helvetica,sans-Serif" font-size="10.00">global::SystemCollections::Generic::IList&lt; string &gt;</text>
<text text-anchor="start" x="459" y="-762.5" font-family="Helvetica,sans-Serif" font-size="10.00"> </text>
<text text-anchor="start" x="459" y="-747.5" font-family="Helvetica,sans-Serif" font-size="10.00"> </text>
<polygon fill="#666666" stroke="#666666" points="346,-772.5 346,-772.5 576,-772.5 576,-772.5 346,-772.5"/>
<polygon fill="#666666" stroke="#666666" points="346,-757.5 346,-757.5 576,-757.5 576,-757.5 346,-757.5"/>
<polygon fill="none" stroke="#666666" points="346,-741 346,-790 576,-790 576,-741 346,-741"/>
</a>
</g>
</g>
<!-- Node4&#45;&gt;Node1 -->
<g id="edge3_Node000001_Node000004" class="edge">
<title>Node4&#45;&gt;Node1</title>
<g id="a_edge3_Node000001_Node000004"><a xlink:title=" ">
<path fill="none" stroke="#63b8ff" d="M451.97,-731.22C449.15,-720.81 445.76,-708.34 441.97,-694.36"/>
<polygon fill="none" stroke="#63b8ff" points="448.6,-732.18 454.6,-740.91 455.36,-730.35 448.6,-732.18"/>
</a>
</g>
</g>
<!-- Node5 -->
<g id="Node000005" class="node">
<title>Node5</title>
<g id="a_Node000005"><a xlink:title=" ">
<polygon fill="white" stroke="none" points="671.5,-790 594.5,-790 594.5,-741 671.5,-741 671.5,-790"/>
<text text-anchor="start" x="600" y="-777.5" font-family="Helvetica,sans-Serif" font-size="10.00">InteropServices</text>
<text text-anchor="start" x="631.5" y="-762.5" font-family="Helvetica,sans-Serif" font-size="10.00"> </text>
<text text-anchor="start" x="631.5" y="-747.5" font-family="Helvetica,sans-Serif" font-size="10.00"> </text>
<polygon fill="#666666" stroke="#666666" points="595,-772.5 595,-772.5 672,-772.5 672,-772.5 595,-772.5"/>
<polygon fill="#666666" stroke="#666666" points="595,-757.5 595,-757.5 672,-757.5 672,-757.5 595,-757.5"/>
<polygon fill="none" stroke="#666666" points="594.5,-741 594.5,-790 671.5,-790 671.5,-741 594.5,-741"/>
</a>
</g>
</g>
<!-- Node5&#45;&gt;Node1 -->
<g id="edge4_Node000001_Node000005" class="edge">
<title>Node5&#45;&gt;Node1</title>
<g id="a_edge4_Node000001_Node000005"><a xlink:title=" ">
<path fill="none" stroke="#63b8ff" d="M616.86,-740.91C610.21,-731.2 601.76,-718.84 591.98,-704.55"/>
<polygon fill="none" stroke="#63b8ff" points="591.78,-704.26 585.09,-701.57 585,-694.36 591.69,-697.05 591.78,-704.26"/>
</a>
</g>
<text text-anchor="middle" x="626" y="-715" font-family="Helvetica,sans-Serif" font-size="10.00" fill="grey"> &#45;swigCPtr</text>
</g>
</g>
</svg>
