<?xml version="1.0" encoding="UTF-8" standalone="no"?>
<!DOCTYPE svg PUBLIC "-//W3C//DTD SVG 1.1//EN"
 "http://www.w3.org/Graphics/SVG/1.1/DTD/svg11.dtd">
<!-- Generated by graphviz version 6.0.1 (20220911.1526)
 -->
<!-- Title: LlamaLibrary.libllama_libPINVOKE.SWIGExceptionHelper.SetPendingArgumentNullException Pages: 1 -->
<svg width="778pt" height="64pt"
 viewBox="0.00 0.00 778.00 64.00" xmlns="http://www.w3.org/2000/svg" xmlns:xlink="http://www.w3.org/1999/xlink">
<g id="graph0" class="graph" transform="scale(1 1) rotate(0) translate(4 60)">
<title>LlamaLibrary.libllama_libPINVOKE.SWIGExceptionHelper.SetPendingArgumentNullException</title>
<!-- Node1 -->
<g id="Node000001" class="node">
<title>Node1</title>
<g id="a_Node000001"><a xlink:title=" ">
<polygon fill="#999999" stroke="#666666" points="422,-37 0,-37 0,-18 422,-18 422,-37"/>
<text text-anchor="middle" x="211" y="-25" font-family="Helvetica,sans-Serif" font-size="10.00">LlamaLibrary.libllama_libPINVOKE.SWIGExceptionHelper.SetPendingArgumentNullException</text>
</a>
</g>
</g>
<!-- Node2 -->
<g id="Node000002" class="node">
<title>Node2</title>
<g id="a_Node000002"><a xlink:href="class_llama_library_1_1libllama__lib_p_i_n_v_o_k_e_1_1_s_w_i_g_pending_exception.html#a2718a73540850b42db7c89e9be3519ec" target="_top" xlink:title=" ">
<polygon fill="white" stroke="#666666" points="770,-56 458,-56 458,-37 770,-37 770,-56"/>
<text text-anchor="middle" x="614" y="-44" font-family="Helvetica,sans-Serif" font-size="10.00">LlamaLibrary.libllama_libPINVOKE.SWIGPendingException.Retrieve</text>
</a>
</g>
</g>
<!-- Node1&#45;&gt;Node2 -->
<g id="edge1_Node000001_Node000002" class="edge">
<title>Node1&#45;&gt;Node2</title>
<g id="a_edge1_Node000001_Node000002"><a xlink:title=" ">
<path fill="none" stroke="#63b8ff" d="M412.79,-37.01C424.52,-37.57 436.24,-38.12 447.8,-38.67"/>
<polygon fill="#63b8ff" stroke="#63b8ff" points="447.77,-42.17 457.92,-39.15 448.1,-35.18 447.77,-42.17"/>
</a>
</g>
</g>
<!-- Node3 -->
<g id="Node000003" class="node">
<title>Node3</title>
<g id="a_Node000003"><a xlink:href="class_llama_library_1_1libllama__lib_p_i_n_v_o_k_e_1_1_s_w_i_g_pending_exception.html#a8ab3aa971cf4b30e8ca2e9973aa9d21a" target="_top" xlink:title=" ">
<polygon fill="white" stroke="#666666" points="760.5,-19 467.5,-19 467.5,0 760.5,0 760.5,-19"/>
<text text-anchor="middle" x="614" y="-7" font-family="Helvetica,sans-Serif" font-size="10.00">LlamaLibrary.libllama_libPINVOKE.SWIGPendingException.Set</text>
</a>
</g>
</g>
<!-- Node1&#45;&gt;Node3 -->
<g id="edge2_Node000001_Node000003" class="edge">
<title>Node1&#45;&gt;Node3</title>
<g id="a_edge2_Node000001_Node000003"><a xlink:title=" ">
<path fill="none" stroke="#63b8ff" d="M422.19,-18.07C433.97,-17.54 445.72,-17.01 457.25,-16.49"/>
<polygon fill="#63b8ff" stroke="#63b8ff" points="457.49,-19.98 467.33,-16.04 457.18,-12.99 457.49,-19.98"/>
</a>
</g>
</g>
</g>
</svg>
