<?xml version="1.0" encoding="UTF-8" standalone="no"?>
<!DOCTYPE svg PUBLIC "-//W3C//DTD SVG 1.1//EN"
 "http://www.w3.org/Graphics/SVG/1.1/DTD/svg11.dtd">
<!-- Generated by graphviz version 6.0.1 (20220911.1526)
 -->
<!-- Title: LlamaLibrary.StringsAndFloats.Reverse Pages: 1 -->
<svg width="564pt" height="64pt"
 viewBox="0.00 0.00 564.00 64.00" xmlns="http://www.w3.org/2000/svg" xmlns:xlink="http://www.w3.org/1999/xlink">
<g id="graph0" class="graph" transform="scale(1 1) rotate(0) translate(4 60)">
<title>LlamaLibrary.StringsAndFloats.Reverse</title>
<!-- Node1 -->
<g id="Node000001" class="node">
<title>Node1</title>
<g id="a_Node000001"><a xlink:title=" ">
<polygon fill="#999999" stroke="#666666" points="188,-37 0,-37 0,-18 188,-18 188,-37"/>
<text text-anchor="middle" x="94" y="-25" font-family="Helvetica,sans-Serif" font-size="10.00">LlamaLibrary.StringsAndFloats.Reverse</text>
</a>
</g>
</g>
<!-- Node2 -->
<g id="Node000002" class="node">
<title>Node2</title>
<g id="a_Node000002"><a xlink:href="$class_llama_library_1_1libllama__lib_p_i_n_v_o_k_e_1_1_s_w_i_g_pending_exception.html#a2718a73540850b42db7c89e9be3519ec" xlink:title=" ">
<polygon fill="white" stroke="#666666" points="546,-56 234,-56 234,-37 546,-37 546,-56"/>
<text text-anchor="middle" x="390" y="-44" font-family="Helvetica,sans-Serif" font-size="10.00">LlamaLibrary.libllama_libPINVOKE.SWIGPendingException.Retrieve</text>
</a>
</g>
</g>
<!-- Node1&#45;&gt;Node2 -->
<g id="edge1_Node000001_Node000002" class="edge">
<title>Node1&#45;&gt;Node2</title>
<g id="a_edge1_Node000001_Node000002"><a xlink:title=" ">
<path fill="none" stroke="#63b8ff" d="M188.02,-33.51C201.97,-34.41 216.66,-35.36 231.5,-36.32"/>
<polygon fill="#63b8ff" stroke="#63b8ff" points="231.58,-39.83 241.78,-36.99 232.03,-32.85 231.58,-39.83"/>
</a>
</g>
</g>
<!-- Node3 -->
<g id="Node000003" class="node">
<title>Node3</title>
<g id="a_Node000003"><a xlink:href="$class_llama_library_1_1libllama__lib_p_i_n_v_o_k_e.html#afa52afec96d1dbc9f0d17300a2eefdeb" xlink:title=" ">
<polygon fill="white" stroke="#666666" points="556,-19 224,-19 224,0 556,0 556,-19"/>
<text text-anchor="middle" x="390" y="-7" font-family="Helvetica,sans-Serif" font-size="10.00">LlamaLibrary.libllama_libPINVOKE.StringsAndFloats_Reverse__SWIG_1</text>
</a>
</g>
</g>
<!-- Node1&#45;&gt;Node3 -->
<g id="edge2_Node000001_Node000003" class="edge">
<title>Node1&#45;&gt;Node3</title>
<g id="a_edge2_Node000001_Node000003"><a xlink:title=" ">
<path fill="none" stroke="#63b8ff" d="M188.02,-21.8C199.46,-21.1 211.4,-20.37 223.51,-19.63"/>
<polygon fill="#63b8ff" stroke="#63b8ff" points="223.95,-23.11 233.71,-19.01 223.52,-16.13 223.95,-23.11"/>
</a>
</g>
</g>
</g>
</svg>
