<?xml version="1.0" encoding="UTF-8" standalone="no"?>
<!DOCTYPE svg PUBLIC "-//W3C//DTD SVG 1.1//EN"
 "http://www.w3.org/Graphics/SVG/1.1/DTD/svg11.dtd">
<!-- Generated by graphviz version 6.0.1 (20220911.1526)
 -->
<!-- Title: LogToUI Pages: 1 -->
<svg width="310pt" height="187pt"
 viewBox="0.00 0.00 310.00 187.00" xmlns="http://www.w3.org/2000/svg" xmlns:xlink="http://www.w3.org/1999/xlink">
<g id="graph0" class="graph" transform="scale(1 1) rotate(0) translate(4 183)">
<title>LogToUI</title>
<!-- Node1 -->
<g id="Node000001" class="node">
<title>Node1</title>
<g id="a_Node000001"><a xlink:title=" ">
<polygon fill="#999999" stroke="none" points="302,-94 0,-94 0,0 302,0 302,-94"/>
<text text-anchor="start" x="133" y="-82" font-family="Helvetica,sans-Serif" font-size="10.00">LogToUI</text>
<text text-anchor="start" x="4" y="-67" font-family="Helvetica,sans-Serif" font-size="10.00">+</text>
<text text-anchor="start" x="15" y="-67" font-family="Helvetica,sans-Serif" font-size="10.00">TMP_Text logText</text>
<text text-anchor="start" x="5.5" y="-52" font-family="Helvetica,sans-Serif" font-size="10.00">&#45;</text>
<text text-anchor="start" x="15" y="-52" font-family="Helvetica,sans-Serif" font-size="10.00">StringBuilder logBuilder</text>
<text text-anchor="start" x="5.5" y="-37" font-family="Helvetica,sans-Serif" font-size="10.00">&#45;</text>
<text text-anchor="start" x="15" y="-37" font-family="Helvetica,sans-Serif" font-size="10.00">void HandleLog(string logString, string stackTrace, LogType type)</text>
<text text-anchor="start" x="5.5" y="-22" font-family="Helvetica,sans-Serif" font-size="10.00">&#45;</text>
<text text-anchor="start" x="15" y="-22" font-family="Helvetica,sans-Serif" font-size="10.00">void OnDisable()</text>
<text text-anchor="start" x="5.5" y="-7" font-family="Helvetica,sans-Serif" font-size="10.00">&#45;</text>
<text text-anchor="start" x="15" y="-7" font-family="Helvetica,sans-Serif" font-size="10.00">void OnEnable()</text>
<polygon fill="#666666" stroke="#666666" points="0,-77 0,-77 302,-77 302,-77 0,-77"/>
<polygon fill="#666666" stroke="#666666" points="0,-47 0,-47 13,-47 13,-47 0,-47"/>
<polygon fill="#666666" stroke="#666666" points="13,-47 13,-47 302,-47 302,-47 13,-47"/>
<polygon fill="none" stroke="#666666" points="0,0 0,-94 302,-94 302,0 0,0"/>
</a>
</g>
</g>
<!-- Node2 -->
<g id="Node000002" class="node">
<title>Node2</title>
<g id="a_Node000002"><a xlink:title=" ">
<polygon fill="white" stroke="none" points="189.5,-179 112.5,-179 112.5,-130 189.5,-130 189.5,-179"/>
<text text-anchor="start" x="118" y="-166.5" font-family="Helvetica,sans-Serif" font-size="10.00">MonoBehaviour</text>
<text text-anchor="start" x="149.5" y="-151.5" font-family="Helvetica,sans-Serif" font-size="10.00"> </text>
<text text-anchor="start" x="149.5" y="-136.5" font-family="Helvetica,sans-Serif" font-size="10.00"> </text>
<polygon fill="#666666" stroke="#666666" points="113,-161.5 113,-161.5 190,-161.5 190,-161.5 113,-161.5"/>
<polygon fill="#666666" stroke="#666666" points="113,-146.5 113,-146.5 190,-146.5 190,-146.5 113,-146.5"/>
<polygon fill="none" stroke="#666666" points="112.5,-130 112.5,-179 189.5,-179 189.5,-130 112.5,-130"/>
</a>
</g>
</g>
<!-- Node2&#45;&gt;Node1 -->
<g id="edge1_Node000001_Node000002" class="edge">
<title>Node2&#45;&gt;Node1</title>
<g id="a_edge1_Node000001_Node000002"><a xlink:title=" ">
<path fill="none" stroke="#63b8ff" d="M151,-119.61C151,-111.48 151,-102.66 151,-94.08"/>
<polygon fill="none" stroke="#63b8ff" points="147.5,-119.82 151,-129.82 154.5,-119.82 147.5,-119.82"/>
</a>
</g>
</g>
</g>
</svg>
