<?xml version="1.0" encoding="UTF-8" standalone="no"?>
<!DOCTYPE svg PUBLIC "-//W3C//DTD SVG 1.1//EN"
 "http://www.w3.org/Graphics/SVG/1.1/DTD/svg11.dtd">
<!-- Generated by graphviz version 6.0.1 (20220911.1526)
 -->
<!-- Title: Assets.StyledLines.Runtime.ModelFilesUI.BinaryAsset Pages: 1 -->
<svg width="258pt" height="142pt"
 viewBox="0.00 0.00 258.00 142.00" xmlns="http://www.w3.org/2000/svg" xmlns:xlink="http://www.w3.org/1999/xlink">
<g id="graph0" class="graph" transform="scale(1 1) rotate(0) translate(4 138)">
<title>Assets.StyledLines.Runtime.ModelFilesUI.BinaryAsset</title>
<!-- Node1 -->
<g id="Node000001" class="node">
<title>Node1</title>
<g id="a_Node000001"><a xlink:title=" ">
<polygon fill="#999999" stroke="none" points="250,-49 0,-49 0,0 250,0 250,-49"/>
<text text-anchor="start" x="5" y="-36.5" font-family="Helvetica,sans-Serif" font-size="10.00">Assets.StyledLines.Runtime.ModelFilesUI.BinaryAsset</text>
<text text-anchor="start" x="50" y="-21.5" font-family="Helvetica,sans-Serif" font-size="10.00">+</text>
<text text-anchor="start" x="107" y="-21.5" font-family="Helvetica,sans-Serif" font-size="10.00">byte[] data</text>
<text text-anchor="start" x="123" y="-6.5" font-family="Helvetica,sans-Serif" font-size="10.00"> </text>
<polygon fill="#666666" stroke="#666666" points="0,-31.5 0,-31.5 250,-31.5 250,-31.5 0,-31.5"/>
<polygon fill="#666666" stroke="#666666" points="0,-16.5 0,-16.5 105,-16.5 105,-16.5 0,-16.5"/>
<polygon fill="#666666" stroke="#666666" points="105,-16.5 105,-16.5 250,-16.5 250,-16.5 105,-16.5"/>
<polygon fill="none" stroke="#666666" points="0,0 0,-49 250,-49 250,0 0,0"/>
</a>
</g>
</g>
<!-- Node2 -->
<g id="Node000002" class="node">
<title>Node2</title>
<g id="a_Node000002"><a xlink:title=" ">
<polygon fill="white" stroke="none" points="166.5,-134 83.5,-134 83.5,-85 166.5,-85 166.5,-134"/>
<text text-anchor="start" x="89" y="-121.5" font-family="Helvetica,sans-Serif" font-size="10.00">ScriptableObject</text>
<text text-anchor="start" x="123.5" y="-106.5" font-family="Helvetica,sans-Serif" font-size="10.00"> </text>
<text text-anchor="start" x="123.5" y="-91.5" font-family="Helvetica,sans-Serif" font-size="10.00"> </text>
<polygon fill="#666666" stroke="#666666" points="84,-116.5 84,-116.5 167,-116.5 167,-116.5 84,-116.5"/>
<polygon fill="#666666" stroke="#666666" points="84,-101.5 84,-101.5 167,-101.5 167,-101.5 84,-101.5"/>
<polygon fill="none" stroke="#666666" points="83.5,-85 83.5,-134 166.5,-134 166.5,-85 83.5,-85"/>
</a>
</g>
</g>
<!-- Node2&#45;&gt;Node1 -->
<g id="edge1_Node000001_Node000002" class="edge">
<title>Node2&#45;&gt;Node1</title>
<g id="a_edge1_Node000001_Node000002"><a xlink:title=" ">
<path fill="none" stroke="#63b8ff" d="M125,-74.77C125,-66.17 125,-57.1 125,-49.12"/>
<polygon fill="none" stroke="#63b8ff" points="121.5,-74.94 125,-84.94 128.5,-74.94 121.5,-74.94"/>
</a>
</g>
</g>
</g>
</svg>
