<?xml version="1.0" encoding="UTF-8" standalone="no"?>
<!DOCTYPE svg PUBLIC "-//W3C//DTD SVG 1.1//EN"
 "http://www.w3.org/Graphics/SVG/1.1/DTD/svg11.dtd">
<!-- Generated by graphviz version 6.0.1 (20220911.1526)
 -->
<!-- Title: LlamaLibrary.LlamaControlVectorLoadInfos.RemoveRange Pages: 1 -->
<svg width="675pt" height="64pt"
 viewBox="0.00 0.00 675.00 64.00" xmlns="http://www.w3.org/2000/svg" xmlns:xlink="http://www.w3.org/1999/xlink">
<g id="graph0" class="graph" transform="scale(1 1) rotate(0) translate(4 60)">
<title>LlamaLibrary.LlamaControlVectorLoadInfos.RemoveRange</title>
<!-- Node1 -->
<g id="Node000001" class="node">
<title>Node1</title>
<g id="a_Node000001"><a xlink:title=" ">
<polygon fill="#999999" stroke="#666666" points="267,-37 0,-37 0,-18 267,-18 267,-37"/>
<text text-anchor="middle" x="133.5" y="-25" font-family="Helvetica,sans-Serif" font-size="10.00">LlamaLibrary.LlamaControlVectorLoadInfos.RemoveRange</text>
</a>
</g>
</g>
<!-- Node2 -->
<g id="Node000002" class="node">
<title>Node2</title>
<g id="a_Node000002"><a xlink:href="class_llama_library_1_1libllama__lib_p_i_n_v_o_k_e.html#a803b7febfea4cab2dc0825aec9560f1c" target="_top" xlink:title=" ">
<polygon fill="white" stroke="#666666" points="667,-56 303,-56 303,-37 667,-37 667,-56"/>
<text text-anchor="middle" x="485" y="-44" font-family="Helvetica,sans-Serif" font-size="10.00">LlamaLibrary.libllama_libPINVOKE.LlamaControlVectorLoadInfos_RemoveRange</text>
</a>
</g>
</g>
<!-- Node1&#45;&gt;Node2 -->
<g id="edge1_Node000001_Node000002" class="edge">
<title>Node1&#45;&gt;Node2</title>
<g id="a_edge1_Node000001_Node000002"><a xlink:title=" ">
<path fill="none" stroke="#63b8ff" d="M267.13,-34.71C277.52,-35.28 288.12,-35.85 298.77,-36.43"/>
<polygon fill="#63b8ff" stroke="#63b8ff" points="298.82,-39.94 309,-36.99 299.2,-32.95 298.82,-39.94"/>
</a>
</g>
</g>
<!-- Node3 -->
<g id="Node000003" class="node">
<title>Node3</title>
<g id="a_Node000003"><a xlink:href="class_llama_library_1_1libllama__lib_p_i_n_v_o_k_e_1_1_s_w_i_g_pending_exception.html#a2718a73540850b42db7c89e9be3519ec" target="_top" xlink:title=" ">
<polygon fill="white" stroke="#666666" points="641,-19 329,-19 329,0 641,0 641,-19"/>
<text text-anchor="middle" x="485" y="-7" font-family="Helvetica,sans-Serif" font-size="10.00">LlamaLibrary.libllama_libPINVOKE.SWIGPendingException.Retrieve</text>
</a>
</g>
</g>
<!-- Node1&#45;&gt;Node3 -->
<g id="edge2_Node000001_Node000003" class="edge">
<title>Node1&#45;&gt;Node3</title>
<g id="a_edge2_Node000001_Node000003"><a xlink:title=" ">
<path fill="none" stroke="#63b8ff" d="M267.13,-20.67C284,-19.8 301.42,-18.9 318.73,-18.01"/>
<polygon fill="#63b8ff" stroke="#63b8ff" points="319.09,-21.5 328.89,-17.49 318.73,-14.51 319.09,-21.5"/>
</a>
</g>
</g>
</g>
</svg>
