<?xml version="1.0" encoding="UTF-8" standalone="no"?>
<!DOCTYPE svg PUBLIC "-//W3C//DTD SVG 1.1//EN"
 "http://www.w3.org/Graphics/SVG/1.1/DTD/svg11.dtd">
<!-- Generated by graphviz version 6.0.1 (20220911.1526)
 -->
<!-- Title: Assets.StyledLines.Samples.BasicDebug.Runtime.RandomSpin Pages: 1 -->
<svg width="298pt" height="172pt"
 viewBox="0.00 0.00 298.00 172.00" xmlns="http://www.w3.org/2000/svg" xmlns:xlink="http://www.w3.org/1999/xlink">
<g id="graph0" class="graph" transform="scale(1 1) rotate(0) translate(4 168)">
<title>Assets.StyledLines.Samples.BasicDebug.Runtime.RandomSpin</title>
<!-- Node1 -->
<g id="Node000001" class="node">
<title>Node1</title>
<g id="a_Node000001"><a xlink:title=" ">
<polygon fill="#999999" stroke="none" points="290,-79 0,-79 0,0 290,0 290,-79"/>
<text text-anchor="start" x="5" y="-66.5" font-family="Helvetica,sans-Serif" font-size="10.00">Assets.StyledLines.Samples.BasicDebug.Runtime.RandomSpin</text>
<text text-anchor="start" x="43.5" y="-51.5" font-family="Helvetica,sans-Serif" font-size="10.00">+</text>
<text text-anchor="start" x="94" y="-51.5" font-family="Helvetica,sans-Serif" font-size="10.00">float RotationSpeed</text>
<text text-anchor="start" x="45" y="-36.5" font-family="Helvetica,sans-Serif" font-size="10.00">&#45;</text>
<text text-anchor="start" x="94" y="-36.5" font-family="Helvetica,sans-Serif" font-size="10.00">Vector3 _rotationDirection</text>
<text text-anchor="start" x="45" y="-21.5" font-family="Helvetica,sans-Serif" font-size="10.00">&#45;</text>
<text text-anchor="start" x="94" y="-21.5" font-family="Helvetica,sans-Serif" font-size="10.00">void Start()</text>
<text text-anchor="start" x="45" y="-6.5" font-family="Helvetica,sans-Serif" font-size="10.00">&#45;</text>
<text text-anchor="start" x="94" y="-6.5" font-family="Helvetica,sans-Serif" font-size="10.00">void Update()</text>
<polygon fill="#666666" stroke="#666666" points="0,-61.5 0,-61.5 290,-61.5 290,-61.5 0,-61.5"/>
<polygon fill="#666666" stroke="#666666" points="0,-31.5 0,-31.5 92,-31.5 92,-31.5 0,-31.5"/>
<polygon fill="#666666" stroke="#666666" points="92,-31.5 92,-31.5 290,-31.5 290,-31.5 92,-31.5"/>
<polygon fill="none" stroke="#666666" points="0,0 0,-79 290,-79 290,0 0,0"/>
</a>
</g>
</g>
<!-- Node2 -->
<g id="Node000002" class="node">
<title>Node2</title>
<g id="a_Node000002"><a xlink:title=" ">
<polygon fill="white" stroke="none" points="183.5,-164 106.5,-164 106.5,-115 183.5,-115 183.5,-164"/>
<text text-anchor="start" x="112" y="-151.5" font-family="Helvetica,sans-Serif" font-size="10.00">MonoBehaviour</text>
<text text-anchor="start" x="143.5" y="-136.5" font-family="Helvetica,sans-Serif" font-size="10.00"> </text>
<text text-anchor="start" x="143.5" y="-121.5" font-family="Helvetica,sans-Serif" font-size="10.00"> </text>
<polygon fill="#666666" stroke="#666666" points="107,-146.5 107,-146.5 184,-146.5 184,-146.5 107,-146.5"/>
<polygon fill="#666666" stroke="#666666" points="107,-131.5 107,-131.5 184,-131.5 184,-131.5 107,-131.5"/>
<polygon fill="none" stroke="#666666" points="106.5,-115 106.5,-164 183.5,-164 183.5,-115 106.5,-115"/>
</a>
</g>
</g>
<!-- Node2&#45;&gt;Node1 -->
<g id="edge1_Node000001_Node000002" class="edge">
<title>Node2&#45;&gt;Node1</title>
<g id="a_edge1_Node000001_Node000002"><a xlink:title=" ">
<path fill="none" stroke="#63b8ff" d="M145,-104.52C145,-96.38 145,-87.63 145,-79.29"/>
<polygon fill="none" stroke="#63b8ff" points="141.5,-104.78 145,-114.78 148.5,-104.78 141.5,-104.78"/>
</a>
</g>
</g>
</g>
</svg>
