<?xml version="1.0" encoding="UTF-8" standalone="no"?>
<!DOCTYPE svg PUBLIC "-//W3C//DTD SVG 1.1//EN"
 "http://www.w3.org/Graphics/SVG/1.1/DTD/svg11.dtd">
<!-- Generated by graphviz version 6.0.1 (20220911.1526)
 -->
<!-- Title: LlamaLibrary.libllama_libPINVOKE.Strings_size Pages: 1 -->
<svg width="667pt" height="27pt"
 viewBox="0.00 0.00 667.00 27.00" xmlns="http://www.w3.org/2000/svg" xmlns:xlink="http://www.w3.org/1999/xlink">
<g id="graph0" class="graph" transform="scale(1 1) rotate(0) translate(4 23)">
<title>LlamaLibrary.libllama_libPINVOKE.Strings_size</title>
<!-- Node1 -->
<g id="Node000001" class="node">
<title>Node1</title>
<g id="a_Node000001"><a xlink:title=" ">
<polygon fill="#999999" stroke="#666666" points="659,-19 435,-19 435,0 659,0 659,-19"/>
<text text-anchor="middle" x="547" y="-7" font-family="Helvetica,sans-Serif" font-size="10.00">LlamaLibrary.libllama_libPINVOKE.Strings_size</text>
</a>
</g>
</g>
<!-- Node2 -->
<g id="Node000002" class="node">
<title>Node2</title>
<g id="a_Node000002"><a xlink:href="$class_llama_library_1_1_strings.html#a3112fd30c106ab8499b63a98fd240049" xlink:title=" ">
<polygon fill="white" stroke="#666666" points="399,-19 272,-19 272,0 399,0 399,-19"/>
<text text-anchor="middle" x="335.5" y="-7" font-family="Helvetica,sans-Serif" font-size="10.00">LlamaLibrary.Strings.size</text>
</a>
</g>
</g>
<!-- Node1&#45;&gt;Node2 -->
<g id="edge1_Node000001_Node000002" class="edge">
<title>Node1&#45;&gt;Node2</title>
<g id="a_edge1_Node000001_Node000002"><a xlink:title=" ">
<path fill="none" stroke="#63b8ff" d="M424.81,-9.5C416,-9.5 407.34,-9.5 399.11,-9.5"/>
<polygon fill="#63b8ff" stroke="#63b8ff" points="424.81,-13 434.81,-9.5 424.81,-6 424.81,-13"/>
</a>
</g>
</g>
<!-- Node3 -->
<g id="Node000003" class="node">
<title>Node3</title>
<g id="a_Node000003"><a xlink:href="$class_llama_library_1_1_strings_1_1_strings_enumerator.html#a18cd24fe94c7ce8c61d06d6d4aeae032" xlink:title=" ">
<polygon fill="white" stroke="#666666" points="236,-19 0,-19 0,0 236,0 236,-19"/>
<text text-anchor="middle" x="118" y="-7" font-family="Helvetica,sans-Serif" font-size="10.00">LlamaLibrary.Strings.StringsEnumerator.MoveNext</text>
</a>
</g>
</g>
<!-- Node2&#45;&gt;Node3 -->
<g id="edge2_Node000002_Node000003" class="edge">
<title>Node2&#45;&gt;Node3</title>
<g id="a_edge2_Node000002_Node000003"><a xlink:title=" ">
<path fill="none" stroke="#63b8ff" d="M261.61,-9.5C253.36,-9.5 244.81,-9.5 236.17,-9.5"/>
<polygon fill="#63b8ff" stroke="#63b8ff" points="261.88,-13 271.88,-9.5 261.88,-6 261.88,-13"/>
</a>
</g>
</g>
</g>
</svg>
