<?xml version="1.0" encoding="UTF-8" standalone="no"?>
<!DOCTYPE svg PUBLIC "-//W3C//DTD SVG 1.1//EN"
 "http://www.w3.org/Graphics/SVG/1.1/DTD/svg11.dtd">
<!-- Generated by graphviz version 6.0.1 (20220911.1526)
 -->
<!-- Title: LlamaLibrary.FileWrapper.~FileWrapper Pages: 1 -->
<svg width="689pt" height="27pt"
 viewBox="0.00 0.00 689.00 27.00" xmlns="http://www.w3.org/2000/svg" xmlns:xlink="http://www.w3.org/1999/xlink">
<g id="graph0" class="graph" transform="scale(1 1) rotate(0) translate(4 23)">
<title>LlamaLibrary.FileWrapper.~FileWrapper</title>
<!-- Node1 -->
<g id="Node000001" class="node">
<title>Node1</title>
<g id="a_Node000001"><a xlink:title=" ">
<polygon fill="#999999" stroke="#666666" points="189,-19 0,-19 0,0 189,0 189,-19"/>
<text text-anchor="middle" x="94.5" y="-7" font-family="Helvetica,sans-Serif" font-size="10.00">LlamaLibrary.FileWrapper.~FileWrapper</text>
</a>
</g>
</g>
<!-- Node2 -->
<g id="Node000002" class="node">
<title>Node2</title>
<g id="a_Node000002"><a xlink:href="class_llama_library_1_1_file_wrapper.html#a70c8ce4da3687d67f536367b287f3ae2" target="_top" xlink:title=" ">
<polygon fill="white" stroke="#666666" points="391,-19 225,-19 225,0 391,0 391,-19"/>
<text text-anchor="middle" x="308" y="-7" font-family="Helvetica,sans-Serif" font-size="10.00">LlamaLibrary.FileWrapper.Dispose</text>
</a>
</g>
</g>
<!-- Node1&#45;&gt;Node2 -->
<g id="edge1_Node000001_Node000002" class="edge">
<title>Node1&#45;&gt;Node2</title>
<g id="a_edge1_Node000001_Node000002"><a xlink:title=" ">
<path fill="none" stroke="#63b8ff" d="M189.19,-9.5C197.67,-9.5 206.26,-9.5 214.73,-9.5"/>
<polygon fill="#63b8ff" stroke="#63b8ff" points="214.99,-13 224.99,-9.5 214.99,-6 214.99,-13"/>
</a>
</g>
</g>
<!-- Node3 -->
<g id="Node000003" class="node">
<title>Node3</title>
<g id="a_Node000003"><a xlink:href="class_llama_library_1_1libllama__lib_p_i_n_v_o_k_e.html#a82c131d58f0a21439b57bc9ede5a44da" target="_top" xlink:title=" ">
<polygon fill="white" stroke="#666666" points="681,-19 427,-19 427,0 681,0 681,-19"/>
<text text-anchor="middle" x="554" y="-7" font-family="Helvetica,sans-Serif" font-size="10.00">LlamaLibrary.libllama_libPINVOKE.delete_FileWrapper</text>
</a>
</g>
</g>
<!-- Node2&#45;&gt;Node3 -->
<g id="edge2_Node000002_Node000003" class="edge">
<title>Node2&#45;&gt;Node3</title>
<g id="a_edge2_Node000002_Node000003"><a xlink:title=" ">
<path fill="none" stroke="#63b8ff" d="M391.27,-9.5C399.52,-9.5 408.05,-9.5 416.67,-9.5"/>
<polygon fill="#63b8ff" stroke="#63b8ff" points="416.83,-13 426.83,-9.5 416.83,-6 416.83,-13"/>
</a>
</g>
</g>
</g>
</svg>
