<?xml version="1.0" encoding="UTF-8" standalone="no"?>
<!DOCTYPE svg PUBLIC "-//W3C//DTD SVG 1.1//EN"
 "http://www.w3.org/Graphics/SVG/1.1/DTD/svg11.dtd">
<!-- Generated by graphviz version 6.0.1 (20220911.1526)
 -->
<!-- Title: LlamaLibrary.StringsAndFloats.GetRange Pages: 1 -->
<svg width="553pt" height="101pt"
 viewBox="0.00 0.00 553.00 101.00" xmlns="http://www.w3.org/2000/svg" xmlns:xlink="http://www.w3.org/1999/xlink">
<g id="graph0" class="graph" transform="scale(1 1) rotate(0) translate(4 97)">
<title>LlamaLibrary.StringsAndFloats.GetRange</title>
<!-- Node1 -->
<g id="Node000001" class="node">
<title>Node1</title>
<g id="a_Node000001"><a xlink:title=" ">
<polygon fill="#999999" stroke="#666666" points="197,-56 0,-56 0,-37 197,-37 197,-56"/>
<text text-anchor="middle" x="98.5" y="-44" font-family="Helvetica,sans-Serif" font-size="10.00">LlamaLibrary.StringsAndFloats.GetRange</text>
</a>
</g>
</g>
<!-- Node2 -->
<g id="Node000002" class="node">
<title>Node2</title>
<g id="a_Node000002"><a xlink:href="$class_llama_library_1_1libllama__lib_p_i_n_v_o_k_e_1_1_s_w_i_g_pending_exception.html#a2718a73540850b42db7c89e9be3519ec" xlink:title=" ">
<polygon fill="white" stroke="#666666" points="545,-93 233,-93 233,-74 545,-74 545,-93"/>
<text text-anchor="middle" x="389" y="-81" font-family="Helvetica,sans-Serif" font-size="10.00">LlamaLibrary.libllama_libPINVOKE.SWIGPendingException.Retrieve</text>
</a>
</g>
</g>
<!-- Node1&#45;&gt;Node2 -->
<g id="edge1_Node000001_Node000002" class="edge">
<title>Node1&#45;&gt;Node2</title>
<g id="a_edge1_Node000001_Node000002"><a xlink:title=" ">
<path fill="none" stroke="#63b8ff" d="M163.96,-56.02C185.86,-59.16 210.48,-62.59 233,-65.5 252.22,-67.98 272.8,-70.48 292.48,-72.8"/>
<polygon fill="#63b8ff" stroke="#63b8ff" points="292.34,-76.31 302.68,-73.99 293.15,-69.35 292.34,-76.31"/>
</a>
</g>
</g>
<!-- Node3 -->
<g id="Node000003" class="node">
<title>Node3</title>
<g id="a_Node000003"><a xlink:href="$class_llama_library_1_1_strings_and_floats.html#a92bc039ff797723e95453a3e2614ebfc" xlink:title=" ">
<polygon fill="white" stroke="#666666" points="503,-56 275,-56 275,-37 503,-37 503,-56"/>
<text text-anchor="middle" x="389" y="-44" font-family="Helvetica,sans-Serif" font-size="10.00">LlamaLibrary.StringsAndFloats.StringsAndFloats</text>
</a>
</g>
</g>
<!-- Node1&#45;&gt;Node3 -->
<g id="edge2_Node000001_Node000003" class="edge">
<title>Node1&#45;&gt;Node3</title>
<g id="a_edge2_Node000001_Node000003"><a xlink:title=" ">
<path fill="none" stroke="#63b8ff" d="M197.17,-46.5C218.96,-46.5 242.33,-46.5 264.99,-46.5"/>
<polygon fill="#63b8ff" stroke="#63b8ff" points="265,-50 275,-46.5 265,-43 265,-50"/>
</a>
</g>
</g>
<!-- Node4 -->
<g id="Node000004" class="node">
<title>Node4</title>
<g id="a_Node000004"><a xlink:href="$class_llama_library_1_1libllama__lib_p_i_n_v_o_k_e.html#a9448620046296a0376294de7b558f243" xlink:title=" ">
<polygon fill="white" stroke="#666666" points="535.5,-19 242.5,-19 242.5,0 535.5,0 535.5,-19"/>
<text text-anchor="middle" x="389" y="-7" font-family="Helvetica,sans-Serif" font-size="10.00">LlamaLibrary.libllama_libPINVOKE.StringsAndFloats_GetRange</text>
</a>
</g>
</g>
<!-- Node1&#45;&gt;Node4 -->
<g id="edge3_Node000001_Node000004" class="edge">
<title>Node1&#45;&gt;Node4</title>
<g id="a_edge3_Node000001_Node000004"><a xlink:title=" ">
<path fill="none" stroke="#63b8ff" d="M168.77,-37C189.43,-34.21 212.12,-31.19 233,-28.5 254.24,-25.77 277.13,-22.91 298.63,-20.27"/>
<polygon fill="#63b8ff" stroke="#63b8ff" points="299.23,-23.72 308.73,-19.03 298.37,-16.77 299.23,-23.72"/>
</a>
</g>
</g>
</g>
</svg>
