<?xml version="1.0" encoding="UTF-8" standalone="no"?>
<!DOCTYPE svg PUBLIC "-//W3C//DTD SVG 1.1//EN"
 "http://www.w3.org/Graphics/SVG/1.1/DTD/svg11.dtd">
<!-- Generated by graphviz version 6.0.1 (20220911.1526)
 -->
<!-- Title: Assets.StyledLines.Runtime.DialogUtils.DialogManager.Start Pages: 1 -->
<!--zoomable 119 -->

<svg id="main" version="1.1" xmlns="http://www.w3.org/2000/svg" xmlns:xlink="http://www.w3.org/1999/xlink" xml:space="preserve" onload="init(evt)">
<style type="text/css"><![CDATA[
.node, .edge {opacity: 0.7;}
.node.selected, .edge.selected {opacity: 1;}
.edge:hover path { stroke: red; }
.edge:hover polygon { stroke: red; fill: red; }
]]></style>

<defs>
  <circle id="rim" cx="0" cy="0" r="7"/>
  <circle id="rim2" cx="0" cy="0" r="3.5"/>
  <g id="zoomPlus">
    <use xlink:href="#rim" fill="#404040"><set attributeName="fill" to="#808080" begin="zoomplus.mouseover" end="zoomplus.mouseout"/></use>
    <path d="M-4,0h8M0,-4v8" fill="none" stroke="white" stroke-width="1.5" pointer-events="none"/>
  </g>
  <g id="zoomMin">
    <use xlink:href="#rim" fill="#404040"><set attributeName="fill" to="#808080" begin="zoomminus.mouseover" end="zoomminus.mouseout"/></use>
    <path d="M-4,0h8" fill="none" stroke="white" stroke-width="1.5" pointer-events="none"/>
  </g>
  <g id="arrowUp" transform="translate(30 24)">
    <use xlink:href="#rim"/>
    <path pointer-events="none" fill="none" stroke="white" stroke-width="1.5" d="M0,-3.0v7 M-2.5,-0.5L0,-3.0L2.5,-0.5"/>
  </g>
  <g id="arrowRight" transform="rotate(90) translate(36 -43)">
    <use xlink:href="#rim"/>
    <path pointer-events="none" fill="none" stroke="white" stroke-width="1.5" d="M0,-3.0v7 M-2.5,-0.5L0,-3.0L2.5,-0.5"/>
  </g>
  <g id="arrowDown" transform="rotate(180) translate(-30 -48)">
    <use xlink:href="#rim"/>
    <path pointer-events="none" fill="none" stroke="white" stroke-width="1.5" d="M0,-3.0v7 M-2.5,-0.5L0,-3.0L2.5,-0.5"/>
  </g>
  <g id="arrowLeft" transform="rotate(270) translate(-36 17)">
    <use xlink:href="#rim"/>
    <path pointer-events="none" fill="none" stroke="white" stroke-width="1.5" d="M0,-3.0v7 M-2.5,-0.5L0,-3.0L2.5,-0.5"/>
  </g>
  <g id="resetDef">
    <use xlink:href="#rim2" fill="#404040"><set attributeName="fill" to="#808080" begin="reset.mouseover" end="reset.mouseout"/></use>
  </g>
</defs>
<script type="application/ecmascript">
var viewWidth = 1878;
var viewHeight = 119;
var sectionId = 'dynsection-13';
</script>
<script type="application/ecmascript" xlink:href="svg.min.js"/>
<svg id="graph" class="graph">
<g id="viewport">
<title>Assets.StyledLines.Runtime.DialogUtils.DialogManager.Start</title>
<!-- Node1 -->
<g id="Node000001" class="node">
<title>Node1</title>
<g id="a_Node000001"><a xlink:title="Called when the script starts; initializes the model controller, parses the dialog,...">
<polygon fill="#999999" stroke="#666666" points="281,-74 0,-74 0,-55 281,-55 281,-74"/>
<text text-anchor="middle" x="140.5" y="-62" font-family="Helvetica,sans-Serif" font-size="10.00">Assets.StyledLines.Runtime.DialogUtils.DialogManager.Start</text>
</a>
</g>
</g>
<!-- Node2 -->
<g id="Node000002" class="node">
<title>Node2</title>
<g id="a_Node000002"><a xlink:href="class_assets_1_1_styled_lines_1_1_runtime_1_1_dialog_utils_1_1_dialog_manager.html#a0f90821789d3d4f9fe1159cb9591bb55" target="_top" xlink:title="Ensures that each character has a TextMeshPro component for displaying dialog, creating one if necess...">
<polygon fill="white" stroke="#666666" points="697,-111 317,-111 317,-92 697,-92 697,-111"/>
<text text-anchor="middle" x="507" y="-99" font-family="Helvetica,sans-Serif" font-size="10.00">Assets.StyledLines.Runtime.DialogUtils.DialogManager.CreateTextMeshesIfMissing</text>
</a>
</g>
</g>
<!-- Node1&#45;&gt;Node2 -->
<g id="edge1_Node000001_Node000002" class="edge">
<title>Node1&#45;&gt;Node2</title>
<g id="a_edge1_Node000001_Node000002"><a xlink:title=" ">
<path fill="none" stroke="#63b8ff" d="M227.62,-74.05C256.07,-77.14 287.88,-80.54 317,-83.5 341.64,-86.01 368.1,-88.59 393.19,-91"/>
<polygon fill="#63b8ff" stroke="#63b8ff" points="393.19,-94.51 403.47,-91.98 393.85,-87.54 393.19,-94.51"/>
</a>
</g>
</g>
<!-- Node4 -->
<g id="Node000004" class="node">
<title>Node4</title>
<g id="a_Node000004"><a xlink:href="class_assets_1_1_styled_lines_1_1_runtime_1_1_dialog_utils_1_1_dialog_manager.html#ab340ac66153bf61473e645a07bcd5004" target="_top" xlink:title="Parses the dialog text into individual lines based on a specific format.">
<polygon fill="white" stroke="#666666" points="663.5,-74 350.5,-74 350.5,-55 663.5,-55 663.5,-74"/>
<text text-anchor="middle" x="507" y="-62" font-family="Helvetica,sans-Serif" font-size="10.00">Assets.StyledLines.Runtime.DialogUtils.DialogManager.ParseDialog</text>
</a>
</g>
</g>
<!-- Node1&#45;&gt;Node4 -->
<g id="edge3_Node000001_Node000004" class="edge">
<title>Node1&#45;&gt;Node4</title>
<g id="a_edge3_Node000001_Node000004"><a xlink:title=" ">
<path fill="none" stroke="#63b8ff" d="M281.12,-64.5C300.37,-64.5 320.28,-64.5 339.94,-64.5"/>
<polygon fill="#63b8ff" stroke="#63b8ff" points="340.2,-68 350.2,-64.5 340.2,-61 340.2,-68"/>
</a>
</g>
</g>
<!-- Node5 -->
<g id="Node000005" class="node">
<title>Node5</title>
<g id="a_Node000005"><a xlink:href="class_assets_1_1_styled_lines_1_1_runtime_1_1_dialog_utils_1_1_dialog_manager.html#a38b321d8b3be72540eab19e2617352b5" target="_top" xlink:title="Starts the dialog sequence, setting the initial index and activating the dialog.">
<polygon fill="white" stroke="#666666" points="661,-37 353,-37 353,-18 661,-18 661,-37"/>
<text text-anchor="middle" x="507" y="-25" font-family="Helvetica,sans-Serif" font-size="10.00">Assets.StyledLines.Runtime.DialogUtils.DialogManager.StartDialog</text>
</a>
</g>
</g>
<!-- Node1&#45;&gt;Node5 -->
<g id="edge4_Node000001_Node000005" class="edge">
<title>Node1&#45;&gt;Node5</title>
<g id="a_edge4_Node000001_Node000005"><a xlink:title=" ">
<path fill="none" stroke="#63b8ff" d="M233.94,-54.98C260.74,-52.23 290.03,-49.24 317,-46.5 344.18,-43.74 373.55,-40.78 400.86,-38.03"/>
<polygon fill="#63b8ff" stroke="#63b8ff" points="401.22,-41.51 410.82,-37.03 400.52,-34.55 401.22,-41.51"/>
</a>
</g>
</g>
<!-- Node3 -->
<g id="Node000003" class="node">
<title>Node3</title>
<g id="a_Node000003"><a xlink:href="class_assets_1_1_styled_lines_1_1_runtime_1_1_dialog_utils_1_1_dialog_manager.html#a01743290b7a89762910df46dc02b3902" target="_top" xlink:title="Calculates the combined bounds of all renderers in a character&#39;s GameObject.">
<polygon fill="white" stroke="#666666" points="1086,-111 733,-111 733,-92 1086,-92 1086,-111"/>
<text text-anchor="middle" x="909.5" y="-99" font-family="Helvetica,sans-Serif" font-size="10.00">Assets.StyledLines.Runtime.DialogUtils.DialogManager.GetCombinedBounds</text>
</a>
</g>
</g>
<!-- Node2&#45;&gt;Node3 -->
<g id="edge2_Node000002_Node000003" class="edge">
<title>Node2&#45;&gt;Node3</title>
<g id="a_edge2_Node000002_Node000003"><a xlink:title=" ">
<path fill="none" stroke="#63b8ff" d="M697.11,-101.5C705.7,-101.5 714.31,-101.5 722.89,-101.5"/>
<polygon fill="#63b8ff" stroke="#63b8ff" points="722.95,-105 732.95,-101.5 722.95,-98 722.95,-105"/>
</a>
</g>
</g>
<!-- Node6 -->
<g id="Node000006" class="node">
<title>Node6</title>
<g id="a_Node000006"><a xlink:href="class_assets_1_1_styled_lines_1_1_runtime_1_1_dialog_utils_1_1_dialog_manager.html#a5f8f765bf2bba39f00acbfe9d5adab95" target="_top" xlink:title="Coroutine that displays the next line of dialog, handles looping, and manages the dialog&#39;s progressio...">
<polygon fill="white" stroke="#666666" points="1071,-37 748,-37 748,-18 1071,-18 1071,-37"/>
<text text-anchor="middle" x="909.5" y="-25" font-family="Helvetica,sans-Serif" font-size="10.00">Assets.StyledLines.Runtime.DialogUtils.DialogManager.ShowNextLine</text>
</a>
</g>
</g>
<!-- Node5&#45;&gt;Node6 -->
<g id="edge5_Node000005_Node000006" class="edge">
<title>Node5&#45;&gt;Node6</title>
<g id="a_edge5_Node000005_Node000006"><a xlink:title=" ">
<path fill="none" stroke="#63b8ff" d="M661.13,-27.5C686.18,-27.5 712.27,-27.5 737.72,-27.5"/>
<polygon fill="#63b8ff" stroke="#63b8ff" points="737.81,-31 747.81,-27.5 737.81,-24 737.81,-31"/>
</a>
</g>
</g>
<!-- Node7 -->
<g id="Node000007" class="node">
<title>Node7</title>
<g id="a_Node000007"><a xlink:href="class_assets_1_1_styled_lines_1_1_runtime_1_1_llama_infrence_unity_1_1_model_controller.html#af61c777c48182d3bec3f6c1dd3d36e8c" target="_top" xlink:title="Static method to extract the first part of a string up to a specified stop text. If the stop text is ...">
<polygon fill="white" stroke="#666666" points="1490,-56 1122,-56 1122,-37 1490,-37 1490,-56"/>
<text text-anchor="middle" x="1306" y="-44" font-family="Helvetica,sans-Serif" font-size="10.00">Assets.StyledLines.Runtime.LlamaInfrenceUnity.ModelController.ExtractFirstPart</text>
</a>
</g>
</g>
<!-- Node6&#45;&gt;Node7 -->
<g id="edge6_Node000006_Node000007" class="edge">
<title>Node6&#45;&gt;Node7</title>
<g id="a_edge6_Node000006_Node000007"><a xlink:title=" ">
<path fill="none" stroke="#63b8ff" d="M1071.24,-35.24C1084.49,-35.88 1097.97,-36.53 1111.43,-37.18"/>
<polygon fill="#63b8ff" stroke="#63b8ff" points="1111.55,-40.69 1121.71,-37.67 1111.89,-33.7 1111.55,-40.69"/>
</a>
</g>
</g>
<!-- Node8 -->
<g id="Node000008" class="node">
<title>Node8</title>
<g id="a_Node000008"><a xlink:href="class_assets_1_1_styled_lines_1_1_runtime_1_1_dialog_utils_1_1_dialog_manager.html#abf6ab9ac1cd1f285dbaf97aa03fba779" target="_top" xlink:title="Displays the specified text on the character&#39;s TextMeshPro component.">
<polygon fill="white" stroke="#666666" points="1457.5,-19 1154.5,-19 1154.5,0 1457.5,0 1457.5,-19"/>
<text text-anchor="middle" x="1306" y="-7" font-family="Helvetica,sans-Serif" font-size="10.00">Assets.StyledLines.Runtime.DialogUtils.DialogManager.ShowText</text>
</a>
</g>
</g>
<!-- Node6&#45;&gt;Node8 -->
<g id="edge7_Node000006_Node000008" class="edge">
<title>Node6&#45;&gt;Node8</title>
<g id="a_edge7_Node000006_Node000008"><a xlink:title=" ">
<path fill="none" stroke="#63b8ff" d="M1071.24,-20.17C1095.31,-19.07 1120.12,-17.94 1144.19,-16.84"/>
<polygon fill="#63b8ff" stroke="#63b8ff" points="1144.62,-20.32 1154.45,-16.37 1144.3,-13.33 1144.62,-20.32"/>
</a>
</g>
</g>
<!-- Node9 -->
<g id="Node000009" class="node">
<title>Node9</title>
<g id="a_Node000009"><a xlink:href="class_assets_1_1_styled_lines_1_1_runtime_1_1_dialog_utils_1_1_dialog_manager.html#a47b62c096fbeba9ef026ca70ab0cea25" target="_top" xlink:title="Coroutine that hides the text by clearing it after a specified delay.">
<polygon fill="white" stroke="#666666" points="1870,-19 1526,-19 1526,0 1870,0 1870,-19"/>
<text text-anchor="middle" x="1698" y="-7" font-family="Helvetica,sans-Serif" font-size="10.00">Assets.StyledLines.Runtime.DialogUtils.DialogManager.HideTextAfterDelay</text>
</a>
</g>
</g>
<!-- Node8&#45;&gt;Node9 -->
<g id="edge8_Node000008_Node000009" class="edge">
<title>Node8&#45;&gt;Node9</title>
<g id="a_edge8_Node000008_Node000009"><a xlink:title=" ">
<path fill="none" stroke="#63b8ff" d="M1457.51,-9.5C1476.59,-9.5 1496.28,-9.5 1515.78,-9.5"/>
<polygon fill="#63b8ff" stroke="#63b8ff" points="1515.95,-13 1525.95,-9.5 1515.95,-6 1515.95,-13"/>
</a>
</g>
</g>
</g>
</svg>

<g id="navigator" transform="translate(0 0)" fill="#404254">
  <rect fill="#f2f5e9" fill-opacity="0.5" stroke="#606060" stroke-width=".5" x="0" y="0" width="60" height="60"/>
  <use id="zoomplus" xlink:href="#zoomPlus" x="17" y="9" onmousedown="handleZoom(evt,'in')"/>
  <use id="zoomminus" xlink:href="#zoomMin" x="42" y="9" onmousedown="handleZoom(evt,'out')"/>
  <use id="reset" xlink:href="#resetDef" x="30" y="36" onmousedown="handleReset()"/>
   <use id="arrowup" xlink:href="#arrowUp" x="0" y="0" onmousedown="handlePan(0,-1)"/>
  <use id="arrowright" xlink:href="#arrowRight" x="0" y="0" onmousedown="handlePan(1,0)"/>
  <use id="arrowdown" xlink:href="#arrowDown" x="0" y="0" onmousedown="handlePan(0,1)"/>
  <use id="arrowleft" xlink:href="#arrowLeft" x="0" y="0" onmousedown="handlePan(-1,0)"/>
</g>
<svg viewBox="0 0 15 15" width="100%" height="30px" preserveAspectRatio="xMaxYMin meet">
 <g id="arrow_out" transform="scale(0.3 0.3)">
  <a xlink:href="class_assets_1_1_styled_lines_1_1_runtime_1_1_dialog_utils_1_1_dialog_manager_ab96fbfc2e535bb4e1a20307702926a9b_cgraph_org.svg" target="_base">
   <rect id="button" ry="5" rx="5" y="6" x="6" height="38" width="38"
        fill="#f2f5e9" fill-opacity="0.5" stroke="#606060" stroke-width="1.0"/>
   <path id="arrow"
     d="M 11.500037,31.436501 C 11.940474,20.09759 22.043105,11.32322 32.158766,21.979434 L 37.068811,17.246167 C 37.068811,17.246167 37.088388,32 37.088388,32 L 22.160133,31.978069 C 22.160133,31.978069 26.997745,27.140456 26.997745,27.140456 C 18.528582,18.264221 13.291696,25.230495 11.500037,31.436501 z"
     style="fill:#404040;"/>
  </a>
 </g>
</svg>

<style type='text/css'>
<![CDATA[
[data-mouse-over-selected='false'] { opacity: 0.7; }
[data-mouse-over-selected='true']  { opacity: 1.0; }
]]>
</style>
<script type="application/ecmascript"><![CDATA[
document.addEventListener('DOMContentLoaded', (event) => {
  highlightEdges();
  highlightAdjacentNodes();
});
]]></script>
</svg>
