<?xml version="1.0" encoding="UTF-8" standalone="no"?>
<!DOCTYPE svg PUBLIC "-//W3C//DTD SVG 1.1//EN"
 "http://www.w3.org/Graphics/SVG/1.1/DTD/svg11.dtd">
<!-- Generated by graphviz version 6.0.1 (20220911.1526)
 -->
<!-- Title: Assets.StyledLines.Runtime.LlamaInfrenceUnity.RunModelAsync.Generate Pages: 1 -->
<svg width="986pt" height="64pt"
 viewBox="0.00 0.00 986.00 64.00" xmlns="http://www.w3.org/2000/svg" xmlns:xlink="http://www.w3.org/1999/xlink">
<g id="graph0" class="graph" transform="scale(1 1) rotate(0) translate(4 60)">
<title>Assets.StyledLines.Runtime.LlamaInfrenceUnity.RunModelAsync.Generate</title>
<!-- Node1 -->
<g id="Node000001" class="node">
<title>Node1</title>
<g id="a_Node000001"><a xlink:title="Method to start the asynchronous generation process. Triggers the necessary state changes and handles...">
<polygon fill="#999999" stroke="#666666" points="343,-37 0,-37 0,-18 343,-18 343,-37"/>
<text text-anchor="middle" x="171.5" y="-25" font-family="Helvetica,sans-Serif" font-size="10.00">Assets.StyledLines.Runtime.LlamaInfrenceUnity.RunModelAsync.Generate</text>
</a>
</g>
</g>
<!-- Node2 -->
<g id="Node000002" class="node">
<title>Node2</title>
<g id="a_Node000002"><a xlink:href="$class_llama_library_1_1_async_llama_infrence.html#ae80455f9b59fac152fa35e01470fd8d1" xlink:title=" ">
<polygon fill="white" stroke="#666666" points="612,-37 379,-37 379,-18 612,-18 612,-37"/>
<text text-anchor="middle" x="495.5" y="-25" font-family="Helvetica,sans-Serif" font-size="10.00">LlamaLibrary.AsyncLlamaInfrence.GenerateAsync</text>
</a>
</g>
</g>
<!-- Node1&#45;&gt;Node2 -->
<g id="edge1_Node000001_Node000002" class="edge">
<title>Node1&#45;&gt;Node2</title>
<g id="a_edge1_Node000001_Node000002"><a xlink:title=" ">
<path fill="none" stroke="#63b8ff" d="M343.4,-27.5C351.85,-27.5 360.27,-27.5 368.56,-27.5"/>
<polygon fill="#63b8ff" stroke="#63b8ff" points="368.6,-31 378.6,-27.5 368.6,-24 368.6,-31"/>
</a>
</g>
</g>
<!-- Node3 -->
<g id="Node000003" class="node">
<title>Node3</title>
<g id="a_Node000003"><a xlink:href="$class_llama_library_1_1libllama__lib_p_i_n_v_o_k_e.html#af55b1afde0c97563b362f3a6df224c4e" xlink:title=" ">
<polygon fill="white" stroke="#666666" points="978,-56 648,-56 648,-37 978,-37 978,-56"/>
<text text-anchor="middle" x="813" y="-44" font-family="Helvetica,sans-Serif" font-size="10.00">LlamaLibrary.libllama_libPINVOKE.AsyncLlamaInfrence_GenerateAsync</text>
</a>
</g>
</g>
<!-- Node2&#45;&gt;Node3 -->
<g id="edge2_Node000002_Node000003" class="edge">
<title>Node2&#45;&gt;Node3</title>
<g id="a_edge2_Node000002_Node000003"><a xlink:title=" ">
<path fill="none" stroke="#63b8ff" d="M612.19,-34.47C622.52,-35.09 633.11,-35.73 643.76,-36.37"/>
<polygon fill="#63b8ff" stroke="#63b8ff" points="643.79,-39.88 653.98,-36.98 644.21,-32.89 643.79,-39.88"/>
</a>
</g>
</g>
<!-- Node4 -->
<g id="Node000004" class="node">
<title>Node4</title>
<g id="a_Node000004"><a xlink:href="$class_llama_library_1_1libllama__lib_p_i_n_v_o_k_e_1_1_s_w_i_g_pending_exception.html#a2718a73540850b42db7c89e9be3519ec" xlink:title=" ">
<polygon fill="white" stroke="#666666" points="969,-19 657,-19 657,0 969,0 969,-19"/>
<text text-anchor="middle" x="813" y="-7" font-family="Helvetica,sans-Serif" font-size="10.00">LlamaLibrary.libllama_libPINVOKE.SWIGPendingException.Retrieve</text>
</a>
</g>
</g>
<!-- Node2&#45;&gt;Node4 -->
<g id="edge3_Node000002_Node000004" class="edge">
<title>Node2&#45;&gt;Node4</title>
<g id="a_edge3_Node000002_Node000004"><a xlink:title=" ">
<path fill="none" stroke="#63b8ff" d="M612.19,-20.9C623.48,-20.26 635.08,-19.59 646.73,-18.93"/>
<polygon fill="#63b8ff" stroke="#63b8ff" points="647.2,-22.41 656.98,-18.34 646.8,-15.42 647.2,-22.41"/>
</a>
</g>
</g>
</g>
</svg>
