<?xml version="1.0" encoding="UTF-8" standalone="no"?>
<!DOCTYPE svg PUBLIC "-//W3C//DTD SVG 1.1//EN"
 "http://www.w3.org/Graphics/SVG/1.1/DTD/svg11.dtd">
<!-- Generated by graphviz version 6.0.1 (20220911.1526)
 -->
<!-- Title: LlamaLibrary.Strings.getCPtr Pages: 1 -->
<svg width="347pt" height="101pt"
 viewBox="0.00 0.00 347.00 101.00" xmlns="http://www.w3.org/2000/svg" xmlns:xlink="http://www.w3.org/1999/xlink">
<g id="graph0" class="graph" transform="scale(1 1) rotate(0) translate(4 97)">
<title>LlamaLibrary.Strings.getCPtr</title>
<!-- Node1 -->
<g id="Node000001" class="node">
<title>Node1</title>
<g id="a_Node000001"><a xlink:title=" ">
<polygon fill="#999999" stroke="#666666" points="339,-56 197,-56 197,-37 339,-37 339,-56"/>
<text text-anchor="middle" x="268" y="-44" font-family="Helvetica,sans-Serif" font-size="10.00">LlamaLibrary.Strings.getCPtr</text>
</a>
</g>
</g>
<!-- Node2 -->
<g id="Node000002" class="node">
<title>Node2</title>
<g id="a_Node000002"><a xlink:href="class_llama_library_1_1_strings.html#aac25da136097b3971ac9a136a27f9407" target="_top" xlink:title=" ">
<polygon fill="white" stroke="#666666" points="157.5,-93 3.5,-93 3.5,-74 157.5,-74 157.5,-93"/>
<text text-anchor="middle" x="80.5" y="-81" font-family="Helvetica,sans-Serif" font-size="10.00">LlamaLibrary.Strings.AddRange</text>
</a>
</g>
</g>
<!-- Node1&#45;&gt;Node2 -->
<g id="edge1_Node000001_Node000002" class="edge">
<title>Node1&#45;&gt;Node2</title>
<g id="a_edge1_Node000001_Node000002"><a xlink:title=" ">
<path fill="none" stroke="#63b8ff" d="M209.26,-58.02C183.63,-63.13 153.81,-69.08 129.43,-73.94"/>
<polygon fill="#63b8ff" stroke="#63b8ff" points="210.11,-61.42 219.23,-56.03 208.74,-54.55 210.11,-61.42"/>
</a>
</g>
</g>
<!-- Node3 -->
<g id="Node000003" class="node">
<title>Node3</title>
<g id="a_Node000003"><a xlink:href="class_llama_library_1_1_strings.html#a7c31ce77764ca62c1eb9195101d8ff6e" target="_top" xlink:title=" ">
<polygon fill="white" stroke="#666666" points="161,-56 0,-56 0,-37 161,-37 161,-56"/>
<text text-anchor="middle" x="80.5" y="-44" font-family="Helvetica,sans-Serif" font-size="10.00">LlamaLibrary.Strings.InsertRange</text>
</a>
</g>
</g>
<!-- Node1&#45;&gt;Node3 -->
<g id="edge2_Node000001_Node000003" class="edge">
<title>Node1&#45;&gt;Node3</title>
<g id="a_edge2_Node000001_Node000003"><a xlink:title=" ">
<path fill="none" stroke="#63b8ff" d="M186.62,-46.5C178.14,-46.5 169.52,-46.5 161.06,-46.5"/>
<polygon fill="#63b8ff" stroke="#63b8ff" points="186.87,-50 196.87,-46.5 186.87,-43 186.87,-50"/>
</a>
</g>
</g>
<!-- Node4 -->
<g id="Node000004" class="node">
<title>Node4</title>
<g id="a_Node000004"><a xlink:href="class_llama_library_1_1_strings.html#a66179f53610dc3816b9d8e09cd2aba1a" target="_top" xlink:title=" ">
<polygon fill="white" stroke="#666666" points="156.5,-19 4.5,-19 4.5,0 156.5,0 156.5,-19"/>
<text text-anchor="middle" x="80.5" y="-7" font-family="Helvetica,sans-Serif" font-size="10.00">LlamaLibrary.Strings.SetRange</text>
</a>
</g>
</g>
<!-- Node1&#45;&gt;Node4 -->
<g id="edge3_Node000001_Node000004" class="edge">
<title>Node1&#45;&gt;Node4</title>
<g id="a_edge3_Node000001_Node000004"><a xlink:title=" ">
<path fill="none" stroke="#63b8ff" d="M209.26,-34.98C183.63,-29.87 153.81,-23.92 129.43,-19.06"/>
<polygon fill="#63b8ff" stroke="#63b8ff" points="208.74,-38.45 219.23,-36.97 210.11,-31.58 208.74,-38.45"/>
</a>
</g>
</g>
</g>
</svg>
