<?xml version="1.0" encoding="UTF-8" standalone="no"?>
<!DOCTYPE svg PUBLIC "-//W3C//DTD SVG 1.1//EN"
 "http://www.w3.org/Graphics/SVG/1.1/DTD/svg11.dtd">
<!-- Generated by graphviz version 6.0.1 (20220911.1526)
 -->
<!-- Title: LlamaLibrary.StringsAndFloats.CopyTo Pages: 1 -->
<svg width="784pt" height="64pt"
 viewBox="0.00 0.00 784.00 64.00" xmlns="http://www.w3.org/2000/svg" xmlns:xlink="http://www.w3.org/1999/xlink">
<g id="graph0" class="graph" transform="scale(1 1) rotate(0) translate(4 60)">
<title>LlamaLibrary.StringsAndFloats.CopyTo</title>
<!-- Node1 -->
<g id="Node000001" class="node">
<title>Node1</title>
<g id="a_Node000001"><a xlink:title=" ">
<polygon fill="#999999" stroke="#666666" points="186,-37 0,-37 0,-18 186,-18 186,-37"/>
<text text-anchor="middle" x="93" y="-25" font-family="Helvetica,sans-Serif" font-size="10.00">LlamaLibrary.StringsAndFloats.CopyTo</text>
</a>
</g>
</g>
<!-- Node2 -->
<g id="Node000002" class="node">
<title>Node2</title>
<g id="a_Node000002"><a xlink:href="class_llama_library_1_1_strings_and_floats.html#a478bf56290e849a87be47623bb0f1599" target="_top" xlink:title=" ">
<polygon fill="white" stroke="#666666" points="428,-37 222,-37 222,-18 428,-18 428,-37"/>
<text text-anchor="middle" x="325" y="-25" font-family="Helvetica,sans-Serif" font-size="10.00">LlamaLibrary.StringsAndFloats.getitemcopy</text>
</a>
</g>
</g>
<!-- Node1&#45;&gt;Node2 -->
<g id="edge1_Node000001_Node000002" class="edge">
<title>Node1&#45;&gt;Node2</title>
<g id="a_edge1_Node000001_Node000002"><a xlink:title=" ">
<path fill="none" stroke="#63b8ff" d="M186.22,-27.5C194.67,-27.5 203.28,-27.5 211.88,-27.5"/>
<polygon fill="#63b8ff" stroke="#63b8ff" points="211.94,-31 221.94,-27.5 211.94,-24 211.94,-31"/>
</a>
</g>
</g>
<!-- Node3 -->
<g id="Node000003" class="node">
<title>Node3</title>
<g id="a_Node000003"><a xlink:href="class_llama_library_1_1libllama__lib_p_i_n_v_o_k_e_1_1_s_w_i_g_pending_exception.html#a2718a73540850b42db7c89e9be3519ec" target="_top" xlink:title=" ">
<polygon fill="white" stroke="#666666" points="776,-56 464,-56 464,-37 776,-37 776,-56"/>
<text text-anchor="middle" x="620" y="-44" font-family="Helvetica,sans-Serif" font-size="10.00">LlamaLibrary.libllama_libPINVOKE.SWIGPendingException.Retrieve</text>
</a>
</g>
</g>
<!-- Node2&#45;&gt;Node3 -->
<g id="edge2_Node000002_Node000003" class="edge">
<title>Node2&#45;&gt;Node3</title>
<g id="a_edge2_Node000002_Node000003"><a xlink:title=" ">
<path fill="none" stroke="#63b8ff" d="M428.07,-34.12C439.18,-34.84 450.67,-35.58 462.24,-36.33"/>
<polygon fill="#63b8ff" stroke="#63b8ff" points="462.23,-39.84 472.43,-37 462.68,-32.86 462.23,-39.84"/>
</a>
</g>
</g>
<!-- Node4 -->
<g id="Node000004" class="node">
<title>Node4</title>
<g id="a_Node000004"><a xlink:href="class_llama_library_1_1libllama__lib_p_i_n_v_o_k_e.html#a0ca0f8c389ea2829f42579bd677514c3" target="_top" xlink:title=" ">
<polygon fill="white" stroke="#666666" points="771.5,-19 468.5,-19 468.5,0 771.5,0 771.5,-19"/>
<text text-anchor="middle" x="620" y="-7" font-family="Helvetica,sans-Serif" font-size="10.00">LlamaLibrary.libllama_libPINVOKE.StringsAndFloats_getitemcopy</text>
</a>
</g>
</g>
<!-- Node2&#45;&gt;Node4 -->
<g id="edge3_Node000002_Node000004" class="edge">
<title>Node2&#45;&gt;Node4</title>
<g id="a_edge3_Node000002_Node000004"><a xlink:title=" ">
<path fill="none" stroke="#63b8ff" d="M428.07,-21.23C437.85,-20.63 447.93,-20.01 458.1,-19.38"/>
<polygon fill="#63b8ff" stroke="#63b8ff" points="458.53,-22.87 468.29,-18.76 458.1,-15.88 458.53,-22.87"/>
</a>
</g>
</g>
</g>
</svg>
