<?xml version="1.0" encoding="UTF-8" standalone="no"?>
<!DOCTYPE svg PUBLIC "-//W3C//DTD SVG 1.1//EN"
 "http://www.w3.org/Graphics/SVG/1.1/DTD/svg11.dtd">
<!-- Generated by graphviz version 6.0.1 (20220911.1526)
 -->
<!-- Title: LlamaLibrary.Int32s.getCPtr Pages: 1 -->
<svg width="337pt" height="101pt"
 viewBox="0.00 0.00 337.00 101.00" xmlns="http://www.w3.org/2000/svg" xmlns:xlink="http://www.w3.org/1999/xlink">
<g id="graph0" class="graph" transform="scale(1 1) rotate(0) translate(4 97)">
<title>LlamaLibrary.Int32s.getCPtr</title>
<!-- Node1 -->
<g id="Node000001" class="node">
<title>Node1</title>
<g id="a_Node000001"><a xlink:title=" ">
<polygon fill="#999999" stroke="#666666" points="329,-56 192,-56 192,-37 329,-37 329,-56"/>
<text text-anchor="middle" x="260.5" y="-44" font-family="Helvetica,sans-Serif" font-size="10.00">LlamaLibrary.Int32s.getCPtr</text>
</a>
</g>
</g>
<!-- Node2 -->
<g id="Node000002" class="node">
<title>Node2</title>
<g id="a_Node000002"><a xlink:href="class_llama_library_1_1_int32s.html#a00f82b3d4455f377c690db3e37b33981" target="_top" xlink:title=" ">
<polygon fill="white" stroke="#666666" points="152.5,-93 3.5,-93 3.5,-74 152.5,-74 152.5,-93"/>
<text text-anchor="middle" x="78" y="-81" font-family="Helvetica,sans-Serif" font-size="10.00">LlamaLibrary.Int32s.AddRange</text>
</a>
</g>
</g>
<!-- Node1&#45;&gt;Node2 -->
<g id="edge1_Node000001_Node000002" class="edge">
<title>Node1&#45;&gt;Node2</title>
<g id="a_edge1_Node000001_Node000002"><a xlink:title=" ">
<path fill="none" stroke="#63b8ff" d="M202.99,-58.08C178.12,-63.18 149.26,-69.1 125.64,-73.94"/>
<polygon fill="#63b8ff" stroke="#63b8ff" points="203.92,-61.47 213.02,-56.03 202.52,-54.61 203.92,-61.47"/>
</a>
</g>
</g>
<!-- Node3 -->
<g id="Node000003" class="node">
<title>Node3</title>
<g id="a_Node000003"><a xlink:href="class_llama_library_1_1_int32s.html#ac5d80eaedafc1ba04cacdcb5adabb54d" target="_top" xlink:title=" ">
<polygon fill="white" stroke="#666666" points="156,-56 0,-56 0,-37 156,-37 156,-56"/>
<text text-anchor="middle" x="78" y="-44" font-family="Helvetica,sans-Serif" font-size="10.00">LlamaLibrary.Int32s.InsertRange</text>
</a>
</g>
</g>
<!-- Node1&#45;&gt;Node3 -->
<g id="edge2_Node000001_Node000003" class="edge">
<title>Node1&#45;&gt;Node3</title>
<g id="a_edge2_Node000001_Node000003"><a xlink:title=" ">
<path fill="none" stroke="#63b8ff" d="M181.6,-46.5C173.18,-46.5 164.62,-46.5 156.21,-46.5"/>
<polygon fill="#63b8ff" stroke="#63b8ff" points="181.77,-50 191.77,-46.5 181.77,-43 181.77,-50"/>
</a>
</g>
</g>
<!-- Node4 -->
<g id="Node000004" class="node">
<title>Node4</title>
<g id="a_Node000004"><a xlink:href="class_llama_library_1_1_int32s.html#a0d78a51bedc0202da6e98205bf92ec4d" target="_top" xlink:title=" ">
<polygon fill="white" stroke="#666666" points="151.5,-19 4.5,-19 4.5,0 151.5,0 151.5,-19"/>
<text text-anchor="middle" x="78" y="-7" font-family="Helvetica,sans-Serif" font-size="10.00">LlamaLibrary.Int32s.SetRange</text>
</a>
</g>
</g>
<!-- Node1&#45;&gt;Node4 -->
<g id="edge3_Node000001_Node000004" class="edge">
<title>Node1&#45;&gt;Node4</title>
<g id="a_edge3_Node000001_Node000004"><a xlink:title=" ">
<path fill="none" stroke="#63b8ff" d="M202.99,-34.92C178.12,-29.82 149.26,-23.9 125.64,-19.06"/>
<polygon fill="#63b8ff" stroke="#63b8ff" points="202.52,-38.39 213.02,-36.97 203.92,-31.53 202.52,-38.39"/>
</a>
</g>
</g>
</g>
</svg>
