<?xml version="1.0" encoding="UTF-8" standalone="no"?>
<!DOCTYPE svg PUBLIC "-//W3C//DTD SVG 1.1//EN"
 "http://www.w3.org/Graphics/SVG/1.1/DTD/svg11.dtd">
<!-- Generated by graphviz version 6.0.1 (20220911.1526)
 -->
<!-- Title: LlamaLibrary.LlamaControlVectorLoadInfos.LlamaControlVectorLoadInfos Pages: 1 -->
<svg width="624pt" height="64pt"
 viewBox="0.00 0.00 624.00 64.00" xmlns="http://www.w3.org/2000/svg" xmlns:xlink="http://www.w3.org/1999/xlink">
<g id="graph0" class="graph" transform="scale(1 1) rotate(0) translate(4 60)">
<title>LlamaLibrary.LlamaControlVectorLoadInfos.LlamaControlVectorLoadInfos</title>
<!-- Node1 -->
<g id="Node000001" class="node">
<title>Node1</title>
<g id="a_Node000001"><a xlink:title=" ">
<polygon fill="#999999" stroke="#666666" points="616,-37 284,-37 284,-18 616,-18 616,-37"/>
<text text-anchor="middle" x="450" y="-25" font-family="Helvetica,sans-Serif" font-size="10.00">LlamaLibrary.LlamaControlVectorLoadInfos.LlamaControlVectorLoadInfos</text>
</a>
</g>
</g>
<!-- Node2 -->
<g id="Node000002" class="node">
<title>Node2</title>
<g id="a_Node000002"><a xlink:href="class_llama_library_1_1_llama_control_vector_load_infos.html#a857e3ab77e92cae2721e490a473b3f63" target="_top" xlink:title=" ">
<polygon fill="white" stroke="#666666" points="248,-56 0,-56 0,-37 248,-37 248,-56"/>
<text text-anchor="middle" x="124" y="-44" font-family="Helvetica,sans-Serif" font-size="10.00">LlamaLibrary.LlamaControlVectorLoadInfos.GetRange</text>
</a>
</g>
</g>
<!-- Node1&#45;&gt;Node2 -->
<g id="edge1_Node000001_Node000002" class="edge">
<title>Node1&#45;&gt;Node2</title>
<g id="a_edge1_Node000001_Node000002"><a xlink:title=" ">
<path fill="none" stroke="#63b8ff" d="M276.52,-37.61C266.93,-38.18 257.38,-38.74 248.03,-39.29"/>
<polygon fill="#63b8ff" stroke="#63b8ff" points="276.75,-41.11 286.53,-37.03 276.34,-34.12 276.75,-41.11"/>
</a>
</g>
</g>
<!-- Node3 -->
<g id="Node000003" class="node">
<title>Node3</title>
<g id="a_Node000003"><a xlink:href="class_llama_library_1_1_llama_control_vector_load_infos.html#a029f9ef01bfc12784fafa66f8c8ad473" target="_top" xlink:title=" ">
<polygon fill="white" stroke="#666666" points="242,-19 6,-19 6,0 242,0 242,-19"/>
<text text-anchor="middle" x="124" y="-7" font-family="Helvetica,sans-Serif" font-size="10.00">LlamaLibrary.LlamaControlVectorLoadInfos.Repeat</text>
</a>
</g>
</g>
<!-- Node1&#45;&gt;Node3 -->
<g id="edge2_Node000001_Node000003" class="edge">
<title>Node1&#45;&gt;Node3</title>
<g id="a_edge2_Node000001_Node000003"><a xlink:title=" ">
<path fill="none" stroke="#63b8ff" d="M273.49,-17.75C262.88,-17.16 252.35,-16.57 242.08,-16"/>
<polygon fill="#63b8ff" stroke="#63b8ff" points="273.5,-21.26 283.68,-18.32 273.89,-14.27 273.5,-21.26"/>
</a>
</g>
</g>
</g>
</svg>
