<?xml version="1.0" encoding="UTF-8" standalone="no"?>
<!DOCTYPE svg PUBLIC "-//W3C//DTD SVG 1.1//EN"
 "http://www.w3.org/Graphics/SVG/1.1/DTD/svg11.dtd">
<!-- Generated by graphviz version 6.0.1 (20220911.1526)
 -->
<!-- Title: LlamaLibrary.StringsAndFloats.AddRange Pages: 1 -->
<svg width="554pt" height="101pt"
 viewBox="0.00 0.00 554.00 101.00" xmlns="http://www.w3.org/2000/svg" xmlns:xlink="http://www.w3.org/1999/xlink">
<g id="graph0" class="graph" transform="scale(1 1) rotate(0) translate(4 97)">
<title>LlamaLibrary.StringsAndFloats.AddRange</title>
<!-- Node1 -->
<g id="Node000001" class="node">
<title>Node1</title>
<g id="a_Node000001"><a xlink:title=" ">
<polygon fill="#999999" stroke="#666666" points="198,-56 0,-56 0,-37 198,-37 198,-56"/>
<text text-anchor="middle" x="99" y="-44" font-family="Helvetica,sans-Serif" font-size="10.00">LlamaLibrary.StringsAndFloats.AddRange</text>
</a>
</g>
</g>
<!-- Node2 -->
<g id="Node000002" class="node">
<title>Node2</title>
<g id="a_Node000002"><a xlink:href="$class_llama_library_1_1_strings_and_floats.html#a87d81ca3abf338223215702b83893985" xlink:title=" ">
<polygon fill="white" stroke="#666666" points="483,-93 297,-93 297,-74 483,-74 483,-93"/>
<text text-anchor="middle" x="390" y="-81" font-family="Helvetica,sans-Serif" font-size="10.00">LlamaLibrary.StringsAndFloats.getCPtr</text>
</a>
</g>
</g>
<!-- Node1&#45;&gt;Node2 -->
<g id="edge1_Node000001_Node000002" class="edge">
<title>Node1&#45;&gt;Node2</title>
<g id="a_edge1_Node000001_Node000002"><a xlink:title=" ">
<path fill="none" stroke="#63b8ff" d="M164.7,-56.01C186.68,-59.15 211.4,-62.59 234,-65.5 253.22,-67.98 273.8,-70.48 293.48,-72.79"/>
<polygon fill="#63b8ff" stroke="#63b8ff" points="293.34,-76.3 303.68,-73.98 294.15,-69.35 293.34,-76.3"/>
</a>
</g>
</g>
<!-- Node3 -->
<g id="Node000003" class="node">
<title>Node3</title>
<g id="a_Node000003"><a xlink:href="$class_llama_library_1_1libllama__lib_p_i_n_v_o_k_e_1_1_s_w_i_g_pending_exception.html#a2718a73540850b42db7c89e9be3519ec" xlink:title=" ">
<polygon fill="white" stroke="#666666" points="546,-56 234,-56 234,-37 546,-37 546,-56"/>
<text text-anchor="middle" x="390" y="-44" font-family="Helvetica,sans-Serif" font-size="10.00">LlamaLibrary.libllama_libPINVOKE.SWIGPendingException.Retrieve</text>
</a>
</g>
</g>
<!-- Node1&#45;&gt;Node3 -->
<g id="edge2_Node000001_Node000003" class="edge">
<title>Node1&#45;&gt;Node3</title>
<g id="a_edge2_Node000001_Node000003"><a xlink:title=" ">
<path fill="none" stroke="#63b8ff" d="M198.25,-46.5C206.54,-46.5 215.06,-46.5 223.68,-46.5"/>
<polygon fill="#63b8ff" stroke="#63b8ff" points="223.83,-50 233.83,-46.5 223.83,-43 223.83,-50"/>
</a>
</g>
</g>
<!-- Node4 -->
<g id="Node000004" class="node">
<title>Node4</title>
<g id="a_Node000004"><a xlink:href="$class_llama_library_1_1libllama__lib_p_i_n_v_o_k_e.html#a752a260f0536e47c8f8dcd44039b2d6f" xlink:title=" ">
<polygon fill="white" stroke="#666666" points="537.5,-19 242.5,-19 242.5,0 537.5,0 537.5,-19"/>
<text text-anchor="middle" x="390" y="-7" font-family="Helvetica,sans-Serif" font-size="10.00">LlamaLibrary.libllama_libPINVOKE.StringsAndFloats_AddRange</text>
</a>
</g>
</g>
<!-- Node1&#45;&gt;Node4 -->
<g id="edge3_Node000001_Node000004" class="edge">
<title>Node1&#45;&gt;Node4</title>
<g id="a_edge3_Node000001_Node000004"><a xlink:title=" ">
<path fill="none" stroke="#63b8ff" d="M169.87,-36.96C190.52,-34.18 213.16,-31.18 234,-28.5 255.24,-25.77 278.13,-22.92 299.63,-20.28"/>
<polygon fill="#63b8ff" stroke="#63b8ff" points="300.23,-23.73 309.73,-19.04 299.38,-16.78 300.23,-23.73"/>
</a>
</g>
</g>
</g>
</svg>
