<?xml version="1.0" encoding="UTF-8" standalone="no"?>
<!DOCTYPE svg PUBLIC "-//W3C//DTD SVG 1.1//EN"
 "http://www.w3.org/Graphics/SVG/1.1/DTD/svg11.dtd">
<!-- Generated by graphviz version 6.0.1 (20220911.1526)
 -->
<!-- Title: LlamaLibrary.Strings.CopyTo Pages: 1 -->
<svg width="696pt" height="64pt"
 viewBox="0.00 0.00 696.00 64.00" xmlns="http://www.w3.org/2000/svg" xmlns:xlink="http://www.w3.org/1999/xlink">
<g id="graph0" class="graph" transform="scale(1 1) rotate(0) translate(4 60)">
<title>LlamaLibrary.Strings.CopyTo</title>
<!-- Node1 -->
<g id="Node000001" class="node">
<title>Node1</title>
<g id="a_Node000001"><a xlink:title=" ">
<polygon fill="#999999" stroke="#666666" points="142,-37 0,-37 0,-18 142,-18 142,-37"/>
<text text-anchor="middle" x="71" y="-25" font-family="Helvetica,sans-Serif" font-size="10.00">LlamaLibrary.Strings.CopyTo</text>
</a>
</g>
</g>
<!-- Node2 -->
<g id="Node000002" class="node">
<title>Node2</title>
<g id="a_Node000002"><a xlink:href="$class_llama_library_1_1_strings.html#a37c9322b6043ca72040bc29d444f02e8" xlink:title=" ">
<polygon fill="white" stroke="#666666" points="340,-37 178,-37 178,-18 340,-18 340,-37"/>
<text text-anchor="middle" x="259" y="-25" font-family="Helvetica,sans-Serif" font-size="10.00">LlamaLibrary.Strings.getitemcopy</text>
</a>
</g>
</g>
<!-- Node1&#45;&gt;Node2 -->
<g id="edge1_Node000001_Node000002" class="edge">
<title>Node1&#45;&gt;Node2</title>
<g id="a_edge1_Node000001_Node000002"><a xlink:title=" ">
<path fill="none" stroke="#63b8ff" d="M142.05,-27.5C150.42,-27.5 159.05,-27.5 167.64,-27.5"/>
<polygon fill="#63b8ff" stroke="#63b8ff" points="167.7,-31 177.7,-27.5 167.7,-24 167.7,-31"/>
</a>
</g>
</g>
<!-- Node3 -->
<g id="Node000003" class="node">
<title>Node3</title>
<g id="a_Node000003"><a xlink:href="$class_llama_library_1_1libllama__lib_p_i_n_v_o_k_e_1_1_s_w_i_g_pending_exception.html#a2718a73540850b42db7c89e9be3519ec" xlink:title=" ">
<polygon fill="white" stroke="#666666" points="688,-56 376,-56 376,-37 688,-37 688,-56"/>
<text text-anchor="middle" x="532" y="-44" font-family="Helvetica,sans-Serif" font-size="10.00">LlamaLibrary.libllama_libPINVOKE.SWIGPendingException.Retrieve</text>
</a>
</g>
</g>
<!-- Node2&#45;&gt;Node3 -->
<g id="edge2_Node000002_Node000003" class="edge">
<title>Node2&#45;&gt;Node3</title>
<g id="a_edge2_Node000002_Node000003"><a xlink:title=" ">
<path fill="none" stroke="#63b8ff" d="M340.21,-33.12C354.48,-34.12 369.75,-35.19 385.19,-36.28"/>
<polygon fill="#63b8ff" stroke="#63b8ff" points="385.14,-39.78 395.36,-36.99 385.63,-32.8 385.14,-39.78"/>
</a>
</g>
</g>
<!-- Node4 -->
<g id="Node000004" class="node">
<title>Node4</title>
<g id="a_Node000004"><a xlink:href="$class_llama_library_1_1libllama__lib_p_i_n_v_o_k_e.html#ade604cae7d2397b3eea4827806905e1c" xlink:title=" ">
<polygon fill="white" stroke="#666666" points="661.5,-19 402.5,-19 402.5,0 661.5,0 661.5,-19"/>
<text text-anchor="middle" x="532" y="-7" font-family="Helvetica,sans-Serif" font-size="10.00">LlamaLibrary.libllama_libPINVOKE.Strings_getitemcopy</text>
</a>
</g>
</g>
<!-- Node2&#45;&gt;Node4 -->
<g id="edge3_Node000002_Node000004" class="edge">
<title>Node2&#45;&gt;Node4</title>
<g id="a_edge3_Node000002_Node000004"><a xlink:title=" ">
<path fill="none" stroke="#63b8ff" d="M340.21,-22.17C356.58,-21.08 374.26,-19.91 392.01,-18.73"/>
<polygon fill="#63b8ff" stroke="#63b8ff" points="392.72,-22.19 402.46,-18.04 392.25,-15.21 392.72,-22.19"/>
</a>
</g>
</g>
</g>
</svg>
