<?xml version="1.0" encoding="UTF-8" standalone="no"?>
<!DOCTYPE svg PUBLIC "-//W3C//DTD SVG 1.1//EN"
 "http://www.w3.org/Graphics/SVG/1.1/DTD/svg11.dtd">
<!-- Generated by graphviz version 6.0.1 (20220911.1526)
 -->
<!-- Title: LlamaLibrary.Strings.CopyTo Pages: 1 -->
<svg width="329pt" height="64pt"
 viewBox="0.00 0.00 329.00 64.00" xmlns="http://www.w3.org/2000/svg" xmlns:xlink="http://www.w3.org/1999/xlink">
<g id="graph0" class="graph" transform="scale(1 1) rotate(0) translate(4 60)">
<title>LlamaLibrary.Strings.CopyTo</title>
<!-- Node1 -->
<g id="Node000001" class="node">
<title>Node1</title>
<g id="a_Node000001"><a xlink:title=" ">
<polygon fill="#999999" stroke="#666666" points="321,-37 179,-37 179,-18 321,-18 321,-37"/>
<text text-anchor="middle" x="250" y="-25" font-family="Helvetica,sans-Serif" font-size="10.00">LlamaLibrary.Strings.CopyTo</text>
</a>
</g>
</g>
<!-- Node1&#45;&gt;Node1 -->
<g id="edge1_Node000001_Node000001" class="edge">
<title>Node1&#45;&gt;Node1</title>
<g id="a_edge1_Node000001_Node000001"><a xlink:title=" ">
<path fill="none" stroke="#63b8ff" d="M283.4,-45.45C282.45,-50.82 271.32,-55 250,-55 218.27,-55 209.1,-45.73 222.49,-37.08"/>
<polygon fill="#63b8ff" stroke="#63b8ff" points="286.13,-43.24 277.51,-37.08 280.41,-47.27 286.13,-43.24"/>
</a>
</g>
</g>
<!-- Node2 -->
<g id="Node000002" class="node">
<title>Node2</title>
<g id="a_Node000002"><a xlink:href="class_llama_library_1_1_strings.html#acae97bc0ab3edcaffb3ed1ffb93d47e1" target="_top" xlink:title=" ">
<polygon fill="white" stroke="#666666" points="142.5,-56 0.5,-56 0.5,-37 142.5,-37 142.5,-56"/>
<text text-anchor="middle" x="71.5" y="-44" font-family="Helvetica,sans-Serif" font-size="10.00">LlamaLibrary.Strings.CopyTo</text>
</a>
</g>
</g>
<!-- Node1&#45;&gt;Node2 -->
<g id="edge2_Node000001_Node000002" class="edge">
<title>Node1&#45;&gt;Node2</title>
<g id="a_edge2_Node000001_Node000002"><a xlink:title=" ">
<path fill="none" stroke="#63b8ff" d="M168.83,-36.13C160.12,-37.07 151.3,-38.02 142.72,-38.94"/>
<polygon fill="#63b8ff" stroke="#63b8ff" points="169.42,-39.59 178.99,-35.04 168.67,-32.63 169.42,-39.59"/>
</a>
</g>
</g>
<!-- Node3 -->
<g id="Node000003" class="node">
<title>Node3</title>
<g id="a_Node000003"><a xlink:href="class_llama_library_1_1_strings.html#aa7dad8f7ab3ee6e5473d36858d808fcb" target="_top" xlink:title=" ">
<polygon fill="white" stroke="#666666" points="143,-19 0,-19 0,0 143,0 143,-19"/>
<text text-anchor="middle" x="71.5" y="-7" font-family="Helvetica,sans-Serif" font-size="10.00">LlamaLibrary.Strings.ToArray</text>
</a>
</g>
</g>
<!-- Node1&#45;&gt;Node3 -->
<g id="edge3_Node000001_Node000003" class="edge">
<title>Node1&#45;&gt;Node3</title>
<g id="a_edge3_Node000001_Node000003"><a xlink:title=" ">
<path fill="none" stroke="#63b8ff" d="M168.91,-19.33C160.27,-18.45 151.52,-17.56 143,-16.69"/>
<polygon fill="#63b8ff" stroke="#63b8ff" points="168.69,-22.83 178.99,-20.36 169.4,-15.86 168.69,-22.83"/>
</a>
</g>
</g>
</g>
</svg>
