<?xml version="1.0" encoding="UTF-8" standalone="no"?>
<!DOCTYPE svg PUBLIC "-//W3C//DTD SVG 1.1//EN"
 "http://www.w3.org/Graphics/SVG/1.1/DTD/svg11.dtd">
<!-- Generated by graphviz version 6.0.1 (20220911.1526)
 -->
<!-- Title: LlamaLibrary.LlamaControlVectorLoadInfos.CopyTo Pages: 1 -->
<svg width="521pt" height="64pt"
 viewBox="0.00 0.00 521.00 64.00" xmlns="http://www.w3.org/2000/svg" xmlns:xlink="http://www.w3.org/1999/xlink">
<g id="graph0" class="graph" transform="scale(1 1) rotate(0) translate(4 60)">
<title>LlamaLibrary.LlamaControlVectorLoadInfos.CopyTo</title>
<!-- Node1 -->
<g id="Node000001" class="node">
<title>Node1</title>
<g id="a_Node000001"><a xlink:title=" ">
<polygon fill="#999999" stroke="#666666" points="513,-37 275,-37 275,-18 513,-18 513,-37"/>
<text text-anchor="middle" x="394" y="-25" font-family="Helvetica,sans-Serif" font-size="10.00">LlamaLibrary.LlamaControlVectorLoadInfos.CopyTo</text>
</a>
</g>
</g>
<!-- Node1&#45;&gt;Node1 -->
<g id="edge1_Node000001_Node000001" class="edge">
<title>Node1&#45;&gt;Node1</title>
<g id="a_edge1_Node000001_Node000001"><a xlink:title=" ">
<path fill="none" stroke="#63b8ff" d="M444.84,-42.74C449.06,-49.34 432.12,-55 394,-55 345.21,-55 331.11,-45.73 351.69,-37.08"/>
<polygon fill="#63b8ff" stroke="#63b8ff" points="446.58,-39.7 436.31,-37.08 442.7,-45.53 446.58,-39.7"/>
</a>
</g>
</g>
<!-- Node2 -->
<g id="Node000002" class="node">
<title>Node2</title>
<g id="a_Node000002"><a xlink:href="$class_llama_library_1_1_llama_control_vector_load_infos.html#a32763590e9a5738508428c8a451f6a87" xlink:title=" ">
<polygon fill="white" stroke="#666666" points="238.5,-56 0.5,-56 0.5,-37 238.5,-37 238.5,-56"/>
<text text-anchor="middle" x="119.5" y="-44" font-family="Helvetica,sans-Serif" font-size="10.00">LlamaLibrary.LlamaControlVectorLoadInfos.CopyTo</text>
</a>
</g>
</g>
<!-- Node1&#45;&gt;Node2 -->
<g id="edge2_Node000001_Node000002" class="edge">
<title>Node1&#45;&gt;Node2</title>
<g id="a_edge2_Node000001_Node000002"><a xlink:title=" ">
<path fill="none" stroke="#63b8ff" d="M264.57,-36.45C255.95,-37.06 247.28,-37.66 238.72,-38.26"/>
<polygon fill="#63b8ff" stroke="#63b8ff" points="264.93,-39.94 274.67,-35.75 264.45,-32.95 264.93,-39.94"/>
</a>
</g>
</g>
<!-- Node3 -->
<g id="Node000003" class="node">
<title>Node3</title>
<g id="a_Node000003"><a xlink:href="$class_llama_library_1_1_llama_control_vector_load_infos.html#a6e23bb661c037fd4cad614afa1aabfff" xlink:title=" ">
<polygon fill="white" stroke="#666666" points="239,-19 0,-19 0,0 239,0 239,-19"/>
<text text-anchor="middle" x="119.5" y="-7" font-family="Helvetica,sans-Serif" font-size="10.00">LlamaLibrary.LlamaControlVectorLoadInfos.ToArray</text>
</a>
</g>
</g>
<!-- Node1&#45;&gt;Node3 -->
<g id="edge3_Node000001_Node000003" class="edge">
<title>Node1&#45;&gt;Node3</title>
<g id="a_edge3_Node000001_Node000003"><a xlink:title=" ">
<path fill="none" stroke="#63b8ff" d="M264.42,-19.01C255.99,-18.45 247.52,-17.89 239.15,-17.34"/>
<polygon fill="#63b8ff" stroke="#63b8ff" points="264.46,-22.52 274.67,-19.68 264.92,-15.53 264.46,-22.52"/>
</a>
</g>
</g>
</g>
</svg>
