<?xml version="1.0" encoding="UTF-8" standalone="no"?>
<!DOCTYPE svg PUBLIC "-//W3C//DTD SVG 1.1//EN"
 "http://www.w3.org/Graphics/SVG/1.1/DTD/svg11.dtd">
<!-- Generated by graphviz version 6.0.1 (20220911.1526)
 -->
<!-- Title: LlamaLibrary.StringsAndFloats Pages: 1 -->
<svg width="756pt" height="738pt"
 viewBox="0.00 0.00 755.50 738.00" xmlns="http://www.w3.org/2000/svg" xmlns:xlink="http://www.w3.org/1999/xlink">
<g id="graph0" class="graph" transform="scale(1 1) rotate(0) translate(4 734)">
<title>LlamaLibrary.StringsAndFloats</title>
<!-- Node1 -->
<g id="Node000001" class="node">
<title>Node1</title>
<g id="a_Node000001"><a xlink:title=" ">
<polygon fill="#999999" stroke="none" points="709,-634 25,-634 25,0 709,0 709,-634"/>
<text text-anchor="start" x="300" y="-622" font-family="Helvetica,sans-Serif" font-size="10.00">LlamaLibrary.StringsAndFloats</text>
<text text-anchor="start" x="29" y="-607" font-family="Helvetica,sans-Serif" font-size="10.00">+</text>
<text text-anchor="start" x="40" y="-607" font-family="Helvetica,sans-Serif" font-size="10.00">int Capacity</text>
<text text-anchor="start" x="29" y="-592" font-family="Helvetica,sans-Serif" font-size="10.00">+</text>
<text text-anchor="start" x="40" y="-592" font-family="Helvetica,sans-Serif" font-size="10.00">int Count</text>
<text text-anchor="start" x="29" y="-577" font-family="Helvetica,sans-Serif" font-size="10.00">+</text>
<text text-anchor="start" x="40" y="-577" font-family="Helvetica,sans-Serif" font-size="10.00">bool IsFixedSize</text>
<text text-anchor="start" x="29" y="-562" font-family="Helvetica,sans-Serif" font-size="10.00">+</text>
<text text-anchor="start" x="40" y="-562" font-family="Helvetica,sans-Serif" font-size="10.00">bool IsReadOnly</text>
<text text-anchor="start" x="29" y="-547" font-family="Helvetica,sans-Serif" font-size="10.00">+</text>
<text text-anchor="start" x="40" y="-547" font-family="Helvetica,sans-Serif" font-size="10.00">bool IsSynchronized</text>
<text text-anchor="start" x="29" y="-532" font-family="Helvetica,sans-Serif" font-size="10.00">+</text>
<text text-anchor="start" x="40" y="-532" font-family="Helvetica,sans-Serif" font-size="10.00">StringAndFloat this[int index]</text>
<text text-anchor="start" x="29.5" y="-517" font-family="Helvetica,sans-Serif" font-size="10.00">#</text>
<text text-anchor="start" x="40" y="-517" font-family="Helvetica,sans-Serif" font-size="10.00">bool swigCMemOwn</text>
<text text-anchor="start" x="29" y="-502" font-family="Helvetica,sans-Serif" font-size="10.00">+</text>
<text text-anchor="start" x="40" y="-502" font-family="Helvetica,sans-Serif" font-size="10.00">void Add(StringAndFloat x)</text>
<text text-anchor="start" x="29" y="-487" font-family="Helvetica,sans-Serif" font-size="10.00">+</text>
<text text-anchor="start" x="40" y="-487" font-family="Helvetica,sans-Serif" font-size="10.00">void AddRange(StringsAndFloats values)</text>
<text text-anchor="start" x="29" y="-472" font-family="Helvetica,sans-Serif" font-size="10.00">+</text>
<text text-anchor="start" x="40" y="-472" font-family="Helvetica,sans-Serif" font-size="10.00">void Clear()</text>
<text text-anchor="start" x="29" y="-457" font-family="Helvetica,sans-Serif" font-size="10.00">+</text>
<text text-anchor="start" x="40" y="-457" font-family="Helvetica,sans-Serif" font-size="10.00">void CopyTo(int index, StringAndFloat[] array, int arrayIndex, int count)</text>
<text text-anchor="start" x="29" y="-442" font-family="Helvetica,sans-Serif" font-size="10.00">+</text>
<text text-anchor="start" x="40" y="-442" font-family="Helvetica,sans-Serif" font-size="10.00">void CopyTo(StringAndFloat[] array)</text>
<text text-anchor="start" x="29" y="-427" font-family="Helvetica,sans-Serif" font-size="10.00">+</text>
<text text-anchor="start" x="40" y="-427" font-family="Helvetica,sans-Serif" font-size="10.00">void CopyTo(StringAndFloat[] array, int arrayIndex)</text>
<text text-anchor="start" x="29" y="-412" font-family="Helvetica,sans-Serif" font-size="10.00">+</text>
<text text-anchor="start" x="40" y="-412" font-family="Helvetica,sans-Serif" font-size="10.00">virtual void Dispose()</text>
<text text-anchor="start" x="29" y="-397" font-family="Helvetica,sans-Serif" font-size="10.00">+</text>
<text text-anchor="start" x="40" y="-397" font-family="Helvetica,sans-Serif" font-size="10.00">StringsAndFloatsEnumerator GetEnumerator()</text>
<text text-anchor="start" x="29" y="-382" font-family="Helvetica,sans-Serif" font-size="10.00">+</text>
<text text-anchor="start" x="40" y="-382" font-family="Helvetica,sans-Serif" font-size="10.00">StringsAndFloats GetRange(int index, int count)</text>
<text text-anchor="start" x="29" y="-367" font-family="Helvetica,sans-Serif" font-size="10.00">+</text>
<text text-anchor="start" x="40" y="-367" font-family="Helvetica,sans-Serif" font-size="10.00">void Insert(int index, StringAndFloat x)</text>
<text text-anchor="start" x="29" y="-352" font-family="Helvetica,sans-Serif" font-size="10.00">+</text>
<text text-anchor="start" x="40" y="-352" font-family="Helvetica,sans-Serif" font-size="10.00">void InsertRange(int index, StringsAndFloats values)</text>
<text text-anchor="start" x="29" y="-337" font-family="Helvetica,sans-Serif" font-size="10.00">+</text>
<text text-anchor="start" x="40" y="-337" font-family="Helvetica,sans-Serif" font-size="10.00">void RemoveAt(int index)</text>
<text text-anchor="start" x="29" y="-322" font-family="Helvetica,sans-Serif" font-size="10.00">+</text>
<text text-anchor="start" x="40" y="-322" font-family="Helvetica,sans-Serif" font-size="10.00">void RemoveRange(int index, int count)</text>
<text text-anchor="start" x="29" y="-307" font-family="Helvetica,sans-Serif" font-size="10.00">+</text>
<text text-anchor="start" x="40" y="-307" font-family="Helvetica,sans-Serif" font-size="10.00">void Reverse()</text>
<text text-anchor="start" x="29" y="-292" font-family="Helvetica,sans-Serif" font-size="10.00">+</text>
<text text-anchor="start" x="40" y="-292" font-family="Helvetica,sans-Serif" font-size="10.00">void Reverse(int index, int count)</text>
<text text-anchor="start" x="29" y="-277" font-family="Helvetica,sans-Serif" font-size="10.00">+</text>
<text text-anchor="start" x="40" y="-277" font-family="Helvetica,sans-Serif" font-size="10.00">void SetRange(int index, StringsAndFloats values)</text>
<text text-anchor="start" x="29" y="-262" font-family="Helvetica,sans-Serif" font-size="10.00">+</text>
<text text-anchor="start" x="40" y="-262" font-family="Helvetica,sans-Serif" font-size="10.00">StringsAndFloats()</text>
<text text-anchor="start" x="29" y="-247" font-family="Helvetica,sans-Serif" font-size="10.00">+</text>
<text text-anchor="start" x="40" y="-247" font-family="Helvetica,sans-Serif" font-size="10.00">StringsAndFloats(global::System.Collections.Generic.IEnumerable&lt; StringAndFloat &gt; c)</text>
<text text-anchor="start" x="29" y="-232" font-family="Helvetica,sans-Serif" font-size="10.00">+</text>
<text text-anchor="start" x="40" y="-232" font-family="Helvetica,sans-Serif" font-size="10.00">StringsAndFloats(global::System.Collections.IEnumerable c)</text>
<text text-anchor="start" x="29" y="-217" font-family="Helvetica,sans-Serif" font-size="10.00">+</text>
<text text-anchor="start" x="40" y="-217" font-family="Helvetica,sans-Serif" font-size="10.00">StringsAndFloats(int capacity)</text>
<text text-anchor="start" x="29" y="-202" font-family="Helvetica,sans-Serif" font-size="10.00">+</text>
<text text-anchor="start" x="40" y="-202" font-family="Helvetica,sans-Serif" font-size="10.00">StringsAndFloats(StringsAndFloats other)</text>
<text text-anchor="start" x="29" y="-187" font-family="Helvetica,sans-Serif" font-size="10.00">+</text>
<text text-anchor="start" x="40" y="-187" font-family="Helvetica,sans-Serif" font-size="10.00">StringAndFloat[] ToArray()</text>
<text text-anchor="start" x="29" y="-172" font-family="Helvetica,sans-Serif" font-size="10.00">+</text>
<text text-anchor="start" x="40" y="-172" font-family="Helvetica,sans-Serif" font-size="10.00">static StringsAndFloats Repeat(StringAndFloat value, int count)</text>
<text text-anchor="start" x="29" y="-157" font-family="Helvetica,sans-Serif" font-size="10.00">~</text>
<text text-anchor="start" x="40" y="-157" font-family="Helvetica,sans-Serif" font-size="10.00">StringsAndFloats(global::System.IntPtr cPtr, bool cMemoryOwn)</text>
<text text-anchor="start" x="29" y="-142" font-family="Helvetica,sans-Serif" font-size="10.00">~</text>
<text text-anchor="start" x="40" y="-142" font-family="Helvetica,sans-Serif" font-size="10.00">static global::System.Runtime.InteropServices.HandleRef getCPtr(StringsAndFloats obj)</text>
<text text-anchor="start" x="30.5" y="-127" font-family="Helvetica,sans-Serif" font-size="10.00">&#45;</text>
<text text-anchor="start" x="40" y="-127" font-family="Helvetica,sans-Serif" font-size="10.00">uint capacity()</text>
<text text-anchor="start" x="30.5" y="-112" font-family="Helvetica,sans-Serif" font-size="10.00">&#45;</text>
<text text-anchor="start" x="40" y="-112" font-family="Helvetica,sans-Serif" font-size="10.00">global::System.Collections.Generic.IEnumerator&lt; StringAndFloat &gt; global::System.Collections.Generic.IEnumerable&lt; StringAndFloat &gt;. GetEnumerator()</text>
<text text-anchor="start" x="30.5" y="-97" font-family="Helvetica,sans-Serif" font-size="10.00">&#45;</text>
<text text-anchor="start" x="40" y="-97" font-family="Helvetica,sans-Serif" font-size="10.00">global::System.Collections.IEnumerator global::System.Collections.IEnumerable. GetEnumerator()</text>
<text text-anchor="start" x="30.5" y="-82" font-family="Helvetica,sans-Serif" font-size="10.00">&#45;</text>
<text text-anchor="start" x="40" y="-82" font-family="Helvetica,sans-Serif" font-size="10.00">StringAndFloat getitem(int index)</text>
<text text-anchor="start" x="30.5" y="-67" font-family="Helvetica,sans-Serif" font-size="10.00">&#45;</text>
<text text-anchor="start" x="40" y="-67" font-family="Helvetica,sans-Serif" font-size="10.00">StringAndFloat getitemcopy(int index)</text>
<text text-anchor="start" x="30.5" y="-52" font-family="Helvetica,sans-Serif" font-size="10.00">&#45;</text>
<text text-anchor="start" x="40" y="-52" font-family="Helvetica,sans-Serif" font-size="10.00">void reserve(uint n)</text>
<text text-anchor="start" x="30.5" y="-37" font-family="Helvetica,sans-Serif" font-size="10.00">&#45;</text>
<text text-anchor="start" x="40" y="-37" font-family="Helvetica,sans-Serif" font-size="10.00">void setitem(int index, StringAndFloat value)</text>
<text text-anchor="start" x="30.5" y="-22" font-family="Helvetica,sans-Serif" font-size="10.00">&#45;</text>
<text text-anchor="start" x="40" y="-22" font-family="Helvetica,sans-Serif" font-size="10.00">uint size()</text>
<text text-anchor="start" x="30.5" y="-7" font-family="Helvetica,sans-Serif" font-size="10.00">&#45;</text>
<text text-anchor="start" x="40" y="-7" font-family="Helvetica,sans-Serif" font-size="10.00">~StringsAndFloats()</text>
<polygon fill="#666666" stroke="#666666" points="25,-617 25,-617 709,-617 709,-617 25,-617"/>
<polygon fill="#666666" stroke="#666666" points="25,-512 25,-512 38,-512 38,-512 25,-512"/>
<polygon fill="#666666" stroke="#666666" points="38,-512 38,-512 709,-512 709,-512 38,-512"/>
<polygon fill="none" stroke="#666666" points="25,0 25,-634 709,-634 709,0 25,0"/>
</a>
</g>
</g>
<!-- Node2 -->
<g id="Node000002" class="node">
<title>Node2</title>
<g id="a_Node000002"><a xlink:title=" ">
<polygon fill="white" stroke="none" points="126,-730 0,-730 0,-681 126,-681 126,-730"/>
<text text-anchor="start" x="5" y="-717.5" font-family="Helvetica,sans-Serif" font-size="10.00">global::SystemIDisposable</text>
<text text-anchor="start" x="61" y="-702.5" font-family="Helvetica,sans-Serif" font-size="10.00"> </text>
<text text-anchor="start" x="61" y="-687.5" font-family="Helvetica,sans-Serif" font-size="10.00"> </text>
<polygon fill="#666666" stroke="#666666" points="0,-712.5 0,-712.5 126,-712.5 126,-712.5 0,-712.5"/>
<polygon fill="#666666" stroke="#666666" points="0,-697.5 0,-697.5 126,-697.5 126,-697.5 0,-697.5"/>
<polygon fill="none" stroke="#666666" points="0,-681 0,-730 126,-730 126,-681 0,-681"/>
</a>
</g>
</g>
<!-- Node2&#45;&gt;Node1 -->
<g id="edge1_Node000001_Node000002" class="edge">
<title>Node2&#45;&gt;Node1</title>
<g id="a_edge1_Node000001_Node000002"><a xlink:title=" ">
<path fill="none" stroke="#63b8ff" d="M87.97,-672.76C96.46,-661.96 106.77,-648.85 118.37,-634.11"/>
<polygon fill="none" stroke="#63b8ff" points="84.99,-670.88 81.56,-680.9 90.49,-675.21 84.99,-670.88"/>
</a>
</g>
</g>
<!-- Node3 -->
<g id="Node000003" class="node">
<title>Node3</title>
<g id="a_Node000003"><a xlink:title=" ">
<polygon fill="white" stroke="none" points="328,-730 144,-730 144,-681 328,-681 328,-730"/>
<text text-anchor="start" x="149" y="-717.5" font-family="Helvetica,sans-Serif" font-size="10.00">global::SystemCollections::IEnumerable</text>
<text text-anchor="start" x="234" y="-702.5" font-family="Helvetica,sans-Serif" font-size="10.00"> </text>
<text text-anchor="start" x="234" y="-687.5" font-family="Helvetica,sans-Serif" font-size="10.00"> </text>
<polygon fill="#666666" stroke="#666666" points="144,-712.5 144,-712.5 328,-712.5 328,-712.5 144,-712.5"/>
<polygon fill="#666666" stroke="#666666" points="144,-697.5 144,-697.5 328,-697.5 328,-697.5 144,-697.5"/>
<polygon fill="none" stroke="#666666" points="144,-681 144,-730 328,-730 328,-681 144,-681"/>
</a>
</g>
</g>
<!-- Node3&#45;&gt;Node1 -->
<g id="edge2_Node000001_Node000003" class="edge">
<title>Node3&#45;&gt;Node1</title>
<g id="a_edge2_Node000001_Node000003"><a xlink:title=" ">
<path fill="none" stroke="#63b8ff" d="M247.31,-671.14C250.86,-660.66 255.11,-648.12 259.86,-634.11"/>
<polygon fill="none" stroke="#63b8ff" points="243.89,-670.31 244,-680.9 250.52,-672.56 243.89,-670.31"/>
</a>
</g>
</g>
<!-- Node4 -->
<g id="Node000004" class="node">
<title>Node4</title>
<g id="a_Node000004"><a xlink:title=" ">
<polygon fill="white" stroke="none" points="652,-730 346,-730 346,-681 652,-681 652,-730"/>
<text text-anchor="start" x="351" y="-717.5" font-family="Helvetica,sans-Serif" font-size="10.00">global::SystemCollections::Generic::IEnumerable&lt; StringAndFloat &gt;</text>
<text text-anchor="start" x="497" y="-702.5" font-family="Helvetica,sans-Serif" font-size="10.00"> </text>
<text text-anchor="start" x="497" y="-687.5" font-family="Helvetica,sans-Serif" font-size="10.00"> </text>
<polygon fill="#666666" stroke="#666666" points="346,-712.5 346,-712.5 652,-712.5 652,-712.5 346,-712.5"/>
<polygon fill="#666666" stroke="#666666" points="346,-697.5 346,-697.5 652,-697.5 652,-697.5 346,-697.5"/>
<polygon fill="none" stroke="#666666" points="346,-681 346,-730 652,-730 652,-681 346,-681"/>
</a>
</g>
</g>
<!-- Node4&#45;&gt;Node1 -->
<g id="edge3_Node000001_Node000004" class="edge">
<title>Node4&#45;&gt;Node1</title>
<g id="a_edge3_Node000001_Node000004"><a xlink:title=" ">
<path fill="none" stroke="#63b8ff" d="M487.61,-671.14C484.03,-660.66 479.74,-648.12 474.96,-634.11"/>
<polygon fill="none" stroke="#63b8ff" points="484.4,-672.57 490.94,-680.9 491.02,-670.31 484.4,-672.57"/>
</a>
</g>
</g>
<!-- Node5 -->
<g id="Node000005" class="node">
<title>Node5</title>
<g id="a_Node000005"><a xlink:title=" ">
<polygon fill="white" stroke="none" points="747.5,-730 670.5,-730 670.5,-681 747.5,-681 747.5,-730"/>
<text text-anchor="start" x="676" y="-717.5" font-family="Helvetica,sans-Serif" font-size="10.00">InteropServices</text>
<text text-anchor="start" x="707.5" y="-702.5" font-family="Helvetica,sans-Serif" font-size="10.00"> </text>
<text text-anchor="start" x="707.5" y="-687.5" font-family="Helvetica,sans-Serif" font-size="10.00"> </text>
<polygon fill="#666666" stroke="#666666" points="671,-712.5 671,-712.5 748,-712.5 748,-712.5 671,-712.5"/>
<polygon fill="#666666" stroke="#666666" points="671,-697.5 671,-697.5 748,-697.5 748,-697.5 671,-697.5"/>
<polygon fill="none" stroke="#666666" points="670.5,-681 670.5,-730 747.5,-730 747.5,-681 670.5,-681"/>
</a>
</g>
</g>
<!-- Node5&#45;&gt;Node1 -->
<g id="edge4_Node000001_Node000005" class="edge">
<title>Node5&#45;&gt;Node1</title>
<g id="a_edge4_Node000001_Node000005"><a xlink:title=" ">
<path fill="none" stroke="#63b8ff" d="M688.12,-680.9C679.29,-670.93 668.03,-658.2 655.03,-643.5"/>
<polygon fill="none" stroke="#63b8ff" points="654.66,-643.09 647.69,-641.25 646.71,-634.11 653.68,-635.95 654.66,-643.09"/>
</a>
</g>
<text text-anchor="middle" x="689" y="-655" font-family="Helvetica,sans-Serif" font-size="10.00" fill="grey"> &#45;swigCPtr</text>
</g>
</g>
</svg>
