<?xml version="1.0" encoding="UTF-8" standalone="no"?>
<!DOCTYPE svg PUBLIC "-//W3C//DTD SVG 1.1//EN"
 "http://www.w3.org/Graphics/SVG/1.1/DTD/svg11.dtd">
<!-- Generated by graphviz version 6.0.1 (20220911.1526)
 -->
<!-- Title: DialogManager.Update Pages: 1 -->
<svg width="998pt" height="175pt"
 viewBox="0.00 0.00 998.00 175.00" xmlns="http://www.w3.org/2000/svg" xmlns:xlink="http://www.w3.org/1999/xlink">
<g id="graph0" class="graph" transform="scale(1 1) rotate(0) translate(4 171)">
<title>DialogManager.Update</title>
<!-- Node1 -->
<g id="Node000001" class="node">
<title>Node1</title>
<g id="a_Node000001"><a xlink:title="Called every frame; updates dialog progression and rotates text objects to face the camera.">
<polygon fill="#999999" stroke="#666666" points="115,-93 0,-93 0,-74 115,-74 115,-93"/>
<text text-anchor="middle" x="57.5" y="-81" font-family="Helvetica,sans-Serif" font-size="10.00">DialogManager.Update</text>
</a>
</g>
</g>
<!-- Node2 -->
<g id="Node000002" class="node">
<title>Node2</title>
<g id="a_Node000002"><a xlink:href="class_dialog_manager.html#a58ce81209f0fe6b90708dc9503bc97cd" target="_top" xlink:title="Coroutine that displays the next line of dialog, handles looping, and manages the dialog&#39;s progressio...">
<polygon fill="white" stroke="#666666" points="297,-93 151,-93 151,-74 297,-74 297,-93"/>
<text text-anchor="middle" x="224" y="-81" font-family="Helvetica,sans-Serif" font-size="10.00">DialogManager.ShowNextLine</text>
</a>
</g>
</g>
<!-- Node1&#45;&gt;Node2 -->
<g id="edge1_Node000001_Node000002" class="edge">
<title>Node1&#45;&gt;Node2</title>
<g id="a_edge1_Node000001_Node000002"><a xlink:title=" ">
<path fill="none" stroke="#63b8ff" d="M115.11,-83.5C123.39,-83.5 132.06,-83.5 140.73,-83.5"/>
<polygon fill="#63b8ff" stroke="#63b8ff" points="140.89,-87 150.89,-83.5 140.89,-80 140.89,-87"/>
</a>
</g>
</g>
<!-- Node3 -->
<g id="Node000003" class="node">
<title>Node3</title>
<g id="a_Node000003"><a xlink:href="class_model_controller.html#aab6e1807c1b6ee25a9a1d28028caec1a" target="_top" xlink:title="Static method to extract the first part of a string up to a specified stop text. If the stop text is ...">
<polygon fill="white" stroke="#666666" points="542,-167 386,-167 386,-148 542,-148 542,-167"/>
<text text-anchor="middle" x="464" y="-155" font-family="Helvetica,sans-Serif" font-size="10.00">ModelController.ExtractFirstPart</text>
</a>
</g>
</g>
<!-- Node2&#45;&gt;Node3 -->
<g id="edge2_Node000002_Node000003" class="edge">
<title>Node2&#45;&gt;Node3</title>
<g id="a_edge2_Node000002_Node000003"><a xlink:title=" ">
<path fill="none" stroke="#63b8ff" d="M239.67,-93.19C259.81,-105.99 297.58,-128.23 333,-139.5 346.58,-143.82 361.29,-147.1 375.77,-149.6"/>
<polygon fill="#63b8ff" stroke="#63b8ff" points="375.3,-153.07 385.73,-151.21 376.41,-146.16 375.3,-153.07"/>
</a>
</g>
</g>
<!-- Node4 -->
<g id="Node000004" class="node">
<title>Node4</title>
<g id="a_Node000004"><a xlink:href="class_llama_library_1_1_async_llama_infrence.html#ae80455f9b59fac152fa35e01470fd8d1" target="_top" xlink:title=" ">
<polygon fill="white" stroke="#666666" points="580.5,-130 347.5,-130 347.5,-111 580.5,-111 580.5,-130"/>
<text text-anchor="middle" x="464" y="-118" font-family="Helvetica,sans-Serif" font-size="10.00">LlamaLibrary.AsyncLlamaInfrence.GenerateAsync</text>
</a>
</g>
</g>
<!-- Node2&#45;&gt;Node4 -->
<g id="edge3_Node000002_Node000004" class="edge">
<title>Node2&#45;&gt;Node4</title>
<g id="a_edge3_Node000002_Node000004"><a xlink:title=" ">
<path fill="none" stroke="#63b8ff" d="M276.85,-93.02C294.63,-96.18 314.66,-99.62 333,-102.5 348.33,-104.91 364.69,-107.31 380.47,-109.54"/>
<polygon fill="#63b8ff" stroke="#63b8ff" points="380.34,-113.05 390.73,-110.97 381.31,-106.12 380.34,-113.05"/>
</a>
</g>
</g>
<!-- Node7 -->
<g id="Node000007" class="node">
<title>Node7</title>
<g id="a_Node000007"><a xlink:href="class_llama_library_1_1_async_llama_infrence.html#a74d73cee873a2080edfa0d915f367d30" target="_top" xlink:title=" ">
<polygon fill="white" stroke="#666666" points="595,-93 333,-93 333,-74 595,-74 595,-93"/>
<text text-anchor="middle" x="464" y="-81" font-family="Helvetica,sans-Serif" font-size="10.00">LlamaLibrary.AsyncLlamaInfrence.GetGenerationResults</text>
</a>
</g>
</g>
<!-- Node2&#45;&gt;Node7 -->
<g id="edge6_Node000002_Node000007" class="edge">
<title>Node2&#45;&gt;Node7</title>
<g id="a_edge6_Node000002_Node000007"><a xlink:title=" ">
<path fill="none" stroke="#63b8ff" d="M297.05,-83.5C305.22,-83.5 313.73,-83.5 322.4,-83.5"/>
<polygon fill="#63b8ff" stroke="#63b8ff" points="322.64,-87 332.64,-83.5 322.64,-80 322.64,-87"/>
</a>
</g>
</g>
<!-- Node9 -->
<g id="Node000009" class="node">
<title>Node9</title>
<g id="a_Node000009"><a xlink:href="class_llama_library_1_1_async_llama_infrence.html#a66a87fa4eb3794b3069e7470a1be66ce" target="_top" xlink:title=" ">
<polygon fill="white" stroke="#666666" points="588,-56 340,-56 340,-37 588,-37 588,-56"/>
<text text-anchor="middle" x="464" y="-44" font-family="Helvetica,sans-Serif" font-size="10.00">LlamaLibrary.AsyncLlamaInfrence.IsGenerationReady</text>
</a>
</g>
</g>
<!-- Node2&#45;&gt;Node9 -->
<g id="edge8_Node000002_Node000009" class="edge">
<title>Node2&#45;&gt;Node9</title>
<g id="a_edge8_Node000002_Node000009"><a xlink:title=" ">
<path fill="none" stroke="#63b8ff" d="M280.74,-73.99C297.53,-71.19 316,-68.16 333,-65.5 350.14,-62.82 368.58,-60.05 386.02,-57.49"/>
<polygon fill="#63b8ff" stroke="#63b8ff" points="386.77,-60.92 396.16,-56.01 385.76,-53.99 386.77,-60.92"/>
</a>
</g>
</g>
<!-- Node11 -->
<g id="Node000011" class="node">
<title>Node11</title>
<g id="a_Node000011"><a xlink:href="class_dialog_manager.html#a2b9e29dfdef1abb40b4d9bb7a6523be7" target="_top" xlink:title="Displays the specified text on the character&#39;s TextMeshPro component.">
<polygon fill="white" stroke="#666666" points="527.5,-19 400.5,-19 400.5,0 527.5,0 527.5,-19"/>
<text text-anchor="middle" x="464" y="-7" font-family="Helvetica,sans-Serif" font-size="10.00">DialogManager.ShowText</text>
</a>
</g>
</g>
<!-- Node2&#45;&gt;Node11 -->
<g id="edge10_Node000002_Node000011" class="edge">
<title>Node2&#45;&gt;Node11</title>
<g id="a_edge10_Node000002_Node000011"><a xlink:title=" ">
<path fill="none" stroke="#63b8ff" d="M240.06,-73.82C260.33,-61.27 297.91,-39.67 333,-28.5 351.15,-22.73 371.29,-18.7 390.19,-15.89"/>
<polygon fill="#63b8ff" stroke="#63b8ff" points="390.82,-19.33 400.24,-14.49 389.85,-12.4 390.82,-19.33"/>
</a>
</g>
</g>
<!-- Node5 -->
<g id="Node000005" class="node">
<title>Node5</title>
<g id="a_Node000005"><a xlink:href="class_llama_library_1_1libllama__lib_p_i_n_v_o_k_e.html#af55b1afde0c97563b362f3a6df224c4e" target="_top" xlink:title=" ">
<polygon fill="white" stroke="#666666" points="975.5,-167 645.5,-167 645.5,-148 975.5,-148 975.5,-167"/>
<text text-anchor="middle" x="810.5" y="-155" font-family="Helvetica,sans-Serif" font-size="10.00">LlamaLibrary.libllama_libPINVOKE.AsyncLlamaInfrence_GenerateAsync</text>
</a>
</g>
</g>
<!-- Node4&#45;&gt;Node5 -->
<g id="edge4_Node000004_Node000005" class="edge">
<title>Node4&#45;&gt;Node5</title>
<g id="a_edge4_Node000004_Node000005"><a xlink:title=" ">
<path fill="none" stroke="#63b8ff" d="M546.45,-130.04C573.36,-133.14 603.46,-136.54 631,-139.5 654.17,-141.99 679.04,-144.57 702.64,-146.96"/>
<polygon fill="#63b8ff" stroke="#63b8ff" points="702.37,-150.45 712.67,-147.98 703.07,-143.49 702.37,-150.45"/>
</a>
</g>
</g>
<!-- Node6 -->
<g id="Node000006" class="node">
<title>Node6</title>
<g id="a_Node000006"><a xlink:href="class_llama_library_1_1libllama__lib_p_i_n_v_o_k_e_1_1_s_w_i_g_pending_exception.html#a2718a73540850b42db7c89e9be3519ec" target="_top" xlink:title=" ">
<polygon fill="white" stroke="#666666" points="966.5,-130 654.5,-130 654.5,-111 966.5,-111 966.5,-130"/>
<text text-anchor="middle" x="810.5" y="-118" font-family="Helvetica,sans-Serif" font-size="10.00">LlamaLibrary.libllama_libPINVOKE.SWIGPendingException.Retrieve</text>
</a>
</g>
</g>
<!-- Node4&#45;&gt;Node6 -->
<g id="edge5_Node000004_Node000006" class="edge">
<title>Node4&#45;&gt;Node6</title>
<g id="a_edge5_Node000004_Node000006"><a xlink:title=" ">
<path fill="none" stroke="#63b8ff" d="M580.67,-120.5C601.09,-120.5 622.7,-120.5 644.17,-120.5"/>
<polygon fill="#63b8ff" stroke="#63b8ff" points="644.35,-124 654.35,-120.5 644.35,-117 644.35,-124"/>
</a>
</g>
</g>
<!-- Node8 -->
<g id="Node000008" class="node">
<title>Node8</title>
<g id="a_Node000008"><a xlink:href="class_llama_library_1_1libllama__lib_p_i_n_v_o_k_e.html#a2bdcb309c17221cae862eee0ad62128e" target="_top" xlink:title=" ">
<polygon fill="white" stroke="#666666" points="990,-93 631,-93 631,-74 990,-74 990,-93"/>
<text text-anchor="middle" x="810.5" y="-81" font-family="Helvetica,sans-Serif" font-size="10.00">LlamaLibrary.libllama_libPINVOKE.AsyncLlamaInfrence_GetGenerationResults</text>
</a>
</g>
</g>
<!-- Node7&#45;&gt;Node8 -->
<g id="edge7_Node000007_Node000008" class="edge">
<title>Node7&#45;&gt;Node8</title>
<g id="a_edge7_Node000007_Node000008"><a xlink:title=" ">
<path fill="none" stroke="#63b8ff" d="M595.24,-83.5C603.66,-83.5 612.23,-83.5 620.85,-83.5"/>
<polygon fill="#63b8ff" stroke="#63b8ff" points="620.99,-87 630.99,-83.5 620.99,-80 620.99,-87"/>
</a>
</g>
</g>
<!-- Node10 -->
<g id="Node000010" class="node">
<title>Node10</title>
<g id="a_Node000010"><a xlink:href="class_llama_library_1_1libllama__lib_p_i_n_v_o_k_e.html#ab50bb460cfde70a6f5eb120b81102ab9" target="_top" xlink:title=" ">
<polygon fill="white" stroke="#666666" points="983,-56 638,-56 638,-37 983,-37 983,-56"/>
<text text-anchor="middle" x="810.5" y="-44" font-family="Helvetica,sans-Serif" font-size="10.00">LlamaLibrary.libllama_libPINVOKE.AsyncLlamaInfrence_IsGenerationReady</text>
</a>
</g>
</g>
<!-- Node9&#45;&gt;Node10 -->
<g id="edge9_Node000009_Node000010" class="edge">
<title>Node9&#45;&gt;Node10</title>
<g id="a_edge9_Node000009_Node000010"><a xlink:title=" ">
<path fill="none" stroke="#63b8ff" d="M588.4,-46.5C601.25,-46.5 614.49,-46.5 627.8,-46.5"/>
<polygon fill="#63b8ff" stroke="#63b8ff" points="628,-50 638,-46.5 628,-43 628,-50"/>
</a>
</g>
</g>
<!-- Node12 -->
<g id="Node000012" class="node">
<title>Node12</title>
<g id="a_Node000012"><a xlink:href="class_dialog_manager.html#a20867c8053ce8cdd4d4bcd96ff6798b0" target="_top" xlink:title="Coroutine that hides the text by clearing it after a specified delay.">
<polygon fill="white" stroke="#666666" points="894,-19 727,-19 727,0 894,0 894,-19"/>
<text text-anchor="middle" x="810.5" y="-7" font-family="Helvetica,sans-Serif" font-size="10.00">DialogManager.HideTextAfterDelay</text>
</a>
</g>
</g>
<!-- Node11&#45;&gt;Node12 -->
<g id="edge11_Node000011_Node000012" class="edge">
<title>Node11&#45;&gt;Node12</title>
<g id="a_edge11_Node000011_Node000012"><a xlink:title=" ">
<path fill="none" stroke="#63b8ff" d="M527.79,-9.5C580.53,-9.5 656.66,-9.5 716.48,-9.5"/>
<polygon fill="#63b8ff" stroke="#63b8ff" points="716.69,-13 726.69,-9.5 716.69,-6 716.69,-13"/>
</a>
</g>
</g>
</g>
</svg>
