<?xml version="1.0" encoding="UTF-8" standalone="no"?>
<!DOCTYPE svg PUBLIC "-//W3C//DTD SVG 1.1//EN"
 "http://www.w3.org/Graphics/SVG/1.1/DTD/svg11.dtd">
<!-- Generated by graphviz version 6.0.1 (20220911.1526)
 -->
<!-- Title: PrintStopwatchScore.OnDestroy Pages: 1 -->
<svg width="410pt" height="64pt"
 viewBox="0.00 0.00 410.00 64.00" xmlns="http://www.w3.org/2000/svg" xmlns:xlink="http://www.w3.org/1999/xlink">
<g id="graph0" class="graph" transform="scale(1 1) rotate(0) translate(4 60)">
<title>PrintStopwatchScore.OnDestroy</title>
<!-- Node1 -->
<g id="Node000001" class="node">
<title>Node1</title>
<g id="a_Node000001"><a xlink:title=" ">
<polygon fill="#999999" stroke="#666666" points="158,-37 0,-37 0,-18 158,-18 158,-37"/>
<text text-anchor="middle" x="79" y="-25" font-family="Helvetica,sans-Serif" font-size="10.00">PrintStopwatchScore.OnDestroy</text>
</a>
</g>
</g>
<!-- Node2 -->
<g id="Node000002" class="node">
<title>Node2</title>
<g id="a_Node000002"><a xlink:href="class_print_stopwatch_score.html#aafbba0997a2750b60f976493d62ebe57" target="_top" xlink:title=" ">
<polygon fill="white" stroke="#666666" points="402,-56 194,-56 194,-37 402,-37 402,-56"/>
<text text-anchor="middle" x="298" y="-44" font-family="Helvetica,sans-Serif" font-size="10.00">PrintStopwatchScore.OnStateChangedDone</text>
</a>
</g>
</g>
<!-- Node1&#45;&gt;Node2 -->
<g id="edge1_Node000001_Node000002" class="edge">
<title>Node1&#45;&gt;Node2</title>
<g id="a_edge1_Node000001_Node000002"><a xlink:title=" ">
<path fill="none" stroke="#63b8ff" d="M158.04,-34.33C166.42,-35.07 175.07,-35.82 183.76,-36.58"/>
<polygon fill="#63b8ff" stroke="#63b8ff" points="183.69,-40.09 193.96,-37.48 184.3,-33.12 183.69,-40.09"/>
</a>
</g>
</g>
<!-- Node3 -->
<g id="Node000003" class="node">
<title>Node3</title>
<g id="a_Node000003"><a xlink:href="class_print_stopwatch_score.html#a41d1a57964ca85dc9aaeb6d0d91d48d5" target="_top" xlink:title=" ">
<polygon fill="white" stroke="#666666" points="401,-19 195,-19 195,0 401,0 401,-19"/>
<text text-anchor="middle" x="298" y="-7" font-family="Helvetica,sans-Serif" font-size="10.00">PrintStopwatchScore.OnStateChangedStart</text>
</a>
</g>
</g>
<!-- Node1&#45;&gt;Node3 -->
<g id="edge2_Node000001_Node000003" class="edge">
<title>Node1&#45;&gt;Node3</title>
<g id="a_edge2_Node000001_Node000003"><a xlink:title=" ">
<path fill="none" stroke="#63b8ff" d="M158.04,-21.03C166.69,-20.31 175.62,-19.57 184.59,-18.82"/>
<polygon fill="#63b8ff" stroke="#63b8ff" points="185.04,-22.3 194.72,-17.98 184.46,-15.32 185.04,-22.3"/>
</a>
</g>
</g>
</g>
</svg>
