<?xml version="1.0" encoding="UTF-8" standalone="no"?>
<!DOCTYPE svg PUBLIC "-//W3C//DTD SVG 1.1//EN"
 "http://www.w3.org/Graphics/SVG/1.1/DTD/svg11.dtd">
<!-- Generated by graphviz version 6.0.1 (20220911.1526)
 -->
<!-- Title: LlamaLibrary.LlamaInfrence.GetParameters Pages: 1 -->
<svg width="560pt" height="64pt"
 viewBox="0.00 0.00 560.00 64.00" xmlns="http://www.w3.org/2000/svg" xmlns:xlink="http://www.w3.org/1999/xlink">
<g id="graph0" class="graph" transform="scale(1 1) rotate(0) translate(4 60)">
<title>LlamaLibrary.LlamaInfrence.GetParameters</title>
<!-- Node1 -->
<g id="Node000001" class="node">
<title>Node1</title>
<g id="a_Node000001"><a xlink:title=" ">
<polygon fill="#999999" stroke="#666666" points="204,-37 0,-37 0,-18 204,-18 204,-37"/>
<text text-anchor="middle" x="102" y="-25" font-family="Helvetica,sans-Serif" font-size="10.00">LlamaLibrary.LlamaInfrence.GetParameters</text>
</a>
</g>
</g>
<!-- Node2 -->
<g id="Node000002" class="node">
<title>Node2</title>
<g id="a_Node000002"><a xlink:href="class_llama_library_1_1libllama__lib_p_i_n_v_o_k_e.html#acf6bdd7aff3f0d4df89a91e588d2a78b" target="_top" xlink:title=" ">
<polygon fill="white" stroke="#666666" points="546.5,-56 245.5,-56 245.5,-37 546.5,-37 546.5,-56"/>
<text text-anchor="middle" x="396" y="-44" font-family="Helvetica,sans-Serif" font-size="10.00">LlamaLibrary.libllama_libPINVOKE.LlamaInfrence_GetParameters</text>
</a>
</g>
</g>
<!-- Node1&#45;&gt;Node2 -->
<g id="edge1_Node000001_Node000002" class="edge">
<title>Node1&#45;&gt;Node2</title>
<g id="a_edge1_Node000001_Node000002"><a xlink:title=" ">
<path fill="none" stroke="#63b8ff" d="M204.31,-34.09C215.46,-34.82 226.99,-35.57 238.61,-36.32"/>
<polygon fill="#63b8ff" stroke="#63b8ff" points="238.63,-39.83 248.84,-36.99 239.08,-32.85 238.63,-39.83"/>
</a>
</g>
</g>
<!-- Node3 -->
<g id="Node000003" class="node">
<title>Node3</title>
<g id="a_Node000003"><a xlink:href="class_llama_library_1_1libllama__lib_p_i_n_v_o_k_e_1_1_s_w_i_g_pending_exception.html#a2718a73540850b42db7c89e9be3519ec" target="_top" xlink:title=" ">
<polygon fill="white" stroke="#666666" points="552,-19 240,-19 240,0 552,0 552,-19"/>
<text text-anchor="middle" x="396" y="-7" font-family="Helvetica,sans-Serif" font-size="10.00">LlamaLibrary.libllama_libPINVOKE.SWIGPendingException.Retrieve</text>
</a>
</g>
</g>
<!-- Node1&#45;&gt;Node3 -->
<g id="edge2_Node000001_Node000003" class="edge">
<title>Node1&#45;&gt;Node3</title>
<g id="a_edge2_Node000001_Node000003"><a xlink:title=" ">
<path fill="none" stroke="#63b8ff" d="M204.31,-21.25C212.92,-20.72 221.77,-20.18 230.71,-19.63"/>
<polygon fill="#63b8ff" stroke="#63b8ff" points="231.07,-23.11 240.84,-19 230.64,-16.13 231.07,-23.11"/>
</a>
</g>
</g>
</g>
</svg>
