<?xml version="1.0" encoding="UTF-8" standalone="no"?>
<!DOCTYPE svg PUBLIC "-//W3C//DTD SVG 1.1//EN"
 "http://www.w3.org/Graphics/SVG/1.1/DTD/svg11.dtd">
<!-- Generated by graphviz version 6.0.1 (20220911.1526)
 -->
<!-- Title: LlamaLibrary.CallbackWrapper.StaticLogCallback Pages: 1 -->
<svg width="665pt" height="27pt"
 viewBox="0.00 0.00 665.00 27.00" xmlns="http://www.w3.org/2000/svg" xmlns:xlink="http://www.w3.org/1999/xlink">
<g id="graph0" class="graph" transform="scale(1 1) rotate(0) translate(4 23)">
<title>LlamaLibrary.CallbackWrapper.StaticLogCallback</title>
<!-- Node1 -->
<g id="Node000001" class="node">
<title>Node1</title>
<g id="a_Node000001"><a xlink:title="Static method to handle the log callback from the native library.">
<polygon fill="#999999" stroke="#666666" points="657,-19 426,-19 426,0 657,0 657,-19"/>
<text text-anchor="middle" x="541.5" y="-7" font-family="Helvetica,sans-Serif" font-size="10.00">LlamaLibrary.CallbackWrapper.StaticLogCallback</text>
</a>
</g>
</g>
<!-- Node2 -->
<g id="Node000002" class="node">
<title>Node2</title>
<g id="a_Node000002"><a xlink:href="class_llama_library_1_1_callback_wrapper.html#a4206d466b5e3e4a6c95c04e2df4640ce" target="_top" xlink:title="Registers a log callback function for the Llama model.">
<polygon fill="white" stroke="#666666" points="390,-19 148,-19 148,0 390,0 390,-19"/>
<text text-anchor="middle" x="269" y="-7" font-family="Helvetica,sans-Serif" font-size="10.00">LlamaLibrary.CallbackWrapper.RegisterLogCallback</text>
</a>
</g>
</g>
<!-- Node1&#45;&gt;Node2 -->
<g id="edge1_Node000001_Node000002" class="edge">
<title>Node1&#45;&gt;Node2</title>
<g id="a_edge1_Node000001_Node000002"><a xlink:title=" ">
<path fill="none" stroke="#63b8ff" d="M415.78,-9.5C407.23,-9.5 398.62,-9.5 390.09,-9.5"/>
<polygon fill="#63b8ff" stroke="#63b8ff" points="415.78,-13 425.78,-9.5 415.78,-6 415.78,-13"/>
</a>
</g>
</g>
<!-- Node3 -->
<g id="Node000003" class="node">
<title>Node3</title>
<g id="a_Node000003"><a xlink:href="class_run_model_async.html#a57b42f3e7a40dd687a32b1e62f2ce96a" target="_top" xlink:title="Method called at the start of the MonoBehaviour&#39;s lifecycle. Initializes the model,...">
<polygon fill="white" stroke="#666666" points="112,-19 0,-19 0,0 112,0 112,-19"/>
<text text-anchor="middle" x="56" y="-7" font-family="Helvetica,sans-Serif" font-size="10.00">RunModelAsync.Start</text>
</a>
</g>
</g>
<!-- Node2&#45;&gt;Node3 -->
<g id="edge2_Node000002_Node000003" class="edge">
<title>Node2&#45;&gt;Node3</title>
<g id="a_edge2_Node000002_Node000003"><a xlink:title=" ">
<path fill="none" stroke="#63b8ff" d="M137.61,-9.5C128.75,-9.5 120.14,-9.5 112.04,-9.5"/>
<polygon fill="#63b8ff" stroke="#63b8ff" points="137.71,-13 147.71,-9.5 137.71,-6 137.71,-13"/>
</a>
</g>
</g>
</g>
</svg>
