<?xml version="1.0" encoding="UTF-8" standalone="no"?>
<!DOCTYPE svg PUBLIC "-//W3C//DTD SVG 1.1//EN"
 "http://www.w3.org/Graphics/SVG/1.1/DTD/svg11.dtd">
<!-- Generated by graphviz version 6.0.1 (20220911.1526)
 -->
<!-- Title: LlamaLibrary.FileWrapper.Save Pages: 1 -->
<svg width="563pt" height="64pt"
 viewBox="0.00 0.00 563.00 64.00" xmlns="http://www.w3.org/2000/svg" xmlns:xlink="http://www.w3.org/1999/xlink">
<g id="graph0" class="graph" transform="scale(1 1) rotate(0) translate(4 60)">
<title>LlamaLibrary.FileWrapper.Save</title>
<!-- Node1 -->
<g id="Node000001" class="node">
<title>Node1</title>
<g id="a_Node000001"><a xlink:title=" ">
<polygon fill="#999999" stroke="#666666" points="555,-37 403,-37 403,-18 555,-18 555,-37"/>
<text text-anchor="middle" x="479" y="-25" font-family="Helvetica,sans-Serif" font-size="10.00">LlamaLibrary.FileWrapper.Save</text>
</a>
</g>
</g>
<!-- Node2 -->
<g id="Node000002" class="node">
<title>Node2</title>
<g id="a_Node000002"><a xlink:href="$class_assets_1_1_styled_lines_1_1_runtime_1_1_llama_infrence_unity_1_1_model_controller.html#a3dce3d5d9c0458ed8193cc4ef9f0d45c" xlink:title="Constructor for initializing the ModelController with a binary asset. The constructor sets up the mod...">
<polygon fill="white" stroke="#666666" points="367,-56 0,-56 0,-37 367,-37 367,-56"/>
<text text-anchor="middle" x="183.5" y="-44" font-family="Helvetica,sans-Serif" font-size="10.00">Assets.StyledLines.Runtime.LlamaInfrenceUnity.ModelController.ModelController</text>
</a>
</g>
</g>
<!-- Node1&#45;&gt;Node2 -->
<g id="edge1_Node000001_Node000002" class="edge">
<title>Node1&#45;&gt;Node2</title>
<g id="a_edge1_Node000001_Node000002"><a xlink:title=" ">
<path fill="none" stroke="#63b8ff" d="M392.6,-33.03C373.35,-34.27 352.39,-35.63 331.43,-36.99"/>
<polygon fill="#63b8ff" stroke="#63b8ff" points="393.04,-36.51 402.8,-32.37 392.59,-29.52 393.04,-36.51"/>
</a>
</g>
</g>
<!-- Node3 -->
<g id="Node000003" class="node">
<title>Node3</title>
<g id="a_Node000003"><a xlink:href="$class_assets_1_1_styled_lines_1_1_runtime_1_1_llama_infrence_unity_1_1_run_model_async.html#a93352c3bc627fe14cf66719b7de80e87" xlink:title="Method called at the start of the MonoBehaviour&#39;s lifecycle. Initializes the model,...">
<polygon fill="white" stroke="#666666" points="345.5,-19 21.5,-19 21.5,0 345.5,0 345.5,-19"/>
<text text-anchor="middle" x="183.5" y="-7" font-family="Helvetica,sans-Serif" font-size="10.00">Assets.StyledLines.Runtime.LlamaInfrenceUnity.RunModelAsync.Start</text>
</a>
</g>
</g>
<!-- Node1&#45;&gt;Node3 -->
<g id="edge2_Node000001_Node000003" class="edge">
<title>Node1&#45;&gt;Node3</title>
<g id="a_edge2_Node000001_Node000003"><a xlink:title=" ">
<path fill="none" stroke="#63b8ff" d="M392.54,-22.26C375.77,-21.23 357.71,-20.12 339.48,-19"/>
<polygon fill="#63b8ff" stroke="#63b8ff" points="392.6,-25.77 402.8,-22.89 393.03,-18.78 392.6,-25.77"/>
</a>
</g>
</g>
</g>
</svg>
