<?xml version="1.0" encoding="UTF-8" standalone="no"?>
<!DOCTYPE svg PUBLIC "-//W3C//DTD SVG 1.1//EN"
 "http://www.w3.org/Graphics/SVG/1.1/DTD/svg11.dtd">
<!-- Generated by graphviz version 6.0.1 (20220911.1526)
 -->
<!-- Title: Assets.StyledLines.Runtime.UIHelpers.DisableWhileNotConfigured.SetUIObjectsActive Pages: 1 -->
<svg width="1212pt" height="64pt"
 viewBox="0.00 0.00 1212.00 64.00" xmlns="http://www.w3.org/2000/svg" xmlns:xlink="http://www.w3.org/1999/xlink">
<g id="graph0" class="graph" transform="scale(1 1) rotate(0) translate(4 60)">
<title>Assets.StyledLines.Runtime.UIHelpers.DisableWhileNotConfigured.SetUIObjectsActive</title>
<!-- Node1 -->
<g id="Node000001" class="node">
<title>Node1</title>
<g id="a_Node000001"><a xlink:title=" ">
<polygon fill="#999999" stroke="#666666" points="1204,-37 811,-37 811,-18 1204,-18 1204,-37"/>
<text text-anchor="middle" x="1007.5" y="-25" font-family="Helvetica,sans-Serif" font-size="10.00">Assets.StyledLines.Runtime.UIHelpers.DisableWhileNotConfigured.SetUIObjectsActive</text>
</a>
</g>
</g>
<!-- Node2 -->
<g id="Node000002" class="node">
<title>Node2</title>
<g id="a_Node000002"><a xlink:href="$class_assets_1_1_styled_lines_1_1_runtime_1_1_u_i_helpers_1_1_disable_while_not_configured.html#aefe2786cc0dd4ecd77a74d86f6cb0802" xlink:title=" ">
<polygon fill="white" stroke="#666666" points="775,-56 392,-56 392,-37 775,-37 775,-56"/>
<text text-anchor="middle" x="583.5" y="-44" font-family="Helvetica,sans-Serif" font-size="10.00">Assets.StyledLines.Runtime.UIHelpers.DisableWhileNotConfigured.OnStateChanged</text>
</a>
</g>
</g>
<!-- Node1&#45;&gt;Node2 -->
<g id="edge1_Node000001_Node000002" class="edge">
<title>Node1&#45;&gt;Node2</title>
<g id="a_edge1_Node000001_Node000002"><a xlink:title=" ">
<path fill="none" stroke="#63b8ff" d="M800.92,-36.76C792.38,-37.14 783.83,-37.53 775.32,-37.91"/>
<polygon fill="#63b8ff" stroke="#63b8ff" points="801.11,-40.25 810.94,-36.3 800.79,-33.26 801.11,-40.25"/>
</a>
</g>
</g>
<!-- Node4 -->
<g id="Node000004" class="node">
<title>Node4</title>
<g id="a_Node000004"><a xlink:href="$class_assets_1_1_styled_lines_1_1_runtime_1_1_u_i_helpers_1_1_disable_while_not_configured.html#a21f3bf95ec27ffd9fa1f0f5c103cfb8d" xlink:title=" ">
<polygon fill="white" stroke="#666666" points="343,-19 13,-19 13,0 343,0 343,-19"/>
<text text-anchor="middle" x="178" y="-7" font-family="Helvetica,sans-Serif" font-size="10.00">Assets.StyledLines.Runtime.UIHelpers.DisableWhileNotConfigured.Start</text>
</a>
</g>
</g>
<!-- Node1&#45;&gt;Node4 -->
<g id="edge4_Node000001_Node000004" class="edge">
<title>Node1&#45;&gt;Node4</title>
<g id="a_edge4_Node000001_Node000004"><a xlink:title=" ">
<path fill="none" stroke="#63b8ff" d="M800.83,-23.03C659.6,-19.95 474.65,-15.93 343.27,-13.07"/>
<polygon fill="#63b8ff" stroke="#63b8ff" points="800.84,-26.53 810.92,-23.25 801,-19.53 800.84,-26.53"/>
</a>
</g>
</g>
<!-- Node3 -->
<g id="Node000003" class="node">
<title>Node3</title>
<g id="a_Node000003"><a xlink:href="$class_assets_1_1_styled_lines_1_1_runtime_1_1_u_i_helpers_1_1_disable_while_not_configured.html#a02be811620e478286be43d27d72ab022" xlink:title=" ">
<polygon fill="white" stroke="#666666" points="356,-56 0,-56 0,-37 356,-37 356,-56"/>
<text text-anchor="middle" x="178" y="-44" font-family="Helvetica,sans-Serif" font-size="10.00">Assets.StyledLines.Runtime.UIHelpers.DisableWhileNotConfigured.OnDestroy</text>
</a>
</g>
</g>
<!-- Node2&#45;&gt;Node3 -->
<g id="edge2_Node000002_Node000003" class="edge">
<title>Node2&#45;&gt;Node3</title>
<g id="a_edge2_Node000002_Node000003"><a xlink:title=" ">
<path fill="none" stroke="#63b8ff" d="M381.89,-46.5C373.3,-46.5 364.71,-46.5 356.17,-46.5"/>
<polygon fill="#63b8ff" stroke="#63b8ff" points="381.98,-50 391.98,-46.5 381.98,-43 381.98,-50"/>
</a>
</g>
</g>
<!-- Node2&#45;&gt;Node4 -->
<g id="edge3_Node000002_Node000004" class="edge">
<title>Node2&#45;&gt;Node4</title>
<g id="a_edge3_Node000002_Node000004"><a xlink:title=" ">
<path fill="none" stroke="#63b8ff" d="M468.83,-36.08C410.38,-30.72 339.64,-24.23 282.69,-19.01"/>
<polygon fill="#63b8ff" stroke="#63b8ff" points="468.57,-39.57 478.85,-37 469.21,-32.6 468.57,-39.57"/>
</a>
</g>
</g>
</g>
</svg>
