<?xml version="1.0" encoding="UTF-8" standalone="no"?>
<!DOCTYPE svg PUBLIC "-//W3C//DTD SVG 1.1//EN"
 "http://www.w3.org/Graphics/SVG/1.1/DTD/svg11.dtd">
<!-- Generated by graphviz version 6.0.1 (20220911.1526)
 -->
<!-- Title: LlamaLibrary.LlamaControlVectorLoadInfos.LlamaControlVectorLoadInfosEnumerator Pages: 1 -->
<svg width="648pt" height="262pt"
 viewBox="0.00 0.00 648.00 262.00" xmlns="http://www.w3.org/2000/svg" xmlns:xlink="http://www.w3.org/1999/xlink">
<g id="graph0" class="graph" transform="scale(1 1) rotate(0) translate(4 258)">
<title>LlamaLibrary.LlamaControlVectorLoadInfos.LlamaControlVectorLoadInfosEnumerator</title>
<!-- Node1 -->
<g id="Node000001" class="node">
<title>Node1</title>
<g id="a_Node000001"><a xlink:title=" ">
<polygon fill="#999999" stroke="none" points="443,-169 67,-169 67,0 443,0 443,-169"/>
<text text-anchor="start" x="72" y="-156.5" font-family="Helvetica,sans-Serif" font-size="10.00">LlamaLibrary.LlamaControlVectorLoadInfos.LlamaControlVectorLoadInfosEnumerator</text>
<text text-anchor="start" x="71.5" y="-141.5" font-family="Helvetica,sans-Serif" font-size="10.00">+</text>
<text text-anchor="start" x="83" y="-141.5" font-family="Helvetica,sans-Serif" font-size="10.00">SWIGTYPE_p_llama_control_vector_load_info Current</text>
<text text-anchor="start" x="71.5" y="-126.5" font-family="Helvetica,sans-Serif" font-size="10.00">+</text>
<text text-anchor="start" x="83" y="-126.5" font-family="Helvetica,sans-Serif" font-size="10.00">object global::System.Collections.IEnumerator. Current</text>
<text text-anchor="start" x="73" y="-111.5" font-family="Helvetica,sans-Serif" font-size="10.00">&#45;</text>
<text text-anchor="start" x="83" y="-111.5" font-family="Helvetica,sans-Serif" font-size="10.00">LlamaControlVectorLoadInfos collectionRef</text>
<text text-anchor="start" x="73" y="-96.5" font-family="Helvetica,sans-Serif" font-size="10.00">&#45;</text>
<text text-anchor="start" x="83" y="-96.5" font-family="Helvetica,sans-Serif" font-size="10.00">int currentIndex</text>
<text text-anchor="start" x="73" y="-81.5" font-family="Helvetica,sans-Serif" font-size="10.00">&#45;</text>
<text text-anchor="start" x="83" y="-81.5" font-family="Helvetica,sans-Serif" font-size="10.00">object currentObject</text>
<text text-anchor="start" x="73" y="-66.5" font-family="Helvetica,sans-Serif" font-size="10.00">&#45;</text>
<text text-anchor="start" x="83" y="-66.5" font-family="Helvetica,sans-Serif" font-size="10.00">int currentSize</text>
<text text-anchor="start" x="71.5" y="-51.5" font-family="Helvetica,sans-Serif" font-size="10.00">+</text>
<text text-anchor="start" x="83" y="-51.5" font-family="Helvetica,sans-Serif" font-size="10.00">void Dispose()</text>
<text text-anchor="start" x="71.5" y="-36.5" font-family="Helvetica,sans-Serif" font-size="10.00">+</text>
<text text-anchor="start" x="83" y="-36.5" font-family="Helvetica,sans-Serif" font-size="10.00">LlamaControlVectorLoadInfosEnumerator(LlamaControlVectorLoadInfos collection)</text>
<text text-anchor="start" x="71.5" y="-21.5" font-family="Helvetica,sans-Serif" font-size="10.00">+</text>
<text text-anchor="start" x="83" y="-21.5" font-family="Helvetica,sans-Serif" font-size="10.00">bool MoveNext()</text>
<text text-anchor="start" x="71.5" y="-6.5" font-family="Helvetica,sans-Serif" font-size="10.00">+</text>
<text text-anchor="start" x="83" y="-6.5" font-family="Helvetica,sans-Serif" font-size="10.00">void Reset()</text>
<polygon fill="#666666" stroke="#666666" points="67,-151.5 67,-151.5 443,-151.5 443,-151.5 67,-151.5"/>
<polygon fill="#666666" stroke="#666666" points="67,-61.5 67,-61.5 81,-61.5 81,-61.5 67,-61.5"/>
<polygon fill="#666666" stroke="#666666" points="81,-61.5 81,-61.5 443,-61.5 443,-61.5 81,-61.5"/>
<polygon fill="none" stroke="#666666" points="67,0 67,-169 443,-169 443,0 67,0"/>
</a>
</g>
</g>
<!-- Node2 -->
<g id="Node000002" class="node">
<title>Node2</title>
<g id="a_Node000002"><a xlink:title=" ">
<polygon fill="white" stroke="none" points="182,-254 0,-254 0,-205 182,-205 182,-254"/>
<text text-anchor="start" x="5" y="-241.5" font-family="Helvetica,sans-Serif" font-size="10.00">global::SystemCollections::IEnumerator</text>
<text text-anchor="start" x="89" y="-226.5" font-family="Helvetica,sans-Serif" font-size="10.00"> </text>
<text text-anchor="start" x="89" y="-211.5" font-family="Helvetica,sans-Serif" font-size="10.00"> </text>
<polygon fill="#666666" stroke="#666666" points="0,-236.5 0,-236.5 182,-236.5 182,-236.5 0,-236.5"/>
<polygon fill="#666666" stroke="#666666" points="0,-221.5 0,-221.5 182,-221.5 182,-221.5 0,-221.5"/>
<polygon fill="none" stroke="#666666" points="0,-205 0,-254 182,-254 182,-205 0,-205"/>
</a>
</g>
</g>
<!-- Node2&#45;&gt;Node1 -->
<g id="edge1_Node000001_Node000002" class="edge">
<title>Node2&#45;&gt;Node1</title>
<g id="a_edge1_Node000001_Node000002"><a xlink:title=" ">
<path fill="none" stroke="#63b8ff" d="M125.8,-198.16C135.82,-189.42 147.27,-179.43 159.13,-169.1"/>
<polygon fill="none" stroke="#63b8ff" points="123.32,-195.68 118.08,-204.89 127.92,-200.95 123.32,-195.68"/>
</a>
</g>
</g>
<!-- Node3 -->
<g id="Node000003" class="node">
<title>Node3</title>
<g id="a_Node000003"><a xlink:title=" ">
<polygon fill="white" stroke="none" points="640,-254 200,-254 200,-205 640,-205 640,-254"/>
<text text-anchor="start" x="205" y="-241.5" font-family="Helvetica,sans-Serif" font-size="10.00">global::SystemCollections::Generic::IEnumerator&lt; SWIGTYPE_p_llama_control_vector_load_info &gt;</text>
<text text-anchor="start" x="418" y="-226.5" font-family="Helvetica,sans-Serif" font-size="10.00"> </text>
<text text-anchor="start" x="418" y="-211.5" font-family="Helvetica,sans-Serif" font-size="10.00"> </text>
<polygon fill="#666666" stroke="#666666" points="200,-236.5 200,-236.5 640,-236.5 640,-236.5 200,-236.5"/>
<polygon fill="#666666" stroke="#666666" points="200,-221.5 200,-221.5 640,-221.5 640,-221.5 200,-221.5"/>
<polygon fill="none" stroke="#666666" points="200,-205 200,-254 640,-254 640,-205 200,-205"/>
</a>
</g>
</g>
<!-- Node3&#45;&gt;Node1 -->
<g id="edge2_Node000001_Node000003" class="edge">
<title>Node3&#45;&gt;Node1</title>
<g id="a_edge2_Node000001_Node000003"><a xlink:title=" ">
<path fill="none" stroke="#63b8ff" d="M384.99,-198.16C374.91,-189.42 363.38,-179.43 351.46,-169.1"/>
<polygon fill="none" stroke="#63b8ff" points="382.9,-200.98 392.75,-204.89 387.49,-195.69 382.9,-200.98"/>
</a>
</g>
</g>
</g>
</svg>
