<?xml version="1.0" encoding="UTF-8" standalone="no"?>
<!DOCTYPE svg PUBLIC "-//W3C//DTD SVG 1.1//EN"
 "http://www.w3.org/Graphics/SVG/1.1/DTD/svg11.dtd">
<!-- Generated by graphviz version 6.0.1 (20220911.1526)
 -->
<!-- Title: LlamaLibrary.libllama_libPINVOKE.delete_gpt_params Pages: 1 -->
<svg width="846pt" height="64pt"
 viewBox="0.00 0.00 846.00 64.00" xmlns="http://www.w3.org/2000/svg" xmlns:xlink="http://www.w3.org/1999/xlink">
<g id="graph0" class="graph" transform="scale(1 1) rotate(0) translate(4 60)">
<title>LlamaLibrary.libllama_libPINVOKE.delete_gpt_params</title>
<!-- Node1 -->
<g id="Node000001" class="node">
<title>Node1</title>
<g id="a_Node000001"><a xlink:title=" ">
<polygon fill="#999999" stroke="#666666" points="838,-37 586,-37 586,-18 838,-18 838,-37"/>
<text text-anchor="middle" x="712" y="-25" font-family="Helvetica,sans-Serif" font-size="10.00">LlamaLibrary.libllama_libPINVOKE.delete_gpt_params</text>
</a>
</g>
</g>
<!-- Node2 -->
<g id="Node000002" class="node">
<title>Node2</title>
<g id="a_Node000002"><a xlink:href="$class_llama_library_1_1gpt__params.html#a7ea53f5ea026af47d5e5476194f1566d" xlink:title=" ">
<polygon fill="white" stroke="#666666" points="550,-37 386,-37 386,-18 550,-18 550,-37"/>
<text text-anchor="middle" x="468" y="-25" font-family="Helvetica,sans-Serif" font-size="10.00">LlamaLibrary.gpt_params.Dispose</text>
</a>
</g>
</g>
<!-- Node1&#45;&gt;Node2 -->
<g id="edge1_Node000001_Node000002" class="edge">
<title>Node1&#45;&gt;Node2</title>
<g id="a_edge1_Node000001_Node000002"><a xlink:title=" ">
<path fill="none" stroke="#63b8ff" d="M575.55,-27.5C566.9,-27.5 558.35,-27.5 550.07,-27.5"/>
<polygon fill="#63b8ff" stroke="#63b8ff" points="575.75,-31 585.75,-27.5 575.75,-24 575.75,-31"/>
</a>
</g>
</g>
<!-- Node3 -->
<g id="Node000003" class="node">
<title>Node3</title>
<g id="a_Node000003"><a xlink:href="$class_assets_1_1_styled_lines_1_1_runtime_1_1_llama_infrence_unity_1_1_run_model_async.html#aa84dadf5655e750a552e00475ae5b60b" xlink:title="Method called when the MonoBehaviour is destroyed. Disposes of model resources and cleans up the envi...">
<polygon fill="white" stroke="#666666" points="350,-56 0,-56 0,-37 350,-37 350,-56"/>
<text text-anchor="middle" x="175" y="-44" font-family="Helvetica,sans-Serif" font-size="10.00">Assets.StyledLines.Runtime.LlamaInfrenceUnity.RunModelAsync.OnDestroy</text>
</a>
</g>
</g>
<!-- Node2&#45;&gt;Node3 -->
<g id="edge2_Node000002_Node000003" class="edge">
<title>Node2&#45;&gt;Node3</title>
<g id="a_edge2_Node000002_Node000003"><a xlink:title=" ">
<path fill="none" stroke="#63b8ff" d="M375.89,-33.45C358.57,-34.58 340.06,-35.79 321.54,-37"/>
<polygon fill="#63b8ff" stroke="#63b8ff" points="376.19,-36.94 385.94,-32.79 375.73,-29.95 376.19,-36.94"/>
</a>
</g>
</g>
<!-- Node4 -->
<g id="Node000004" class="node">
<title>Node4</title>
<g id="a_Node000004"><a xlink:href="$class_llama_library_1_1gpt__params.html#a86882c54e6b00ba1f6472f868b7ab3a9" xlink:title=" ">
<polygon fill="white" stroke="#666666" points="268,-19 82,-19 82,0 268,0 268,-19"/>
<text text-anchor="middle" x="175" y="-7" font-family="Helvetica,sans-Serif" font-size="10.00">LlamaLibrary.gpt_params.~gpt_params</text>
</a>
</g>
</g>
<!-- Node2&#45;&gt;Node4 -->
<g id="edge3_Node000002_Node000004" class="edge">
<title>Node2&#45;&gt;Node4</title>
<g id="a_edge3_Node000002_Node000004"><a xlink:title=" ">
<path fill="none" stroke="#63b8ff" d="M375.93,-21.87C341.61,-19.74 302.58,-17.33 268.17,-15.2"/>
<polygon fill="#63b8ff" stroke="#63b8ff" points="375.74,-25.36 385.94,-22.49 376.18,-18.38 375.74,-25.36"/>
</a>
</g>
</g>
</g>
</svg>
