<?xml version="1.0" encoding="UTF-8" standalone="no"?>
<!DOCTYPE svg PUBLIC "-//W3C//DTD SVG 1.1//EN"
 "http://www.w3.org/Graphics/SVG/1.1/DTD/svg11.dtd">
<!-- Generated by graphviz version 6.0.1 (20220911.1526)
 -->
<!-- Title: DialogTextMapper Pages: 1 -->
<svg width="265pt" height="187pt"
 viewBox="0.00 0.00 265.00 187.00" xmlns="http://www.w3.org/2000/svg" xmlns:xlink="http://www.w3.org/1999/xlink">
<g id="graph0" class="graph" transform="scale(1 1) rotate(0) translate(4 183)">
<title>DialogTextMapper</title>
<!-- Node1 -->
<g id="Node000001" class="node">
<title>Node1</title>
<g id="a_Node000001"><a xlink:title=" ">
<polygon fill="#999999" stroke="none" points="257,-94 0,-94 0,0 257,0 257,-94"/>
<text text-anchor="start" x="89.5" y="-82" font-family="Helvetica,sans-Serif" font-size="10.00">DialogTextMapper</text>
<text text-anchor="start" x="4.5" y="-67" font-family="Helvetica,sans-Serif" font-size="10.00">&#45;</text>
<text text-anchor="start" x="12.5" y="-67" font-family="Helvetica,sans-Serif" font-size="10.00">TMP_InputField dialogInputField</text>
<text text-anchor="start" x="4.5" y="-52" font-family="Helvetica,sans-Serif" font-size="10.00">&#45;</text>
<text text-anchor="start" x="12.5" y="-52" font-family="Helvetica,sans-Serif" font-size="10.00">DialogManager dialogManager</text>
<text text-anchor="start" x="4.5" y="-37" font-family="Helvetica,sans-Serif" font-size="10.00">&#45;</text>
<text text-anchor="start" x="12.5" y="-37" font-family="Helvetica,sans-Serif" font-size="10.00">void OnDialogTextChanged(string newDialogText)</text>
<text text-anchor="start" x="4.5" y="-22" font-family="Helvetica,sans-Serif" font-size="10.00">&#45;</text>
<text text-anchor="start" x="12.5" y="-22" font-family="Helvetica,sans-Serif" font-size="10.00">void OnDialogTextExternalUpdate(string newDialogText)</text>
<text text-anchor="start" x="4.5" y="-7" font-family="Helvetica,sans-Serif" font-size="10.00">&#45;</text>
<text text-anchor="start" x="12.5" y="-7" font-family="Helvetica,sans-Serif" font-size="10.00">void Start()</text>
<polygon fill="#666666" stroke="#666666" points="0.5,-77 0.5,-77 257.5,-77 257.5,-77 0.5,-77"/>
<polygon fill="#666666" stroke="#666666" points="0.5,-47 0.5,-47 10.5,-47 10.5,-47 0.5,-47"/>
<polygon fill="#666666" stroke="#666666" points="10.5,-47 10.5,-47 257.5,-47 257.5,-47 10.5,-47"/>
<polygon fill="none" stroke="#666666" points="0,0 0,-94 257,-94 257,0 0,0"/>
</a>
</g>
</g>
<!-- Node2 -->
<g id="Node000002" class="node">
<title>Node2</title>
<g id="a_Node000002"><a xlink:title=" ">
<polygon fill="white" stroke="none" points="167,-179 90,-179 90,-130 167,-130 167,-179"/>
<text text-anchor="start" x="95.5" y="-166.5" font-family="Helvetica,sans-Serif" font-size="10.00">MonoBehaviour</text>
<text text-anchor="start" x="127" y="-151.5" font-family="Helvetica,sans-Serif" font-size="10.00"> </text>
<text text-anchor="start" x="127" y="-136.5" font-family="Helvetica,sans-Serif" font-size="10.00"> </text>
<polygon fill="#666666" stroke="#666666" points="90.5,-161.5 90.5,-161.5 167.5,-161.5 167.5,-161.5 90.5,-161.5"/>
<polygon fill="#666666" stroke="#666666" points="90.5,-146.5 90.5,-146.5 167.5,-146.5 167.5,-146.5 90.5,-146.5"/>
<polygon fill="none" stroke="#666666" points="90,-130 90,-179 167,-179 167,-130 90,-130"/>
</a>
</g>
</g>
<!-- Node2&#45;&gt;Node1 -->
<g id="edge1_Node000001_Node000002" class="edge">
<title>Node2&#45;&gt;Node1</title>
<g id="a_edge1_Node000001_Node000002"><a xlink:title=" ">
<path fill="none" stroke="#63b8ff" d="M128.5,-119.61C128.5,-111.48 128.5,-102.66 128.5,-94.08"/>
<polygon fill="none" stroke="#63b8ff" points="125,-119.82 128.5,-129.82 132,-119.82 125,-119.82"/>
</a>
</g>
</g>
</g>
</svg>
