<?xml version="1.0" encoding="UTF-8" standalone="no"?>
<!DOCTYPE svg PUBLIC "-//W3C//DTD SVG 1.1//EN"
 "http://www.w3.org/Graphics/SVG/1.1/DTD/svg11.dtd">
<!-- Generated by graphviz version 6.0.1 (20220911.1526)
 -->
<!-- Title: StyledLines/Runtime Pages: 1 -->
<!--zoomable 94 -->

<svg id="main" version="1.1" xmlns="http://www.w3.org/2000/svg" xmlns:xlink="http://www.w3.org/1999/xlink" xml:space="preserve" onload="init(evt)">
<style type="text/css"><![CDATA[
.node, .edge {opacity: 0.7;}
.node.selected, .edge.selected {opacity: 1;}
.edge:hover path { stroke: red; }
.edge:hover polygon { stroke: red; fill: red; }
]]></style>

<defs>
  <circle id="rim" cx="0" cy="0" r="7"/>
  <circle id="rim2" cx="0" cy="0" r="3.5"/>
  <g id="zoomPlus">
    <use xlink:href="#rim" fill="#404040"><set attributeName="fill" to="#808080" begin="zoomplus.mouseover" end="zoomplus.mouseout"/></use>
    <path d="M-4,0h8M0,-4v8" fill="none" stroke="white" stroke-width="1.5" pointer-events="none"/>
  </g>
  <g id="zoomMin">
    <use xlink:href="#rim" fill="#404040"><set attributeName="fill" to="#808080" begin="zoomminus.mouseover" end="zoomminus.mouseout"/></use>
    <path d="M-4,0h8" fill="none" stroke="white" stroke-width="1.5" pointer-events="none"/>
  </g>
  <g id="arrowUp" transform="translate(30 24)">
    <use xlink:href="#rim"/>
    <path pointer-events="none" fill="none" stroke="white" stroke-width="1.5" d="M0,-3.0v7 M-2.5,-0.5L0,-3.0L2.5,-0.5"/>
  </g>
  <g id="arrowRight" transform="rotate(90) translate(36 -43)">
    <use xlink:href="#rim"/>
    <path pointer-events="none" fill="none" stroke="white" stroke-width="1.5" d="M0,-3.0v7 M-2.5,-0.5L0,-3.0L2.5,-0.5"/>
  </g>
  <g id="arrowDown" transform="rotate(180) translate(-30 -48)">
    <use xlink:href="#rim"/>
    <path pointer-events="none" fill="none" stroke="white" stroke-width="1.5" d="M0,-3.0v7 M-2.5,-0.5L0,-3.0L2.5,-0.5"/>
  </g>
  <g id="arrowLeft" transform="rotate(270) translate(-36 17)">
    <use xlink:href="#rim"/>
    <path pointer-events="none" fill="none" stroke="white" stroke-width="1.5" d="M0,-3.0v7 M-2.5,-0.5L0,-3.0L2.5,-0.5"/>
  </g>
  <g id="resetDef">
    <use xlink:href="#rim2" fill="#404040"><set attributeName="fill" to="#808080" begin="reset.mouseover" end="reset.mouseout"/></use>
  </g>
</defs>
<script type="application/ecmascript">
var viewWidth = 571;
var viewHeight = 94;
var sectionId = 'dynsection-0';
</script>
<script type="application/ecmascript" xlink:href="svg.min.js"/>
<svg id="graph" class="graph">
<g id="viewport">
<title>StyledLines/Runtime</title>
<g id="clust1" class="cluster">
<title>clusterdir_49f4f1d02a01eb7af1fed66c9f966e0b</title>
<g id="a_clust1"><a xlink:href="dir_49f4f1d02a01eb7af1fed66c9f966e0b.html" target="_top" xlink:title="StyledLines">
<polygon fill="#ebefec" stroke="#404040" stroke-dasharray="5,2" points="8,-8 8,-78 555,-78 555,-8 8,-8"/>
<text text-anchor="middle" x="281.5" y="-66" font-family="Helvetica,sans-Serif" font-size="10.00">StyledLines</text>
</a>
</g>
</g>
<g id="clust2" class="cluster">
<title>clusterdir_4c04ce5efb9847fd4a5c0923b43942af</title>
<g id="a_clust2"><a xlink:href="dir_4c04ce5efb9847fd4a5c0923b43942af.html" target="_top">
<polygon fill="#ebefec" stroke="#404040" stroke-width="2" points="16,-16 16,-51 547,-51 547,-16 16,-16"/>
</a>
</g>
</g>
<!-- dir_4c04ce5efb9847fd4a5c0923b43942af -->
<g id="node1" class="node">
<title>dir_4c04ce5efb9847fd4a5c0923b43942af</title>
<text text-anchor="middle" x="512" y="-31" font-family="Helvetica,sans-Serif" font-size="10.00">Runtime</text>
</g>
<!-- dir_644f1f87c605eece8b42e1d5c48e91a7 -->
<g id="node2" class="node">
<title>dir_644f1f87c605eece8b42e1d5c48e91a7</title>
<g id="a_node2"><a xlink:href="dir_644f1f87c605eece8b42e1d5c48e91a7.html" target="_top" xlink:title="DialogUtils">
<polygon fill="#e8ece8" stroke="#404040" points="467.5,-43 404.5,-43 404.5,-24 467.5,-24 467.5,-43"/>
<text text-anchor="middle" x="436" y="-31" font-family="Helvetica,sans-Serif" font-size="10.00">DialogUtils</text>
</a>
</g>
</g>
<!-- dir_196c20204c01b5987ec1cd6c8f354df9 -->
<g id="node3" class="node">
<title>dir_196c20204c01b5987ec1cd6c8f354df9</title>
<g id="a_node3"><a xlink:href="dir_196c20204c01b5987ec1cd6c8f354df9.html" target="_top" xlink:title="LlamaInfrence">
<polygon fill="#e8ece8" stroke="#404040" points="386.5,-43 309.5,-43 309.5,-24 386.5,-24 386.5,-43"/>
<text text-anchor="middle" x="348" y="-31" font-family="Helvetica,sans-Serif" font-size="10.00">LlamaInfrence</text>
</a>
</g>
</g>
<!-- dir_095114dedafdf218cafd5bba652f3a4c -->
<g id="node4" class="node">
<title>dir_095114dedafdf218cafd5bba652f3a4c</title>
<g id="a_node4"><a xlink:href="dir_095114dedafdf218cafd5bba652f3a4c.html" target="_top" xlink:title="LlamaInfrenceUnity">
<polygon fill="#e8ece8" stroke="#404040" points="291.5,-43 192.5,-43 192.5,-24 291.5,-24 291.5,-43"/>
<text text-anchor="middle" x="242" y="-31" font-family="Helvetica,sans-Serif" font-size="10.00">LlamaInfrenceUnity</text>
</a>
</g>
</g>
<!-- dir_ada9b4a1d5d003f5477b8b59d8cedbe4 -->
<g id="node5" class="node">
<title>dir_ada9b4a1d5d003f5477b8b59d8cedbe4</title>
<g id="a_node5"><a xlink:href="dir_ada9b4a1d5d003f5477b8b59d8cedbe4.html" target="_top" xlink:title="ModelFilesUI">
<polygon fill="#e8ece8" stroke="#404040" points="174.5,-43 101.5,-43 101.5,-24 174.5,-24 174.5,-43"/>
<text text-anchor="middle" x="138" y="-31" font-family="Helvetica,sans-Serif" font-size="10.00">ModelFilesUI</text>
</a>
</g>
</g>
<!-- dir_84e088a30fa199e80babde3bb773aa73 -->
<g id="node6" class="node">
<title>dir_84e088a30fa199e80babde3bb773aa73</title>
<g id="a_node6"><a xlink:href="dir_84e088a30fa199e80babde3bb773aa73.html" target="_top" xlink:title="UIHelpers">
<polygon fill="#e8ece8" stroke="#404040" points="83.5,-43 24.5,-43 24.5,-24 83.5,-24 83.5,-43"/>
<text text-anchor="middle" x="54" y="-31" font-family="Helvetica,sans-Serif" font-size="10.00">UIHelpers</text>
</a>
</g>
</g>
</g>
</svg>

<g id="navigator" transform="translate(0 0)" fill="#404254">
  <rect fill="#f2f5e9" fill-opacity="0.5" stroke="#606060" stroke-width=".5" x="0" y="0" width="60" height="60"/>
  <use id="zoomplus" xlink:href="#zoomPlus" x="17" y="9" onmousedown="handleZoom(evt,'in')"/>
  <use id="zoomminus" xlink:href="#zoomMin" x="42" y="9" onmousedown="handleZoom(evt,'out')"/>
  <use id="reset" xlink:href="#resetDef" x="30" y="36" onmousedown="handleReset()"/>
   <use id="arrowup" xlink:href="#arrowUp" x="0" y="0" onmousedown="handlePan(0,-1)"/>
  <use id="arrowright" xlink:href="#arrowRight" x="0" y="0" onmousedown="handlePan(1,0)"/>
  <use id="arrowdown" xlink:href="#arrowDown" x="0" y="0" onmousedown="handlePan(0,1)"/>
  <use id="arrowleft" xlink:href="#arrowLeft" x="0" y="0" onmousedown="handlePan(-1,0)"/>
</g>
<svg viewBox="0 0 15 15" width="100%" height="30px" preserveAspectRatio="xMaxYMin meet">
 <g id="arrow_out" transform="scale(0.3 0.3)">
  <a xlink:href="dir_4c04ce5efb9847fd4a5c0923b43942af_dep_org.svg" target="_base">
   <rect id="button" ry="5" rx="5" y="6" x="6" height="38" width="38"
        fill="#f2f5e9" fill-opacity="0.5" stroke="#606060" stroke-width="1.0"/>
   <path id="arrow"
     d="M 11.500037,31.436501 C 11.940474,20.09759 22.043105,11.32322 32.158766,21.979434 L 37.068811,17.246167 C 37.068811,17.246167 37.088388,32 37.088388,32 L 22.160133,31.978069 C 22.160133,31.978069 26.997745,27.140456 26.997745,27.140456 C 18.528582,18.264221 13.291696,25.230495 11.500037,31.436501 z"
     style="fill:#404040;"/>
  </a>
 </g>
</svg>

<style type='text/css'>
<![CDATA[
[data-mouse-over-selected='false'] { opacity: 0.7; }
[data-mouse-over-selected='true']  { opacity: 1.0; }
]]>
</style>
<script type="application/ecmascript"><![CDATA[
document.addEventListener('DOMContentLoaded', (event) => {
  highlightEdges();
  highlightAdjacentNodes();
});
]]></script>
</svg>
