<?xml version="1.0" encoding="UTF-8" standalone="no"?>
<!DOCTYPE svg PUBLIC "-//W3C//DTD SVG 1.1//EN"
 "http://www.w3.org/Graphics/SVG/1.1/DTD/svg11.dtd">
<!-- Generated by graphviz version 6.0.1 (20220911.1526)
 -->
<!-- Title: StyledLines/Samples Pages: 1 -->
<!--zoomable 110 -->

<svg id="main" version="1.1" xmlns="http://www.w3.org/2000/svg" xmlns:xlink="http://www.w3.org/1999/xlink" xml:space="preserve" onload="init(evt)">
<style type="text/css"><![CDATA[
.node, .edge {opacity: 0.7;}
.node.selected, .edge.selected {opacity: 1;}
.edge:hover path { stroke: red; }
.edge:hover polygon { stroke: red; fill: red; }
]]></style>

<defs>
  <circle id="rim" cx="0" cy="0" r="7"/>
  <circle id="rim2" cx="0" cy="0" r="3.5"/>
  <g id="zoomPlus">
    <use xlink:href="#rim" fill="#404040"><set attributeName="fill" to="#808080" begin="zoomplus.mouseover" end="zoomplus.mouseout"/></use>
    <path d="M-4,0h8M0,-4v8" fill="none" stroke="white" stroke-width="1.5" pointer-events="none"/>
  </g>
  <g id="zoomMin">
    <use xlink:href="#rim" fill="#404040"><set attributeName="fill" to="#808080" begin="zoomminus.mouseover" end="zoomminus.mouseout"/></use>
    <path d="M-4,0h8" fill="none" stroke="white" stroke-width="1.5" pointer-events="none"/>
  </g>
  <g id="arrowUp" transform="translate(30 24)">
    <use xlink:href="#rim"/>
    <path pointer-events="none" fill="none" stroke="white" stroke-width="1.5" d="M0,-3.0v7 M-2.5,-0.5L0,-3.0L2.5,-0.5"/>
  </g>
  <g id="arrowRight" transform="rotate(90) translate(36 -43)">
    <use xlink:href="#rim"/>
    <path pointer-events="none" fill="none" stroke="white" stroke-width="1.5" d="M0,-3.0v7 M-2.5,-0.5L0,-3.0L2.5,-0.5"/>
  </g>
  <g id="arrowDown" transform="rotate(180) translate(-30 -48)">
    <use xlink:href="#rim"/>
    <path pointer-events="none" fill="none" stroke="white" stroke-width="1.5" d="M0,-3.0v7 M-2.5,-0.5L0,-3.0L2.5,-0.5"/>
  </g>
  <g id="arrowLeft" transform="rotate(270) translate(-36 17)">
    <use xlink:href="#rim"/>
    <path pointer-events="none" fill="none" stroke="white" stroke-width="1.5" d="M0,-3.0v7 M-2.5,-0.5L0,-3.0L2.5,-0.5"/>
  </g>
  <g id="resetDef">
    <use xlink:href="#rim2" fill="#404040"><set attributeName="fill" to="#808080" begin="reset.mouseover" end="reset.mouseout"/></use>
  </g>
</defs>
<script type="application/ecmascript">
var viewWidth = 532;
var viewHeight = 110;
var sectionId = 'dynsection-0';
</script>
<script type="application/ecmascript" xlink:href="svg.min.js"/>
<svg id="graph" class="graph">
<g id="viewport">
<title>StyledLines/Samples</title>
<g id="clust1" class="cluster">
<title>clusterdir_49f4f1d02a01eb7af1fed66c9f966e0b</title>
<g id="a_clust1"><a xlink:href="dir_49f4f1d02a01eb7af1fed66c9f966e0b.html" target="_top" xlink:title="StyledLines">
<polygon fill="#ebefec" stroke="#404040" stroke-dasharray="5,2" points="8,-8 8,-94 516,-94 516,-8 8,-8"/>
<text text-anchor="middle" x="262" y="-82" font-family="Helvetica,sans-Serif" font-size="10.00">StyledLines</text>
</a>
</g>
</g>
<g id="clust2" class="cluster">
<title>clusterdir_faa891ea1339154f9da59207c29ced8a</title>
<g id="a_clust2"><a xlink:href="dir_faa891ea1339154f9da59207c29ced8a.html" target="_top">
<polygon fill="#ebefec" stroke="#404040" stroke-width="2" points="16,-16 16,-67 508,-67 508,-16 16,-16"/>
</a>
</g>
</g>
<g id="clust3" class="cluster">
<title>clusterdir_a323c6449f84de851df5fd02bb657fcc</title>
<g id="a_clust3"><a xlink:href="dir_a323c6449f84de851df5fd02bb657fcc.html" target="_top">
<polygon fill="#e8ece8" stroke="#404040" points="254,-24 254,-59 500,-59 500,-24 254,-24"/>
</a>
</g>
</g>
<g id="clust4" class="cluster">
<title>clusterdir_9618bceaaa476f3a62454b58bc6de545</title>
<g id="a_clust4"><a xlink:href="dir_9618bceaaa476f3a62454b58bc6de545.html" target="_top">
<polygon fill="#e8ece8" stroke="#404040" points="89,-24 89,-59 246,-59 246,-24 89,-24"/>
</a>
</g>
</g>
<!-- dir_faa891ea1339154f9da59207c29ced8a -->
<g id="node1" class="node">
<title>dir_faa891ea1339154f9da59207c29ced8a</title>
<text text-anchor="middle" x="52" y="-39" font-family="Helvetica,sans-Serif" font-size="10.00">Samples</text>
</g>
<!-- dir_a323c6449f84de851df5fd02bb657fcc -->
<g id="node2" class="node">
<title>dir_a323c6449f84de851df5fd02bb657fcc</title>
<text text-anchor="middle" x="413" y="-39" font-family="Helvetica,sans-Serif" font-size="10.00">AutomatedConversationExample</text>
</g>
<!-- dir_be25b44771b5b8bb57585dc1a5473047 -->
<g id="node3" class="node">
<title>dir_be25b44771b5b8bb57585dc1a5473047</title>
<g id="a_node3"><a xlink:href="dir_be25b44771b5b8bb57585dc1a5473047.html" target="_top" xlink:title="Runtime">
<polygon fill="#e4e9e5" stroke="#404040" points="315.5,-51 262.5,-51 262.5,-32 315.5,-32 315.5,-51"/>
<text text-anchor="middle" x="289" y="-39" font-family="Helvetica,sans-Serif" font-size="10.00">Runtime</text>
</a>
</g>
</g>
<!-- dir_9618bceaaa476f3a62454b58bc6de545 -->
<g id="node4" class="node">
<title>dir_9618bceaaa476f3a62454b58bc6de545</title>
<text text-anchor="middle" x="203" y="-39" font-family="Helvetica,sans-Serif" font-size="10.00">BasicDebug</text>
</g>
<!-- dir_28fe0c1197e3915be1140d78f4471a8c -->
<g id="node5" class="node">
<title>dir_28fe0c1197e3915be1140d78f4471a8c</title>
<g id="a_node5"><a xlink:href="dir_28fe0c1197e3915be1140d78f4471a8c.html" target="_top" xlink:title="Runtime">
<polygon fill="#e4e9e5" stroke="#404040" points="150.5,-51 97.5,-51 97.5,-32 150.5,-32 150.5,-51"/>
<text text-anchor="middle" x="124" y="-39" font-family="Helvetica,sans-Serif" font-size="10.00">Runtime</text>
</a>
</g>
</g>
</g>
</svg>

<g id="navigator" transform="translate(0 0)" fill="#404254">
  <rect fill="#f2f5e9" fill-opacity="0.5" stroke="#606060" stroke-width=".5" x="0" y="0" width="60" height="60"/>
  <use id="zoomplus" xlink:href="#zoomPlus" x="17" y="9" onmousedown="handleZoom(evt,'in')"/>
  <use id="zoomminus" xlink:href="#zoomMin" x="42" y="9" onmousedown="handleZoom(evt,'out')"/>
  <use id="reset" xlink:href="#resetDef" x="30" y="36" onmousedown="handleReset()"/>
   <use id="arrowup" xlink:href="#arrowUp" x="0" y="0" onmousedown="handlePan(0,-1)"/>
  <use id="arrowright" xlink:href="#arrowRight" x="0" y="0" onmousedown="handlePan(1,0)"/>
  <use id="arrowdown" xlink:href="#arrowDown" x="0" y="0" onmousedown="handlePan(0,1)"/>
  <use id="arrowleft" xlink:href="#arrowLeft" x="0" y="0" onmousedown="handlePan(-1,0)"/>
</g>
<svg viewBox="0 0 15 15" width="100%" height="30px" preserveAspectRatio="xMaxYMin meet">
 <g id="arrow_out" transform="scale(0.3 0.3)">
  <a xlink:href="dir_faa891ea1339154f9da59207c29ced8a_dep_org.svg" target="_base">
   <rect id="button" ry="5" rx="5" y="6" x="6" height="38" width="38"
        fill="#f2f5e9" fill-opacity="0.5" stroke="#606060" stroke-width="1.0"/>
   <path id="arrow"
     d="M 11.500037,31.436501 C 11.940474,20.09759 22.043105,11.32322 32.158766,21.979434 L 37.068811,17.246167 C 37.068811,17.246167 37.088388,32 37.088388,32 L 22.160133,31.978069 C 22.160133,31.978069 26.997745,27.140456 26.997745,27.140456 C 18.528582,18.264221 13.291696,25.230495 11.500037,31.436501 z"
     style="fill:#404040;"/>
  </a>
 </g>
</svg>

<style type='text/css'>
<![CDATA[
[data-mouse-over-selected='false'] { opacity: 0.7; }
[data-mouse-over-selected='true']  { opacity: 1.0; }
]]>
</style>
<script type="application/ecmascript"><![CDATA[
document.addEventListener('DOMContentLoaded', (event) => {
  highlightEdges();
  highlightAdjacentNodes();
});
]]></script>
</svg>
