<?xml version="1.0" encoding="UTF-8" standalone="no"?>
<!DOCTYPE svg PUBLIC "-//W3C//DTD SVG 1.1//EN"
 "http://www.w3.org/Graphics/SVG/1.1/DTD/svg11.dtd">
<!-- Generated by graphviz version 6.0.1 (20220911.1526)
 -->
<!-- Title: Graphical Class Hierarchy Pages: 1 -->
<svg width="645pt" height="138pt"
 viewBox="0.00 0.00 645.00 138.00" xmlns="http://www.w3.org/2000/svg" xmlns:xlink="http://www.w3.org/1999/xlink">
<g id="graph0" class="graph" transform="scale(1 1) rotate(0) translate(4 134)">
<title>Graphical Class Hierarchy</title>
<!-- Node0 -->
<g id="Node000000" class="node">
<title>Node0</title>
<g id="a_Node000000"><a xlink:title=" ">
<polygon fill="#e0e0e0" stroke="#999999" points="219,-93 0,-93 0,-74 219,-74 219,-93"/>
<text text-anchor="middle" x="109.5" y="-81" font-family="Helvetica,sans-Serif" font-size="10.00">global.SystemCollections.Generic.IEnumerator</text>
</a>
</g>
</g>
<!-- Node1 -->
<g id="Node000001" class="node">
<title>Node1</title>
<g id="a_Node000001"><a xlink:href="class_llama_library_1_1_int32s_1_1_int32s_enumerator.html" target="_top" xlink:title=" ">
<polygon fill="white" stroke="#666666" points="536.5,-56 355.5,-56 355.5,-37 536.5,-37 536.5,-56"/>
<text text-anchor="middle" x="446" y="-44" font-family="Helvetica,sans-Serif" font-size="10.00">LlamaLibrary.Int32s.Int32sEnumerator</text>
</a>
</g>
</g>
<!-- Node0&#45;&gt;Node1 -->
<g id="edge22_Node000000_Node000001" class="edge">
<title>Node0&#45;&gt;Node1</title>
<g id="a_edge22_Node000000_Node000001"><a xlink:title=" ">
<path fill="none" stroke="#63b8ff" d="M193.97,-72.75C213.95,-70.28 235.23,-67.72 255,-65.5 287.61,-61.84 323.42,-58.17 355.07,-55.04"/>
<polygon fill="#63b8ff" stroke="#63b8ff" points="193.46,-69.29 183.97,-74 194.33,-76.24 193.46,-69.29"/>
</a>
</g>
</g>
<!-- Node3 -->
<g id="Node000003" class="node">
<title>Node3</title>
<g id="a_Node000003"><a xlink:href="class_llama_library_1_1_llama_control_vector_load_infos_1_1_llama_control_vector_load_infos_enumerator.html" target="_top" xlink:title=" ">
<polygon fill="white" stroke="#666666" points="637,-19 255,-19 255,0 637,0 637,-19"/>
<text text-anchor="middle" x="446" y="-7" font-family="Helvetica,sans-Serif" font-size="10.00">LlamaLibrary.LlamaControlVectorLoadInfos.LlamaControlVectorLoadInfosEnumerator</text>
</a>
</g>
</g>
<!-- Node0&#45;&gt;Node3 -->
<g id="edge23_Node000000_Node000003" class="edge">
<title>Node0&#45;&gt;Node3</title>
<g id="a_edge23_Node000000_Node000003"><a xlink:title=" ">
<path fill="none" stroke="#63b8ff" d="M208.1,-70.55C211.85,-69.04 215.5,-67.36 219,-65.5 239.54,-54.58 234.09,-37.69 255,-27.5 261.55,-24.31 268.38,-21.53 275.39,-19.12"/>
<polygon fill="#63b8ff" stroke="#63b8ff" points="206.82,-67.29 198.6,-73.98 209.19,-73.88 206.82,-67.29"/>
</a>
</g>
</g>
<!-- Node4 -->
<g id="Node000004" class="node">
<title>Node4</title>
<g id="a_Node000004"><a xlink:href="class_llama_library_1_1_strings_1_1_strings_enumerator.html" target="_top" xlink:title=" ">
<polygon fill="white" stroke="#666666" points="541,-130 351,-130 351,-111 541,-111 541,-130"/>
<text text-anchor="middle" x="446" y="-118" font-family="Helvetica,sans-Serif" font-size="10.00">LlamaLibrary.Strings.StringsEnumerator</text>
</a>
</g>
</g>
<!-- Node0&#45;&gt;Node4 -->
<g id="edge24_Node000000_Node000004" class="edge">
<title>Node0&#45;&gt;Node4</title>
<g id="a_edge24_Node000000_Node000004"><a xlink:title=" ">
<path fill="none" stroke="#63b8ff" d="M189.16,-94.37C210.5,-97.17 233.62,-100.08 255,-102.5 286.11,-106.02 320.15,-109.39 350.7,-112.25"/>
<polygon fill="#63b8ff" stroke="#63b8ff" points="189.54,-90.89 179.16,-93.05 188.62,-97.83 189.54,-90.89"/>
</a>
</g>
</g>
<!-- Node5 -->
<g id="Node000005" class="node">
<title>Node5</title>
<g id="a_Node000005"><a xlink:href="class_llama_library_1_1_strings_and_floats_1_1_strings_and_floats_enumerator.html" target="_top" xlink:title=" ">
<polygon fill="white" stroke="#666666" points="585,-93 307,-93 307,-74 585,-74 585,-93"/>
<text text-anchor="middle" x="446" y="-81" font-family="Helvetica,sans-Serif" font-size="10.00">LlamaLibrary.StringsAndFloats.StringsAndFloatsEnumerator</text>
</a>
</g>
</g>
<!-- Node0&#45;&gt;Node5 -->
<g id="edge25_Node000000_Node000005" class="edge">
<title>Node0&#45;&gt;Node5</title>
<g id="a_edge25_Node000000_Node000005"><a xlink:title=" ">
<path fill="none" stroke="#63b8ff" d="M229.36,-83.5C254.41,-83.5 281.04,-83.5 306.73,-83.5"/>
<polygon fill="#63b8ff" stroke="#63b8ff" points="229.1,-80 219.1,-83.5 229.1,-87 229.1,-80"/>
</a>
</g>
</g>
<!-- Node2 -->
<g id="Node000002" class="node">
<title>Node2</title>
<g id="a_Node000002"><a xlink:title=" ">
<polygon fill="#e0e0e0" stroke="#999999" points="200.5,-56 18.5,-56 18.5,-37 200.5,-37 200.5,-56"/>
<text text-anchor="middle" x="109.5" y="-44" font-family="Helvetica,sans-Serif" font-size="10.00">global.SystemCollections.IEnumerator</text>
</a>
</g>
</g>
<!-- Node2&#45;&gt;Node1 -->
<g id="edge26_Node000002_Node000001" class="edge">
<title>Node2&#45;&gt;Node1</title>
<g id="a_edge26_Node000002_Node000001"><a xlink:title=" ">
<path fill="none" stroke="#63b8ff" d="M210.86,-46.5C256.79,-46.5 310.78,-46.5 355.34,-46.5"/>
<polygon fill="#63b8ff" stroke="#63b8ff" points="210.58,-43 200.58,-46.5 210.58,-50 210.58,-43"/>
</a>
</g>
</g>
<!-- Node2&#45;&gt;Node3 -->
<g id="edge27_Node000002_Node000003" class="edge">
<title>Node2&#45;&gt;Node3</title>
<g id="a_edge27_Node000002_Node000003"><a xlink:title=" ">
<path fill="none" stroke="#63b8ff" d="M189.16,-35.63C210.5,-32.83 233.62,-29.92 255,-27.5 281.67,-24.48 310.48,-21.58 337.41,-19.01"/>
<polygon fill="#63b8ff" stroke="#63b8ff" points="188.62,-32.17 179.16,-36.95 189.54,-39.11 188.62,-32.17"/>
</a>
</g>
</g>
<!-- Node2&#45;&gt;Node4 -->
<g id="edge28_Node000002_Node000004" class="edge">
<title>Node2&#45;&gt;Node4</title>
<g id="a_edge28_Node000002_Node000004"><a xlink:title=" ">
<path fill="none" stroke="#63b8ff" d="M204.95,-59.22C209.8,-61.05 214.52,-63.13 219,-65.5 239.28,-76.22 234.31,-92.59 255,-102.5 284.28,-116.53 318.99,-122.46 350.68,-124.43"/>
<polygon fill="#63b8ff" stroke="#63b8ff" points="206.06,-55.9 195.46,-56.01 203.81,-62.53 206.06,-55.9"/>
</a>
</g>
</g>
<!-- Node2&#45;&gt;Node5 -->
<g id="edge29_Node000002_Node000005" class="edge">
<title>Node2&#45;&gt;Node5</title>
<g id="a_edge29_Node000002_Node000005"><a xlink:title=" ">
<path fill="none" stroke="#63b8ff" d="M189.16,-57.37C210.5,-60.17 233.62,-63.08 255,-65.5 281.67,-68.52 310.48,-71.42 337.41,-73.99"/>
<polygon fill="#63b8ff" stroke="#63b8ff" points="189.54,-53.89 179.16,-56.05 188.62,-60.83 189.54,-53.89"/>
</a>
</g>
</g>
</g>
</svg>
