<?xml version="1.0" encoding="UTF-8" standalone="no"?>
<!DOCTYPE svg PUBLIC "-//W3C//DTD SVG 1.1//EN"
 "http://www.w3.org/Graphics/SVG/1.1/DTD/svg11.dtd">
<!-- Generated by graphviz version 6.0.1 (20220911.1526)
 -->
<!-- Title: Graphical Class Hierarchy Pages: 1 -->
<svg width="313pt" height="656pt"
 viewBox="0.00 0.00 313.00 656.00" xmlns="http://www.w3.org/2000/svg" xmlns:xlink="http://www.w3.org/1999/xlink">
<g id="graph0" class="graph" transform="scale(1 1) rotate(0) translate(4 652)">
<title>Graphical Class Hierarchy</title>
<!-- Node0 -->
<g id="Node000000" class="node">
<title>Node0</title>
<g id="a_Node000000"><a xlink:title=" ">
<polygon fill="#e0e0e0" stroke="#999999" points="83,-333 0,-333 0,-314 83,-314 83,-333"/>
<text text-anchor="middle" x="41.5" y="-321" font-family="Helvetica,sans-Serif" font-size="10.00">MonoBehaviour</text>
</a>
</g>
</g>
<!-- Node1 -->
<g id="Node000001" class="node">
<title>Node1</title>
<g id="a_Node000001"><a xlink:href="class_character_animation_trigger.html" target="_top" xlink:title=" ">
<polygon fill="white" stroke="#666666" points="277.5,-648 146.5,-648 146.5,-629 277.5,-629 277.5,-648"/>
<text text-anchor="middle" x="212" y="-636" font-family="Helvetica,sans-Serif" font-size="10.00">CharacterAnimationTrigger</text>
</a>
</g>
</g>
<!-- Node0&#45;&gt;Node1 -->
<g id="edge30_Node000000_Node000001" class="edge">
<title>Node0&#45;&gt;Node1</title>
<g id="a_edge30_Node000000_Node000001"><a xlink:title=" ">
<path fill="none" stroke="#63b8ff" d="M44.83,-343.11C52.34,-402.98 77.87,-581.73 119,-620.5 126.58,-627.65 136.12,-632.34 146.16,-635.37"/>
<polygon fill="#63b8ff" stroke="#63b8ff" points="48.29,-342.58 43.6,-333.08 41.34,-343.43 48.29,-342.58"/>
</a>
</g>
</g>
<!-- Node2 -->
<g id="Node000002" class="node">
<title>Node2</title>
<g id="a_Node000002"><a xlink:href="class_character_style_mapper.html" target="_top" xlink:title=" ">
<polygon fill="white" stroke="#666666" points="268.5,-611 155.5,-611 155.5,-592 268.5,-592 268.5,-611"/>
<text text-anchor="middle" x="212" y="-599" font-family="Helvetica,sans-Serif" font-size="10.00">CharacterStyleMapper</text>
</a>
</g>
</g>
<!-- Node0&#45;&gt;Node2 -->
<g id="edge31_Node000000_Node000002" class="edge">
<title>Node0&#45;&gt;Node2</title>
<g id="a_edge31_Node000000_Node000002"><a xlink:title=" ">
<path fill="none" stroke="#63b8ff" d="M41.91,-343.23C41.59,-391.97 48,-518.81 119,-583.5 128.99,-592.6 142.17,-597.69 155.42,-600.41"/>
<polygon fill="#63b8ff" stroke="#63b8ff" points="45.41,-343.14 42.08,-333.08 38.41,-343.02 45.41,-343.14"/>
</a>
</g>
</g>
<!-- Node3 -->
<g id="Node000003" class="node">
<title>Node3</title>
<g id="a_Node000003"><a xlink:href="class_circular_motion.html" target="_top" xlink:title=" ">
<polygon fill="white" stroke="#666666" points="251.5,-574 172.5,-574 172.5,-555 251.5,-555 251.5,-574"/>
<text text-anchor="middle" x="212" y="-562" font-family="Helvetica,sans-Serif" font-size="10.00">CircularMotion</text>
</a>
</g>
</g>
<!-- Node0&#45;&gt;Node3 -->
<g id="edge32_Node000000_Node000003" class="edge">
<title>Node0&#45;&gt;Node3</title>
<g id="a_edge32_Node000000_Node000003"><a xlink:title=" ">
<path fill="none" stroke="#63b8ff" d="M43.05,-343.65C45.4,-387.71 57.53,-492.94 119,-546.5 133.48,-559.12 154.16,-563.93 172.24,-565.45"/>
<polygon fill="#63b8ff" stroke="#63b8ff" points="46.53,-343.23 42.62,-333.39 39.54,-343.52 46.53,-343.23"/>
</a>
</g>
</g>
<!-- Node4 -->
<g id="Node000004" class="node">
<title>Node4</title>
<g id="a_Node000004"><a xlink:href="class_dialog_manager.html" target="_top" xlink:title=" ">
<polygon fill="white" stroke="#666666" points="252.5,-537 171.5,-537 171.5,-518 252.5,-518 252.5,-537"/>
<text text-anchor="middle" x="212" y="-525" font-family="Helvetica,sans-Serif" font-size="10.00">DialogManager</text>
</a>
</g>
</g>
<!-- Node0&#45;&gt;Node4 -->
<g id="edge33_Node000000_Node000004" class="edge">
<title>Node0&#45;&gt;Node4</title>
<g id="a_edge33_Node000000_Node000004"><a xlink:title=" ">
<path fill="none" stroke="#63b8ff" d="M44.58,-343.42C49.71,-381.93 66.64,-466.56 119,-509.5 133.47,-521.37 153.51,-526.21 171.19,-527.94"/>
<polygon fill="#63b8ff" stroke="#63b8ff" points="48,-342.56 43.34,-333.05 41.05,-343.4 48,-342.56"/>
</a>
</g>
</g>
<!-- Node5 -->
<g id="Node000005" class="node">
<title>Node5</title>
<g id="a_Node000005"><a xlink:href="class_dialog_text_and_character_styles_resetter.html" target="_top" xlink:title=" ">
<polygon fill="white" stroke="#666666" points="305,-500 119,-500 119,-481 305,-481 305,-500"/>
<text text-anchor="middle" x="212" y="-488" font-family="Helvetica,sans-Serif" font-size="10.00">DialogTextAndCharacterStylesResetter</text>
</a>
</g>
</g>
<!-- Node0&#45;&gt;Node5 -->
<g id="edge34_Node000000_Node000005" class="edge">
<title>Node0&#45;&gt;Node5</title>
<g id="a_edge34_Node000000_Node000005"><a xlink:title=" ">
<path fill="none" stroke="#63b8ff" d="M46.71,-343.04C54.76,-375.41 75.55,-439.82 119,-472.5 123.42,-475.83 128.29,-478.59 133.41,-480.87"/>
<polygon fill="#63b8ff" stroke="#63b8ff" points="50.06,-341.97 44.38,-333.03 43.24,-343.56 50.06,-341.97"/>
</a>
</g>
</g>
<!-- Node6 -->
<g id="Node000006" class="node">
<title>Node6</title>
<g id="a_Node000006"><a xlink:href="class_dialog_text_mapper.html" target="_top" xlink:title=" ">
<polygon fill="white" stroke="#666666" points="259.5,-463 164.5,-463 164.5,-444 259.5,-444 259.5,-463"/>
<text text-anchor="middle" x="212" y="-451" font-family="Helvetica,sans-Serif" font-size="10.00">DialogTextMapper</text>
</a>
</g>
</g>
<!-- Node0&#45;&gt;Node6 -->
<g id="edge35_Node000000_Node000006" class="edge">
<title>Node0&#45;&gt;Node6</title>
<g id="a_edge35_Node000000_Node000006"><a xlink:title=" ">
<path fill="none" stroke="#63b8ff" d="M49.98,-342.51C61.04,-367.98 84.26,-412.62 119,-435.5 132.32,-444.27 148.92,-448.97 164.35,-451.42"/>
<polygon fill="#63b8ff" stroke="#63b8ff" points="53.17,-341.07 46.1,-333.18 46.71,-343.76 53.17,-341.07"/>
</a>
</g>
</g>
<!-- Node7 -->
<g id="Node000007" class="node">
<title>Node7</title>
<g id="a_Node000007"><a xlink:href="class_disable_while_not_configured.html" target="_top" xlink:title=" ">
<polygon fill="white" stroke="#666666" points="279,-426 145,-426 145,-407 279,-407 279,-426"/>
<text text-anchor="middle" x="212" y="-414" font-family="Helvetica,sans-Serif" font-size="10.00">DisableWhileNotConfigured</text>
</a>
</g>
</g>
<!-- Node0&#45;&gt;Node7 -->
<g id="edge36_Node000000_Node000007" class="edge">
<title>Node0&#45;&gt;Node7</title>
<g id="a_edge36_Node000000_Node000007"><a xlink:title=" ">
<path fill="none" stroke="#63b8ff" d="M55.57,-341.35C69.34,-358.78 92.65,-384.64 119,-398.5 126.92,-402.67 135.69,-405.88 144.57,-408.34"/>
<polygon fill="#63b8ff" stroke="#63b8ff" points="58.13,-338.94 49.28,-333.12 52.57,-343.19 58.13,-338.94"/>
</a>
</g>
</g>
<!-- Node8 -->
<g id="Node000008" class="node">
<title>Node8</title>
<g id="a_Node000008"><a xlink:href="class_log_to_u_i.html" target="_top" xlink:title=" ">
<polygon fill="white" stroke="#666666" points="238,-389 186,-389 186,-370 238,-370 238,-389"/>
<text text-anchor="middle" x="212" y="-377" font-family="Helvetica,sans-Serif" font-size="10.00">LogToUI</text>
</a>
</g>
</g>
<!-- Node0&#45;&gt;Node8 -->
<g id="edge37_Node000000_Node000008" class="edge">
<title>Node0&#45;&gt;Node8</title>
<g id="a_edge37_Node000000_Node000008"><a xlink:title=" ">
<path fill="none" stroke="#63b8ff" d="M67.56,-338.08C82.15,-346.03 101.14,-355.44 119,-361.5 141.04,-368.98 167.16,-373.72 185.93,-376.45"/>
<polygon fill="#63b8ff" stroke="#63b8ff" points="69.1,-334.94 58.66,-333.13 65.7,-341.05 69.1,-334.94"/>
</a>
</g>
</g>
<!-- Node9 -->
<g id="Node000009" class="node">
<title>Node9</title>
<g id="a_Node000009"><a xlink:href="class_minimal_example.html" target="_top" xlink:title=" ">
<polygon fill="white" stroke="#666666" points="256.5,-352 167.5,-352 167.5,-333 256.5,-333 256.5,-352"/>
<text text-anchor="middle" x="212" y="-340" font-family="Helvetica,sans-Serif" font-size="10.00">MinimalExample</text>
</a>
</g>
</g>
<!-- Node0&#45;&gt;Node9 -->
<g id="edge38_Node000000_Node000009" class="edge">
<title>Node0&#45;&gt;Node9</title>
<g id="a_edge38_Node000000_Node000009"><a xlink:title=" ">
<path fill="none" stroke="#63b8ff" d="M93.45,-329.25C117.03,-331.9 144.74,-335.03 167.34,-337.58"/>
<polygon fill="#63b8ff" stroke="#63b8ff" points="93.62,-325.74 83.29,-328.1 92.83,-332.7 93.62,-325.74"/>
</a>
</g>
</g>
<!-- Node10 -->
<g id="Node000010" class="node">
<title>Node10</title>
<g id="a_Node000010"><a xlink:href="class_orbit_camera.html" target="_top" xlink:title=" ">
<polygon fill="white" stroke="#666666" points="247.5,-315 176.5,-315 176.5,-296 247.5,-296 247.5,-315"/>
<text text-anchor="middle" x="212" y="-303" font-family="Helvetica,sans-Serif" font-size="10.00">OrbitCamera</text>
</a>
</g>
</g>
<!-- Node0&#45;&gt;Node10 -->
<g id="edge39_Node000000_Node000010" class="edge">
<title>Node0&#45;&gt;Node10</title>
<g id="a_edge39_Node000000_Node000010"><a xlink:title=" ">
<path fill="none" stroke="#63b8ff" d="M93.28,-318.08C120.1,-315.21 152.33,-311.77 176.28,-309.21"/>
<polygon fill="#63b8ff" stroke="#63b8ff" points="92.86,-314.6 83.29,-319.14 93.6,-321.56 92.86,-314.6"/>
</a>
</g>
</g>
<!-- Node11 -->
<g id="Node000011" class="node">
<title>Node11</title>
<g id="a_Node000011"><a xlink:href="class_print_generated_text.html" target="_top" xlink:title=" ">
<polygon fill="white" stroke="#666666" points="262.5,-278 161.5,-278 161.5,-259 262.5,-259 262.5,-278"/>
<text text-anchor="middle" x="212" y="-266" font-family="Helvetica,sans-Serif" font-size="10.00">PrintGeneratedText</text>
</a>
</g>
</g>
<!-- Node0&#45;&gt;Node11 -->
<g id="edge40_Node000000_Node000011" class="edge">
<title>Node0&#45;&gt;Node11</title>
<g id="a_edge40_Node000000_Node000011"><a xlink:title=" ">
<path fill="none" stroke="#63b8ff" d="M68.53,-309.37C83.04,-301.98 101.64,-293.29 119,-287.5 132.46,-283.01 147.4,-279.38 161.25,-276.54"/>
<polygon fill="#63b8ff" stroke="#63b8ff" points="66.89,-306.28 59.64,-314 70.13,-312.48 66.89,-306.28"/>
</a>
</g>
</g>
<!-- Node12 -->
<g id="Node000012" class="node">
<title>Node12</title>
<g id="a_Node000012"><a xlink:href="class_print_model_state.html" target="_top" xlink:title=" ">
<polygon fill="white" stroke="#666666" points="255,-241 169,-241 169,-222 255,-222 255,-241"/>
<text text-anchor="middle" x="212" y="-229" font-family="Helvetica,sans-Serif" font-size="10.00">PrintModelState</text>
</a>
</g>
</g>
<!-- Node0&#45;&gt;Node12 -->
<g id="edge41_Node000000_Node000012" class="edge">
<title>Node0&#45;&gt;Node12</title>
<g id="a_edge41_Node000000_Node000012"><a xlink:title=" ">
<path fill="none" stroke="#63b8ff" d="M55.93,-305.91C69.83,-289.01 93.11,-264.07 119,-250.5 134.17,-242.55 152.37,-237.92 168.57,-235.23"/>
<polygon fill="#63b8ff" stroke="#63b8ff" points="53.04,-303.92 49.55,-313.92 58.52,-308.28 53.04,-303.92"/>
</a>
</g>
</g>
<!-- Node13 -->
<g id="Node000013" class="node">
<title>Node13</title>
<g id="a_Node000013"><a xlink:href="class_print_start_model_tokens_to_generate.html" target="_top" xlink:title=" ">
<polygon fill="white" stroke="#666666" points="295,-204 129,-204 129,-185 295,-185 295,-204"/>
<text text-anchor="middle" x="212" y="-192" font-family="Helvetica,sans-Serif" font-size="10.00">PrintStartModelTokensToGenerate</text>
</a>
</g>
</g>
<!-- Node0&#45;&gt;Node13 -->
<g id="edge42_Node000000_Node000013" class="edge">
<title>Node0&#45;&gt;Node13</title>
<g id="a_edge42_Node000000_Node000013"><a xlink:title=" ">
<path fill="none" stroke="#63b8ff" d="M50.27,-304.5C61.54,-279.48 84.87,-236.02 119,-213.5 124.85,-209.64 131.34,-206.54 138.07,-204.05"/>
<polygon fill="#63b8ff" stroke="#63b8ff" points="47.06,-303.12 46.31,-313.69 53.48,-305.9 47.06,-303.12"/>
</a>
</g>
</g>
<!-- Node14 -->
<g id="Node000014" class="node">
<title>Node14</title>
<g id="a_Node000014"><a xlink:href="class_print_stopwatch_score.html" target="_top" xlink:title=" ">
<polygon fill="white" stroke="#666666" points="266,-167 158,-167 158,-148 266,-148 266,-167"/>
<text text-anchor="middle" x="212" y="-155" font-family="Helvetica,sans-Serif" font-size="10.00">PrintStopwatchScore</text>
</a>
</g>
</g>
<!-- Node0&#45;&gt;Node14 -->
<g id="edge43_Node000000_Node000014" class="edge">
<title>Node0&#45;&gt;Node14</title>
<g id="a_edge43_Node000000_Node000014"><a xlink:title=" ">
<path fill="none" stroke="#63b8ff" d="M46.95,-303.81C55.26,-271.79 76.3,-208.78 119,-176.5 130.19,-168.04 144.24,-163.12 157.97,-160.32"/>
<polygon fill="#63b8ff" stroke="#63b8ff" points="43.49,-303.2 44.53,-313.74 50.3,-304.85 43.49,-303.2"/>
</a>
</g>
</g>
<!-- Node15 -->
<g id="Node000015" class="node">
<title>Node15</title>
<g id="a_Node000015"><a xlink:href="class_random_color.html" target="_top" xlink:title=" ">
<polygon fill="white" stroke="#666666" points="249.5,-130 174.5,-130 174.5,-111 249.5,-111 249.5,-130"/>
<text text-anchor="middle" x="212" y="-118" font-family="Helvetica,sans-Serif" font-size="10.00">RandomColor</text>
</a>
</g>
</g>
<!-- Node0&#45;&gt;Node15 -->
<g id="edge44_Node000000_Node000015" class="edge">
<title>Node0&#45;&gt;Node15</title>
<g id="a_edge44_Node000000_Node000015"><a xlink:title=" ">
<path fill="none" stroke="#63b8ff" d="M44.76,-303.3C50.17,-265.03 67.51,-182.02 119,-139.5 134.34,-126.83 155.96,-121.92 174.38,-120.25"/>
<polygon fill="#63b8ff" stroke="#63b8ff" points="41.24,-303.28 43.44,-313.64 48.18,-304.17 41.24,-303.28"/>
</a>
</g>
</g>
<!-- Node16 -->
<g id="Node000016" class="node">
<title>Node16</title>
<g id="a_Node000016"><a xlink:href="class_random_spin.html" target="_top" xlink:title=" ">
<polygon fill="white" stroke="#666666" points="248,-93 176,-93 176,-74 248,-74 248,-93"/>
<text text-anchor="middle" x="212" y="-81" font-family="Helvetica,sans-Serif" font-size="10.00">RandomSpin</text>
</a>
</g>
</g>
<!-- Node0&#45;&gt;Node16 -->
<g id="edge45_Node000000_Node000016" class="edge">
<title>Node0&#45;&gt;Node16</title>
<g id="a_edge45_Node000000_Node000016"><a xlink:title=" ">
<path fill="none" stroke="#63b8ff" d="M43.15,-303.57C45.71,-259.99 58.23,-155.87 119,-102.5 134.44,-88.94 156.97,-84.13 175.87,-82.73"/>
<polygon fill="#63b8ff" stroke="#63b8ff" points="39.65,-303.57 42.68,-313.72 46.64,-303.9 39.65,-303.57"/>
</a>
</g>
</g>
<!-- Node17 -->
<g id="Node000017" class="node">
<title>Node17</title>
<g id="a_Node000017"><a xlink:href="class_run_model_async.html" target="_top" xlink:title=" ">
<polygon fill="white" stroke="#666666" points="256,-56 168,-56 168,-37 256,-37 256,-56"/>
<text text-anchor="middle" x="212" y="-44" font-family="Helvetica,sans-Serif" font-size="10.00">RunModelAsync</text>
</a>
</g>
</g>
<!-- Node0&#45;&gt;Node17 -->
<g id="edge46_Node000000_Node000017" class="edge">
<title>Node0&#45;&gt;Node17</title>
<g id="a_edge46_Node000000_Node000017"><a xlink:title=" ">
<path fill="none" stroke="#63b8ff" d="M42,-303.64C41.93,-255.12 48.93,-129.88 119,-65.5 132.09,-53.47 150.71,-48.24 167.78,-46.2"/>
<polygon fill="#63b8ff" stroke="#63b8ff" points="38.5,-303.8 42.12,-313.75 45.5,-303.71 38.5,-303.8"/>
</a>
</g>
</g>
<!-- Node18 -->
<g id="Node000018" class="node">
<title>Node18</title>
<g id="a_Node000018"><a xlink:href="class_set_string_value_from_float.html" target="_top" xlink:title=" ">
<polygon fill="white" stroke="#666666" points="275,-19 149,-19 149,0 275,0 275,-19"/>
<text text-anchor="middle" x="212" y="-7" font-family="Helvetica,sans-Serif" font-size="10.00">SetStringValueFromFloat</text>
</a>
</g>
</g>
<!-- Node0&#45;&gt;Node18 -->
<g id="edge47_Node000000_Node000018" class="edge">
<title>Node0&#45;&gt;Node18</title>
<g id="a_edge47_Node000000_Node000018"><a xlink:title=" ">
<path fill="none" stroke="#63b8ff" d="M44.87,-304.04C52.49,-244.62 78.3,-67.21 119,-28.5 127.27,-20.63 137.9,-15.65 148.97,-12.55"/>
<polygon fill="#63b8ff" stroke="#63b8ff" points="41.39,-303.64 43.62,-313.99 48.34,-304.51 41.39,-303.64"/>
</a>
</g>
</g>
</g>
</svg>
