<?xml version="1.0" encoding="UTF-8" standalone="no"?>
<!DOCTYPE svg PUBLIC "-//W3C//DTD SVG 1.1//EN"
 "http://www.w3.org/Graphics/SVG/1.1/DTD/svg11.dtd">
<!-- Generated by graphviz version 6.0.1 (20220911.1526)
 -->
<!-- Title: Graphical Class Hierarchy Pages: 1 -->
<svg width="446pt" height="64pt"
 viewBox="0.00 0.00 446.00 64.00" xmlns="http://www.w3.org/2000/svg" xmlns:xlink="http://www.w3.org/1999/xlink">
<g id="graph0" class="graph" transform="scale(1 1) rotate(0) translate(4 60)">
<title>Graphical Class Hierarchy</title>
<!-- Node0 -->
<g id="Node000000" class="node">
<title>Node0</title>
<g id="a_Node000000"><a xlink:title=" ">
<polygon fill="#e0e0e0" stroke="#999999" points="89,-37 0,-37 0,-18 89,-18 89,-37"/>
<text text-anchor="middle" x="44.5" y="-25" font-family="Helvetica,sans-Serif" font-size="10.00">ScriptableObject</text>
</a>
</g>
</g>
<!-- Node1 -->
<g id="Node000001" class="node">
<title>Node1</title>
<g id="a_Node000001"><a xlink:href="$class_assets_1_1_styled_lines_1_1_runtime_1_1_model_files_u_i_1_1_basic_gpt_params_settings.html" xlink:title=" ">
<polygon fill="white" stroke="#666666" points="438,-56 125,-56 125,-37 438,-37 438,-56"/>
<text text-anchor="middle" x="281.5" y="-44" font-family="Helvetica,sans-Serif" font-size="10.00">Assets.StyledLines.Runtime.ModelFilesUI.BasicGptParamsSettings</text>
</a>
</g>
</g>
<!-- Node0&#45;&gt;Node1 -->
<g id="edge47_Node000000_Node000001" class="edge">
<title>Node0&#45;&gt;Node1</title>
<g id="a_edge47_Node000000_Node000001"><a xlink:title=" ">
<path fill="none" stroke="#63b8ff" d="M99.35,-31.85C118.33,-33.39 140.48,-35.18 162.65,-36.97"/>
<polygon fill="#63b8ff" stroke="#63b8ff" points="99.4,-28.35 89.15,-31.03 98.84,-35.32 99.4,-28.35"/>
</a>
</g>
</g>
<!-- Node2 -->
<g id="Node000002" class="node">
<title>Node2</title>
<g id="a_Node000002"><a xlink:href="$class_assets_1_1_styled_lines_1_1_runtime_1_1_model_files_u_i_1_1_binary_asset.html" xlink:title=" ">
<polygon fill="white" stroke="#666666" points="409.5,-19 153.5,-19 153.5,0 409.5,0 409.5,-19"/>
<text text-anchor="middle" x="281.5" y="-7" font-family="Helvetica,sans-Serif" font-size="10.00">Assets.StyledLines.Runtime.ModelFilesUI.BinaryAsset</text>
</a>
</g>
</g>
<!-- Node0&#45;&gt;Node2 -->
<g id="edge48_Node000000_Node000002" class="edge">
<title>Node0&#45;&gt;Node2</title>
<g id="a_edge48_Node000000_Node000002"><a xlink:title=" ">
<path fill="none" stroke="#63b8ff" d="M99.45,-23.37C116.55,-22.06 136.23,-20.55 156.17,-19.02"/>
<polygon fill="#63b8ff" stroke="#63b8ff" points="98.85,-19.9 89.15,-24.16 99.39,-26.88 98.85,-19.9"/>
</a>
</g>
</g>
</g>
</svg>
