<?xml version="1.0" encoding="UTF-8" standalone="no"?>
<!DOCTYPE svg PUBLIC "-//W3C//DTD SVG 1.1//EN"
 "http://www.w3.org/Graphics/SVG/1.1/DTD/svg11.dtd">
<!-- Generated by graphviz version 6.0.1 (20220911.1526)
 -->
<!-- Title: Graphical Class Hierarchy Pages: 1 -->
<svg width="570pt" height="669pt"
 viewBox="0.00 0.00 570.00 668.64" xmlns="http://www.w3.org/2000/svg" xmlns:xlink="http://www.w3.org/1999/xlink">
<g id="graph0" class="graph" transform="scale(1 1) rotate(0) translate(4 664.64)">
<title>Graphical Class Hierarchy</title>
<!-- Node0 -->
<g id="Node000000" class="node">
<title>Node0</title>
<g id="a_Node000000"><a xlink:title=" ">
<polygon fill="#e0e0e0" stroke="#999999" points="83,-339 0,-339 0,-320 83,-320 83,-339"/>
<text text-anchor="middle" x="41.5" y="-327" font-family="Helvetica,sans-Serif" font-size="10.00">MonoBehaviour</text>
</a>
</g>
</g>
<!-- Node1 -->
<g id="Node000001" class="node">
<title>Node1</title>
<g id="a_Node000001"><a xlink:href="$class_assets_1_1_styled_lines_1_1_runtime_1_1_dialog_utils_1_1_character_style_mapper.html" xlink:title=" ">
<polygon fill="white" stroke="#666666" points="485.5,-654 195.5,-654 195.5,-635 485.5,-635 485.5,-654"/>
<text text-anchor="middle" x="340.5" y="-642" font-family="Helvetica,sans-Serif" font-size="10.00">Assets.StyledLines.Runtime.DialogUtils.CharacterStyleMapper</text>
</a>
</g>
</g>
<!-- Node0&#45;&gt;Node1 -->
<g id="edge29_Node000000_Node000001" class="edge">
<title>Node0&#45;&gt;Node1</title>
<g id="a_edge29_Node000000_Node000001"><a xlink:title=" ">
<path fill="none" stroke="#63b8ff" d="M44.65,-349.31C51.63,-409.78 75.77,-590.08 119,-626.5 168.94,-668.57 249.79,-662.7 298.47,-654.01"/>
<polygon fill="#63b8ff" stroke="#63b8ff" points="48.1,-348.73 43.51,-339.18 41.15,-349.51 48.1,-348.73"/>
</a>
</g>
</g>
<!-- Node2 -->
<g id="Node000002" class="node">
<title>Node2</title>
<g id="a_Node000002"><a xlink:href="$class_assets_1_1_styled_lines_1_1_runtime_1_1_dialog_utils_1_1_dialog_manager.html" xlink:title=" ">
<polygon fill="white" stroke="#666666" points="469,-617 212,-617 212,-598 469,-598 469,-617"/>
<text text-anchor="middle" x="340.5" y="-605" font-family="Helvetica,sans-Serif" font-size="10.00">Assets.StyledLines.Runtime.DialogUtils.DialogManager</text>
</a>
</g>
</g>
<!-- Node0&#45;&gt;Node2 -->
<g id="edge30_Node000000_Node000002" class="edge">
<title>Node0&#45;&gt;Node2</title>
<g id="a_edge30_Node000000_Node000002"><a xlink:title=" ">
<path fill="none" stroke="#63b8ff" d="M45.42,-349.33C53.98,-404.62 80.84,-558.45 119,-589.5 169.05,-630.23 248.37,-625.25 296.99,-617.02"/>
<polygon fill="#63b8ff" stroke="#63b8ff" points="48.83,-348.48 43.87,-339.11 41.91,-349.52 48.83,-348.48"/>
</a>
</g>
</g>
<!-- Node3 -->
<g id="Node000003" class="node">
<title>Node3</title>
<g id="a_Node000003"><a xlink:href="$class_assets_1_1_styled_lines_1_1_runtime_1_1_dialog_utils_1_1_dialog_text_and_character_styles_resetter.html" xlink:title=" ">
<polygon fill="white" stroke="#666666" points="521.5,-580 159.5,-580 159.5,-561 521.5,-561 521.5,-580"/>
<text text-anchor="middle" x="340.5" y="-568" font-family="Helvetica,sans-Serif" font-size="10.00">Assets.StyledLines.Runtime.DialogUtils.DialogTextAndCharacterStylesResetter</text>
</a>
</g>
</g>
<!-- Node0&#45;&gt;Node3 -->
<g id="edge31_Node000000_Node000003" class="edge">
<title>Node0&#45;&gt;Node3</title>
<g id="a_edge31_Node000000_Node000003"><a xlink:title=" ">
<path fill="none" stroke="#63b8ff" d="M42.59,-349.27C43.98,-393.82 54.2,-502.12 119,-552.5 169.03,-591.4 246.17,-587.63 294.69,-580.04"/>
<polygon fill="#63b8ff" stroke="#63b8ff" points="46.09,-349.09 42.4,-339.16 39.09,-349.23 46.09,-349.09"/>
</a>
</g>
</g>
<!-- Node4 -->
<g id="Node000004" class="node">
<title>Node4</title>
<g id="a_Node000004"><a xlink:href="$class_assets_1_1_styled_lines_1_1_runtime_1_1_dialog_utils_1_1_dialog_text_mapper.html" xlink:title=" ">
<polygon fill="white" stroke="#666666" points="476,-543 205,-543 205,-524 476,-524 476,-543"/>
<text text-anchor="middle" x="340.5" y="-531" font-family="Helvetica,sans-Serif" font-size="10.00">Assets.StyledLines.Runtime.DialogUtils.DialogTextMapper</text>
</a>
</g>
</g>
<!-- Node0&#45;&gt;Node4 -->
<g id="edge32_Node000000_Node000004" class="edge">
<title>Node0&#45;&gt;Node4</title>
<g id="a_edge32_Node000000_Node000004"><a xlink:title=" ">
<path fill="none" stroke="#63b8ff" d="M44.11,-349.44C48.45,-388.64 64.09,-475.38 119,-515.5 168.77,-551.87 242.81,-549.71 291.12,-543.04"/>
<polygon fill="#63b8ff" stroke="#63b8ff" points="47.58,-348.93 43.13,-339.32 40.61,-349.61 47.58,-348.93"/>
</a>
</g>
</g>
<!-- Node5 -->
<g id="Node000005" class="node">
<title>Node5</title>
<g id="a_Node000005"><a xlink:href="$class_assets_1_1_styled_lines_1_1_runtime_1_1_llama_infrence_unity_1_1_minimal_example.html" xlink:title=" ">
<polygon fill="white" stroke="#666666" points="491,-506 190,-506 190,-487 491,-487 491,-506"/>
<text text-anchor="middle" x="340.5" y="-494" font-family="Helvetica,sans-Serif" font-size="10.00">Assets.StyledLines.Runtime.LlamaInfrenceUnity.MinimalExample</text>
</a>
</g>
</g>
<!-- Node0&#45;&gt;Node5 -->
<g id="edge33_Node000000_Node000005" class="edge">
<title>Node0&#45;&gt;Node5</title>
<g id="a_edge33_Node000000_Node000005"><a xlink:title=" ">
<path fill="none" stroke="#63b8ff" d="M46.23,-349.14C53.64,-382.17 73.6,-448.17 119,-478.5 167.7,-511.04 236.63,-511.2 284.4,-506.01"/>
<polygon fill="#63b8ff" stroke="#63b8ff" points="49.65,-348.38 44.18,-339.31 42.79,-349.81 49.65,-348.38"/>
</a>
</g>
</g>
<!-- Node6 -->
<g id="Node000006" class="node">
<title>Node6</title>
<g id="a_Node000006"><a xlink:href="$class_assets_1_1_styled_lines_1_1_runtime_1_1_llama_infrence_unity_1_1_run_model_async.html" xlink:title=" ">
<polygon fill="white" stroke="#666666" points="490.5,-469 190.5,-469 190.5,-450 490.5,-450 490.5,-469"/>
<text text-anchor="middle" x="340.5" y="-457" font-family="Helvetica,sans-Serif" font-size="10.00">Assets.StyledLines.Runtime.LlamaInfrenceUnity.RunModelAsync</text>
</a>
</g>
</g>
<!-- Node0&#45;&gt;Node6 -->
<g id="edge34_Node000000_Node000006" class="edge">
<title>Node0&#45;&gt;Node6</title>
<g id="a_edge34_Node000000_Node000006"><a xlink:title=" ">
<path fill="none" stroke="#63b8ff" d="M49.47,-348.69C60.05,-374.75 82.86,-420.49 119,-441.5 161.67,-466.3 217.06,-470.74 261.65,-469.01"/>
<polygon fill="#63b8ff" stroke="#63b8ff" points="52.65,-347.22 45.79,-339.16 46.12,-349.75 52.65,-347.22"/>
</a>
</g>
</g>
<!-- Node7 -->
<g id="Node000007" class="node">
<title>Node7</title>
<g id="a_Node000007"><a xlink:href="$class_assets_1_1_styled_lines_1_1_runtime_1_1_u_i_helpers_1_1_disable_while_not_configured.html" xlink:title=" ">
<polygon fill="white" stroke="#666666" points="493.5,-432 187.5,-432 187.5,-413 493.5,-413 493.5,-432"/>
<text text-anchor="middle" x="340.5" y="-420" font-family="Helvetica,sans-Serif" font-size="10.00">Assets.StyledLines.Runtime.UIHelpers.DisableWhileNotConfigured</text>
</a>
</g>
</g>
<!-- Node0&#45;&gt;Node7 -->
<g id="edge35_Node000000_Node000007" class="edge">
<title>Node0&#45;&gt;Node7</title>
<g id="a_edge35_Node000000_Node000007"><a xlink:title=" ">
<path fill="none" stroke="#63b8ff" d="M55.05,-347.7C68.54,-365.62 91.77,-392.06 119,-404.5 140.22,-414.19 163.79,-420.3 187.4,-423.98"/>
<polygon fill="#63b8ff" stroke="#63b8ff" points="57.61,-345.27 48.91,-339.22 51.94,-349.37 57.61,-345.27"/>
</a>
</g>
</g>
<!-- Node8 -->
<g id="Node000008" class="node">
<title>Node8</title>
<g id="a_Node000008"><a xlink:href="$class_assets_1_1_styled_lines_1_1_runtime_1_1_u_i_helpers_1_1_log_to_u_i.html" xlink:title=" ">
<polygon fill="white" stroke="#666666" points="452.5,-395 228.5,-395 228.5,-376 452.5,-376 452.5,-395"/>
<text text-anchor="middle" x="340.5" y="-383" font-family="Helvetica,sans-Serif" font-size="10.00">Assets.StyledLines.Runtime.UIHelpers.LogToUI</text>
</a>
</g>
</g>
<!-- Node0&#45;&gt;Node8 -->
<g id="edge36_Node000000_Node000008" class="edge">
<title>Node0&#45;&gt;Node8</title>
<g id="a_edge36_Node000000_Node000008"><a xlink:title=" ">
<path fill="none" stroke="#63b8ff" d="M66.21,-344.22C80.86,-352.55 100.37,-362.32 119,-367.5 153.88,-377.2 192.96,-382.2 228.43,-384.64"/>
<polygon fill="#63b8ff" stroke="#63b8ff" points="67.74,-341.06 57.34,-339.01 64.19,-347.09 67.74,-341.06"/>
</a>
</g>
</g>
<!-- Node9 -->
<g id="Node000009" class="node">
<title>Node9</title>
<g id="a_Node000009"><a xlink:href="$class_assets_1_1_styled_lines_1_1_runtime_1_1_u_i_helpers_1_1_print_generated_text.html" xlink:title=" ">
<polygon fill="white" stroke="#666666" points="476.5,-358 204.5,-358 204.5,-339 476.5,-339 476.5,-358"/>
<text text-anchor="middle" x="340.5" y="-346" font-family="Helvetica,sans-Serif" font-size="10.00">Assets.StyledLines.Runtime.UIHelpers.PrintGeneratedText</text>
</a>
</g>
</g>
<!-- Node0&#45;&gt;Node9 -->
<g id="edge37_Node000000_Node000009" class="edge">
<title>Node0&#45;&gt;Node9</title>
<g id="a_edge37_Node000000_Node000009"><a xlink:title=" ">
<path fill="none" stroke="#63b8ff" d="M93.2,-332.74C123.96,-334.71 164.79,-337.32 204.35,-339.85"/>
<polygon fill="#63b8ff" stroke="#63b8ff" points="93.38,-329.25 83.17,-332.1 92.93,-336.23 93.38,-329.25"/>
</a>
</g>
</g>
<!-- Node10 -->
<g id="Node000010" class="node">
<title>Node10</title>
<g id="a_Node000010"><a xlink:href="$class_assets_1_1_styled_lines_1_1_runtime_1_1_u_i_helpers_1_1_print_model_state.html" xlink:title=" ">
<polygon fill="white" stroke="#666666" points="469.5,-321 211.5,-321 211.5,-302 469.5,-302 469.5,-321"/>
<text text-anchor="middle" x="340.5" y="-309" font-family="Helvetica,sans-Serif" font-size="10.00">Assets.StyledLines.Runtime.UIHelpers.PrintModelState</text>
</a>
</g>
</g>
<!-- Node0&#45;&gt;Node10 -->
<g id="edge38_Node000000_Node000010" class="edge">
<title>Node0&#45;&gt;Node10</title>
<g id="a_edge38_Node000000_Node000010"><a xlink:title=" ">
<path fill="none" stroke="#63b8ff" d="M93.33,-326.42C125.88,-324.45 169.69,-321.79 211.32,-319.27"/>
<polygon fill="#63b8ff" stroke="#63b8ff" points="92.94,-322.94 83.17,-327.03 93.37,-329.92 92.94,-322.94"/>
</a>
</g>
</g>
<!-- Node11 -->
<g id="Node000011" class="node">
<title>Node11</title>
<g id="a_Node000011"><a xlink:href="$class_assets_1_1_styled_lines_1_1_runtime_1_1_u_i_helpers_1_1_print_start_model_tokens_to_generate.html" xlink:title=" ">
<polygon fill="white" stroke="#666666" points="509.5,-284 171.5,-284 171.5,-265 509.5,-265 509.5,-284"/>
<text text-anchor="middle" x="340.5" y="-272" font-family="Helvetica,sans-Serif" font-size="10.00">Assets.StyledLines.Runtime.UIHelpers.PrintStartModelTokensToGenerate</text>
</a>
</g>
</g>
<!-- Node0&#45;&gt;Node11 -->
<g id="edge39_Node000000_Node000011" class="edge">
<title>Node0&#45;&gt;Node11</title>
<g id="a_edge39_Node000000_Node000011"><a xlink:title=" ">
<path fill="none" stroke="#63b8ff" d="M67.43,-315.01C81.99,-307.26 100.98,-298.35 119,-293.5 135.79,-288.98 153.53,-285.47 171.37,-282.74"/>
<polygon fill="#63b8ff" stroke="#63b8ff" points="65.65,-311.99 58.57,-319.87 69.02,-318.13 65.65,-311.99"/>
</a>
</g>
</g>
<!-- Node12 -->
<g id="Node000012" class="node">
<title>Node12</title>
<g id="a_Node000012"><a xlink:href="$class_assets_1_1_styled_lines_1_1_runtime_1_1_u_i_helpers_1_1_print_stopwatch_score.html" xlink:title=" ">
<polygon fill="white" stroke="#666666" points="480.5,-247 200.5,-247 200.5,-228 480.5,-228 480.5,-247"/>
<text text-anchor="middle" x="340.5" y="-235" font-family="Helvetica,sans-Serif" font-size="10.00">Assets.StyledLines.Runtime.UIHelpers.PrintStopwatchScore</text>
</a>
</g>
</g>
<!-- Node0&#45;&gt;Node12 -->
<g id="edge40_Node000000_Node000012" class="edge">
<title>Node0&#45;&gt;Node12</title>
<g id="a_edge40_Node000000_Node000012"><a xlink:title=" ">
<path fill="none" stroke="#63b8ff" d="M55.39,-311.53C69.01,-294.11 92.21,-268.59 119,-256.5 144.13,-245.16 172.49,-238.68 200.3,-235.23"/>
<polygon fill="#63b8ff" stroke="#63b8ff" points="52.39,-309.69 49.17,-319.79 57.98,-313.91 52.39,-309.69"/>
</a>
</g>
</g>
<!-- Node13 -->
<g id="Node000013" class="node">
<title>Node13</title>
<g id="a_Node000013"><a xlink:href="$class_assets_1_1_styled_lines_1_1_samples_1_1_automated_conversation_example_1_1_runtime_1_1_character_animation_trigger.html" xlink:title=" ">
<polygon fill="white" stroke="#666666" points="562,-210 119,-210 119,-191 562,-191 562,-210"/>
<text text-anchor="middle" x="340.5" y="-198" font-family="Helvetica,sans-Serif" font-size="10.00">Assets.StyledLines.Samples.AutomatedConversationExample.Runtime.CharacterAnimationTrigger</text>
</a>
</g>
</g>
<!-- Node0&#45;&gt;Node13 -->
<g id="edge41_Node000000_Node000013" class="edge">
<title>Node0&#45;&gt;Node13</title>
<g id="a_edge41_Node000000_Node000013"><a xlink:title=" ">
<path fill="none" stroke="#63b8ff" d="M49.74,-310.28C60.52,-284.64 83.43,-240.08 119,-219.5 125.15,-215.94 131.57,-212.79 138.17,-210.02"/>
<polygon fill="#63b8ff" stroke="#63b8ff" points="46.44,-309.11 45.97,-319.69 52.94,-311.71 46.44,-309.11"/>
</a>
</g>
</g>
<!-- Node14 -->
<g id="Node000014" class="node">
<title>Node14</title>
<g id="a_Node000014"><a xlink:href="$class_assets_1_1_styled_lines_1_1_samples_1_1_automated_conversation_example_1_1_runtime_1_1_orbit_camera.html" xlink:title=" ">
<polygon fill="white" stroke="#666666" points="532,-173 149,-173 149,-154 532,-154 532,-173"/>
<text text-anchor="middle" x="340.5" y="-161" font-family="Helvetica,sans-Serif" font-size="10.00">Assets.StyledLines.Samples.AutomatedConversationExample.Runtime.OrbitCamera</text>
</a>
</g>
</g>
<!-- Node0&#45;&gt;Node14 -->
<g id="edge42_Node000000_Node000014" class="edge">
<title>Node0&#45;&gt;Node14</title>
<g id="a_edge42_Node000000_Node000014"><a xlink:title=" ">
<path fill="none" stroke="#63b8ff" d="M46.43,-309.7C54.07,-277 74.26,-212.35 119,-182.5 166.46,-150.83 233.06,-149.51 280.62,-153.98"/>
<polygon fill="#63b8ff" stroke="#63b8ff" points="42.93,-309.31 44.23,-319.83 49.77,-310.8 42.93,-309.31"/>
</a>
</g>
</g>
<!-- Node15 -->
<g id="Node000015" class="node">
<title>Node15</title>
<g id="a_Node000015"><a xlink:href="$class_assets_1_1_styled_lines_1_1_samples_1_1_basic_debug_1_1_runtime_1_1_circular_motion.html" xlink:title=" ">
<polygon fill="white" stroke="#666666" points="491.5,-136 189.5,-136 189.5,-117 491.5,-117 491.5,-136"/>
<text text-anchor="middle" x="340.5" y="-124" font-family="Helvetica,sans-Serif" font-size="10.00">Assets.StyledLines.Samples.BasicDebug.Runtime.CircularMotion</text>
</a>
</g>
</g>
<!-- Node0&#45;&gt;Node15 -->
<g id="edge43_Node000000_Node000015" class="edge">
<title>Node0&#45;&gt;Node15</title>
<g id="a_edge43_Node000000_Node000015"><a xlink:title=" ">
<path fill="none" stroke="#63b8ff" d="M44.2,-309.78C48.7,-271.04 64.61,-185.27 119,-145.5 168.01,-109.67 240.51,-110.83 288.84,-116.97"/>
<polygon fill="#63b8ff" stroke="#63b8ff" points="40.71,-309.49 43.18,-319.79 47.68,-310.2 40.71,-309.49"/>
</a>
</g>
</g>
<!-- Node16 -->
<g id="Node000016" class="node">
<title>Node16</title>
<g id="a_Node000016"><a xlink:href="$class_assets_1_1_styled_lines_1_1_samples_1_1_basic_debug_1_1_runtime_1_1_random_color.html" xlink:title=" ">
<polygon fill="white" stroke="#666666" points="490,-99 191,-99 191,-80 490,-80 490,-99"/>
<text text-anchor="middle" x="340.5" y="-87" font-family="Helvetica,sans-Serif" font-size="10.00">Assets.StyledLines.Samples.BasicDebug.Runtime.RandomColor</text>
</a>
</g>
</g>
<!-- Node0&#45;&gt;Node16 -->
<g id="edge44_Node000000_Node000016" class="edge">
<title>Node0&#45;&gt;Node16</title>
<g id="a_edge44_Node000000_Node000016"><a xlink:title=" ">
<path fill="none" stroke="#63b8ff" d="M42.67,-309.92C44.22,-265.8 54.76,-158.53 119,-108.5 168.41,-70.01 244.29,-72.83 292.9,-79.96"/>
<polygon fill="#63b8ff" stroke="#63b8ff" points="39.17,-309.85 42.44,-319.93 46.17,-310.01 39.17,-309.85"/>
</a>
</g>
</g>
<!-- Node17 -->
<g id="Node000017" class="node">
<title>Node17</title>
<g id="a_Node000017"><a xlink:href="$class_assets_1_1_styled_lines_1_1_samples_1_1_basic_debug_1_1_runtime_1_1_random_spin.html" xlink:title=" ">
<polygon fill="white" stroke="#666666" points="488.5,-62 192.5,-62 192.5,-43 488.5,-43 488.5,-62"/>
<text text-anchor="middle" x="340.5" y="-50" font-family="Helvetica,sans-Serif" font-size="10.00">Assets.StyledLines.Samples.BasicDebug.Runtime.RandomSpin</text>
</a>
</g>
</g>
<!-- Node0&#45;&gt;Node17 -->
<g id="edge45_Node000000_Node000017" class="edge">
<title>Node0&#45;&gt;Node17</title>
<g id="a_edge45_Node000000_Node000017"><a xlink:title=" ">
<path fill="none" stroke="#63b8ff" d="M45.45,-309.82C54.09,-254.97 81.15,-102.38 119,-71.5 168.42,-31.18 246.47,-35.16 295.23,-42.94"/>
<polygon fill="#63b8ff" stroke="#63b8ff" points="41.95,-309.55 43.89,-319.96 48.87,-310.61 41.95,-309.55"/>
</a>
</g>
</g>
<!-- Node18 -->
<g id="Node000018" class="node">
<title>Node18</title>
<g id="a_Node000018"><a xlink:href="$class_assets_1_1_styled_lines_1_1_samples_1_1_basic_debug_1_1_runtime_1_1_set_string_value_from_float.html" xlink:title=" ">
<polygon fill="white" stroke="#666666" points="515.5,-25 165.5,-25 165.5,-6 515.5,-6 515.5,-25"/>
<text text-anchor="middle" x="340.5" y="-13" font-family="Helvetica,sans-Serif" font-size="10.00">Assets.StyledLines.Samples.BasicDebug.Runtime.SetStringValueFromFloat</text>
</a>
</g>
</g>
<!-- Node0&#45;&gt;Node18 -->
<g id="edge46_Node000000_Node000018" class="edge">
<title>Node0&#45;&gt;Node18</title>
<g id="a_edge46_Node000000_Node000018"><a xlink:title=" ">
<path fill="none" stroke="#63b8ff" d="M44.67,-309.83C51.74,-249.78 76.1,-70.75 119,-34.5 168.46,7.28 248.33,2.3 297.16,-6"/>
<polygon fill="#63b8ff" stroke="#63b8ff" points="41.18,-309.55 43.52,-319.88 48.14,-310.35 41.18,-309.55"/>
</a>
</g>
</g>
</g>
</svg>
