<?xml version="1.0" encoding="UTF-8" standalone="no"?>
<!DOCTYPE svg PUBLIC "-//W3C//DTD SVG 1.1//EN"
 "http://www.w3.org/Graphics/SVG/1.1/DTD/svg11.dtd">
<!-- Generated by graphviz version 6.0.1 (20220911.1526)
 -->
<!-- Title: Graphical Class Hierarchy Pages: 1 -->
<svg width="467pt" height="397pt"
 viewBox="0.00 0.00 467.00 397.00" xmlns="http://www.w3.org/2000/svg" xmlns:xlink="http://www.w3.org/1999/xlink">
<g id="graph0" class="graph" transform="scale(1 1) rotate(0) translate(4 393)">
<title>Graphical Class Hierarchy</title>
<!-- Node0 -->
<g id="Node000000" class="node">
<title>Node0</title>
<g id="a_Node000000"><a xlink:title=" ">
<polygon fill="#e0e0e0" stroke="#999999" points="221,-370 0,-370 0,-351 221,-351 221,-370"/>
<text text-anchor="middle" x="110.5" y="-358" font-family="Helvetica,sans-Serif" font-size="10.00">global.SystemCollections.Generic.IEnumerable</text>
</a>
</g>
</g>
<!-- Node1 -->
<g id="Node000001" class="node">
<title>Node1</title>
<g id="a_Node000001"><a xlink:href="$class_llama_library_1_1_llama_control_vector_load_infos.html" xlink:title=" ">
<polygon fill="white" stroke="#666666" points="459,-352 257,-352 257,-333 459,-333 459,-352"/>
<text text-anchor="middle" x="358" y="-340" font-family="Helvetica,sans-Serif" font-size="10.00">LlamaLibrary.LlamaControlVectorLoadInfos</text>
</a>
</g>
</g>
<!-- Node0&#45;&gt;Node1 -->
<g id="edge2_Node000000_Node000001" class="edge">
<title>Node0&#45;&gt;Node1</title>
<g id="a_edge2_Node000000_Node000001"><a xlink:title=" ">
<path fill="none" stroke="#63b8ff" d="M231.37,-351.71C239.95,-351.08 248.54,-350.45 256.98,-349.83"/>
<polygon fill="#63b8ff" stroke="#63b8ff" points="231.04,-348.23 221.33,-352.45 231.55,-355.21 231.04,-348.23"/>
</a>
</g>
</g>
<!-- Node12 -->
<g id="Node000012" class="node">
<title>Node12</title>
<g id="a_Node000012"><a xlink:href="$class_llama_library_1_1_strings_and_floats.html" xlink:title=" ">
<polygon fill="white" stroke="#666666" points="433,-389 283,-389 283,-370 433,-370 433,-389"/>
<text text-anchor="middle" x="358" y="-377" font-family="Helvetica,sans-Serif" font-size="10.00">LlamaLibrary.StringsAndFloats</text>
</a>
</g>
</g>
<!-- Node0&#45;&gt;Node12 -->
<g id="edge3_Node000000_Node000012" class="edge">
<title>Node0&#45;&gt;Node12</title>
<g id="a_edge3_Node000000_Node000012"><a xlink:title=" ">
<path fill="none" stroke="#63b8ff" d="M231.6,-369.79C249.08,-371.15 266.63,-372.51 282.83,-373.76"/>
<polygon fill="#63b8ff" stroke="#63b8ff" points="231.57,-366.28 221.33,-369 231.03,-373.26 231.57,-366.28"/>
</a>
</g>
</g>
<!-- Node2 -->
<g id="Node000002" class="node">
<title>Node2</title>
<g id="a_Node000002"><a xlink:title=" ">
<polygon fill="#e0e0e0" stroke="#999999" points="202.5,-333 18.5,-333 18.5,-314 202.5,-314 202.5,-333"/>
<text text-anchor="middle" x="110.5" y="-321" font-family="Helvetica,sans-Serif" font-size="10.00">global.SystemCollections.IEnumerable</text>
</a>
</g>
</g>
<!-- Node2&#45;&gt;Node1 -->
<g id="edge5_Node000002_Node000001" class="edge">
<title>Node2&#45;&gt;Node1</title>
<g id="a_edge5_Node000002_Node000001"><a xlink:title=" ">
<path fill="none" stroke="#63b8ff" d="M212.56,-331.32C227.1,-332.45 242.06,-333.6 256.59,-334.73"/>
<polygon fill="#63b8ff" stroke="#63b8ff" points="212.81,-327.83 202.57,-330.55 212.27,-334.81 212.81,-327.83"/>
</a>
</g>
</g>
<!-- Node2&#45;&gt;Node12 -->
<g id="edge7_Node000002_Node000012" class="edge">
<title>Node2&#45;&gt;Node12</title>
<g id="a_edge7_Node000002_Node000012"><a xlink:title=" ">
<path fill="none" stroke="#63b8ff" d="M195.26,-335.23C204.05,-337.29 212.77,-339.69 221,-342.5 238.12,-348.34 239.9,-355.61 257,-361.5 266.84,-364.89 277.46,-367.67 287.97,-369.95"/>
<polygon fill="#63b8ff" stroke="#63b8ff" points="195.86,-331.77 185.34,-333.04 194.35,-338.61 195.86,-331.77"/>
</a>
</g>
</g>
<!-- Node3 -->
<g id="Node000003" class="node">
<title>Node3</title>
<g id="a_Node000003"><a xlink:href="$class_llama_library_1_1_int32s.html" xlink:title=" ">
<polygon fill="white" stroke="#666666" points="408.5,-278 307.5,-278 307.5,-259 408.5,-259 408.5,-278"/>
<text text-anchor="middle" x="358" y="-266" font-family="Helvetica,sans-Serif" font-size="10.00">LlamaLibrary.Int32s</text>
</a>
</g>
</g>
<!-- Node2&#45;&gt;Node3 -->
<g id="edge4_Node000002_Node000003" class="edge">
<title>Node2&#45;&gt;Node3</title>
<g id="a_edge4_Node000002_Node000003"><a xlink:title=" ">
<path fill="none" stroke="#63b8ff" d="M197.91,-311.81C205.79,-309.99 213.59,-307.9 221,-305.5 238.02,-299.99 240.05,-293.22 257,-287.5 273.07,-282.07 291.15,-278.04 307.48,-275.13"/>
<polygon fill="#63b8ff" stroke="#63b8ff" points="196.94,-308.44 187.9,-313.97 198.41,-315.28 196.94,-308.44"/>
</a>
</g>
</g>
<!-- Node5 -->
<g id="Node000005" class="node">
<title>Node5</title>
<g id="a_Node000005"><a xlink:href="$class_llama_library_1_1_strings.html" xlink:title=" ">
<polygon fill="white" stroke="#666666" points="411,-315 305,-315 305,-296 411,-296 411,-315"/>
<text text-anchor="middle" x="358" y="-303" font-family="Helvetica,sans-Serif" font-size="10.00">LlamaLibrary.Strings</text>
</a>
</g>
</g>
<!-- Node2&#45;&gt;Node5 -->
<g id="edge6_Node000002_Node000005" class="edge">
<title>Node2&#45;&gt;Node5</title>
<g id="a_edge6_Node000002_Node000005"><a xlink:title=" ">
<path fill="none" stroke="#63b8ff" d="M212.77,-316.07C244.45,-313.75 278.11,-311.28 304.93,-309.32"/>
<polygon fill="#63b8ff" stroke="#63b8ff" points="212.28,-312.6 202.57,-316.82 212.8,-319.58 212.28,-312.6"/>
</a>
</g>
</g>
<!-- Node4 -->
<g id="Node000004" class="node">
<title>Node4</title>
<g id="a_Node000004"><a xlink:title=" ">
<polygon fill="#e0e0e0" stroke="#999999" points="203,-296 18,-296 18,-277 203,-277 203,-296"/>
<text text-anchor="middle" x="110.5" y="-284" font-family="Helvetica,sans-Serif" font-size="10.00">global.SystemCollections.Generic.IList</text>
</a>
</g>
</g>
<!-- Node4&#45;&gt;Node3 -->
<g id="edge8_Node000004_Node000003" class="edge">
<title>Node4&#45;&gt;Node3</title>
<g id="a_edge8_Node000004_Node000003"><a xlink:title=" ">
<path fill="none" stroke="#63b8ff" d="M213.27,-279.04C245.76,-276.66 280.26,-274.13 307.32,-272.14"/>
<polygon fill="#63b8ff" stroke="#63b8ff" points="212.98,-275.55 203.26,-279.77 213.49,-282.53 212.98,-275.55"/>
</a>
</g>
</g>
<!-- Node4&#45;&gt;Node5 -->
<g id="edge9_Node000004_Node000005" class="edge">
<title>Node4&#45;&gt;Node5</title>
<g id="a_edge9_Node000004_Node000005"><a xlink:title=" ">
<path fill="none" stroke="#63b8ff" d="M213.41,-294.39C244.88,-296.82 278.25,-299.4 304.88,-301.47"/>
<polygon fill="#63b8ff" stroke="#63b8ff" points="213.5,-290.88 203.26,-293.6 212.96,-297.86 213.5,-290.88"/>
</a>
</g>
</g>
<!-- Node6 -->
<g id="Node000006" class="node">
<title>Node6</title>
<g id="a_Node000006"><a xlink:title=" ">
<polygon fill="#e0e0e0" stroke="#999999" points="175,-204 46,-204 46,-185 175,-185 175,-204"/>
<text text-anchor="middle" x="110.5" y="-192" font-family="Helvetica,sans-Serif" font-size="10.00">global.SystemIDisposable</text>
</a>
</g>
</g>
<!-- Node6&#45;&gt;Node1 -->
<g id="edge13_Node000006_Node000001" class="edge">
<title>Node6&#45;&gt;Node1</title>
<g id="a_edge13_Node000006_Node000001"><a xlink:title=" ">
<path fill="none" stroke="#63b8ff" d="M139.04,-208.91C162.66,-222.19 196.65,-243.58 221,-268.5 241.68,-289.66 232.39,-308.07 257,-324.5 262.06,-327.88 267.57,-330.68 273.33,-332.98"/>
<polygon fill="#63b8ff" stroke="#63b8ff" points="140.67,-205.81 130.22,-204.06 137.3,-211.94 140.67,-205.81"/>
</a>
</g>
</g>
<!-- Node6&#45;&gt;Node12 -->
<g id="edge18_Node000006_Node000012" class="edge">
<title>Node6&#45;&gt;Node12</title>
<g id="a_edge18_Node000006_Node000012"><a xlink:title=" ">
<path fill="none" stroke="#63b8ff" d="M142.07,-208.64C166.4,-221.27 199.79,-241.89 221,-268.5 248.62,-303.16 222.81,-333.29 257,-361.5 264.55,-367.73 273.53,-372.11 282.96,-375.14"/>
<polygon fill="#63b8ff" stroke="#63b8ff" points="143.41,-205.4 132.9,-204.04 140.27,-211.65 143.41,-205.4"/>
</a>
</g>
</g>
<!-- Node6&#45;&gt;Node3 -->
<g id="edge12_Node000006_Node000003" class="edge">
<title>Node6&#45;&gt;Node3</title>
<g id="a_edge12_Node000006_Node000003"><a xlink:title=" ">
<path fill="none" stroke="#63b8ff" d="M141.96,-208.17C171.01,-220.74 216.25,-239.1 257,-250.5 273.22,-255.04 291.26,-258.7 307.5,-261.5"/>
<polygon fill="#63b8ff" stroke="#63b8ff" points="143.33,-204.95 132.76,-204.15 140.52,-211.36 143.33,-204.95"/>
</a>
</g>
</g>
<!-- Node6&#45;&gt;Node5 -->
<g id="edge17_Node000006_Node000005" class="edge">
<title>Node6&#45;&gt;Node5</title>
<g id="a_edge17_Node000006_Node000005"><a xlink:title=" ">
<path fill="none" stroke="#63b8ff" d="M133.18,-209.85C167.03,-233.55 231.25,-277.41 257,-287.5 272.03,-293.39 289.09,-297.37 304.81,-300.05"/>
<polygon fill="#63b8ff" stroke="#63b8ff" points="135.07,-206.9 124.88,-204.01 131.05,-212.63 135.07,-206.9"/>
</a>
</g>
</g>
<!-- Node7 -->
<g id="Node000007" class="node">
<title>Node7</title>
<g id="a_Node000007"><a xlink:href="$class_llama_library_1_1_async_llama_infrence.html" xlink:title=" ">
<polygon fill="white" stroke="#666666" points="439.5,-56 276.5,-56 276.5,-37 439.5,-37 439.5,-56"/>
<text text-anchor="middle" x="358" y="-44" font-family="Helvetica,sans-Serif" font-size="10.00">LlamaLibrary.AsyncLlamaInfrence</text>
</a>
</g>
</g>
<!-- Node6&#45;&gt;Node7 -->
<g id="edge10_Node000006_Node000007" class="edge">
<title>Node6&#45;&gt;Node7</title>
<g id="a_edge10_Node000006_Node000007"><a xlink:title=" ">
<path fill="none" stroke="#63b8ff" d="M125.57,-176.75C149.34,-148.09 200.43,-92.08 257,-64.5 264.06,-61.06 271.68,-58.27 279.46,-56.01"/>
<polygon fill="#63b8ff" stroke="#63b8ff" points="122.69,-174.74 119.09,-184.7 128.12,-179.16 122.69,-174.74"/>
</a>
</g>
</g>
<!-- Node8 -->
<g id="Node000008" class="node">
<title>Node8</title>
<g id="a_Node000008"><a xlink:href="$class_llama_library_1_1_file_wrapper.html" xlink:title=" ">
<polygon fill="white" stroke="#666666" points="422,-19 294,-19 294,0 422,0 422,-19"/>
<text text-anchor="middle" x="358" y="-7" font-family="Helvetica,sans-Serif" font-size="10.00">LlamaLibrary.FileWrapper</text>
</a>
</g>
</g>
<!-- Node6&#45;&gt;Node8 -->
<g id="edge11_Node000006_Node000008" class="edge">
<title>Node6&#45;&gt;Node8</title>
<g id="a_edge11_Node000006_Node000008"><a xlink:title=" ">
<path fill="none" stroke="#63b8ff" d="M121.62,-176.22C142.13,-141.06 192.19,-64.27 257,-27.5 268.2,-21.15 281.14,-16.95 293.93,-14.2"/>
<polygon fill="#63b8ff" stroke="#63b8ff" points="118.55,-174.54 116.63,-184.96 124.63,-178.01 118.55,-174.54"/>
</a>
</g>
</g>
<!-- Node9 -->
<g id="Node000009" class="node">
<title>Node9</title>
<g id="a_Node000009"><a xlink:href="$class_llama_library_1_1_llama_infrence.html" xlink:title=" ">
<polygon fill="white" stroke="#666666" points="425.5,-241 290.5,-241 290.5,-222 425.5,-222 425.5,-241"/>
<text text-anchor="middle" x="358" y="-229" font-family="Helvetica,sans-Serif" font-size="10.00">LlamaLibrary.LlamaInfrence</text>
</a>
</g>
</g>
<!-- Node6&#45;&gt;Node9 -->
<g id="edge14_Node000006_Node000009" class="edge">
<title>Node6&#45;&gt;Node9</title>
<g id="a_edge14_Node000006_Node000009"><a xlink:title=" ">
<path fill="none" stroke="#63b8ff" d="M184.77,-205.54C219.39,-210.76 260.3,-216.93 293.57,-221.94"/>
<polygon fill="#63b8ff" stroke="#63b8ff" points="185.13,-202.06 174.72,-204.03 184.09,-208.98 185.13,-202.06"/>
</a>
</g>
</g>
<!-- Node10 -->
<g id="Node000010" class="node">
<title>Node10</title>
<g id="a_Node000010"><a xlink:href="$class_llama_library_1_1_logging_context.html" xlink:title=" ">
<polygon fill="white" stroke="#666666" points="429.5,-204 286.5,-204 286.5,-185 429.5,-185 429.5,-204"/>
<text text-anchor="middle" x="358" y="-192" font-family="Helvetica,sans-Serif" font-size="10.00">LlamaLibrary.LoggingContext</text>
</a>
</g>
</g>
<!-- Node6&#45;&gt;Node10 -->
<g id="edge15_Node000006_Node000010" class="edge">
<title>Node6&#45;&gt;Node10</title>
<g id="a_edge15_Node000006_Node000010"><a xlink:title=" ">
<path fill="none" stroke="#63b8ff" d="M185.25,-194.5C217.3,-194.5 254.68,-194.5 286.37,-194.5"/>
<polygon fill="#63b8ff" stroke="#63b8ff" points="185.04,-191 175.04,-194.5 185.04,-198 185.04,-191"/>
</a>
</g>
</g>
<!-- Node11 -->
<g id="Node000011" class="node">
<title>Node11</title>
<g id="a_Node000011"><a xlink:href="$class_llama_library_1_1_string_and_float.html" xlink:title=" ">
<polygon fill="white" stroke="#666666" points="428,-167 288,-167 288,-148 428,-148 428,-167"/>
<text text-anchor="middle" x="358" y="-155" font-family="Helvetica,sans-Serif" font-size="10.00">LlamaLibrary.StringAndFloat</text>
</a>
</g>
</g>
<!-- Node6&#45;&gt;Node11 -->
<g id="edge16_Node000006_Node000011" class="edge">
<title>Node6&#45;&gt;Node11</title>
<g id="a_edge16_Node000006_Node000011"><a xlink:title=" ">
<path fill="none" stroke="#63b8ff" d="M184.77,-183.46C219.39,-178.24 260.3,-172.07 293.57,-167.06"/>
<polygon fill="#63b8ff" stroke="#63b8ff" points="184.09,-180.02 174.72,-184.97 185.13,-186.94 184.09,-180.02"/>
</a>
</g>
</g>
<!-- Node13 -->
<g id="Node000013" class="node">
<title>Node13</title>
<g id="a_Node000013"><a xlink:href="$class_llama_library_1_1gpt__params.html" xlink:title=" ">
<polygon fill="white" stroke="#666666" points="421,-130 295,-130 295,-111 421,-111 421,-130"/>
<text text-anchor="middle" x="358" y="-118" font-family="Helvetica,sans-Serif" font-size="10.00">LlamaLibrary.gpt_params</text>
</a>
</g>
</g>
<!-- Node6&#45;&gt;Node13 -->
<g id="edge19_Node000006_Node000013" class="edge">
<title>Node6&#45;&gt;Node13</title>
<g id="a_edge19_Node000006_Node000013"><a xlink:title=" ">
<path fill="none" stroke="#63b8ff" d="M141.96,-180.83C171.01,-168.26 216.25,-149.9 257,-138.5 269.15,-135.1 282.31,-132.2 294.97,-129.78"/>
<polygon fill="#63b8ff" stroke="#63b8ff" points="140.52,-177.64 132.76,-184.85 143.33,-184.05 140.52,-177.64"/>
</a>
</g>
</g>
<!-- Node14 -->
<g id="Node000014" class="node">
<title>Node14</title>
<g id="a_Node000014"><a xlink:href="$class_llama_library_1_1llama__sampling__params.html" xlink:title=" ">
<polygon fill="white" stroke="#666666" points="448,-93 268,-93 268,-74 448,-74 448,-93"/>
<text text-anchor="middle" x="358" y="-81" font-family="Helvetica,sans-Serif" font-size="10.00">LlamaLibrary.llama_sampling_params</text>
</a>
</g>
</g>
<!-- Node6&#45;&gt;Node14 -->
<g id="edge20_Node000006_Node000014" class="edge">
<title>Node6&#45;&gt;Node14</title>
<g id="a_edge20_Node000006_Node000014"><a xlink:title=" ">
<path fill="none" stroke="#63b8ff" d="M131.22,-178.28C157.98,-157.15 208.1,-120.66 257,-101.5 265.79,-98.06 275.27,-95.27 284.77,-93.01"/>
<polygon fill="#63b8ff" stroke="#63b8ff" points="128.69,-175.82 123.08,-184.81 133.07,-181.28 128.69,-175.82"/>
</a>
</g>
</g>
</g>
</svg>
